<svg xmlns="http://www.w3.org/2000/svg" width="1140" height="172" viewBox="0 0 1140 172"><g transform="translate(-390 -3268)"><path d="M20,1A18.983,18.983,0,0,0,1,20V132a18.983,18.983,0,0,0,19,19H293a18.983,18.983,0,0,0,19-19V20A18.983,18.983,0,0,0,293,1H20m0-1H293a20,20,0,0,1,20,20V132a20,20,0,0,1-20,20H20A20,20,0,0,1,0,132V20A20,20,0,0,1,20,0Z" transform="translate(390 3288)" fill="#0f249a"/><path d="M20,1A18.983,18.983,0,0,0,1,20V132a18.983,18.983,0,0,0,19,19H293a18.983,18.983,0,0,0,19-19V20A18.983,18.983,0,0,0,293,1H20m0-1H293a20,20,0,0,1,20,20V132a20,20,0,0,1-20,20H20A20,20,0,0,1,0,132V20A20,20,0,0,1,20,0Z" transform="translate(1217 3288)" fill="#0f249a"/><path d="M25,0A25,25,0,0,1,50,25V171a25,25,0,0,1-50,0V25A25,25,0,0,1,25,0Z" transform="translate(645 3268) rotate(90)" fill="#0f249a"/><path d="M-44.46-8.5a15.588,15.588,0,0,0,.468-4.428v-1.368H-55.476v1.872h9.108A13.843,13.843,0,0,1-46.8-8.73ZM-49.788-.234c-2.232,0-3.51-.45-3.51-1.332,0-.9,1.278-1.35,3.51-1.35,2.25,0,3.528.45,3.528,1.35C-46.26-.684-47.538-.234-49.788-.234Zm0-4.464c-3.564,0-5.868,1.188-5.868,3.132,0,1.926,2.3,3.114,5.868,3.114,3.582,0,5.886-1.188,5.886-3.114C-43.9-3.51-46.206-4.7-49.788-4.7Zm.54-2.916v-2.9h-2.376v2.9H-57.15v1.872h14.922V-7.614ZM-27.9-8.5a15.588,15.588,0,0,0,.468-4.428v-1.368H-38.916v1.872h9.108a13.843,13.843,0,0,1-.432,3.69ZM-33.228-.234c-2.232,0-3.51-.45-3.51-1.332,0-.9,1.278-1.35,3.51-1.35,2.25,0,3.528.45,3.528,1.35C-29.7-.684-30.978-.234-33.228-.234Zm0-4.464C-36.792-4.7-39.1-3.51-39.1-1.566c0,1.926,2.3,3.114,5.868,3.114,3.582,0,5.886-1.188,5.886-3.114C-27.342-3.51-29.646-4.7-33.228-4.7Zm.54-2.916v-2.9h-2.376v2.9H-40.59v1.872h14.922V-7.614Zm20.106-3.546v1.422h-3.672v1.782h3.672v1.242h2.376V-15.03h-2.376v2.088h-3.042a9.58,9.58,0,0,0,.108-1.458h-7.4v1.89h4.788c-.288,1.944-1.98,3.528-5.742,4.266l.792,1.908c3.636-.792,5.976-2.358,6.984-4.824ZM-18.738-.486V-1.53h8.532V-6.1H-21.132V-4.23h8.55v.936h-8.532v4.68h11.25V-.486ZM2.268-13.572H-1.44v-1.584H-3.834v1.584h-3.69v1.854H2.25Zm-6.7,5.238c0-.792.738-1.206,1.8-1.206s1.8.414,1.8,1.206-.738,1.206-1.8,1.206S-4.428-7.542-4.428-8.334Zm5.868,0c0-1.764-1.674-2.934-4.068-2.934S-6.7-10.1-6.7-8.334C-6.7-6.588-5.022-5.4-2.628-5.4S1.44-6.588,1.44-8.334ZM3.186-.486H-2.88v-1.17H3.186Zm0-2.952H-2.88V-4.7H-5.238V1.35H5.544V-4.7H3.186ZM7.74-11.052h-2.2v-3.96H3.168v9.7H5.544v-3.8h2.2Zm4.14-.216h3.978v-1.89H9.54V-2.142h1.134A29.246,29.246,0,0,0,16.6-2.574l-.2-1.944a24.839,24.839,0,0,1-4.518.432ZM17.6-8.982h-2.88v1.926H17.6V.81h2.214V-14.724H17.6Zm3.438-6.066V1.53h2.25V-15.048Zm15.93,0V1.584h2.376V-15.048Zm-6.534,1.17c-2.5,0-4.356,2.268-4.356,5.9,0,3.654,1.854,5.94,4.356,5.94s4.356-2.286,4.356-5.94C34.794-11.61,32.94-13.878,30.438-13.878Zm0,2.142c1.224,0,2.07,1.314,2.07,3.762,0,2.466-.846,3.78-2.07,3.78s-2.07-1.314-2.07-3.78C28.368-10.422,29.214-11.736,30.438-11.736Zm14.85,4.554H50.04V-9.036H45.288v-2.7H50.6v-1.908H42.93V-2.178h1.35a44.592,44.592,0,0,0,7.308-.432l-.216-1.908a38.884,38.884,0,0,1-6.084.432Zm8.424-7.866V-9.2H50.868V-7.29h2.844V1.584h2.376V-15.048Z" transform="translate(547 3301)" fill="#fff"/><path d="M20,1A18.983,18.983,0,0,0,1,20V132a18.983,18.983,0,0,0,19,19H293a18.983,18.983,0,0,0,19-19V20A18.983,18.983,0,0,0,293,1H20m0-1H293a20,20,0,0,1,20,20V132a20,20,0,0,1-20,20H20A20,20,0,0,1,0,132V20A20,20,0,0,1,20,0Z" transform="translate(803 3288)" fill="#0f249a"/><path d="M25,0A25,25,0,0,1,50,25V175a25,25,0,0,1-50,0V25A25,25,0,0,1,25,0Z" transform="translate(1059 3268) rotate(90)" fill="#0f249a"/><path d="M-56.4-11.268h3.978v-1.89h-6.318V-2.142h1.134a29.246,29.246,0,0,0,5.922-.432l-.2-1.944a24.839,24.839,0,0,1-4.518.432Zm5.724,2.286h-2.88v1.926h2.88V.81h2.214V-14.724h-2.214Zm3.438-6.066V1.53h2.25V-15.048Zm15.93,0V1.584h2.376V-15.048Zm-6.534,1.17c-2.5,0-4.356,2.268-4.356,5.9,0,3.654,1.854,5.94,4.356,5.94s4.356-2.286,4.356-5.94C-33.489-11.61-35.343-13.878-37.845-13.878Zm0,2.142c1.224,0,2.07,1.314,2.07,3.762,0,2.466-.846,3.78-2.07,3.78s-2.07-1.314-2.07-3.78C-39.915-10.422-39.069-11.736-37.845-11.736Zm14.85,4.554h4.752V-9.036h-4.752v-2.7h5.31v-1.908h-7.668V-2.178H-24a44.592,44.592,0,0,0,7.308-.432l-.216-1.908a38.884,38.884,0,0,1-6.084.432Zm8.424-7.866V-9.2h-2.844V-7.29h2.844V1.584h2.376V-15.048ZM-1.449-1.422H7.893V-5.8H-3.825v1.782h9.36v.9H-3.789V1.35H8.433V-.432H-1.449ZM7.5-8.658a23.865,23.865,0,0,0,.288-4.32v-1.476H-3.609v1.836H5.445c0,.306,0,.63-.018.954l-9.5.216.252,1.818,9.144-.4c-.054.45-.126.882-.2,1.368H-5.427v1.872H9.5V-8.658Zm6.624,1.44h5.256v-6.408H11.763v1.89h5.274V-9.09H11.781v6.84h1.4a41.1,41.1,0,0,0,7.65-.558l-.216-1.926a37.713,37.713,0,0,1-6.5.522ZM26.487-8.784H24.111v-6.264H21.735V1.584h2.376V-6.822h2.376Zm8.64-3.8c2.16,0,3.546.648,3.546,1.836,0,1.206-1.386,1.854-3.546,1.854-2.178,0-3.564-.648-3.564-1.854C31.563-11.934,32.949-12.582,35.127-12.582Zm0,5.58c3.528,0,5.994-1.458,5.994-3.744,0-2.25-2.466-3.726-5.994-3.726-3.546,0-5.994,1.476-5.994,3.726C29.133-8.46,31.581-7,35.127-7ZM42.669-5.76H27.657v1.908h6.264V1.566H36.3V-3.852h6.372ZM57.627-7.38H48.339v-4.356H57.5v-1.926H45.963V-5.49H57.627Zm-13.41,5V-.432H59.229V-2.376Z" transform="translate(959 3301)" fill="#fff"/><path d="M25,0A25,25,0,0,1,50,25V163a25,25,0,0,1-50,0V25A25,25,0,0,1,25,0Z" transform="translate(1468 3268) rotate(90)" fill="#0f249a"/><path d="M-50.544-9.756a2.054,2.054,0,0,1,2.178-2.16,2.064,2.064,0,0,1,2.178,2.16A2.064,2.064,0,0,1-48.366-7.6,2.054,2.054,0,0,1-50.544-9.756Zm6.66,0a4.25,4.25,0,0,0-4.482-4.212,4.255,4.255,0,0,0-4.5,4.212,4.266,4.266,0,0,0,4.5,4.212A4.261,4.261,0,0,0-43.884-9.756Zm-4.374,5.544h-2.376V1.26h11.286V-.63h-8.91Zm8.316-6.066V-15.03h-2.376V-2.97h2.376V-8.334h2.2v-1.944ZM-26.28-8.1a4.84,4.84,0,0,1-3.852-4.716v-1.6h-2.412v1.6a5.192,5.192,0,0,1-3.96,5l1.152,1.872A6.53,6.53,0,0,0-31.3-9.4a6.159,6.159,0,0,0,3.888,3.15Zm-5.076,5.058h6.372V-.5h-6.372ZM-33.7,1.35h11.034V-4.9H-33.7Zm8.64-16.38v9.36h2.394v-9.36Zm18.9,1.044h-3.51v-1.17h-2.376v1.17H-15.57v1.566h9.414Zm-6.5,4.05c0-.468.666-.7,1.8-.7s1.782.234,1.782.7c0,.486-.648.738-1.782.738S-12.654-9.45-12.654-9.936Zm6.912,2.448c-1.26.144-2.592.252-3.924.324V-7.83C-7.9-8.046-6.822-8.8-6.822-9.936c0-1.35-1.566-2.16-4.032-2.16s-4.05.81-4.05,2.16c0,1.134,1.08,1.89,2.862,2.106v.756c-1.422.036-2.754.036-3.942.036l.234,1.62A60.5,60.5,0,0,0-5.58-6.066Zm-5.67,6.552h8.766V-4.68H-13.788v1.566h8.8v.72H-13.77V1.422h11.7V-.144h-9.342Zm8.766-10.188v-3.924H-5.022v9.774h2.376V-9.18H-.558v-1.944ZM8.226-.234c-2.214,0-3.348-.378-3.348-1.224S6.012-2.664,8.226-2.664s3.348.36,3.348,1.206S10.44-.234,8.226-.234Zm0-4.23c-3.582,0-5.742,1.08-5.742,3.006s2.16,3.024,5.742,3.024,5.76-1.1,5.76-3.024S11.808-4.464,8.226-4.464ZM6.516-8.55a13.173,13.173,0,0,0,1.746.108,16.65,16.65,0,0,0,1.71-.09v1.368H6.516Zm1.746-4.428c2.268,0,3.564.45,3.564,1.386,0,.9-1.3,1.368-3.564,1.368-2.25,0-3.546-.468-3.546-1.368C4.716-12.528,6.012-12.978,8.262-12.978Zm4.086,5.814v-1.98a2.726,2.726,0,0,0,1.926-2.448c0-1.98-2.34-3.186-6.012-3.186-3.654,0-5.994,1.206-5.994,3.186A2.714,2.714,0,0,0,4.14-9.162v2H.774v1.872H15.75V-7.164Zm23.2-7.866H33.3v12.4h2.25ZM29.988-3.114H32.2V-14.742H29.988v3.492h-1.98v1.926h1.98ZM29.5-6.966A5.064,5.064,0,0,1,26.64-11.79v-2.124h-2.3v2.124A5.631,5.631,0,0,1,21.2-6.552l1.3,1.8a6.109,6.109,0,0,0,3.024-3.276,5.37,5.37,0,0,0,2.682,2.88ZM26.766-.63V-4.068H24.39V1.26H35.964V-.63ZM41.094-7.182h4.752V-9.036H41.094v-2.7H46.4v-1.908H38.736V-2.178h1.35a44.592,44.592,0,0,0,7.308-.432l-.216-1.908a38.884,38.884,0,0,1-6.084.432Zm8.424-7.866V-9.2H46.674V-7.29h2.844V1.584h2.376V-15.048Z" transform="translate(1374 3301)" fill="#fff"/><path d="M14.032-5.968v-1.68H12.176a20.058,20.058,0,0,0,.288-3.9v-1.184H2.336v1.7h8.048a16.3,16.3,0,0,1-.32,3.392H.688v1.68h5.6v2.08H2.032v1.664h8.336v3.6H12.5V-3.888H8.4v-2.08Zm2.048-5.888v1.712H20.9c-.384,3.264-2.208,5.6-5.632,7.36l1.184,1.616a11.072,11.072,0,0,0,6.576-10.688ZM29.008-7.744H26.944v-5.632H24.832V1.344h2.112V-6h2.064Zm6.928-1.232a1.766,1.766,0,0,1,1.936-1.808,1.774,1.774,0,0,1,1.936,1.808,1.762,1.762,0,0,1-1.936,1.792A1.754,1.754,0,0,1,35.936-8.976Zm5.92,0a3.693,3.693,0,0,0-3.984-3.584,3.7,3.7,0,0,0-4,3.584,3.705,3.705,0,0,0,4,3.568A3.7,3.7,0,0,0,41.856-8.976Zm-4,6.272H43.3V-.448h-5.44Zm-2.08,3.9H45.36V-4.352H35.776ZM47.312-10.1H45.36v-3.248H43.248v8.352H45.36V-8.368h1.952Zm3.68.08h3.536V-11.7H48.912V-1.9H49.92a26,26,0,0,0,5.264-.384l-.176-1.728a22.079,22.079,0,0,1-4.016.384ZM56.08-7.984H53.52v1.712h2.56V.72h1.968V-13.088H56.08Zm3.056-5.392V1.36h2V-13.376Zm14.16,0V1.408h2.112V-13.376Zm-5.808,1.04c-2.224,0-3.872,2.016-3.872,5.248,0,3.248,1.648,5.28,3.872,5.28S71.36-3.84,71.36-7.088C71.36-10.32,69.712-12.336,67.488-12.336Zm0,1.9c1.088,0,1.84,1.168,1.84,3.344,0,2.192-.752,3.36-1.84,3.36s-1.84-1.168-1.84-3.36C65.648-9.264,66.4-10.432,67.488-10.432Zm13.2,4.048h4.224V-8.032H80.688v-2.4h4.72v-1.7H78.592V-1.936h1.2a39.638,39.638,0,0,0,6.5-.384l-.192-1.7a34.563,34.563,0,0,1-5.408.384Zm7.488-6.992v5.2H85.648v1.7h2.528V1.408h2.112V-13.376Zm20.656.016h-2V-2.336h2ZM103.888-2.768h1.968V-13.1h-1.968V-10h-1.76v1.712h1.76Zm-.432-3.424a4.5,4.5,0,0,1-2.544-4.288v-1.888H98.864v1.888A5.005,5.005,0,0,1,96.08-5.824l1.152,1.6A5.43,5.43,0,0,0,99.92-7.136a4.774,4.774,0,0,0,2.384,2.56ZM101.024-.56V-3.616H98.912V1.12H109.2V-.56ZM113.76-6.384h4.224V-8.032H113.76v-2.4h4.72v-1.7h-6.816V-1.936h1.2a39.638,39.638,0,0,0,6.5-.384l-.192-1.7a34.563,34.563,0,0,1-5.408.384Zm7.488-6.992v5.2H118.72v1.7h2.528V1.408h2.112V-13.376Zm10.272,4.4a1.766,1.766,0,0,1,1.936-1.808,1.774,1.774,0,0,1,1.936,1.808,1.762,1.762,0,0,1-1.936,1.792A1.754,1.754,0,0,1,131.52-8.976Zm5.92,0a3.693,3.693,0,0,0-3.984-3.584,3.7,3.7,0,0,0-4,3.584,3.705,3.705,0,0,0,4,3.568A3.7,3.7,0,0,0,137.44-8.976Zm-4,6.272h5.44V-.448h-5.44Zm-2.08,3.9h9.584V-4.352H131.36ZM142.9-10.1h-1.952v-3.248h-2.112v8.352h2.112V-8.368H142.9Zm16.112,2.544a13.856,13.856,0,0,0,.416-3.936V-12.7H149.216v1.664h8.1a12.305,12.305,0,0,1-.384,3.28ZM154.272-.208c-1.984,0-3.12-.4-3.12-1.184,0-.8,1.136-1.2,3.12-1.2,2,0,3.136.4,3.136,1.2C157.408-.608,156.272-.208,154.272-.208Zm0-3.968c-3.168,0-5.216,1.056-5.216,2.784,0,1.712,2.048,2.768,5.216,2.768,3.184,0,5.232-1.056,5.232-2.768C159.5-3.12,157.456-4.176,154.272-4.176Zm.48-2.592V-9.344H152.64v2.576h-4.912V-5.1h13.264V-6.768Zm18.976-.784a13.856,13.856,0,0,0,.416-3.936V-12.7H163.936v1.664h8.1a12.305,12.305,0,0,1-.384,3.28ZM168.992-.208c-1.984,0-3.12-.4-3.12-1.184,0-.8,1.136-1.2,3.12-1.2,2,0,3.136.4,3.136,1.2C172.128-.608,170.992-.208,168.992-.208Zm0-3.968c-3.168,0-5.216,1.056-5.216,2.784,0,1.712,2.048,2.768,5.216,2.768,3.184,0,5.232-1.056,5.232-2.768C174.224-3.12,172.176-4.176,168.992-4.176Zm.48-2.592V-9.344H167.36v2.576h-4.912V-5.1h13.264V-6.768Zm10.352.352H184.5v-5.7h-6.768v1.68h4.688V-8.08h-4.672V-2h1.248a36.532,36.532,0,0,0,6.8-.5L185.6-4.208a33.523,33.523,0,0,1-5.776.464Zm10.992-1.392H188.7v-5.568h-2.112V1.408H188.7V-6.064h2.112Zm11.136-5.568V1.408h2.112V-13.376Zm-5.808,1.04c-2.224,0-3.872,2.016-3.872,5.248,0,3.248,1.648,5.28,3.872,5.28s3.872-2.032,3.872-5.28C200.016-10.32,198.368-12.336,196.144-12.336Zm0,1.9c1.088,0,1.84,1.168,1.84,3.344,0,2.192-.752,3.36-1.84,3.36S194.3-4.9,194.3-7.088C194.3-9.264,195.056-10.432,196.144-10.432ZM206.576-2.1V-.368H219.92V-2.1Zm1.408-10.3v7.856h10.48V-12.4h-2.08v2.384h-6.3V-12.4Zm2.1,4.032h6.3v2.144h-6.3Zm13.808,1.776h4.528v-5.52h-6.64v1.68h4.544V-8.24h-4.512V-2h1.216a39.573,39.573,0,0,0,6.592-.432l-.192-1.712a34.523,34.523,0,0,1-5.536.416Zm7.616-6.784v5.312h-2.3v1.712h2.3v7.76h2.128V-13.376Zm7.456,6.96h4.784v-5.7h-6.96v1.68h4.8V-8.08H236.8v6.064h1.328a40.412,40.412,0,0,0,7.232-.512l-.224-1.712a36.876,36.876,0,0,1-6.176.48Zm7.2-6.96V1.408h2.112V-13.376Z" transform="translate(410 3357)" fill="#111"/><path d="M2.864-8.976A1.766,1.766,0,0,1,4.8-10.784,1.774,1.774,0,0,1,6.736-8.976,1.762,1.762,0,0,1,4.8-7.184,1.754,1.754,0,0,1,2.864-8.976Zm5.92,0A3.693,3.693,0,0,0,4.8-12.56a3.7,3.7,0,0,0-4,3.584,3.705,3.705,0,0,0,4,3.568A3.7,3.7,0,0,0,8.784-8.976Zm-4,6.272h5.44V-.448H4.784ZM2.7,1.2h9.584V-4.352H2.7ZM14.24-10.1H12.288v-3.248H10.176v8.352h2.112V-8.368H14.24ZM30.352-7.552a13.856,13.856,0,0,0,.416-3.936V-12.7H20.56v1.664h8.1a12.305,12.305,0,0,1-.384,3.28ZM25.616-.208c-1.984,0-3.12-.4-3.12-1.184,0-.8,1.136-1.2,3.12-1.2,2,0,3.136.4,3.136,1.2C28.752-.608,27.616-.208,25.616-.208Zm0-3.968c-3.168,0-5.216,1.056-5.216,2.784,0,1.712,2.048,2.768,5.216,2.768,3.184,0,5.232-1.056,5.232-2.768C30.848-3.12,28.8-4.176,25.616-4.176Zm.48-2.592V-9.344H23.984v2.576H19.072V-5.1H32.336V-6.768Zm18.976-.784a13.856,13.856,0,0,0,.416-3.936V-12.7H35.28v1.664h8.1a12.305,12.305,0,0,1-.384,3.28ZM40.336-.208c-1.984,0-3.12-.4-3.12-1.184,0-.8,1.136-1.2,3.12-1.2,2,0,3.136.4,3.136,1.2C43.472-.608,42.336-.208,40.336-.208Zm0-3.968c-3.168,0-5.216,1.056-5.216,2.784,0,1.712,2.048,2.768,5.216,2.768,3.184,0,5.232-1.056,5.232-2.768C45.568-3.12,43.52-4.176,40.336-4.176Zm.48-2.592V-9.344H38.7v2.576H33.792V-5.1H47.056V-6.768ZM54.8-6.416h4.672v-5.7H52.7v1.68h4.688V-8.08H52.72V-2h1.248a36.533,36.533,0,0,0,6.8-.5l-.192-1.712a33.523,33.523,0,0,1-5.776.464ZM65.792-7.808H63.68v-5.568H61.568V1.408H63.68V-6.064h2.112Zm11.136-5.568V1.408H79.04V-13.376Zm-5.808,1.04c-2.224,0-3.872,2.016-3.872,5.248,0,3.248,1.648,5.28,3.872,5.28s3.872-2.032,3.872-5.28C74.992-10.32,73.344-12.336,71.12-12.336Zm0,1.9c1.088,0,1.84,1.168,1.84,3.344,0,2.192-.752,3.36-1.84,3.36S69.28-4.9,69.28-7.088C69.28-9.264,70.032-10.432,71.12-10.432ZM81.552-2.1V-.368H94.9V-2.1ZM82.96-12.4v7.856H93.44V-12.4H91.36v2.384h-6.3V-12.4Zm2.1,4.032h6.3v2.144h-6.3ZM98.864-6.592h4.528v-5.52h-6.64v1.68H101.3V-8.24H96.784V-2H98a39.573,39.573,0,0,0,6.592-.432L104.4-4.144a34.524,34.524,0,0,1-5.536.416Zm7.616-6.784v5.312h-2.3v1.712h2.3v7.76h2.128V-13.376Zm7.456,6.96h4.784v-5.7h-6.96v1.68h4.8V-8.08h-4.784v6.064H113.1a40.412,40.412,0,0,0,7.232-.512l-.224-1.712a36.876,36.876,0,0,1-6.176.48Zm7.2-6.96V1.408h2.112V-13.376ZM130.112,0h3.376c3.488,0,5.728-1.984,5.728-5.968,0-4-2.24-5.888-5.856-5.888h-3.248Zm2.368-1.9V-9.952h.736c2.208,0,3.584,1.088,3.584,3.984,0,2.88-1.376,4.064-3.584,4.064ZM143.552.224a4.213,4.213,0,0,0,2.7-1.184h.064l.16.96h1.92V-5.232c0-2.592-1.168-3.952-3.44-3.952A7.158,7.158,0,0,0,141.216-8l.848,1.552a5.062,5.062,0,0,1,2.464-.848c1.1,0,1.488.672,1.536,1.552-3.616.384-5.168,1.392-5.168,3.312A2.545,2.545,0,0,0,143.552.224Zm.768-1.84c-.688,0-1.184-.3-1.184-1.008,0-.8.736-1.408,2.928-1.68V-2.5A2.435,2.435,0,0,1,144.32-1.616Zm9.456,1.84a5.79,5.79,0,0,0,1.888-.336l-.384-1.712a2.618,2.618,0,0,1-.88.192c-.8,0-1.216-.48-1.216-1.5V-7.1h2.208V-8.96h-2.208v-2.416h-1.952L150.96-8.96l-1.392.112V-7.1h1.264v3.968C150.832-1.136,151.648.224,153.776.224Zm5.28,0a4.213,4.213,0,0,0,2.7-1.184h.064l.16.96h1.92V-5.232c0-2.592-1.168-3.952-3.44-3.952A7.158,7.158,0,0,0,156.72-8l.848,1.552a5.062,5.062,0,0,1,2.464-.848c1.1,0,1.488.672,1.536,1.552-3.616.384-5.168,1.392-5.168,3.312A2.545,2.545,0,0,0,159.056.224Zm.768-1.84c-.688,0-1.184-.3-1.184-1.008,0-.8.736-1.408,2.928-1.68V-2.5A2.435,2.435,0,0,1,159.824-1.616ZM169.36,0h8.48V-1.984h-5.568l5.52-8.448v-1.424h-7.9v1.984h4.992l-5.52,8.448ZM183.2.224a4.371,4.371,0,0,0,4.3-4.7,4.371,4.371,0,0,0-4.3-4.7,4.371,4.371,0,0,0-4.3,4.7A4.371,4.371,0,0,0,183.2.224Zm0-1.92c-1.216,0-1.9-1.088-1.9-2.784,0-1.68.688-2.784,1.9-2.784s1.9,1.1,1.9,2.784C185.1-2.784,184.416-1.7,183.2-1.7ZM189.472,0h2.352V-6.16a2.518,2.518,0,0,1,1.856-1.008c.88,0,1.264.48,1.264,1.872V0H197.3V-5.584c0-2.256-.832-3.6-2.768-3.6a4.13,4.13,0,0,0-2.912,1.408h-.048l-.176-1.184h-1.92Zm14.16.224a5.641,5.641,0,0,0,3.12-.992l-.8-1.44a3.693,3.693,0,0,1-2.016.624,2.354,2.354,0,0,1-2.48-2.24h5.52a4.421,4.421,0,0,0,.112-1.088c0-2.464-1.28-4.272-3.744-4.272a4.391,4.391,0,0,0-4.176,4.7A4.35,4.35,0,0,0,203.632.224Zm-2.208-5.616a2.017,2.017,0,0,1,1.952-1.968c1.152,0,1.7.768,1.7,1.968ZM211.76-3.6c-.8,0-1.28-1.1-1.28-3.376,0-2.256.48-3.36,1.28-3.36.816,0,1.28,1.1,1.28,3.36C213.04-4.7,212.576-3.6,211.76-3.6ZM216.1-7.936h-1.168c-.24-2.752-1.424-4.384-3.168-4.384-1.952,0-3.184,2.016-3.184,5.344,0,3.344,1.232,5.36,3.184,5.36,1.792,0,2.992-1.728,3.184-4.608H216.1V.72h1.968V-13.12H216.1Zm2.992-5.44V1.36h2V-13.376ZM10.9,14.464v1.344H8.272V14.464Zm-4.688,2.48h-2.8V15.12h2.8Zm2.064.544H10.9V19.44h2.112v-8.8H10.9v2.144H8.272V11.52H6.208V13.5h-2.8V11.536h-2.1v7.088h6.96Zm-.256,6.288c-1.92,0-2.928-.4-2.928-1.232S6.1,21.312,8.016,21.312c1.936,0,2.944.4,2.944,1.232S9.952,23.776,8.016,23.776Zm0-4.064c-3.12,0-5.04,1.04-5.04,2.832s1.92,2.832,5.04,2.832c3.136,0,5.056-1.04,5.056-2.832S11.152,19.712,8.016,19.712Zm17.6-1.408h2.112V10.64H25.616v1.552H23.248v1.68h2.368V14.96H23.248v1.664h2.368ZM22.944,16.16a36.479,36.479,0,0,1-4.88.272V15.376H22.4V11.3H15.952v1.6H20.32v.976H15.968v4.176h1.12a41.077,41.077,0,0,0,6-.288ZM20,23.7v-.912h7.728v-3.92h-9.84v1.584h7.76v.88H17.92V25.3H28.16V23.7Zm16.192-5.84h2.9V16.224h-2.9V13.936h3.456v-1.68H34.192v9.872H35.2a30.127,30.127,0,0,0,5.184-.3l-.176-1.68a26.187,26.187,0,0,1-4.016.288ZM41.36,16h-1.6v1.712h1.6V24.72h1.968V10.912H41.36Zm3.056-5.376V25.36h2V10.624Zm14.16,0V25.408h2.112V10.624Zm-5.808,1.04c-2.224,0-3.872,2.016-3.872,5.248,0,3.248,1.648,5.28,3.872,5.28s3.872-2.032,3.872-5.28C56.64,13.68,54.992,11.664,52.768,11.664Zm0,1.9c1.088,0,1.84,1.168,1.84,3.344,0,2.192-.752,3.36-1.84,3.36s-1.84-1.168-1.84-3.36C50.928,14.736,51.68,13.568,52.768,13.568Zm19.968.7H66.992v-.864h5.744Zm2.1-3.376h-2.1v.976H66.992V10.9H64.9v4.928h9.936Zm-8,11.968H74.9V19.12H64.72v1.552h8.1v.752h-8.08v3.84H75.28V23.7H66.832ZM63.2,16.624v1.664H76.512V16.624Zm28.56,3.392h2.112V10.64H91.76v3.232H89.872v1.68H91.76v1.264H89.84V18.5h1.92Zm-2.08-8.048H86.8v-1.44H84.688v1.44H81.6v1.664h8.08ZM84.256,16.9c0-.768.592-1.184,1.488-1.184.88,0,1.488.416,1.488,1.184s-.608,1.184-1.488,1.184C84.848,18.08,84.256,17.664,84.256,16.9Zm4.928,0c0-1.632-1.424-2.752-3.44-2.752-2.032,0-3.456,1.12-3.456,2.752s1.424,2.752,3.456,2.752C87.76,19.648,89.184,18.528,89.184,16.9Zm-.288,6.88c-1.824,0-2.816-.3-2.816-.976,0-.688.992-.976,2.816-.976,1.808,0,2.816.288,2.816.976C91.712,23.472,90.7,23.776,88.9,23.776Zm0-3.568c-3.1,0-5.056.96-5.056,2.592,0,1.616,1.952,2.576,5.056,2.576s5.04-.96,5.04-2.576C93.936,21.168,92,20.208,88.9,20.208Zm9.872-2.56h3.648V16.016H98.768V13.84h3.952V12.16H96.768v9.856h1.024a30.138,30.138,0,0,0,5.36-.32L102.96,20a28.133,28.133,0,0,1-4.192.288Zm8.144-7.024v5.712h-1.184V10.864H103.76V24.72h1.968V18.032h1.184v7.344h2V10.624ZM118.7,22.032V19.84h4.464v-1.7h-8.544V16.5h8.208V11.584h-10.32v1.68h8.24v1.584h-8.224V19.84h4.064v2.192h-5.6V23.76h13.344V22.032Zm23.968-4.272h-1.936a25.692,25.692,0,0,0,.368-4.944V11.488H130.88v1.7h8.16a22.24,22.24,0,0,1-.4,4.576h-9.28v1.7h5.5v5.92h2.144v-5.92h5.664Zm2.688-.944c2.768-.272,4.576-1.328,5.36-2.752.784,1.424,2.592,2.48,5.344,2.752l.752-1.648c-2.8-.24-4.24-1.28-4.576-2.32h3.936V11.184H145.264v1.664H149.2c-.336,1.04-1.792,2.064-4.56,2.32Zm12.032,2.272v-1.7H144.064v1.7h5.6v1.424h-4.128v1.664h8.128v3.216h2.112v-4.88h-4V19.088Z" transform="translate(823 3357)" fill="#111"/><path d="M2.88-8.672A1.824,1.824,0,0,1,4.752-10.64,1.828,1.828,0,0,1,6.64-8.672,1.832,1.832,0,0,1,4.752-6.688,1.829,1.829,0,0,1,2.88-8.672Zm8.016-.96v1.9H8.528a3.634,3.634,0,0,0,.112-.944,4.639,4.639,0,0,0-.112-.96Zm0,3.584v3.472h2.112V-13.36H10.9v2.048H7.616A3.931,3.931,0,0,0,4.752-12.48,3.762,3.762,0,0,0,.88-8.672,3.766,3.766,0,0,0,4.752-4.848a3.967,3.967,0,0,0,2.9-1.2ZM5.408-.56V-3.632H3.3V1.12H13.344V-.56ZM28.736-6.24H26.8a25.692,25.692,0,0,0,.368-4.944v-1.328H16.944v1.7H25.1a22.24,22.24,0,0,1-.4,4.576h-9.28v1.7h5.5v5.92h2.144v-5.92h5.664Zm6.8-3.968h2.928v-1.744h-8.1v1.744h3.056v.816a6.945,6.945,0,0,1-3.616,6.32l1.184,1.68a7.2,7.2,0,0,0,3.52-4.336,6.885,6.885,0,0,0,3.44,3.968L39.12-3.424a6.592,6.592,0,0,1-3.584-5.968Zm8.272,2.464H41.664V-13.36H39.552V1.376h2.112V-6h2.144Zm5.776-4.64a3.749,3.749,0,0,0-4.048,3.632A3.739,3.739,0,0,0,49.584-5.12c2.3,0,4.064-1.5,4.064-3.632A3.763,3.763,0,0,0,49.584-12.384Zm0,1.808a1.814,1.814,0,0,1,2,1.824,1.814,1.814,0,0,1-2,1.824,1.814,1.814,0,0,1-2-1.824A1.814,1.814,0,0,1,49.584-10.576Zm5.44-2.8V1.408h2.112V-13.376ZM45.184-1.584a47.5,47.5,0,0,0,9.168-.672l-.128-1.52a66.274,66.274,0,0,1-9.312.48Zm20.528-8.432h3.536V-11.7H63.632V-1.9H64.64A26,26,0,0,0,69.9-2.288l-.176-1.728a22.08,22.08,0,0,1-4.016.384ZM70.8-7.984H68.24v1.712H70.8V.72h1.968V-13.088H70.8Zm3.056-5.392V1.36h2V-13.376Zm14.16,0V1.408h2.112V-13.376Zm-5.808,1.04c-2.224,0-3.872,2.016-3.872,5.248,0,3.248,1.648,5.28,3.872,5.28S86.08-3.84,86.08-7.088C86.08-10.32,84.432-12.336,82.208-12.336Zm0,1.9c1.088,0,1.84,1.168,1.84,3.344,0,2.192-.752,3.36-1.84,3.36s-1.84-1.168-1.84-3.36C80.368-9.264,81.12-10.432,82.208-10.432Zm13.2,4.048h4.224V-8.032H95.408v-2.4h4.72v-1.7H93.312V-1.936h1.2a39.638,39.638,0,0,0,6.5-.384l-.192-1.7a34.563,34.563,0,0,1-5.408.384Zm7.488-6.992v5.2h-2.528v1.7H102.9V1.408h2.112V-13.376Zm20.336.032H121.1V-2.608h2.128Zm-3.216,6.832a4.654,4.654,0,0,1-3.424-4.608v-1.424h-2.144v1.424a5,5,0,0,1-3.5,4.864l1.072,1.68a5.937,5.937,0,0,0,3.536-3.28,5.656,5.656,0,0,0,3.392,3.024ZM115.536-.56V-3.632h-2.112V1.12H123.6V-.56Zm18.1-8.864v1.7h2.288v3.264h2.112v-8.9H135.92v3.936Zm.928,2.88c-2.352-.624-3.408-2.112-3.44-3.632h2.912V-11.84H131.12v-1.568h-2.112v1.568h-2.88v1.664h2.88a4.236,4.236,0,0,1-3.392,3.984l.992,1.632a5.442,5.442,0,0,0,3.52-2.88A5.439,5.439,0,0,0,133.6-4.928Zm-1.5,6.3c-1.952,0-2.944-.368-2.944-1.168s.992-1.184,2.944-1.184c1.92,0,2.928.384,2.928,1.184S134.976-.24,133.056-.24Zm0-3.968c-3.136,0-5.056,1.024-5.056,2.8,0,1.76,1.92,2.784,5.056,2.784,3.12,0,5.04-1.024,5.04-2.784C138.1-3.184,136.176-4.208,133.056-4.208Zm10.688.608c-.8,0-1.28-1.1-1.28-3.376,0-2.256.48-3.36,1.28-3.36.816,0,1.28,1.1,1.28,3.36C145.024-4.7,144.56-3.6,143.744-3.6Zm4.336-4.336h-1.168c-.24-2.752-1.424-4.384-3.168-4.384-1.952,0-3.184,2.016-3.184,5.344,0,3.344,1.232,5.36,3.184,5.36,1.792,0,2.992-1.728,3.184-4.608h1.152V.72h1.968V-13.12H148.08Zm2.992-5.44V1.36h2V-13.376ZM161.28-9.952h3.376v-1.712H159.2v9.728h1.024a27.035,27.035,0,0,0,5.248-.4l-.16-1.712a24.858,24.858,0,0,1-4.032.368Zm8.144-3.424V-7.7H168.1v-5.392h-1.968V.688H168.1V-6h1.328V1.376h2V-13.376Zm12.768,1.568h-3.3v-1.568h-2.128v1.568H173.5v1.648h8.672ZM176.24-6.8c0-.8.656-1.232,1.6-1.232.928,0,1.6.432,1.6,1.232,0,.816-.672,1.248-1.6,1.248C176.9-5.552,176.24-5.984,176.24-6.8Zm5.216,0c0-1.664-1.5-2.832-3.616-2.832s-3.616,1.168-3.616,2.832c0,1.7,1.5,2.848,3.616,2.848S181.456-5.1,181.456-6.8Zm-3.744,3.648H175.6V1.12h10.032V-.56h-7.92ZM185.1-8.864v-4.5h-2.112V-2.336H185.1V-7.12h1.952V-8.864ZM200.88-7.2a4.3,4.3,0,0,1-3.424-4.192v-1.424h-2.144v1.424a4.615,4.615,0,0,1-3.52,4.448l1.024,1.664a5.8,5.8,0,0,0,3.6-3.072,5.475,5.475,0,0,0,3.456,2.8Zm-4.512,4.5h5.664V-.448h-5.664Zm-2.08,3.9H204.1V-4.352h-9.808Zm7.68-14.56v8.32H204.1v-8.32Zm9.344.976a3.749,3.749,0,0,0-4.048,3.632,3.739,3.739,0,0,0,4.048,3.632c2.3,0,4.064-1.5,4.064-3.632A3.763,3.763,0,0,0,211.312-12.384Zm0,1.808a1.814,1.814,0,0,1,2,1.824,1.814,1.814,0,0,1-2,1.824,1.814,1.814,0,0,1-2-1.824A1.814,1.814,0,0,1,211.312-10.576Zm5.44-2.8V1.408h2.112V-13.376Zm-9.84,11.792a47.5,47.5,0,0,0,9.168-.672l-.128-1.52a66.274,66.274,0,0,1-9.312.48ZM13.344,14.976c-3.3-.416-4.912-2.112-4.912-3.648V10.9H6.256v.432c0,1.552-1.616,3.232-4.912,3.648l.768,1.648a7.236,7.236,0,0,0,5.232-2.848,7.272,7.272,0,0,0,5.248,2.848ZM7.312,23.808c-1.968,0-2.976-.336-2.976-1.088s1.008-1.088,2.976-1.088,2.976.336,2.976,1.088S9.28,23.808,7.312,23.808Zm0-3.76c-3.184,0-5.1.96-5.1,2.672s1.92,2.672,5.1,2.672,5.12-.96,5.12-2.672S10.5,20.048,7.312,20.048ZM.688,17.408v1.664H14V17.408Zm26.96-6.752H25.52V21.232h2.128ZM17.68,15.328a1.838,1.838,0,0,1,1.952-1.92,1.818,1.818,0,0,1,1.936,1.92,1.822,1.822,0,0,1-1.936,1.9A1.843,1.843,0,0,1,17.68,15.328Zm5.952,0a3.782,3.782,0,0,0-4-3.744,3.746,3.746,0,1,0,0,7.472A3.789,3.789,0,0,0,23.632,15.328Zm-3.68,8.112V20.192H17.84V25.12H28.016V23.44ZM46.384,12.176H41.472V10.624H39.36v1.552H34.4v1.648H46.384Zm-3.1,4.768c0,.656-.944.96-2.864.96s-2.848-.3-2.848-.96c0-.688.928-.976,2.848-.976S43.28,16.256,43.28,16.944Zm-7.9,0c0,1.616,1.888,2.528,5.04,2.528s5.056-.912,5.056-2.528c0-1.632-1.9-2.544-5.056-2.544S35.376,15.312,35.376,16.944ZM47.1,20.176H33.76v1.7h5.6v3.52h2.112v-3.52H47.1Zm7.184-4.848a1.936,1.936,0,0,1,3.872,0,1.936,1.936,0,0,1-3.872,0Zm5.92,0a4,4,0,1,0-3.984,3.744A3.778,3.778,0,0,0,60.208,15.328ZM56.32,20.256H54.208V25.12H64.24V23.44H56.32Zm7.392-5.392V10.64H61.6V21.36h2.112V16.592h1.952V14.864ZM75.856,16.8a4.3,4.3,0,0,1-3.424-4.192V11.184H70.288v1.424a4.615,4.615,0,0,1-3.52,4.448l1.024,1.664a5.8,5.8,0,0,0,3.6-3.072,5.475,5.475,0,0,0,3.456,2.8Zm-4.512,4.5h5.664v2.256H71.344Zm-2.08,3.9h9.808V19.648H69.264Zm7.68-14.56v8.32h2.128V10.64Zm13.168.928h-3.12v-1.04H84.88v1.04H81.744V12.96h8.368Zm-5.776,3.6c0-.416.592-.624,1.6-.624s1.584.208,1.584.624c0,.432-.576.656-1.584.656S84.336,15.6,84.336,15.168Zm6.144,2.176c-1.12.128-2.3.224-3.488.288V17.04c1.568-.192,2.528-.864,2.528-1.872,0-1.2-1.392-1.92-3.584-1.92s-3.6.72-3.6,1.92c0,1.008.96,1.68,2.544,1.872v.672c-1.264.032-2.448.032-3.5.032l.208,1.44a53.781,53.781,0,0,0,9.04-.576Zm-5.04,5.824h7.792V19.84h-9.9v1.392h7.824v.64H83.344v3.392h10.4V23.872h-8.3Zm7.792-9.056V10.624H91.12v8.688h2.112V15.84h1.856V14.112Zm9.664,9.68c-1.968,0-2.976-.336-2.976-1.088s1.008-1.072,2.976-1.072,2.976.32,2.976,1.072S104.864,23.792,102.9,23.792Zm0-3.76c-3.184,0-5.1.96-5.1,2.672s1.92,2.688,5.1,2.688,5.12-.976,5.12-2.688S106.08,20.032,102.9,20.032Zm-1.52-3.632a11.709,11.709,0,0,0,1.552.1,14.8,14.8,0,0,0,1.52-.08v1.216h-3.072Zm1.552-3.936c2.016,0,3.168.4,3.168,1.232,0,.8-1.152,1.216-3.168,1.216-2,0-3.152-.416-3.152-1.216C99.776,12.864,100.928,12.464,102.928,12.464Zm3.632,5.168v-1.76a2.423,2.423,0,0,0,1.712-2.176c0-1.76-2.08-2.832-5.344-2.832-3.248,0-5.328,1.072-5.328,2.832a2.413,2.413,0,0,0,1.664,2.16v1.776H96.272V19.3h13.312V17.632Zm16.992-6.992h-2V21.664h2Zm-4.944,10.592h1.968V10.9h-1.968V14h-1.76v1.712h1.76Zm-.432-3.424a4.5,4.5,0,0,1-2.544-4.288V11.632h-2.048V13.52a5.005,5.005,0,0,1-2.784,4.656l1.152,1.6a5.43,5.43,0,0,0,2.688-2.912,4.774,4.774,0,0,0,2.384,2.56Zm-2.432,5.632V20.384h-2.112V25.12H123.92V23.44Zm12.736-5.824H132.7V15.968H128.48v-2.4h4.72v-1.7h-6.816V22.064h1.2a39.638,39.638,0,0,0,6.5-.384l-.192-1.7a34.564,34.564,0,0,1-5.408.384Zm7.488-6.992v5.2H133.44v1.7h2.528v7.888h2.112V10.624Zm14.1,2.416H142.1v3.52h10.3V15.136h-8.224v-.768h7.968V10.9h-10.08V12.32h8Zm-6.016,9.984h8.144v-3.5H141.936v1.424h8.16V21.7h-8.144v3.552h10.64V23.824h-8.544Zm-3.616-5.76v1.52h13.344v-1.52Zm24.976,6.576c-2.032,0-2.976-.272-2.976-.88s.944-.864,2.976-.864c2.048,0,2.992.256,2.992.864S167.456,23.84,165.408,23.84Zm0-3.3c-3.232,0-5.1.832-5.1,2.416,0,1.568,1.872,2.416,5.1,2.416,3.248,0,5.12-.848,5.12-2.416C170.528,21.376,168.656,20.544,165.408,20.544Zm1.072-2.3v-.912h4.208v-1.6h-8.16v-.8h7.712V13.392h-7.712v-.768h8.048v-1.6H160.432v6.3h3.936v.912h-5.6v1.648H172.1V18.24Zm10.56,2.208c-.8,0-1.376-.64-1.376-1.744s.576-1.76,1.376-1.76,1.376.656,1.376,1.76S177.84,20.448,177.04,20.448Zm0-5.264a3.251,3.251,0,0,0-3.232,3.52,3.243,3.243,0,1,0,6.464,0A3.251,3.251,0,0,0,177.04,15.184Zm1.04-4.144H176v1.824h-2.512v1.68h7.04v-1.68H178.08Zm6.064-.416V16.64h-1.12V10.912h-1.968v13.84h1.968V18.336h1.12V25.36h2V10.624Zm12.384,3.2h2.144V12.112h-6.56v1.712h2.368v.72c0,2.528-.768,5.168-2.912,6.528l1.248,1.552a6.84,6.84,0,0,0,2.7-3.952,6.155,6.155,0,0,0,2.624,3.6l1.232-1.536c-2.128-1.248-2.848-3.728-2.848-6.192Zm2.992,1.84h-1.872v1.712h1.872V24.7h1.968V10.88H199.52Zm2.976-5.04V25.36h2V10.624Zm15.392,5.824a13.856,13.856,0,0,0,.416-3.936V11.3H208.1V12.96h8.1a12.305,12.305,0,0,1-.384,3.28Zm-4.736,7.344c-1.984,0-3.12-.4-3.12-1.184,0-.8,1.136-1.2,3.12-1.2,2,0,3.136.4,3.136,1.2C216.288,23.392,215.152,23.792,213.152,23.792Zm0-3.968c-3.168,0-5.216,1.056-5.216,2.784,0,1.712,2.048,2.768,5.216,2.768,3.184,0,5.232-1.056,5.232-2.768C218.384,20.88,216.336,19.824,213.152,19.824Zm.48-2.592V14.656H211.52v2.576h-4.912V18.9h13.264V17.232Z" transform="translate(1237 3357)" fill="#111"/><path d="M8-7.776a1.687,1.687,0,0,0-1.7,1.7A1.687,1.687,0,0,0,8-4.384a1.687,1.687,0,0,0,1.7-1.7A1.687,1.687,0,0,0,8-7.776Zm22.464-3.44a12.982,12.982,0,0,1-.384,3.648l1.28.144a13.308,13.308,0,0,0,.4-3.792v-1.216H21.984v1.056h8.48ZM26.864.144c-2.24,0-3.68-.608-3.68-1.6,0-1.024,1.44-1.632,3.68-1.632,2.256,0,3.7.608,3.7,1.632C30.56-.464,29.12.144,26.864.144Zm0-4.24c-3.056,0-4.992.976-4.992,2.64,0,1.632,1.936,2.624,4.992,2.624s5.008-.992,5.008-2.624C31.872-3.12,29.92-4.1,26.864-4.1Zm.208-2.384V-9.232H25.76V-6.48h-5.3v1.056H33.376V-6.48Zm18.112-4.736A12.982,12.982,0,0,1,44.8-7.568l1.28.144a13.308,13.308,0,0,0,.4-3.792v-1.216H36.7v1.056h8.48ZM41.584.144c-2.24,0-3.68-.608-3.68-1.6,0-1.024,1.44-1.632,3.68-1.632,2.256,0,3.7.608,3.7,1.632C45.28-.464,43.84.144,41.584.144Zm0-4.24c-3.056,0-4.992.976-4.992,2.64,0,1.632,1.936,2.624,4.992,2.624s5.008-.992,5.008-2.624C46.592-3.12,44.64-4.1,41.584-4.1Zm.208-2.384V-9.232H40.48V-6.48h-5.3v1.056H48.1V-6.48Zm18.576-3.584v1.712H56.624v1.024h3.744V-5.84H61.7v-7.328H60.368v2.08H57.12a6.475,6.475,0,0,0,.144-1.376H50.848v1.072H55.84C55.6-9.12,53.6-7.408,50.1-6.592l.48,1.072c3.168-.752,5.36-2.288,6.256-4.544ZM53.776,0V-1.664H61.7v-3.52H52.448v1.056h7.936v1.472h-7.9v3.7h9.7V0ZM73.1-11.7H69.52v-1.616H68.208V-11.7H64.64v1.056H73.1Zm-6.416,4.24c0-.928.864-1.52,2.176-1.52s2.192.592,2.192,1.52c0,.944-.88,1.52-2.192,1.52S66.688-6.512,66.688-7.456Zm5.616,0c0-1.52-1.392-2.5-3.44-2.5s-3.424.976-3.424,2.5c0,1.536,1.376,2.512,3.424,2.512S72.3-5.92,72.3-7.456ZM74.432-.064H68V-1.648h6.432Zm0-2.608H68v-1.52H66.7V.992h9.024V-4.192h-1.3ZM77.856-9.52H75.728v-3.648H74.416v8.336h1.312V-8.416h2.128ZM80.064,0h3.008c3.536,0,5.472-2.192,5.472-5.9,0-3.728-1.936-5.84-5.536-5.84H80.064Zm1.488-1.216v-9.312H82.88c2.768,0,4.128,1.648,4.128,4.624,0,2.96-1.36,4.688-4.128,4.688ZM91.056,0H94.8c2.624,0,4.448-1.136,4.448-3.44a2.706,2.706,0,0,0-2.384-2.8v-.08a2.562,2.562,0,0,0,1.712-2.544c0-2.064-1.648-2.88-4.032-2.88H91.056Zm1.488-6.736V-10.56h1.808c1.824,0,2.768.512,2.768,1.888,0,1.184-.816,1.936-2.832,1.936Zm0,5.552V-5.616h2.048c2.048,0,3.2.672,3.2,2.128,0,1.584-1.184,2.3-3.2,2.3ZM8,16.224a1.7,1.7,0,1,0,1.7,1.7A1.687,1.687,0,0,0,8,16.224ZM25.344,18.96h3.12v3.408h-3.12Zm-.224-5.744h3.568V17.9H25.12Zm4.656,9.152V18.96h2.432V17.9H30V13.216h2.224V12.16H21.584v1.056h2.224V17.9H21.616V18.96h2.416v3.408H20.416V23.44H33.44V22.368ZM38.128,20.9H36.816v3.968h9.872V23.792h-8.56Zm.032-6.656h6.976v1.84H38.16ZM42.3,18.672V17.136h4.128V11.392h-1.3v1.824H38.16V11.392h-1.3v5.744h4.128v1.536H35.136v1.072H48.128V18.672ZM50.624,24h3.008c3.536,0,5.472-2.192,5.472-5.9,0-3.728-1.936-5.84-5.536-5.84H50.624Zm1.488-1.216V13.472H53.44c2.768,0,4.128,1.648,4.128,4.624,0,2.96-1.36,4.688-4.128,4.688ZM61.616,24H65.36c2.624,0,4.448-1.136,4.448-3.44a2.706,2.706,0,0,0-2.384-2.8v-.08a2.562,2.562,0,0,0,1.712-2.544c0-2.064-1.648-2.88-4.032-2.88H61.616ZM63.1,17.264V13.44h1.808c1.824,0,2.768.512,2.768,1.888,0,1.184-.816,1.936-2.832,1.936Zm0,5.552V18.384h2.048c2.048,0,3.2.672,3.2,2.128,0,1.584-1.184,2.3-3.2,2.3Zm11.248,4.336.912-.432a14.749,14.749,0,0,1-2.048-7.7,14.79,14.79,0,0,1,2.048-7.7l-.912-.416a15.193,15.193,0,0,0,0,16.24ZM86.816,12.784a12.982,12.982,0,0,1-.384,3.648l1.28.144a13.308,13.308,0,0,0,.4-3.792V11.568H78.336v1.056h8.48Zm-3.6,11.36c-2.24,0-3.68-.608-3.68-1.6,0-1.024,1.44-1.632,3.68-1.632,2.256,0,3.7.608,3.7,1.632C86.912,23.536,85.472,24.144,83.216,24.144Zm0-4.24c-3.056,0-4.992.976-4.992,2.64,0,1.632,1.936,2.624,4.992,2.624s5.008-.992,5.008-2.624C88.224,20.88,86.272,19.9,83.216,19.9Zm.208-2.384V14.768H82.112V17.52h-5.3v1.056H89.728V17.52Zm18.112-4.736a12.982,12.982,0,0,1-.384,3.648l1.28.144a13.308,13.308,0,0,0,.4-3.792V11.568H93.056v1.056h8.48Zm-3.6,11.36c-2.24,0-3.68-.608-3.68-1.6,0-1.024,1.44-1.632,3.68-1.632,2.256,0,3.7.608,3.7,1.632C101.632,23.536,100.192,24.144,97.936,24.144Zm0-4.24c-3.056,0-4.992.976-4.992,2.64,0,1.632,1.936,2.624,4.992,2.624s5.008-.992,5.008-2.624C102.944,20.88,100.992,19.9,97.936,19.9Zm.208-2.384V14.768H96.832V17.52h-5.3v1.056h12.912V17.52Zm8.816,9.632a15.106,15.106,0,0,0,0-16.24l-.9.416a14.943,14.943,0,0,1,2.048,7.7,14.9,14.9,0,0,1-2.048,7.7Z" transform="translate(410 3391)" fill="#111"/><path d="M9.293,20.707-1.414,10,9.293-.707,10.707.707,1.414,10l9.293,9.293Z" transform="translate(785 3374) rotate(180)" fill="#0f249a"/><path d="M-5294.164-1658.326h-83v-2h83Z" transform="translate(6079.164 5023.326)" fill="#0f249a"/><path d="M25,0A25,25,0,1,1,0,25,25,25,0,0,1,25,0Z" transform="translate(763 3339) rotate(90)" fill="#02105f"/><path d="M-5.8-7.47A5.124,5.124,0,0,1-9.54-12.222h3.222v-1.89h-8.91v1.89h3.258a5.386,5.386,0,0,1-3.906,5.058l1.206,1.872a6.489,6.489,0,0,0,3.96-3.582A6.162,6.162,0,0,0-6.948-5.616ZM-13.23-2.538H-4.3v4.1h2.376V-4.428h-11.3ZM-4.3-15.012v3.942H-6.75v1.908H-4.3v4h2.376v-9.846ZM6.03-11.448H8.442v-1.926H1.062v1.926H3.726v.81c0,2.844-.864,5.814-3.276,7.344l1.4,1.746A7.7,7.7,0,0,0,4.9-5.994a6.925,6.925,0,0,0,2.952,4.05L9.234-3.672c-2.394-1.4-3.2-4.194-3.2-6.966ZM9.4-9.378H7.29v1.926H9.4V.792H11.61V-14.76H9.4Zm3.348-5.67V1.53h2.25V-15.048Z" transform="translate(738 3372)" fill="#fff"/><path d="M9.293,20.707-1.414,10,9.293-.707,10.707.707,1.414,10l9.293,9.293Z" transform="translate(1199 3374) rotate(180)" fill="#0f249a"/><path d="M-5294.164-1658.326h-83v-2h83Z" transform="translate(6493.164 5023.326)" fill="#0f249a"/><path d="M25,0A25,25,0,1,1,0,25,25,25,0,0,1,25,0Z" transform="translate(1177 3339) rotate(90)" fill="#02105f"/><path d="M-10.53-11.448h2.412v-1.926H-15.5v1.926h2.664v.81c0,2.844-.864,5.814-3.276,7.344l1.4,1.746a7.7,7.7,0,0,0,3.042-4.446,6.925,6.925,0,0,0,2.952,4.05l1.386-1.728c-2.394-1.4-3.2-4.194-3.2-6.966Zm3.366,2.07H-9.27v1.926h2.106V.792H-4.95V-14.76H-7.164Zm3.348-5.67V1.53h2.25V-15.048ZM13.5-8.5a15.588,15.588,0,0,0,.468-4.428v-1.368H2.484v1.872h9.108a13.843,13.843,0,0,1-.432,3.69ZM8.172-.234c-2.232,0-3.51-.45-3.51-1.332,0-.9,1.278-1.35,3.51-1.35,2.25,0,3.528.45,3.528,1.35C11.7-.684,10.422-.234,8.172-.234Zm0-4.464C4.608-4.7,2.3-3.51,2.3-1.566c0,1.926,2.3,3.114,5.868,3.114,3.582,0,5.886-1.188,5.886-3.114C14.058-3.51,11.754-4.7,8.172-4.7Zm.54-2.916v-2.9H6.336v2.9H.81v1.872H15.732V-7.614Z" transform="translate(1152 3372)" fill="#fff"/></g></svg>