<svg xmlns="http://www.w3.org/2000/svg" xmlns:xlink="http://www.w3.org/1999/xlink" width="1140" height="170" viewBox="0 0 1140 170">
  <defs>
    <linearGradient id="linear-gradient" x1="0.973" y1="0.529" x2="0" y2="0.5" gradientUnits="objectBoundingBox">
      <stop offset="0" stop-color="#e7e9f4"/>
      <stop offset="1" stop-color="#6470b7"/>
    </linearGradient>
  </defs>
  <g id="그룹_3848" data-name="그룹 3848" transform="translate(-8556 -1836)">
    <rect id="사각형_1893" data-name="사각형 1893" width="402" height="136" transform="translate(8556 1870)" fill="url(#linear-gradient)"/>
    <rect id="사각형_1894" data-name="사각형 1894" width="738" height="136" transform="translate(8958 1870)" fill="#ddd" opacity="0.6"/>
    <path id="패스_3849" data-name="패스 3849" d="M15718.478-6256.5h901.22" transform="translate(-7053 8126)" fill="none" stroke="#02105f" stroke-width="2"/>
    <g id="그룹_3842" data-name="그룹 3842" transform="translate(8166 205)">
      <text id="_4개_기관_모든_암_대상_암_등록환자_165만명" data-name="4개 기관, 모든 암 대상
암 등록환자 165만명" transform="translate(591 1716)" fill="#111" font-size="16" font-family="NotoSansKR-Bold, Noto Sans KR" font-weight="700"><tspan x="-73.456" y="0">4개 기관, 모든 암 대상</tspan><tspan x="-69.288" y="24">암 등록환자 165만명</tspan></text>
      <text id="_2021_2019_" data-name="(2021~2019)" transform="translate(591 1766)" fill="#111" font-size="14" font-family="NotoSansKR-Regular, Noto Sans KR"><tspan x="-39.697" y="0">(2021~2019)</tspan></text>
    </g>
    <g id="그룹_3843" data-name="그룹 3843" transform="translate(8783 205)">
      <text id="업데이트" transform="translate(544 1740)" fill="#111" font-size="16" font-family="NotoSansKR-Bold, Noto Sans KR" font-weight="700"><tspan x="-29.44" y="0">업데이트</tspan></text>
    </g>
    <g id="그룹_3844" data-name="그룹 3844" transform="translate(8166 207)">
      <rect id="사각형_1648" data-name="사각형 1648" width="67" height="132" rx="33.5" transform="translate(522 1629) rotate(90)" fill="#02105f"/>
      <text id="_1차년도" data-name="1차년도" transform="translate(433 1682)" fill="#fff" font-size="14" font-family="NotoSansKR-Regular, Noto Sans KR"><tspan x="0" y="0">1차년도</tspan></text>
      <text id="_2022" data-name="2022" transform="translate(456 1660)" fill="#fff" font-size="18" font-family="NotoSansKR-Bold, Noto Sans KR" font-weight="700"><tspan x="-21.204" y="0">2022</tspan></text>
    </g>
    <g id="그룹_3845" data-name="그룹 3845" transform="translate(8502 207)">
      <rect id="사각형_1648-2" data-name="사각형 1648" width="67" height="132" rx="33.5" transform="translate(522 1629) rotate(90)" fill="#02105f"/>
      <text id="_2차년도" data-name="2차년도" transform="translate(433 1682)" fill="#fff" font-size="14" font-family="NotoSansKR-Regular, Noto Sans KR"><tspan x="0" y="0">2차년도</tspan></text>
      <text id="_2023" data-name="2023" transform="translate(456 1660)" fill="#fff" font-size="18" font-family="NotoSansKR-Bold, Noto Sans KR" font-weight="700"><tspan x="-21.204" y="0">2023</tspan></text>
    </g>
    <g id="그룹_3846" data-name="그룹 3846" transform="translate(8838 207)">
      <rect id="사각형_1648-3" data-name="사각형 1648" width="67" height="132" rx="33.5" transform="translate(522 1629) rotate(90)" fill="#02105f"/>
      <text id="_3차년도" data-name="3차년도" transform="translate(433 1682)" fill="#fff" font-size="14" font-family="NotoSansKR-Regular, Noto Sans KR"><tspan x="0" y="0">3차년도</tspan></text>
      <text id="_2024" data-name="2024" transform="translate(456 1660)" fill="#fff" font-size="18" font-family="NotoSansKR-Bold, Noto Sans KR" font-weight="700"><tspan x="-21.204" y="0">2024</tspan></text>
    </g>
    <g id="그룹_3847" data-name="그룹 3847" transform="translate(9174 207)">
      <rect id="사각형_1648-4" data-name="사각형 1648" width="67" height="132" rx="33.5" transform="translate(522 1629) rotate(90)" fill="#02105f"/>
      <text id="_4차년도" data-name="4차년도" transform="translate(433 1682)" fill="#fff" font-size="14" font-family="NotoSansKR-Regular, Noto Sans KR"><tspan x="0" y="0">4차년도</tspan></text>
      <text id="_2025" data-name="2025" transform="translate(456 1660)" fill="#fff" font-size="18" font-family="NotoSansKR-Bold, Noto Sans KR" font-weight="700"><tspan x="-21.204" y="0">2025</tspan></text>
    </g>
    <path id="패스_3850" data-name="패스 3850" d="M15609-6187.5h105.045" transform="translate(-7053 8126)" fill="none" stroke="#fff" stroke-width="2"/>
    <path id="패스_3851" data-name="패스 3851" d="M15609-6187.5h85" transform="translate(-6756.045 8126)" fill="none" stroke="#fff" stroke-width="2"/>
    <path id="패스_3852" data-name="패스 3852" d="M15609-6187.5h298.57" transform="translate(-6231.613 8126)" fill="none" stroke="#02105f" stroke-width="2"/>
    <path id="패스_3853" data-name="패스 3853" d="M15609-6187.5h275.727" transform="translate(24865.727 -4249) rotate(180)" fill="none" stroke="#02105f" stroke-width="2"/>
    <path id="패스_3854" data-name="패스 3854" d="M16125.9-6280.4l10.592,10.592-10.592,10.592" transform="translate(-7198.492 8208.309)" fill="none" stroke="#fff" stroke-width="2"/>
    <path id="패스_3855" data-name="패스 3855" d="M16125.9-6280.4l10.592,10.592-10.592,10.592" transform="translate(-6460.492 8208.309)" fill="none" stroke="#02105f" stroke-width="2"/>
    <path id="패스_3856" data-name="패스 3856" d="M16125.9-6280.4l10.592,10.592-10.592,10.592" transform="translate(25117.449 -4331.308) rotate(180)" fill="none" stroke="#02105f" stroke-width="2"/>
  </g>
</svg>
