<svg xmlns="http://www.w3.org/2000/svg" width="1140" height="201" viewBox="0 0 1140 201"><g transform="translate(-390 -3139)"><g transform="translate(390 3159)" fill="none"><path d="M20,0H293a20,20,0,0,1,20,20V161a20,20,0,0,1-20,20H20A20,20,0,0,1,0,161V20A20,20,0,0,1,20,0Z" stroke="none"/><path d="M 20 1 C 17.4345703125 1 14.9464111328125 1.502212524414062 12.6046142578125 2.492706298828125 C 10.34225463867188 3.449630737304688 8.310211181640625 4.8197021484375 6.564971923828125 6.564956665039062 C 4.8197021484375 8.310211181640625 3.449615478515625 10.34225463867188 2.492706298828125 12.60462951660156 C 1.502197265625 14.9464111328125 1 17.43458557128906 1 20 L 1 161 C 1 163.5654144287109 1.502197265625 166.0535888671875 2.492706298828125 168.3953704833984 C 3.449615478515625 170.6577453613281 4.8197021484375 172.6897888183594 6.564971923828125 174.4350433349609 C 8.310211181640625 176.1802978515625 10.34225463867188 177.5503692626953 12.6046142578125 178.5072937011719 C 14.9464111328125 179.4977874755859 17.4345703125 180 20 180 L 293 180 C 295.5654296875 180 298.0535888671875 179.4977874755859 300.3953247070312 178.5072937011719 C 302.65771484375 177.5503692626953 304.6897583007812 176.1802978515625 306.4349975585938 174.4350433349609 C 308.1802978515625 172.6897888183594 309.5503845214844 170.6577453613281 310.5072937011719 168.3953704833984 C 311.497802734375 166.0535888671875 312 163.5654144287109 312 161 L 312 20 C 312 17.43458557128906 311.497802734375 14.9464111328125 310.5072937011719 12.60462951660156 C 309.5503845214844 10.34225463867188 308.1802978515625 8.310211181640625 306.4349975585938 6.564956665039062 C 304.6897583007812 4.8197021484375 302.65771484375 3.449630737304688 300.3953247070312 2.492706298828125 C 298.0535888671875 1.502212524414062 295.5654296875 1 293 1 L 20 1 M 20 0 L 293 0 C 304.045654296875 0 313 8.95428466796875 313 20 L 313 161 C 313 172.0457153320312 304.045654296875 181 293 181 L 20 181 C 8.95428466796875 181 0 172.0457153320312 0 161 L 0 20 C 0 8.95428466796875 8.95428466796875 0 20 0 Z" stroke="none" fill="#0f249a"/></g><g transform="translate(1217 3159)" fill="none"><path d="M20,0H293a20,20,0,0,1,20,20V161a20,20,0,0,1-20,20H20A20,20,0,0,1,0,161V20A20,20,0,0,1,20,0Z" stroke="none"/><path d="M 20 1 C 17.4345703125 1 14.9464111328125 1.502212524414062 12.6046142578125 2.492706298828125 C 10.34225463867188 3.449630737304688 8.310211181640625 4.8197021484375 6.564971923828125 6.564956665039062 C 4.8197021484375 8.310211181640625 3.449615478515625 10.34225463867188 2.492706298828125 12.60462951660156 C 1.502197265625 14.9464111328125 1 17.43458557128906 1 20 L 1 161 C 1 163.5654144287109 1.502197265625 166.0535888671875 2.492706298828125 168.3953704833984 C 3.449615478515625 170.6577453613281 4.8197021484375 172.6897888183594 6.564971923828125 174.4350433349609 C 8.310211181640625 176.1802978515625 10.34225463867188 177.5503692626953 12.6046142578125 178.5072937011719 C 14.9464111328125 179.4977874755859 17.4345703125 180 20 180 L 293 180 C 295.5654296875 180 298.0535888671875 179.4977874755859 300.3953247070312 178.5072937011719 C 302.65771484375 177.5503692626953 304.6897583007812 176.1802978515625 306.4349975585938 174.4350433349609 C 308.1802978515625 172.6897888183594 309.5503845214844 170.6577453613281 310.5072937011719 168.3953704833984 C 311.497802734375 166.0535888671875 312 163.5654144287109 312 161 L 312 20 C 312 17.43458557128906 311.497802734375 14.9464111328125 310.5072937011719 12.60462951660156 C 309.5503845214844 10.34225463867188 308.1802978515625 8.310211181640625 306.4349975585938 6.564956665039062 C 304.6897583007812 4.8197021484375 302.65771484375 3.449630737304688 300.3953247070312 2.492706298828125 C 298.0535888671875 1.502212524414062 295.5654296875 1 293 1 L 20 1 M 20 0 L 293 0 C 304.045654296875 0 313 8.95428466796875 313 20 L 313 161 C 313 172.0457153320312 304.045654296875 181 293 181 L 20 181 C 8.95428466796875 181 0 172.0457153320312 0 161 L 0 20 C 0 8.95428466796875 8.95428466796875 0 20 0 Z" stroke="none" fill="#0f249a"/></g><path d="M25,0A25,25,0,0,1,50,25V209a25,25,0,0,1-50,0V25A25,25,0,0,1,25,0Z" transform="translate(664 3139) rotate(90)" fill="#0f249a"/><path d="M-69.741-5.292h2.862v3.114h-2.862Zm-.27-6.534h3.384v4.662h-3.384Zm5.49,9.648V-5.292h2.466V-7.164h-2.214v-4.662h2.25v-1.89h-12.6v1.89h2.25v4.662h-2.16v1.872h2.43v3.114h-3.708V-.27h15.03V-2.178Zm6.8-5.382c3.1-.342,5.13-1.62,5.976-3.312.882,1.692,2.9,2.97,5.976,3.312l.864-1.854c-3.24-.36-4.878-1.692-5.148-3.024h4.464v-1.89H-57.861v1.89h4.446c-.288,1.314-1.944,2.664-5.148,3.024Zm2.592,4.05H-57.5V1.26h11.61V-.63h-9.234Zm-4.122-3.258V-4.9h6.534v2.808h2.376V-4.9h6.12V-6.768Zm26.46-6.444h-3.672v-1.746h-2.376v1.746h-3.708v1.872h9.756Zm-6.66,5.634c0-.846.72-1.314,1.8-1.314s1.8.468,1.8,1.314c0,.882-.72,1.35-1.8,1.35S-39.447-6.7-39.447-7.578Zm2.988,3.006c1.728-.36,2.862-1.476,2.862-3.006,0-1.854-1.674-3.114-4.05-3.114s-4.05,1.26-4.05,3.114c0,1.53,1.134,2.646,2.862,3.006v1.4c-1.458.036-2.826.036-4.014.036l.288,1.926A52.9,52.9,0,0,0-32.535-1.89l-.18-1.71c-1.188.18-2.466.27-3.744.342Zm9.036-3.708h-2.07v-6.75h-2.376V1.548h2.376V-6.318h2.07Zm15.12-6.768H-14.7V-2.556H-12.3ZM-15.687-6.7c-1.206.108-2.484.2-3.762.252v-1.62h2.9v-1.89h-5.742v-2.2h5.634v-1.89h-8.01v5.976h2.844v1.71c-1.458.036-2.9.036-4.212.036l.306,1.89A72.6,72.6,0,0,0-15.525-5ZM-21.141-.63V-3.456h-2.394V1.26h11.664V-.63ZM5.913-15.03v9.4H8.307v-9.4ZM-2.727-4.9V1.35H8.307V-4.9ZM5.985-3.042V-.5H-.387V-3.042Zm-6.7-11.232c-2.574,0-4.518,1.656-4.518,4C-5.229-7.956-3.285-6.3-.711-6.3s4.5-1.656,4.5-3.978C3.789-12.618,1.863-14.274-.711-14.274Zm0,1.98a1.992,1.992,0,0,1,2.178,2.016,1.988,1.988,0,0,1-2.178,2,1.994,1.994,0,0,1-2.2-2A2,2,0,0,1-.711-12.294ZM20.871-7.686a4.86,4.86,0,0,1-3.726-4.752V-14.13H14.733v1.494a5.407,5.407,0,0,1-3.888,5.382l1.242,1.872a6.482,6.482,0,0,0,3.888-3.564,6.087,6.087,0,0,0,3.654,3.1Zm-2.142,7.4c-2.124,0-3.258-.432-3.258-1.368,0-.918,1.134-1.35,3.258-1.35,2.106,0,3.24.432,3.24,1.35C21.969-.72,20.835-.288,18.729-.288Zm0-4.554c-3.456,0-5.616,1.188-5.616,3.186,0,2.016,2.16,3.2,5.616,3.2,3.438,0,5.6-1.188,5.6-3.2C24.327-3.654,22.167-4.842,18.729-4.842Zm5.418-6.336v-3.834H21.771V-5.22h2.376v-4h2.2v-1.962Zm6.336-.09h3.978v-1.89H28.143V-2.142h1.134A29.246,29.246,0,0,0,35.2-2.574L35-4.518a24.839,24.839,0,0,1-4.518.432Zm5.724,2.286h-2.88v1.926h2.88V.81h2.214V-14.724H36.207Zm3.438-6.066V1.53h2.25V-15.048Zm15.93,0V1.584h2.376V-15.048Zm-6.534,1.17c-2.5,0-4.356,2.268-4.356,5.9,0,3.654,1.854,5.94,4.356,5.94S53.4-4.32,53.4-7.974C53.4-11.61,51.543-13.878,49.041-13.878Zm0,2.142c1.224,0,2.07,1.314,2.07,3.762,0,2.466-.846,3.78-2.07,3.78s-2.07-1.314-2.07-3.78C46.971-10.422,47.817-11.736,49.041-11.736Zm14.85,4.554h4.752V-9.036H63.891v-2.7H69.2v-1.908H61.533V-2.178h1.35a44.593,44.593,0,0,0,7.308-.432l-.216-1.908a38.884,38.884,0,0,1-6.084.432Zm8.424-7.866V-9.2H69.471V-7.29h2.844V1.584h2.376V-15.048Z" transform="translate(547 3172)" fill="#fff"/><g transform="translate(803 3159)" fill="none"><path d="M20,0H293a20,20,0,0,1,20,20V161a20,20,0,0,1-20,20H20A20,20,0,0,1,0,161V20A20,20,0,0,1,20,0Z" stroke="none"/><path d="M 20 1 C 17.4345703125 1 14.9464111328125 1.502212524414062 12.6046142578125 2.492706298828125 C 10.34225463867188 3.449630737304688 8.310211181640625 4.8197021484375 6.564971923828125 6.564956665039062 C 4.8197021484375 8.310211181640625 3.449615478515625 10.34225463867188 2.492706298828125 12.60462951660156 C 1.502197265625 14.9464111328125 1 17.43458557128906 1 20 L 1 161 C 1 163.5654144287109 1.502197265625 166.0535888671875 2.492706298828125 168.3953704833984 C 3.449615478515625 170.6577453613281 4.8197021484375 172.6897888183594 6.564971923828125 174.4350433349609 C 8.310211181640625 176.1802978515625 10.34225463867188 177.5503692626953 12.6046142578125 178.5072937011719 C 14.9464111328125 179.4977874755859 17.4345703125 180 20 180 L 293 180 C 295.5654296875 180 298.0535888671875 179.4977874755859 300.3953247070312 178.5072937011719 C 302.65771484375 177.5503692626953 304.6897583007812 176.1802978515625 306.4349975585938 174.4350433349609 C 308.1802978515625 172.6897888183594 309.5503845214844 170.6577453613281 310.5072937011719 168.3953704833984 C 311.497802734375 166.0535888671875 312 163.5654144287109 312 161 L 312 20 C 312 17.43458557128906 311.497802734375 14.9464111328125 310.5072937011719 12.60462951660156 C 309.5503845214844 10.34225463867188 308.1802978515625 8.310211181640625 306.4349975585938 6.564956665039062 C 304.6897583007812 4.8197021484375 302.65771484375 3.449630737304688 300.3953247070312 2.492706298828125 C 298.0535888671875 1.502212524414062 295.5654296875 1 293 1 L 20 1 M 20 0 L 293 0 C 304.045654296875 0 313 8.95428466796875 313 20 L 313 161 C 313 172.0457153320312 304.045654296875 181 293 181 L 20 181 C 8.95428466796875 181 0 172.0457153320312 0 161 L 0 20 C 0 8.95428466796875 8.95428466796875 0 20 0 Z" stroke="none" fill="#0f249a"/></g><path d="M24.5,0A24.5,24.5,0,0,1,49,24.5v167a24.5,24.5,0,0,1-49,0V24.5A24.5,24.5,0,0,1,24.5,0Z" transform="translate(1067 3139) rotate(90)" fill="#0f249a"/><path d="M-66.708,0h2.664V-3.744l1.746-2.25L-58.842,0h2.916l-4.788-8.082,4.068-5.256H-59.58l-4.41,5.8h-.054v-5.8h-2.664Zm10.656-4.212h4.914V-6.1h-4.914ZM-43.2.252A5.391,5.391,0,0,0-38.952-1.71l-1.4-1.656A3.674,3.674,0,0,1-43.11-2.052c-2.106,0-3.474-1.746-3.474-4.644,0-2.862,1.512-4.59,3.528-4.59A3.509,3.509,0,0,1-40.59-10.17l1.386-1.692a5.433,5.433,0,0,0-3.906-1.71c-3.366,0-6.192,2.574-6.192,6.966C-49.3-2.16-46.566.252-43.2.252Zm11.16,0c3.258,0,5.148-1.818,5.148-6.246v-7.344h-2.556V-5.76c0,2.772-1.008,3.708-2.592,3.708-1.548,0-2.52-.936-2.52-3.708v-7.578h-2.664v7.344C-37.224-1.566-35.28.252-32.04.252ZM-23.688,0h2.664V-5.04h1.854L-16.434,0h2.97l-3.114-5.454A3.813,3.813,0,0,0-14.04-9.288c0-3.06-2.214-4.05-5-4.05h-4.644Zm2.664-7.146v-4.068H-19.3c1.71,0,2.664.486,2.664,1.926,0,1.422-.954,2.142-2.664,2.142ZM-11.412,0h8.37V-2.232H-8.748V-5.8h4.68V-8.028h-4.68v-3.078H-3.24v-2.232h-8.172ZM6.894-1.422h9.342V-5.8H4.518v1.782h9.36v.9H4.554V1.35H16.776V-.432H6.894ZM15.84-8.658a23.865,23.865,0,0,0,.288-4.32v-1.476H4.734v1.836h9.054c0,.306,0,.63-.018.954l-9.5.216L4.518-9.63l9.144-.4c-.054.45-.126.882-.2,1.368H2.916v1.872H17.838V-8.658Zm6.624,1.44H27.72v-6.408H20.106v1.89H25.38V-9.09H20.124v6.84h1.4a41.1,41.1,0,0,0,7.65-.558l-.216-1.926a37.713,37.713,0,0,1-6.5.522ZM34.83-8.784H32.454v-6.264H30.078V1.584h2.376V-6.822H34.83Zm8.64-3.8c2.16,0,3.546.648,3.546,1.836,0,1.206-1.386,1.854-3.546,1.854-2.178,0-3.564-.648-3.564-1.854C39.906-11.934,41.292-12.582,43.47-12.582Zm0,5.58C47-7,49.464-8.46,49.464-10.746c0-2.25-2.466-3.726-5.994-3.726-3.546,0-5.994,1.476-5.994,3.726C37.476-8.46,39.924-7,43.47-7ZM51.012-5.76H36v1.908h6.264V1.566H44.64V-3.852h6.372ZM65.97-7.38H56.682v-4.356h9.162v-1.926H54.306V-5.49H65.97Zm-13.41,5V-.432H67.572V-2.376Z" transform="translate(959 3172)" fill="#fff"/><path d="M25,0A25,25,0,0,1,50,25V163a25,25,0,0,1-50,0V25A25,25,0,0,1,25,0Z" transform="translate(1468 3139) rotate(90)" fill="#0f249a"/><path d="M-50.544-9.756a2.054,2.054,0,0,1,2.178-2.16,2.064,2.064,0,0,1,2.178,2.16A2.064,2.064,0,0,1-48.366-7.6,2.054,2.054,0,0,1-50.544-9.756Zm6.66,0a4.25,4.25,0,0,0-4.482-4.212,4.255,4.255,0,0,0-4.5,4.212,4.266,4.266,0,0,0,4.5,4.212A4.261,4.261,0,0,0-43.884-9.756Zm-4.374,5.544h-2.376V1.26h11.286V-.63h-8.91Zm8.316-6.066V-15.03h-2.376V-2.97h2.376V-8.334h2.2v-1.944ZM-26.28-8.1a4.84,4.84,0,0,1-3.852-4.716v-1.6h-2.412v1.6a5.192,5.192,0,0,1-3.96,5l1.152,1.872A6.53,6.53,0,0,0-31.3-9.4a6.159,6.159,0,0,0,3.888,3.15Zm-5.076,5.058h6.372V-.5h-6.372ZM-33.7,1.35h11.034V-4.9H-33.7Zm8.64-16.38v9.36h2.394v-9.36Zm18.9,1.044h-3.51v-1.17h-2.376v1.17H-15.57v1.566h9.414Zm-6.5,4.05c0-.468.666-.7,1.8-.7s1.782.234,1.782.7c0,.486-.648.738-1.782.738S-12.654-9.45-12.654-9.936Zm6.912,2.448c-1.26.144-2.592.252-3.924.324V-7.83C-7.9-8.046-6.822-8.8-6.822-9.936c0-1.35-1.566-2.16-4.032-2.16s-4.05.81-4.05,2.16c0,1.134,1.08,1.89,2.862,2.106v.756c-1.422.036-2.754.036-3.942.036l.234,1.62A60.5,60.5,0,0,0-5.58-6.066Zm-5.67,6.552h8.766V-4.68H-13.788v1.566h8.8v.72H-13.77V1.422h11.7V-.144h-9.342Zm8.766-10.188v-3.924H-5.022v9.774h2.376V-9.18H-.558v-1.944ZM8.226-.234c-2.214,0-3.348-.378-3.348-1.224S6.012-2.664,8.226-2.664s3.348.36,3.348,1.206S10.44-.234,8.226-.234Zm0-4.23c-3.582,0-5.742,1.08-5.742,3.006s2.16,3.024,5.742,3.024,5.76-1.1,5.76-3.024S11.808-4.464,8.226-4.464ZM6.516-8.55a13.173,13.173,0,0,0,1.746.108,16.65,16.65,0,0,0,1.71-.09v1.368H6.516Zm1.746-4.428c2.268,0,3.564.45,3.564,1.386,0,.9-1.3,1.368-3.564,1.368-2.25,0-3.546-.468-3.546-1.368C4.716-12.528,6.012-12.978,8.262-12.978Zm4.086,5.814v-1.98a2.726,2.726,0,0,0,1.926-2.448c0-1.98-2.34-3.186-6.012-3.186-3.654,0-5.994,1.206-5.994,3.186A2.714,2.714,0,0,0,4.14-9.162v2H.774v1.872H15.75V-7.164Zm23.2-7.866H33.3v12.4h2.25ZM29.988-3.114H32.2V-14.742H29.988v3.492h-1.98v1.926h1.98ZM29.5-6.966A5.064,5.064,0,0,1,26.64-11.79v-2.124h-2.3v2.124A5.631,5.631,0,0,1,21.2-6.552l1.3,1.8a6.109,6.109,0,0,0,3.024-3.276,5.37,5.37,0,0,0,2.682,2.88ZM26.766-.63V-4.068H24.39V1.26H35.964V-.63ZM41.094-7.182h4.752V-9.036H41.094v-2.7H46.4v-1.908H38.736V-2.178h1.35a44.592,44.592,0,0,0,7.308-.432l-.216-1.908a38.884,38.884,0,0,1-6.084.432Zm8.424-7.866V-9.2H46.674V-7.29h2.844V1.584h2.376V-15.048Z" transform="translate(1374 3172)" fill="#fff"/><path d="M9.5-6.7C7.184-7.312,6.16-8.784,6.1-10.24H9.008V-11.9H6.1v-1.5H3.984v1.5H1.1v1.664h2.88C3.936-8.64,2.88-7.088.576-6.448l.976,1.632A5.375,5.375,0,0,0,5.072-7.6,5.364,5.364,0,0,0,8.544-5.072Zm-4.72,4.24h5.44V-.448H4.784ZM2.7,1.2h9.584V-4.112H2.7ZM14.24-9.9H12.288V-13.36H10.176v8.624h2.112v-3.44H14.24Zm8.912,4.128a8.425,8.425,0,0,0,.1-1.312A8.041,8.041,0,0,0,23.1-8.656h2.56v2.88ZM19.44-3.728c-1.072,0-1.808-1.168-1.808-3.36,0-2.176.736-3.344,1.808-3.344,1.088,0,1.824,1.168,1.824,3.344C21.264-4.9,20.528-3.728,19.44-3.728Zm6.224-9.648v3.024H22.528a3.414,3.414,0,0,0-3.088-1.984c-2.192,0-3.808,2.016-3.808,5.248,0,3.248,1.616,5.28,3.808,5.28a3.452,3.452,0,0,0,3.216-2.256h3.008V1.408h2.112V-13.376Zm9.2.992a3.749,3.749,0,0,0-4.048,3.632A3.739,3.739,0,0,0,34.864-5.12c2.3,0,4.064-1.5,4.064-3.632A3.763,3.763,0,0,0,34.864-12.384Zm0,1.808a1.814,1.814,0,0,1,2,1.824,1.814,1.814,0,0,1-2,1.824,1.814,1.814,0,0,1-2-1.824A1.814,1.814,0,0,1,34.864-10.576Zm5.44-2.8V1.408h2.112V-13.376ZM30.464-1.584a47.5,47.5,0,0,0,9.168-.672L39.5-3.776a66.274,66.274,0,0,1-9.312.48ZM50.3-4.224H52.88v2.256H50.3ZM54.96-1.968V-4.224h2.064V-5.9H48.48V-7.52h8.208v-4.9H46.368v1.68h8.24v1.568H46.384v4.944h1.84v2.256H44.832V-.24h13.36V-1.968Zm5.424-9.872v1.68H65.3c-.3,3.264-1.936,5.568-5.7,7.376L60.7-1.12c5.232-2.528,6.752-6.208,6.752-10.72Zm9.328-1.536V1.36H71.84V-13.376ZM82.16-7.04a22.834,22.834,0,0,0,.336-4.336v-.912H74.928v1.68h5.488A20.981,20.981,0,0,1,80.1-7.28Zm.976.592c-1.376.192-2.848.3-4.3.368V-8.864H76.768V-6c-.96.016-1.872.016-2.688.016l.192,1.68a53.489,53.489,0,0,0,8.992-.64Zm-4.8,3.136H76.224V1.12H86.512V-.56H78.336ZM86.048-8.88v-4.5H83.936v11.04h2.112v-4.8h1.76V-8.88Zm8.768-.1a1.766,1.766,0,0,1,1.936-1.808,1.774,1.774,0,0,1,1.936,1.808,1.762,1.762,0,0,1-1.936,1.792A1.754,1.754,0,0,1,94.816-8.976Zm5.92,0a3.693,3.693,0,0,0-3.984-3.584,3.7,3.7,0,0,0-4,3.584,3.705,3.705,0,0,0,4,3.568A3.7,3.7,0,0,0,100.736-8.976Zm-4,6.272h5.44V-.448h-5.44Zm-2.08,3.9h9.584V-4.352H94.656Zm11.536-11.3H104.24v-3.248h-2.112v8.352h2.112V-8.368h1.952ZM121.1-13.36v8.352h2.128V-13.36Zm-7.68,9.008V1.2h9.808V-4.352ZM121.168-2.7V-.448H115.5V-2.7Zm-5.952-9.984c-2.288,0-4.016,1.472-4.016,3.552,0,2.064,1.728,3.536,4.016,3.536s4-1.472,4-3.536C119.216-11.216,117.5-12.688,115.216-12.688Zm0,1.76a1.77,1.77,0,0,1,1.936,1.792,1.767,1.767,0,0,1-1.936,1.776,1.772,1.772,0,0,1-1.952-1.776A1.775,1.775,0,0,1,115.216-10.928Zm19.184,4.1a4.32,4.32,0,0,1-3.312-4.224v-1.5h-2.144v1.328a4.807,4.807,0,0,1-3.456,4.784l1.1,1.664a5.762,5.762,0,0,0,3.456-3.168A5.411,5.411,0,0,0,133.3-5.2ZM132.5-.256c-1.888,0-2.9-.384-2.9-1.216,0-.816,1.008-1.2,2.9-1.2,1.872,0,2.88.384,2.88,1.2C135.376-.64,134.368-.256,132.5-.256Zm0-4.048c-3.072,0-4.992,1.056-4.992,2.832,0,1.792,1.92,2.848,4.992,2.848,3.056,0,4.976-1.056,4.976-2.848C137.472-3.248,135.552-4.3,132.5-4.3Zm4.816-5.632v-3.408H135.2v8.7h2.112V-8.192h1.952V-9.936Zm5.808,3.52h4.672v-5.7h-6.768v1.68h4.688V-8.08H141.04V-2h1.248a36.532,36.532,0,0,0,6.8-.5L148.9-4.208a33.523,33.523,0,0,1-5.776.464Zm10.992-1.392H152v-5.568h-2.112V1.408H152V-6.064h2.112Zm11.136-5.568V1.408h2.112V-13.376Zm-5.808,1.04c-2.224,0-3.872,2.016-3.872,5.248,0,3.248,1.648,5.28,3.872,5.28s3.872-2.032,3.872-5.28C163.312-10.32,161.664-12.336,159.44-12.336Zm0,1.9c1.088,0,1.84,1.168,1.84,3.344,0,2.192-.752,3.36-1.84,3.36S157.6-4.9,157.6-7.088C157.6-9.264,158.352-10.432,159.44-10.432ZM169.872-2.1V-.368h13.344V-2.1Zm1.408-10.3v7.856h10.48V-12.4h-2.08v2.384h-6.3V-12.4Zm2.1,4.032h6.3v2.144h-6.3Zm13.808,1.776h4.528v-5.52h-6.64v1.68h4.544V-8.24H185.1V-2h1.216a39.573,39.573,0,0,0,6.592-.432l-.192-1.712a34.523,34.523,0,0,1-5.536.416Zm7.616-6.784v5.312h-2.3v1.712h2.3v7.76h2.128V-13.376Zm7.456,6.96h4.784v-5.7h-6.96v1.68h4.8V-8.08H200.1v6.064h1.328a40.412,40.412,0,0,0,7.232-.512l-.224-1.712a36.876,36.876,0,0,1-6.176.48Zm7.2-6.96V1.408h2.112V-13.376Z" transform="translate(410 3228)" fill="#111"/><path d="M10.9-9.536v1.344H8.272V-9.536ZM6.208-7.056h-2.8V-8.88h2.8Zm2.064.544H10.9V-4.56h2.112v-8.8H10.9v2.144H8.272V-12.48H6.208V-10.5h-2.8v-1.968h-2.1v7.088h6.96ZM8.016-.224c-1.92,0-2.928-.4-2.928-1.232S6.1-2.688,8.016-2.688c1.936,0,2.944.4,2.944,1.232S9.952-.224,8.016-.224Zm0-4.064c-3.12,0-5.04,1.04-5.04,2.832S4.9,1.376,8.016,1.376c3.136,0,5.056-1.04,5.056-2.832S11.152-4.288,8.016-4.288ZM22.928-4.8v1.44H25.7v1.168h2.112V-13.36H25.7V-4.8ZM20.1-11.328c.976,0,1.664.384,1.664,1.1S21.072-9.136,20.1-9.136c-.992,0-1.68-.368-1.68-1.088S19.1-11.328,20.1-11.328Zm0,3.728c2.144,0,3.664-1.056,3.664-2.624s-1.52-2.64-3.664-2.64c-2.16,0-3.664,1.072-3.664,2.64S17.936-7.6,20.1-7.6ZM19.312-.56V-2.576h2.032V-5.36c1.184-.1,2.368-.224,3.52-.416l-.144-1.5a80.723,80.723,0,0,1-9.376.448l.272,1.68c1.1,0,2.336-.016,3.632-.08v1.968H17.2V1.12H28.128V-.56ZM40.336-9.9v1.088H37.712V-9.9ZM35.648-7.84h-2.8v-1.6h2.8Zm2.064.624h2.624v1.424h2.112v-7.552H40.336v1.84H37.712v-1.248H35.648v1.728h-2.8v-1.728h-2.1v6.56h6.96ZM34.832-.432V-1.3h7.616V-5.232H32.72V-3.6h7.632v.784h-7.6V1.2H42.864V-.432ZM49.248,0h2.368V-4.208H53.2c2.544,0,4.576-1.216,4.576-3.92,0-2.8-2.016-3.728-4.64-3.728H49.248Zm2.368-6.08V-9.968H52.96c1.632,0,2.5.464,2.5,1.84,0,1.36-.784,2.048-2.416,2.048ZM59.728,0H62.08V-5.344c.5-1.3,1.344-1.76,2.048-1.76a2.993,2.993,0,0,1,.944.144l.4-2.032a2.535,2.535,0,0,0-1.056-.192,3.1,3.1,0,0,0-2.544,1.808h-.048L61.648-8.96h-1.92ZM66.7,0h2.352V-8.96H66.7Zm1.184-10.4a1.261,1.261,0,0,0,1.36-1.3,1.257,1.257,0,0,0-1.36-1.28,1.262,1.262,0,0,0-1.376,1.28A1.265,1.265,0,0,0,67.888-10.4ZM73.584,0H76.3L79.3-8.96H77.04L75.728-4.5c-.24.88-.48,1.808-.72,2.72h-.08c-.24-.912-.48-1.84-.72-2.72L72.9-8.96H70.528Zm9.04.224a4.213,4.213,0,0,0,2.7-1.184h.064l.16.96h1.92V-5.232c0-2.592-1.168-3.952-3.44-3.952A7.158,7.158,0,0,0,80.288-8l.848,1.552A5.062,5.062,0,0,1,83.6-7.3c1.1,0,1.488.672,1.536,1.552-3.616.384-5.168,1.392-5.168,3.312A2.545,2.545,0,0,0,82.624.224Zm.768-1.84c-.688,0-1.184-.3-1.184-1.008,0-.8.736-1.408,2.928-1.68V-2.5A2.435,2.435,0,0,1,83.392-1.616ZM92.848.224a5.79,5.79,0,0,0,1.888-.336l-.384-1.712a2.618,2.618,0,0,1-.88.192c-.8,0-1.216-.48-1.216-1.5V-7.1h2.208V-8.96H92.256v-2.416H90.3L90.032-8.96l-1.392.112V-7.1H89.9v3.968C89.9-1.136,90.72.224,92.848.224Zm7.04,0a5.641,5.641,0,0,0,3.12-.992l-.8-1.44a3.693,3.693,0,0,1-2.016.624,2.354,2.354,0,0,1-2.48-2.24h5.52a4.422,4.422,0,0,0,.112-1.088c0-2.464-1.28-4.272-3.744-4.272a4.391,4.391,0,0,0-4.176,4.7A4.35,4.35,0,0,0,99.888.224ZM97.68-5.392A2.017,2.017,0,0,1,99.632-7.36c1.152,0,1.7.768,1.7,1.968ZM113.936.224a4.792,4.792,0,0,0,3.776-1.744l-1.248-1.472a3.266,3.266,0,0,1-2.448,1.168c-1.872,0-3.088-1.552-3.088-4.128,0-2.544,1.344-4.08,3.136-4.08a3.119,3.119,0,0,1,2.192.992l1.232-1.5a4.83,4.83,0,0,0-3.472-1.52c-2.992,0-5.5,2.288-5.5,6.192C108.512-1.92,110.944.224,113.936.224Zm7.7,0a3.14,3.14,0,0,0,1.216-.208l-.288-1.744a1.325,1.325,0,0,1-.32.032c-.224,0-.464-.176-.464-.72V-12.768h-2.352V-2.512C119.424-.848,120,.224,121.632.224Zm6.576,0a4.371,4.371,0,0,0,4.3-4.7,4.371,4.371,0,0,0-4.3-4.7,4.371,4.371,0,0,0-4.3,4.7A4.371,4.371,0,0,0,128.208.224Zm0-1.92c-1.216,0-1.9-1.088-1.9-2.784,0-1.68.688-2.784,1.9-2.784s1.9,1.1,1.9,2.784C130.112-2.784,129.424-1.7,128.208-1.7Zm8.944,1.92A3.6,3.6,0,0,0,140-1.28h.064L140.24,0h1.92V-8.96h-2.352v6.048a2.159,2.159,0,0,1-1.824,1.12c-.864,0-1.248-.5-1.248-1.872v-5.3h-2.352v5.6C134.384-1.12,135.216.224,137.152.224Zm10.672,0A3.716,3.716,0,0,0,150.3-.928h.064l.176.928h1.9V-12.768h-2.336v3.152l.08,1.408a3.084,3.084,0,0,0-2.272-.976c-1.936,0-3.76,1.792-3.76,4.7C144.16-1.536,145.6.224,147.824.224Zm.608-1.936c-1.184,0-1.856-.928-1.856-2.784,0-1.792.848-2.752,1.856-2.752a2.416,2.416,0,0,1,1.68.672V-2.64A2.039,2.039,0,0,1,148.432-1.712ZM160.72-11.728h-2.112v9.52h1.024a27.706,27.706,0,0,0,5.088-.432l-.176-1.776a24.918,24.918,0,0,1-3.824.384Zm7.92-1.648V-7.7h-1.328V-13.1h-1.968V.672h1.968V-5.984h1.328V1.36h2.016V-13.376ZM176.064-3.6c-.8,0-1.28-1.1-1.28-3.376,0-2.256.48-3.36,1.28-3.36.816,0,1.28,1.1,1.28,3.36C177.344-4.7,176.88-3.6,176.064-3.6ZM180.4-7.936h-1.168c-.24-2.752-1.424-4.384-3.168-4.384-1.952,0-3.184,2.016-3.184,5.344,0,3.344,1.232,5.36,3.184,5.36,1.792,0,2.992-1.728,3.184-4.608H180.4V.72h1.968V-13.12H180.4Zm2.992-5.44V1.36h2V-13.376Zm9.888,4.4a1.766,1.766,0,0,1,1.936-1.808,1.774,1.774,0,0,1,1.936,1.808,1.762,1.762,0,0,1-1.936,1.792A1.754,1.754,0,0,1,193.28-8.976Zm5.92,0a3.693,3.693,0,0,0-3.984-3.584,3.7,3.7,0,0,0-4,3.584,3.705,3.705,0,0,0,4,3.568A3.7,3.7,0,0,0,199.2-8.976Zm-4,6.272h5.44V-.448H195.2Zm-2.08,3.9H202.7V-4.352H193.12Zm11.536-11.3H202.7v-3.248h-2.112v8.352H202.7V-8.368h1.952Zm14.912-3.264v8.352H221.7V-13.36Zm-7.68,9.008V1.2H221.7V-4.352ZM219.632-2.7V-.448h-5.664V-2.7Zm-5.952-9.984c-2.288,0-4.016,1.472-4.016,3.552,0,2.064,1.728,3.536,4.016,3.536s4-1.472,4-3.536C217.68-11.216,215.968-12.688,213.68-12.688Zm0,1.76a1.77,1.77,0,0,1,1.936,1.792A1.767,1.767,0,0,1,213.68-7.36a1.772,1.772,0,0,1-1.952-1.776A1.775,1.775,0,0,1,213.68-10.928Zm19.184,4.1a4.32,4.32,0,0,1-3.312-4.224v-1.5h-2.144v1.328a4.807,4.807,0,0,1-3.456,4.784l1.1,1.664a5.762,5.762,0,0,0,3.456-3.168A5.411,5.411,0,0,0,231.76-5.2Zm-1.9,6.576c-1.888,0-2.9-.384-2.9-1.216,0-.816,1.008-1.2,2.9-1.2,1.872,0,2.88.384,2.88,1.2C233.84-.64,232.832-.256,230.96-.256Zm0-4.048c-3.072,0-4.992,1.056-4.992,2.832,0,1.792,1.92,2.848,4.992,2.848,3.056,0,4.976-1.056,4.976-2.848C235.936-3.248,234.016-4.3,230.96-4.3Zm4.816-5.632v-3.408h-2.112v8.7h2.112V-8.192h1.952V-9.936Z" transform="translate(823 3228)" fill="#111"/><path d="M2.88-8.672A1.824,1.824,0,0,1,4.752-10.64,1.828,1.828,0,0,1,6.64-8.672,1.832,1.832,0,0,1,4.752-6.688,1.829,1.829,0,0,1,2.88-8.672Zm8.016-.96v1.9H8.528a3.634,3.634,0,0,0,.112-.944,4.639,4.639,0,0,0-.112-.96Zm0,3.584v3.472h2.112V-13.36H10.9v2.048H7.616A3.931,3.931,0,0,0,4.752-12.48,3.762,3.762,0,0,0,.88-8.672,3.766,3.766,0,0,0,4.752-4.848a3.967,3.967,0,0,0,2.9-1.2ZM5.408-.56V-3.632H3.3V1.12H13.344V-.56ZM28.736-6.24H26.8a25.692,25.692,0,0,0,.368-4.944v-1.328H16.944v1.7H25.1a22.24,22.24,0,0,1-.4,4.576h-9.28v1.7h5.5v5.92h2.144v-5.92h5.664Zm6.8-3.968h2.928v-1.744h-8.1v1.744h3.056v.816a6.945,6.945,0,0,1-3.616,6.32l1.184,1.68a7.2,7.2,0,0,0,3.52-4.336,6.885,6.885,0,0,0,3.44,3.968L39.12-3.424a6.592,6.592,0,0,1-3.584-5.968Zm8.272,2.464H41.664V-13.36H39.552V1.376h2.112V-6h2.144Zm5.776-4.64a3.749,3.749,0,0,0-4.048,3.632A3.739,3.739,0,0,0,49.584-5.12c2.3,0,4.064-1.5,4.064-3.632A3.763,3.763,0,0,0,49.584-12.384Zm0,1.808a1.814,1.814,0,0,1,2,1.824,1.814,1.814,0,0,1-2,1.824,1.814,1.814,0,0,1-2-1.824A1.814,1.814,0,0,1,49.584-10.576Zm5.44-2.8V1.408h2.112V-13.376ZM45.184-1.584a47.5,47.5,0,0,0,9.168-.672l-.128-1.52a66.274,66.274,0,0,1-9.312.48Zm20.528-8.432h3.536V-11.7H63.632V-1.9H64.64A26,26,0,0,0,69.9-2.288l-.176-1.728a22.08,22.08,0,0,1-4.016.384ZM70.8-7.984H68.24v1.712H70.8V.72h1.968V-13.088H70.8Zm3.056-5.392V1.36h2V-13.376Zm14.16,0V1.408h2.112V-13.376Zm-5.808,1.04c-2.224,0-3.872,2.016-3.872,5.248,0,3.248,1.648,5.28,3.872,5.28S86.08-3.84,86.08-7.088C86.08-10.32,84.432-12.336,82.208-12.336Zm0,1.9c1.088,0,1.84,1.168,1.84,3.344,0,2.192-.752,3.36-1.84,3.36s-1.84-1.168-1.84-3.36C80.368-9.264,81.12-10.432,82.208-10.432Zm13.2,4.048h4.224V-8.032H95.408v-2.4h4.72v-1.7H93.312V-1.936h1.2a39.638,39.638,0,0,0,6.5-.384l-.192-1.7a34.563,34.563,0,0,1-5.408.384Zm7.488-6.992v5.2h-2.528v1.7H102.9V1.408h2.112V-13.376Zm20.336.032H121.1V-2.608h2.128Zm-3.216,6.832a4.654,4.654,0,0,1-3.424-4.608v-1.424h-2.144v1.424a5,5,0,0,1-3.5,4.864l1.072,1.68a5.937,5.937,0,0,0,3.536-3.28,5.656,5.656,0,0,0,3.392,3.024ZM115.536-.56V-3.632h-2.112V1.12H123.6V-.56Zm18.1-8.864v1.7h2.288v3.264h2.112v-8.9H135.92v3.936Zm.928,2.88c-2.352-.624-3.408-2.112-3.44-3.632h2.912V-11.84H131.12v-1.568h-2.112v1.568h-2.88v1.664h2.88a4.236,4.236,0,0,1-3.392,3.984l.992,1.632a5.442,5.442,0,0,0,3.52-2.88A5.439,5.439,0,0,0,133.6-4.928Zm-1.5,6.3c-1.952,0-2.944-.368-2.944-1.168s.992-1.184,2.944-1.184c1.92,0,2.928.384,2.928,1.184S134.976-.24,133.056-.24Zm0-3.968c-3.136,0-5.056,1.024-5.056,2.8,0,1.76,1.92,2.784,5.056,2.784,3.12,0,5.04-1.024,5.04-2.784C138.1-3.184,136.176-4.208,133.056-4.208Zm10.688.608c-.8,0-1.28-1.1-1.28-3.376,0-2.256.48-3.36,1.28-3.36.816,0,1.28,1.1,1.28,3.36C145.024-4.7,144.56-3.6,143.744-3.6Zm4.336-4.336h-1.168c-.24-2.752-1.424-4.384-3.168-4.384-1.952,0-3.184,2.016-3.184,5.344,0,3.344,1.232,5.36,3.184,5.36,1.792,0,2.992-1.728,3.184-4.608h1.152V.72h1.968V-13.12H148.08Zm2.992-5.44V1.36h2V-13.376ZM161.28-9.952h3.376v-1.712H159.2v9.728h1.024a27.035,27.035,0,0,0,5.248-.4l-.16-1.712a24.858,24.858,0,0,1-4.032.368Zm8.144-3.424V-7.7H168.1v-5.392h-1.968V.688H168.1V-6h1.328V1.376h2V-13.376Zm12.768,1.568h-3.3v-1.568h-2.128v1.568H173.5v1.648h8.672ZM176.24-6.8c0-.8.656-1.232,1.6-1.232.928,0,1.6.432,1.6,1.232,0,.816-.672,1.248-1.6,1.248C176.9-5.552,176.24-5.984,176.24-6.8Zm5.216,0c0-1.664-1.5-2.832-3.616-2.832s-3.616,1.168-3.616,2.832c0,1.7,1.5,2.848,3.616,2.848S181.456-5.1,181.456-6.8Zm-3.744,3.648H175.6V1.12h10.032V-.56h-7.92ZM185.1-8.864v-4.5h-2.112V-2.336H185.1V-7.12h1.952V-8.864ZM200.88-7.2a4.3,4.3,0,0,1-3.424-4.192v-1.424h-2.144v1.424a4.615,4.615,0,0,1-3.52,4.448l1.024,1.664a5.8,5.8,0,0,0,3.6-3.072,5.475,5.475,0,0,0,3.456,2.8Zm-4.512,4.5h5.664V-.448h-5.664Zm-2.08,3.9H204.1V-4.352h-9.808Zm7.68-14.56v8.32H204.1v-8.32Zm9.344.976a3.749,3.749,0,0,0-4.048,3.632,3.739,3.739,0,0,0,4.048,3.632c2.3,0,4.064-1.5,4.064-3.632A3.763,3.763,0,0,0,211.312-12.384Zm0,1.808a1.814,1.814,0,0,1,2,1.824,1.814,1.814,0,0,1-2,1.824,1.814,1.814,0,0,1-2-1.824A1.814,1.814,0,0,1,211.312-10.576Zm5.44-2.8V1.408h2.112V-13.376Zm-9.84,11.792a47.5,47.5,0,0,0,9.168-.672l-.128-1.52a66.274,66.274,0,0,1-9.312.48Zm30.672-7.44c-3.3-.416-4.912-2.112-4.912-3.648V-13.1H230.5v.432c0,1.552-1.616,3.232-4.912,3.648l.768,1.648a7.235,7.235,0,0,0,5.232-2.848,7.272,7.272,0,0,0,5.248,2.848ZM231.552-.192c-1.968,0-2.976-.336-2.976-1.088s1.008-1.088,2.976-1.088,2.976.336,2.976,1.088S233.52-.192,231.552-.192Zm0-3.76c-3.184,0-5.1.96-5.1,2.672s1.92,2.672,5.1,2.672,5.12-.96,5.12-2.672S234.736-3.952,231.552-3.952Zm-6.624-2.64v1.664H238.24V-6.592Zm26.96-6.752H249.76V-2.768h2.128ZM241.92-8.672a1.838,1.838,0,0,1,1.952-1.92,1.818,1.818,0,0,1,1.936,1.92,1.822,1.822,0,0,1-1.936,1.9A1.843,1.843,0,0,1,241.92-8.672Zm5.952,0a3.782,3.782,0,0,0-4-3.744,3.8,3.8,0,0,0-4.016,3.744,3.8,3.8,0,0,0,4.016,3.728A3.789,3.789,0,0,0,247.872-8.672ZM244.192-.56V-3.808H242.08V1.12h10.176V-.56ZM13.312,12.176H8.4V10.624H6.288v1.552H1.328v1.648H13.312Zm-3.1,4.768c0,.656-.944.96-2.864.96S4.5,17.6,4.5,16.944c0-.688.928-.976,2.848-.976S10.208,16.256,10.208,16.944Zm-7.9,0c0,1.616,1.888,2.528,5.04,2.528S12.4,18.56,12.4,16.944c0-1.632-1.9-2.544-5.056-2.544S2.3,15.312,2.3,16.944Zm11.728,3.232H.688v1.7h5.6v3.52H8.4v-3.52h5.632Zm7.184-4.848a1.936,1.936,0,0,1,3.872,0,1.936,1.936,0,0,1-3.872,0Zm5.92,0a3.778,3.778,0,0,0-3.984-3.744,3.752,3.752,0,1,0,0,7.488A3.787,3.787,0,0,0,27.136,15.328Zm-3.888,4.928H21.136V25.12H31.168V23.44h-7.92Zm7.392-5.392V10.64H28.528V21.36H30.64V16.592h1.952V14.864ZM42.784,16.8a4.3,4.3,0,0,1-3.424-4.192V11.184H37.216v1.424a4.615,4.615,0,0,1-3.52,4.448L34.72,18.72a5.8,5.8,0,0,0,3.6-3.072,5.475,5.475,0,0,0,3.456,2.8Zm-4.512,4.5h5.664v2.256H38.272Zm-2.08,3.9H46V19.648H36.192Zm7.68-14.56v8.32H46V10.64Zm13.168.928H53.92v-1.04H51.808v1.04H48.672V12.96H57.04Zm-5.776,3.6c0-.416.592-.624,1.6-.624s1.584.208,1.584.624c0,.432-.576.656-1.584.656S51.264,15.6,51.264,15.168Zm6.144,2.176c-1.12.128-2.3.224-3.488.288V17.04c1.568-.192,2.528-.864,2.528-1.872,0-1.2-1.392-1.92-3.584-1.92s-3.6.72-3.6,1.92c0,1.008.96,1.68,2.544,1.872v.672c-1.264.032-2.448.032-3.5.032l.208,1.44a53.781,53.781,0,0,0,9.04-.576Zm-5.04,5.824H60.16V19.84h-9.9v1.392H58.08v.64H50.272v3.392h10.4V23.872h-8.3Zm7.792-9.056V10.624H58.048v8.688H60.16V15.84h1.856V14.112Zm9.664,9.68c-1.968,0-2.976-.336-2.976-1.088s1.008-1.072,2.976-1.072,2.976.32,2.976,1.072S71.792,23.792,69.824,23.792Zm0-3.76c-3.184,0-5.1.96-5.1,2.672s1.92,2.688,5.1,2.688,5.12-.976,5.12-2.688S73.008,20.032,69.824,20.032ZM68.3,16.4a11.709,11.709,0,0,0,1.552.1,14.8,14.8,0,0,0,1.52-.08v1.216H68.3Zm1.552-3.936c2.016,0,3.168.4,3.168,1.232,0,.8-1.152,1.216-3.168,1.216-2,0-3.152-.416-3.152-1.216C66.7,12.864,67.856,12.464,69.856,12.464Zm3.632,5.168v-1.76A2.423,2.423,0,0,0,75.2,13.7c0-1.76-2.08-2.832-5.344-2.832-3.248,0-5.328,1.072-5.328,2.832a2.413,2.413,0,0,0,1.664,2.16v1.776H63.2V19.3H76.512V17.632ZM90.48,10.64h-2V21.664h2ZM85.536,21.232H87.5V10.9H85.536V14h-1.76v1.712h1.76ZM85.1,17.808A4.5,4.5,0,0,1,82.56,13.52V11.632H80.512V13.52a5.005,5.005,0,0,1-2.784,4.656l1.152,1.6a5.43,5.43,0,0,0,2.688-2.912,4.774,4.774,0,0,0,2.384,2.56ZM82.672,23.44V20.384H80.56V25.12H90.848V23.44Zm12.736-5.824h4.224V15.968H95.408v-2.4h4.72v-1.7H93.312V22.064h1.2a39.638,39.638,0,0,0,6.5-.384l-.192-1.7a34.563,34.563,0,0,1-5.408.384Zm7.488-6.992v5.2h-2.528v1.7H102.9v7.888h2.112V10.624Zm14.1,2.416h-7.968v3.52h10.3V15.136H111.1v-.768h7.968V10.9h-10.08V12.32h8Zm-6.016,9.984h8.144v-3.5H108.864v1.424h8.16V21.7H108.88v3.552h10.64V23.824h-8.544Zm-3.616-5.76v1.52H120.7v-1.52Zm24.976,6.576c-2.032,0-2.976-.272-2.976-.88s.944-.864,2.976-.864c2.048,0,2.992.256,2.992.864S134.384,23.84,132.336,23.84Zm0-3.3c-3.232,0-5.1.832-5.1,2.416,0,1.568,1.872,2.416,5.1,2.416,3.248,0,5.12-.848,5.12-2.416C137.456,21.376,135.584,20.544,132.336,20.544Zm1.072-2.3v-.912h4.208v-1.6h-8.16v-.8h7.712V13.392h-7.712v-.768H137.5v-1.6H127.36v6.3H131.3v.912h-5.6v1.648h13.328V18.24Zm10.56,2.208c-.8,0-1.376-.64-1.376-1.744s.576-1.76,1.376-1.76,1.376.656,1.376,1.76S144.768,20.448,143.968,20.448Zm0-5.264a3.251,3.251,0,0,0-3.232,3.52,3.243,3.243,0,1,0,6.464,0A3.251,3.251,0,0,0,143.968,15.184Zm1.04-4.144h-2.08v1.824h-2.512v1.68h7.04v-1.68h-2.448Zm6.064-.416V16.64h-1.12V10.912h-1.968v13.84h1.968V18.336h1.12V25.36h2V10.624Zm12.384,3.2H165.6V12.112h-6.56v1.712h2.368v.72c0,2.528-.768,5.168-2.912,6.528l1.248,1.552a6.84,6.84,0,0,0,2.7-3.952,6.155,6.155,0,0,0,2.624,3.6l1.232-1.536c-2.128-1.248-2.848-3.728-2.848-6.192Zm2.992,1.84h-1.872v1.712h1.872V24.7h1.968V10.88h-1.968Zm2.976-5.04V25.36h2V10.624Zm15.392,5.824a13.856,13.856,0,0,0,.416-3.936V11.3H175.024V12.96h8.1a12.305,12.305,0,0,1-.384,3.28Zm-4.736,7.344c-1.984,0-3.12-.4-3.12-1.184,0-.8,1.136-1.2,3.12-1.2,2,0,3.136.4,3.136,1.2C183.216,23.392,182.08,23.792,180.08,23.792Zm0-3.968c-3.168,0-5.216,1.056-5.216,2.784,0,1.712,2.048,2.768,5.216,2.768,3.184,0,5.232-1.056,5.232-2.768C185.312,20.88,183.264,19.824,180.08,19.824Zm.48-2.592V14.656h-2.112v2.576h-4.912V18.9H186.8V17.232Z" transform="translate(1237 3228)" fill="#111"/><path d="M8-7.776a1.687,1.687,0,0,0-1.7,1.7A1.687,1.687,0,0,0,8-4.384a1.687,1.687,0,0,0,1.7-1.7A1.687,1.687,0,0,0,8-7.776ZM21.184,0h3.744c2.624,0,4.448-1.136,4.448-3.44a2.706,2.706,0,0,0-2.384-2.8v-.08A2.562,2.562,0,0,0,28.7-8.864c0-2.064-1.648-2.88-4.032-2.88H21.184Zm1.488-6.736V-10.56H24.48c1.824,0,2.768.512,2.768,1.888,0,1.184-.816,1.936-2.832,1.936Zm0,5.552V-5.616H24.72c2.048,0,3.2.672,3.2,2.128,0,1.584-1.184,2.3-3.2,2.3ZM33.568.208a4.655,4.655,0,0,0,2.88-1.248H36.5L36.624,0h1.2V-5.344c0-2.144-.9-3.568-3.008-3.568a6.535,6.535,0,0,0-3.424,1.136l.576,1.008A4.787,4.787,0,0,1,34.576-7.7C36-7.7,36.368-6.624,36.368-5.5c-3.7.416-5.344,1.36-5.344,3.248A2.355,2.355,0,0,0,33.568.208ZM33.984-.96c-.864,0-1.536-.4-1.536-1.392,0-1.12.992-1.84,3.92-2.192v2.432A3.551,3.551,0,0,1,33.984-.96ZM42.864.208c2.048,0,3.168-1.168,3.168-2.576,0-1.648-1.392-2.16-2.656-2.64C42.4-5.376,41.5-5.68,41.5-6.512c0-.672.512-1.248,1.616-1.248a3.181,3.181,0,0,1,1.968.768l.7-.944A4.416,4.416,0,0,0,43.1-8.912c-1.888,0-3.008,1.088-3.008,2.464,0,1.472,1.328,2.064,2.544,2.512.96.368,1.984.752,1.984,1.648,0,.752-.56,1.36-1.712,1.36a3.941,3.941,0,0,1-2.576-1.024l-.72.96A5.24,5.24,0,0,0,42.864.208Zm8.72,0a5.171,5.171,0,0,0,2.88-.9l-.528-.96A3.745,3.745,0,0,1,51.76-.96,2.879,2.879,0,0,1,48.88-4h5.856a5.684,5.684,0,0,0,.064-.832c0-2.48-1.248-4.08-3.456-4.08-2.016,0-3.92,1.76-3.92,4.576C47.424-1.472,49.28.208,51.584.208Zm-2.72-5.264a2.668,2.668,0,0,1,2.5-2.688c1.36,0,2.16.944,2.16,2.688ZM58.48.208A2.241,2.241,0,0,0,59.328.08L59.12-1.04a1.278,1.278,0,0,1-.3.032c-.224,0-.416-.176-.416-.624v-11.1H56.944V-1.728C56.944-.5,57.392.208,58.48.208ZM61.5,0H62.96V-8.688H61.5Zm.736-10.48a.924.924,0,0,0,.976-.976.916.916,0,0,0-.976-.944.916.916,0,0,0-.976.944A.924.924,0,0,0,62.24-10.48ZM65.9,0H67.36V-6.3a3.3,3.3,0,0,1,2.384-1.328c1.152,0,1.648.688,1.648,2.32V0h1.456V-5.5c0-2.224-.832-3.408-2.656-3.408A4.167,4.167,0,0,0,67.28-7.44h-.048L67.1-8.688H65.9Zm13.28.208a5.171,5.171,0,0,0,2.88-.9l-.528-.96A3.745,3.745,0,0,1,79.36-.96,2.879,2.879,0,0,1,76.48-4h5.856a5.683,5.683,0,0,0,.064-.832c0-2.48-1.248-4.08-3.456-4.08-2.016,0-3.92,1.76-3.92,4.576C75.024-1.472,76.88.208,79.184.208Zm-2.72-5.264a2.668,2.668,0,0,1,2.5-2.688c1.36,0,2.16.944,2.16,2.688ZM88.256,0h3.008c3.536,0,5.472-2.192,5.472-5.9,0-3.728-1.936-5.84-5.536-5.84H88.256Zm1.488-1.216v-9.312h1.328C93.84-10.528,95.2-8.88,95.2-5.9c0,2.96-1.36,4.688-4.128,4.688ZM99.248,0h3.744c2.624,0,4.448-1.136,4.448-3.44a2.706,2.706,0,0,0-2.384-2.8v-.08a2.562,2.562,0,0,0,1.712-2.544c0-2.064-1.648-2.88-4.032-2.88H99.248Zm1.488-6.736V-10.56h1.808c1.824,0,2.768.512,2.768,1.888,0,1.184-.816,1.936-2.832,1.936Zm0,5.552V-5.616h2.048c2.048,0,3.2.672,3.2,2.128,0,1.584-1.184,2.3-3.2,2.3ZM8,16.224a1.7,1.7,0,1,0,1.7,1.7A1.687,1.687,0,0,0,8,16.224Zm13.984-1.152a2.281,2.281,0,0,1,2.448-2.288,2.288,2.288,0,1,1,0,4.56A2.277,2.277,0,0,1,21.984,15.072Zm6.208,0c0-2-1.584-3.376-3.76-3.376a3.393,3.393,0,1,0,0,6.752C26.608,18.448,28.192,17.072,28.192,15.072ZM23.84,20.864h6.432v3.072H23.84Zm-1.28,4.128h9.008V19.824H22.56ZM33.7,14.352H31.568v-3.5H30.256v8.288h1.312v-3.7H33.7Zm15.5-3.5v8.208h1.312V10.848Zm-7.968,8.976v5.168h9.28V19.824Zm8,1.04v3.072h-6.72V20.864ZM42.8,11.6c-2.16,0-3.728,1.36-3.728,3.344s1.568,3.344,3.728,3.344c2.176,0,3.76-1.36,3.76-3.344S44.976,11.6,42.8,11.6Zm0,1.088a2.266,2.266,0,1,1,0,4.512,2.264,2.264,0,1,1,0-4.512Zm18.944,4.9a4.872,4.872,0,0,1-3.472-4.432V11.568H56.96V13.04a5.251,5.251,0,0,1-3.568,4.928l.688,1.04a6,6,0,0,0,3.552-3.632,6.023,6.023,0,0,0,3.424,3.232Zm-1.712,6.56c-2.128,0-3.424-.592-3.424-1.584,0-1.008,1.3-1.6,3.424-1.6,2.112,0,3.408.592,3.408,1.6C63.44,23.552,62.144,24.144,60.032,24.144Zm0-4.208c-2.928,0-4.736.944-4.736,2.624,0,1.664,1.808,2.608,4.736,2.608,2.912,0,4.72-.944,4.72-2.608C64.752,20.88,62.944,19.936,60.032,19.936Zm4.56-5.392v-3.7H63.28v8.688h1.312v-3.9H66.72V14.544Zm9.04,2.768H78.8V12.16H72.3v1.072h5.2V16.24H72.352v5.488h1.136a36.578,36.578,0,0,0,6.9-.512l-.144-1.088a32.5,32.5,0,0,1-6.608.512Zm11.536-.784H82.816V10.816H81.5V25.2h1.312V17.632h2.352Zm11.744-5.7V25.216h1.312V10.832Zm-6.256,1.1c-2.128,0-3.648,1.952-3.648,5.008s1.52,5.008,3.648,5.008S94.3,20,94.3,16.944,92.784,11.936,90.656,11.936Zm0,1.184c1.392,0,2.384,1.5,2.384,3.824,0,2.336-.992,3.84-2.384,3.84-1.408,0-2.4-1.5-2.4-3.84C88.256,14.624,89.248,13.12,90.656,13.12ZM101.2,22.192V23.28h13.008V22.192Zm1.536-10.32v7.472h9.9V11.872h-1.28V14.5h-7.328V11.872Zm1.3,3.68h7.328v2.72h-7.328Zm13.712,1.632h5.088V12.16h-6.416v1.072h5.136v2.9h-5.1v5.616h1.1a35.041,35.041,0,0,0,6.576-.464L124,20.192a33.19,33.19,0,0,1-6.256.464Zm8.672-6.368v5.536H123.68v1.072h2.736V25.2h1.312V10.816ZM8,40.224a1.7,1.7,0,1,0,1.7,1.7A1.687,1.687,0,0,0,8,40.224Zm13.9-.88a2.44,2.44,0,1,1,2.448,2.448A2.371,2.371,0,0,1,21.9,39.344Zm9.024-1.2v2.384H27.84a3.8,3.8,0,0,0,0-2.384Zm0,3.44V45.44h1.328V34.848H30.928v2.24H27.28a3.677,3.677,0,0,0-2.928-1.344,3.6,3.6,0,1,0,0,7.2,3.674,3.674,0,0,0,2.944-1.36ZM24.4,47.792v-3.44H23.072v4.512h9.584V47.792Zm18.816-8.96H41.088a12.363,12.363,0,0,0,.192-2.176h-5.5v1.072h4.208a9.181,9.181,0,0,1-4.848,7.424l.768.928a10.326,10.326,0,0,0,4.944-6.192h2.368v2.528H40.624v1.072h2.592v4.96h1.248V35.216H43.216Zm2.88-4V49.168h1.248V34.832Zm4.848,1.488v1.072h5.264a9.969,9.969,0,0,1-.464,2.512l-5.536.368.224,1.152,4.9-.464a10.255,10.255,0,0,1-5.168,4.848l.7,1.04C56.016,44.3,57.5,40.48,57.5,36.32Zm9.392-1.488V49.184h1.312V34.832ZM68.928,48h3.008c3.536,0,5.472-2.192,5.472-5.9,0-3.728-1.936-5.84-5.536-5.84H68.928Zm1.488-1.216V37.472h1.328c2.768,0,4.128,1.648,4.128,4.624,0,2.96-1.36,4.688-4.128,4.688ZM79.92,48h3.744c2.624,0,4.448-1.136,4.448-3.44a2.706,2.706,0,0,0-2.384-2.8v-.08a2.562,2.562,0,0,0,1.712-2.544c0-2.064-1.648-2.88-4.032-2.88H79.92Zm1.488-6.736V37.44h1.808c1.824,0,2.768.512,2.768,1.888,0,1.184-.816,1.936-2.832,1.936Zm0,5.552V42.384h2.048c2.048,0,3.2.672,3.2,2.128,0,1.584-1.184,2.3-3.2,2.3Z" transform="translate(410 3262)" fill="#111"/><path d="M3.376-6.416H8.048v-5.7H1.28v1.68H5.968V-8.08H1.3V-2H2.544a36.533,36.533,0,0,0,6.8-.5L9.152-4.208a33.523,33.523,0,0,1-5.776.464ZM14.368-7.808H12.256v-5.568H10.144V1.408h2.112V-6.064h2.112ZM25.5-13.376V1.408h2.112V-13.376ZM19.7-12.336c-2.224,0-3.872,2.016-3.872,5.248,0,3.248,1.648,5.28,3.872,5.28s3.872-2.032,3.872-5.28C23.568-10.32,21.92-12.336,19.7-12.336Zm0,1.9c1.088,0,1.84,1.168,1.84,3.344,0,2.192-.752,3.36-1.84,3.36s-1.84-1.168-1.84-3.36C17.856-9.264,18.608-10.432,19.7-10.432ZM30.128-2.1V-.368H43.472V-2.1Zm1.408-10.3v7.856h10.48V-12.4h-2.08v2.384h-6.3V-12.4Zm2.1,4.032h6.3v2.144h-6.3ZM47.44-6.592h4.528v-5.52h-6.64v1.68h4.544V-8.24H45.36V-2h1.216a39.573,39.573,0,0,0,6.592-.432l-.192-1.712a34.523,34.523,0,0,1-5.536.416Zm7.616-6.784v5.312h-2.3v1.712h2.3v7.76h2.128V-13.376Zm7.456,6.96H67.3v-5.7h-6.96v1.68h4.8V-8.08H60.352v6.064H61.68a40.412,40.412,0,0,0,7.232-.512L68.688-4.24a36.877,36.877,0,0,1-6.176.48Zm7.2-6.96V1.408h2.112V-13.376ZM78.688,0h3.376c3.488,0,5.728-1.984,5.728-5.968,0-4-2.24-5.888-5.856-5.888H78.688Zm2.368-1.9V-9.952h.736c2.208,0,3.584,1.088,3.584,3.984C85.376-3.088,84-1.9,81.792-1.9ZM92.128.224a4.213,4.213,0,0,0,2.7-1.184H94.9l.16.96h1.92V-5.232c0-2.592-1.168-3.952-3.44-3.952A7.158,7.158,0,0,0,89.792-8l.848,1.552A5.062,5.062,0,0,1,93.1-7.3c1.1,0,1.488.672,1.536,1.552-3.616.384-5.168,1.392-5.168,3.312A2.545,2.545,0,0,0,92.128.224Zm.768-1.84c-.688,0-1.184-.3-1.184-1.008,0-.8.736-1.408,2.928-1.68V-2.5A2.435,2.435,0,0,1,92.9-1.616Zm9.456,1.84a5.79,5.79,0,0,0,1.888-.336l-.384-1.712a2.618,2.618,0,0,1-.88.192c-.8,0-1.216-.48-1.216-1.5V-7.1h2.208V-8.96H101.76v-2.416H99.808L99.536-8.96l-1.392.112V-7.1h1.264v3.968C99.408-1.136,100.224.224,102.352.224Zm5.28,0a4.213,4.213,0,0,0,2.7-1.184h.064l.16.96h1.92V-5.232c0-2.592-1.168-3.952-3.44-3.952A7.158,7.158,0,0,0,105.3-8l.848,1.552a5.062,5.062,0,0,1,2.464-.848c1.1,0,1.488.672,1.536,1.552-3.616.384-5.168,1.392-5.168,3.312A2.545,2.545,0,0,0,107.632.224Zm.768-1.84c-.688,0-1.184-.3-1.184-1.008,0-.8.736-1.408,2.928-1.68V-2.5A2.435,2.435,0,0,1,108.4-1.616ZM117.936,0h8.48V-1.984h-5.568l5.52-8.448v-1.424h-7.9v1.984h4.992l-5.52,8.448Zm13.84.224a4.371,4.371,0,0,0,4.3-4.7,4.371,4.371,0,0,0-4.3-4.7,4.371,4.371,0,0,0-4.3,4.7A4.371,4.371,0,0,0,131.776.224Zm0-1.92c-1.216,0-1.9-1.088-1.9-2.784,0-1.68.688-2.784,1.9-2.784s1.9,1.1,1.9,2.784C133.68-2.784,132.992-1.7,131.776-1.7ZM138.048,0H140.4V-6.16a2.518,2.518,0,0,1,1.856-1.008c.88,0,1.264.48,1.264,1.872V0h2.352V-5.584c0-2.256-.832-3.6-2.768-3.6a4.13,4.13,0,0,0-2.912,1.408h-.048l-.176-1.184h-1.92Zm14.16.224a5.641,5.641,0,0,0,3.12-.992l-.8-1.44a3.693,3.693,0,0,1-2.016.624,2.354,2.354,0,0,1-2.48-2.24h5.52a4.421,4.421,0,0,0,.112-1.088c0-2.464-1.28-4.272-3.744-4.272a4.391,4.391,0,0,0-4.176,4.7A4.35,4.35,0,0,0,152.208.224ZM150-5.392a2.017,2.017,0,0,1,1.952-1.968c1.152,0,1.7.768,1.7,1.968Z" transform="translate(823 3262)" fill="#111"/><path d="M10,0,0,10,10,20" transform="translate(785 3260) rotate(180)" fill="none" stroke="#02105f" stroke-width="2"/><path d="M-5377.164-1659.326h83" transform="translate(6079.164 4909.326)" fill="none" stroke="#02105f" stroke-width="2"/><path d="M25,0A25,25,0,1,1,0,25,25,25,0,0,1,25,0Z" transform="translate(769 3225) rotate(90)" fill="#02105f"/><path d="M-5.8-7.47A5.124,5.124,0,0,1-9.54-12.222h3.222v-1.89h-8.91v1.89h3.258a5.386,5.386,0,0,1-3.906,5.058l1.206,1.872a6.489,6.489,0,0,0,3.96-3.582A6.162,6.162,0,0,0-6.948-5.616ZM-13.23-2.538H-4.3v4.1h2.376V-4.428h-11.3ZM-4.3-15.012v3.942H-6.75v1.908H-4.3v4h2.376v-9.846Zm17.172-.036v6.354H11.52v-6.084H9.306V-4.05C6.858-5.328,6.03-8.082,6.03-10.98v-.45H8.514v-1.926H1.008v1.926H3.726v.45c0,3.186-.792,6.12-3.258,7.56L1.89-1.62A7.161,7.161,0,0,0,4.95-6.012a6.518,6.518,0,0,0,3.024,3.78L9.306-4.014V.792H11.52V-6.75h1.35V1.53h2.25V-15.048Z" transform="translate(744 3258)" fill="#fff"/><path d="M10,0,0,10,10,20" transform="translate(1199 3260) rotate(180)" fill="none" stroke="#02105f" stroke-width="2"/><path d="M-5377.164-1659.326h83" transform="translate(6493.164 4909.326)" fill="none" stroke="#02105f" stroke-width="2"/><path d="M25,0A25,25,0,1,1,0,25,25,25,0,0,1,25,0Z" transform="translate(1183 3225) rotate(90)" fill="#02105f"/><path d="M-10.53-11.448h2.412v-1.926H-15.5v1.926h2.664v.81c0,2.844-.864,5.814-3.276,7.344l1.4,1.746a7.7,7.7,0,0,0,3.042-4.446,6.925,6.925,0,0,0,2.952,4.05l1.386-1.728c-2.394-1.4-3.2-4.194-3.2-6.966Zm3.366,2.07H-9.27v1.926h2.106V.792H-4.95V-14.76H-7.164Zm3.348-5.67V1.53h2.25V-15.048ZM13.5-8.5a15.588,15.588,0,0,0,.468-4.428v-1.368H2.484v1.872h9.108a13.843,13.843,0,0,1-.432,3.69ZM8.172-.234c-2.232,0-3.51-.45-3.51-1.332,0-.9,1.278-1.35,3.51-1.35,2.25,0,3.528.45,3.528,1.35C11.7-.684,10.422-.234,8.172-.234Zm0-4.464C4.608-4.7,2.3-3.51,2.3-1.566c0,1.926,2.3,3.114,5.868,3.114,3.582,0,5.886-1.188,5.886-3.114C14.058-3.51,11.754-4.7,8.172-4.7Zm.54-2.916v-2.9H6.336v2.9H.81v1.872H15.732V-7.614Z" transform="translate(1158 3258)" fill="#fff"/></g></svg>