<svg xmlns="http://www.w3.org/2000/svg" xmlns:xlink="http://www.w3.org/1999/xlink" width="135.117" height="34.764" viewBox="0 0 135.117 34.764">
  <defs>
    <clipPath id="clip-path">
      <rect id="사각형_1662" data-name="사각형 1662" width="135.117" height="34.764" fill="none"/>
    </clipPath>
  </defs>
  <g id="그룹_3570" data-name="그룹 3570" transform="translate(0 0)">
    <path id="패스_3525" data-name="패스 3525" d="M15.5,5.531,11.753,7.445l.233.455,1.583-.808.552,1.079.576-.3L14.145,6.8l1.583-.811Z" transform="translate(-2.906 -1.368)" fill="#004b9a"/>
    <g id="그룹_3569" data-name="그룹 3569" transform="translate(0 0)">
      <g id="그룹_3568" data-name="그룹 3568" clip-path="url(#clip-path)">
        <path id="패스_3526" data-name="패스 3526" d="M12.991,5.167a1.171,1.171,0,0,0,1.1.043l.852-.436-.2-.4-.655.336a.75.75,0,0,1-.892-.131l1.31-.67-.235-.455L10.856,5.2l.233.455,1.311-.67a.75.75,0,0,1-.416.8l-.658.335.2.4.852-.437a1.16,1.16,0,0,0,.608-.913" transform="translate(-2.684 -0.854)" fill="#004b9a"/>
        <path id="패스_3527" data-name="패스 3527" d="M7.832,9,7.4,9.572l-.472-.364-.4.513L9.36,11.9l.4-.513L7.8,9.883l.436-.565Z" transform="translate(-1.614 -2.226)" fill="#004b9a"/>
        <path id="패스_3528" data-name="패스 3528" d="M5.461,11a2.375,2.375,0,0,0-.671.613,2.4,2.4,0,0,0-.422.8,1.153,1.153,0,0,0,1.641,1.265,2.39,2.39,0,0,0,.671-.612,2.371,2.371,0,0,0,.422-.805A1.154,1.154,0,0,0,5.461,11M6.5,12.272a1.452,1.452,0,0,1-.248.464,1.481,1.481,0,0,1-.386.36.615.615,0,0,1-.9-.691,1.468,1.468,0,0,1,.251-.465,1.434,1.434,0,0,1,.385-.359.613.613,0,0,1,.9.691" transform="translate(-1.074 -2.689)" fill="#004b9a"/>
        <path id="패스_3529" data-name="패스 3529" d="M23.486,2.247v.6h-.443v-.6h-.647v1.82H20.853l-.022-.029V2.749h1.21v-.51H20.218V4.205a.373.373,0,0,0,.373.373h1.8V5.814h.647V3.355h.443V5.814h.647V2.247Z" transform="translate(-4.999 -0.553)" fill="#004b9a"/>
        <path id="패스_3530" data-name="패스 3530" d="M37.926,13.452l1.9-1.506.008-.006a.374.374,0,0,0,.081-.5l0,0-1.91-2.413-.4.317,1.754,2.216-1.8,1.428-.383-.486,1.359-1.076-.366-.465L36.807,12.04l-.333-.42,1.362-1.076-.368-.465-1.361,1.076-.5-.632-.4.318,2.622,3.312.4-.317Z" transform="translate(-8.704 -2.232)" fill="#004b9a"/>
        <path id="패스_3531" data-name="패스 3531" d="M34.545,6.048l-.61-.3.278-.562-.531-.261L32.929,6.45l.531.262.276-.559.609.3Z" transform="translate(-8.141 -1.217)" fill="#004b9a"/>
        <path id="패스_3532" data-name="패스 3532" d="M32.138,7.428a.375.375,0,0,0-.167-.5l-3.01-1.482-.209.422,2.812,1.385-.5,1.015.531.26.54-1.1,0,0" transform="translate(-7.109 -1.347)" fill="#004b9a"/>
        <path id="패스_3533" data-name="패스 3533" d="M29.649,3.858a.958.958,0,0,0-.095.446.873.873,0,0,0,.276.526,2.5,2.5,0,0,0,.6.364,2.5,2.5,0,0,0,.65.252.882.882,0,0,0,.587-.1.964.964,0,0,0,.294-.349,1.057,1.057,0,0,0,.1-.375l.285.141.224-.46-1.1-.543.125-.251-.531-.263-.125.252-1.1-.544-.228.46.283.141a1.033,1.033,0,0,0-.236.3m1.672,1.053a.407.407,0,0,1-.272.047,2.4,2.4,0,0,1-.421-.175,1.966,1.966,0,0,1-.377-.218.4.4,0,0,1-.128-.246.438.438,0,0,1,.044-.206A.429.429,0,0,1,30.3,3.95a.409.409,0,0,1,.272-.047,2.1,2.1,0,0,1,.4.167,2.274,2.274,0,0,1,.394.227.409.409,0,0,1,.128.245.447.447,0,0,1-.045.208.429.429,0,0,1-.137.161" transform="translate(-7.306 -0.73)" fill="#004b9a"/>
        <path id="패스_3534" data-name="패스 3534" d="M3.576,25.622l-.12-1.032-1.051-.255-.04-.349,2.4.652c.154.041.333.1.371-.1l.017,0,.075.644-2,1.095a1.032,1.032,0,0,0-.546.47l-.071-.615Zm1.273-.674-1.077-.285.093.8Z" transform="translate(-0.585 -5.93)" fill="#004b9a"/>
        <path id="패스_3535" data-name="패스 3535" d="M4.947,27.967c.181-.055.474-.123.485-.345l.017-.007.235.75-.017.006c-.135-.173-.413-.061-.592,0l-2.229.7c-.416.131-.737-.059-.93-.54l0-.02a1.05,1.05,0,0,0,1.046.084Z" transform="translate(-0.473 -6.827)" fill="#004b9a"/>
        <path id="패스_3536" data-name="패스 3536" d="M6.638,33.12a1.47,1.47,0,0,1-1.917-.847,1.44,1.44,0,0,1,.745-1.933,1.462,1.462,0,0,1,1.9.884,1.421,1.421,0,0,1-.727,1.9M5.68,30.758A1.116,1.116,0,0,0,5,32.179a1,1,0,0,0,1.38.538,1.09,1.09,0,0,0,.7-1.405,1.014,1.014,0,0,0-1.4-.553" transform="translate(-1.136 -7.476)" fill="#004b9a"/>
        <path id="패스_3537" data-name="패스 3537" d="M8.756,37.143l.193-.193a1.124,1.124,0,0,1-1.133-1.061,1.086,1.086,0,0,1,.423-.721l.777-.778c.13-.132.362-.324.286-.537l.43.429-.419.4-.775.779c-.387.387-.4.731-.1,1.028a.725.725,0,0,0,.629.221.556.556,0,0,0,.326-.2l.874-.878c.132-.13.36-.324.283-.541l.431.431-.421.409-1.5,1.506Z" transform="translate(-1.932 -8.37)" fill="#004b9a"/>
        <path id="패스_3538" data-name="패스 3538" d="M15.6,41.377l.1-.24a1.029,1.029,0,0,1-.874,0,1.01,1.01,0,0,1-.578-.55,1.067,1.067,0,0,1,.114-.829l.419-1.017c.071-.172.212-.439.059-.608l.56.234-.23.532-.419,1.017c-.209.506-.093.83.3.993a.74.74,0,0,0,.665-.036.552.552,0,0,0,.222-.315l.473-1.145c.071-.172.209-.44.056-.61l.562.236-.232.539-.807,1.955Z" transform="translate(-3.512 -9.429)" fill="#004b9a"/>
        <path id="패스_3539" data-name="패스 3539" d="M21.592,40.485l-.265,2.3a1.132,1.132,0,0,1-.543-.535l-1.2-1.941-.244,2.105-.294-.034.247-2.154c.028-.229.047-.391-.152-.536l0-.016.6.069v.006a.235.235,0,0,0,.05.108l.047.089L21.119,42l.179-1.551c.025-.228.05-.408-.152-.555l.512.058Z" transform="translate(-4.71 -9.808)" fill="#004b9a"/>
        <path id="패스_3540" data-name="패스 3540" d="M24.137,42.738l-.106-2.128c-.009-.19,0-.491-.209-.56l.6-.029.029.568.1,2.129Z" transform="translate(-5.89 -9.895)" fill="#004b9a"/>
        <path id="패스_3541" data-name="패스 3541" d="M39.869,33.312l-1.835-1.081c-.163-.1-.408-.271-.583-.133l.306-.519.489.291,1.837,1.082Z" transform="translate(-9.259 -7.807)" fill="#004b9a"/>
        <path id="패스_3542" data-name="패스 3542" d="M27.547,40.061c.041-.309.1-.671-.172-.708l0-.017.6-.142-.4,3.008c-.323-.117-.422-.129-.613-.417l-.994-1.494a1.211,1.211,0,0,0-.447-.5l0-.017.585-.139.008.05a1.572,1.572,0,0,0,.2.346l1.049,1.592Z" transform="translate(-6.306 -9.69)" fill="#004b9a"/>
        <path id="패스_3543" data-name="패스 3543" d="M30.721,40.487l-.681-1.394c-.084-.169-.191-.449-.413-.426l-.008-.014,1.182-.58a.387.387,0,0,0,.166-.1l.011,0,.211.431-.011.006a.573.573,0,0,0-.509.065,2.345,2.345,0,0,0-.364.209l.336.69.441-.216a.4.4,0,0,0,.151-.1l.013-.007.189.391-.01.006c-.111-.078-.265,0-.38.058l-.275.134.429.876.492-.185a1.023,1.023,0,0,0,.575-.552l.014-.006.069.567-1.38.672Z" transform="translate(-7.323 -9.387)" fill="#004b9a"/>
        <path id="패스_3544" data-name="패스 3544" d="M34.471,38.909l-1.305-1.673c-.117-.151-.279-.4-.491-.335l-.011-.012.772-.6c.435-.341.851-.3,1.081,0a.8.8,0,0,1-.071.973l.927.223a2.934,2.934,0,0,0,.878.043l-.3.233a.536.536,0,0,1-.5.132l-.778-.181-.655-.224c.229-.242.438-.6.2-.9a.475.475,0,0,0-.7-.033c-.071.062-.135.128-.2.2L34.8,38.652Z" transform="translate(-8.076 -8.912)" fill="#004b9a"/>
        <path id="패스_3545" data-name="패스 3545" d="M36.959,33.593a.922.922,0,0,0-.61.335c-.148.181-.267.465-.047.648.436.355,1.328-.743,1.916-.258a1,1,0,0,1-.041,1.391,2.144,2.144,0,0,1-.563.492l-.474-.234a1.433,1.433,0,0,0,.836-.479c.149-.183.266-.546.042-.728-.5-.41-1.3.759-1.98.206-.4-.33-.218-.865.1-1.253A2.113,2.113,0,0,1,36.6,33.3Z" transform="translate(-8.854 -8.232)" fill="#004b9a"/>
        <path id="패스_3546" data-name="패스 3546" d="M42.5,25.941l-1.165-.166-1.186.521a.98.98,0,0,0-.476.323l.088-.607,1.283-.55-.686-.616c-.091-.084-.273-.2-.415.006l-.015,0,.1-.711,1.365,1.22,1.167.167Z" transform="translate(-9.808 -5.968)" fill="#004b9a"/>
        <path id="패스_3547" data-name="패스 3547" d="M38.427,30.063l.377.294,0-.012a.722.722,0,0,1,.026-.516l.133-.336,2.248.883.152-.39L39.121,29.1l.135-.344c.05-.128.129-.273.282-.27l0-.011-.382-.282Z" transform="translate(-9.501 -6.971)" fill="#004b9a"/>
        <path id="패스_3548" data-name="패스 3548" d="M17.374,0a17.382,17.382,0,1,0,17.39,17.371A17.377,17.377,0,0,0,17.374,0m0,34.247A16.867,16.867,0,1,1,34.247,17.371,16.868,16.868,0,0,1,17.374,34.247" transform="translate(0 0)" fill="#004b9a"/>
        <path id="패스_3549" data-name="패스 3549" d="M30.676,19.373a11.294,11.294,0,1,1-11.3-11.288,11.3,11.3,0,0,1,11.3,11.288" transform="translate(-2 -1.999)" fill="#004b9a"/>
        <path id="패스_3550" data-name="패스 3550" d="M5.254,19.122a.469.469,0,1,1-.467-.47.469.469,0,0,1,.467.47" transform="translate(-1.067 -4.611)" fill="#004b9a"/>
        <path id="패스_3551" data-name="패스 3551" d="M41.65,19.122a.468.468,0,1,1-.468-.47.468.468,0,0,1,.468.47" transform="translate(-10.066 -4.611)" fill="#004b9a"/>
        <path id="패스_3552" data-name="패스 3552" d="M18.67,10.271l-4.742,6.95a3.136,3.136,0,0,0-.2,3.307l2.471,3.81a1.572,1.572,0,0,0,1.294.753h1.856a1.144,1.144,0,0,1-.478-.379l-2.757-4.239a2.968,2.968,0,0,1-.415-1.454,2.9,2.9,0,0,1,.406-1.25l2.582-3.874,3.059,4.737a.8.8,0,0,1-.02.936s-.223.233-.782.052l1.067,1.646a.69.69,0,0,0,.509.265.624.624,0,0,0,.437-.254l.793-1.283a1.855,1.855,0,0,0-.031-1.95Z" transform="translate(-3.301 -2.539)" fill="#bd8300"/>
        <path id="패스_3553" data-name="패스 3553" d="M26.171,24.467l2.349-3.542a3.129,3.129,0,0,0,.2-3.3l-4.256-6.563a1.57,1.57,0,0,0-1.293-.753H21.313a1.164,1.164,0,0,1,.478.379l4.449,6.774a3.077,3.077,0,0,1,.51,1.673,2.911,2.911,0,0,1-.406,1.25l-1.538,2.4a.772.772,0,0,1-.528.341h-.93a.876.876,0,0,1-.528-.391L20.7,19.516a.806.806,0,0,1,.02-.935s.224-.233.784-.05l-1.069-1.649a.681.681,0,0,0-.507-.263.626.626,0,0,0-.438.255l-.794,1.28a1.859,1.859,0,0,0,.031,1.952l2.856,4.386a1.345,1.345,0,0,0,.964.606h2.566a1.308,1.308,0,0,0,1.058-.63" transform="translate(-4.561 -2.547)" fill="#bd8300"/>
        <path id="패스_3554" data-name="패스 3554" d="M19,34.514H18.62V32.072l-.429.289V32a3.492,3.492,0,0,0,.482-.342H19Z" transform="translate(-4.498 -7.826)" fill="#fff"/>
        <path id="패스_3555" data-name="패스 3555" d="M22.065,33.081c0,.746,0,1.48-.771,1.48a.675.675,0,0,1-.7-.746h.379c0,.211.082.429.324.429.367,0,.392-.4.392-1.137h-.01a.485.485,0,0,1-.489.268c-.226,0-.655-.12-.655-.9,0-.642.383-.876.762-.876.783,0,.771.716.771,1.485m-1.152-.618c0,.285.053.593.382.593s.382-.309.382-.593c0-.257-.056-.592-.382-.592s-.382.334-.382.592" transform="translate(-5.076 -7.812)" fill="#fff"/>
        <path id="패스_3556" data-name="패스 3556" d="M23.152,31.656h1.48v.33l-.763,2.528H23.44l.8-2.528H23.152Z" transform="translate(-5.724 -7.826)" fill="#fff"/>
        <path id="패스_3557" data-name="패스 3557" d="M26.367,32.834c.341.029.583-.107.583-.471,0-.261-.114-.449-.394-.449-.315,0-.363.234-.36.465h-.378a.659.659,0,0,1,.738-.783.679.679,0,0,1,.772.741.625.625,0,0,1-.562.663v.008c.449.061.592.3.592.729a.742.742,0,0,1-.848.823.7.7,0,0,1-.737-.848h.378c.005.283.05.531.391.531s.438-.211.438-.515c0-.461-.173-.559-.613-.559Z" transform="translate(-6.372 -7.812)" fill="#fff"/>
        <path id="패스_3558" data-name="패스 3558" d="M60.507,32.9H57.483l-1.1,2.959H55.359l2.7-6.74c.168-.431.4-.936-.18-1.113v-.038h1.9l2.493,6.154a3.008,3.008,0,0,0,1.176,1.737h-1.8Zm-1.527-3.913-1.187,3.023h2.364Z" transform="translate(-13.687 -6.914)" fill="#1a1311"/>
        <path id="패스_3559" data-name="패스 3559" d="M66.523,29.657c0-.552.072-1.426-.54-1.653v-.038h2.293V28c-.6.227-.529,1.1-.529,1.653v6.8c0,1.272-.8,2-2.316,2.118l-.05-.028a3.036,3.036,0,0,0,1.143-2.834Z" transform="translate(-16.165 -6.914)" fill="#1a1311"/>
        <path id="패스_3560" data-name="패스 3560" d="M78.448,31.76a4.28,4.28,0,0,1-4.415,4.223,4.2,4.2,0,0,1-4.38-4.165,4.267,4.267,0,0,1,4.5-4.126,4.142,4.142,0,0,1,4.3,4.068m-7.426-.05a3.253,3.253,0,0,0,3.071,3.408A2.914,2.914,0,0,0,77.08,32a3.186,3.186,0,0,0-3.01-3.442,2.956,2.956,0,0,0-3.048,3.153" transform="translate(-17.221 -6.846)" fill="#1a1311"/>
        <path id="패스_3561" data-name="패스 3561" d="M87.216,35.874v-.8a2.986,2.986,0,0,1-2.352.985,2.953,2.953,0,0,1-2.172-.839,3.15,3.15,0,0,1-.611-2.367v-3.2c0-.54.082-1.413-.514-1.691l1.77,0L83.3,29.655v3.2c0,1.6.673,2.34,1.908,2.34a2.127,2.127,0,0,0,1.751-.838,1.579,1.579,0,0,0,.252-1.092V29.655c0-.54.073-1.413-.528-1.691l1.774,0-.023,1.7v6.206Z" transform="translate(-20.167 -6.914)" fill="#1a1311"/>
        <path id="패스_3562" data-name="패스 3562" d="M104.136,35.845v-.757a2.981,2.981,0,0,1-2.352.984,2.945,2.945,0,0,1-2.169-.839A3.147,3.147,0,0,1,99,32.87v-3.2c0-.539.086-1.414-.513-1.692l1.77,0-.032,1.69v3.2c0,1.6.672,2.337,1.907,2.337a2.115,2.115,0,0,0,1.752-.838,1.566,1.566,0,0,0,.251-1.091V29.665c0-.539.074-1.414-.528-1.692l1.776,0-.025,1.7v6.168Z" transform="translate(-24.35 -6.916)" fill="#1a1311"/>
        <path id="패스_3563" data-name="패스 3563" d="M115.806,29.517v6.73a3.31,3.31,0,0,1-1.751-1.365l-4.115-5.22v6.174h-.863V29.517c0-.672,0-1.151-.626-1.509v-.035H110.2v.01a.761.761,0,0,0,.179.3l.166.239,4.392,5.543V29.517c0-.672.011-1.195-.623-1.551h1.5Z" transform="translate(-26.814 -6.914)" fill="#1a1311"/>
        <path id="패스_3564" data-name="패스 3564" d="M119.97,35.838V29.627c0-.553.084-1.429-.523-1.655H121.2v7.866Z" transform="translate(-29.533 -6.916)" fill="#1a1311"/>
        <path id="패스_3565" data-name="패스 3565" d="M158.271,35.834V29.623c0-.553.082-1.429-.526-1.655H159.5l0,1.655v6.211Z" transform="translate(-39.002 -6.915)" fill="#1a1311"/>
        <path id="패스_3566" data-name="패스 3566" d="M127.968,30.141c.324-.851.732-1.835-.012-2.133V27.97h1.788l-3.167,8.254c-.841-.551-1.119-.649-1.466-1.594L123.3,29.721a3.552,3.552,0,0,0-.936-1.713V27.97h1.754l-.014.143a4.822,4.822,0,0,0,.325,1.116l1.905,5.218Z" transform="translate(-30.254 -6.915)" fill="#1a1311"/>
        <path id="패스_3567" data-name="패스 3567" d="M133.314,34.162v-4.52c0-.552.071-1.426-.544-1.655v-.035h3.841a1.278,1.278,0,0,0,.565-.062h.037v1.4h-.037a1.682,1.682,0,0,0-1.414-.479,6.693,6.693,0,0,0-1.226.084v2.23h1.428a1.228,1.228,0,0,0,.528-.072h.038v1.272h-.038c-.191-.348-.693-.336-1.067-.336h-.888v2.842l1.524.147a3,3,0,0,0,2.221-.708h.035l-.538,1.569H133.3Z" transform="translate(-32.827 -6.895)" fill="#1a1311"/>
        <path id="패스_3568" data-name="패스 3568" d="M140.869,35.853v-6.19c0-.552.085-1.426-.526-1.655v-.035H143.2c1.607,0,2.485.836,2.485,1.929a2.345,2.345,0,0,1-1.909,2.111l1.728,2.17a8.3,8.3,0,0,0,1.945,1.68h-1.105a1.568,1.568,0,0,1-1.391-.6l-1.466-1.81-1.1-1.69c.957-.144,2.076-.589,2.076-1.717a1.379,1.379,0,0,0-1.55-1.33,5.989,5.989,0,0,0-.817.094v7.044Z" transform="translate(-34.699 -6.916)" fill="#1a1311"/>
        <path id="패스_3569" data-name="패스 3569" d="M154.858,29.312a2.745,2.745,0,0,0-1.885-.757c-.684,0-1.548.264-1.548,1.091,0,1.644,4.129,1.622,4.129,3.84,0,1.286-1.342,2.482-3.217,2.482a6.18,6.18,0,0,1-2.146-.36l-.347-1.5a4.156,4.156,0,0,0,2.624,1c.688,0,1.717-.406,1.717-1.248,0-1.873-4.125-1.538-4.125-4.079,0-1.512,1.548-2.087,3.011-2.087a6.059,6.059,0,0,1,1.788.263Z" transform="translate(-37.048 -6.847)" fill="#1a1311"/>
        <path id="패스_3570" data-name="패스 3570" d="M172.526,35.851V32.414l-1.991-3.2a2.884,2.884,0,0,0-1.137-1.235h1.785l2.126,3.467,1.487-2.233c.2-.3.479-.878-.193-1.2v-.036h2.1l-2.948,4.437v3.437Z" transform="translate(-41.883 -6.917)" fill="#1a1311"/>
        <path id="패스_3571" data-name="패스 3571" d="M161.087,27.966,160.7,29.3h.036a2.086,2.086,0,0,1,1.426-.479h1.055v7.042h1.225V28.819h1.079c.394,0,.875.059,1.032.479h.035l.358-1.332Z" transform="translate(-39.731 -6.914)" fill="#1a1311"/>
        <path id="패스_3572" data-name="패스 3572" d="M76.231,5.672H73.623V20.081h2.608V10.141h2.882V8.079H76.231Z" transform="translate(-18.203 -1.402)" fill="#1a1311"/>
        <path id="패스_3573" data-name="패스 3573" d="M120.509,8.067h-1.785V5.66h-2.61V13H109.9l-.093-.116V7.69h4.883V5.625h-7.35v7.933a1.507,1.507,0,0,0,1.509,1.508c.011,0,.019,0,.031,0h7.238V20.04h2.61v-9.91h1.785v9.91h2.608V5.66h-2.608Z" transform="translate(-26.539 -1.39)" fill="#1a1311"/>
        <path id="패스_3574" data-name="패스 3574" d="M151.772,5.615h-2.386v6.852h2.386V9.958h2.738V8.143h-2.738Z" transform="translate(-36.935 -1.388)" fill="#1a1311"/>
        <path id="패스_3575" data-name="패스 3575" d="M82.04,17.6h7.167v4.89h2.608V17.6h7.168V15.534H82.04Z" transform="translate(-20.284 -3.84)" fill="#1a1311"/>
        <path id="패스_3576" data-name="패스 3576" d="M90.761,9.429A4.693,4.693,0,0,0,94.616,11.6h3.865V9.8H95.517A3.026,3.026,0,0,1,92.551,7.69h5.931V5.625H83.035V7.69h5.934A3.026,3.026,0,0,1,86,9.8H83.035V11.6H86.9a4.7,4.7,0,0,0,3.859-2.167" transform="translate(-20.53 -1.39)" fill="#1a1311"/>
        <path id="패스_3577" data-name="패스 3577" d="M171.941,16.961V7.172h0c0-.014,0-.026,0-.038a1.5,1.5,0,0,0-1.373-1.5V5.625H158.16V7.691h11.393v9.271h-2.5v-7h-2.385v7h-2.155v-7h-2.389v7h-3.248v2.066H173.9V16.961Z" transform="translate(-38.787 -1.39)" fill="#1a1311"/>
        <path id="패스_3578" data-name="패스 3578" d="M65.212,5.886a10.525,10.525,0,0,0-7.215,0,4.644,4.644,0,0,0,0,8.347,10.5,10.5,0,0,0,7.215,0,4.645,4.645,0,0,0,0-8.347M63.7,12.344a6.466,6.466,0,0,1-4.193,0,2.476,2.476,0,0,1,0-4.565,6.479,6.479,0,0,1,4.193,0,2.477,2.477,0,0,1,0,4.565" transform="translate(-13.695 -1.297)" fill="#1a1311"/>
        <path id="패스_3579" data-name="패스 3579" d="M147.621,17.742a1.506,1.506,0,0,0-1.492-1.507H132.6v1.9h12.635v4.56h2.386v-4.94h0Z" transform="translate(-32.785 -4.014)" fill="#1a1311"/>
        <path id="패스_3580" data-name="패스 3580" d="M132.346,8.848a3.858,3.858,0,0,0,.446,1.781,3.531,3.531,0,0,0,1.934,1.414,15.766,15.766,0,0,0,5.609,0,3.538,3.538,0,0,0,1.936-1.414,3.858,3.858,0,0,0,.446-1.781,4.246,4.246,0,0,0-.309-1.53h1.276V5.252h-4.959V4.118h-2.388V5.252h-4.958V7.317h1.277a4.274,4.274,0,0,0-.309,1.53m7.919.827a1.637,1.637,0,0,1-.9.656,9.625,9.625,0,0,1-1.832.12,8.813,8.813,0,0,1-1.757-.12,1.636,1.636,0,0,1-.9-.656,1.781,1.781,0,0,1-.209-.827,1.8,1.8,0,0,1,.209-.833,1.65,1.65,0,0,1,.9-.659,9.025,9.025,0,0,1,1.757-.117,9.856,9.856,0,0,1,1.832.117,1.65,1.65,0,0,1,.9.659,1.812,1.812,0,0,1,.207.833,1.791,1.791,0,0,1-.207.827" transform="translate(-32.483 -1.018)" fill="#1a1311"/>
      </g>
    </g>
  </g>
</svg>
