<?xml version="1.0" encoding="utf-8"?>
<!-- Generator: Adobe Illustrator 26.5.0, SVG Export Plug-In . SVG Version: 6.00 Build 0)  -->
<svg version="1.1" id="Layer_1" xmlns="http://www.w3.org/2000/svg" xmlns:xlink="http://www.w3.org/1999/xlink" x="0px" y="0px"
	 width="200px" height="200px" viewBox="0 0 200 200" style="enable-background:new 0 0 200 200;" xml:space="preserve">
<style type="text/css">
	.st0{fill:#EAEDF8;}
	.st1{fill:none;}
	.st2{fill:none;stroke:#0F249A;}
	.st3{clip-path:url(#SVGID_00000162353913074015589120000017535827192360175276_);}
	.st4{fill:#0F249A;}
</style>
<g>
	<g id="그룹_3812" transform="translate(-869 -664)">
		<circle id="타원_69" class="st0" cx="969" cy="764" r="80"/>
		<g id="타원_68" transform="translate(869 664)">
			<circle class="st1" cx="100" cy="100" r="100"/>
			<circle class="st2" cx="100" cy="100" r="99.5"/>
		</g>
	</g>
	<g id="그룹_3804" transform="translate(63 62.999)">
		<g>
			<defs>
				<rect id="SVGID_1_" y="0" width="75" height="74.9"/>
			</defs>
			<clipPath id="SVGID_00000124847410855439581990000009517349291074097852_">
				<use xlink:href="#SVGID_1_"  style="overflow:visible;"/>
			</clipPath>
			<g id="그룹_3803" style="clip-path:url(#SVGID_00000124847410855439581990000009517349291074097852_);">
				<path id="패스_3861" class="st4" d="M54.5,0c0.5,0.2,0.9,0.4,1.3,0.7c1.4,1.1,1.7,3.2,0.5,4.6c-0.3,0.3-0.6,0.6-1,0.8
					C55,6.3,54.8,6.6,54.9,7c0,2.1,0,4.3,0,6.4c-0.1,0.4,0.2,0.8,0.6,0.9c1.7,0.5,3.4,1.1,5.1,1.6c1.3,0.4,1.7,0.9,1.7,2.2
					c0,3.2,0,6.3,0,9.5c0,0.3,0,0.7-0.1,0.8c-0.3,0.3-0.6,0.5-1,0.6c-0.4-0.1-0.7-0.3-0.9-0.6c-0.1-0.3-0.2-0.6-0.1-0.9
					c0-2.9,0-5.9,0-8.8c0.1-0.4-0.2-0.7-0.5-0.8c0,0,0,0-0.1,0c-4-1.1-7.9-2.7-11.4-4.9c-3.6-2.3-7.9-3.3-12.2-3
					c-2.8,0.2-5.6,1.1-8,2.5c-3.9,2.4-8.1,4.2-12.5,5.4c-0.2,0-0.3,0.4-0.4,0.5c0,0,0,0.1,0,0.1c0,6.7,0,13.5,0,20.2
					c0,4.2,1.3,8.3,3.7,11.8c0.1,0.1,0.2,0.3,0.3,0.4c0.3,0.5,0.2,1.2-0.3,1.6c-0.5,0.3-1.1,0.2-1.5-0.2c0,0,0-0.1-0.1-0.1
					c-0.7-1.1-1.4-2.2-1.9-3.3c-1.7-3.5-2.5-7.3-2.5-11.1c0-0.9,0-1.8,0-2.8c-0.9,0-1.7,0-2.6,0c-0.2,0-0.3,0.2-0.4,0.4
					c-0.9,1.6-2.9,2.2-4.5,1.3C4,36.2,3.3,35,3.4,33.7c0.1-1.6,1.4-2.9,3-3c1.3-0.2,2.6,0.5,3.2,1.6c0.2,0.4,0.5,0.6,0.9,0.5
					c0.7,0,1.4,0,2.1,0v-6.2h-0.9c-1.2,0-2.5,0-3.7,0c-0.9-0.2-1.8,0.2-2.2,1c-0.8,1.1-2.4,1.5-3.7,1C0.7,28-0.1,26.6,0,25.2
					c0.1-1.4,1.1-2.5,2.4-2.9c1.4-0.4,2.9,0.2,3.6,1.4c0.2,0.5,0.8,0.7,1.3,0.7c1.7,0,3.5,0,5.3,0c0-0.3,0-0.6,0-0.8
					c0-1.9,0-3.7,0-5.6c-0.1-1,0.6-1.8,1.5-1.9c0,0,0,0,0,0c4.2-1.1,8.3-2.8,12-5c7.5-4.3,15-4.3,22.6-0.1c1.2,0.7,2.5,1.4,3.9,2.2
					c0-2.2,0-4.3,0-6.4c0-0.2-0.1-0.3-0.3-0.4c-1.2-0.6-2-1.9-1.8-3.2c0.1-1.4,1.1-2.6,2.4-3C52.9,0.1,53,0,53,0H54.5 M7.8,33.9
					c0-0.6-0.5-1.1-1.1-1.1c-0.6,0-1.1,0.5-1.1,1.1S6.1,35,6.7,35c0,0,0,0,0,0C7.3,35,7.8,34.5,7.8,33.9C7.8,34,7.8,33.9,7.8,33.9
					 M54.8,3.3c0-0.6-0.5-1-1.1-1s-1,0.5-1,1.1c0,0.6,0.5,1,1.1,1C54.3,4.4,54.8,3.9,54.8,3.3 M3.3,24.4c-0.6,0-1,0.5-1,1.1
					c0,0.6,0.5,1,1.1,1c0.6,0,1-0.5,1-1.1C4.4,24.9,3.9,24.4,3.3,24.4"/>
				<path id="패스_3862" class="st4" d="M75,35.9c-0.3,0.8-0.8,1.6-1.5,2.1c-1.5,1-3.5,0.5-4.5-1c0-0.1-0.1-0.1-0.1-0.2
					c-0.1-0.3-0.5-0.5-0.9-0.5c-1.8,0-3.7,0-5.5,0L62,42.5c0.9,0,1.9,0,2.9,0c0.2,0,0.4-0.3,0.5-0.5c0.6-1.1,1.9-1.7,3.2-1.6
					c1.4,0.1,2.5,1.1,2.8,2.4c0.5,1.6-0.3,3.3-1.9,3.9c-1.5,0.7-3.2,0.1-4.1-1.3c-0.2-0.4-0.7-0.7-1.2-0.6c-0.8,0-1.6,0-2.4,0
					c-0.2,0-0.4,0.2-0.6,0.4c-1.7,6.2-5.8,10.7-10.6,14.6c-3.7,3-7.8,5.4-12.3,7.1c-0.6,0.3-1.3,0.3-2,0c-3.1-1.2-6.1-2.8-8.9-4.7
					c-0.1-0.1-0.3-0.2-0.5-0.3v4.2c0,0.2,0,0.5,0,0.7c0,1-0.1,1.8,1,2.4c1.1,0.9,1.5,2.4,0.9,3.7c-0.6,1.4-1.9,2.2-3.4,2
					c-1.3-0.1-2.5-1.1-2.8-2.4c-0.4-1.4,0.2-2.9,1.4-3.6c0.5-0.2,0.8-0.7,0.7-1.3c0-2.2,0-4.4,0-6.7c0-0.5-0.2-1-0.7-1.3
					c-1.4-1.2-2.7-2.4-4.1-3.7c-0.5-0.3-0.6-1-0.3-1.5c0,0,0,0,0,0c0.4-0.6,1.2-0.6,1.8,0c1.7,1.5,3.3,3.1,5,4.4
					c3.1,2.4,6.6,4.4,10.3,5.8c0.3,0.1,0.6,0.1,0.9,0c6.8-2.6,12.9-7,17.5-12.7c2.6-3.2,4.2-7.1,4.5-11.1c0.2-2.4,0.1-4.9,0.2-7.3
					c0-0.1,0-0.3,0-0.4c0-0.9,0.4-1.5,1.2-1.5c0.7,0,1.1,0.5,1.1,1.4c0,0.3,0,0.5,0,0.9h1.5c1.4,0,2.8,0,4.2,0
					c0.3,0,0.5-0.2,0.7-0.4c0.6-1.2,1.9-1.9,3.2-1.8c1.4,0.1,2.6,1,2.9,2.4c0,0.1,0.1,0.1,0.1,0.2L75,35.9z M69.3,43.6
					c0-0.6-0.5-1.1-1.1-1.1c-0.6,0-1.1,0.5-1.1,1.1s0.5,1.1,1.1,1.1c0,0,0,0,0,0C68.9,44.7,69.3,44.2,69.3,43.6
					C69.3,43.6,69.3,43.6,69.3,43.6 M71.7,34.1c-0.6,0-1.1,0.5-1.1,1.1c0,0.6,0.5,1.1,1.1,1.1c0.6,0,1-0.5,1.1-1
					C72.7,34.6,72.3,34.1,71.7,34.1 M27,71.7c0-0.6-0.5-1.1-1.1-1c-0.6,0-1.1,0.5-1,1.1c0,0.6,0.5,1,1,1
					C26.5,72.7,26.9,72.3,27,71.7"/>
				<path id="패스_3863" class="st4" d="M57.8,30.1c0,3.2,0.1,6.4,0,9.6c-0.2,4.6-2.1,9-5.3,12.4c-3.9,4.2-8.6,7.7-13.9,10
					c-0.7,0.4-1.5,0.4-2.2,0c-5.6-2.5-10.7-6.2-14.7-10.9c-3.1-3.7-4.8-8.3-4.7-13.1c0-5.5,0-11.1,0-16.6c-0.1-1,0.5-1.9,1.5-2.1
					c1.9-0.7,3.7-1.5,5.6-2.3c0.9-0.4,1.4-0.3,1.8,0.4c0.3,0.7,0.1,1.2-0.8,1.6c-0.1,0.1-0.2,0.1-0.3,0.2c-1.6,0.7-3.2,1.4-4.8,2
					c-0.5,0.1-0.7,0.5-0.7,1c0,5,0.1,10,0,14.9c-0.3,5.7,2,11.1,6.2,14.9c3.3,3.2,7.2,5.9,11.4,7.8c0.3,0.1,0.7,0.2,1.1,0
					c5.4-2.4,10.2-6,13.9-10.5c2.4-2.8,3.7-6.4,3.7-10.1c0.1-5.7,0-11.5,0.1-17.2c0.1-0.4-0.2-0.7-0.6-0.8c-3.3-1.1-6.4-2.6-9.4-4.4
					c-4.9-3.1-11.1-3.2-16.1-0.2c-0.8,0.4-1.4,0.4-1.8-0.3c-0.4-0.6-0.1-1.2,0.7-1.7c5.8-3.3,11.7-3.4,17.6-0.2
					c3.4,2,6.9,3.6,10.6,4.9c0.9,0.2,1.4,1.1,1.3,2C57.9,24.3,57.9,27.2,57.8,30.1L57.8,30.1"/>
				<path id="패스_3864" class="st4" d="M32,32.9c0-0.7,0-1.5,0-2.2c0.2-3,2.7-5.4,5.8-5.2c3,0.2,5.4,2.7,5.2,5.8l0,0
					c0,0.5,0,1.1,0,1.6c0.2,0,0.4,0.1,0.6,0.1c1.4,0.1,2.4,1.3,2.3,2.7c0,2.9,0,5.7,0,8.6c0.1,1.4-1,2.6-2.4,2.7c-0.1,0-0.2,0-0.2,0
					c-3.9,0-7.7,0-11.6,0c-1.4,0.1-2.6-1.1-2.7-2.5c0-0.1,0-0.2,0-0.2c0-2.9,0-5.7,0-8.6C29,34.1,30,33.2,32,32.9 M37.4,44.7
					c1.8,0,3.7,0,5.5,0c0.6,0,0.8-0.2,0.8-0.8c0-2.7,0-5.3,0-8c0-0.5-0.1-0.7-0.7-0.7c-3.7,0-7.3,0-11,0c-0.5,0-0.7,0.2-0.7,0.7
					c0,2.7,0,5.4,0,8c0,0.6,0.2,0.7,0.7,0.7C33.8,44.7,35.6,44.7,37.4,44.7 M40.7,32.9c0-0.7,0-1.3,0-2c-0.1-1.8-1.6-3.2-3.3-3.1
					c-0.3,0-0.6,0.1-0.8,0.1c-2.1,0.7-2.6,2.5-2.2,4.9L40.7,32.9z"/>
				<path id="패스_3865" class="st4" d="M37.4,35.6c1.5,0,2.8,0.9,3.2,2.4c0.4,1.4-0.2,3-1.5,3.7c-0.4,0.2-0.7,0.6-0.6,1
					c0,0.2,0,0.4,0,0.7c0,0.6-0.5,1-1.1,1c0,0,0,0,0,0c-0.5,0-1-0.3-1-0.9c0,0,0-0.1,0-0.1c0.1-0.9-0.4-1.7-1.1-2.1
					c-1.1-0.9-1.4-2.3-0.9-3.6C34.9,36.4,36.1,35.6,37.4,35.6 M37.5,37.8c-0.6,0-1.1,0.4-1.1,1s0.4,1.1,1,1.1s1.1-0.4,1.1-1
					c0,0,0,0,0-0.1C38.5,38.3,38.1,37.8,37.5,37.8"/>
			</g>
		</g>
	</g>
</g>
</svg>
