<svg xmlns="http://www.w3.org/2000/svg" xmlns:xlink="http://www.w3.org/1999/xlink" width="76.043" height="81.91" viewBox="0 0 76.043 81.91"><defs><clipPath id="a"><rect width="76.043" height="81.91" fill="#fff"/></clipPath></defs><g clip-path="url(#a)"><path d="M32.144,0a30.744,30.744,0,0,1,4.478,1.347C42.03,3.886,45.2,8.193,45.535,14.164a84.236,84.236,0,0,1-.081,12c-.3,4.71-2.8,8.354-6.7,10.989a1.63,1.63,0,0,0-.768,1.319c-.262,1.732.446,2.576,2,3.331,4.369,2.116,8.723,4.3,12.912,6.743,5.086,2.97,7.622,7.621,7.9,13.5a2.654,2.654,0,0,1-.045.391H57.044c-.1-.743-.156-1.5-.3-2.245a12.181,12.181,0,0,0-6.615-8.854c-4.223-2.214-8.462-4.4-12.6-6.545a27.627,27.627,0,0,1-2.308,2.583,8.48,8.48,0,0,1-2.286,1.315c-.46.2-.631.384-.625.881.026,2.048.011,4.1.011,6.144v1.019H28.5v-1.49c0-1.87.016-3.74-.018-5.61-.005-.287-.183-.753-.389-.826a7.842,7.842,0,0,1-4.566-4.058c-.221.1-.434.172-.633.275-4.05,2.1-8.112,4.171-12.145,6.3A12.177,12.177,0,0,0,3.857,62.544c-.112,7.419-.028,7.7-.027,15.126a3.138,3.138,0,0,0,.044.338H9.5v-9.46h3.847v9.512H37.959v3.85H2.51c-1.839,0-2.5-.656-2.5-2.521C0,71.522,0,70.793,0,62.927a15.9,15.9,0,0,1,5.25-12.372,24.429,24.429,0,0,1,4.714-3.132c3.983-2.159,8.026-4.207,12.063-6.266a1.345,1.345,0,0,0,.795-1.294,3.4,3.4,0,0,0-1.633-3.423,14.216,14.216,0,0,1-5.947-11.68c-.076-3.976-.038-5.814-.011-9.791A15.147,15.147,0,0,1,28.191.168,1.64,1.64,0,0,0,28.582,0h3.562m9.622,22.943c-2.625-.32-5.161-.547-7.667-.957a16.335,16.335,0,0,1-7.074-2.776c-.595.519-1.1,1.028-1.667,1.442a11.341,11.341,0,0,1-5.452,1.967c-.4.047-.871-.01-.854.632a16.469,16.469,0,0,0,.133,2.838,11.374,11.374,0,0,0,21.448,3.395c1.42-2.783,1.138-3.613,1.133-6.54m.094-4.03c-.087-1.947-.026-3.82-.28-5.65A11.264,11.264,0,0,0,28.474,4.013c-7.389,1.519-10.3,7.705-9.275,14.861.431-.085.862-.164,1.289-.257,2.232-.488,3.988-1.461,4.368-4.01a1.841,1.841,0,0,1,3.517-.071,2.858,2.858,0,0,0,1.779,2.071,26.912,26.912,0,0,0,4.068,1.461,31.542,31.542,0,0,0,7.64.846M26.545,39.157a28.716,28.716,0,0,0,.262,3.319,3.723,3.723,0,0,0,7.181.16,24.21,24.21,0,0,0,.273-3.448,15.653,15.653,0,0,1-7.717-.031" transform="translate(0)" fill="#fff"/><path d="M251.339,346.34q7.341,0,14.682,0c1.679,0,2.4.672,2.4,2.349.016,6.022.015,8.476,0,14.5,0,1.694-.711,2.376-2.376,2.376q-14.727,0-29.453,0c-1.7,0-2.418-.715-2.419-2.438,0-5.963,0-8.357,0-14.32,0-1.769.708-2.465,2.481-2.466q7.341,0,14.682,0m13.235,3.9H238.1v11.446h26.471Z" transform="translate(-192.392 -284.546)" fill="#fff"/><rect width="3.681" height="3.795" transform="translate(57.078 69.517)" fill="#fff"/></g></svg>