<?xml version="1.0" encoding="utf-8"?>
<!-- Generator: Adobe Illustrator 26.5.0, SVG Export Plug-In . SVG Version: 6.00 Build 0)  -->
<svg version="1.1" id="Layer_1" xmlns="http://www.w3.org/2000/svg" xmlns:xlink="http://www.w3.org/1999/xlink" x="0px" y="0px"
	 width="200px" height="200px" viewBox="0 0 200 200" style="enable-background:new 0 0 200 200;" xml:space="preserve">
<style type="text/css">
	.st0{fill:#EAEDF8;}
	.st1{clip-path:url(#SVGID_00000022539425200255275030000015354287863555734405_);}
	.st2{fill:#0F249A;}
	.st3{fill:none;}
	.st4{fill:none;stroke:#0F249A;}
</style>
<g>
	<circle id="타원_67" class="st0" cx="100" cy="100" r="80"/>
	<g id="그룹_3802" transform="translate(66.024 66.285)">
		<g>
			<defs>
				<rect id="SVGID_1_" x="0" y="0" width="67.7" height="67.7"/>
			</defs>
			<clipPath id="SVGID_00000093154183632905934260000000038364209666674108_">
				<use xlink:href="#SVGID_1_"  style="overflow:visible;"/>
			</clipPath>
			<g id="그룹_3801" style="clip-path:url(#SVGID_00000093154183632905934260000000038364209666674108_);">
				<path id="패스_3858" class="st2" d="M36.5,0c2.4,2.4,4.8,4.7,7.1,7.1C43.9,7.3,44,7.7,44,8c0,5.9,0,11.9,0,17.8
					c0.1,0.6-0.3,1.2-0.9,1.2c-0.1,0-0.2,0-0.3,0c-2.3,0-4.6,0-6.9,0H35v13.8c1.1,0.3,2.2,0.7,3.3,1c7.5,2.2,14.9,4.3,22.4,6.5
					c1.1,0.3,1.3,0.6,1.3,1.7c0,2.7,0,5.5,0,8.2c0,0.9-0.2,1.2-1.1,1.5c-8.9,2.6-17.8,5.2-26.6,7.8c-0.3,0.1-0.7,0.1-1,0
					c-8.8-2.6-17.6-5.1-26.4-7.7c-1.1-0.3-1.2-0.5-1.2-1.7c0-2.7,0-5.4,0-8.1c0-1.2,0.1-1.4,1.3-1.7l25.2-7.3
					c0.2-0.1,0.4-0.1,0.6-0.2V27.1h-0.8c-2.3,0-4.6,0-6.9,0c-0.9,0-1.3-0.4-1.3-1.3c0-8.1,0-16.3,0-24.4c0-0.5,0.3-1.1,0.7-1.3H36.5
					z M32.7,49.2v-5.9l-21.5,6.3c0.1,0.1,0.2,0.2,0.3,0.2c7.2,2.1,14.5,4.2,21.7,6.3c0.5,0.1,1,0.1,1.4,0c7.1-2.1,14.3-4.1,21.4-6.2
					c0.2-0.1,0.4-0.1,0.6-0.2l0-0.1L35,43.3V49l0.2,0.1l2.3-2.4l1.6,1.5c-1.5,1.5-3,3.1-4.5,4.6c-0.4,0.4-1.1,0.4-1.5,0
					c0,0-0.1-0.1-0.1-0.1c-0.7-0.6-1.3-1.3-1.9-1.9c-0.8-0.8-1.7-1.6-2.4-2.4l1.7-1.8L32.7,49.2 M26,2.3v22.5h15.7V9.1
					c-0.1,0-0.1,0-0.2-0.1c-1.7,0-3.4,0-5.1,0C35.3,9,35,8.7,35,7.5c0-1.7,0-3.5,0-5.2L26,2.3z M32.7,65c0-2.1,0-4.1,0-6.1
					c0-0.5-0.2-0.6-0.6-0.7c-6.8-2-13.5-3.9-20.3-5.9l-3.9-1.1v6.6L32.7,65 M59.8,57.8v-6.6L35,58.4V65L59.8,57.8 M39.8,6.7
					l-2.5-2.6v2.6H39.8z"/>
				<path id="패스_3859" class="st2" d="M12.8,0c2.4,2.4,4.8,4.7,7.1,7.1c0.2,0.3,0.3,0.6,0.3,1c0,5.9,0,11.8,0,17.8
					c0.1,0.6-0.3,1.2-0.9,1.3c-0.1,0-0.2,0-0.3,0c-2.3,0-4.7,0-7,0h-0.8c0,1.9,1.5,3.4,3.4,3.4c0,0,0,0,0,0c1.2,0,2.3,0,3.5,0
					c3,0.1,5.4,2.5,5.5,5.5c0,0.6,0,1.2,0,1.8l2.5-2.6l1.6,1.8c-0.1,0.1-0.1,0.2-0.2,0.2c-1.3,1.3-2.7,2.7-4,4c-0.7,0.7-1.3,0.7-2,0
					c-1.4-1.4-2.9-2.8-4.3-4.3l1.7-1.5l2.2,2.4l0.3-0.1c0-0.9-0.1-1.7-0.2-2.5c-0.4-1.5-1.8-2.4-3.3-2.4c-1,0-2-0.1-3,0
					c-3.2,0.2-5.9-2.3-6-5.4c0-0.1,0-0.2,0-0.2H8.2c-2.2,0-4.4,0-6.6,0c-0.6,0.1-1.2-0.2-1.6-0.7V0H12.8z M2.3,24.8H18V9
					c-1.9,0-3.7,0-5.5,0c-0.6,0.1-1.2-0.3-1.3-0.9c0-0.1,0-0.2,0-0.3c0-0.6,0-1.2,0-1.8V2.3h-9L2.3,24.8z M13.6,4.1v2.6h2.6
					L13.6,4.1"/>
				<path id="패스_3860" class="st2" d="M60.2,0c2.4,2.4,4.8,4.7,7.1,7.1c0.2,0.2,0.3,0.6,0.3,0.9c0,5.9,0,11.9,0,17.8
					c0.1,0.6-0.3,1.2-0.9,1.2c-0.1,0-0.2,0-0.3,0c-2.3,0-4.6,0-6.9,0h-0.8c-0.1,0.6-0.2,1.1-0.3,1.6c-0.7,2.4-2.9,4.1-5.4,4
					c-1.1,0-2.2,0-3.2,0c-1.9-0.1-3.5,1.4-3.5,3.3c0,0.1,0,0.1,0,0.2c0,0.5,0,1,0,1.7l2.5-2.7l1.6,1.9c-0.5,0.5-1.1,1-1.7,1.6
					c-0.9,0.9-1.8,1.8-2.6,2.6c-0.4,0.5-1.1,0.6-1.5,0.2c-0.1,0-0.1-0.1-0.1-0.1c-1.5-1.5-3-3-4.5-4.5l1.6-1.5l2.3,2.4l0.2-0.1
					c0-0.2,0-0.5,0-0.7c-0.4-3.2,1.8-6.1,5-6.6c0.5-0.1,1.1-0.1,1.6,0c0.8,0.1,1.6,0.1,2.5,0c1.9,0,3.3-1.5,3.3-3.4h-0.8
					c-2.3,0-4.6,0-6.9,0c-0.9,0-1.3-0.4-1.3-1.3c0-8.1,0-16.3,0-24.4c0-0.5,0.3-1.1,0.7-1.3H60.2z M49.7,2.3v22.5h15.7V9
					c-1.8,0-3.5,0-5.2,0c-1.2,0-1.5-0.3-1.5-1.5c0-1.7,0-3.5,0-5.2L49.7,2.3z M60.9,6.7h2.5l-2.5-2.5V6.7z"/>
				<rect id="사각형_1917" x="28.2" y="11.3" class="st2" width="11.2" height="2.2"/>
				<rect id="사각형_1918" x="28.2" y="15.8" class="st2" width="11.2" height="2.2"/>
				<rect id="사각형_1919" x="28.3" y="6.8" class="st2" width="4.4" height="2.2"/>
				<rect id="사각형_1920" x="28.2" y="20.4" class="st2" width="2.2" height="2.2"/>
				<rect id="사각형_1921" x="32.8" y="20.3" class="st2" width="2.2" height="2.2"/>
				<rect id="사각형_1922" x="37.3" y="20.4" class="st2" width="2.2" height="2.2"/>
				<rect id="사각형_1923" x="4.5" y="11.3" class="st2" width="11.2" height="2.2"/>
				<rect id="사각형_1924" x="4.5" y="15.8" class="st2" width="11.2" height="2.2"/>
				<rect id="사각형_1925" x="4.6" y="20.3" class="st2" width="11.2" height="2.2"/>
				<rect id="사각형_1926" x="4.5" y="6.8" class="st2" width="4.4" height="2.2"/>
				<rect id="사각형_1927" x="52" y="11.3" class="st2" width="11.2" height="2.2"/>
				<rect id="사각형_1928" x="52" y="15.8" class="st2" width="11.2" height="2.2"/>
				<rect id="사각형_1929" x="52" y="20.4" class="st2" width="11.2" height="2.2"/>
				<rect id="사각형_1930" x="51.9" y="6.8" class="st2" width="4.4" height="2.2"/>
			</g>
		</g>
	</g>
	<g id="타원_66">
		<circle class="st3" cx="100" cy="100" r="100"/>
		<circle class="st4" cx="100" cy="100" r="99.5"/>
	</g>
</g>
</svg>
