<svg id="그룹_3558" data-name="그룹 3558" xmlns="http://www.w3.org/2000/svg" xmlns:xlink="http://www.w3.org/1999/xlink" width="187.32" height="16.967" viewBox="0 0 187.32 16.967">
  <defs>
    <clipPath id="clip-path">
      <rect id="사각형_1653" data-name="사각형 1653" width="187.32" height="16.966" fill="none"/>
    </clipPath>
    <clipPath id="clip-path-2">
      <path id="패스_3440" data-name="패스 3440" d="M103.777,0V7.427a6.671,6.671,0,0,0,4.911,6.29,6.677,6.677,0,0,0,4.914-6.29V0Z" transform="translate(-103.777)" fill="none"/>
    </clipPath>
    <radialGradient id="radial-gradient" cx="-0.124" cy="-0.067" r="0.96" gradientTransform="matrix(1.396, 0, 0, -1, 2.173, 2.474)" gradientUnits="objectBoundingBox">
      <stop offset="0" stop-color="#69b5e6"/>
      <stop offset="0.074" stop-color="#49a3dc"/>
      <stop offset="0.209" stop-color="#1487cc"/>
      <stop offset="0.275" stop-color="#007cc6"/>
      <stop offset="1" stop-color="#00287a"/>
    </radialGradient>
  </defs>
  <path id="패스_3420" data-name="패스 3420" d="M134.333,19.638v1.384h5.845v2.4h2.15v-2.4h4.6V19.638Z" transform="translate(-64.54 -9.435)" fill="#00287a"/>
  <g id="그룹_3553" data-name="그룹 3553" transform="translate(0 0)">
    <g id="그룹_3552" data-name="그룹 3552" clip-path="url(#clip-path)">
      <path id="패스_3421" data-name="패스 3421" d="M140.2,23.867h-2.149v3.489a.616.616,0,0,0,.629.6h8.826V26.574h-7.3Z" transform="translate(-66.327 -11.467)" fill="#00287a"/>
      <path id="패스_3422" data-name="패스 3422" d="M170,19.987a3.428,3.428,0,0,0-3.577,3.243,3.6,3.6,0,0,0,7.157,0A3.429,3.429,0,0,0,170,19.987m0,5.055a1.831,1.831,0,1,1,1.565-1.812A1.706,1.706,0,0,1,170,25.042" transform="translate(-79.96 -9.603)" fill="#00287a"/>
      <path id="패스_3423" data-name="패스 3423" d="M138.681,12.512l8.487,0V6.617H145.02V8.6H140.2V6.617h-2.149v5.3a.615.615,0,0,0,.628.6M140.2,9.984h4.818v1.145H140.2Z" transform="translate(-66.328 -3.179)" fill="#00287a"/>
      <path id="패스_3424" data-name="패스 3424" d="M171.556,5.721h-2.15v4.615a9.8,9.8,0,0,1-3.872.739h-2.149V7.566h4.647V6.187h-6.8l0,5.669a.618.618,0,0,0,.631.6l3.682,0a10.061,10.061,0,0,0,3.861-.722v1.689h2.15V9.955h2.082V8.574h-2.082Z" transform="translate(-77.464 -2.749)" fill="#00287a"/>
      <path id="패스_3425" data-name="패스 3425" d="M322.721,5.714V7.426h-1.7V6.18h-2.145V7.966h-2.7V6.18h-2.144v5.661a.615.615,0,0,0,.633.6l6.353,0V11.024h1.7v2.084h2.146V5.714h-2.146Zm-3.842,5.343h-2.7V9.343h2.7Zm3.842-1.412h-1.7v-.84h1.7Z" transform="translate(-150.88 -2.745)" fill="#00287a"/>
      <path id="패스_3426" data-name="패스 3426" d="M323.8,19.952a3.423,3.423,0,0,0-3.573,3.238,3.589,3.589,0,0,0,7.143,0,3.423,3.423,0,0,0-3.57-3.238m0,5.045a1.826,1.826,0,1,1,1.562-1.806A1.7,1.7,0,0,1,323.8,25" transform="translate(-153.854 -9.586)" fill="#00287a"/>
      <path id="패스_3427" data-name="패스 3427" d="M202.734,5.707V9.872h-2.067v1.383h2.067v8.2h2.151V5.707Z" transform="translate(-96.411 -2.742)" fill="#00287a"/>
      <path id="패스_3428" data-name="패스 3428" d="M283.9,9.263h-2.08V5.708h-2.15v7.707h2.15v-2.77h2.08Z" transform="translate(-134.367 -2.742)" fill="#00287a"/>
      <path id="패스_3429" data-name="패스 3429" d="M298.536,14.78h2.149V7.2h-9.521V8.58h7.371Z" transform="translate(-139.891 -3.458)" fill="#00287a"/>
      <path id="패스_3430" data-name="패스 3430" d="M295.9,16.807h-2.15v4.9h-.81v-4.9h-2.15v4.9h-3.309v1.384h12.809V21.7H295.9Z" transform="translate(-138.119 -8.075)" fill="#00287a"/>
      <path id="패스_3431" data-name="패스 3431" d="M267.772,22.355v1.382h6.18v3.719h2.15v-5.1Z" transform="translate(-128.652 -10.741)" fill="#00287a"/>
      <path id="패스_3432" data-name="패스 3432" d="M269.748,9.756a2.971,2.971,0,0,0-.693-1.894h1.58V6.481H267.38V4.753h-2.152V6.481H261.97v1.38h1.514a2.972,2.972,0,0,0-.694,1.894,3.494,3.494,0,0,0,6.958,0m-4.921,0a1.483,1.483,0,1,1,2.878,0,1.484,1.484,0,1,1-2.878,0" transform="translate(-125.864 -2.284)" fill="#00287a"/>
      <path id="패스_3433" data-name="패스 3433" d="M191.532,10.354v0a10.655,10.655,0,0,1-.3-2.439V6.719h-2.283V7.913a10.7,10.7,0,0,1-.3,2.439,9.172,9.172,0,0,1-3.118,4.508l-.073.063,1.056.96.055-.04a11.759,11.759,0,0,0,3.524-3.734,11.784,11.784,0,0,0,3.521,3.734l.057.04,1.055-.96-.072-.063a9.191,9.191,0,0,1-3.116-4.507" transform="translate(-89.102 -3.228)" fill="#00287a"/>
      <path id="패스_3434" data-name="패스 3434" d="M246.768,5.707V9.871h-.652V5.707h-2.149V12.07a10.035,10.035,0,0,1-3.631.641h-.217V7.555h2.813V6.174h-4.964V13.49a.615.615,0,0,0,.63.6h1.75a10.317,10.317,0,0,0,3.619-.622v5.991h2.149v-8.2h.652v8.2h2.149V5.707Z" transform="translate(-114.332 -2.742)" fill="#00287a"/>
      <path id="패스_3435" data-name="패스 3435" d="M211.091,17.3v1.384h5.4v.871h-3.652v1.384h7.069V21.6h-7.069v2.828a.616.616,0,0,0,.627.6h8.825V23.645h-7.076v-.662h7.078v-3.43h-3.653v-.871h5.4V17.3Z" transform="translate(-101.419 -8.312)" fill="#00287a"/>
      <path id="패스_3436" data-name="패스 3436" d="M219.729,10.654c2.283,0,4.139-1.465,4.139-3.257s-1.856-3.253-4.139-3.253-4.142,1.461-4.142,3.253,1.858,3.257,4.142,3.257m0-5.174a1.86,1.86,0,0,1,1.79,1.917,1.8,1.8,0,1,1-3.584,0,1.865,1.865,0,0,1,1.794-1.917" transform="translate(-103.579 -1.992)" fill="#00287a"/>
      <path id="패스_3437" data-name="패스 3437" d="M347.629,5.714V11.97h-9.486v1.382h2.847v1.3h2.15v-1.3h4.489v.562h-2.01V15.3h2.01v1.277h2.152V5.714Z" transform="translate(-162.462 -2.745)" fill="#00287a"/>
      <path id="패스_3438" data-name="패스 3438" d="M345.771,24.117H343.62v3.6a.617.617,0,0,0,.631.6h8.162V26.929h-6.641Z" transform="translate(-165.093 -11.587)" fill="#00287a"/>
      <path id="패스_3439" data-name="패스 3439" d="M343.336,11.256a3.416,3.416,0,0,0,3.571-3.232,3.583,3.583,0,0,0-7.132,0,3.415,3.415,0,0,0,3.561,3.232m.005-5.08a1.7,1.7,0,0,1,1.491,1.848,1.523,1.523,0,1,1-2.977,0,1.7,1.7,0,0,1,1.486-1.848" transform="translate(-163.246 -2.302)" fill="#00287a"/>
    </g>
  </g>
  <g id="그룹_3555" data-name="그룹 3555" transform="translate(53.917)">
    <g id="그룹_3554" data-name="그룹 3554" clip-path="url(#clip-path-2)">
      <rect id="사각형_1654" data-name="사각형 1654" width="9.826" height="13.717" transform="translate(0 0)" fill="url(#radial-gradient)"/>
    </g>
  </g>
  <g id="그룹_3557" data-name="그룹 3557" transform="translate(0 0)">
    <g id="그룹_3556" data-name="그룹 3556" clip-path="url(#clip-path)">
      <path id="패스_3441" data-name="패스 3441" d="M107.679,12.22l1.471-1.486,1.457,1.458h1.926V7.97H113.8V6.432h-1.263V5.977H113.8V4.562h-1.307V2.752h-4.061v1.4h2.478v6.084l-1.763-1.745-2.6,2.6Z" transform="translate(-51.191 -1.322)" fill="#fff"/>
      <path id="패스_3442" data-name="패스 3442" d="M62.091,5.458H59.1v8.994c0,2.308-.391,3.479-2.528,3.479-2.059,0-2.462-1.276-2.462-3.479V5.458h-3.1V14.6c0,2.592.673,4.988,5.558,4.988,4.943,0,5.625-2.4,5.625-4.988V5.458Z" transform="translate(-24.511 -2.622)" fill="#00287a"/>
      <path id="패스_3443" data-name="패스 3443" d="M84.771,19.37h3.1V5.458h-3.1v5.761H79.715V5.458h-3.1V19.37h3.1V13.136h5.056Z" transform="translate(-36.812 -2.623)" fill="#007cc6"/>
      <path id="패스_3444" data-name="패스 3444" d="M33.25,5.458V14.8c-.382-.656-5.423-9.338-5.423-9.338H24.51V19.369h2.882s0-9.1,0-9.835c.382.659,5.709,9.835,5.709,9.835h3.032V5.458H33.25Z" transform="translate(-11.776 -2.622)" fill="#00287a"/>
      <path id="패스_3445" data-name="패스 3445" d="M6.474,10.683C4.7,9.912,3.164,9.245,3.164,8.116c0-.784.865-1.321,2.151-1.312a13.939,13.939,0,0,1,4.708.991l.174.072V5.457l-.057-.009a29.591,29.591,0,0,0-4.389-.411C2.151,5.037,0,6.4,0,8.673c0,2.406,2.394,3.5,4.507,4.462,1.747.8,3.4,1.55,3.4,2.913,0,1.464-2.235,1.525-2.49,1.525A10.991,10.991,0,0,1,.45,16.162L.267,16.07v2.677l.214.048a20.023,20.023,0,0,0,4.424.591c4.189,0,6.4-1.444,6.4-4.174,0-2.43-2.568-3.545-4.833-4.529" transform="translate(0 -2.42)" fill="#00287a"/>
    </g>
  </g>
</svg>
