<svg xmlns="http://www.w3.org/2000/svg" width="1161.5" height="169.946" viewBox="0 0 1161.5 169.946"><g transform="translate(-378.5 -1811.036)"><path d="M-45.78-7.1a28.5,28.5,0,0,1-4.928.49v-4.48h-1.848v6.02h1.092a29.79,29.79,0,0,0,5.894-.546Zm-3.724,4.7h4.774v2H-49.5Zm-1.82,3.444h8.4V-3.836h-8.4ZM-41.216-8.974h-1.708V-11.69h-1.848v7.252h1.848V-7.462h1.708Zm5.754.042H-32.9v-1.526h-7.084v1.526h2.674v.714a6.077,6.077,0,0,1-3.164,5.53l1.036,1.47a6.3,6.3,0,0,0,3.08-3.794,6.025,6.025,0,0,0,3.01,3.472L-32.326-3a5.768,5.768,0,0,1-3.136-5.222Zm7.238,2.156H-30.1V-11.69h-1.848V1.2H-30.1V-5.25h1.876ZM-23.59,0h6.23V-1.666h-1.946v-8.708h-1.526a6.463,6.463,0,0,1-2.408.882v1.274h1.876v6.552H-23.59Zm10.934.2c1.974,0,3.64-1.106,3.64-3.01a2.591,2.591,0,0,0-2.058-2.548v-.07A2.459,2.459,0,0,0-9.352-7.8c0-1.764-1.358-2.758-3.36-2.758A4.6,4.6,0,0,0-15.82-9.282l1.05,1.26a2.816,2.816,0,0,1,1.96-.91,1.222,1.222,0,0,1,1.386,1.288c0,.924-.616,1.582-2.52,1.582v1.47c2.254,0,2.856.644,2.856,1.652,0,.938-.714,1.456-1.764,1.456a3.291,3.291,0,0,1-2.31-1.064l-.966,1.3A4.4,4.4,0,0,0-12.656.2ZM-2.94-5.866H-5.46v-3.3h2.52Zm1.82-4.76H-7.266V-4.41H-1.12Zm-2.842,7.42H-5.81V.98H2.968V-.49h-6.93Zm6.468-4.76V-11.69H.658v9.408H2.506V-6.454H4.214V-7.966Zm7.6,3.71,1.61-2.576c.294-.56.574-1.134.826-1.694H12.6c-.028.616-.07,1.554-.07,2.156v2.114ZM12.53,0h1.918V-2.688h1.218V-4.256H14.448v-6.118H11.97L8.106-4.088v1.4H12.53Zm4.676,0h6.23V-1.666H21.49v-8.708H19.964a6.463,6.463,0,0,1-2.408.882v1.274h1.876v6.552H17.206ZM28.42.2c2.1,0,3.486-1.2,3.486-2.772A3.013,3.013,0,0,0,30.17-5.348v-.07A3.018,3.018,0,0,0,31.5-7.784a2.719,2.719,0,0,0-3.01-2.758c-1.792,0-3.122,1.064-3.122,2.73A2.951,2.951,0,0,0,26.74-5.348v.07a3,3,0,0,0-1.778,2.7C24.962-.952,26.446.2,28.42.2Zm.658-6.118c-1.092-.434-1.89-.91-1.89-1.89A1.2,1.2,0,0,1,28.448-9.1,1.32,1.32,0,0,1,29.82-7.658,2.481,2.481,0,0,1,29.078-5.922Zm-.6,4.662A1.588,1.588,0,0,1,26.74-2.8a2.491,2.491,0,0,1,.952-1.918c1.344.546,2.3.994,2.3,2.072A1.352,1.352,0,0,1,28.476-1.26ZM36.68.2c2.114,0,3.5-1.848,3.5-5.418s-1.386-5.334-3.5-5.334-3.514,1.75-3.514,5.334S34.566.2,36.68.2Zm0-1.61c-.9,0-1.568-.9-1.568-3.808S35.784-8.96,36.68-8.96s1.554.84,1.554,3.738S37.576-1.414,36.68-1.414ZM46.2-6.286H43.75V-9.3H46.2Zm4.13-2.072v1.106H48.006V-8.358ZM48.006-5.782H50.33V-4.13h1.848v-7.56H50.33v1.862H48.006v-.938H41.93V-4.83h6.076ZM47.81-.21c-1.68,0-2.562-.35-2.562-1.092s.882-1.092,2.562-1.092,2.576.35,2.576,1.092S49.5-.21,47.81-.21Zm0-3.6c-2.73,0-4.41.924-4.41,2.506S45.08,1.2,47.81,1.2,52.234.28,52.234-1.3,50.554-3.808,47.81-3.808Z" transform="translate(565 1978)" fill="#94aad8"/><path d="M-46.158-8.358v1.5h2.016v4.578h1.848V-11.69h-1.848v3.332ZM-45.3-5.39a3.968,3.968,0,0,1-2.912-3.794v-.168h2.506v-1.47h-6.93v1.47h2.534v.182a4.144,4.144,0,0,1-3.038,4l.938,1.47a5.067,5.067,0,0,0,3.08-2.8A4.808,4.808,0,0,0-46.2-3.948Zm-3.64,4.9V-3.066h-1.848V.98H-42V-.49ZM-36.19-8.05h1.974V-9.534H-36.19V-11.27h-1.75v1.736h-2.016V-8.05h2.016v.266A5.764,5.764,0,0,1-40.432-2.6L-39.4-1.218a5.442,5.442,0,0,0,2.352-3.164,5.113,5.113,0,0,0,2.338,2.856l.994-1.372A5.229,5.229,0,0,1-36.19-7.784Zm2.7,1.232h-1.47v1.5h1.47V.616h1.722v-12.1h-1.722Zm2.6-4.886V1.19h1.75V-11.7ZM-24.136,0h6.944V-1.736h-2.24c-.49,0-1.176.056-1.694.112,1.89-1.848,3.444-3.864,3.444-5.74a3.039,3.039,0,0,0-3.262-3.192,4.159,4.159,0,0,0-3.29,1.568l1.12,1.12a2.711,2.711,0,0,1,1.9-1.064,1.48,1.48,0,0,1,1.554,1.68c0,1.6-1.666,3.542-4.48,6.062Zm11.508.2A3.5,3.5,0,0,0-9-3.444a3.008,3.008,0,0,0-3.192-3.29,2.721,2.721,0,0,0-1.246.294l.2-2.2h3.766v-1.736h-5.544l-.28,5.04.938.616a2.479,2.479,0,0,1,1.554-.546,1.677,1.677,0,0,1,1.75,1.876,1.74,1.74,0,0,1-1.834,1.9,3.22,3.22,0,0,1-2.282-1.05l-.952,1.316A4.722,4.722,0,0,0-12.628.2ZM-2.94-5.866H-5.46v-3.3h2.52Zm1.82-4.76H-7.266V-4.41H-1.12Zm-2.842,7.42H-5.81V.98H2.968V-.49h-6.93Zm6.468-4.76V-11.69H.658v9.408H2.506V-6.454H4.214V-7.966Zm7.6,3.71,1.61-2.576c.294-.56.574-1.134.826-1.694H12.6c-.028.616-.07,1.554-.07,2.156v2.114ZM12.53,0h1.918V-2.688h1.218V-4.256H14.448v-6.118H11.97L8.106-4.088v1.4H12.53Zm6.132,0h2.086c.168-4.06.49-6.174,2.9-9.114v-1.26H16.758v1.736H21.42C19.446-5.894,18.844-3.6,18.662,0Zm6.79,0h6.23V-1.666H29.736v-8.708H28.21a6.463,6.463,0,0,1-2.408.882v1.274h1.876v6.552H25.452ZM36.666.2c2.1,0,3.486-1.2,3.486-2.772a3.013,3.013,0,0,0-1.736-2.772v-.07a3.018,3.018,0,0,0,1.33-2.366,2.719,2.719,0,0,0-3.01-2.758c-1.792,0-3.122,1.064-3.122,2.73a2.951,2.951,0,0,0,1.372,2.464v.07a3,3,0,0,0-1.778,2.7C33.208-.952,34.692.2,36.666.2Zm.658-6.118c-1.092-.434-1.89-.91-1.89-1.89A1.2,1.2,0,0,1,36.694-9.1a1.32,1.32,0,0,1,1.372,1.442A2.481,2.481,0,0,1,37.324-5.922Zm-.6,4.662A1.588,1.588,0,0,1,34.986-2.8a2.491,2.491,0,0,1,.952-1.918c1.344.546,2.3.994,2.3,2.072A1.352,1.352,0,0,1,36.722-1.26ZM46.2-6.286H43.75V-9.3H46.2Zm4.13-2.072v1.106H48.006V-8.358ZM48.006-5.782H50.33V-4.13h1.848v-7.56H50.33v1.862H48.006v-.938H41.93V-4.83h6.076ZM47.81-.21c-1.68,0-2.562-.35-2.562-1.092s.882-1.092,2.562-1.092,2.576.35,2.576,1.092S49.5-.21,47.81-.21Zm0-3.6c-2.73,0-4.41.924-4.41,2.506S45.08,1.2,47.81,1.2,52.234.28,52.234-1.3,50.554-3.808,47.81-3.808Z" transform="translate(763 1978)" fill="#111"/><path d="M-42.175-5.054A7.371,7.371,0,0,0-42.091-6.2a7.035,7.035,0,0,0-.126-1.372h2.24v2.52Zm-3.248,1.792c-.938,0-1.582-1.022-1.582-2.94s.644-2.926,1.582-2.926,1.6,1.022,1.6,2.926S-44.471-3.262-45.423-3.262Zm5.446-8.442v2.646h-2.744a2.987,2.987,0,0,0-2.7-1.736c-1.918,0-3.332,1.764-3.332,4.592s1.414,4.62,3.332,4.62a3.021,3.021,0,0,0,2.814-1.974h2.632V1.232h1.848V-11.7Zm8.638,2.772h2.562v-1.526h-7.084v1.526h2.674v.714a6.077,6.077,0,0,1-3.164,5.53l1.036,1.47a6.3,6.3,0,0,0,3.08-3.794,6.025,6.025,0,0,0,3.01,3.472L-28.2-3a5.768,5.768,0,0,1-3.136-5.222ZM-24.1-6.776h-1.876V-11.69h-1.848V1.2h1.848V-5.25H-24.1ZM-19.467,0h6.23V-1.666h-1.946v-8.708h-1.526a6.463,6.463,0,0,1-2.408.882v1.274h1.876v6.552h-2.226Zm7.7,0h6.944V-1.736h-2.24c-.49,0-1.176.056-1.694.112,1.89-1.848,3.444-3.864,3.444-5.74a3.039,3.039,0,0,0-3.262-3.192,4.159,4.159,0,0,0-3.29,1.568l1.12,1.12a2.711,2.711,0,0,1,1.9-1.064,1.48,1.48,0,0,1,1.554,1.68c0,1.6-1.666,3.542-4.48,6.062ZM1.183-5.866h-2.52v-3.3h2.52ZM3-10.626H-3.143V-4.41H3ZM.161-3.206H-1.687V.98H7.091V-.49H.161Zm6.468-4.76V-11.69H4.781v9.408H6.629V-6.454H8.337V-7.966ZM15.8.2a3.5,3.5,0,0,0,3.626-3.64,3.008,3.008,0,0,0-3.192-3.29,2.721,2.721,0,0,0-1.246.294l.2-2.2h3.766v-1.736H13.405l-.28,5.04.938.616a2.479,2.479,0,0,1,1.554-.546,1.677,1.677,0,0,1,1.75,1.876,1.74,1.74,0,0,1-1.834,1.9,3.22,3.22,0,0,1-2.282-1.05L12.3-1.218A4.722,4.722,0,0,0,15.8.2Zm8.218,0c1.974,0,3.64-1.106,3.64-3.01A2.591,2.591,0,0,0,25.6-5.362v-.07A2.459,2.459,0,0,0,27.321-7.8c0-1.764-1.358-2.758-3.36-2.758a4.6,4.6,0,0,0-3.108,1.274l1.05,1.26a2.816,2.816,0,0,1,1.96-.91,1.222,1.222,0,0,1,1.386,1.288c0,.924-.616,1.582-2.52,1.582v1.47c2.254,0,2.856.644,2.856,1.652,0,.938-.714,1.456-1.764,1.456a3.291,3.291,0,0,1-2.31-1.064l-.966,1.3A4.4,4.4,0,0,0,24.017.2Zm8.526,0c2.1,0,3.486-1.2,3.486-2.772a3.013,3.013,0,0,0-1.736-2.772v-.07a3.018,3.018,0,0,0,1.33-2.366,2.719,2.719,0,0,0-3.01-2.758c-1.792,0-3.122,1.064-3.122,2.73a2.951,2.951,0,0,0,1.372,2.464v.07a3,3,0,0,0-1.778,2.7C29.085-.952,30.569.2,32.543.2ZM33.2-5.922c-1.092-.434-1.89-.91-1.89-1.89A1.2,1.2,0,0,1,32.571-9.1a1.32,1.32,0,0,1,1.372,1.442A2.481,2.481,0,0,1,33.2-5.922ZM32.6-1.26A1.588,1.588,0,0,1,30.863-2.8a2.491,2.491,0,0,1,.952-1.918c1.344.546,2.3.994,2.3,2.072A1.352,1.352,0,0,1,32.6-1.26Zm9.478-5.026h-2.45V-9.3h2.45Zm4.13-2.072v1.106H43.883V-8.358ZM43.883-5.782h2.324V-4.13h1.848v-7.56H46.207v1.862H43.883v-.938H37.807V-4.83h6.076Zm-.2,5.572c-1.68,0-2.562-.35-2.562-1.092s.882-1.092,2.562-1.092,2.576.35,2.576,1.092S45.381-.21,43.687-.21Zm0-3.6c-2.73,0-4.41.924-4.41,2.506S40.957,1.2,43.687,1.2,48.111.28,48.111-1.3,46.431-3.808,43.687-3.808Z" transform="translate(958 1978)" fill="#eab38a"/><path d="M-2.988-7.728h1.344v5.1c-.456.012-.9.036-1.344.048Zm2.244,0H.144V-8.52H-4.788v.792h.9v5.16c-.408.012-.78.012-1.1.012l.1.816A34.556,34.556,0,0,0,.42-2.076L.372-2.8c-.348.048-.732.072-1.116.108Zm2.04.912H-.12v.8H1.3v1.488H-.12v.792H1.3V.324H2.22V-9.612H1.3ZM3.36-9.864V.888h.948V-9.864Z" transform="translate(398 1953)" fill="#707070"/><path d="M-5.556-8.652c1.644,0,2.76.6,2.76,1.548s-1.116,1.56-2.76,1.56S-8.3-6.156-8.3-7.1-7.188-8.652-5.556-8.652Zm0,3.9c2.244,0,3.768-.912,3.768-2.352s-1.524-2.34-3.768-2.34-3.756.9-3.756,2.34S-7.788-4.752-5.556-4.752Zm4.9,1.008H-10.4v.8H-7.9V.888h1V-2.94h2.7V.888h1V-2.94H-.66ZM5.1-5.028H2.052V-6.8H5.1Zm.96-4.164H5.1v1.62H2.052v-1.62H1.08v4.956H6.06ZM5.568.108C3.96.108,3-.348,3-1.116s.96-1.212,2.568-1.212c1.584,0,2.556.444,2.556,1.212S7.152.108,5.568.108Zm0-3.228c-2.2,0-3.552.732-3.552,2s1.356,2,3.552,2,3.54-.732,3.54-2S7.752-3.12,5.568-3.12Zm3.42-4.044V-9.876H8V-3.4h.984V-6.348h1.6v-.816Z" transform="translate(791 1953)" fill="#707070"/><path d="M-1.356-8.556c1.044,0,1.788.564,1.788,1.4s-.744,1.4-1.788,1.4-1.8-.564-1.8-1.4S-2.412-8.556-1.356-8.556Zm0,3.612c1.6,0,2.736-.9,2.736-2.208S.24-9.372-1.356-9.372s-2.748.9-2.748,2.22S-2.964-4.944-1.356-4.944Zm3.54.528a49.438,49.438,0,0,1-7.092.384l.132.828c.888,0,1.908-.012,2.976-.06V.552h.984V-3.324a26.984,26.984,0,0,0,3.084-.36Zm.78-5.448V.9h.984V-9.864Z" transform="translate(434 1953)" fill="#707070"/><path d="M-15.42-9.228v.8h3.864c-.168,1.728-1.7,3.06-4.356,3.7l.372.8c3.168-.768,5.064-2.592,5.064-5.3Zm6.864,9.18H-13.4V-1.44h4.848Zm0-2.16H-13.4V-3.576h-.972V.744h6.8v-4.32h-.984Zm2.58-5.124h-1.6V-9.876h-.984v5.82h.984v-2.46h1.6Zm7.308,2.52a3.654,3.654,0,0,1-2.6-3.324V-9.324h-.984v1.1a3.939,3.939,0,0,1-2.676,3.7l.516.78A4.5,4.5,0,0,0-1.752-6.468,4.518,4.518,0,0,0,.816-4.044ZM.048.108c-1.6,0-2.568-.444-2.568-1.188s.972-1.2,2.568-1.2S2.6-1.836,2.6-1.08,1.632.108.048.108Zm0-3.156c-2.2,0-3.552.708-3.552,1.968S-2.148.876.048.876,3.588.168,3.588-1.08,2.232-3.048.048-3.048Zm3.42-4.044V-9.864H2.484v6.516h.984V-6.276h1.6v-.816Zm10.56,5.268h1v-8.04h-1v2.52H11.676v.816h2.352ZM12.444-4.368A3.86,3.86,0,0,1,9.84-7.86V-9.228H8.856V-7.9A4.059,4.059,0,0,1,6.168-4.14l.516.78A4.687,4.687,0,0,0,9.36-6.168a4.523,4.523,0,0,0,2.568,2.556ZM9.084-.156V-2.712H8.1V.648h7.176v-.8Z" transform="translate(827 1953)" fill="#707070"/><path d="M-9.048-7.764h3.036v-.8H-10.02v6.8h.708a17.673,17.673,0,0,0,3.984-.324L-5.412-2.9a16.93,16.93,0,0,1-3.636.324Zm6.84-2.112v4.32H-3.732v-4.08h-.924V.348h.924v-5.1h1.524V.888h.948V-9.876ZM6.876-4.668a3.5,3.5,0,0,1-2.6-3.192v-.42H6.648v-.792H.876v.792H3.288v.42a3.812,3.812,0,0,1-2.7,3.5l.5.78A4.444,4.444,0,0,0,3.8-6.216,4.185,4.185,0,0,0,6.408-3.9ZM5.568.1C3.96.1,3-.348,3-1.116s.96-1.2,2.568-1.2c1.584,0,2.556.444,2.556,1.2S7.152.1,5.568.1Zm0-3.192c-2.208,0-3.552.732-3.552,1.98S3.36.876,5.568.876c2.184,0,3.54-.732,3.54-1.992S7.752-3.1,5.568-3.1Zm3.42-4.056V-9.864H8v6.492h.984V-6.324h1.6v-.828Z" transform="translate(471 1953)" fill="#707070"/><path d="M-9.048-7.764h3.036v-.8H-10.02v6.8h.708a17.673,17.673,0,0,0,3.984-.324L-5.412-2.9a16.93,16.93,0,0,1-3.636.324Zm6.84-2.112v4.32H-3.732v-4.08h-.924V.348h.924v-5.1h1.524V.888h.948V-9.876ZM6.876-4.668a3.5,3.5,0,0,1-2.6-3.192v-.42H6.648v-.792H.876v.792H3.288v.42a3.812,3.812,0,0,1-2.7,3.5l.5.78A4.444,4.444,0,0,0,3.8-6.216,4.185,4.185,0,0,0,6.408-3.9ZM5.568.1C3.96.1,3-.348,3-1.116s.96-1.2,2.568-1.2c1.584,0,2.556.444,2.556,1.2S7.152.1,5.568.1Zm0-3.192c-2.208,0-3.552.732-3.552,1.98S3.36.876,5.568.876c2.184,0,3.54-.732,3.54-1.992S7.752-3.1,5.568-3.1Zm3.42-4.056V-9.864H8v6.492h.984V-6.324h1.6v-.828Z" transform="translate(864 1953)" fill="#707070"/><path d="M-10.212-6.9v.8h2.16V-1.98h1V-9.864h-1V-6.9Zm.636,2.532a3.7,3.7,0,0,1-2.616-3.3V-8.2h2.364V-9h-5.748v.8h2.4v.54a3.923,3.923,0,0,1-2.712,3.528l.516.768A4.594,4.594,0,0,0-12.66-6.036,4.441,4.441,0,0,0-10.068-3.6ZM-12.948-.156v-2.52h-1V.648h7.188v-.8Zm14.6-5.172a29.18,29.18,0,0,1-5.016.336V-6.444H.54v-2.9h-4.9v.792H-.432V-7.2H-4.32v3.012h.864a30.186,30.186,0,0,0,5.22-.348ZM2.976-.06H-2.052V-1.38H2.976Zm0-2.088H-2.052V-3.42h-.972V.744H3.948V-3.42H2.976ZM2.964-9.864v5.9h.984v-5.9Zm11.064,8.04h1v-8.04h-1v2.52H11.676v.816h2.352ZM12.444-4.368A3.86,3.86,0,0,1,9.84-7.86V-9.228H8.856V-7.9A4.059,4.059,0,0,1,6.168-4.14l.516.78A4.687,4.687,0,0,0,9.36-6.168a4.523,4.523,0,0,0,2.568,2.556ZM9.084-.156V-2.712H8.1V.648h7.176v-.8Z" transform="translate(507 1953)" fill="#707070"/><path d="M-1.356-8.556c1.044,0,1.788.564,1.788,1.4s-.744,1.4-1.788,1.4-1.8-.564-1.8-1.4S-2.412-8.556-1.356-8.556Zm0,3.612c1.6,0,2.736-.9,2.736-2.208S.24-9.372-1.356-9.372s-2.748.9-2.748,2.22S-2.964-4.944-1.356-4.944Zm3.54.528a49.438,49.438,0,0,1-7.092.384l.132.828c.888,0,1.908-.012,2.976-.06V.552h.984V-3.324a26.984,26.984,0,0,0,3.084-.36Zm.78-5.448V.9h.984V-9.864Z" transform="translate(900 1953)" fill="#707070"/><path d="M-4.428-9.036v.8h3.96c-.2,1.9-1.86,3.42-4.392,4.212l.4.78c3.1-.972,5.052-3.012,5.052-5.8Zm2.172,6.228H-3.24V.648H3.936v-.8H-2.256ZM3.468-6.6V-9.864H2.484V-2h.984v-3.78H5.052V-6.6Z" transform="translate(544 1953)" fill="#707070"/><path d="M-2.988-7.728h1.344v5.1c-.456.012-.9.036-1.344.048Zm2.244,0H.144V-8.52H-4.788v.792h.9v5.16c-.408.012-.78.012-1.1.012l.1.816A34.556,34.556,0,0,0,.42-2.076L.372-2.8c-.348.048-.732.072-1.116.108Zm2.04.912H-.12v.8H1.3v1.488H-.12v.792H1.3V.324H2.22V-9.612H1.3ZM3.36-9.864V.888h.948V-9.864Z" transform="translate(937 1953)" fill="#707070"/><path d="M-15.42-9.228v.8h3.864c-.168,1.728-1.7,3.06-4.356,3.7l.372.8c3.168-.768,5.064-2.592,5.064-5.3Zm6.864,9.18H-13.4V-1.44h4.848Zm0-2.16H-13.4V-3.576h-.972V.744h6.8v-4.32h-.984Zm2.58-5.124h-1.6V-9.876h-.984v5.82h.984v-2.46h1.6Zm7.308,2.52a3.654,3.654,0,0,1-2.6-3.324V-9.324h-.984v1.1a3.939,3.939,0,0,1-2.676,3.7l.516.78A4.5,4.5,0,0,0-1.752-6.468,4.518,4.518,0,0,0,.816-4.044ZM.048.108c-1.6,0-2.568-.444-2.568-1.188s.972-1.2,2.568-1.2S2.6-1.836,2.6-1.08,1.632.108.048.108Zm0-3.156c-2.2,0-3.552.708-3.552,1.968S-2.148.876.048.876,3.588.168,3.588-1.08,2.232-3.048.048-3.048Zm3.42-4.044V-9.864H2.484v6.516h.984V-6.276h1.6v-.816Zm10.56,5.268h1v-8.04h-1v2.52H11.676v.816h2.352ZM12.444-4.368A3.86,3.86,0,0,1,9.84-7.86V-9.228H8.856V-7.9A4.059,4.059,0,0,1,6.168-4.14l.516.78A4.687,4.687,0,0,0,9.36-6.168a4.523,4.523,0,0,0,2.568,2.556ZM9.084-.156V-2.712H8.1V.648h7.176v-.8Z" transform="translate(581 1953)" fill="#707070"/><path d="M-4.428-9.036v.8h3.96c-.2,1.9-1.86,3.42-4.392,4.212l.4.78c3.1-.972,5.052-3.012,5.052-5.8Zm2.172,6.228H-3.24V.648H3.936v-.8H-2.256ZM3.468-6.6V-9.864H2.484V-2h.984v-3.78H5.052V-6.6Z" transform="translate(974 1953)" fill="#707070"/><path d="M-1.572-9.876h-.984v7.9h.984ZM-3.924-4.512A3.993,3.993,0,0,1-6.612-8.184V-9.276H-7.6v1.092A4.194,4.194,0,0,1-10.3-4.32l.516.8A4.829,4.829,0,0,0-7.092-6.4,4.64,4.64,0,0,0-4.44-3.732ZM-7.512-.156V-2.712H-8.5V.648h7.248v-.8ZM6.876-4.668a3.5,3.5,0,0,1-2.6-3.192v-.42H6.648v-.792H.876v.792H3.288v.42a3.812,3.812,0,0,1-2.7,3.5l.5.78A4.444,4.444,0,0,0,3.8-6.216,4.185,4.185,0,0,0,6.408-3.9ZM5.568.1C3.96.1,3-.348,3-1.116s.96-1.2,2.568-1.2c1.584,0,2.556.444,2.556,1.2S7.152.1,5.568.1Zm0-3.192c-2.208,0-3.552.732-3.552,1.98S3.36.876,5.568.876c2.184,0,3.54-.732,3.54-1.992S7.752-3.1,5.568-3.1Zm3.42-4.056V-9.864H8v6.492h.984V-6.324h1.6v-.828Z" transform="translate(616 1953)" fill="#707070"/><path d="M-9.96-4.68A3.6,3.6,0,0,0-7.68-6.6,3.535,3.535,0,0,0-5.508-4.872l.456-.744A2.683,2.683,0,0,1-7.224-7.824h1.932V-8.6H-7.224V-9.672H-8.16V-8.6h-1.968v.78H-8.16A2.844,2.844,0,0,1-10.4-5.436Zm5.052.276a42.831,42.831,0,0,1-5.664.288l.12.8C-9.8-3.312-9-3.324-8.16-3.36V.084h.936V-3.408A18.831,18.831,0,0,0-4.836-3.7Zm.648,1.788H-6.216v.78H-4.26V.348h.936V-9.636H-4.26Zm2.028-7.26V.888h.948V-9.876ZM6.876-4.668a3.5,3.5,0,0,1-2.6-3.192v-.42H6.648v-.792H.876v.792H3.288v.42a3.812,3.812,0,0,1-2.7,3.5l.5.78A4.444,4.444,0,0,0,3.8-6.216,4.185,4.185,0,0,0,6.408-3.9ZM5.568.1C3.96.1,3-.348,3-1.116s.96-1.2,2.568-1.2c1.584,0,2.556.444,2.556,1.2S7.152.1,5.568.1Zm0-3.192c-2.208,0-3.552.732-3.552,1.98S3.36.876,5.568.876c2.184,0,3.54-.732,3.54-1.992S7.752-3.1,5.568-3.1Zm3.42-4.056V-9.864H8v6.492h.984V-6.324h1.6v-.828Z" transform="translate(1009 1953)" fill="#707070"/><path d="M-9.96-4.68A3.6,3.6,0,0,0-7.68-6.6,3.535,3.535,0,0,0-5.508-4.872l.456-.744A2.683,2.683,0,0,1-7.224-7.824h1.932V-8.6H-7.224V-9.672H-8.16V-8.6h-1.968v.78H-8.16A2.844,2.844,0,0,1-10.4-5.436Zm5.052.276a42.831,42.831,0,0,1-5.664.288l.12.8C-9.8-3.312-9-3.324-8.16-3.36V.084h.936V-3.408A18.831,18.831,0,0,0-4.836-3.7Zm.648,1.788H-6.216v.78H-4.26V.348h.936V-9.636H-4.26Zm2.028-7.26V.888h.948V-9.876ZM6.876-4.668a3.5,3.5,0,0,1-2.6-3.192v-.42H6.648v-.792H.876v.792H3.288v.42a3.812,3.812,0,0,1-2.7,3.5l.5.78A4.444,4.444,0,0,0,3.8-6.216,4.185,4.185,0,0,0,6.408-3.9ZM5.568.1C3.96.1,3-.348,3-1.116s.96-1.2,2.568-1.2c1.584,0,2.556.444,2.556,1.2S7.152.1,5.568.1Zm0-3.192c-2.208,0-3.552.732-3.552,1.98S3.36.876,5.568.876c2.184,0,3.54-.732,3.54-1.992S7.752-3.1,5.568-3.1Zm3.42-4.056V-9.864H8v6.492h.984V-6.324h1.6v-.828Z" transform="translate(652 1953)" fill="#707070"/><path d="M-4.176-5.556a22.755,22.755,0,0,1-4.752.36V-8.364h3.756v-.792h-4.74V-4.38h.84a23.171,23.171,0,0,0,5-.384ZM-7.848-2.424h4.824V-.06H-7.848ZM-8.808.732h6.756V-3.2H-8.808Zm8.352-7.98h-1.6v-2.64h-.984V-3.78h.984V-6.432h1.6ZM6.912-5.724a24.347,24.347,0,0,1-4.776.468V-9.2H1.164v4.776H2A24.317,24.317,0,0,0,7.032-4.92ZM5.556.1c-1.572,0-2.58-.5-2.58-1.32s1.008-1.32,2.58-1.32,2.568.5,2.568,1.32S7.128.1,5.556.1Zm0-3.42C3.408-3.324,2-2.52,2-1.224S3.408.888,5.556.888s3.552-.8,3.552-2.112S7.7-3.324,5.556-3.324ZM8.988-7.188V-9.876H8v6.408h.984v-2.9h1.6v-.816Z" transform="translate(1045 1953)" fill="#707070"/><path d="M-5.94-5.028H-8.988V-6.8H-5.94Zm.96-4.164h-.96v1.62H-8.988v-1.62H-9.96v4.956h4.98Zm-.492,9.3C-7.08.108-8.04-.348-8.04-1.116s.96-1.212,2.568-1.212c1.584,0,2.556.444,2.556,1.212S-3.888.108-5.472.108Zm0-3.228c-2.2,0-3.552.732-3.552,2s1.356,2,3.552,2,3.54-.732,3.54-2S-3.288-3.12-5.472-3.12Zm3.42-4.044V-9.876h-.984V-3.4h.984V-6.348h1.6v-.816ZM6.276-5.7a12.853,12.853,0,0,0,.276-2.928V-9.2H1.224v.792H5.592a11.471,11.471,0,0,1-.276,2.628Zm1.032.672c-1.1.132-2.316.216-3.492.264v-2.1H2.844V-4.74c-.8.024-1.6.024-2.28.024L.672-3.9A45.742,45.742,0,0,0,7.38-4.308ZM5.544.084c-1.6,0-2.58-.432-2.58-1.176s.984-1.164,2.58-1.164,2.58.432,2.58,1.164S7.14.084,5.544.084Zm0-3.108c-2.208,0-3.576.708-3.576,1.932C1.968.156,3.336.864,5.544.864S9.12.156,9.12-1.092C9.12-2.316,7.752-3.024,5.544-3.024ZM9.012-6.936V-9.888H8.028v6.72h.984V-6.12h1.524v-.816Z" transform="translate(689 1953)" fill="#707070"/><path d="M-6.78-7.956h2.388v-.816h-5.82v.816h2.46v1.368a5.627,5.627,0,0,1-2.832,4.632l.576.78A6.076,6.076,0,0,0-7.26-4.74a5.808,5.808,0,0,0,2.7,3.3L-4-2.232A5.176,5.176,0,0,1-6.78-6.588ZM-.348-5.532H-2.124V-9.864h-.984V.888h.984V-4.7H-.348Zm8.58,4.416c0,.768-1.032,1.2-2.724,1.2-1.728,0-2.76-.432-2.76-1.2S3.78-2.3,5.508-2.3C7.2-2.3,8.232-1.872,8.232-1.116Zm2.16-3.66v-.792H8.868A13.565,13.565,0,0,0,9.144-8.64v-.78H1.884v.8H8.172a12.336,12.336,0,0,1-.3,3.048H.636v.792H5v1.692c-2.028.1-3.24.792-3.24,1.968C1.764.156,3.168.876,5.508.876c2.3,0,3.708-.72,3.708-1.992C9.216-2.292,8-2.988,6-3.084V-4.776ZM-7.272,6.92H-5.28V6.1H-7.26v-1.6h-.948V6.1H-10.2V6.92h1.992v.516a5.323,5.323,0,0,1-2.28,4.512l.576.732a5.3,5.3,0,0,0,2.184-3.2A5.028,5.028,0,0,0-5.52,12.452l.564-.744A4.891,4.891,0,0,1-7.272,7.436Zm2.9,1.452H-6.012v.816h1.644v5.136h.936V4.376h-.936Zm2.16-4.248V14.876h.948V4.124ZM8.172,8.408H2.832V6.824h5.34Zm.984-3.852H8.172V6.032H2.832V4.556H1.86V9.212h7.3Zm1.236,5.952H.624V11.3H4.992v3.6h.984V11.3h4.416Z" transform="translate(1082 1953)" fill="#707070"/><path d="M-4.176-5.556a22.755,22.755,0,0,1-4.752.36V-8.364h3.756v-.792h-4.74V-4.38h.84a23.171,23.171,0,0,0,5-.384ZM-7.848-2.424h4.824V-.06H-7.848ZM-8.808.732h6.756V-3.2H-8.808Zm8.352-7.98h-1.6v-2.64h-.984V-3.78h.984V-6.432h1.6ZM6.912-5.724a24.347,24.347,0,0,1-4.776.468V-9.2H1.164v4.776H2A24.317,24.317,0,0,0,7.032-4.92ZM5.556.1c-1.572,0-2.58-.5-2.58-1.32s1.008-1.32,2.58-1.32,2.568.5,2.568,1.32S7.128.1,5.556.1Zm0-3.42C3.408-3.324,2-2.52,2-1.224S3.408.888,5.556.888s3.552-.8,3.552-2.112S7.7-3.324,5.556-3.324ZM8.988-7.188V-9.876H8v6.408h.984v-2.9h1.6v-.816Z" transform="translate(725 1953)" fill="#707070"/><path d="M-6.78-7.956h2.388v-.816h-5.82v.816h2.46v1.368a5.627,5.627,0,0,1-2.832,4.632l.576.78A6.076,6.076,0,0,0-7.26-4.74a5.808,5.808,0,0,0,2.7,3.3L-4-2.232A5.176,5.176,0,0,1-6.78-6.588ZM-.348-5.532H-2.124V-9.864h-.984V.888h.984V-4.7H-.348Zm8.58,4.416c0,.768-1.032,1.2-2.724,1.2-1.728,0-2.76-.432-2.76-1.2S3.78-2.3,5.508-2.3C7.2-2.3,8.232-1.872,8.232-1.116Zm2.16-3.66v-.792H8.868A13.565,13.565,0,0,0,9.144-8.64v-.78H1.884v.8H8.172a12.336,12.336,0,0,1-.3,3.048H.636v.792H5v1.692c-2.028.1-3.24.792-3.24,1.968C1.764.156,3.168.876,5.508.876c2.3,0,3.708-.72,3.708-1.992C9.216-2.292,8-2.988,6-3.084V-4.776ZM-2.532,6.908v1.44h-2.82v.8h2.82v1.416h1V4.136h-1V6.1H-4.968a6.174,6.174,0,0,0,.12-1.164h-4.86v.792h3.792C-6.1,7.592-7.692,9.02-10.26,9.788l.4.78A6.669,6.669,0,0,0-5.22,6.908Zm-2.52,7.164c-1.584,0-2.592-.492-2.592-1.308s1.008-1.3,2.592-1.3,2.592.492,2.592,1.3S-3.468,14.072-5.052,14.072Zm0-3.384c-2.172,0-3.564.78-3.564,2.076s1.392,2.076,3.564,2.076,3.564-.78,3.564-2.076S-2.88,10.688-5.052,10.688ZM8.172,8.408H2.832V6.824h5.34Zm.984-3.852H8.172V6.032H2.832V4.556H1.86V9.212h7.3Zm1.236,5.952H.624V11.3H4.992v3.6h.984V11.3h4.416Z" transform="translate(1118 1953)" fill="#707070"/><path d="M.528,0H6.06V-.948H3.624c-.444,0-.984.048-1.44.084C4.248-2.82,5.628-4.608,5.628-6.36a2.413,2.413,0,0,0-2.556-2.6A3.364,3.364,0,0,0,.48-7.668l.636.624A2.463,2.463,0,0,1,2.94-8.064a1.546,1.546,0,0,1,1.62,1.74C4.56-4.812,3.288-3.06.528-.648Zm7.8.156A.793.793,0,0,0,9.12-.672a.806.806,0,0,0-.792-.852.806.806,0,0,0-.792.852A.793.793,0,0,0,8.328.156Zm3.228-6.264c0-1.2.648-1.992,1.488-1.992,1.128,0,1.8.96,1.92,2.772a2.305,2.305,0,0,1-1.836,1.176C12.084-4.152,11.556-4.92,11.556-6.108ZM12.8.156C14.46.156,16-1.212,16-4.776c0-2.8-1.26-4.188-2.952-4.188a2.641,2.641,0,0,0-2.52,2.856c0,1.824.96,2.772,2.424,2.772a2.737,2.737,0,0,0,2.028-1.08c-.084,2.724-1.068,3.66-2.208,3.66A1.94,1.94,0,0,1,11.3-1.428l-.612.684A2.8,2.8,0,0,0,12.8.156Z" transform="translate(716 1907)" fill="#707070"/><path d="M3.168.156a2.561,2.561,0,0,0,2.82-2.508,2.263,2.263,0,0,0-1.86-2.232v-.048a2.2,2.2,0,0,0,1.56-2.124A2.26,2.26,0,0,0,3.132-8.964,3.522,3.522,0,0,0,.672-7.908l.588.7a2.568,2.568,0,0,1,1.824-.852A1.35,1.35,0,0,1,4.572-6.672c0,.948-.624,1.68-2.436,1.68v.84c2.028,0,2.736.708,2.736,1.752A1.622,1.622,0,0,1,3.084-.756,2.908,2.908,0,0,1,.9-1.764l-.552.72A3.641,3.641,0,0,0,3.168.156Zm5.16,0A.793.793,0,0,0,9.12-.672a.806.806,0,0,0-.792-.852.806.806,0,0,0-.792.852A.793.793,0,0,0,8.328.156Zm5,0c1.668,0,2.736-1.524,2.736-4.584S15-8.964,13.332-8.964s-2.748,1.476-2.748,4.536S11.652.156,13.332.156Zm0-.876c-1.008,0-1.68-1.116-1.68-3.708,0-2.568.672-3.66,1.68-3.66S15-7,15-4.428C15-1.836,14.328-.72,13.332-.72Z" transform="translate(681 1904)" fill="#707070"/><path d="M-7.8,0h5.532V-.948H-4.7c-.444,0-.984.048-1.44.084C-4.08-2.82-2.7-4.608-2.7-6.36a2.413,2.413,0,0,0-2.556-2.6,3.364,3.364,0,0,0-2.592,1.3l.636.624a2.463,2.463,0,0,1,1.824-1.02,1.546,1.546,0,0,1,1.62,1.74C-3.768-4.812-5.04-3.06-7.8-.648ZM0,.156A.793.793,0,0,0,.792-.672.806.806,0,0,0,0-1.524a.806.806,0,0,0-.792.852A.793.793,0,0,0,0,.156ZM4.044,0h1.14c.132-3.444.516-5.5,2.58-8.136v-.672H2.256v.948h4.26A13.027,13.027,0,0,0,4.044,0Z" transform="translate(1082 1907)" fill="#707070"/><path d="M-7.8,0h5.532V-.948H-4.7c-.444,0-.984.048-1.44.084C-4.08-2.82-2.7-4.608-2.7-6.36a2.413,2.413,0,0,0-2.556-2.6,3.364,3.364,0,0,0-2.592,1.3l.636.624a2.463,2.463,0,0,1,1.824-1.02,1.546,1.546,0,0,1,1.62,1.74C-3.768-4.812-5.04-3.06-7.8-.648ZM0,.156A.793.793,0,0,0,.792-.672.806.806,0,0,0,0-1.524a.806.806,0,0,0-.792.852A.793.793,0,0,0,0,.156ZM4.044,0h1.14c.132-3.444.516-5.5,2.58-8.136v-.672H2.256v.948h4.26A13.027,13.027,0,0,0,4.044,0Z" transform="translate(1118 1907)" fill="#707070"/><path d="M5.1-5.52H2.052V-7.128H5.1Zm.96-3.912H5.1v1.548H2.052V-9.432H1.08v4.7H6.06ZM3.144-1.188H8.988V-3.8H2.148v.78H8.016v1.1H2.184V.768h7.2v-.78H3.144ZM8.988-7.56v-2.3H8v5.556h.984V-6.744h1.6V-7.56Zm9.456,1.38h1.368v2.952h.948V-9.864h-.948v2.88H18.444V-9.66h-.936v6.084h.936Zm-1.38,1.356A3.236,3.236,0,0,1,14.88-7.752V-9.2h-.948v1.452a3.727,3.727,0,0,1-2.244,3.216l.528.768a4.28,4.28,0,0,0,2.2-2.388,3.858,3.858,0,0,0,2.124,2.088ZM17.208.12c-1.608,0-2.616-.432-2.616-1.176S15.6-2.22,17.208-2.22c1.632,0,2.628.42,2.628,1.164S18.84.12,17.208.12Zm0-3.108c-2.208,0-3.588.708-3.588,1.932S15,.876,17.208.876s3.6-.708,3.6-1.932S19.428-2.988,17.208-2.988ZM8.124,10.988H2.892V9.6H8.124ZM9.1,7.46H8.124V8.84H2.892V7.46H1.92v4.308H9.1ZM2.832,14.72H1.86v2.928H9.3v-.8H2.832ZM.612,12.812V13.6H5.088v2.088h.984V13.6h4.32v-.792ZM19.212,9H12.924v2.3h7.452v-.72H13.9V9.668h6.288V7.424H12.9v.7h6.312ZM17.82,13.76H15.288v-.984H17.82Zm3.612-.984v-.732H11.664v.732H14.3v.984H12.828v.708h6.42v.9H12.864v2.4h7.692v-.72h-6.72v-1H20.22V13.76H18.8v-.984Z" transform="translate(1149 1927)" fill="#707070"/><path d="M3.168.156a2.561,2.561,0,0,0,2.82-2.508,2.263,2.263,0,0,0-1.86-2.232v-.048a2.2,2.2,0,0,0,1.56-2.124A2.26,2.26,0,0,0,3.132-8.964,3.522,3.522,0,0,0,.672-7.908l.588.7a2.568,2.568,0,0,1,1.824-.852A1.35,1.35,0,0,1,4.572-6.672c0,.948-.624,1.68-2.436,1.68v.84c2.028,0,2.736.708,2.736,1.752A1.622,1.622,0,0,1,3.084-.756,2.908,2.908,0,0,1,.9-1.764l-.552.72A3.641,3.641,0,0,0,3.168.156Zm5.16,0A.793.793,0,0,0,9.12-.672a.806.806,0,0,0-.792-.852.806.806,0,0,0-.792.852A.793.793,0,0,0,8.328.156ZM11.052,0h4.824V-.912H14.112v-7.9h-.84a5.3,5.3,0,0,1-1.824.636v.7h1.56V-.912H11.052Z" transform="translate(644 1900)" fill="#707070"/><path d="M-7.8,0h5.532V-.948H-4.7c-.444,0-.984.048-1.44.084C-4.08-2.82-2.7-4.608-2.7-6.36a2.413,2.413,0,0,0-2.556-2.6,3.364,3.364,0,0,0-2.592,1.3l.636.624a2.463,2.463,0,0,1,1.824-1.02,1.546,1.546,0,0,1,1.62,1.74C-3.768-4.812-5.04-3.06-7.8-.648ZM0,.156A.793.793,0,0,0,.792-.672.806.806,0,0,0,0-1.524a.806.806,0,0,0-.792.852A.793.793,0,0,0,0,.156ZM3.228-6.108c0-1.2.648-1.992,1.488-1.992,1.128,0,1.8.96,1.92,2.772A2.305,2.305,0,0,1,4.8-4.152C3.756-4.152,3.228-4.92,3.228-6.108ZM4.476.156c1.656,0,3.192-1.368,3.192-4.932,0-2.8-1.26-4.188-2.952-4.188A2.641,2.641,0,0,0,2.2-6.108c0,1.824.96,2.772,2.424,2.772a2.737,2.737,0,0,0,2.028-1.08C6.564-1.692,5.58-.756,4.44-.756a1.94,1.94,0,0,1-1.464-.672l-.612.684A2.8,2.8,0,0,0,4.476.156Z" transform="translate(1045 1902)" fill="#707070"/><path d="M3.168.156a2.561,2.561,0,0,0,2.82-2.508,2.263,2.263,0,0,0-1.86-2.232v-.048a2.2,2.2,0,0,0,1.56-2.124A2.26,2.26,0,0,0,3.132-8.964,3.522,3.522,0,0,0,.672-7.908l.588.7a2.568,2.568,0,0,1,1.824-.852A1.35,1.35,0,0,1,4.572-6.672c0,.948-.624,1.68-2.436,1.68v.84c2.028,0,2.736.708,2.736,1.752A1.622,1.622,0,0,1,3.084-.756,2.908,2.908,0,0,1,.9-1.764l-.552.72A3.641,3.641,0,0,0,3.168.156Zm5.16,0A.793.793,0,0,0,9.12-.672a.806.806,0,0,0-.792-.852.806.806,0,0,0-.792.852A.793.793,0,0,0,8.328.156ZM11.052,0h4.824V-.912H14.112v-7.9h-.84a5.3,5.3,0,0,1-1.824.636v.7h1.56V-.912H11.052Z" transform="translate(607 1900)" fill="#707070"/><path d="M-5.16.156A2.561,2.561,0,0,0-2.34-2.352,2.263,2.263,0,0,0-4.2-4.584v-.048A2.2,2.2,0,0,0-2.64-6.756,2.26,2.26,0,0,0-5.2-8.964a3.522,3.522,0,0,0-2.46,1.056l.588.7a2.568,2.568,0,0,1,1.824-.852A1.35,1.35,0,0,1-3.756-6.672c0,.948-.624,1.68-2.436,1.68v.84c2.028,0,2.736.708,2.736,1.752A1.622,1.622,0,0,1-5.244-.756,2.908,2.908,0,0,1-7.428-1.764l-.552.72A3.641,3.641,0,0,0-5.16.156ZM0,.156A.793.793,0,0,0,.792-.672.806.806,0,0,0,0-1.524a.806.806,0,0,0-.792.852A.793.793,0,0,0,0,.156Zm4.836,0a2.561,2.561,0,0,0,2.82-2.508A2.263,2.263,0,0,0,5.8-4.584v-.048a2.2,2.2,0,0,0,1.56-2.124A2.26,2.26,0,0,0,4.8-8.964,3.522,3.522,0,0,0,2.34-7.908l.588.7a2.568,2.568,0,0,1,1.824-.852A1.35,1.35,0,0,1,6.24-6.672c0,.948-.624,1.68-2.436,1.68v.84c2.028,0,2.736.708,2.736,1.752A1.622,1.622,0,0,1,4.752-.756,2.908,2.908,0,0,1,2.568-1.764l-.552.72A3.641,3.641,0,0,0,4.836.156Z" transform="translate(1008 1900)" fill="#707070"/><path d="M3.132.156a2.857,2.857,0,0,0,2.88-3.024,2.51,2.51,0,0,0-2.652-2.8,2.558,2.558,0,0,0-1.308.348L2.268-7.86H5.592v-.948H1.308L1.032-4.68l.588.36a2.393,2.393,0,0,1,1.464-.516,1.78,1.78,0,0,1,1.824,2A1.9,1.9,0,0,1,3.036-.756a2.894,2.894,0,0,1-2.16-.972l-.54.72A3.737,3.737,0,0,0,3.132.156Zm5.2,0A.793.793,0,0,0,9.12-.672a.806.806,0,0,0-.792-.852.806.806,0,0,0-.792.852A.793.793,0,0,0,8.328.156Zm5.184-4.8c1.068,0,1.6.756,1.6,1.944s-.66,2-1.5,2c-1.1,0-1.764-1-1.9-2.82A2.274,2.274,0,0,1,13.512-4.644Zm.1,4.8A2.641,2.641,0,0,0,16.128-2.7c0-1.836-.948-2.76-2.436-2.76a2.736,2.736,0,0,0-2,1.068c.048-2.736,1.068-3.66,2.268-3.66a1.86,1.86,0,0,1,1.416.672l.6-.684a2.7,2.7,0,0,0-2.052-.9c-1.7,0-3.252,1.32-3.252,4.764C10.668-1.3,11.916.156,13.608.156Z" transform="translate(572 1875)" fill="#707070"/><path d="M-5.16.156A2.561,2.561,0,0,0-2.34-2.352,2.263,2.263,0,0,0-4.2-4.584v-.048A2.2,2.2,0,0,0-2.64-6.756,2.26,2.26,0,0,0-5.2-8.964a3.522,3.522,0,0,0-2.46,1.056l.588.7a2.568,2.568,0,0,1,1.824-.852A1.35,1.35,0,0,1-3.756-6.672c0,.948-.624,1.68-2.436,1.68v.84c2.028,0,2.736.708,2.736,1.752A1.622,1.622,0,0,1-5.244-.756,2.908,2.908,0,0,1-7.428-1.764l-.552.72A3.641,3.641,0,0,0-5.16.156ZM0,.156A.793.793,0,0,0,.792-.672.806.806,0,0,0,0-1.524a.806.806,0,0,0-.792.852A.793.793,0,0,0,0,.156ZM3.048-3.3l2-3c.252-.432.492-.864.708-1.3h.048c-.024.456-.06,1.164-.06,1.6v2.7ZM5.748,0H6.78V-2.424H7.944V-3.3H6.78V-8.808H5.568L1.908-3.144v.72h3.84Z" transform="translate(973 1900)" fill="#707070"/><path d="M3.348.156c1.656,0,2.76-1,2.76-2.28a2.567,2.567,0,0,0-1.488-2.3v-.06A2.884,2.884,0,0,0,5.8-6.612,2.225,2.225,0,0,0,3.384-8.928,2.238,2.238,0,0,0,.972-6.7,2.445,2.445,0,0,0,2.16-4.668v.06A2.817,2.817,0,0,0,.54-2.184,2.523,2.523,0,0,0,3.348.156Zm.6-4.932c-1.032-.408-1.98-.864-1.98-1.92a1.355,1.355,0,0,1,1.4-1.428A1.458,1.458,0,0,1,4.86-6.552,2.36,2.36,0,0,1,3.948-4.776ZM3.372-.66A1.687,1.687,0,0,1,1.536-2.28a2.391,2.391,0,0,1,1.2-1.992c1.248.5,2.328.948,2.328,2.124A1.524,1.524,0,0,1,3.372-.66ZM8.328.156A.793.793,0,0,0,9.12-.672a.806.806,0,0,0-.792-.852.806.806,0,0,0-.792.852A.793.793,0,0,0,8.328.156Zm5.184-4.8c1.068,0,1.6.756,1.6,1.944s-.66,2-1.5,2c-1.1,0-1.764-1-1.9-2.82A2.274,2.274,0,0,1,13.512-4.644Zm.1,4.8A2.641,2.641,0,0,0,16.128-2.7c0-1.836-.948-2.76-2.436-2.76a2.736,2.736,0,0,0-2,1.068c.048-2.736,1.068-3.66,2.268-3.66a1.86,1.86,0,0,1,1.416.672l.6-.684a2.7,2.7,0,0,0-2.052-.9c-1.7,0-3.252,1.32-3.252,4.764C10.668-1.3,11.916.156,13.608.156Z" transform="translate(535 1860)" fill="#707070"/><path d="M-4.98.156c1.656,0,2.76-1,2.76-2.28a2.567,2.567,0,0,0-1.488-2.3v-.06A2.884,2.884,0,0,0-2.532-6.612,2.225,2.225,0,0,0-4.944-8.928,2.238,2.238,0,0,0-7.356-6.7,2.445,2.445,0,0,0-6.168-4.668v.06a2.817,2.817,0,0,0-1.62,2.424A2.523,2.523,0,0,0-4.98.156Zm.6-4.932C-5.412-5.184-6.36-5.64-6.36-6.7a1.355,1.355,0,0,1,1.4-1.428A1.458,1.458,0,0,1-3.468-6.552,2.36,2.36,0,0,1-4.38-4.776ZM-4.956-.66A1.687,1.687,0,0,1-6.792-2.28a2.391,2.391,0,0,1,1.2-1.992c1.248.5,2.328.948,2.328,2.124A1.524,1.524,0,0,1-4.956-.66ZM0,.156A.793.793,0,0,0,.792-.672.806.806,0,0,0,0-1.524a.806.806,0,0,0-.792.852A.793.793,0,0,0,0,.156Zm5,0C6.672.156,7.74-1.368,7.74-4.428S6.672-8.964,5-8.964,2.256-7.488,2.256-4.428,3.324.156,5,.156ZM5-.72C4-.72,3.324-1.836,3.324-4.428,3.324-7,4-8.088,5-8.088S6.672-7,6.672-4.428C6.672-1.836,6-.72,5-.72Z" transform="translate(936 1881)" fill="#707070"/><path d="M1.056,0H5.88V-.912H4.116v-7.9h-.84a5.3,5.3,0,0,1-1.824.636v.7h1.56V-.912H1.056ZM7.188,0H12.72V-.948H10.284c-.444,0-.984.048-1.44.084,2.064-1.956,3.444-3.744,3.444-5.5a2.413,2.413,0,0,0-2.556-2.6,3.364,3.364,0,0,0-2.592,1.3l.636.624A2.463,2.463,0,0,1,9.6-8.064a1.546,1.546,0,0,1,1.62,1.74c0,1.512-1.272,3.264-4.032,5.676Zm7.8.156a.793.793,0,0,0,.792-.828.806.806,0,0,0-.792-.852.806.806,0,0,0-.792.852A.793.793,0,0,0,14.988.156Zm4.8,0a2.857,2.857,0,0,0,2.88-3.024,2.51,2.51,0,0,0-2.652-2.8,2.558,2.558,0,0,0-1.308.348l.216-2.544h3.324v-.948H17.964L17.688-4.68l.588.36a2.393,2.393,0,0,1,1.464-.516,1.78,1.78,0,0,1,1.824,2A1.9,1.9,0,0,1,19.692-.756a2.894,2.894,0,0,1-2.16-.972l-.54.72A3.737,3.737,0,0,0,19.788.156Z" transform="translate(496 1853)" fill="#707070"/><path d="M-4.98.156c1.656,0,2.76-1,2.76-2.28a2.567,2.567,0,0,0-1.488-2.3v-.06A2.884,2.884,0,0,0-2.532-6.612,2.225,2.225,0,0,0-4.944-8.928,2.238,2.238,0,0,0-7.356-6.7,2.445,2.445,0,0,0-6.168-4.668v.06a2.817,2.817,0,0,0-1.62,2.424A2.523,2.523,0,0,0-4.98.156Zm.6-4.932C-5.412-5.184-6.36-5.64-6.36-6.7a1.355,1.355,0,0,1,1.4-1.428A1.458,1.458,0,0,1-3.468-6.552,2.36,2.36,0,0,1-4.38-4.776ZM-4.956-.66A1.687,1.687,0,0,1-6.792-2.28a2.391,2.391,0,0,1,1.2-1.992c1.248.5,2.328.948,2.328,2.124A1.524,1.524,0,0,1-4.956-.66ZM0,.156A.793.793,0,0,0,.792-.672.806.806,0,0,0,0-1.524a.806.806,0,0,0-.792.852A.793.793,0,0,0,0,.156ZM2.724,0H7.548V-.912H5.784v-7.9h-.84a5.3,5.3,0,0,1-1.824.636v.7H4.68V-.912H2.724Z" transform="translate(901 1877)" fill="#707070"/><path d="M1.056,0H5.88V-.912H4.116v-7.9h-.84a5.3,5.3,0,0,1-1.824.636v.7h1.56V-.912H1.056ZM7.188,0H12.72V-.948H10.284c-.444,0-.984.048-1.44.084,2.064-1.956,3.444-3.744,3.444-5.5a2.413,2.413,0,0,0-2.556-2.6,3.364,3.364,0,0,0-2.592,1.3l.636.624A2.463,2.463,0,0,1,9.6-8.064a1.546,1.546,0,0,1,1.62,1.74c0,1.512-1.272,3.264-4.032,5.676Zm7.8.156a.793.793,0,0,0,.792-.828.806.806,0,0,0-.792-.852.806.806,0,0,0-.792.852A.793.793,0,0,0,14.988.156ZM20,.156c1.656,0,2.76-1,2.76-2.28a2.567,2.567,0,0,0-1.488-2.3v-.06a2.884,2.884,0,0,0,1.176-2.124A2.225,2.225,0,0,0,20.04-8.928,2.238,2.238,0,0,0,17.628-6.7a2.445,2.445,0,0,0,1.188,2.028v.06A2.817,2.817,0,0,0,17.2-2.184,2.523,2.523,0,0,0,20,.156Zm.6-4.932c-1.032-.408-1.98-.864-1.98-1.92a1.355,1.355,0,0,1,1.4-1.428,1.458,1.458,0,0,1,1.488,1.572A2.36,2.36,0,0,1,20.6-4.776ZM20.028-.66a1.687,1.687,0,0,1-1.836-1.62,2.391,2.391,0,0,1,1.2-1.992c1.248.5,2.328.948,2.328,2.124A1.524,1.524,0,0,1,20.028-.66Z" transform="translate(460 1846)" fill="#707070"/><path d="M-6.768-6.108c0-1.2.648-1.992,1.488-1.992,1.128,0,1.8.96,1.92,2.772A2.305,2.305,0,0,1-5.2-4.152C-6.24-4.152-6.768-4.92-6.768-6.108ZM-5.52.156c1.656,0,3.192-1.368,3.192-4.932,0-2.8-1.26-4.188-2.952-4.188A2.641,2.641,0,0,0-7.8-6.108c0,1.824.96,2.772,2.424,2.772a2.737,2.737,0,0,0,2.028-1.08c-.084,2.724-1.068,3.66-2.208,3.66A1.94,1.94,0,0,1-7.02-1.428l-.612.684A2.8,2.8,0,0,0-5.52.156ZM0,.156A.793.793,0,0,0,.792-.672.806.806,0,0,0,0-1.524a.806.806,0,0,0-.792.852A.793.793,0,0,0,0,.156ZM3.228-6.108c0-1.2.648-1.992,1.488-1.992,1.128,0,1.8.96,1.92,2.772A2.305,2.305,0,0,1,4.8-4.152C3.756-4.152,3.228-4.92,3.228-6.108ZM4.476.156c1.656,0,3.192-1.368,3.192-4.932,0-2.8-1.26-4.188-2.952-4.188A2.641,2.641,0,0,0,2.2-6.108c0,1.824.96,2.772,2.424,2.772a2.737,2.737,0,0,0,2.028-1.08C6.564-1.692,5.58-.756,4.44-.756a1.94,1.94,0,0,1-1.464-.672l-.612.684A2.8,2.8,0,0,0,4.476.156Z" transform="translate(864 1872)" fill="#707070"/><path d="M1.056,0H5.88V-.912H4.116v-7.9h-.84a5.3,5.3,0,0,1-1.824.636v.7h1.56V-.912H1.056ZM8.04-3.3l2-3c.252-.432.492-.864.708-1.3H10.8c-.024.456-.06,1.164-.06,1.6v2.7ZM10.74,0h1.032V-2.424h1.164V-3.3H11.772V-8.808H10.56L6.9-3.144v.72h3.84Zm4.248.156a.793.793,0,0,0,.792-.828.806.806,0,0,0-.792-.852.806.806,0,0,0-.792.852A.793.793,0,0,0,14.988.156ZM19.032,0h1.14c.132-3.444.516-5.5,2.58-8.136v-.672H17.244v.948H21.5A13.027,13.027,0,0,0,19.032,0Z" transform="translate(423 1840)" fill="#707070"/><path d="M-10.6,0h4.824V-.912H-7.542v-7.9h-.84a5.3,5.3,0,0,1-1.824.636v.7h1.56V-.912H-10.6Zm7.164-6.108c0-1.2.648-1.992,1.488-1.992,1.128,0,1.8.96,1.92,2.772A2.305,2.305,0,0,1-1.866-4.152C-2.91-4.152-3.438-4.92-3.438-6.108ZM-2.19.156C-.534.156,1-1.212,1-4.776c0-2.8-1.26-4.188-2.952-4.188A2.641,2.641,0,0,0-4.47-6.108c0,1.824.96,2.772,2.424,2.772A2.737,2.737,0,0,0-.018-4.416C-.1-1.692-1.086-.756-2.226-.756A1.94,1.94,0,0,1-3.69-1.428L-4.3-.744A2.8,2.8,0,0,0-2.19.156Zm5.52,0a.793.793,0,0,0,.792-.828.806.806,0,0,0-.792-.852.806.806,0,0,0-.792.852A.793.793,0,0,0,3.33.156ZM5.526,0h5.532V-.948H8.622c-.444,0-.984.048-1.44.084,2.064-1.956,3.444-3.744,3.444-5.5a2.413,2.413,0,0,0-2.556-2.6,3.364,3.364,0,0,0-2.592,1.3l.636.624a2.463,2.463,0,0,1,1.824-1.02,1.546,1.546,0,0,1,1.62,1.74c0,1.512-1.272,3.264-4.032,5.676Z" transform="translate(828 1825)" fill="#707070"/><path d="M1.056,0H5.88V-.912H4.116v-7.9h-.84a5.3,5.3,0,0,1-1.824.636v.7h1.56V-.912H1.056ZM9.792.156a2.857,2.857,0,0,0,2.88-3.024,2.51,2.51,0,0,0-2.652-2.8,2.558,2.558,0,0,0-1.308.348L8.928-7.86h3.324v-.948H7.968L7.692-4.68l.588.36a2.393,2.393,0,0,1,1.464-.516,1.78,1.78,0,0,1,1.824,2A1.9,1.9,0,0,1,9.7-.756a2.894,2.894,0,0,1-2.16-.972L7-1.008A3.737,3.737,0,0,0,9.792.156Zm5.2,0a.793.793,0,0,0,.792-.828.806.806,0,0,0-.792-.852.806.806,0,0,0-.792.852A.793.793,0,0,0,14.988.156ZM17.184,0h5.532V-.948H20.28c-.444,0-.984.048-1.44.084,2.064-1.956,3.444-3.744,3.444-5.5a2.413,2.413,0,0,0-2.556-2.6,3.364,3.364,0,0,0-2.592,1.3l.636.624A2.463,2.463,0,0,1,19.6-8.064a1.546,1.546,0,0,1,1.62,1.74c0,1.512-1.272,3.264-4.032,5.676Z" transform="translate(386 1830)" fill="#707070"/><path d="M-11.13,0H-5.6V-.948H-8.034c-.444,0-.984.048-1.44.084C-7.41-2.82-6.03-4.608-6.03-6.36a2.413,2.413,0,0,0-2.556-2.6,3.364,3.364,0,0,0-2.592,1.3l.636.624a2.463,2.463,0,0,1,1.824-1.02A1.546,1.546,0,0,1-7.1-6.324C-7.1-4.812-8.37-3.06-11.13-.648Zm9.468.156c1.668,0,2.736-1.524,2.736-4.584S.006-8.964-1.662-8.964-4.41-7.488-4.41-4.428-3.342.156-1.662.156Zm0-.876c-1.008,0-1.68-1.116-1.68-3.708,0-2.568.672-3.66,1.68-3.66S.006-7,.006-4.428C.006-1.836-.666-.72-1.662-.72ZM3.33.156a.793.793,0,0,0,.792-.828.806.806,0,0,0-.792-.852.806.806,0,0,0-.792.852A.793.793,0,0,0,3.33.156Zm5.184-4.8c1.068,0,1.6.756,1.6,1.944s-.66,2-1.5,2c-1.1,0-1.764-1-1.9-2.82A2.274,2.274,0,0,1,8.514-4.644Zm.1,4.8A2.641,2.641,0,0,0,11.13-2.7c0-1.836-.948-2.76-2.436-2.76a2.736,2.736,0,0,0-2,1.068c.048-2.736,1.068-3.66,2.268-3.66a1.86,1.86,0,0,1,1.416.672l.6-.684a2.7,2.7,0,0,0-2.052-.9c-1.7,0-3.252,1.32-3.252,4.764C5.67-1.3,6.918.156,8.61.156Z" transform="translate(791 1820)" fill="#707070"/><path d="M373,.5H0v-1H373Z" transform="translate(378.5 1929)" fill="#ddd"/><path d="M373,.5H0v-1H373Z" transform="translate(771.5 1929)" fill="#ddd"/><path d="M0,0H10V90H0Z" transform="translate(393 1839)" fill="#94aad8"/><path d="M0,0H141V120H0Z" transform="translate(1191 1827)" fill="#385592"/><path d="M0,0H96V120H0Z" transform="translate(1332 1827)" fill="#5d78b2"/><path d="M0,0H112V120H0Z" transform="translate(1428 1827)" fill="#6e83b1"/><path d="M0,0H10V100H0Z" transform="translate(786 1829)" fill="#eab38a"/><path d="M0,0H10V80H0Z" transform="translate(429 1849)" fill="#94aad8"/><path d="M0,0H10V95H0Z" transform="translate(822 1834)" fill="#eab38a"/><path d="M0,0H10V74H0Z" transform="translate(466 1855)" fill="#94aad8"/><path d="M0,0H10V48H0Z" transform="translate(859 1881)" fill="#eab38a"/><path d="M0,0H10V67H0Z" transform="translate(502 1862)" fill="#94aad8"/><path d="M0,0H10V43H0Z" transform="translate(895 1886)" fill="#eab38a"/><path d="M0,0H10V60H0Z" transform="translate(538 1869)" fill="#94aad8"/><path d="M0,0H10V39H0Z" transform="translate(931 1890)" fill="#eab38a"/><path d="M0,0H10V45H0Z" transform="translate(575 1884)" fill="#94aad8"/><path d="M0,0H10V20H0Z" transform="translate(968 1909)" fill="#eab38a"/><path d="M0,0H10V20H0Z" transform="translate(611 1909)" fill="#94aad8"/><path d="M0,0H10V20H0Z" transform="translate(1004 1909)" fill="#eab38a"/><path d="M0,0H10V20H0Z" transform="translate(647 1909)" fill="#94aad8"/><path d="M0,0H10V18H0Z" transform="translate(1040 1911)" fill="#eab38a"/><path d="M0,0H10V16H0Z" transform="translate(684 1913)" fill="#94aad8"/><path d="M0,0H10V13H0Z" transform="translate(1077 1916)" fill="#eab38a"/><path d="M0,0H10V13H0Z" transform="translate(1113 1916)" fill="#eab38a"/><path d="M0,0H10V13H0Z" transform="translate(720 1916)" fill="#94aad8"/><path d="M-28.364-7.812a2,2,0,0,1,2.142-2,2.012,2.012,0,0,1,2.17,2,2.009,2.009,0,0,1-2.17,1.988A1.993,1.993,0,0,1-28.364-7.812Zm5.432,0a3.011,3.011,0,0,0-3.29-2.954,3,3,0,0,0-3.262,2.954,3,3,0,0,0,3.262,2.954A3.011,3.011,0,0,0-22.932-7.812ZM-26.74-2.744h5.628V-.056H-26.74ZM-27.86.868h7.882V-3.654H-27.86Zm9.744-9.31h-1.862v-3.066h-1.148v7.252h1.148V-7.49h1.862ZM-3.4-11.508H-4.55v9.184H-3.4ZM-6.034-5.026a4.276,4.276,0,0,1-3.15-3.836v-.686h2.842v-.924H-13.23v.924h2.87v.686a4.471,4.471,0,0,1-3.178,4.088l.6.9A5.265,5.265,0,0,0-9.758-6.972,5.334,5.334,0,0,0-6.594-4.116Zm-4.3,4.844v-3.01H-11.48V.756h8.456V-.182ZM6.44-6.02A26.548,26.548,0,0,1,.9-5.6V-9.506h4.41v-.924H-.252v5.768h.98A27.158,27.158,0,0,0,6.566-5.1ZM2.254-3.346H1.106v4.1H9.478V-.182H2.254ZM8.918-7.8v-3.724H7.77v9.086H8.918v-4.41H10.78V-7.8ZM25.872-10.08H21.448v-1.512H20.286v1.512H15.778v.924H25.872ZM23.744-6.342c0,.77-1.036,1.218-2.87,1.218s-2.9-.448-2.9-1.218,1.064-1.218,2.9-1.218S23.744-7.112,23.744-6.342Zm-6.958,0c0,1.344,1.526,2.086,4.088,2.086,2.534,0,4.06-.742,4.06-2.086s-1.526-2.1-4.06-2.1C18.312-8.442,16.786-7.686,16.786-6.342Zm9.786,2.968H15.19v.938h5.1V1.05h1.162V-2.436h5.124ZM-35.567,20.182a3.333,3.333,0,0,0,3.36-3.528A2.929,2.929,0,0,0-35.3,13.392a2.984,2.984,0,0,0-1.526.406l.252-2.968H-32.7V9.724h-5l-.322,4.816.686.42a2.792,2.792,0,0,1,1.708-.6A2.077,2.077,0,0,1-33.495,16.7a2.218,2.218,0,0,1-2.184,2.422,3.376,3.376,0,0,1-2.52-1.134l-.63.84A4.36,4.36,0,0,0-35.567,20.182Zm14.042-2.394h1.162v-9.3h-1.162v1.624h-3.542v.924h3.542v1.484h-3.542v.91h3.542ZM-23.6,14.512a29.955,29.955,0,0,1-5.236.448V9.388h-1.148v6.538h.952a29.767,29.767,0,0,0,5.558-.462Zm-3.668,5.306V16.99h-1.148v3.766h8.372v-.938Zm13.65-3.724a6.337,6.337,0,0,0,4.62-2.912,6.283,6.283,0,0,0,4.606,2.912l.448-.91c-2.436-.392-4.48-1.862-4.48-3.794h4.032v-.924H-8.421V8.758H-9.583v1.708h-4.046v.924h4.046c0,1.932-2.044,3.4-4.48,3.794ZM-8.421,18.5V15.646H-9.583V18.5h-5.11v.952H-3.3V18.5ZM4.739,15.52a31.222,31.222,0,0,0,.35-4.984V9.85H-1.253v.938H3.969a26.628,26.628,0,0,1-.378,4.62ZM1.855,13.434H.721V17.3c-.938.028-1.862.042-2.66.042l.126.952a51.172,51.172,0,0,0,7.784-.476l-.07-.84c-1.274.154-2.674.238-4.046.294Zm7.966.294h-2V8.478H6.671V21.036H7.819V14.694h2ZM22.1,12.79h1.6v3.444H24.8V8.492H23.7v3.36H22.1V8.73H21.007v7.1H22.1Zm-1.61,1.582a3.775,3.775,0,0,1-2.548-3.416V9.262H16.835v1.694a4.348,4.348,0,0,1-2.618,3.752l.616.9A4.993,4.993,0,0,0,17.4,12.818a4.5,4.5,0,0,0,2.478,2.436Zm.168,5.768c-1.876,0-3.052-.5-3.052-1.372s1.176-1.358,3.052-1.358c1.9,0,3.066.49,3.066,1.358S22.561,20.14,20.657,20.14Zm0-3.626c-2.576,0-4.186.826-4.186,2.254s1.61,2.254,4.186,2.254,4.2-.826,4.2-2.254S23.247,16.514,20.657,16.514ZM28.2,14.05c2.03-.308,3.878-1.316,4.564-2.772.686,1.456,2.534,2.464,4.564,2.772l.434-.924c-2.226-.294-4.256-1.54-4.256-3.08v-.028h3.906V9.094h-9.3v.924h3.906v.028c0,1.54-2.03,2.786-4.256,3.08Zm1.484,3.164H28.539v3.542h8.638v-.938h-7.49Zm3.64-1.96V13.168H32.179v2.086h-5.11v.938h11.41v-.938Z" transform="translate(1262 1861)" fill="#fff"/><path d="M-25.487,0h6.454V-1.106h-2.842c-.518,0-1.148.056-1.68.1,2.408-2.282,4.018-4.368,4.018-6.412a2.815,2.815,0,0,0-2.982-3.038,3.925,3.925,0,0,0-3.024,1.512l.742.728a2.874,2.874,0,0,1,2.128-1.19,1.8,1.8,0,0,1,1.89,2.03c0,1.764-1.484,3.808-4.7,6.622Zm12.418-4.018a2.36,2.36,0,0,0,1.946-1.4l-.728-.518c-.35.672-.742.952-1.19.952-.882,0-1.54-1.316-2.772-1.316a2.361,2.361,0,0,0-1.96,1.4l.714.5c.364-.672.756-.952,1.2-.952C-14.973-5.348-14.3-4.018-13.069-4.018Zm6.16,4.2a3.333,3.333,0,0,0,3.36-3.528A2.929,2.929,0,0,0-6.643-6.608,2.984,2.984,0,0,0-8.169-6.2l.252-2.968h3.878v-1.106h-5L-9.359-5.46l.686.42a2.792,2.792,0,0,1,1.708-.6A2.077,2.077,0,0,1-4.837-3.3,2.218,2.218,0,0,1-7.021-.882a3.376,3.376,0,0,1-2.52-1.134l-.63.84A4.36,4.36,0,0,0-6.909.182ZM8.547-10.29H5.523v-1.274H4.375v1.274H1.337v.854h7.21ZM3.1-6.986c0-.672.714-1.106,1.848-1.106,1.106,0,1.834.434,1.834,1.106,0,.7-.728,1.12-1.834,1.12C3.815-5.866,3.1-6.286,3.1-6.986ZM8.925-4.508a29.471,29.471,0,0,1-3.4.336v-.9c1.442-.154,2.352-.84,2.352-1.918C7.875-8.176,6.7-8.9,4.949-8.9s-2.94.728-2.94,1.918c0,1.078.924,1.778,2.366,1.918v.952c-1.2.042-2.366.056-3.346.056l.126.924a46.735,46.735,0,0,0,7.854-.546Zm-4.9,2.156H2.877V.756h8.386V-.182H4.025Zm6.79-4.788v-4.382H9.667v9.828h1.148V-6.188h1.834V-7.14Zm7.378-2.142h2.786v-.952h-6.79v.952h2.87v1.6a6.565,6.565,0,0,1-3.3,5.4l.672.91A7.089,7.089,0,0,0,17.633-5.53a6.776,6.776,0,0,0,3.15,3.85l.658-.924a6.039,6.039,0,0,1-3.248-5.082Zm7.5,2.828H23.625v-5.054H22.477V1.036h1.148V-5.488H25.7Z" transform="translate(1380 1869)" fill="#fff"/><path d="M-38.6,0h6.454V-1.106h-2.842c-.518,0-1.148.056-1.68.1,2.408-2.282,4.018-4.368,4.018-6.412a2.815,2.815,0,0,0-2.982-3.038,3.925,3.925,0,0,0-3.024,1.512l.742.728a2.874,2.874,0,0,1,2.128-1.19,1.8,1.8,0,0,1,1.89,2.03c0,1.764-1.484,3.808-4.7,6.622Zm17.08-2.212h1.162v-9.3h-1.162v1.624h-3.542v.924h3.542v1.484h-3.542v.91h3.542ZM-23.6-5.488a29.955,29.955,0,0,1-5.236.448v-5.572h-1.148v6.538h.952a29.767,29.767,0,0,0,5.558-.462ZM-27.265-.182V-3.01h-1.148V.756h8.372V-.182Zm21.7-11.34V1.064h1.148V-11.522Zm-5.474.966c-1.862,0-3.192,1.708-3.192,4.382s1.33,4.382,3.192,4.382S-7.847-3.5-7.847-6.174-9.177-10.556-11.039-10.556Zm0,1.036c1.218,0,2.086,1.316,2.086,3.346s-.868,3.36-2.086,3.36-2.1-1.316-2.1-3.36S-12.271-9.52-11.039-9.52Zm12.908,6.8A1.883,1.883,0,0,1-.091-4.648a1.886,1.886,0,0,1,1.96-1.946A1.89,1.89,0,0,1,3.843-4.648,1.887,1.887,0,0,1,1.869-2.716Zm0-4.83a2.862,2.862,0,0,0-3.038,2.9A2.844,2.844,0,0,0,1.869-1.764,2.852,2.852,0,0,0,4.935-4.648,2.87,2.87,0,0,0,1.869-7.546Zm.56-3.822H1.281v1.862H-1.883v.924H5.523v-.924H2.429Zm7.49,5.012H7.861v-5.152H6.713V1.036H7.861V-5.39H9.919ZM21.665-10.29H18.641v-1.274H17.493v1.274H14.455v.854h7.21Zm-5.446,3.3c0-.672.714-1.106,1.848-1.106,1.106,0,1.834.434,1.834,1.106,0,.7-.728,1.12-1.834,1.12C16.933-5.866,16.219-6.286,16.219-6.986Zm5.824,2.478a29.471,29.471,0,0,1-3.4.336v-.9c1.442-.154,2.352-.84,2.352-1.918,0-1.19-1.176-1.918-2.926-1.918s-2.94.728-2.94,1.918c0,1.078.924,1.778,2.366,1.918v.952c-1.2.042-2.366.056-3.346.056l.126.924a46.735,46.735,0,0,0,7.854-.546Zm-4.9,2.156H16V.756h8.386V-.182H17.143Zm6.79-4.788v-4.382H22.785v9.828h1.148V-6.188h1.834V-7.14Zm7.378-2.142H34.1v-.952h-6.79v.952h2.87v1.6a6.565,6.565,0,0,1-3.3,5.4l.672.91A7.089,7.089,0,0,0,30.751-5.53,6.776,6.776,0,0,0,33.9-1.68l.658-.924a6.039,6.039,0,0,1-3.248-5.082Zm7.5,2.828H36.743v-5.054H35.6V1.036h1.148V-5.488h2.072Z" transform="translate(1484 1869)" fill="#fff"/><path d="M-18.372,2.364l.684-.324a11.062,11.062,0,0,1-1.536-5.772A11.092,11.092,0,0,1-17.688-9.5l-.684-.312a11.207,11.207,0,0,0-1.764,6.084A11.248,11.248,0,0,0-18.372,2.364Zm4.32-2.208a2.857,2.857,0,0,0,2.88-3.024,2.51,2.51,0,0,0-2.652-2.8,2.558,2.558,0,0,0-1.308.348l.216-2.544h3.324v-.948h-4.284l-.276,4.128.588.36A2.393,2.393,0,0,1-14.1-4.836a1.78,1.78,0,0,1,1.824,2A1.9,1.9,0,0,1-14.148-.756a2.894,2.894,0,0,1-2.16-.972l-.54.72A3.737,3.737,0,0,0-14.052.156Zm5.088-6.264c0-1.2.648-1.992,1.488-1.992,1.128,0,1.8.96,1.92,2.772A2.305,2.305,0,0,1-7.392-4.152C-8.436-4.152-8.964-4.92-8.964-6.108ZM-7.716.156c1.656,0,3.192-1.368,3.192-4.932,0-2.8-1.26-4.188-2.952-4.188A2.641,2.641,0,0,0-10-6.108c0,1.824.96,2.772,2.424,2.772a2.737,2.737,0,0,0,2.028-1.08c-.084,2.724-1.068,3.66-2.208,3.66a1.94,1.94,0,0,1-1.464-.672l-.612.684A2.8,2.8,0,0,0-7.716.156Zm5.52,0A.793.793,0,0,0-1.4-.672.806.806,0,0,0-2.2-1.524a.806.806,0,0,0-.792.852A.793.793,0,0,0-2.2.156ZM.528,0H5.352V-.912H3.588v-7.9h-.84a5.3,5.3,0,0,1-1.824.636v.7h1.56V-.912H.528ZM8.592-3.408c1.212,0,2-1.02,2-2.8s-.792-2.76-2-2.76S6.6-7.968,6.6-6.2,7.392-3.408,8.592-3.408Zm0-.684c-.684,0-1.164-.708-1.164-2.112s.48-2.088,1.164-2.088S9.768-7.608,9.768-6.2,9.288-4.092,8.592-4.092ZM8.856.156h.732l4.86-9.12H13.7Zm5.868,0c1.2,0,1.992-1.008,1.992-2.784s-.792-2.76-1.992-2.76-2,1-2,2.76S13.524.156,14.724.156Zm0-.672c-.7,0-1.164-.708-1.164-2.112s.468-2.088,1.164-2.088,1.164.684,1.164,2.088S15.408-.516,14.724-.516Zm3.648,2.88a11.155,11.155,0,0,0,1.776-6.1,11.115,11.115,0,0,0-1.776-6.084L17.7-9.5a11.207,11.207,0,0,1,1.536,5.772A11.176,11.176,0,0,1,17.7,2.04Z" transform="translate(1262 1930)" fill="#fff"/><path d="M-18.372,2.364l.684-.324a11.062,11.062,0,0,1-1.536-5.772A11.092,11.092,0,0,1-17.688-9.5l-.684-.312a11.207,11.207,0,0,0-1.764,6.084A11.248,11.248,0,0,0-18.372,2.364ZM-16.656,0h5.532V-.948H-13.56c-.444,0-.984.048-1.44.084,2.064-1.956,3.444-3.744,3.444-5.5a2.413,2.413,0,0,0-2.556-2.6,3.364,3.364,0,0,0-2.592,1.3l.636.624a2.463,2.463,0,0,1,1.824-1.02,1.546,1.546,0,0,1,1.62,1.74c0,1.512-1.272,3.264-4.032,5.676Zm7.188,0h4.824V-.912H-6.408v-7.9h-.84a5.3,5.3,0,0,1-1.824.636v.7h1.56V-.912H-9.468ZM-2.2.156A.793.793,0,0,0-1.4-.672.806.806,0,0,0-2.2-1.524a.806.806,0,0,0-.792.852A.793.793,0,0,0-2.2.156Zm4.8,0a2.857,2.857,0,0,0,2.88-3.024,2.51,2.51,0,0,0-2.652-2.8,2.558,2.558,0,0,0-1.308.348L1.74-7.86H5.064v-.948H.78L.5-4.68l.588.36a2.393,2.393,0,0,1,1.464-.516,1.78,1.78,0,0,1,1.824,2A1.9,1.9,0,0,1,2.508-.756a2.894,2.894,0,0,1-2.16-.972l-.54.72A3.737,3.737,0,0,0,2.6.156ZM8.592-3.408c1.212,0,2-1.02,2-2.8s-.792-2.76-2-2.76S6.6-7.968,6.6-6.2,7.392-3.408,8.592-3.408Zm0-.684c-.684,0-1.164-.708-1.164-2.112s.48-2.088,1.164-2.088S9.768-7.608,9.768-6.2,9.288-4.092,8.592-4.092ZM8.856.156h.732l4.86-9.12H13.7Zm5.868,0c1.2,0,1.992-1.008,1.992-2.784s-.792-2.76-1.992-2.76-2,1-2,2.76S13.524.156,14.724.156Zm0-.672c-.7,0-1.164-.708-1.164-2.112s.468-2.088,1.164-2.088,1.164.684,1.164,2.088S15.408-.516,14.724-.516Zm3.648,2.88a11.155,11.155,0,0,0,1.776-6.1,11.115,11.115,0,0,0-1.776-6.084L17.7-9.5a11.207,11.207,0,0,1,1.536,5.772A11.176,11.176,0,0,1,17.7,2.04Z" transform="translate(1380 1917)" fill="#fff"/><path d="M-18.372,2.364l.684-.324a11.062,11.062,0,0,1-1.536-5.772A11.092,11.092,0,0,1-17.688-9.5l-.684-.312a11.207,11.207,0,0,0-1.764,6.084A11.248,11.248,0,0,0-18.372,2.364ZM-16.656,0h5.532V-.948H-13.56c-.444,0-.984.048-1.44.084,2.064-1.956,3.444-3.744,3.444-5.5a2.413,2.413,0,0,0-2.556-2.6,3.364,3.364,0,0,0-2.592,1.3l.636.624a2.463,2.463,0,0,1,1.824-1.02,1.546,1.546,0,0,1,1.62,1.74c0,1.512-1.272,3.264-4.032,5.676Zm7.692-6.108c0-1.2.648-1.992,1.488-1.992,1.128,0,1.8.96,1.92,2.772A2.305,2.305,0,0,1-7.392-4.152C-8.436-4.152-8.964-4.92-8.964-6.108ZM-7.716.156c1.656,0,3.192-1.368,3.192-4.932,0-2.8-1.26-4.188-2.952-4.188A2.641,2.641,0,0,0-10-6.108c0,1.824.96,2.772,2.424,2.772a2.737,2.737,0,0,0,2.028-1.08c-.084,2.724-1.068,3.66-2.208,3.66a1.94,1.94,0,0,1-1.464-.672l-.612.684A2.8,2.8,0,0,0-7.716.156Zm5.52,0A.793.793,0,0,0-1.4-.672.806.806,0,0,0-2.2-1.524a.806.806,0,0,0-.792.852A.793.793,0,0,0-2.2.156ZM.852-3.3l2-3c.252-.432.492-.864.708-1.3h.048c-.024.456-.06,1.164-.06,1.6v2.7ZM3.552,0H4.584V-2.424H5.748V-3.3H4.584V-8.808H3.372L-.288-3.144v.72h3.84Zm5.04-3.408c1.212,0,2-1.02,2-2.8s-.792-2.76-2-2.76S6.6-7.968,6.6-6.2,7.392-3.408,8.592-3.408Zm0-.684c-.684,0-1.164-.708-1.164-2.112s.48-2.088,1.164-2.088S9.768-7.608,9.768-6.2,9.288-4.092,8.592-4.092ZM8.856.156h.732l4.86-9.12H13.7Zm5.868,0c1.2,0,1.992-1.008,1.992-2.784s-.792-2.76-1.992-2.76-2,1-2,2.76S13.524.156,14.724.156Zm0-.672c-.7,0-1.164-.708-1.164-2.112s.468-2.088,1.164-2.088,1.164.684,1.164,2.088S15.408-.516,14.724-.516Zm3.648,2.88a11.155,11.155,0,0,0,1.776-6.1,11.115,11.115,0,0,0-1.776-6.084L17.7-9.5a11.207,11.207,0,0,1,1.536,5.772A11.176,11.176,0,0,1,17.7,2.04Z" transform="translate(1484 1917)" fill="#fff"/><path d="M-41.181,0h5.88V-1.33h-2.016v-8.988h-1.218a6.06,6.06,0,0,1-2.24.8V-8.5h1.848V-1.33h-2.254Zm7.392,0h6.65V-1.372h-2.576c-.5,0-1.148.042-1.68.1,2.184-2.086,3.766-4.144,3.766-6.132A2.914,2.914,0,0,0-30.737-10.5a4,4,0,0,0-3.136,1.54l.91.9a2.8,2.8,0,0,1,2.03-1.148,1.673,1.673,0,0,1,1.75,1.89c0,1.694-1.568,3.7-4.606,6.384Zm11.55-5.264c1.106,0,1.708.742,1.708,2.058,0,1.344-.714,2.156-1.61,2.156-1.106,0-1.848-.966-2.016-3.01A2.417,2.417,0,0,1-22.239-5.264Zm.112,5.446a3.153,3.153,0,0,0,3.08-3.388c0-2.17-1.162-3.234-2.9-3.234a3.1,3.1,0,0,0-2.24,1.19c.07-2.94,1.162-3.934,2.478-3.934a2.214,2.214,0,0,1,1.61.77l.882-.98A3.46,3.46,0,0,0-21.791-10.5c-2.03,0-3.892,1.582-3.892,5.544C-25.683-1.456-24.087.182-22.127.182Zm9.338-5.852h-3.08V-9.324h3.08Zm1.414-4.816H-17.3v5.978h5.922Zm-3.038,7.28h-1.456V.84h8.512V-.336h-7.056Zm6.552-4.606v-3.766H-9.3V-2.31h1.442V-6.622h1.792v-1.19ZM1.589.182c1.988,0,3.332-1.176,3.332-2.7A3.012,3.012,0,0,0,3.185-5.25v-.07A3.2,3.2,0,0,0,4.543-7.742a2.661,2.661,0,0,0-2.912-2.73,2.691,2.691,0,0,0-2.94,2.66A2.913,2.913,0,0,0,.077-5.4v.07A3.156,3.156,0,0,0-1.771-2.562C-1.771-.966-.343.182,1.589.182Zm.672-5.908C1.113-6.174.133-6.692.133-7.812A1.411,1.411,0,0,1,1.6-9.31,1.529,1.529,0,0,1,3.185-7.644,2.608,2.608,0,0,1,2.261-5.726ZM1.617-.98A1.8,1.8,0,0,1-.343-2.716a2.629,2.629,0,0,1,1.2-2.156C2.261-4.3,3.4-3.822,3.4-2.562A1.587,1.587,0,0,1,1.617-.98ZM6.181,0h6.65V-1.372H10.255c-.5,0-1.148.042-1.68.1,2.184-2.086,3.766-4.144,3.766-6.132A2.914,2.914,0,0,0,9.233-10.5,4,4,0,0,0,6.1-8.96l.91.9a2.8,2.8,0,0,1,2.03-1.148,1.673,1.673,0,0,1,1.75,1.89c0,1.694-1.568,3.7-4.606,6.384Zm11.55-5.264c1.106,0,1.708.742,1.708,2.058,0,1.344-.714,2.156-1.61,2.156-1.106,0-1.848-.966-2.016-3.01A2.417,2.417,0,0,1,17.731-5.264ZM17.843.182a3.153,3.153,0,0,0,3.08-3.388c0-2.17-1.162-3.234-2.9-3.234a3.1,3.1,0,0,0-2.24,1.19c.07-2.94,1.162-3.934,2.478-3.934a2.214,2.214,0,0,1,1.61.77l.882-.98A3.46,3.46,0,0,0,18.179-10.5c-2.03,0-3.892,1.582-3.892,5.544C14.287-1.456,15.883.182,17.843.182Zm7.434,0a3.4,3.4,0,0,0,3.472-3.57,2.963,2.963,0,0,0-3.136-3.276A2.946,2.946,0,0,0,24.2-6.3l.238-2.646h3.822v-1.372H23.037l-.308,4.9.784.518a2.711,2.711,0,0,1,1.652-.588,1.911,1.911,0,0,1,1.96,2.156,2.014,2.014,0,0,1-2.044,2.2A3.3,3.3,0,0,1,22.673-2.24L21.9-1.19A4.56,4.56,0,0,0,25.277.182Zm9.94-6.258H32.179v-3.4h3.038Zm4.032-2.366v1.33H36.617v-1.33ZM36.617-5.936h2.632v1.82h1.442v-7.448H39.249v1.946H36.617v-1.008H30.765v5.7h5.852Zm-.14,5.894c-1.792,0-2.814-.462-2.814-1.3s1.022-1.288,2.814-1.288,2.828.462,2.828,1.288S38.269-.042,36.477-.042Zm0-3.724c-2.632,0-4.256.9-4.256,2.422s1.624,2.422,4.256,2.422,4.27-.9,4.27-2.422S39.123-3.766,36.477-3.766Z" transform="translate(1262 1902)" fill="#f2d778"/><path d="M-36.491-4.018l2.03-3.108c.294-.532.574-1.064.826-1.6h.056c-.028.574-.07,1.442-.07,2v2.7ZM-33.649,0h1.512V-2.772h1.3V-4.018h-1.3v-6.3h-1.876l-4.1,6.468v1.078h4.466Zm7.42-5.264c1.106,0,1.708.742,1.708,2.058,0,1.344-.714,2.156-1.61,2.156-1.106,0-1.848-.966-2.016-3.01A2.417,2.417,0,0,1-26.229-5.264Zm.112,5.446a3.153,3.153,0,0,0,3.08-3.388c0-2.17-1.162-3.234-2.9-3.234a3.1,3.1,0,0,0-2.24,1.19c.07-2.94,1.162-3.934,2.478-3.934a2.214,2.214,0,0,1,1.61.77l.882-.98A3.46,3.46,0,0,0-25.781-10.5c-2.03,0-3.892,1.582-3.892,5.544C-29.673-1.456-28.077.182-26.117.182Zm9.338-5.852h-3.08V-9.324h3.08Zm1.414-4.816h-5.922v5.978h5.922ZM-18.4-3.206h-1.456V.84h8.512V-.336H-18.4Zm6.552-4.606v-3.766h-1.442V-2.31h1.442V-6.622h1.792v-1.19ZM-5.789,0H.861V-1.372H-1.715c-.5,0-1.148.042-1.68.1C-1.211-3.36.371-5.418.371-7.406A2.914,2.914,0,0,0-2.737-10.5,4,4,0,0,0-5.873-8.96l.91.9a2.8,2.8,0,0,1,2.03-1.148,1.673,1.673,0,0,1,1.75,1.89c0,1.694-1.568,3.7-4.606,6.384Zm7.98,0h6.65V-1.372H6.265c-.5,0-1.148.042-1.68.1C6.769-3.36,8.351-5.418,8.351-7.406A2.914,2.914,0,0,0,5.243-10.5,4,4,0,0,0,2.107-8.96l.91.9a2.8,2.8,0,0,1,2.03-1.148A1.673,1.673,0,0,1,6.8-7.322c0,1.694-1.568,3.7-4.606,6.384Zm11.55-5.264c1.106,0,1.708.742,1.708,2.058,0,1.344-.714,2.156-1.61,2.156-1.106,0-1.848-.966-2.016-3.01A2.417,2.417,0,0,1,13.741-5.264ZM13.853.182a3.153,3.153,0,0,0,3.08-3.388c0-2.17-1.162-3.234-2.9-3.234A3.1,3.1,0,0,0,11.8-5.25c.07-2.94,1.162-3.934,2.478-3.934a2.214,2.214,0,0,1,1.61.77l.882-.98A3.46,3.46,0,0,0,14.189-10.5c-2.03,0-3.892,1.582-3.892,5.544C10.3-1.456,11.893.182,13.853.182Zm7.434,0a3.4,3.4,0,0,0,3.472-3.57,2.963,2.963,0,0,0-3.136-3.276,2.946,2.946,0,0,0-1.414.364l.238-2.646h3.822v-1.372H19.047l-.308,4.9.784.518a2.711,2.711,0,0,1,1.652-.588,1.911,1.911,0,0,1,1.96,2.156,2.014,2.014,0,0,1-2.044,2.2A3.3,3.3,0,0,1,18.683-2.24l-.77,1.05A4.56,4.56,0,0,0,21.287.182Zm9.94-6.258H28.189v-3.4h3.038Zm4.032-2.366v1.33H32.627v-1.33ZM32.627-5.936h2.632v1.82H36.7v-7.448H35.259v1.946H32.627v-1.008H26.775v5.7h5.852Zm-.14,5.894c-1.792,0-2.814-.462-2.814-1.3s1.022-1.288,2.814-1.288,2.828.462,2.828,1.288S34.279-.042,32.487-.042Zm0-3.724c-2.632,0-4.256.9-4.256,2.422s1.624,2.422,4.256,2.422,4.27-.9,4.27-2.422S35.133-3.766,32.487-3.766Z" transform="translate(1380 1889)" fill="#f2d778"/><path d="M-36.491-4.018l2.03-3.108c.294-.532.574-1.064.826-1.6h.056c-.028.574-.07,1.442-.07,2v2.7ZM-33.649,0h1.512V-2.772h1.3V-4.018h-1.3v-6.3h-1.876l-4.1,6.468v1.078h4.466Zm7.42-5.264c1.106,0,1.708.742,1.708,2.058,0,1.344-.714,2.156-1.61,2.156-1.106,0-1.848-.966-2.016-3.01A2.417,2.417,0,0,1-26.229-5.264Zm.112,5.446a3.153,3.153,0,0,0,3.08-3.388c0-2.17-1.162-3.234-2.9-3.234a3.1,3.1,0,0,0-2.24,1.19c.07-2.94,1.162-3.934,2.478-3.934a2.214,2.214,0,0,1,1.61.77l.882-.98A3.46,3.46,0,0,0-25.781-10.5c-2.03,0-3.892,1.582-3.892,5.544C-29.673-1.456-28.077.182-26.117.182Zm9.338-5.852h-3.08V-9.324h3.08Zm1.414-4.816h-5.922v5.978h5.922ZM-18.4-3.206h-1.456V.84h8.512V-.336H-18.4Zm6.552-4.606v-3.766h-1.442V-2.31h1.442V-6.622h1.792v-1.19Zm9.632,2.548c1.106,0,1.708.742,1.708,2.058,0,1.344-.714,2.156-1.61,2.156-1.106,0-1.848-.966-2.016-3.01A2.417,2.417,0,0,1-2.219-5.264ZM-2.107.182A3.153,3.153,0,0,0,.973-3.206c0-2.17-1.162-3.234-2.9-3.234a3.1,3.1,0,0,0-2.24,1.19C-4.1-8.19-3-9.184-1.687-9.184a2.214,2.214,0,0,1,1.61.77L.8-9.394A3.46,3.46,0,0,0-1.771-10.5c-2.03,0-3.892,1.582-3.892,5.544C-5.663-1.456-4.067.182-2.107.182ZM3.675-7.112c0-1.344.7-2.142,1.582-2.142,1.12,0,1.89.924,2.044,2.954a2.449,2.449,0,0,1-1.96,1.26C4.263-5.04,3.675-5.8,3.675-7.112ZM4.977.182C6.965.182,8.813-1.442,8.813-5.5c0-3.416-1.6-5-3.57-5A3.151,3.151,0,0,0,2.177-7.112c0,2.156,1.162,3.234,2.884,3.234a3.1,3.1,0,0,0,2.268-1.2c-.1,2.94-1.176,3.948-2.422,3.948a2.29,2.29,0,0,1-1.68-.77L2.345-.91A3.536,3.536,0,0,0,4.977.182ZM12.257,0h1.652c.168-4.032.546-6.314,2.968-9.324v-.994H10.241v1.372h4.844C13.1-6.174,12.439-3.766,12.257,0Zm9.03.182c1.89,0,3.444-1.092,3.444-2.954A2.609,2.609,0,0,0,22.6-5.348v-.07A2.491,2.491,0,0,0,24.381-7.84c0-1.694-1.3-2.66-3.15-2.66a4.343,4.343,0,0,0-2.954,1.246l.84,1.008a3,3,0,0,1,2.058-.966,1.432,1.432,0,0,1,1.582,1.484c0,1.036-.672,1.806-2.7,1.806v1.19c2.324,0,3.052.742,3.052,1.876a1.733,1.733,0,0,1-1.96,1.722,3.33,3.33,0,0,1-2.436-1.134l-.784,1.036A4.277,4.277,0,0,0,21.287.182Zm9.94-6.258H28.189v-3.4h3.038Zm4.032-2.366v1.33H32.627v-1.33ZM32.627-5.936h2.632v1.82H36.7v-7.448H35.259v1.946H32.627v-1.008H26.775v5.7h5.852Zm-.14,5.894c-1.792,0-2.814-.462-2.814-1.3s1.022-1.288,2.814-1.288,2.828.462,2.828,1.288S34.279-.042,32.487-.042Zm0-3.724c-2.632,0-4.256.9-4.256,2.422s1.624,2.422,4.256,2.422,4.27-.9,4.27-2.422S35.133-3.766,32.487-3.766Z" transform="translate(1484 1889)" fill="#f2d778"/><path d="M.6,0H7.546V-1.736H5.306c-.49,0-1.176.056-1.694.112C5.5-3.472,7.056-5.488,7.056-7.364a3.039,3.039,0,0,0-3.262-3.192A4.159,4.159,0,0,0,.5-8.988l1.12,1.12a2.711,2.711,0,0,1,1.9-1.064,1.48,1.48,0,0,1,1.554,1.68c0,1.6-1.666,3.542-4.48,6.062ZM9.394,0h6.23V-1.666H13.678v-8.708H12.152a6.463,6.463,0,0,1-2.408.882v1.274H11.62v6.552H9.394Zm9.394-4.256L20.4-6.832c.294-.56.574-1.134.826-1.694h.056c-.028.616-.07,1.554-.07,2.156v2.114ZM21.21,0h1.918V-2.688h1.218V-4.256H23.128v-6.118H20.65L16.786-4.088v1.4H21.21Zm8.834-5.866h-2.52v-3.3h2.52Zm1.82-4.76H25.718V-4.41h6.146Zm-2.842,7.42H27.174V.98h8.778V-.49h-6.93Zm6.468-4.76V-11.69H33.642v9.408H35.49V-6.454H37.2V-7.966ZM43.4,0h2.086c.168-4.06.49-6.174,2.9-9.114v-1.26H41.5v1.736h4.662C44.184-5.894,43.582-3.6,43.4,0Zm6.818,2.982A3.516,3.516,0,0,0,52.864-.462c0-1.274-.532-2.03-1.484-2.03a1.238,1.238,0,0,0-1.33,1.218A1.209,1.209,0,0,0,51.338-.056h.126c.014.784-.588,1.512-1.68,1.918ZM57.456.2a3.5,3.5,0,0,0,3.626-3.64,3.008,3.008,0,0,0-3.192-3.29,2.721,2.721,0,0,0-1.246.294l.2-2.2h3.766v-1.736H55.062l-.28,5.04.938.616a2.479,2.479,0,0,1,1.554-.546,1.677,1.677,0,0,1,1.75,1.876,1.74,1.74,0,0,1-1.834,1.9,3.22,3.22,0,0,1-2.282-1.05l-.952,1.316A4.722,4.722,0,0,0,57.456.2Zm8.512,0c2.114,0,3.5-1.848,3.5-5.418s-1.386-5.334-3.5-5.334-3.514,1.75-3.514,5.334S63.854.2,65.968.2Zm0-1.61c-.9,0-1.568-.9-1.568-3.808s.672-3.738,1.568-3.738,1.554.84,1.554,3.738S66.864-1.414,65.968-1.414ZM73.92.2c1.974,0,3.64-1.106,3.64-3.01A2.591,2.591,0,0,0,75.5-5.362v-.07A2.459,2.459,0,0,0,77.224-7.8c0-1.764-1.358-2.758-3.36-2.758a4.6,4.6,0,0,0-3.108,1.274l1.05,1.26a2.816,2.816,0,0,1,1.96-.91,1.222,1.222,0,0,1,1.386,1.288c0,.924-.616,1.582-2.52,1.582v1.47c2.254,0,2.856.644,2.856,1.652,0,.938-.714,1.456-1.764,1.456a3.291,3.291,0,0,1-2.31-1.064l-.966,1.3A4.4,4.4,0,0,0,73.92.2Zm9.814-6.482h-2.45V-9.3h2.45Zm4.13-2.072v1.106H85.54V-8.358ZM85.54-5.782h2.324V-4.13h1.848v-7.56H87.864v1.862H85.54v-.938H79.464V-4.83H85.54Zm-.2,5.572c-1.68,0-2.562-.35-2.562-1.092s.882-1.092,2.562-1.092,2.576.35,2.576,1.092S87.038-.21,85.344-.21Zm0-3.6c-2.73,0-4.41.924-4.41,2.506S82.614,1.2,85.344,1.2,89.768.28,89.768-1.3,88.088-3.808,85.344-3.808Z" transform="translate(1287 1978)" fill="#111"/><path d="M1.056,0H5.88V-.912H4.116v-7.9h-.84a5.3,5.3,0,0,1-1.824.636v.7h1.56V-.912H1.056ZM8.22-6.108c0-1.2.648-1.992,1.488-1.992,1.128,0,1.8.96,1.92,2.772A2.305,2.305,0,0,1,9.792-4.152C8.748-4.152,8.22-4.92,8.22-6.108ZM9.468.156c1.656,0,3.192-1.368,3.192-4.932,0-2.8-1.26-4.188-2.952-4.188a2.641,2.641,0,0,0-2.52,2.856c0,1.824.96,2.772,2.424,2.772a2.737,2.737,0,0,0,2.028-1.08c-.084,2.724-1.068,3.66-2.208,3.66a1.94,1.94,0,0,1-1.464-.672l-.612.684A2.8,2.8,0,0,0,9.468.156ZM14.88-6.108c0-1.2.648-1.992,1.488-1.992,1.128,0,1.8.96,1.92,2.772a2.305,2.305,0,0,1-1.836,1.176C15.408-4.152,14.88-4.92,14.88-6.108ZM16.128.156c1.656,0,3.192-1.368,3.192-4.932,0-2.8-1.26-4.188-2.952-4.188a2.641,2.641,0,0,0-2.52,2.856c0,1.824.96,2.772,2.424,2.772A2.737,2.737,0,0,0,18.3-4.416c-.084,2.724-1.068,3.66-2.208,3.66a1.94,1.94,0,0,1-1.464-.672l-.612.684A2.8,2.8,0,0,0,16.128.156ZM21.54-6.108c0-1.2.648-1.992,1.488-1.992,1.128,0,1.8.96,1.92,2.772a2.305,2.305,0,0,1-1.836,1.176C22.068-4.152,21.54-4.92,21.54-6.108ZM22.788.156c1.656,0,3.192-1.368,3.192-4.932,0-2.8-1.26-4.188-2.952-4.188a2.641,2.641,0,0,0-2.52,2.856c0,1.824.96,2.772,2.424,2.772a2.737,2.737,0,0,0,2.028-1.08c-.084,2.724-1.068,3.66-2.208,3.66a1.94,1.94,0,0,1-1.464-.672l-.612.684A2.8,2.8,0,0,0,22.788.156Zm8.364-3.6a2.023,2.023,0,0,0,1.668-1.2L32.2-5.088c-.3.576-.636.816-1.02.816-.756,0-1.32-1.128-2.376-1.128a2.024,2.024,0,0,0-1.68,1.2l.612.432c.312-.576.648-.816,1.032-.816C29.52-4.584,30.1-3.444,31.152-3.444ZM33.828,0H39.36V-.948H36.924c-.444,0-.984.048-1.44.084,2.064-1.956,3.444-3.744,3.444-5.5a2.413,2.413,0,0,0-2.556-2.6,3.364,3.364,0,0,0-2.592,1.3l.636.624a2.463,2.463,0,0,1,1.824-1.02,1.546,1.546,0,0,1,1.62,1.74c0,1.512-1.272,3.264-4.032,5.676ZM43.3.156c1.668,0,2.736-1.524,2.736-4.584S44.964-8.964,43.3-8.964s-2.748,1.476-2.748,4.536S41.616.156,43.3.156Zm0-.876c-1.008,0-1.68-1.116-1.68-3.708,0-2.568.672-3.66,1.68-3.66S44.964-7,44.964-4.428C44.964-1.836,44.292-.72,43.3-.72Zm4.38.72H52.5V-.912H50.736v-7.9H49.9a5.3,5.3,0,0,1-1.824.636v.7h1.56V-.912H47.676ZM54.84-6.108c0-1.2.648-1.992,1.488-1.992,1.128,0,1.8.96,1.92,2.772a2.305,2.305,0,0,1-1.836,1.176C55.368-4.152,54.84-4.92,54.84-6.108ZM56.088.156c1.656,0,3.192-1.368,3.192-4.932,0-2.8-1.26-4.188-2.952-4.188a2.641,2.641,0,0,0-2.52,2.856c0,1.824.96,2.772,2.424,2.772a2.737,2.737,0,0,0,2.028-1.08c-.084,2.724-1.068,3.66-2.208,3.66a1.94,1.94,0,0,1-1.464-.672l-.612.684A2.8,2.8,0,0,0,56.088.156ZM68.448-1.9h1V-9.864h-1v1.392H65.412v.792h3.036v1.272H65.412v.78h3.036ZM66.672-4.7a25.676,25.676,0,0,1-4.488.384V-9.1H61.2v5.6h.816a25.515,25.515,0,0,0,4.764-.4ZM63.528-.156V-2.58h-.984V.648H69.72v-.8ZM75.468-6.7A1.71,1.71,0,0,1,77.3-8.412,1.724,1.724,0,0,1,79.164-6.7a1.722,1.722,0,0,1-1.86,1.7A1.708,1.708,0,0,1,75.468-6.7Zm4.656,0A2.581,2.581,0,0,0,77.3-9.228a2.567,2.567,0,0,0-2.8,2.532,2.567,2.567,0,0,0,2.8,2.532A2.581,2.581,0,0,0,80.124-6.7ZM76.86-2.352h4.824v2.3H76.86ZM75.9.744h6.756V-3.132H75.9Zm8.352-7.98h-1.6V-9.864h-.984v6.216h.984V-6.42h1.6ZM91.74-8.892H89.148V-9.948h-.984v1.056h-2.6v.744h6.18ZM87.072-6.156c0-.564.612-.912,1.584-.912.948,0,1.572.348,1.572.912s-.624.924-1.572.924C87.684-5.232,87.072-5.592,87.072-6.156Zm4.992,2.064a28.61,28.61,0,0,1-2.916.264v-.744c1.236-.132,2.016-.708,2.016-1.584,0-.984-1.008-1.6-2.508-1.6-1.524,0-2.52.612-2.52,1.6,0,.888.78,1.464,2.028,1.584v.78c-1.032.036-2.016.036-2.868.036l.108.792a42.432,42.432,0,0,0,6.732-.42ZM86.6-1.332h6.1V.888h.984v-3H86.6Zm8.652-5.28H93.684V-9.864H92.7v7.212h.984V-5.8h1.572Zm9.96-3.252h-.984v7.872h.984ZM102.96-4.308a3.665,3.665,0,0,1-2.7-3.288v-.588H102.7v-.792h-5.9v.792h2.46V-7.6a3.832,3.832,0,0,1-2.724,3.5l.516.768a4.513,4.513,0,0,0,2.724-2.652,4.572,4.572,0,0,0,2.712,2.448ZM99.276-.156v-2.58h-.984V.648h7.248v-.8Z" transform="translate(1383 1977)" fill="#111"/></g></svg>