<svg xmlns="http://www.w3.org/2000/svg" xmlns:xlink="http://www.w3.org/1999/xlink" width="511" height="290.185" viewBox="0 0 511 290.185"><defs><clipPath id="a"><rect width="36" height="36" fill="#9f3f84" stroke="#fff" stroke-width="1.4"/></clipPath></defs><g transform="translate(-413 -615)"><path d="M76.124,178.973l16.866-58.03A49.144,49.144,0,0,1,56.745,79.205L.032,76.721C.027,77.158,0,77.589,0,78.027A105.021,105.021,0,0,0,76.124,178.973" transform="translate(415.461 653.794)" fill="#e5ebf5"/><path d="M178.28,120.2,126.117,94.94a49.143,49.143,0,0,1-52.929,19.6l-16.865,58.03A104.969,104.969,0,0,0,178.28,120.2" transform="translate(435.263 660.199)" fill="#2e61cf"/><path d="M160.088,129.9a104.516,104.516,0,0,0,11.96-48.658,107.261,107.261,0,0,0-.917-13.746L116.668,76.3c0,.086,0,.271,0,.358a48.871,48.871,0,0,1-8.724,27.932Z" transform="translate(453.413 650.583)" fill="#7a4576"/><path d="M94.954,1.417,85.282,51.784a49.127,49.127,0,0,1,39.349,47.883l54.474-8.814A105.042,105.042,0,0,0,94.954,1.417" transform="translate(445.445 627.318)" fill="#b2558d"/><path d="M.027,103.564l56.7,2.554A49.141,49.141,0,0,1,115.358,52.3l9.764-50.351A104.964,104.964,0,0,0,.027,103.564" transform="translate(415.471 626.819)" fill="#48174e"/><path d="M0,0H210V210H0Z" transform="translate(415.461 626.82)" fill="none"/><path d="M90.918,195.931A104.978,104.978,0,0,0,182.361,39.8l-46.313,26.34a49.013,49.013,0,0,1-66.438,64.211l-28.448,53a104.107,104.107,0,0,0,49.757,12.58" transform="translate(696.54 640.788)" fill="#353535"/><path d="M6.177,52.2A105.095,105.095,0,0,0,55.365,179l28.451-53A49.107,49.107,0,0,1,57.888,71.059Z" transform="translate(682.335 645.137)" fill="#83d3e3"/><path d="M143.61,23.727l-37.5,36.525a49.139,49.139,0,0,1,7.366,11.657L159.87,45.681A105.277,105.277,0,0,0,143.61,23.727" transform="translate(719.164 635.146)" fill="#55747c"/><path d="M101.2,2.532,87.96,52.11a48.985,48.985,0,0,1,24.6,15.726l37.631-36.4A104.591,104.591,0,0,0,101.2,2.532" transform="translate(712.841 627.708)" fill="#3cb4c3"/><path d="M4.679,70.512,56.39,89.376A48.957,48.957,0,0,1,116.968,53L130.21,3.421A104.731,104.731,0,0,0,4.679,70.512" transform="translate(683.833 626.82)" fill="#2e848e"/><path d="M0,0H210V210H0Z" transform="translate(682.203 626.82)" fill="none"/><path d="M.944-8.352A4.322,4.322,0,0,1,1.4-9.784a3.38,3.38,0,0,1,.836-1.028,3.533,3.533,0,0,1,1.156-.624A4.542,4.542,0,0,1,4.8-11.648a4.2,4.2,0,0,1,1.4.22,3.286,3.286,0,0,1,1.08.612,2.673,2.673,0,0,1,.7.936,2.879,2.879,0,0,1,.244,1.192,3.246,3.246,0,0,1-.132.972,2.39,2.39,0,0,1-.376.74,2.167,2.167,0,0,1-.6.536,3.721,3.721,0,0,1-.792.36,3.05,3.05,0,0,1,1.608,1,2.7,2.7,0,0,1,.536,1.716,3.371,3.371,0,0,1-.312,1.48,3.266,3.266,0,0,1-.844,1.1,3.738,3.738,0,0,1-1.24.684,4.713,4.713,0,0,1-1.5.236A4.959,4.959,0,0,1,3.032-.084,3.289,3.289,0,0,1,1.916-.692a3.417,3.417,0,0,1-.78-.956A6.584,6.584,0,0,1,.608-2.9l.744-.312a.924.924,0,0,1,.564-.072.534.534,0,0,1,.388.3q.128.256.288.548A2.249,2.249,0,0,0,3-1.908a2.109,2.109,0,0,0,.624.408,2.269,2.269,0,0,0,.916.164,2.392,2.392,0,0,0,.964-.18A2.14,2.14,0,0,0,6.2-1.98a1.878,1.878,0,0,0,.412-.636,1.921,1.921,0,0,0,.136-.7,2.889,2.889,0,0,0-.1-.8,1.255,1.255,0,0,0-.4-.62,2.167,2.167,0,0,0-.848-.4A5.675,5.675,0,0,0,3.952-5.28V-6.52A4.816,4.816,0,0,0,5.18-6.668a2.194,2.194,0,0,0,.8-.384,1.392,1.392,0,0,0,.432-.588,2.082,2.082,0,0,0,.132-.752,2.057,2.057,0,0,0-.136-.776,1.561,1.561,0,0,0-.38-.564,1.56,1.56,0,0,0-.58-.34,2.342,2.342,0,0,0-.744-.112,2.252,2.252,0,0,0-.724.112,2.023,2.023,0,0,0-.592.312,1.853,1.853,0,0,0-.436.476,1.993,1.993,0,0,0-.256.6.78.78,0,0,1-.3.44.8.8,0,0,1-.548.048ZM13.9-1.3a2.552,2.552,0,0,0,.952-.172,2.195,2.195,0,0,0,.74-.476,2.108,2.108,0,0,0,.476-.72,2.392,2.392,0,0,0,.168-.9,2.589,2.589,0,0,0-.164-.948,1.948,1.948,0,0,0-.464-.708,2.062,2.062,0,0,0-.72-.444,2.635,2.635,0,0,0-.924-.156,2.41,2.41,0,0,0-.94.176,2.14,2.14,0,0,0-.716.48,2.116,2.116,0,0,0-.456.712,2.345,2.345,0,0,0-.16.864,2.9,2.9,0,0,0,.144.936,1.977,1.977,0,0,0,.424.724,1.926,1.926,0,0,0,.692.468A2.5,2.5,0,0,0,13.9-1.3ZM13.272-7.28l-.244.3q-.116.144-.228.288a3.513,3.513,0,0,1,.808-.328,3.576,3.576,0,0,1,.944-.12,3.8,3.8,0,0,1,1.288.22,3.1,3.1,0,0,1,1.084.656,3.194,3.194,0,0,1,.748,1.08,3.692,3.692,0,0,1,.28,1.484,3.827,3.827,0,0,1-.292,1.5,3.65,3.65,0,0,1-.82,1.212,3.871,3.871,0,0,1-1.268.816,4.316,4.316,0,0,1-1.636.3A4.318,4.318,0,0,1,12.32-.16a3.492,3.492,0,0,1-1.228-.812,3.554,3.554,0,0,1-.78-1.26,4.7,4.7,0,0,1-.272-1.64,4.484,4.484,0,0,1,.336-1.64,7.872,7.872,0,0,1,1.04-1.8l2.832-3.8a1.025,1.025,0,0,1,.372-.288,1.225,1.225,0,0,1,.548-.12h1.52Zm11.16-1.456a3.176,3.176,0,0,1-.212,1.192,2.75,2.75,0,0,1-.572.9,2.46,2.46,0,0,1-.832.568,2.561,2.561,0,0,1-.992.2,2.7,2.7,0,0,1-1.036-.2,2.329,2.329,0,0,1-.824-.568,2.7,2.7,0,0,1-.548-.9,3.346,3.346,0,0,1-.2-1.192,3.5,3.5,0,0,1,.2-1.22,2.677,2.677,0,0,1,.548-.912,2.375,2.375,0,0,1,.824-.572,2.647,2.647,0,0,1,1.036-.2,2.647,2.647,0,0,1,1.036.2,2.374,2.374,0,0,1,.824.572,2.677,2.677,0,0,1,.548.912A3.5,3.5,0,0,1,24.432-8.736Zm-1.328,0a2.967,2.967,0,0,0-.1-.828,1.571,1.571,0,0,0-.272-.552.979.979,0,0,0-.408-.3,1.364,1.364,0,0,0-.5-.092,1.355,1.355,0,0,0-.5.092.956.956,0,0,0-.4.3,1.565,1.565,0,0,0-.264.552,3.084,3.084,0,0,0-.1.828,2.916,2.916,0,0,0,.1.808,1.483,1.483,0,0,0,.264.532.949.949,0,0,0,.4.292,1.41,1.41,0,0,0,.5.088,1.419,1.419,0,0,0,.5-.088.973.973,0,0,0,.408-.292A1.49,1.49,0,0,0,23-7.928,2.805,2.805,0,0,0,23.1-8.736Zm5.28-2.5a.932.932,0,0,1,.212-.2.616.616,0,0,1,.348-.084h1.24L21.7-.264a.774.774,0,0,1-.216.188A.6.6,0,0,1,21.168,0h-1.28Zm2.5,8.528a3.124,3.124,0,0,1-.216,1.192,2.756,2.756,0,0,1-.576.9,2.487,2.487,0,0,1-.832.564,2.561,2.561,0,0,1-.992.2,2.7,2.7,0,0,1-1.036-.2A2.354,2.354,0,0,1,26.4-.624a2.6,2.6,0,0,1-.544-.9,3.407,3.407,0,0,1-.2-1.192,3.559,3.559,0,0,1,.2-1.22,2.671,2.671,0,0,1,.544-.916,2.305,2.305,0,0,1,.824-.572,2.7,2.7,0,0,1,1.036-.2,2.725,2.725,0,0,1,1.04.2,2.3,2.3,0,0,1,.828.572,2.721,2.721,0,0,1,.548.916A3.5,3.5,0,0,1,30.88-2.712Zm-1.328,0a2.967,2.967,0,0,0-.1-.828,1.53,1.53,0,0,0-.276-.552,1.008,1.008,0,0,0-.412-.3,1.364,1.364,0,0,0-.5-.092,1.333,1.333,0,0,0-.5.092.985.985,0,0,0-.4.3,1.524,1.524,0,0,0-.268.552,3.084,3.084,0,0,0-.1.828,2.916,2.916,0,0,0,.1.808,1.444,1.444,0,0,0,.268.532.978.978,0,0,0,.4.292,1.387,1.387,0,0,0,.5.088,1.419,1.419,0,0,0,.5-.088,1,1,0,0,0,.412-.292,1.452,1.452,0,0,0,.276-.532A2.805,2.805,0,0,0,29.552-2.712Z" transform="translate(454 680)" fill="#f2f2f2"/><path d="M.944-8.352A4.322,4.322,0,0,1,1.4-9.784a3.38,3.38,0,0,1,.836-1.028,3.533,3.533,0,0,1,1.156-.624A4.542,4.542,0,0,1,4.8-11.648a4.2,4.2,0,0,1,1.4.22,3.286,3.286,0,0,1,1.08.612,2.673,2.673,0,0,1,.7.936,2.879,2.879,0,0,1,.244,1.192,3.246,3.246,0,0,1-.132.972,2.39,2.39,0,0,1-.376.74,2.167,2.167,0,0,1-.6.536,3.721,3.721,0,0,1-.792.36,3.05,3.05,0,0,1,1.608,1,2.7,2.7,0,0,1,.536,1.716,3.371,3.371,0,0,1-.312,1.48,3.266,3.266,0,0,1-.844,1.1,3.738,3.738,0,0,1-1.24.684,4.713,4.713,0,0,1-1.5.236A4.959,4.959,0,0,1,3.032-.084,3.289,3.289,0,0,1,1.916-.692a3.417,3.417,0,0,1-.78-.956A6.584,6.584,0,0,1,.608-2.9l.744-.312a.924.924,0,0,1,.564-.072.534.534,0,0,1,.388.3q.128.256.288.548A2.249,2.249,0,0,0,3-1.908a2.109,2.109,0,0,0,.624.408,2.269,2.269,0,0,0,.916.164,2.392,2.392,0,0,0,.964-.18A2.14,2.14,0,0,0,6.2-1.98a1.878,1.878,0,0,0,.412-.636,1.921,1.921,0,0,0,.136-.7,2.889,2.889,0,0,0-.1-.8,1.255,1.255,0,0,0-.4-.62,2.167,2.167,0,0,0-.848-.4A5.675,5.675,0,0,0,3.952-5.28V-6.52A4.816,4.816,0,0,0,5.18-6.668a2.194,2.194,0,0,0,.8-.384,1.392,1.392,0,0,0,.432-.588,2.082,2.082,0,0,0,.132-.752,2.057,2.057,0,0,0-.136-.776,1.561,1.561,0,0,0-.38-.564,1.56,1.56,0,0,0-.58-.34,2.342,2.342,0,0,0-.744-.112,2.252,2.252,0,0,0-.724.112,2.023,2.023,0,0,0-.592.312,1.853,1.853,0,0,0-.436.476,1.993,1.993,0,0,0-.256.6.78.78,0,0,1-.3.44.8.8,0,0,1-.548.048ZM13.92-1.232a2.711,2.711,0,0,0,.928-.148,1.892,1.892,0,0,0,.684-.416,1.778,1.778,0,0,0,.42-.636,2.176,2.176,0,0,0,.144-.8,2.312,2.312,0,0,0-.164-.912,1.714,1.714,0,0,0-.456-.636,1.91,1.91,0,0,0-.692-.376,2.9,2.9,0,0,0-.864-.124,2.9,2.9,0,0,0-.864.124,1.91,1.91,0,0,0-.692.376,1.714,1.714,0,0,0-.456.636,2.312,2.312,0,0,0-.164.912,2.176,2.176,0,0,0,.144.8,1.778,1.778,0,0,0,.42.636,1.892,1.892,0,0,0,.684.416A2.711,2.711,0,0,0,13.92-1.232Zm0-9.1a2.2,2.2,0,0,0-.828.144A1.681,1.681,0,0,0,12.5-9.8a1.555,1.555,0,0,0-.348.564,2.014,2.014,0,0,0-.116.684,2.509,2.509,0,0,0,.1.7,1.7,1.7,0,0,0,.32.612,1.547,1.547,0,0,0,.58.428,2.162,2.162,0,0,0,.88.16,2.162,2.162,0,0,0,.88-.16,1.548,1.548,0,0,0,.58-.428,1.7,1.7,0,0,0,.32-.612,2.509,2.509,0,0,0,.1-.7,2.014,2.014,0,0,0-.116-.684,1.529,1.529,0,0,0-.352-.564,1.731,1.731,0,0,0-.588-.384A2.167,2.167,0,0,0,13.92-10.328Zm1.816,4.32a3.03,3.03,0,0,1,1.6,1.04A2.871,2.871,0,0,1,17.864-3.2a3.21,3.21,0,0,1-.288,1.376,2.994,2.994,0,0,1-.808,1.048,3.733,3.733,0,0,1-1.244.668,5.155,5.155,0,0,1-1.6.236,5.155,5.155,0,0,1-1.6-.236,3.733,3.733,0,0,1-1.244-.668,2.994,2.994,0,0,1-.808-1.048A3.21,3.21,0,0,1,9.976-3.2a2.871,2.871,0,0,1,.532-1.768,3.03,3.03,0,0,1,1.6-1.04,2.7,2.7,0,0,1-1.3-1,2.782,2.782,0,0,1-.436-1.576,2.871,2.871,0,0,1,.256-1.208,2.874,2.874,0,0,1,.724-.972,3.444,3.444,0,0,1,1.124-.648,4.251,4.251,0,0,1,1.448-.236,4.217,4.217,0,0,1,1.444.236,3.452,3.452,0,0,1,1.12.648,2.921,2.921,0,0,1,.728.972,2.833,2.833,0,0,1,.26,1.208,2.782,2.782,0,0,1-.436,1.576A2.7,2.7,0,0,1,15.736-6.008Zm8.7-2.728a3.176,3.176,0,0,1-.212,1.192,2.75,2.75,0,0,1-.572.9,2.46,2.46,0,0,1-.832.568,2.561,2.561,0,0,1-.992.2,2.7,2.7,0,0,1-1.036-.2,2.329,2.329,0,0,1-.824-.568,2.7,2.7,0,0,1-.548-.9,3.346,3.346,0,0,1-.2-1.192,3.5,3.5,0,0,1,.2-1.22,2.677,2.677,0,0,1,.548-.912,2.375,2.375,0,0,1,.824-.572,2.647,2.647,0,0,1,1.036-.2,2.647,2.647,0,0,1,1.036.2,2.374,2.374,0,0,1,.824.572,2.677,2.677,0,0,1,.548.912A3.5,3.5,0,0,1,24.432-8.736Zm-1.328,0a2.967,2.967,0,0,0-.1-.828,1.571,1.571,0,0,0-.272-.552.979.979,0,0,0-.408-.3,1.364,1.364,0,0,0-.5-.092,1.355,1.355,0,0,0-.5.092.956.956,0,0,0-.4.3,1.565,1.565,0,0,0-.264.552,3.084,3.084,0,0,0-.1.828,2.916,2.916,0,0,0,.1.808,1.483,1.483,0,0,0,.264.532.949.949,0,0,0,.4.292,1.41,1.41,0,0,0,.5.088,1.419,1.419,0,0,0,.5-.088.973.973,0,0,0,.408-.292A1.49,1.49,0,0,0,23-7.928,2.805,2.805,0,0,0,23.1-8.736Zm5.28-2.5a.932.932,0,0,1,.212-.2.616.616,0,0,1,.348-.084h1.24L21.7-.264a.774.774,0,0,1-.216.188A.6.6,0,0,1,21.168,0h-1.28Zm2.5,8.528a3.124,3.124,0,0,1-.216,1.192,2.756,2.756,0,0,1-.576.9,2.487,2.487,0,0,1-.832.564,2.561,2.561,0,0,1-.992.2,2.7,2.7,0,0,1-1.036-.2A2.354,2.354,0,0,1,26.4-.624a2.6,2.6,0,0,1-.544-.9,3.407,3.407,0,0,1-.2-1.192,3.559,3.559,0,0,1,.2-1.22,2.671,2.671,0,0,1,.544-.916,2.305,2.305,0,0,1,.824-.572,2.7,2.7,0,0,1,1.036-.2,2.725,2.725,0,0,1,1.04.2,2.3,2.3,0,0,1,.828.572,2.721,2.721,0,0,1,.548.916A3.5,3.5,0,0,1,30.88-2.712Zm-1.328,0a2.967,2.967,0,0,0-.1-.828,1.53,1.53,0,0,0-.276-.552,1.008,1.008,0,0,0-.412-.3,1.364,1.364,0,0,0-.5-.092,1.333,1.333,0,0,0-.5.092.985.985,0,0,0-.4.3,1.524,1.524,0,0,0-.268.552,3.084,3.084,0,0,0-.1.828,2.916,2.916,0,0,0,.1.808,1.444,1.444,0,0,0,.268.532.978.978,0,0,0,.4.292,1.387,1.387,0,0,0,.5.088,1.419,1.419,0,0,0,.5-.088,1,1,0,0,0,.412-.292,1.452,1.452,0,0,0,.276-.532A2.805,2.805,0,0,0,29.552-2.712Z" transform="translate(824 790)" fill="#f2f2f2"/><path d="M7.872-1.624a.586.586,0,0,1,.44.164.576.576,0,0,1,.16.42V0H.68V-.584A1.047,1.047,0,0,1,.752-.952.986.986,0,0,1,.984-1.3L4.568-4.9q.456-.456.812-.872A6.328,6.328,0,0,0,5.988-6.6a3.777,3.777,0,0,0,.384-.844,3.037,3.037,0,0,0,.132-.9,2.143,2.143,0,0,0-.14-.8,1.583,1.583,0,0,0-.384-.576,1.6,1.6,0,0,0-.584-.344,2.3,2.3,0,0,0-.748-.116,2.252,2.252,0,0,0-.724.112,2.023,2.023,0,0,0-.592.312,1.792,1.792,0,0,0-.432.476,2.054,2.054,0,0,0-.252.6.813.813,0,0,1-.308.44.8.8,0,0,1-.548.048l-.9-.16A4.322,4.322,0,0,1,1.34-9.784a3.38,3.38,0,0,1,.836-1.028,3.533,3.533,0,0,1,1.156-.624,4.542,4.542,0,0,1,1.412-.212,4.2,4.2,0,0,1,1.412.228,3.285,3.285,0,0,1,1.112.648A2.945,2.945,0,0,1,8-9.752,3.324,3.324,0,0,1,8.264-8.4a3.6,3.6,0,0,1-.188,1.184,4.813,4.813,0,0,1-.508,1.04,7.273,7.273,0,0,1-.748.964q-.428.468-.9.948L3.136-1.416a6.291,6.291,0,0,1,.692-.152,4.161,4.161,0,0,1,.66-.056ZM11.744-8.1a2.127,2.127,0,0,0,.548,1.572,2.071,2.071,0,0,0,1.532.548,2.412,2.412,0,0,0,.932-.168A2.055,2.055,0,0,0,15.44-6.6a1.887,1.887,0,0,0,.424-.664,2.272,2.272,0,0,0,.144-.812,2.44,2.44,0,0,0-.156-.9,1.928,1.928,0,0,0-.44-.676,1.911,1.911,0,0,0-.676-.428,2.4,2.4,0,0,0-.856-.148,2.31,2.31,0,0,0-.88.16,1.984,1.984,0,0,0-.672.444,1.967,1.967,0,0,0-.432.672A2.316,2.316,0,0,0,11.744-8.1ZM14.7-4.52q.16-.2.3-.38t.256-.364a3.193,3.193,0,0,1-.928.452,3.714,3.714,0,0,1-1.088.156,3.447,3.447,0,0,1-1.2-.212A3,3,0,0,1,11.008-5.5a3.077,3.077,0,0,1-.716-1.04,3.571,3.571,0,0,1-.268-1.428A3.64,3.64,0,0,1,10.308-9.4a3.554,3.554,0,0,1,.8-1.172,3.733,3.733,0,0,1,1.224-.788,4.167,4.167,0,0,1,1.576-.288,4.177,4.177,0,0,1,1.552.276,3.362,3.362,0,0,1,1.184.776A3.438,3.438,0,0,1,17.392-9.4a4.243,4.243,0,0,1,.264,1.524,5.053,5.053,0,0,1-.092.984A5.207,5.207,0,0,1,17.3-6a6.321,6.321,0,0,1-.416.856q-.244.42-.548.852L13.624-.4a.867.867,0,0,1-.356.288A1.226,1.226,0,0,1,12.736,0H11.16Zm9.736-4.216a3.176,3.176,0,0,1-.212,1.192,2.75,2.75,0,0,1-.572.9,2.46,2.46,0,0,1-.832.568,2.561,2.561,0,0,1-.992.2,2.7,2.7,0,0,1-1.036-.2,2.329,2.329,0,0,1-.824-.568,2.7,2.7,0,0,1-.548-.9,3.346,3.346,0,0,1-.2-1.192,3.5,3.5,0,0,1,.2-1.22,2.677,2.677,0,0,1,.548-.912,2.375,2.375,0,0,1,.824-.572,2.647,2.647,0,0,1,1.036-.2,2.647,2.647,0,0,1,1.036.2,2.374,2.374,0,0,1,.824.572,2.677,2.677,0,0,1,.548.912A3.5,3.5,0,0,1,24.432-8.736Zm-1.328,0a2.967,2.967,0,0,0-.1-.828,1.571,1.571,0,0,0-.272-.552.979.979,0,0,0-.408-.3,1.364,1.364,0,0,0-.5-.092,1.355,1.355,0,0,0-.5.092.956.956,0,0,0-.4.3,1.565,1.565,0,0,0-.264.552,3.084,3.084,0,0,0-.1.828,2.916,2.916,0,0,0,.1.808,1.483,1.483,0,0,0,.264.532.949.949,0,0,0,.4.292,1.41,1.41,0,0,0,.5.088,1.419,1.419,0,0,0,.5-.088.973.973,0,0,0,.408-.292A1.49,1.49,0,0,0,23-7.928,2.805,2.805,0,0,0,23.1-8.736Zm5.28-2.5a.932.932,0,0,1,.212-.2.616.616,0,0,1,.348-.084h1.24L21.7-.264a.774.774,0,0,1-.216.188A.6.6,0,0,1,21.168,0h-1.28Zm2.5,8.528a3.124,3.124,0,0,1-.216,1.192,2.756,2.756,0,0,1-.576.9,2.487,2.487,0,0,1-.832.564,2.561,2.561,0,0,1-.992.2,2.7,2.7,0,0,1-1.036-.2A2.354,2.354,0,0,1,26.4-.624a2.6,2.6,0,0,1-.544-.9,3.407,3.407,0,0,1-.2-1.192,3.559,3.559,0,0,1,.2-1.22,2.671,2.671,0,0,1,.544-.916,2.305,2.305,0,0,1,.824-.572,2.7,2.7,0,0,1,1.036-.2,2.725,2.725,0,0,1,1.04.2,2.3,2.3,0,0,1,.828.572,2.721,2.721,0,0,1,.548.916A3.5,3.5,0,0,1,30.88-2.712Zm-1.328,0a2.967,2.967,0,0,0-.1-.828,1.53,1.53,0,0,0-.276-.552,1.008,1.008,0,0,0-.412-.3,1.364,1.364,0,0,0-.5-.092,1.333,1.333,0,0,0-.5.092.985.985,0,0,0-.4.3,1.524,1.524,0,0,0-.268.552,3.084,3.084,0,0,0-.1.828,2.916,2.916,0,0,0,.1.808,1.444,1.444,0,0,0,.268.532.978.978,0,0,0,.4.292,1.387,1.387,0,0,0,.5.088,1.419,1.419,0,0,0,.5-.088,1,1,0,0,0,.412-.292,1.452,1.452,0,0,0,.276-.532A2.805,2.805,0,0,0,29.552-2.712Z" transform="translate(701 764)" fill="#f2f2f2"/><path d="M2.464-8.1a2.127,2.127,0,0,0,.548,1.572,2.071,2.071,0,0,0,1.532.548,2.412,2.412,0,0,0,.932-.168A2.055,2.055,0,0,0,6.16-6.6a1.887,1.887,0,0,0,.424-.664,2.272,2.272,0,0,0,.144-.812,2.44,2.44,0,0,0-.156-.9,1.928,1.928,0,0,0-.44-.676,1.911,1.911,0,0,0-.676-.428,2.4,2.4,0,0,0-.856-.148,2.31,2.31,0,0,0-.88.16,1.984,1.984,0,0,0-.672.444,1.967,1.967,0,0,0-.432.672A2.316,2.316,0,0,0,2.464-8.1ZM5.416-4.52q.16-.2.3-.38t.256-.364a3.193,3.193,0,0,1-.928.452,3.713,3.713,0,0,1-1.088.156,3.447,3.447,0,0,1-1.2-.212A3,3,0,0,1,1.728-5.5a3.077,3.077,0,0,1-.716-1.04A3.571,3.571,0,0,1,.744-7.968,3.64,3.64,0,0,1,1.028-9.4a3.554,3.554,0,0,1,.8-1.172,3.733,3.733,0,0,1,1.224-.788,4.167,4.167,0,0,1,1.576-.288,4.177,4.177,0,0,1,1.552.276A3.362,3.362,0,0,1,7.36-10.6,3.438,3.438,0,0,1,8.112-9.4,4.243,4.243,0,0,1,8.376-7.88a5.054,5.054,0,0,1-.092.984A5.207,5.207,0,0,1,8.02-6,6.321,6.321,0,0,1,7.6-5.14q-.244.42-.548.852L4.344-.4a.867.867,0,0,1-.356.288A1.226,1.226,0,0,1,3.456,0H1.88Zm9.736-4.216a3.176,3.176,0,0,1-.212,1.192,2.75,2.75,0,0,1-.572.9,2.46,2.46,0,0,1-.832.568,2.561,2.561,0,0,1-.992.2,2.7,2.7,0,0,1-1.036-.2,2.329,2.329,0,0,1-.824-.568,2.7,2.7,0,0,1-.548-.9,3.346,3.346,0,0,1-.2-1.192,3.5,3.5,0,0,1,.2-1.22,2.677,2.677,0,0,1,.548-.912,2.374,2.374,0,0,1,.824-.572,2.647,2.647,0,0,1,1.036-.2,2.647,2.647,0,0,1,1.036.2,2.374,2.374,0,0,1,.824.572,2.677,2.677,0,0,1,.548.912A3.5,3.5,0,0,1,15.152-8.736Zm-1.328,0a2.967,2.967,0,0,0-.1-.828,1.571,1.571,0,0,0-.272-.552.979.979,0,0,0-.408-.3,1.364,1.364,0,0,0-.5-.092,1.355,1.355,0,0,0-.5.092.956.956,0,0,0-.4.3,1.565,1.565,0,0,0-.264.552,3.084,3.084,0,0,0-.1.828,2.916,2.916,0,0,0,.1.808,1.483,1.483,0,0,0,.264.532.949.949,0,0,0,.4.292,1.41,1.41,0,0,0,.5.088,1.419,1.419,0,0,0,.5-.088.973.973,0,0,0,.408-.292,1.49,1.49,0,0,0,.272-.532A2.805,2.805,0,0,0,13.824-8.736Zm5.28-2.5a.932.932,0,0,1,.212-.2.616.616,0,0,1,.348-.084H20.9L12.416-.264a.774.774,0,0,1-.216.188A.6.6,0,0,1,11.888,0h-1.28Zm2.5,8.528a3.124,3.124,0,0,1-.216,1.192,2.756,2.756,0,0,1-.576.9,2.487,2.487,0,0,1-.832.564,2.561,2.561,0,0,1-.992.2,2.7,2.7,0,0,1-1.036-.2,2.354,2.354,0,0,1-.824-.564,2.6,2.6,0,0,1-.544-.9,3.407,3.407,0,0,1-.2-1.192,3.559,3.559,0,0,1,.2-1.22,2.671,2.671,0,0,1,.544-.916,2.305,2.305,0,0,1,.824-.572,2.7,2.7,0,0,1,1.036-.2,2.725,2.725,0,0,1,1.04.2,2.3,2.3,0,0,1,.828.572,2.721,2.721,0,0,1,.548.916A3.5,3.5,0,0,1,21.6-2.712Zm-1.328,0a2.967,2.967,0,0,0-.1-.828,1.53,1.53,0,0,0-.276-.552,1.008,1.008,0,0,0-.412-.3,1.364,1.364,0,0,0-.5-.092,1.333,1.333,0,0,0-.5.092.985.985,0,0,0-.4.3,1.524,1.524,0,0,0-.268.552,3.084,3.084,0,0,0-.1.828,2.916,2.916,0,0,0,.1.808,1.444,1.444,0,0,0,.268.532.978.978,0,0,0,.4.292,1.387,1.387,0,0,0,.5.088,1.419,1.419,0,0,0,.5-.088,1,1,0,0,0,.412-.292,1.452,1.452,0,0,0,.276-.532A2.805,2.805,0,0,0,20.272-2.712Z" transform="translate(817 666)" fill="#f2f2f2"/><path d="M6.4-1.32a.476.476,0,0,1,.357.133.468.468,0,0,1,.13.341V0H.553V-.475a.851.851,0,0,1,.058-.3A.8.8,0,0,1,.8-1.059L3.712-3.978q.37-.37.66-.708a5.142,5.142,0,0,0,.494-.676,3.069,3.069,0,0,0,.312-.686,2.467,2.467,0,0,0,.107-.731,1.741,1.741,0,0,0-.114-.653A1.286,1.286,0,0,0,4.859-7.9a1.3,1.3,0,0,0-.475-.279,1.872,1.872,0,0,0-.608-.094,1.83,1.83,0,0,0-.588.091,1.644,1.644,0,0,0-.481.253,1.456,1.456,0,0,0-.351.387,1.669,1.669,0,0,0-.2.491A.661.661,0,0,1,1.9-6.7a.653.653,0,0,1-.445.039l-.735-.13A3.512,3.512,0,0,1,1.089-7.95a2.746,2.746,0,0,1,.679-.835,2.871,2.871,0,0,1,.939-.507,3.69,3.69,0,0,1,1.147-.172A3.416,3.416,0,0,1,5-9.279a2.669,2.669,0,0,1,.9.526,2.393,2.393,0,0,1,.595.829,2.7,2.7,0,0,1,.214,1.1,2.927,2.927,0,0,1-.153.962,3.911,3.911,0,0,1-.413.845,5.91,5.91,0,0,1-.608.783q-.348.38-.731.77L2.548-1.151a5.111,5.111,0,0,1,.562-.123,3.381,3.381,0,0,1,.536-.046ZM12.311-7.1a2.58,2.58,0,0,1-.172.969,2.235,2.235,0,0,1-.465.731A2,2,0,0,1,11-4.937a2.081,2.081,0,0,1-.806.159,2.189,2.189,0,0,1-.842-.159,1.892,1.892,0,0,1-.67-.462,2.193,2.193,0,0,1-.445-.731A2.718,2.718,0,0,1,8.073-7.1a2.839,2.839,0,0,1,.163-.991,2.175,2.175,0,0,1,.445-.741A1.929,1.929,0,0,1,9.35-9.3a2.151,2.151,0,0,1,.842-.163,2.151,2.151,0,0,1,.842.163,1.929,1.929,0,0,1,.669.465,2.175,2.175,0,0,1,.445.741A2.839,2.839,0,0,1,12.311-7.1Zm-1.079,0a2.411,2.411,0,0,0-.081-.673,1.276,1.276,0,0,0-.221-.448.8.8,0,0,0-.332-.247,1.109,1.109,0,0,0-.406-.075,1.1,1.1,0,0,0-.41.075.777.777,0,0,0-.325.247,1.272,1.272,0,0,0-.215.448,2.506,2.506,0,0,0-.078.673,2.369,2.369,0,0,0,.078.656,1.2,1.2,0,0,0,.215.432.771.771,0,0,0,.325.237,1.145,1.145,0,0,0,.41.072,1.153,1.153,0,0,0,.406-.072.79.79,0,0,0,.332-.237,1.21,1.21,0,0,0,.221-.432A2.279,2.279,0,0,0,11.232-7.1Zm4.29-2.035a.757.757,0,0,1,.172-.159.5.5,0,0,1,.283-.068h1.008l-6.9,9.146a.629.629,0,0,1-.175.153A.488.488,0,0,1,9.659,0H8.619ZM17.55-2.2a2.538,2.538,0,0,1-.175.968,2.239,2.239,0,0,1-.468.728,2.021,2.021,0,0,1-.676.458,2.081,2.081,0,0,1-.806.159,2.189,2.189,0,0,1-.842-.159,1.912,1.912,0,0,1-.67-.458,2.116,2.116,0,0,1-.442-.728,2.768,2.768,0,0,1-.159-.968,2.892,2.892,0,0,1,.159-.991,2.17,2.17,0,0,1,.442-.744,1.873,1.873,0,0,1,.67-.465,2.189,2.189,0,0,1,.842-.159,2.214,2.214,0,0,1,.845.159,1.867,1.867,0,0,1,.673.465,2.211,2.211,0,0,1,.445.744A2.839,2.839,0,0,1,17.55-2.2Zm-1.079,0a2.411,2.411,0,0,0-.081-.673,1.243,1.243,0,0,0-.224-.448.819.819,0,0,0-.335-.247,1.109,1.109,0,0,0-.406-.075,1.083,1.083,0,0,0-.4.075.8.8,0,0,0-.328.247,1.238,1.238,0,0,0-.218.448A2.506,2.506,0,0,0,14.4-2.2a2.369,2.369,0,0,0,.078.656,1.174,1.174,0,0,0,.218.432.794.794,0,0,0,.328.237,1.127,1.127,0,0,0,.4.072,1.153,1.153,0,0,0,.406-.072.814.814,0,0,0,.335-.237,1.18,1.18,0,0,0,.224-.432A2.279,2.279,0,0,0,16.471-2.2Z" transform="translate(844 689)" fill="#f7f7f7"/><path d="M7.872-1.624a.586.586,0,0,1,.44.164.576.576,0,0,1,.16.42V0H.68V-.584A1.047,1.047,0,0,1,.752-.952.986.986,0,0,1,.984-1.3L4.568-4.9q.456-.456.812-.872A6.328,6.328,0,0,0,5.988-6.6a3.777,3.777,0,0,0,.384-.844,3.037,3.037,0,0,0,.132-.9,2.143,2.143,0,0,0-.14-.8,1.583,1.583,0,0,0-.384-.576,1.6,1.6,0,0,0-.584-.344,2.3,2.3,0,0,0-.748-.116,2.252,2.252,0,0,0-.724.112,2.023,2.023,0,0,0-.592.312,1.792,1.792,0,0,0-.432.476,2.054,2.054,0,0,0-.252.6.813.813,0,0,1-.308.44.8.8,0,0,1-.548.048l-.9-.16A4.322,4.322,0,0,1,1.34-9.784a3.38,3.38,0,0,1,.836-1.028,3.533,3.533,0,0,1,1.156-.624,4.542,4.542,0,0,1,1.412-.212,4.2,4.2,0,0,1,1.412.228,3.285,3.285,0,0,1,1.112.648A2.945,2.945,0,0,1,8-9.752,3.324,3.324,0,0,1,8.264-8.4a3.6,3.6,0,0,1-.188,1.184,4.813,4.813,0,0,1-.508,1.04,7.273,7.273,0,0,1-.748.964q-.428.468-.9.948L3.136-1.416a6.291,6.291,0,0,1,.692-.152,4.161,4.161,0,0,1,.66-.056ZM17.5-1.3V0h-6.28V-1.3h2.4V-8.52q0-.384.024-.784l-1.848,1.56a.606.606,0,0,1-.244.124.526.526,0,0,1-.232,0,.615.615,0,0,1-.192-.076.474.474,0,0,1-.132-.116l-.536-.752,3.472-2.984h1.4V-1.3Zm6.936-7.432a3.176,3.176,0,0,1-.212,1.192,2.75,2.75,0,0,1-.572.9,2.46,2.46,0,0,1-.832.568,2.561,2.561,0,0,1-.992.2,2.7,2.7,0,0,1-1.036-.2,2.329,2.329,0,0,1-.824-.568,2.7,2.7,0,0,1-.548-.9,3.346,3.346,0,0,1-.2-1.192,3.5,3.5,0,0,1,.2-1.22,2.677,2.677,0,0,1,.548-.912,2.375,2.375,0,0,1,.824-.572,2.647,2.647,0,0,1,1.036-.2,2.647,2.647,0,0,1,1.036.2,2.374,2.374,0,0,1,.824.572,2.677,2.677,0,0,1,.548.912A3.5,3.5,0,0,1,24.432-8.736Zm-1.328,0a2.967,2.967,0,0,0-.1-.828,1.571,1.571,0,0,0-.272-.552.979.979,0,0,0-.408-.3,1.364,1.364,0,0,0-.5-.092,1.355,1.355,0,0,0-.5.092.956.956,0,0,0-.4.3,1.565,1.565,0,0,0-.264.552,3.084,3.084,0,0,0-.1.828,2.916,2.916,0,0,0,.1.808,1.483,1.483,0,0,0,.264.532.949.949,0,0,0,.4.292,1.41,1.41,0,0,0,.5.088,1.419,1.419,0,0,0,.5-.088.973.973,0,0,0,.408-.292A1.49,1.49,0,0,0,23-7.928,2.805,2.805,0,0,0,23.1-8.736Zm5.28-2.5a.932.932,0,0,1,.212-.2.616.616,0,0,1,.348-.084h1.24L21.7-.264a.774.774,0,0,1-.216.188A.6.6,0,0,1,21.168,0h-1.28Zm2.5,8.528a3.124,3.124,0,0,1-.216,1.192,2.756,2.756,0,0,1-.576.9,2.487,2.487,0,0,1-.832.564,2.561,2.561,0,0,1-.992.2,2.7,2.7,0,0,1-1.036-.2A2.354,2.354,0,0,1,26.4-.624a2.6,2.6,0,0,1-.544-.9,3.407,3.407,0,0,1-.2-1.192,3.559,3.559,0,0,1,.2-1.22,2.671,2.671,0,0,1,.544-.916,2.305,2.305,0,0,1,.824-.572,2.7,2.7,0,0,1,1.036-.2,2.725,2.725,0,0,1,1.04.2,2.3,2.3,0,0,1,.828.572,2.721,2.721,0,0,1,.548.916A3.5,3.5,0,0,1,30.88-2.712Zm-1.328,0a2.967,2.967,0,0,0-.1-.828,1.53,1.53,0,0,0-.276-.552,1.008,1.008,0,0,0-.412-.3,1.364,1.364,0,0,0-.5-.092,1.333,1.333,0,0,0-.5.092.985.985,0,0,0-.4.3,1.524,1.524,0,0,0-.268.552,3.084,3.084,0,0,0-.1.828,2.916,2.916,0,0,0,.1.808,1.444,1.444,0,0,0,.268.532.978.978,0,0,0,.4.292,1.387,1.387,0,0,0,.5.088,1.419,1.419,0,0,0,.5-.088,1,1,0,0,0,.412-.292,1.452,1.452,0,0,0,.276-.532A2.805,2.805,0,0,0,29.552-2.712Z" transform="translate(736 671)" fill="#fff"/><path d="M8.216-1.3V0H1.936V-1.3h2.4V-8.52q0-.384.024-.784L2.512-7.744a.606.606,0,0,1-.244.124.526.526,0,0,1-.232,0,.615.615,0,0,1-.192-.076.474.474,0,0,1-.132-.116L1.176-8.56l3.472-2.984h1.4V-1.3Zm2.008-7.048a4.322,4.322,0,0,1,.452-1.432,3.38,3.38,0,0,1,.836-1.028,3.533,3.533,0,0,1,1.156-.624,4.542,4.542,0,0,1,1.412-.212,4.2,4.2,0,0,1,1.4.22,3.286,3.286,0,0,1,1.08.612,2.673,2.673,0,0,1,.7.936A2.879,2.879,0,0,1,17.5-8.688a3.246,3.246,0,0,1-.132.972,2.39,2.39,0,0,1-.376.74,2.167,2.167,0,0,1-.6.536,3.721,3.721,0,0,1-.792.36,3.05,3.05,0,0,1,1.608,1,2.7,2.7,0,0,1,.536,1.716,3.371,3.371,0,0,1-.312,1.48,3.266,3.266,0,0,1-.844,1.1,3.738,3.738,0,0,1-1.24.684,4.713,4.713,0,0,1-1.5.236,4.959,4.959,0,0,1-1.536-.212A3.289,3.289,0,0,1,11.2-.692a3.417,3.417,0,0,1-.78-.956A6.584,6.584,0,0,1,9.888-2.9l.744-.312a.924.924,0,0,1,.564-.072.534.534,0,0,1,.388.3q.128.256.288.548a2.249,2.249,0,0,0,.412.536,2.109,2.109,0,0,0,.624.408,2.269,2.269,0,0,0,.916.164,2.392,2.392,0,0,0,.964-.18,2.14,2.14,0,0,0,.688-.464,1.878,1.878,0,0,0,.412-.636,1.921,1.921,0,0,0,.136-.7,2.89,2.89,0,0,0-.1-.8,1.255,1.255,0,0,0-.4-.62,2.167,2.167,0,0,0-.848-.4,5.675,5.675,0,0,0-1.436-.148V-6.52a4.816,4.816,0,0,0,1.228-.148,2.194,2.194,0,0,0,.8-.384,1.392,1.392,0,0,0,.432-.588,2.082,2.082,0,0,0,.132-.752,2.057,2.057,0,0,0-.136-.776,1.561,1.561,0,0,0-.38-.564,1.56,1.56,0,0,0-.58-.34,2.342,2.342,0,0,0-.744-.112,2.252,2.252,0,0,0-.724.112,2.023,2.023,0,0,0-.592.312,1.853,1.853,0,0,0-.436.476,1.993,1.993,0,0,0-.256.6.78.78,0,0,1-.3.44.8.8,0,0,1-.548.048Zm14.208-.384a3.176,3.176,0,0,1-.212,1.192,2.75,2.75,0,0,1-.572.9,2.46,2.46,0,0,1-.832.568,2.561,2.561,0,0,1-.992.2,2.7,2.7,0,0,1-1.036-.2,2.329,2.329,0,0,1-.824-.568,2.7,2.7,0,0,1-.548-.9,3.346,3.346,0,0,1-.2-1.192,3.5,3.5,0,0,1,.2-1.22,2.677,2.677,0,0,1,.548-.912,2.375,2.375,0,0,1,.824-.572,2.647,2.647,0,0,1,1.036-.2,2.647,2.647,0,0,1,1.036.2,2.374,2.374,0,0,1,.824.572,2.677,2.677,0,0,1,.548.912A3.5,3.5,0,0,1,24.432-8.736Zm-1.328,0a2.967,2.967,0,0,0-.1-.828,1.571,1.571,0,0,0-.272-.552.979.979,0,0,0-.408-.3,1.364,1.364,0,0,0-.5-.092,1.355,1.355,0,0,0-.5.092.956.956,0,0,0-.4.3,1.565,1.565,0,0,0-.264.552,3.084,3.084,0,0,0-.1.828,2.916,2.916,0,0,0,.1.808,1.483,1.483,0,0,0,.264.532.949.949,0,0,0,.4.292,1.41,1.41,0,0,0,.5.088,1.419,1.419,0,0,0,.5-.088.973.973,0,0,0,.408-.292A1.49,1.49,0,0,0,23-7.928,2.805,2.805,0,0,0,23.1-8.736Zm5.28-2.5a.932.932,0,0,1,.212-.2.616.616,0,0,1,.348-.084h1.24L21.7-.264a.774.774,0,0,1-.216.188A.6.6,0,0,1,21.168,0h-1.28Zm2.5,8.528a3.124,3.124,0,0,1-.216,1.192,2.756,2.756,0,0,1-.576.9,2.487,2.487,0,0,1-.832.564,2.561,2.561,0,0,1-.992.2,2.7,2.7,0,0,1-1.036-.2A2.354,2.354,0,0,1,26.4-.624a2.6,2.6,0,0,1-.544-.9,3.407,3.407,0,0,1-.2-1.192,3.559,3.559,0,0,1,.2-1.22,2.671,2.671,0,0,1,.544-.916,2.305,2.305,0,0,1,.824-.572,2.7,2.7,0,0,1,1.036-.2,2.725,2.725,0,0,1,1.04.2,2.3,2.3,0,0,1,.828.572,2.721,2.721,0,0,1,.548.916A3.5,3.5,0,0,1,30.88-2.712Zm-1.328,0a2.967,2.967,0,0,0-.1-.828,1.53,1.53,0,0,0-.276-.552,1.008,1.008,0,0,0-.412-.3,1.364,1.364,0,0,0-.5-.092,1.333,1.333,0,0,0-.5.092.985.985,0,0,0-.4.3,1.524,1.524,0,0,0-.268.552,3.084,3.084,0,0,0-.1.828,2.916,2.916,0,0,0,.1.808,1.444,1.444,0,0,0,.268.532.978.978,0,0,0,.4.292,1.387,1.387,0,0,0,.5.088,1.419,1.419,0,0,0,.5-.088,1,1,0,0,0,.412-.292,1.452,1.452,0,0,0,.276-.532A2.805,2.805,0,0,0,29.552-2.712Z" transform="translate(561 684)" fill="#f2f2f2"/><path d="M7.872-1.624a.586.586,0,0,1,.44.164.576.576,0,0,1,.16.42V0H.68V-.584A1.047,1.047,0,0,1,.752-.952.986.986,0,0,1,.984-1.3L4.568-4.9q.456-.456.812-.872A6.328,6.328,0,0,0,5.988-6.6a3.777,3.777,0,0,0,.384-.844,3.037,3.037,0,0,0,.132-.9,2.143,2.143,0,0,0-.14-.8,1.583,1.583,0,0,0-.384-.576,1.6,1.6,0,0,0-.584-.344,2.3,2.3,0,0,0-.748-.116,2.252,2.252,0,0,0-.724.112,2.023,2.023,0,0,0-.592.312,1.792,1.792,0,0,0-.432.476,2.054,2.054,0,0,0-.252.6.813.813,0,0,1-.308.44.8.8,0,0,1-.548.048l-.9-.16A4.322,4.322,0,0,1,1.34-9.784a3.38,3.38,0,0,1,.836-1.028,3.533,3.533,0,0,1,1.156-.624,4.542,4.542,0,0,1,1.412-.212,4.2,4.2,0,0,1,1.412.228,3.285,3.285,0,0,1,1.112.648A2.945,2.945,0,0,1,8-9.752,3.324,3.324,0,0,1,8.264-8.4a3.6,3.6,0,0,1-.188,1.184,4.813,4.813,0,0,1-.508,1.04,7.273,7.273,0,0,1-.748.964q-.428.468-.9.948L3.136-1.416a6.291,6.291,0,0,1,.692-.152,4.161,4.161,0,0,1,.66-.056ZM11.744-8.1a2.127,2.127,0,0,0,.548,1.572,2.071,2.071,0,0,0,1.532.548,2.412,2.412,0,0,0,.932-.168A2.055,2.055,0,0,0,15.44-6.6a1.887,1.887,0,0,0,.424-.664,2.272,2.272,0,0,0,.144-.812,2.44,2.44,0,0,0-.156-.9,1.928,1.928,0,0,0-.44-.676,1.911,1.911,0,0,0-.676-.428,2.4,2.4,0,0,0-.856-.148,2.31,2.31,0,0,0-.88.16,1.984,1.984,0,0,0-.672.444,1.967,1.967,0,0,0-.432.672A2.316,2.316,0,0,0,11.744-8.1ZM14.7-4.52q.16-.2.3-.38t.256-.364a3.193,3.193,0,0,1-.928.452,3.714,3.714,0,0,1-1.088.156,3.447,3.447,0,0,1-1.2-.212A3,3,0,0,1,11.008-5.5a3.077,3.077,0,0,1-.716-1.04,3.571,3.571,0,0,1-.268-1.428A3.64,3.64,0,0,1,10.308-9.4a3.554,3.554,0,0,1,.8-1.172,3.733,3.733,0,0,1,1.224-.788,4.167,4.167,0,0,1,1.576-.288,4.177,4.177,0,0,1,1.552.276,3.362,3.362,0,0,1,1.184.776A3.438,3.438,0,0,1,17.392-9.4a4.243,4.243,0,0,1,.264,1.524,5.053,5.053,0,0,1-.092.984A5.207,5.207,0,0,1,17.3-6a6.321,6.321,0,0,1-.416.856q-.244.42-.548.852L13.624-.4a.867.867,0,0,1-.356.288A1.226,1.226,0,0,1,12.736,0H11.16Zm9.736-4.216a3.176,3.176,0,0,1-.212,1.192,2.75,2.75,0,0,1-.572.9,2.46,2.46,0,0,1-.832.568,2.561,2.561,0,0,1-.992.2,2.7,2.7,0,0,1-1.036-.2,2.329,2.329,0,0,1-.824-.568,2.7,2.7,0,0,1-.548-.9,3.346,3.346,0,0,1-.2-1.192,3.5,3.5,0,0,1,.2-1.22,2.677,2.677,0,0,1,.548-.912,2.375,2.375,0,0,1,.824-.572,2.647,2.647,0,0,1,1.036-.2,2.647,2.647,0,0,1,1.036.2,2.374,2.374,0,0,1,.824.572,2.677,2.677,0,0,1,.548.912A3.5,3.5,0,0,1,24.432-8.736Zm-1.328,0a2.967,2.967,0,0,0-.1-.828,1.571,1.571,0,0,0-.272-.552.979.979,0,0,0-.408-.3,1.364,1.364,0,0,0-.5-.092,1.355,1.355,0,0,0-.5.092.956.956,0,0,0-.4.3,1.565,1.565,0,0,0-.264.552,3.084,3.084,0,0,0-.1.828,2.916,2.916,0,0,0,.1.808,1.483,1.483,0,0,0,.264.532.949.949,0,0,0,.4.292,1.41,1.41,0,0,0,.5.088,1.419,1.419,0,0,0,.5-.088.973.973,0,0,0,.408-.292A1.49,1.49,0,0,0,23-7.928,2.805,2.805,0,0,0,23.1-8.736Zm5.28-2.5a.932.932,0,0,1,.212-.2.616.616,0,0,1,.348-.084h1.24L21.7-.264a.774.774,0,0,1-.216.188A.6.6,0,0,1,21.168,0h-1.28Zm2.5,8.528a3.124,3.124,0,0,1-.216,1.192,2.756,2.756,0,0,1-.576.9,2.487,2.487,0,0,1-.832.564,2.561,2.561,0,0,1-.992.2,2.7,2.7,0,0,1-1.036-.2A2.354,2.354,0,0,1,26.4-.624a2.6,2.6,0,0,1-.544-.9,3.407,3.407,0,0,1-.2-1.192,3.559,3.559,0,0,1,.2-1.22,2.671,2.671,0,0,1,.544-.916,2.305,2.305,0,0,1,.824-.572,2.7,2.7,0,0,1,1.036-.2,2.725,2.725,0,0,1,1.04.2,2.3,2.3,0,0,1,.828.572,2.721,2.721,0,0,1,.548.916A3.5,3.5,0,0,1,30.88-2.712Zm-1.328,0a2.967,2.967,0,0,0-.1-.828,1.53,1.53,0,0,0-.276-.552,1.008,1.008,0,0,0-.412-.3,1.364,1.364,0,0,0-.5-.092,1.333,1.333,0,0,0-.5.092.985.985,0,0,0-.4.3,1.524,1.524,0,0,0-.268.552,3.084,3.084,0,0,0-.1.828,2.916,2.916,0,0,0,.1.808,1.444,1.444,0,0,0,.268.532.978.978,0,0,0,.4.292,1.387,1.387,0,0,0,.5.088,1.419,1.419,0,0,0,.5-.088,1,1,0,0,0,.412-.292,1.452,1.452,0,0,0,.276-.532A2.805,2.805,0,0,0,29.552-2.712Z" transform="translate(442 780)" fill="#48174e"/><path d="M8.216-1.3V0H1.936V-1.3h2.4V-8.52q0-.384.024-.784L2.512-7.744a.606.606,0,0,1-.244.124.526.526,0,0,1-.232,0,.615.615,0,0,1-.192-.076.474.474,0,0,1-.132-.116L1.176-8.56l3.472-2.984h1.4V-1.3Zm6.832-2.952V-8.464a9.318,9.318,0,0,1,.072-1.1L11.248-4.256Zm3.088,0v.992a.362.362,0,0,1-.092.248.349.349,0,0,1-.276.1H16.544V0h-1.5V-2.912H10.064a.483.483,0,0,1-.316-.108.494.494,0,0,1-.172-.268L9.4-4.168l5.528-7.36h1.616v7.272Zm6.3-4.48a3.176,3.176,0,0,1-.212,1.192,2.75,2.75,0,0,1-.572.9,2.46,2.46,0,0,1-.832.568,2.561,2.561,0,0,1-.992.2,2.7,2.7,0,0,1-1.036-.2,2.329,2.329,0,0,1-.824-.568,2.7,2.7,0,0,1-.548-.9,3.346,3.346,0,0,1-.2-1.192,3.5,3.5,0,0,1,.2-1.22,2.677,2.677,0,0,1,.548-.912,2.375,2.375,0,0,1,.824-.572,2.647,2.647,0,0,1,1.036-.2,2.647,2.647,0,0,1,1.036.2,2.374,2.374,0,0,1,.824.572,2.677,2.677,0,0,1,.548.912A3.5,3.5,0,0,1,24.432-8.736Zm-1.328,0a2.967,2.967,0,0,0-.1-.828,1.571,1.571,0,0,0-.272-.552.979.979,0,0,0-.408-.3,1.364,1.364,0,0,0-.5-.092,1.355,1.355,0,0,0-.5.092.956.956,0,0,0-.4.3,1.565,1.565,0,0,0-.264.552,3.084,3.084,0,0,0-.1.828,2.916,2.916,0,0,0,.1.808,1.483,1.483,0,0,0,.264.532.949.949,0,0,0,.4.292,1.41,1.41,0,0,0,.5.088,1.419,1.419,0,0,0,.5-.088.973.973,0,0,0,.408-.292A1.49,1.49,0,0,0,23-7.928,2.805,2.805,0,0,0,23.1-8.736Zm5.28-2.5a.932.932,0,0,1,.212-.2.616.616,0,0,1,.348-.084h1.24L21.7-.264a.774.774,0,0,1-.216.188A.6.6,0,0,1,21.168,0h-1.28Zm2.5,8.528a3.124,3.124,0,0,1-.216,1.192,2.756,2.756,0,0,1-.576.9,2.487,2.487,0,0,1-.832.564,2.561,2.561,0,0,1-.992.2,2.7,2.7,0,0,1-1.036-.2A2.354,2.354,0,0,1,26.4-.624a2.6,2.6,0,0,1-.544-.9,3.407,3.407,0,0,1-.2-1.192,3.559,3.559,0,0,1,.2-1.22,2.671,2.671,0,0,1,.544-.916,2.305,2.305,0,0,1,.824-.572,2.7,2.7,0,0,1,1.036-.2,2.725,2.725,0,0,1,1.04.2,2.3,2.3,0,0,1,.828.572,2.721,2.721,0,0,1,.548.916A3.5,3.5,0,0,1,30.88-2.712Zm-1.328,0a2.967,2.967,0,0,0-.1-.828,1.53,1.53,0,0,0-.276-.552,1.008,1.008,0,0,0-.412-.3,1.364,1.364,0,0,0-.5-.092,1.333,1.333,0,0,0-.5.092.985.985,0,0,0-.4.3,1.524,1.524,0,0,0-.268.552,3.084,3.084,0,0,0-.1.828,2.916,2.916,0,0,0,.1.808,1.444,1.444,0,0,0,.268.532.978.978,0,0,0,.4.292,1.387,1.387,0,0,0,.5.088,1.419,1.419,0,0,0,.5-.088,1,1,0,0,0,.412-.292,1.452,1.452,0,0,0,.276-.532A2.805,2.805,0,0,0,29.552-2.712Z" transform="translate(537 807)" fill="#f2f2f2"/><path d="M4.624-1.3a2.552,2.552,0,0,0,.952-.172,2.195,2.195,0,0,0,.74-.476,2.108,2.108,0,0,0,.476-.72,2.392,2.392,0,0,0,.168-.9A2.589,2.589,0,0,0,6.8-4.516a1.948,1.948,0,0,0-.464-.708,2.062,2.062,0,0,0-.72-.444,2.635,2.635,0,0,0-.924-.156,2.41,2.41,0,0,0-.94.176,2.14,2.14,0,0,0-.716.48,2.116,2.116,0,0,0-.456.712,2.345,2.345,0,0,0-.16.864,2.9,2.9,0,0,0,.144.936,1.977,1.977,0,0,0,.424.724,1.926,1.926,0,0,0,.692.468A2.5,2.5,0,0,0,4.624-1.3ZM3.992-7.28l-.244.3q-.116.144-.228.288a3.513,3.513,0,0,1,.808-.328,3.576,3.576,0,0,1,.944-.12,3.8,3.8,0,0,1,1.288.22,3.1,3.1,0,0,1,1.084.656,3.194,3.194,0,0,1,.748,1.08A3.692,3.692,0,0,1,8.672-3.7,3.827,3.827,0,0,1,8.38-2.2,3.65,3.65,0,0,1,7.56-.988a3.871,3.871,0,0,1-1.268.816,4.316,4.316,0,0,1-1.636.3A4.318,4.318,0,0,1,3.04-.16,3.492,3.492,0,0,1,1.812-.972a3.554,3.554,0,0,1-.78-1.26A4.7,4.7,0,0,1,.76-3.872,4.484,4.484,0,0,1,1.1-5.512a7.872,7.872,0,0,1,1.04-1.8l2.832-3.8A1.025,1.025,0,0,1,5.34-11.4a1.225,1.225,0,0,1,.548-.12h1.52Zm11.16-1.456a3.176,3.176,0,0,1-.212,1.192,2.75,2.75,0,0,1-.572.9,2.46,2.46,0,0,1-.832.568,2.561,2.561,0,0,1-.992.2,2.7,2.7,0,0,1-1.036-.2,2.329,2.329,0,0,1-.824-.568,2.7,2.7,0,0,1-.548-.9,3.346,3.346,0,0,1-.2-1.192,3.5,3.5,0,0,1,.2-1.22,2.677,2.677,0,0,1,.548-.912,2.374,2.374,0,0,1,.824-.572,2.647,2.647,0,0,1,1.036-.2,2.647,2.647,0,0,1,1.036.2,2.374,2.374,0,0,1,.824.572,2.677,2.677,0,0,1,.548.912A3.5,3.5,0,0,1,15.152-8.736Zm-1.328,0a2.967,2.967,0,0,0-.1-.828,1.571,1.571,0,0,0-.272-.552.979.979,0,0,0-.408-.3,1.364,1.364,0,0,0-.5-.092,1.355,1.355,0,0,0-.5.092.956.956,0,0,0-.4.3,1.565,1.565,0,0,0-.264.552,3.084,3.084,0,0,0-.1.828,2.916,2.916,0,0,0,.1.808,1.483,1.483,0,0,0,.264.532.949.949,0,0,0,.4.292,1.41,1.41,0,0,0,.5.088,1.419,1.419,0,0,0,.5-.088.973.973,0,0,0,.408-.292,1.49,1.49,0,0,0,.272-.532A2.805,2.805,0,0,0,13.824-8.736Zm5.28-2.5a.932.932,0,0,1,.212-.2.616.616,0,0,1,.348-.084H20.9L12.416-.264a.774.774,0,0,1-.216.188A.6.6,0,0,1,11.888,0h-1.28Zm2.5,8.528a3.124,3.124,0,0,1-.216,1.192,2.756,2.756,0,0,1-.576.9,2.487,2.487,0,0,1-.832.564,2.561,2.561,0,0,1-.992.2,2.7,2.7,0,0,1-1.036-.2,2.354,2.354,0,0,1-.824-.564,2.6,2.6,0,0,1-.544-.9,3.407,3.407,0,0,1-.2-1.192,3.559,3.559,0,0,1,.2-1.22,2.671,2.671,0,0,1,.544-.916,2.305,2.305,0,0,1,.824-.572,2.7,2.7,0,0,1,1.036-.2,2.725,2.725,0,0,1,1.04.2,2.3,2.3,0,0,1,.828.572,2.721,2.721,0,0,1,.548.916A3.5,3.5,0,0,1,21.6-2.712Zm-1.328,0a2.967,2.967,0,0,0-.1-.828,1.53,1.53,0,0,0-.276-.552,1.008,1.008,0,0,0-.412-.3,1.364,1.364,0,0,0-.5-.092,1.333,1.333,0,0,0-.5.092.985.985,0,0,0-.4.3,1.524,1.524,0,0,0-.268.552,3.084,3.084,0,0,0-.1.828,2.916,2.916,0,0,0,.1.808,1.444,1.444,0,0,0,.268.532.978.978,0,0,0,.4.292,1.387,1.387,0,0,0,.5.088,1.419,1.419,0,0,0,.5-.088,1,1,0,0,0,.412-.292,1.452,1.452,0,0,0,.276-.532A2.805,2.805,0,0,0,20.272-2.712Z" transform="translate(587 753)" fill="#f2f2f2"/><path d="M6.87-10.65c1.935,0,3.21.66,3.21,1.74,0,1.1-1.275,1.755-3.21,1.755-1.95,0-3.225-.66-3.225-1.755C3.645-9.99,4.92-10.65,6.87-10.65Zm0,4.74c2.85,0,4.8-1.17,4.8-3,0-1.815-1.95-2.985-4.8-2.985-2.865,0-4.815,1.17-4.815,2.985C2.055-7.08,4.005-5.91,6.87-5.91Zm6.165,1.155H.75V-3.48h3V1.155H5.325V-3.48h3.09V1.155H9.99V-3.48h3.06Zm6.255-1.71H15.975v-1.98H19.29Zm1.53-5.07H19.29V-9.66H15.975v-1.875H14.43v6.3h6.39ZM20.175-.045c-1.89,0-2.985-.48-2.985-1.365s1.1-1.35,2.985-1.35,2.985.48,2.985,1.35S22.065-.045,20.175-.045Zm0-3.945c-2.79,0-4.515.975-4.515,2.58,0,1.62,1.725,2.58,4.515,2.58S24.69.21,24.69-1.41C24.69-3.015,22.965-3.99,20.175-3.99Zm4.365-5.1v-3.3H22.995V-4.3H24.54v-3.51h1.92V-9.09Zm4.3.69a1.914,1.914,0,0,1,2.085-1.92,1.926,1.926,0,0,1,2.1,1.92,1.924,1.924,0,0,1-2.1,1.95A1.912,1.912,0,0,1,28.845-8.4Zm5.7,0a3.313,3.313,0,0,0-3.615-3.21,3.309,3.309,0,0,0-3.6,3.21,3.325,3.325,0,0,0,3.6,3.255A3.329,3.329,0,0,0,34.545-8.4Zm-3.93,5.64h5.61V-.24h-5.61ZM29.085.99H37.74V-3.99H29.085ZM39.66-9.225H37.74V-12.39H36.195v7.77H37.74V-7.95h1.92ZM45.21-6.15h4.635v-5.04H43.65v1.26h4.665V-7.4H43.68V-2.04h1.11a34,34,0,0,0,6.4-.465l-.165-1.26a32.171,32.171,0,0,1-5.82.45Zm10.53-.975H53.655v-5.3H52.1V1.17h1.56V-5.835H55.74Zm10.185-5.28V1.185h1.56v-13.59ZM60.27-11.4c-2.01,0-3.48,1.86-3.48,4.77,0,2.94,1.47,4.785,3.48,4.785,2.025,0,3.5-1.845,3.5-4.785C63.765-9.54,62.295-11.4,60.27-11.4Zm0,1.395c1.185,0,2.01,1.275,2.01,3.375,0,2.13-.825,3.405-2.01,3.405-1.17,0-1.995-1.275-1.995-3.405C58.275-8.73,59.1-10.005,60.27-10.005Zm9.27,8.19V-.54H81.81V-1.815Zm1.38-9.645v7.14H80.4v-7.14H78.87v2.37H72.45v-2.37Zm1.53,3.6h6.42v2.3H72.45ZM84.735-6.285h4.53V-11.19H83.19v1.245h4.56V-7.53H83.22v5.505h1.065a34.464,34.464,0,0,0,6.15-.42L90.3-3.705a32.924,32.924,0,0,1-5.565.4Zm7.68-6.135v5.085h-2.37V-6.06h2.37V1.17H93.96V-12.42Zm5.85,6.255h4.725V-11.19H96.675v1.26h4.755v2.52H96.7v5.37H97.86a37.3,37.3,0,0,0,6.735-.48l-.165-1.26a38.781,38.781,0,0,1-6.165.465Zm7.29-6.255V1.185h1.56V-12.42Z" transform="translate(466 904)" fill="#4d4d4d"/><path d="M5.175-10.53c1.185,0,2.01.615,2.01,1.56,0,.96-.825,1.575-2.01,1.575-1.17,0-2.01-.615-2.01-1.575C3.165-9.915,4.005-10.53,5.175-10.53Zm0,4.41C7.2-6.12,8.67-7.29,8.67-8.97c0-1.665-1.47-2.835-3.495-2.835s-3.5,1.17-3.5,2.835C1.68-7.29,3.15-6.12,5.175-6.12Zm4.365.51a63.037,63.037,0,0,1-8.775.48l.18,1.275c1.05,0,2.25-.015,3.525-.06V.75H6.015V-4.005a29.654,29.654,0,0,0,3.63-.465Zm.885-6.78V1.17H11.97V-12.39Zm5.22,3.99a1.914,1.914,0,0,1,2.085-1.92,1.926,1.926,0,0,1,2.1,1.92,1.924,1.924,0,0,1-2.1,1.95A1.912,1.912,0,0,1,15.645-8.4Zm5.7,0a3.313,3.313,0,0,0-3.615-3.21,3.309,3.309,0,0,0-3.6,3.21,3.325,3.325,0,0,0,3.6,3.255A3.329,3.329,0,0,0,21.345-8.4Zm-3.93,5.64h5.61V-.24h-5.61ZM15.885.99H24.54V-3.99H15.885ZM26.46-9.225H24.54V-12.39H22.995v7.77H24.54V-7.95h1.92ZM32.01-6.15h4.635v-5.04H30.45v1.26h4.665V-7.4H30.48V-2.04h1.11a34,34,0,0,0,6.4-.465l-.165-1.26a32.171,32.171,0,0,1-5.82.45Zm10.53-.975H40.455v-5.3h-1.56V1.17h1.56V-5.835H42.54Zm10.185-5.28V1.185h1.56v-13.59ZM47.07-11.4c-2.01,0-3.48,1.86-3.48,4.77,0,2.94,1.47,4.785,3.48,4.785,2.025,0,3.495-1.845,3.495-4.785C50.565-9.54,49.095-11.4,47.07-11.4Zm0,1.395c1.185,0,2.01,1.275,2.01,3.375,0,2.13-.825,3.405-2.01,3.405-1.17,0-1.995-1.275-1.995-3.405C45.075-8.73,45.9-10.005,47.07-10.005Zm9.27,8.19V-.54H68.61V-1.815Zm1.38-9.645v7.14H67.2v-7.14H65.67v2.37H59.25v-2.37Zm1.53,3.6h6.42v2.3H59.25ZM71.535-6.285h4.53V-11.19H69.99v1.245h4.56V-7.53H70.02v5.505h1.065a34.464,34.464,0,0,0,6.15-.42L77.1-3.705a32.924,32.924,0,0,1-5.565.4Zm7.68-6.135v5.085h-2.37V-6.06h2.37V1.17H80.76V-12.42Zm5.85,6.255H89.79V-11.19H83.475v1.26H88.23v2.52H83.5v5.37H84.66a37.3,37.3,0,0,0,6.735-.48L91.23-3.78a38.781,38.781,0,0,1-6.165.465Zm7.29-6.255V1.185h1.56V-12.42Z" transform="translate(743 904)" fill="#4d4d4d"/><g transform="translate(413 629)" fill="#fff" opacity="0.8"><path d="M 48 26.5 L 2 26.5 C 1.172899961471558 26.5 0.5 25.82710075378418 0.5 25 L 0.5 2 C 0.5 1.172899961471558 1.172899961471558 0.5 2 0.5 L 48 0.5 C 48.82709884643555 0.5 49.5 1.172899961471558 49.5 2 L 49.5 25 C 49.5 25.82710075378418 48.82709884643555 26.5 48 26.5 Z" stroke="none"/><path d="M 2 1 C 1.448600769042969 1 1 1.448600769042969 1 2 L 1 25 C 1 25.55139923095703 1.448600769042969 26 2 26 L 48 26 C 48.55139923095703 26 49 25.55139923095703 49 25 L 49 2 C 49 1.448600769042969 48.55139923095703 1 48 1 L 2 1 M 2 0 L 48 0 C 49.10456848144531 0 50 0.8954296112060547 50 2 L 50 25 C 50 26.10457038879395 49.10456848144531 27 48 27 L 2 27 C 0.8954315185546875 27 0 26.10457038879395 0 25 L 0 2 C 0 0.8954296112060547 0.8954315185546875 0 2 0 Z" stroke="none" fill="#707070"/></g><path d="M2.366-8.255H5.4V-9.347H1.053v7.553h.78A21.177,21.177,0,0,0,6.11-2.119L5.993-3.224A18.016,18.016,0,0,1,2.366-2.9Zm7.033-2.5V-6.11H8.008V-10.5H6.747V.416H8.008V-5.018H9.4V.988h1.274V-10.751Z" transform="translate(441 648)" fill="#0d0d0d"/><path d="M5.768-4.256V-8.464a9.318,9.318,0,0,1,.072-1.1L1.968-4.256Zm3.088,0v.992a.362.362,0,0,1-.092.248.349.349,0,0,1-.276.1H7.264V0h-1.5V-2.912H.784A.483.483,0,0,1,.468-3.02.494.494,0,0,1,.3-3.288L.12-4.168l5.528-7.36H7.264v7.272Zm9.264-1.5A9.349,9.349,0,0,1,17.8-3.144,5.437,5.437,0,0,1,16.9-1.312a3.579,3.579,0,0,1-1.336,1.08A3.927,3.927,0,0,1,13.912.12a3.927,3.927,0,0,1-1.656-.352,3.547,3.547,0,0,1-1.332-1.08,5.43,5.43,0,0,1-.884-1.832A9.459,9.459,0,0,1,9.72-5.76a9.5,9.5,0,0,1,.32-2.62,5.381,5.381,0,0,1,.884-1.832,3.6,3.6,0,0,1,1.332-1.08,3.889,3.889,0,0,1,1.656-.356,3.889,3.889,0,0,1,1.656.356,3.632,3.632,0,0,1,1.336,1.08A5.388,5.388,0,0,1,17.8-8.38,9.392,9.392,0,0,1,18.12-5.76Zm-1.776,0a9.352,9.352,0,0,0-.2-2.132,4.336,4.336,0,0,0-.54-1.364,2,2,0,0,0-.776-.728,2.046,2.046,0,0,0-.912-.216A2.037,2.037,0,0,0,13-9.984a2.011,2.011,0,0,0-.772.728,4.276,4.276,0,0,0-.536,1.364,9.533,9.533,0,0,0-.2,2.132,9.533,9.533,0,0,0,.2,2.132,4.276,4.276,0,0,0,.536,1.364A2.011,2.011,0,0,0,13-1.536a2.037,2.037,0,0,0,.916.216,2.046,2.046,0,0,0,.912-.216,2,2,0,0,0,.776-.728,4.336,4.336,0,0,0,.54-1.364A9.352,9.352,0,0,0,16.344-5.76Z" transform="translate(421 649)" fill="#0d0d0d"/><g transform="translate(824 615)" fill="#fff" opacity="0.8"><path d="M 48 26.5 L 2 26.5 C 1.172899961471558 26.5 0.5 25.82710075378418 0.5 25 L 0.5 2 C 0.5 1.172899961471558 1.172899961471558 0.5 2 0.5 L 48 0.5 C 48.82709884643555 0.5 49.5 1.172899961471558 49.5 2 L 49.5 25 C 49.5 25.82710075378418 48.82709884643555 26.5 48 26.5 Z" stroke="none"/><path d="M 2 1 C 1.448600769042969 1 1 1.448600769042969 1 2 L 1 25 C 1 25.55139923095703 1.448600769042969 26 2 26 L 48 26 C 48.55139923095703 26 49 25.55139923095703 49 25 L 49 2 C 49 1.448600769042969 48.55139923095703 1 48 1 L 2 1 M 2 0 L 48 0 C 49.10456848144531 0 50 0.8954296112060547 50 2 L 50 25 C 50 26.10457038879395 49.10456848144531 27 48 27 L 2 27 C 0.8954315185546875 27 0 26.10457038879395 0 25 L 0 2 C 0 0.8954296112060547 0.8954315185546875 0 2 0 Z" stroke="none" fill="#707070"/></g><path d="M2.366-8.255H5.4V-9.347H1.053v7.553h.78A21.177,21.177,0,0,0,6.11-2.119L5.993-3.224A18.016,18.016,0,0,1,2.366-2.9Zm7.033-2.5V-6.11H8.008V-10.5H6.747V.416H8.008V-5.018H9.4V.988h1.274V-10.751Z" transform="translate(852 634)" fill="#0d0d0d"/><path d="M5.768-4.256V-8.464a9.318,9.318,0,0,1,.072-1.1L1.968-4.256Zm3.088,0v.992a.362.362,0,0,1-.092.248.349.349,0,0,1-.276.1H7.264V0h-1.5V-2.912H.784A.483.483,0,0,1,.468-3.02.494.494,0,0,1,.3-3.288L.12-4.168l5.528-7.36H7.264v7.272Zm9.264-1.5A9.349,9.349,0,0,1,17.8-3.144,5.437,5.437,0,0,1,16.9-1.312a3.579,3.579,0,0,1-1.336,1.08A3.927,3.927,0,0,1,13.912.12a3.927,3.927,0,0,1-1.656-.352,3.547,3.547,0,0,1-1.332-1.08,5.43,5.43,0,0,1-.884-1.832A9.459,9.459,0,0,1,9.72-5.76a9.5,9.5,0,0,1,.32-2.62,5.381,5.381,0,0,1,.884-1.832,3.6,3.6,0,0,1,1.332-1.08,3.889,3.889,0,0,1,1.656-.356,3.889,3.889,0,0,1,1.656.356,3.632,3.632,0,0,1,1.336,1.08A5.388,5.388,0,0,1,17.8-8.38,9.392,9.392,0,0,1,18.12-5.76Zm-1.776,0a9.352,9.352,0,0,0-.2-2.132,4.336,4.336,0,0,0-.54-1.364,2,2,0,0,0-.776-.728,2.046,2.046,0,0,0-.912-.216A2.037,2.037,0,0,0,13-9.984a2.011,2.011,0,0,0-.772.728,4.276,4.276,0,0,0-.536,1.364,9.533,9.533,0,0,0-.2,2.132,9.533,9.533,0,0,0,.2,2.132,4.276,4.276,0,0,0,.536,1.364A2.011,2.011,0,0,0,13-1.536a2.037,2.037,0,0,0,.916.216,2.046,2.046,0,0,0,.912-.216,2,2,0,0,0,.776-.728,4.336,4.336,0,0,0,.54-1.364A9.352,9.352,0,0,0,16.344-5.76Z" transform="translate(832 635)" fill="#0d0d0d"/><g transform="translate(693 620)" fill="#fff" opacity="0.8"><path d="M 48 26.5 L 2 26.5 C 1.172899961471558 26.5 0.5 25.82710075378418 0.5 25 L 0.5 2 C 0.5 1.172899961471558 1.172899961471558 0.5 2 0.5 L 48 0.5 C 48.82709884643555 0.5 49.5 1.172899961471558 49.5 2 L 49.5 25 C 49.5 25.82710075378418 48.82709884643555 26.5 48 26.5 Z" stroke="none"/><path d="M 2 1 C 1.448600769042969 1 1 1.448600769042969 1 2 L 1 25 C 1 25.55139923095703 1.448600769042969 26 2 26 L 48 26 C 48.55139923095703 26 49 25.55139923095703 49 25 L 49 2 C 49 1.448600769042969 48.55139923095703 1 48 1 L 2 1 M 2 0 L 48 0 C 49.10456848144531 0 50 0.8954296112060547 50 2 L 50 25 C 50 26.10457038879395 49.10456848144531 27 48 27 L 2 27 C 0.8954315185546875 27 0 26.10457038879395 0 25 L 0 2 C 0 0.8954296112060547 0.8954315185546875 0 2 0 Z" stroke="none" fill="#707070"/></g><path d="M2.366-8.255H5.4V-9.347H1.053v7.553h.78A21.177,21.177,0,0,0,6.11-2.119L5.993-3.224A18.016,18.016,0,0,1,2.366-2.9Zm7.033-2.5V-6.11H8.008V-10.5H6.747V.416H8.008V-5.018H9.4V.988h1.274V-10.751Z" transform="translate(721 639)" fill="#0d0d0d"/><path d="M3.08-7.264a7.8,7.8,0,0,1,.8-.128,7,7,0,0,1,.732-.04,4.4,4.4,0,0,1,1.6.268,3.271,3.271,0,0,1,1.16.74,3.072,3.072,0,0,1,.7,1.108A3.936,3.936,0,0,1,8.3-3.936a4.229,4.229,0,0,1-.32,1.672A3.743,3.743,0,0,1,7.1-.98a3.961,3.961,0,0,1-1.34.82A4.735,4.735,0,0,1,4.088.128a4.694,4.694,0,0,1-1-.1A4.845,4.845,0,0,1,2.192-.26a4.793,4.793,0,0,1-.768-.416,5.348,5.348,0,0,1-.632-.492L1.32-1.9a.521.521,0,0,1,.448-.24.744.744,0,0,1,.384.128q.208.128.484.276a4.358,4.358,0,0,0,.652.276,2.79,2.79,0,0,0,.9.128A2.654,2.654,0,0,0,5.2-1.52a2.107,2.107,0,0,0,.756-.516,2.215,2.215,0,0,0,.468-.8,3.1,3.1,0,0,0,.16-1.016,2.592,2.592,0,0,0-.148-.9A1.786,1.786,0,0,0,6-5.432a1.927,1.927,0,0,0-.732-.428,3.185,3.185,0,0,0-1.016-.148,5.418,5.418,0,0,0-.868.072,5.763,5.763,0,0,0-.9.224l-1.072-.3.944-5.5H7.928v.744a.812.812,0,0,1-.232.6,1.071,1.071,0,0,1-.776.232H3.544Zm15.04,1.5A9.349,9.349,0,0,1,17.8-3.144,5.437,5.437,0,0,1,16.9-1.312a3.579,3.579,0,0,1-1.336,1.08A3.927,3.927,0,0,1,13.912.12a3.927,3.927,0,0,1-1.656-.352,3.547,3.547,0,0,1-1.332-1.08,5.43,5.43,0,0,1-.884-1.832A9.459,9.459,0,0,1,9.72-5.76a9.5,9.5,0,0,1,.32-2.62,5.381,5.381,0,0,1,.884-1.832,3.6,3.6,0,0,1,1.332-1.08,3.889,3.889,0,0,1,1.656-.356,3.889,3.889,0,0,1,1.656.356,3.632,3.632,0,0,1,1.336,1.08A5.388,5.388,0,0,1,17.8-8.38,9.392,9.392,0,0,1,18.12-5.76Zm-1.776,0a9.352,9.352,0,0,0-.2-2.132,4.336,4.336,0,0,0-.54-1.364,2,2,0,0,0-.776-.728,2.046,2.046,0,0,0-.912-.216A2.037,2.037,0,0,0,13-9.984a2.011,2.011,0,0,0-.772.728,4.276,4.276,0,0,0-.536,1.364,9.533,9.533,0,0,0-.2,2.132,9.533,9.533,0,0,0,.2,2.132,4.276,4.276,0,0,0,.536,1.364A2.011,2.011,0,0,0,13-1.536a2.037,2.037,0,0,0,.916.216,2.046,2.046,0,0,0,.912-.216,2,2,0,0,0,.776-.728,4.336,4.336,0,0,0,.54-1.364A9.352,9.352,0,0,0,16.344-5.76Z" transform="translate(701 640)" fill="#0d0d0d"/><g transform="translate(413 801)" fill="#fff" opacity="0.8"><path d="M 46 26.5 L 2 26.5 C 1.172899961471558 26.5 0.5 25.82710075378418 0.5 25 L 0.5 2 C 0.5 1.172899961471558 1.172899961471558 0.5 2 0.5 L 46 0.5 C 46.82709884643555 0.5 47.5 1.172899961471558 47.5 2 L 47.5 25 C 47.5 25.82710075378418 46.82709884643555 26.5 46 26.5 Z" stroke="none"/><path d="M 2 1 C 1.448600769042969 1 1 1.448600769042969 1 2 L 1 25 C 1 25.55139923095703 1.448600769042969 26 2 26 L 46 26 C 46.55139923095703 26 47 25.55139923095703 47 25 L 47 2 C 47 1.448600769042969 46.55139923095703 1 46 1 L 2 1 M 2 0 L 46 0 C 47.10456848144531 0 48 0.8954296112060547 48 2 L 48 25 C 48 26.10457038879395 47.10456848144531 27 46 27 L 2 27 C 0.8954315185546875 27 0 26.10457038879395 0 25 L 0 2 C 0 0.8954296112060547 0.8954315185546875 0 2 0 Z" stroke="none" fill="#707070"/></g><path d="M2.366-8.255H5.4V-9.347H1.053v7.553h.78A21.177,21.177,0,0,0,6.11-2.119L5.993-3.224A18.016,18.016,0,0,1,2.366-2.9Zm7.033-2.5V-6.11H8.008V-10.5H6.747V.416H8.008V-5.018H9.4V.988h1.274V-10.751Z" transform="translate(441 820)" fill="#0d0d0d"/><path d="M3.08-7.264a7.8,7.8,0,0,1,.8-.128,7,7,0,0,1,.732-.04,4.4,4.4,0,0,1,1.6.268,3.271,3.271,0,0,1,1.16.74,3.072,3.072,0,0,1,.7,1.108A3.936,3.936,0,0,1,8.3-3.936a4.229,4.229,0,0,1-.32,1.672A3.743,3.743,0,0,1,7.1-.98a3.961,3.961,0,0,1-1.34.82A4.735,4.735,0,0,1,4.088.128a4.694,4.694,0,0,1-1-.1A4.845,4.845,0,0,1,2.192-.26a4.793,4.793,0,0,1-.768-.416,5.348,5.348,0,0,1-.632-.492L1.32-1.9a.521.521,0,0,1,.448-.24.744.744,0,0,1,.384.128q.208.128.484.276a4.358,4.358,0,0,0,.652.276,2.79,2.79,0,0,0,.9.128A2.654,2.654,0,0,0,5.2-1.52a2.107,2.107,0,0,0,.756-.516,2.215,2.215,0,0,0,.468-.8,3.1,3.1,0,0,0,.16-1.016,2.592,2.592,0,0,0-.148-.9A1.786,1.786,0,0,0,6-5.432a1.927,1.927,0,0,0-.732-.428,3.185,3.185,0,0,0-1.016-.148,5.418,5.418,0,0,0-.868.072,5.763,5.763,0,0,0-.9.224l-1.072-.3.944-5.5H7.928v.744a.812.812,0,0,1-.232.6,1.071,1.071,0,0,1-.776.232H3.544Zm15.04,1.5A9.349,9.349,0,0,1,17.8-3.144,5.437,5.437,0,0,1,16.9-1.312a3.579,3.579,0,0,1-1.336,1.08A3.927,3.927,0,0,1,13.912.12a3.927,3.927,0,0,1-1.656-.352,3.547,3.547,0,0,1-1.332-1.08,5.43,5.43,0,0,1-.884-1.832A9.459,9.459,0,0,1,9.72-5.76a9.5,9.5,0,0,1,.32-2.62,5.381,5.381,0,0,1,.884-1.832,3.6,3.6,0,0,1,1.332-1.08,3.889,3.889,0,0,1,1.656-.356,3.889,3.889,0,0,1,1.656.356,3.632,3.632,0,0,1,1.336,1.08A5.388,5.388,0,0,1,17.8-8.38,9.392,9.392,0,0,1,18.12-5.76Zm-1.776,0a9.352,9.352,0,0,0-.2-2.132,4.336,4.336,0,0,0-.54-1.364,2,2,0,0,0-.776-.728,2.046,2.046,0,0,0-.912-.216A2.037,2.037,0,0,0,13-9.984a2.011,2.011,0,0,0-.772.728,4.276,4.276,0,0,0-.536,1.364,9.533,9.533,0,0,0-.2,2.132,9.533,9.533,0,0,0,.2,2.132,4.276,4.276,0,0,0,.536,1.364A2.011,2.011,0,0,0,13-1.536a2.037,2.037,0,0,0,.916.216,2.046,2.046,0,0,0,.912-.216,2,2,0,0,0,.776-.728,4.336,4.336,0,0,0,.54-1.364A9.352,9.352,0,0,0,16.344-5.76Z" transform="translate(421 821)" fill="#0d0d0d"/><g transform="translate(559 820)" fill="#fff" opacity="0.8"><path d="M 48 26.5 L 2 26.5 C 1.172899961471558 26.5 0.5 25.82710075378418 0.5 25 L 0.5 2 C 0.5 1.172899961471558 1.172899961471558 0.5 2 0.5 L 48 0.5 C 48.82709884643555 0.5 49.5 1.172899961471558 49.5 2 L 49.5 25 C 49.5 25.82710075378418 48.82709884643555 26.5 48 26.5 Z" stroke="none"/><path d="M 2 1 C 1.448600769042969 1 1 1.448600769042969 1 2 L 1 25 C 1 25.55139923095703 1.448600769042969 26 2 26 L 48 26 C 48.55139923095703 26 49 25.55139923095703 49 25 L 49 2 C 49 1.448600769042969 48.55139923095703 1 48 1 L 2 1 M 2 0 L 48 0 C 49.10456848144531 0 50 0.8954296112060547 50 2 L 50 25 C 50 26.10457038879395 49.10456848144531 27 48 27 L 2 27 C 0.8954315185546875 27 0 26.10457038879395 0 25 L 0 2 C 0 0.8954296112060547 0.8954315185546875 0 2 0 Z" stroke="none" fill="#707070"/></g><path d="M2.366-8.255H5.4V-9.347H1.053v7.553h.78A21.177,21.177,0,0,0,6.11-2.119L5.993-3.224A18.016,18.016,0,0,1,2.366-2.9Zm7.033-2.5V-6.11H8.008V-10.5H6.747V.416H8.008V-5.018H9.4V.988h1.274V-10.751Z" transform="translate(587 839)" fill="#0d0d0d"/><path d="M4.624-1.3a2.552,2.552,0,0,0,.952-.172,2.195,2.195,0,0,0,.74-.476,2.108,2.108,0,0,0,.476-.72,2.392,2.392,0,0,0,.168-.9A2.589,2.589,0,0,0,6.8-4.516a1.948,1.948,0,0,0-.464-.708,2.062,2.062,0,0,0-.72-.444,2.635,2.635,0,0,0-.924-.156,2.41,2.41,0,0,0-.94.176,2.14,2.14,0,0,0-.716.48,2.116,2.116,0,0,0-.456.712,2.345,2.345,0,0,0-.16.864,2.9,2.9,0,0,0,.144.936,1.977,1.977,0,0,0,.424.724,1.926,1.926,0,0,0,.692.468A2.5,2.5,0,0,0,4.624-1.3ZM3.992-7.28l-.244.3q-.116.144-.228.288a3.513,3.513,0,0,1,.808-.328,3.576,3.576,0,0,1,.944-.12,3.8,3.8,0,0,1,1.288.22,3.1,3.1,0,0,1,1.084.656,3.194,3.194,0,0,1,.748,1.08A3.692,3.692,0,0,1,8.672-3.7,3.827,3.827,0,0,1,8.38-2.2,3.65,3.65,0,0,1,7.56-.988a3.871,3.871,0,0,1-1.268.816,4.316,4.316,0,0,1-1.636.3A4.318,4.318,0,0,1,3.04-.16,3.492,3.492,0,0,1,1.812-.972a3.554,3.554,0,0,1-.78-1.26A4.7,4.7,0,0,1,.76-3.872,4.484,4.484,0,0,1,1.1-5.512a7.872,7.872,0,0,1,1.04-1.8l2.832-3.8A1.025,1.025,0,0,1,5.34-11.4a1.225,1.225,0,0,1,.548-.12h1.52ZM18.12-5.76A9.349,9.349,0,0,1,17.8-3.144,5.437,5.437,0,0,1,16.9-1.312a3.579,3.579,0,0,1-1.336,1.08A3.927,3.927,0,0,1,13.912.12a3.927,3.927,0,0,1-1.656-.352,3.547,3.547,0,0,1-1.332-1.08,5.43,5.43,0,0,1-.884-1.832A9.459,9.459,0,0,1,9.72-5.76a9.5,9.5,0,0,1,.32-2.62,5.381,5.381,0,0,1,.884-1.832,3.6,3.6,0,0,1,1.332-1.08,3.889,3.889,0,0,1,1.656-.356,3.889,3.889,0,0,1,1.656.356,3.632,3.632,0,0,1,1.336,1.08A5.388,5.388,0,0,1,17.8-8.38,9.392,9.392,0,0,1,18.12-5.76Zm-1.776,0a9.352,9.352,0,0,0-.2-2.132,4.336,4.336,0,0,0-.54-1.364,2,2,0,0,0-.776-.728,2.046,2.046,0,0,0-.912-.216A2.037,2.037,0,0,0,13-9.984a2.011,2.011,0,0,0-.772.728,4.276,4.276,0,0,0-.536,1.364,9.533,9.533,0,0,0-.2,2.132,9.533,9.533,0,0,0,.2,2.132,4.276,4.276,0,0,0,.536,1.364A2.011,2.011,0,0,0,13-1.536a2.037,2.037,0,0,0,.916.216,2.046,2.046,0,0,0,.912-.216,2,2,0,0,0,.776-.728,4.336,4.336,0,0,0,.54-1.364A9.352,9.352,0,0,0,16.344-5.76Z" transform="translate(567 840)" fill="#0d0d0d"/><g transform="translate(676 718)" fill="#fff" opacity="0.8"><path d="M 48 26.5 L 2 26.5 C 1.172899961471558 26.5 0.5 25.82710075378418 0.5 25 L 0.5 2 C 0.5 1.172899961471558 1.172899961471558 0.5 2 0.5 L 48 0.5 C 48.82709884643555 0.5 49.5 1.172899961471558 49.5 2 L 49.5 25 C 49.5 25.82710075378418 48.82709884643555 26.5 48 26.5 Z" stroke="none"/><path d="M 2 1 C 1.448600769042969 1 1 1.448600769042969 1 2 L 1 25 C 1 25.55139923095703 1.448600769042969 26 2 26 L 48 26 C 48.55139923095703 26 49 25.55139923095703 49 25 L 49 2 C 49 1.448600769042969 48.55139923095703 1 48 1 L 2 1 M 2 0 L 48 0 C 49.10456848144531 0 50 0.8954296112060547 50 2 L 50 25 C 50 26.10457038879395 49.10456848144531 27 48 27 L 2 27 C 0.8954315185546875 27 0 26.10457038879395 0 25 L 0 2 C 0 0.8954296112060547 0.8954315185546875 0 2 0 Z" stroke="none" fill="#707070"/></g><path d="M2.366-8.255H5.4V-9.347H1.053v7.553h.78A21.177,21.177,0,0,0,6.11-2.119L5.993-3.224A18.016,18.016,0,0,1,2.366-2.9Zm7.033-2.5V-6.11H8.008V-10.5H6.747V.416H8.008V-5.018H9.4V.988h1.274V-10.751Z" transform="translate(704 737)" fill="#0d0d0d"/><path d="M4.624-1.3a2.552,2.552,0,0,0,.952-.172,2.195,2.195,0,0,0,.74-.476,2.108,2.108,0,0,0,.476-.72,2.392,2.392,0,0,0,.168-.9A2.589,2.589,0,0,0,6.8-4.516a1.948,1.948,0,0,0-.464-.708,2.062,2.062,0,0,0-.72-.444,2.635,2.635,0,0,0-.924-.156,2.41,2.41,0,0,0-.94.176,2.14,2.14,0,0,0-.716.48,2.116,2.116,0,0,0-.456.712,2.345,2.345,0,0,0-.16.864,2.9,2.9,0,0,0,.144.936,1.977,1.977,0,0,0,.424.724,1.926,1.926,0,0,0,.692.468A2.5,2.5,0,0,0,4.624-1.3ZM3.992-7.28l-.244.3q-.116.144-.228.288a3.513,3.513,0,0,1,.808-.328,3.576,3.576,0,0,1,.944-.12,3.8,3.8,0,0,1,1.288.22,3.1,3.1,0,0,1,1.084.656,3.194,3.194,0,0,1,.748,1.08A3.692,3.692,0,0,1,8.672-3.7,3.827,3.827,0,0,1,8.38-2.2,3.65,3.65,0,0,1,7.56-.988a3.871,3.871,0,0,1-1.268.816,4.316,4.316,0,0,1-1.636.3A4.318,4.318,0,0,1,3.04-.16,3.492,3.492,0,0,1,1.812-.972a3.554,3.554,0,0,1-.78-1.26A4.7,4.7,0,0,1,.76-3.872,4.484,4.484,0,0,1,1.1-5.512a7.872,7.872,0,0,1,1.04-1.8l2.832-3.8A1.025,1.025,0,0,1,5.34-11.4a1.225,1.225,0,0,1,.548-.12h1.52ZM18.12-5.76A9.349,9.349,0,0,1,17.8-3.144,5.437,5.437,0,0,1,16.9-1.312a3.579,3.579,0,0,1-1.336,1.08A3.927,3.927,0,0,1,13.912.12a3.927,3.927,0,0,1-1.656-.352,3.547,3.547,0,0,1-1.332-1.08,5.43,5.43,0,0,1-.884-1.832A9.459,9.459,0,0,1,9.72-5.76a9.5,9.5,0,0,1,.32-2.62,5.381,5.381,0,0,1,.884-1.832,3.6,3.6,0,0,1,1.332-1.08,3.889,3.889,0,0,1,1.656-.356,3.889,3.889,0,0,1,1.656.356,3.632,3.632,0,0,1,1.336,1.08A5.388,5.388,0,0,1,17.8-8.38,9.392,9.392,0,0,1,18.12-5.76Zm-1.776,0a9.352,9.352,0,0,0-.2-2.132,4.336,4.336,0,0,0-.54-1.364,2,2,0,0,0-.776-.728,2.046,2.046,0,0,0-.912-.216A2.037,2.037,0,0,0,13-9.984a2.011,2.011,0,0,0-.772.728,4.276,4.276,0,0,0-.536,1.364,9.533,9.533,0,0,0-.2,2.132,9.533,9.533,0,0,0,.2,2.132,4.276,4.276,0,0,0,.536,1.364A2.011,2.011,0,0,0,13-1.536a2.037,2.037,0,0,0,.916.216,2.046,2.046,0,0,0,.912-.216,2,2,0,0,0,.776-.728,4.336,4.336,0,0,0,.54-1.364A9.352,9.352,0,0,0,16.344-5.76Z" transform="translate(684 738)" fill="#0d0d0d"/><g transform="translate(570 628)" fill="#fff" opacity="0.8"><path d="M 64 26.5 L 2 26.5 C 1.172899961471558 26.5 0.5 25.82710075378418 0.5 25 L 0.5 2 C 0.5 1.172899961471558 1.172899961471558 0.5 2 0.5 L 64 0.5 C 64.82710266113281 0.5 65.5 1.172899961471558 65.5 2 L 65.5 25 C 65.5 25.82710075378418 64.82710266113281 26.5 64 26.5 Z" stroke="none"/><path d="M 2 1 C 1.448600769042969 1 1 1.448600769042969 1 2 L 1 25 C 1 25.55139923095703 1.448600769042969 26 2 26 L 64 26 C 64.55139923095703 26 65 25.55139923095703 65 25 L 65 2 C 65 1.448600769042969 64.55139923095703 1 64 1 L 2 1 M 2 0 L 64 0 C 65.10456848144531 0 66 0.8954296112060547 66 2 L 66 25 C 66 26.10457038879395 65.10456848144531 27 64 27 L 2 27 C 0.8954315185546875 27 0 26.10457038879395 0 25 L 0 2 C 0 0.8954296112060547 0.8954315185546875 0 2 0 Z" stroke="none" fill="#707070"/></g><path d="M2.366-8.255H5.4V-9.347H1.053v7.553h.78A21.177,21.177,0,0,0,6.11-2.119L5.993-3.224A18.016,18.016,0,0,1,2.366-2.9Zm7.033-2.5V-6.11H8.008V-10.5H6.747V.416H8.008V-5.018H9.4V.988h1.274V-10.751ZM20.745-8.27V.79h1.04V-8.27Zm-3.77.67c-1.34,0-2.32,1.24-2.32,3.18,0,1.96.98,3.19,2.32,3.19s2.33-1.23,2.33-3.19C19.305-6.36,18.325-7.6,16.975-7.6Zm0,.93c.79,0,1.34.85,1.34,2.25,0,1.42-.55,2.27-1.34,2.27s-1.33-.85-1.33-2.27C15.645-5.82,16.195-6.67,16.975-6.67Zm8.81,4.65a1.2,1.2,0,0,1-1.26-1.26,1.2,1.2,0,0,1,1.26-1.26,1.2,1.2,0,0,1,1.26,1.26A1.2,1.2,0,0,1,25.785-2.02Zm0-3.37a2.1,2.1,0,0,0-2.24,2.11,2.1,2.1,0,0,0,2.24,2.11,2.1,2.1,0,0,0,2.24-2.11A2.107,2.107,0,0,0,25.785-5.39Zm.5-2.73h-1.03v1.25H23.1v.84H28.4v-.84h-2.11Zm5.27,3.49h-1.39V-8.26h-1.04V.78h1.04V-3.77h1.39Z" transform="translate(598 647)" fill="#0d0d0d"/><path d="M.944-8.352A4.322,4.322,0,0,1,1.4-9.784a3.38,3.38,0,0,1,.836-1.028,3.533,3.533,0,0,1,1.156-.624A4.542,4.542,0,0,1,4.8-11.648a4.2,4.2,0,0,1,1.4.22,3.286,3.286,0,0,1,1.08.612,2.673,2.673,0,0,1,.7.936,2.879,2.879,0,0,1,.244,1.192,3.246,3.246,0,0,1-.132.972,2.39,2.39,0,0,1-.376.74,2.167,2.167,0,0,1-.6.536,3.721,3.721,0,0,1-.792.36,3.05,3.05,0,0,1,1.608,1,2.7,2.7,0,0,1,.536,1.716,3.371,3.371,0,0,1-.312,1.48,3.266,3.266,0,0,1-.844,1.1,3.738,3.738,0,0,1-1.24.684,4.713,4.713,0,0,1-1.5.236A4.959,4.959,0,0,1,3.032-.084,3.289,3.289,0,0,1,1.916-.692a3.417,3.417,0,0,1-.78-.956A6.584,6.584,0,0,1,.608-2.9l.744-.312a.924.924,0,0,1,.564-.072.534.534,0,0,1,.388.3q.128.256.288.548A2.249,2.249,0,0,0,3-1.908a2.109,2.109,0,0,0,.624.408,2.269,2.269,0,0,0,.916.164,2.392,2.392,0,0,0,.964-.18A2.14,2.14,0,0,0,6.2-1.98a1.878,1.878,0,0,0,.412-.636,1.921,1.921,0,0,0,.136-.7,2.889,2.889,0,0,0-.1-.8,1.255,1.255,0,0,0-.4-.62,2.167,2.167,0,0,0-.848-.4A5.675,5.675,0,0,0,3.952-5.28V-6.52A4.816,4.816,0,0,0,5.18-6.668a2.194,2.194,0,0,0,.8-.384,1.392,1.392,0,0,0,.432-.588,2.082,2.082,0,0,0,.132-.752,2.057,2.057,0,0,0-.136-.776,1.561,1.561,0,0,0-.38-.564,1.56,1.56,0,0,0-.58-.34,2.342,2.342,0,0,0-.744-.112,2.252,2.252,0,0,0-.724.112,2.023,2.023,0,0,0-.592.312,1.853,1.853,0,0,0-.436.476,1.993,1.993,0,0,0-.256.6.78.78,0,0,1-.3.44.8.8,0,0,1-.548.048ZM18.12-5.76A9.349,9.349,0,0,1,17.8-3.144,5.437,5.437,0,0,1,16.9-1.312a3.579,3.579,0,0,1-1.336,1.08A3.927,3.927,0,0,1,13.912.12a3.927,3.927,0,0,1-1.656-.352,3.547,3.547,0,0,1-1.332-1.08,5.43,5.43,0,0,1-.884-1.832A9.459,9.459,0,0,1,9.72-5.76a9.5,9.5,0,0,1,.32-2.62,5.381,5.381,0,0,1,.884-1.832,3.6,3.6,0,0,1,1.332-1.08,3.889,3.889,0,0,1,1.656-.356,3.889,3.889,0,0,1,1.656.356,3.632,3.632,0,0,1,1.336,1.08A5.388,5.388,0,0,1,17.8-8.38,9.392,9.392,0,0,1,18.12-5.76Zm-1.776,0a9.352,9.352,0,0,0-.2-2.132,4.336,4.336,0,0,0-.54-1.364,2,2,0,0,0-.776-.728,2.046,2.046,0,0,0-.912-.216A2.037,2.037,0,0,0,13-9.984a2.011,2.011,0,0,0-.772.728,4.276,4.276,0,0,0-.536,1.364,9.533,9.533,0,0,0-.2,2.132,9.533,9.533,0,0,0,.2,2.132,4.276,4.276,0,0,0,.536,1.364A2.011,2.011,0,0,0,13-1.536a2.037,2.037,0,0,0,.916.216,2.046,2.046,0,0,0,.912-.216,2,2,0,0,0,.776-.728,4.336,4.336,0,0,0,.54-1.364A9.352,9.352,0,0,0,16.344-5.76Z" transform="translate(578 648)" fill="#0d0d0d"/><g transform="translate(867 662)" fill="#fff" opacity="0.8"><path d="M 55 23.5 L 2 23.5 C 1.172899961471558 23.5 0.5 22.82710075378418 0.5 22 L 0.5 2 C 0.5 1.172899961471558 1.172899961471558 0.5 2 0.5 L 55 0.5 C 55.82709884643555 0.5 56.5 1.172899961471558 56.5 2 L 56.5 22 C 56.5 22.82710075378418 55.82709884643555 23.5 55 23.5 Z" stroke="none"/><path d="M 2 1 C 1.448600769042969 1 1 1.448600769042969 1 2 L 1 22 C 1 22.55139923095703 1.448600769042969 23 2 23 L 55 23 C 55.55139923095703 23 56 22.55139923095703 56 22 L 56 2 C 56 1.448600769042969 55.55139923095703 1 55 1 L 2 1 M 2 0 L 55 0 C 56.10456848144531 0 57 0.8954296112060547 57 2 L 57 22 C 57 23.10457038879395 56.10456848144531 24 55 24 L 2 24 C 0.8954315185546875 24 0 23.10457038879395 0 22 L 0 2 C 0 0.8954296112060547 0.8954315185546875 0 2 0 Z" stroke="none" fill="#707070"/></g><path d="M1.82-6.35H4.15v-.84H.81v5.81h.6A16.29,16.29,0,0,0,4.7-1.63l-.09-.85a13.858,13.858,0,0,1-2.79.25ZM7.23-8.27V-4.7H6.16V-8.08H5.19V.32h.97V-3.86H7.23V.76h.98V-8.27Zm8.94,1.654V.632H17V-6.616Zm-3.016.536c-1.072,0-1.856.992-1.856,2.544,0,1.568.784,2.552,1.856,2.552s1.864-.984,1.864-2.552C15.018-5.088,14.234-6.08,13.154-6.08Zm0,.744c.632,0,1.072.68,1.072,1.8,0,1.136-.44,1.816-1.072,1.816S12.09-2.4,12.09-3.536C12.09-4.656,12.53-5.336,13.154-5.336ZM20.2-1.616a.962.962,0,0,1-1.008-1.008A.962.962,0,0,1,20.2-3.632.962.962,0,0,1,21.21-2.624.962.962,0,0,1,20.2-1.616Zm0-2.7A1.681,1.681,0,0,0,18.41-2.624,1.676,1.676,0,0,0,20.2-.936a1.681,1.681,0,0,0,1.792-1.688A1.685,1.685,0,0,0,20.2-4.312ZM20.6-6.5h-.824v1h-1.72v.672H22.29V-5.5H20.6ZM24.818-3.7H23.706v-2.9h-.832V.624h.832v-3.64h1.112Z" transform="translate(891 678)" fill="#0d0d0d"/><path d="M.767-6.786A3.512,3.512,0,0,1,1.134-7.95a2.746,2.746,0,0,1,.679-.835,2.871,2.871,0,0,1,.939-.507A3.69,3.69,0,0,1,3.9-9.464a3.413,3.413,0,0,1,1.134.179,2.67,2.67,0,0,1,.878.5,2.172,2.172,0,0,1,.566.761,2.339,2.339,0,0,1,.2.968,2.638,2.638,0,0,1-.107.79,1.942,1.942,0,0,1-.306.6,1.761,1.761,0,0,1-.484.435,3.023,3.023,0,0,1-.644.293,2.478,2.478,0,0,1,1.306.809,2.191,2.191,0,0,1,.436,1.394,2.739,2.739,0,0,1-.254,1.2,2.653,2.653,0,0,1-.686.891A3.037,3.037,0,0,1,4.93-.088,3.829,3.829,0,0,1,3.712.1,4.029,4.029,0,0,1,2.464-.068a2.672,2.672,0,0,1-.907-.494,2.777,2.777,0,0,1-.634-.777,5.35,5.35,0,0,1-.429-1.02l.6-.254a.751.751,0,0,1,.458-.059.434.434,0,0,1,.315.241q.1.208.234.445a1.827,1.827,0,0,0,.335.435,1.714,1.714,0,0,0,.507.331,1.844,1.844,0,0,0,.744.133,1.943,1.943,0,0,0,.783-.146,1.739,1.739,0,0,0,.559-.377,1.526,1.526,0,0,0,.335-.517,1.561,1.561,0,0,0,.11-.566A2.348,2.348,0,0,0,5.4-3.338a1.019,1.019,0,0,0-.328-.5,1.761,1.761,0,0,0-.689-.328,4.611,4.611,0,0,0-1.167-.12V-5.3a3.913,3.913,0,0,0,1-.12,1.782,1.782,0,0,0,.65-.312,1.131,1.131,0,0,0,.351-.478,1.692,1.692,0,0,0,.107-.611,1.671,1.671,0,0,0-.11-.631A1.268,1.268,0,0,0,4.9-7.907a1.267,1.267,0,0,0-.471-.276,1.9,1.9,0,0,0-.6-.091,1.83,1.83,0,0,0-.588.091,1.644,1.644,0,0,0-.481.253,1.506,1.506,0,0,0-.354.387,1.62,1.62,0,0,0-.208.491.634.634,0,0,1-.244.357.653.653,0,0,1-.445.039ZM14.722-4.68a7.6,7.6,0,0,1-.263,2.126,4.418,4.418,0,0,1-.725,1.489,2.908,2.908,0,0,1-1.086.877A3.19,3.19,0,0,1,11.3.1,3.19,3.19,0,0,1,9.958-.189a2.882,2.882,0,0,1-1.082-.877,4.412,4.412,0,0,1-.718-1.489A7.686,7.686,0,0,1,7.9-4.68a7.721,7.721,0,0,1,.26-2.129A4.372,4.372,0,0,1,8.876-8.3a2.924,2.924,0,0,1,1.082-.877A3.16,3.16,0,0,1,11.3-9.464a3.16,3.16,0,0,1,1.345.289,2.951,2.951,0,0,1,1.086.877,4.378,4.378,0,0,1,.725,1.489A7.631,7.631,0,0,1,14.722-4.68Zm-1.443,0a7.6,7.6,0,0,0-.166-1.732,3.523,3.523,0,0,0-.439-1.108,1.626,1.626,0,0,0-.63-.592,1.662,1.662,0,0,0-.741-.175,1.655,1.655,0,0,0-.744.175,1.634,1.634,0,0,0-.627.592A3.474,3.474,0,0,0,9.5-6.412,7.745,7.745,0,0,0,9.334-4.68,7.745,7.745,0,0,0,9.5-2.948,3.474,3.474,0,0,0,9.932-1.84a1.634,1.634,0,0,0,.627.592,1.655,1.655,0,0,0,.744.176,1.662,1.662,0,0,0,.741-.176,1.626,1.626,0,0,0,.63-.592,3.523,3.523,0,0,0,.439-1.108A7.6,7.6,0,0,0,13.28-4.68Z" transform="translate(874 679)" fill="#0d0d0d"/><g transform="translate(587 709)" fill="#fff" opacity="0.8"><path d="M 52 22.5 L 2 22.5 C 1.172899961471558 22.5 0.5 21.82710075378418 0.5 21 L 0.5 2 C 0.5 1.172899961471558 1.172899961471558 0.5 2 0.5 L 52 0.5 C 52.82709884643555 0.5 53.5 1.172899961471558 53.5 2 L 53.5 21 C 53.5 21.82710075378418 52.82709884643555 22.5 52 22.5 Z" stroke="none"/><path d="M 2 1 C 1.448600769042969 1 1 1.448600769042969 1 2 L 1 21 C 1 21.55139923095703 1.448600769042969 22 2 22 L 52 22 C 52.55139923095703 22 53 21.55139923095703 53 21 L 53 2 C 53 1.448600769042969 52.55139923095703 1 52 1 L 2 1 M 2 0 L 52 0 C 53.10456848144531 0 54 0.8954296112060547 54 2 L 54 21 C 54 22.10457038879395 53.10456848144531 23 52 23 L 2 23 C 0.8954315185546875 23 0 22.10457038879395 0 21 L 0 2 C 0 0.8954296112060547 0.8954315185546875 0 2 0 Z" stroke="none" fill="#707070"/></g><path d="M1.82-6.35H4.15v-.84H.81v5.81h.6A16.29,16.29,0,0,0,4.7-1.63l-.09-.85a13.858,13.858,0,0,1-2.79.25ZM7.23-8.27V-4.7H6.16V-8.08H5.19V.32h.97V-3.86H7.23V.76h.98V-8.27Zm8.94,1.654V.632H17V-6.616Zm-3.016.536c-1.072,0-1.856.992-1.856,2.544,0,1.568.784,2.552,1.856,2.552s1.864-.984,1.864-2.552C15.018-5.088,14.234-6.08,13.154-6.08Zm0,.744c.632,0,1.072.68,1.072,1.8,0,1.136-.44,1.816-1.072,1.816S12.09-2.4,12.09-3.536C12.09-4.656,12.53-5.336,13.154-5.336ZM22.3-3.3a2.308,2.308,0,0,1-1.688-2.16V-6.24h-.832v.712a2.525,2.525,0,0,1-1.752,2.416l.44.656A2.97,2.97,0,0,0,20.21-4.168a2.845,2.845,0,0,0,1.656,1.512ZM21.41-.032c-1.008,0-1.592-.248-1.592-.712,0-.448.584-.7,1.592-.7S23-1.192,23-.744C23-.28,22.418-.032,21.41-.032Zm0-2.064C19.922-2.1,19-1.592,19-.744s.92,1.36,2.408,1.36,2.408-.5,2.408-1.36S22.906-2.1,21.41-2.1Zm2.328-2.728V-6.616h-.824v4.344h.824V-4.144h1.024v-.68Z" transform="translate(610 725)" fill="#0d0d0d"/><path d="M7.066-9.36v.618a1.381,1.381,0,0,1-.058.442,2.412,2.412,0,0,1-.117.286L3.192-.488a.943.943,0,0,1-.276.348A.744.744,0,0,1,2.444,0H1.437l3.77-7.4q.1-.2.208-.364a2.663,2.663,0,0,1,.234-.312H.975a.307.307,0,0,1-.228-.1.323.323,0,0,1-.1-.231V-9.36Zm7.657,4.68a7.6,7.6,0,0,1-.263,2.126,4.418,4.418,0,0,1-.725,1.489,2.908,2.908,0,0,1-1.086.877A3.19,3.19,0,0,1,11.3.1,3.19,3.19,0,0,1,9.958-.189a2.882,2.882,0,0,1-1.082-.877,4.412,4.412,0,0,1-.718-1.489A7.686,7.686,0,0,1,7.9-4.68a7.721,7.721,0,0,1,.26-2.129A4.372,4.372,0,0,1,8.876-8.3a2.924,2.924,0,0,1,1.082-.877A3.16,3.16,0,0,1,11.3-9.464a3.16,3.16,0,0,1,1.345.289,2.951,2.951,0,0,1,1.086.877,4.378,4.378,0,0,1,.725,1.489A7.631,7.631,0,0,1,14.722-4.68Zm-1.443,0a7.6,7.6,0,0,0-.166-1.732,3.523,3.523,0,0,0-.439-1.108,1.626,1.626,0,0,0-.63-.592,1.662,1.662,0,0,0-.741-.175,1.655,1.655,0,0,0-.744.175,1.634,1.634,0,0,0-.627.592A3.474,3.474,0,0,0,9.5-6.412,7.745,7.745,0,0,0,9.334-4.68,7.745,7.745,0,0,0,9.5-2.948,3.474,3.474,0,0,0,9.932-1.84a1.634,1.634,0,0,0,.627.592,1.655,1.655,0,0,0,.744.176,1.662,1.662,0,0,0,.741-.176,1.626,1.626,0,0,0,.63-.592,3.523,3.523,0,0,0,.439-1.108A7.6,7.6,0,0,0,13.28-4.68Z" transform="translate(594 726)" fill="#0d0d0d"/><g transform="translate(834 807)" fill="#fff" opacity="0.8"><path d="M 64 26.5 L 2 26.5 C 1.172899961471558 26.5 0.5 25.82710075378418 0.5 25 L 0.5 2 C 0.5 1.172899961471558 1.172899961471558 0.5 2 0.5 L 64 0.5 C 64.82710266113281 0.5 65.5 1.172899961471558 65.5 2 L 65.5 25 C 65.5 25.82710075378418 64.82710266113281 26.5 64 26.5 Z" stroke="none"/><path d="M 2 1 C 1.448600769042969 1 1 1.448600769042969 1 2 L 1 25 C 1 25.55139923095703 1.448600769042969 26 2 26 L 64 26 C 64.55139923095703 26 65 25.55139923095703 65 25 L 65 2 C 65 1.448600769042969 64.55139923095703 1 64 1 L 2 1 M 2 0 L 64 0 C 65.10456848144531 0 66 0.8954296112060547 66 2 L 66 25 C 66 26.10457038879395 65.10456848144531 27 64 27 L 2 27 C 0.8954315185546875 27 0 26.10457038879395 0 25 L 0 2 C 0 0.8954296112060547 0.8954315185546875 0 2 0 Z" stroke="none" fill="#707070"/></g><path d="M2.366-8.255H5.4V-9.347H1.053v7.553h.78A21.177,21.177,0,0,0,6.11-2.119L5.993-3.224A18.016,18.016,0,0,1,2.366-2.9Zm7.033-2.5V-6.11H8.008V-10.5H6.747V.416H8.008V-5.018H9.4V.988h1.274V-10.751ZM20.745-8.27V.79h1.04V-8.27Zm-3.77.67c-1.34,0-2.32,1.24-2.32,3.18,0,1.96.98,3.19,2.32,3.19s2.33-1.23,2.33-3.19C19.305-6.36,18.325-7.6,16.975-7.6Zm0,.93c.79,0,1.34.85,1.34,2.25,0,1.42-.55,2.27-1.34,2.27s-1.33-.85-1.33-2.27C15.645-5.82,16.195-6.67,16.975-6.67Zm11.43,2.54a2.885,2.885,0,0,1-2.11-2.7V-7.8h-1.04v.89a3.156,3.156,0,0,1-2.19,3.02l.55.82A3.713,3.713,0,0,0,25.8-5.21a3.556,3.556,0,0,0,2.07,1.89ZM27.3-.04c-1.26,0-1.99-.31-1.99-.89,0-.56.73-.88,1.99-.88s1.99.32,1.99.88C29.285-.35,28.555-.04,27.3-.04Zm0-2.58c-1.86,0-3.01.63-3.01,1.69S25.435.77,27.3.77s3.01-.63,3.01-1.7S29.165-2.62,27.3-2.62Zm2.91-3.41V-8.27h-1.03v5.43h1.03V-5.18h1.28v-.85Z" transform="translate(862 826)" fill="#0d0d0d"/><path d="M8.7-11.52v.76a1.7,1.7,0,0,1-.072.544,2.97,2.97,0,0,1-.144.352L3.928-.6a1.161,1.161,0,0,1-.34.428A.915.915,0,0,1,3.008,0H1.768l4.64-9.112q.128-.248.256-.448a3.277,3.277,0,0,1,.288-.384H1.2a.378.378,0,0,1-.28-.124.4.4,0,0,1-.12-.284V-11.52ZM18.12-5.76A9.349,9.349,0,0,1,17.8-3.144,5.437,5.437,0,0,1,16.9-1.312a3.579,3.579,0,0,1-1.336,1.08A3.927,3.927,0,0,1,13.912.12a3.927,3.927,0,0,1-1.656-.352,3.547,3.547,0,0,1-1.332-1.08,5.43,5.43,0,0,1-.884-1.832A9.459,9.459,0,0,1,9.72-5.76a9.5,9.5,0,0,1,.32-2.62,5.381,5.381,0,0,1,.884-1.832,3.6,3.6,0,0,1,1.332-1.08,3.889,3.889,0,0,1,1.656-.356,3.889,3.889,0,0,1,1.656.356,3.632,3.632,0,0,1,1.336,1.08A5.388,5.388,0,0,1,17.8-8.38,9.392,9.392,0,0,1,18.12-5.76Zm-1.776,0a9.352,9.352,0,0,0-.2-2.132,4.336,4.336,0,0,0-.54-1.364,2,2,0,0,0-.776-.728,2.046,2.046,0,0,0-.912-.216A2.037,2.037,0,0,0,13-9.984a2.011,2.011,0,0,0-.772.728,4.276,4.276,0,0,0-.536,1.364,9.533,9.533,0,0,0-.2,2.132,9.533,9.533,0,0,0,.2,2.132,4.276,4.276,0,0,0,.536,1.364A2.011,2.011,0,0,0,13-1.536a2.037,2.037,0,0,0,.916.216,2.046,2.046,0,0,0,.912-.216,2,2,0,0,0,.776-.728,4.336,4.336,0,0,0,.54-1.364A9.352,9.352,0,0,0,16.344-5.76Z" transform="translate(842 827)" fill="#0d0d0d"/><g transform="translate(-154 33)"><path d="M22,0A22,22,0,1,1,0,22,22,22,0,0,1,22,0Z" transform="translate(652 672)" fill="#c7c7c7"/><g transform="translate(656 676)"><g transform="translate(0 0)" clip-path="url(#a)"><path d="M18.42,17.782a25.267,25.267,0,0,1-2.444,7.331c-.886,1.8-1.222,6.354,4.032,6.843,1.313.122,4.093-.306,4.765-2.688" transform="translate(-8.769 -10.087)" fill="none" stroke="#fff" stroke-miterlimit="10" stroke-width="1.4"/><path d="M22.981,50.535S22.9,55.463,20.7,56.767" transform="translate(-11.742 -28.666)" fill="#9f3f84" stroke="#fff" stroke-miterlimit="10" stroke-width="1.4"/><path d="M52.778,17.782a25.267,25.267,0,0,0,2.444,7.331c.886,1.8,1.222,6.354-4.032,6.843-1.313.122-4.093-.306-4.765-2.688" transform="translate(-26.334 -10.087)" fill="none" stroke="#fff" stroke-miterlimit="10" stroke-width="1.4"/><path d="M57.436,50.535s.081,4.928,2.281,6.232" transform="translate(-32.58 -28.666)" fill="#9f3f84" stroke="#fff" stroke-miterlimit="10" stroke-width="1.4"/><line y2="1.955" transform="translate(17.797 25.372)" fill="none" stroke="#fff" stroke-miterlimit="10" stroke-width="1.4"/></g></g></g><g transform="translate(114 81)"><path d="M22,0A22,22,0,1,1,0,22,22,22,0,0,1,22,0Z" transform="translate(652 625)" fill="#c7c7c7"/><g transform="translate(662.306 635.453)"><g transform="translate(0 0)"><path d="M20.016,12.653s-.611,7.27,5.743,8.37c.061.794,0,2.016,0,2.016s.489,2.932-3.177,3.849c-3.3.917-6.9,2.322-6.965,8.8" transform="translate(-15.617 -12.653)" fill="none" stroke="#fff" stroke-miterlimit="10" stroke-width="1.4"/><path d="M22.074,35.908s-.489-4.093,2.566-5.01c.795,1.588,3.055,5.437,10.02,4.032,2.566-.428,10.955-5.447,7.025-14.452-.994-2.526-5.434-7.053-11.424-2.288-1.955,0-4.216-1.039-4.032-5.254" transform="translate(-19.264 -12.814)" fill="none" stroke="#fff" stroke-miterlimit="10" stroke-width="1.4"/></g></g></g></g></svg>