<svg xmlns="http://www.w3.org/2000/svg" width="495.646" height="508" viewBox="0 0 495.646 508"><g transform="translate(-1010 -1678)"><g transform="translate(746 -718)"><g transform="translate(331 2396)" fill="#fff" stroke="#c7c7c7" stroke-width="1"><rect width="359" height="356" rx="8" stroke="none"/><rect x="0.5" y="0.5" width="358" height="355" rx="7.5" fill="none"/></g><path d="M7,0H108a0,0,0,0,1,0,0V354a0,0,0,0,1,0,0H7a7,7,0,0,1-7-7V7A7,7,0,0,1,7,0Z" transform="translate(332 2397)" fill="#f0f0f5"/><rect width="36" height="354" transform="translate(439 2397)" fill="#b1b1cd"/><rect width="36" height="354" transform="translate(546 2397)" fill="#b2558d"/><rect width="36" height="354" transform="translate(582 2397)" fill="#e1d2c3"/><path d="M0,0H36V354H0Z" transform="translate(617 2397)" fill="#e17ee1"/><rect width="36" height="354" transform="translate(511 2397)" fill="#b2558d"/><rect width="36" height="70" transform="translate(403 2397)" fill="#b1b1cd"/><rect width="36" height="106" transform="translate(475 2645)" fill="#b1b1cd"/><rect width="36" height="248" transform="translate(475 2397)" fill="#1a4679"/><rect width="36" height="284" transform="translate(511 2467)" fill="#1a4679"/><rect width="36" height="141" transform="translate(617 2397)" fill="#de5c1b"/><rect width="36" height="70" transform="translate(617 2397)" fill="#9a3600"/><rect width="36" height="34" transform="translate(617 2397)" fill="#a744de"/><g transform="translate(0 436.5)"><line y2="355" transform="translate(368.5 1960.5)" fill="none" stroke="#c7c7c7" stroke-width="1"/><line y2="355" transform="translate(510.5 1960.5)" fill="none" stroke="#c7c7c7" stroke-width="1"/><line y2="355" transform="translate(403.5 1960.5)" fill="none" stroke="#c7c7c7" stroke-width="1"/><line y2="355" transform="translate(546.5 1960.5)" fill="none" stroke="#c7c7c7" stroke-width="1"/><line y2="355" transform="translate(439.5 1960.5)" fill="none" stroke="#c7c7c7" stroke-width="1"/><line y2="355" transform="translate(581.5 1960.5)" fill="none" stroke="#c7c7c7" stroke-width="1"/><line y2="355" transform="translate(652.5 1960.5)" fill="none" stroke="#c7c7c7" stroke-width="1"/><line y2="355" transform="translate(474.5 1960.5)" fill="none" stroke="#c7c7c7" stroke-width="1"/><line y2="355" transform="translate(617.5 1960.5)" fill="none" stroke="#c7c7c7" stroke-width="1"/><path d="M0,355" transform="translate(688.5 1960.5)" fill="none" stroke="#c7c7c7" stroke-width="1"/></g><g transform="translate(16 436.5)"><line y2="359" transform="translate(674 1994.5) rotate(90)" fill="none" stroke="#c7c7c7" stroke-width="1"/><line y2="359" transform="translate(674 2137.5) rotate(90)" fill="none" stroke="#c7c7c7" stroke-width="1"/><line y2="359" transform="translate(674 2030.5) rotate(90)" fill="none" stroke="#c7c7c7" stroke-width="1"/><line y2="359" transform="translate(674 2172.5) rotate(90)" fill="none" stroke="#c7c7c7" stroke-width="1"/><line y2="359" transform="translate(674 2065.5) rotate(90)" fill="none" stroke="#c7c7c7" stroke-width="1"/><line y2="359" transform="translate(674 2208.5) rotate(90)" fill="none" stroke="#c7c7c7" stroke-width="1"/><line y2="359" transform="translate(674 2279.5) rotate(90)" fill="none" stroke="#c7c7c7" stroke-width="1"/><line y2="359" transform="translate(674 2101.5) rotate(90)" fill="none" stroke="#c7c7c7" stroke-width="1"/><line y2="359" transform="translate(674 2243.5) rotate(90)" fill="none" stroke="#c7c7c7" stroke-width="1"/></g></g><path d="M5.544-7.164a.53.53,0,0,1-.138.159.3.3,0,0,1-.18.051.467.467,0,0,1-.255-.1q-.141-.1-.348-.213a3.051,3.051,0,0,0-.489-.216,2.034,2.034,0,0,0-.672-.1,2.023,2.023,0,0,0-.633.09,1.317,1.317,0,0,0-.459.252,1.039,1.039,0,0,0-.279.381A1.208,1.208,0,0,0,2-6.378a.855.855,0,0,0,.174.549,1.489,1.489,0,0,0,.459.375,3.7,3.7,0,0,0,.651.273q.366.117.747.249t.747.3a2.544,2.544,0,0,1,.651.426,1.956,1.956,0,0,1,.459.63,2.128,2.128,0,0,1,.174.906,2.927,2.927,0,0,1-.2,1.08,2.544,2.544,0,0,1-.573.879,2.668,2.668,0,0,1-.924.591A3.4,3.4,0,0,1,3.114.1,3.988,3.988,0,0,1,2.307.015a4.182,4.182,0,0,1-.75-.228A3.755,3.755,0,0,1,.888-.57,3.358,3.358,0,0,1,.33-1.038L.738-1.71a.4.4,0,0,1,.138-.132.368.368,0,0,1,.186-.048.521.521,0,0,1,.306.129q.168.129.4.282a3.122,3.122,0,0,0,.573.282,2.244,2.244,0,0,0,.8.129A1.712,1.712,0,0,0,4.329-1.44a1.3,1.3,0,0,0,.417-1.026.966.966,0,0,0-.174-.6,1.413,1.413,0,0,0-.459-.387,3.3,3.3,0,0,0-.651-.264q-.366-.108-.744-.231a7.321,7.321,0,0,1-.744-.288,2.368,2.368,0,0,1-.651-.432,2,2,0,0,1-.459-.66A2.427,2.427,0,0,1,.69-6.306a2.328,2.328,0,0,1,.183-.906,2.309,2.309,0,0,1,.534-.777,2.613,2.613,0,0,1,.867-.543,3.179,3.179,0,0,1,1.176-.2A3.843,3.843,0,0,1,4.815-8.5a3.109,3.109,0,0,1,1.071.666ZM15.69-4.32a4.884,4.884,0,0,1-.312,1.77,4.09,4.09,0,0,1-.879,1.4,4.015,4.015,0,0,1-1.362.915A4.567,4.567,0,0,1,11.37.09,4.551,4.551,0,0,1,9.609-.24a4.047,4.047,0,0,1-1.365-.915,4.067,4.067,0,0,1-.882-1.4A4.884,4.884,0,0,1,7.05-4.32a4.884,4.884,0,0,1,.312-1.77,4.1,4.1,0,0,1,.882-1.4,4.025,4.025,0,0,1,1.365-.918,4.551,4.551,0,0,1,1.761-.33,4.567,4.567,0,0,1,1.767.33,3.993,3.993,0,0,1,1.362.918,4.123,4.123,0,0,1,.879,1.4A4.884,4.884,0,0,1,15.69-4.32Zm-1.434,0a4.161,4.161,0,0,0-.2-1.338,2.831,2.831,0,0,0-.576-1.008A2.508,2.508,0,0,0,12.57-7.3a3.1,3.1,0,0,0-1.2-.222,3.083,3.083,0,0,0-1.194.222,2.536,2.536,0,0,0-.912.636,2.842,2.842,0,0,0-.582,1.008,4.1,4.1,0,0,0-.2,1.338,4.125,4.125,0,0,0,.2,1.344,2.811,2.811,0,0,0,.582,1.005,2.521,2.521,0,0,0,.912.63,3.12,3.12,0,0,0,1.194.219,3.137,3.137,0,0,0,1.2-.219,2.493,2.493,0,0,0,.909-.63,2.8,2.8,0,0,0,.576-1.005A4.181,4.181,0,0,0,14.256-4.32ZM24.378-8.64V0h-.714a.612.612,0,0,1-.276-.057.645.645,0,0,1-.216-.189l-4.746-6.1q.018.174.027.345t.009.315V0H17.226V-8.64h.732a1.1,1.1,0,0,1,.153.009.44.44,0,0,1,.117.033.34.34,0,0,1,.1.072,1.126,1.126,0,0,1,.1.12l4.752,6.1q-.018-.186-.027-.366t-.009-.336V-8.64ZM34.554-4.32a4.884,4.884,0,0,1-.312,1.77,4.09,4.09,0,0,1-.879,1.4A4.015,4.015,0,0,1,32-.24a4.567,4.567,0,0,1-1.767.33,4.551,4.551,0,0,1-1.761-.33,4.047,4.047,0,0,1-1.365-.915,4.067,4.067,0,0,1-.882-1.4,4.884,4.884,0,0,1-.312-1.77,4.884,4.884,0,0,1,.312-1.77,4.1,4.1,0,0,1,.882-1.4,4.025,4.025,0,0,1,1.365-.918,4.551,4.551,0,0,1,1.761-.33A4.567,4.567,0,0,1,32-8.406a3.993,3.993,0,0,1,1.362.918,4.123,4.123,0,0,1,.879,1.4A4.884,4.884,0,0,1,34.554-4.32Zm-1.434,0a4.161,4.161,0,0,0-.2-1.338,2.831,2.831,0,0,0-.576-1.008,2.508,2.508,0,0,0-.909-.636,3.1,3.1,0,0,0-1.2-.222A3.083,3.083,0,0,0,29.04-7.3a2.536,2.536,0,0,0-.912.636,2.842,2.842,0,0,0-.582,1.008,4.1,4.1,0,0,0-.2,1.338,4.125,4.125,0,0,0,.2,1.344,2.811,2.811,0,0,0,.582,1.005,2.521,2.521,0,0,0,.912.63,3.12,3.12,0,0,0,1.194.219,3.137,3.137,0,0,0,1.2-.219,2.493,2.493,0,0,0,.909-.63,2.8,2.8,0,0,0,.576-1.005A4.181,4.181,0,0,0,33.12-4.32Zm-22.9,15.68V20H8.982V14.078q0-.144.009-.315t.027-.345L6.24,18.548a.528.528,0,0,1-.5.318h-.2a.52.52,0,0,1-.5-.318l-2.82-5.142q.018.174.027.348t.009.324V20H1.026V11.36h1.05a.979.979,0,0,1,.288.033.362.362,0,0,1,.186.2l2.772,5.022q.09.174.171.357t.147.375q.072-.192.153-.381t.171-.363l2.73-5.01a.362.362,0,0,1,.186-.2.979.979,0,0,1,.288-.033Zm11.244,0V20H20.226V14.078q0-.144.009-.315t.027-.345l-2.778,5.13a.528.528,0,0,1-.5.318h-.2a.52.52,0,0,1-.5-.318l-2.82-5.142q.018.174.027.348t.009.324V20H12.27V11.36h1.05a.979.979,0,0,1,.288.033.362.362,0,0,1,.186.2l2.772,5.022q.09.174.171.357t.147.375q.072-.192.153-.381t.171-.363l2.73-5.01a.362.362,0,0,1,.186-.2.979.979,0,0,1,.288-.033Zm9.126,4.386v3.42a5,5,0,0,1-3,.93,5.247,5.247,0,0,1-1.9-.327,4.218,4.218,0,0,1-1.449-.912,4,4,0,0,1-.924-1.4,4.757,4.757,0,0,1-.324-1.782,4.96,4.96,0,0,1,.312-1.791,3.913,3.913,0,0,1,2.3-2.3,5.046,5.046,0,0,1,1.848-.321,5.44,5.44,0,0,1,.969.081,4.8,4.8,0,0,1,.831.225,3.883,3.883,0,0,1,.708.348,3.96,3.96,0,0,1,.594.456l-.4.642a.4.4,0,0,1-.246.186.421.421,0,0,1-.324-.072l-.369-.216a3.219,3.219,0,0,0-.447-.213,3.28,3.28,0,0,0-.582-.162,4.212,4.212,0,0,0-.78-.063,3.225,3.225,0,0,0-1.233.225,2.637,2.637,0,0,0-.939.642,2.848,2.848,0,0,0-.6,1.011,3.958,3.958,0,0,0-.21,1.326,4.021,4.021,0,0,0,.222,1.383,2.889,2.889,0,0,0,.63,1.032,2.687,2.687,0,0,0,.987.645,3.937,3.937,0,0,0,2.244.108,4.331,4.331,0,0,0,.819-.318V16.814H28.116a.3.3,0,0,1-.216-.075.258.258,0,0,1-.078-.2v-.8ZM7.026,38.074a.262.262,0,0,1,.2.09l.558.606a3.552,3.552,0,0,1-1.3.981A4.456,4.456,0,0,1,4.65,40.1a4.317,4.317,0,0,1-1.713-.327,3.766,3.766,0,0,1-1.3-.912,4.046,4.046,0,0,1-.831-1.4A5.237,5.237,0,0,1,.51,35.68,4.986,4.986,0,0,1,.819,33.9a4.094,4.094,0,0,1,.87-1.4,3.907,3.907,0,0,1,1.344-.909,4.469,4.469,0,0,1,1.725-.324,4.217,4.217,0,0,1,1.653.3,4.087,4.087,0,0,1,1.245.807l-.462.654a.514.514,0,0,1-.114.114.3.3,0,0,1-.18.048.485.485,0,0,1-.273-.111,4.3,4.3,0,0,0-.39-.246,2.877,2.877,0,0,0-1.485-.357,2.908,2.908,0,0,0-1.134.216,2.452,2.452,0,0,0-.888.63,2.929,2.929,0,0,0-.579,1.008,4.09,4.09,0,0,0-.207,1.35,3.979,3.979,0,0,0,.216,1.359,2.951,2.951,0,0,0,.594,1.008,2.539,2.539,0,0,0,.888.627,2.786,2.786,0,0,0,1.1.216,4.8,4.8,0,0,0,.645-.039,2.554,2.554,0,0,0,.525-.126,2.428,2.428,0,0,0,.453-.219,2.873,2.873,0,0,0,.423-.324A.362.362,0,0,1,7.026,38.074Zm7.92-5.544H12.252V40h-1.4V32.53h-2.7V31.36h6.792ZM7.848,60H6.45a.345.345,0,0,1-.234-.078.655.655,0,0,1-.144-.174L3.924,56.286q-.024.072-.051.138a.926.926,0,0,1-.063.126l-2.076,3.2a1.127,1.127,0,0,1-.147.174A.294.294,0,0,1,1.374,60H.066l2.916-4.44-2.8-4.2H1.578A.412.412,0,0,1,1.8,51.4a.406.406,0,0,1,.123.135l2.1,3.3.06-.144a1.083,1.083,0,0,1,.078-.15l1.956-2.982a.484.484,0,0,1,.132-.153.293.293,0,0,1,.174-.051H7.758L4.938,55.5Zm.5-4.158h3.042v1.092H8.346Zm7.29-.342a2.722,2.722,0,0,0,.84-.117,1.693,1.693,0,0,0,.6-.327,1.333,1.333,0,0,0,.36-.5,1.677,1.677,0,0,0,.12-.645,1.3,1.3,0,0,0-.468-1.08,2.251,2.251,0,0,0-1.416-.372h-1.14V55.5ZM19.7,60H18.45a.578.578,0,0,1-.54-.288L15.894,56.8a.665.665,0,0,0-.222-.216.769.769,0,0,0-.36-.066h-.78V60h-1.4V51.36h2.544a5.433,5.433,0,0,1,1.467.174,2.794,2.794,0,0,1,1.011.495,1.958,1.958,0,0,1,.585.771,2.719,2.719,0,0,1,.054,1.842,2.354,2.354,0,0,1-.39.708,2.5,2.5,0,0,1-.627.552,3.182,3.182,0,0,1-.846.366,1.4,1.4,0,0,1,.444.438Zm5.616-3.24L24.132,53.6a8.737,8.737,0,0,1-.294-.93q-.066.282-.144.519t-.144.417l-1.188,3.15ZM27.978,60H26.892a.46.46,0,0,1-.3-.093.6.6,0,0,1-.174-.231l-.72-1.908h-3.72l-.72,1.908a.575.575,0,0,1-.168.222.447.447,0,0,1-.3.1H19.7l3.426-8.64h1.422Zm3.63-3.384V60h-1.4V56.616L27.054,51.36h1.23a.445.445,0,0,1,.294.09.734.734,0,0,1,.18.228l1.77,3.1q.12.234.219.444t.177.414a3.448,3.448,0,0,1,.162-.417q.1-.207.216-.441l1.758-3.1a.713.713,0,0,1,.174-.219.432.432,0,0,1,.294-.1h1.236ZM4.17,78.89a2.513,2.513,0,0,0,.8-.111,1.466,1.466,0,0,0,.534-.3,1.125,1.125,0,0,0,.3-.453,1.659,1.659,0,0,0,.093-.561,1.192,1.192,0,0,0-.417-.963,2.026,2.026,0,0,0-1.317-.351H2.43V78.89ZM2.43,72.458v2.7h1.4a2.159,2.159,0,0,0,1.344-.348,1.2,1.2,0,0,0,.444-1,1.216,1.216,0,0,0-.417-1.032A2.157,2.157,0,0,0,3.9,72.458Zm1.47-1.1a5.484,5.484,0,0,1,1.416.159,2.709,2.709,0,0,1,.966.453,1.757,1.757,0,0,1,.555.717,2.442,2.442,0,0,1,.177.951,1.893,1.893,0,0,1-.093.591,1.735,1.735,0,0,1-.288.534,2.113,2.113,0,0,1-.489.447,2.809,2.809,0,0,1-.7.33q1.836.39,1.836,1.95A2.431,2.431,0,0,1,7.077,78.5a2.228,2.228,0,0,1-.6.792,2.819,2.819,0,0,1-.969.519A4.272,4.272,0,0,1,4.194,80H1.026V71.36Zm13.08,4.32a4.884,4.884,0,0,1-.312,1.77,4.09,4.09,0,0,1-.879,1.4,4.015,4.015,0,0,1-1.362.915,4.88,4.88,0,0,1-3.528,0,3.983,3.983,0,0,1-2.247-2.31,5.177,5.177,0,0,1,0-3.54,4.1,4.1,0,0,1,.882-1.4,4.025,4.025,0,0,1,1.365-.918,4.88,4.88,0,0,1,3.528,0,3.993,3.993,0,0,1,1.362.918,4.123,4.123,0,0,1,.879,1.4A4.884,4.884,0,0,1,16.98,75.68Zm-1.434,0a4.16,4.16,0,0,0-.2-1.338,2.831,2.831,0,0,0-.576-1.008,2.508,2.508,0,0,0-.909-.636,3.338,3.338,0,0,0-2.394,0,2.536,2.536,0,0,0-.912.636,2.842,2.842,0,0,0-.582,1.008,4.51,4.51,0,0,0,0,2.682,2.811,2.811,0,0,0,.582,1,2.521,2.521,0,0,0,.912.63,3.381,3.381,0,0,0,2.394,0,2.493,2.493,0,0,0,.909-.63,2.8,2.8,0,0,0,.576-1A4.181,4.181,0,0,0,15.546,75.68Zm10.122-4.32V80h-.714a.612.612,0,0,1-.276-.057.645.645,0,0,1-.216-.189l-4.746-6.1q.018.174.027.345t.009.315V80H18.516V71.36h.732a1.1,1.1,0,0,1,.153.009.44.44,0,0,1,.117.033.34.34,0,0,1,.1.072,1.127,1.127,0,0,1,.1.12l4.752,6.1q-.018-.186-.027-.366t-.009-.336V71.36Zm7.452,7.506L33.114,80H27.726V71.36h5.388v1.134H29.136v2.6h3.18v1.1h-3.18v2.67Zm9.024-6.03a.53.53,0,0,1-.138.159.3.3,0,0,1-.18.051.467.467,0,0,1-.255-.1q-.141-.1-.348-.213a3.052,3.052,0,0,0-.489-.216,2.3,2.3,0,0,0-1.305-.009,1.317,1.317,0,0,0-.459.252,1.039,1.039,0,0,0-.279.381,1.208,1.208,0,0,0-.093.477.855.855,0,0,0,.174.549,1.488,1.488,0,0,0,.459.375,3.7,3.7,0,0,0,.651.273q.366.117.747.249t.747.3a2.544,2.544,0,0,1,.651.426,1.956,1.956,0,0,1,.459.63,2.128,2.128,0,0,1,.174.906,2.927,2.927,0,0,1-.2,1.08,2.544,2.544,0,0,1-.573.879,2.668,2.668,0,0,1-.924.591,3.4,3.4,0,0,1-1.251.216,3.988,3.988,0,0,1-.807-.081,4.183,4.183,0,0,1-.75-.228,3.755,3.755,0,0,1-.669-.357,3.358,3.358,0,0,1-.558-.468l.408-.672a.4.4,0,0,1,.138-.132.368.368,0,0,1,.186-.048.521.521,0,0,1,.306.129q.168.129.4.282a3.121,3.121,0,0,0,.573.282,2.244,2.244,0,0,0,.8.129,1.712,1.712,0,0,0,1.179-.372,1.3,1.3,0,0,0,.417-1.026.966.966,0,0,0-.174-.6,1.413,1.413,0,0,0-.459-.387,3.3,3.3,0,0,0-.651-.264q-.366-.108-.744-.231a7.321,7.321,0,0,1-.744-.288,2.368,2.368,0,0,1-.651-.432,2,2,0,0,1-.459-.66,2.427,2.427,0,0,1-.174-.981,2.333,2.333,0,0,1,.717-1.683,2.613,2.613,0,0,1,.867-.543,3.179,3.179,0,0,1,1.176-.2,3.843,3.843,0,0,1,1.365.234,3.109,3.109,0,0,1,1.071.666Zm8.028,5.238a.262.262,0,0,1,.2.09l.558.606a3.552,3.552,0,0,1-1.3.981A4.456,4.456,0,0,1,47.8,80.1a4.317,4.317,0,0,1-1.713-.327,3.766,3.766,0,0,1-1.305-.912,4.046,4.046,0,0,1-.831-1.4,5.237,5.237,0,0,1-.291-1.782,4.986,4.986,0,0,1,.309-1.785,4.094,4.094,0,0,1,.87-1.4,3.907,3.907,0,0,1,1.344-.909,4.469,4.469,0,0,1,1.725-.324,4.217,4.217,0,0,1,1.653.3,4.087,4.087,0,0,1,1.245.807l-.462.654a.514.514,0,0,1-.114.114.3.3,0,0,1-.18.048.485.485,0,0,1-.273-.111,4.305,4.305,0,0,0-.39-.246,2.877,2.877,0,0,0-1.485-.357,2.908,2.908,0,0,0-1.134.216,2.452,2.452,0,0,0-.888.63A2.929,2.929,0,0,0,45.3,74.33a4.09,4.09,0,0,0-.207,1.35,3.979,3.979,0,0,0,.216,1.359,2.951,2.951,0,0,0,.594,1.008,2.539,2.539,0,0,0,.888.627,2.786,2.786,0,0,0,1.1.216,4.794,4.794,0,0,0,.645-.039,2.554,2.554,0,0,0,.525-.126,2.428,2.428,0,0,0,.453-.219,2.873,2.873,0,0,0,.423-.324A.362.362,0,0,1,50.172,78.074Zm6.546-1.314L55.53,73.6a8.737,8.737,0,0,1-.294-.93q-.066.282-.144.519t-.144.417L53.76,76.76ZM59.376,80H58.29a.46.46,0,0,1-.3-.093.6.6,0,0,1-.174-.231l-.72-1.908h-3.72l-.72,1.908a.575.575,0,0,1-.168.222.447.447,0,0,1-.3.1H51.1l3.426-8.64H55.95Zm8.16-8.64V80h-.714a.612.612,0,0,1-.276-.057.645.645,0,0,1-.216-.189l-4.746-6.1q.018.174.027.345t.009.315V80H60.384V71.36h.732a1.1,1.1,0,0,1,.153.009.44.44,0,0,1,.117.033.34.34,0,0,1,.1.072,1.127,1.127,0,0,1,.1.12l4.752,6.1q-.018-.186-.027-.366t-.009-.336V71.36Z" transform="translate(1035 2104)" fill="#4d4d4d"/><path d="M-40.2-3.192V-6.348a6.989,6.989,0,0,1,.054-.828l-2.9,3.984Zm2.316,0v.744a.271.271,0,0,1-.069.186.262.262,0,0,1-.207.078h-.918V0H-40.2V-2.184h-3.738a.362.362,0,0,1-.237-.081.37.37,0,0,1-.129-.2l-.132-.66,4.146-5.52h1.212v5.454Zm2.628-2.256a5.849,5.849,0,0,1,.6-.1,5.248,5.248,0,0,1,.549-.03,3.3,3.3,0,0,1,1.2.2,2.453,2.453,0,0,1,.87.555,2.3,2.3,0,0,1,.528.831,2.952,2.952,0,0,1,.177,1.035,3.171,3.171,0,0,1-.24,1.254,2.807,2.807,0,0,1-.666.963,2.971,2.971,0,0,1-1,.615A3.551,3.551,0,0,1-34.5.1a3.52,3.52,0,0,1-.753-.078A3.634,3.634,0,0,1-35.922-.2,3.6,3.6,0,0,1-36.5-.507a4.011,4.011,0,0,1-.474-.369l.4-.552a.391.391,0,0,1,.336-.18.558.558,0,0,1,.288.1q.156.1.363.207A3.269,3.269,0,0,0-35.1-1.1a2.093,2.093,0,0,0,.672.1,1.991,1.991,0,0,0,.762-.138,1.58,1.58,0,0,0,.567-.387,1.662,1.662,0,0,0,.351-.6,2.324,2.324,0,0,0,.12-.762,1.944,1.944,0,0,0-.111-.678,1.339,1.339,0,0,0-.33-.51,1.445,1.445,0,0,0-.549-.321,2.389,2.389,0,0,0-.762-.111,4.064,4.064,0,0,0-.651.054,4.322,4.322,0,0,0-.675.168l-.8-.228L-35.8-8.64h4.182v.558a.609.609,0,0,1-.174.45.8.8,0,0,1-.582.174h-2.532Zm8.976,2.256V-6.348a6.989,6.989,0,0,1,.054-.828l-2.9,3.984Zm2.316,0v.744a.271.271,0,0,1-.069.186.262.262,0,0,1-.207.078h-.918V0H-26.28V-2.184h-3.738a.362.362,0,0,1-.237-.081.37.37,0,0,1-.129-.2l-.132-.66,4.146-5.52h1.212v5.454Zm1.68,3.186A.785.785,0,0,1-22.6-.069a.756.756,0,0,1-.249-.174A.777.777,0,0,1-23.013-.5a.922.922,0,0,1-.057-.33.762.762,0,0,1,.057-.294.707.707,0,0,1,.162-.24.741.741,0,0,1,.252-.159.881.881,0,0,1,.321-.057.821.821,0,0,1,.36.075.751.751,0,0,1,.261.2A.858.858,0,0,1-21.5-1a1.264,1.264,0,0,1,.051.363,2.276,2.276,0,0,1-.081.582,2.916,2.916,0,0,1-.24.609,3.675,3.675,0,0,1-.39.591,3.54,3.54,0,0,1-.525.528l-.222-.2a.361.361,0,0,1-.069-.09A.242.242,0,0,1-23,1.266a.257.257,0,0,1,.1-.192L-22.74.9a2.636,2.636,0,0,0,.192-.246,2.233,2.233,0,0,0,.177-.306,1.443,1.443,0,0,0,.117-.354Zm7.308-1.212a.44.44,0,0,1,.33.123.432.432,0,0,1,.12.315V0H-20.37V-.438a.785.785,0,0,1,.054-.276.74.74,0,0,1,.174-.264l2.688-2.694q.342-.342.609-.654a4.746,4.746,0,0,0,.456-.624,2.833,2.833,0,0,0,.288-.633,2.277,2.277,0,0,0,.1-.675,1.607,1.607,0,0,0-.1-.6,1.187,1.187,0,0,0-.288-.432,1.2,1.2,0,0,0-.438-.258,1.728,1.728,0,0,0-.561-.087,1.689,1.689,0,0,0-.543.084,1.517,1.517,0,0,0-.444.234,1.344,1.344,0,0,0-.324.357,1.54,1.54,0,0,0-.189.453.61.61,0,0,1-.231.33.6.6,0,0,1-.411.036l-.678-.12a3.242,3.242,0,0,1,.339-1.074,2.535,2.535,0,0,1,.627-.771,2.65,2.65,0,0,1,.867-.468,3.406,3.406,0,0,1,1.059-.159,3.153,3.153,0,0,1,1.059.171,2.464,2.464,0,0,1,.834.486,2.209,2.209,0,0,1,.549.765,2.493,2.493,0,0,1,.2,1.014,2.7,2.7,0,0,1-.141.888,3.61,3.61,0,0,1-.381.78,5.455,5.455,0,0,1-.561.723q-.321.351-.675.711l-2.088,2.136a4.718,4.718,0,0,1,.519-.114,3.121,3.121,0,0,1,.495-.042Zm2.9-4.854a1.6,1.6,0,0,0,.411,1.179,1.553,1.553,0,0,0,1.149.411,1.809,1.809,0,0,0,.7-.126A1.541,1.541,0,0,0-9.3-4.947a1.415,1.415,0,0,0,.318-.5,1.7,1.7,0,0,0,.108-.609,1.83,1.83,0,0,0-.117-.675,1.446,1.446,0,0,0-.33-.507,1.434,1.434,0,0,0-.507-.321,1.8,1.8,0,0,0-.642-.111,1.732,1.732,0,0,0-.66.12,1.488,1.488,0,0,0-.5.333,1.475,1.475,0,0,0-.324.5A1.737,1.737,0,0,0-12.072-6.072ZM-9.858-3.39q.12-.15.222-.285t.192-.273a2.4,2.4,0,0,1-.7.339,2.785,2.785,0,0,1-.816.117,2.585,2.585,0,0,1-.9-.159,2.246,2.246,0,0,1-.768-.474,2.308,2.308,0,0,1-.537-.78,2.678,2.678,0,0,1-.2-1.071,2.73,2.73,0,0,1,.213-1.074,2.665,2.665,0,0,1,.6-.879,2.8,2.8,0,0,1,.918-.591,3.125,3.125,0,0,1,1.182-.216,3.133,3.133,0,0,1,1.164.207,2.521,2.521,0,0,1,.888.582,2.579,2.579,0,0,1,.564.894,3.182,3.182,0,0,1,.2,1.143,3.79,3.79,0,0,1-.069.738,3.905,3.905,0,0,1-.2.675,4.741,4.741,0,0,1-.312.642q-.183.315-.411.639L-10.662-.3a.65.65,0,0,1-.267.216.919.919,0,0,1-.4.084H-12.51Zm3.606-2.874a3.242,3.242,0,0,1,.339-1.074,2.535,2.535,0,0,1,.627-.771,2.65,2.65,0,0,1,.867-.468A3.406,3.406,0,0,1-3.36-8.736a3.15,3.15,0,0,1,1.047.165,2.465,2.465,0,0,1,.81.459,2,2,0,0,1,.522.7A2.159,2.159,0,0,1-.8-6.516a2.435,2.435,0,0,1-.1.729,1.793,1.793,0,0,1-.282.555,1.625,1.625,0,0,1-.447.4,2.791,2.791,0,0,1-.594.27,2.288,2.288,0,0,1,1.206.747,2.023,2.023,0,0,1,.4,1.287,2.528,2.528,0,0,1-.234,1.11,2.449,2.449,0,0,1-.633.822,2.8,2.8,0,0,1-.93.513A3.534,3.534,0,0,1-3.534.1,3.719,3.719,0,0,1-4.686-.063a2.467,2.467,0,0,1-.837-.456,2.563,2.563,0,0,1-.585-.717,4.938,4.938,0,0,1-.4-.942l.558-.234a.693.693,0,0,1,.423-.054.4.4,0,0,1,.291.222q.1.192.216.411a1.686,1.686,0,0,0,.309.4,1.582,1.582,0,0,0,.468.306A1.7,1.7,0,0,0-3.552-1a1.794,1.794,0,0,0,.723-.135,1.6,1.6,0,0,0,.516-.348A1.408,1.408,0,0,0-2-1.962a1.441,1.441,0,0,0,.1-.522,2.167,2.167,0,0,0-.078-.6.941.941,0,0,0-.3-.465,1.626,1.626,0,0,0-.636-.3A4.256,4.256,0,0,0-4-3.96v-.93A3.612,3.612,0,0,0-3.075-5a1.645,1.645,0,0,0,.6-.288,1.044,1.044,0,0,0,.324-.441,1.562,1.562,0,0,0,.1-.564,1.543,1.543,0,0,0-.1-.582A1.17,1.17,0,0,0-2.439-7.3a1.17,1.17,0,0,0-.435-.255,1.757,1.757,0,0,0-.558-.084,1.689,1.689,0,0,0-.543.084,1.517,1.517,0,0,0-.444.234,1.39,1.39,0,0,0-.327.357,1.5,1.5,0,0,0-.192.453.585.585,0,0,1-.225.33.6.6,0,0,1-.411.036Zm-32.37,25.046a.44.44,0,0,1,.33.123.432.432,0,0,1,.12.315V20h-5.844v-.438a.785.785,0,0,1,.054-.276.74.74,0,0,1,.174-.264l2.688-2.694q.342-.342.609-.654a4.746,4.746,0,0,0,.456-.624,2.833,2.833,0,0,0,.288-.633,2.278,2.278,0,0,0,.1-.675,1.607,1.607,0,0,0-.1-.6,1.187,1.187,0,0,0-.288-.432,1.2,1.2,0,0,0-.438-.258,1.728,1.728,0,0,0-.561-.087,1.689,1.689,0,0,0-.543.084,1.517,1.517,0,0,0-.444.234,1.344,1.344,0,0,0-.324.357,1.54,1.54,0,0,0-.189.453.61.61,0,0,1-.231.33.6.6,0,0,1-.411.036l-.678-.12a3.242,3.242,0,0,1,.339-1.074,2.535,2.535,0,0,1,.627-.771,2.65,2.65,0,0,1,.867-.468,3.406,3.406,0,0,1,1.059-.159,3.153,3.153,0,0,1,1.059.171,2.464,2.464,0,0,1,.834.486,2.209,2.209,0,0,1,.549.765,2.493,2.493,0,0,1,.2,1.014,2.7,2.7,0,0,1-.141.888,3.61,3.61,0,0,1-.381.78,5.455,5.455,0,0,1-.561.723q-.321.351-.675.711l-2.088,2.136a4.718,4.718,0,0,1,.519-.114,3.121,3.121,0,0,1,.5-.042Zm3.366-4.23a5.849,5.849,0,0,1,.6-.1,5.248,5.248,0,0,1,.549-.03,3.3,3.3,0,0,1,1.2.2,2.453,2.453,0,0,1,.87.555,2.3,2.3,0,0,1,.528.831,2.952,2.952,0,0,1,.177,1.035,3.171,3.171,0,0,1-.24,1.254,2.807,2.807,0,0,1-.666.963,2.971,2.971,0,0,1-1,.615A3.551,3.551,0,0,1-34.5,20.1a3.52,3.52,0,0,1-.753-.078,3.634,3.634,0,0,1-.669-.213,3.6,3.6,0,0,1-.576-.312,4.011,4.011,0,0,1-.474-.369l.4-.552a.391.391,0,0,1,.336-.18.558.558,0,0,1,.288.1q.156.1.363.207a3.269,3.269,0,0,0,.489.207,2.093,2.093,0,0,0,.672.1,1.991,1.991,0,0,0,.762-.138,1.58,1.58,0,0,0,.567-.387,1.662,1.662,0,0,0,.351-.6,2.324,2.324,0,0,0,.12-.762,1.944,1.944,0,0,0-.111-.678,1.339,1.339,0,0,0-.33-.51,1.445,1.445,0,0,0-.549-.321,2.389,2.389,0,0,0-.762-.111,4.064,4.064,0,0,0-.651.054,4.322,4.322,0,0,0-.675.168l-.8-.228.708-4.128h4.182v.558a.609.609,0,0,1-.174.45.8.8,0,0,1-.582.174h-2.532Zm8.118,4.476a1.914,1.914,0,0,0,.714-.129,1.646,1.646,0,0,0,.555-.357,1.581,1.581,0,0,0,.357-.54,1.794,1.794,0,0,0,.126-.678,1.942,1.942,0,0,0-.123-.711,1.461,1.461,0,0,0-.348-.531,1.546,1.546,0,0,0-.54-.333,1.976,1.976,0,0,0-.693-.117,1.808,1.808,0,0,0-.7.132,1.6,1.6,0,0,0-.537.36,1.587,1.587,0,0,0-.342.534,1.759,1.759,0,0,0-.12.648,2.172,2.172,0,0,0,.108.7,1.483,1.483,0,0,0,.318.543,1.444,1.444,0,0,0,.519.351A1.872,1.872,0,0,0-27.138,19.028Zm-.474-4.488-.183.228q-.087.108-.171.216a2.635,2.635,0,0,1,.606-.246,2.682,2.682,0,0,1,.708-.09,2.85,2.85,0,0,1,.966.165,2.327,2.327,0,0,1,.813.492,2.4,2.4,0,0,1,.561.81,2.769,2.769,0,0,1,.21,1.113,2.87,2.87,0,0,1-.219,1.122,2.738,2.738,0,0,1-.615.909,2.9,2.9,0,0,1-.951.612,3.237,3.237,0,0,1-1.227.225,3.239,3.239,0,0,1-1.212-.216,2.619,2.619,0,0,1-.921-.609,2.666,2.666,0,0,1-.585-.945,3.526,3.526,0,0,1-.2-1.23,3.363,3.363,0,0,1,.252-1.23,5.9,5.9,0,0,1,.78-1.35l2.124-2.85a.769.769,0,0,1,.279-.216.919.919,0,0,1,.411-.09h1.14Zm5.328,5.454a.785.785,0,0,1-.318-.063.756.756,0,0,1-.249-.174.777.777,0,0,1-.162-.261.922.922,0,0,1-.057-.33.762.762,0,0,1,.057-.294.707.707,0,0,1,.162-.24.741.741,0,0,1,.252-.159.881.881,0,0,1,.321-.057.821.821,0,0,1,.36.075.751.751,0,0,1,.261.2.858.858,0,0,1,.156.3,1.264,1.264,0,0,1,.051.363,2.276,2.276,0,0,1-.081.582,2.916,2.916,0,0,1-.24.609,3.675,3.675,0,0,1-.39.591,3.54,3.54,0,0,1-.525.528l-.222-.2a.361.361,0,0,1-.069-.09A.242.242,0,0,1-23,21.266a.257.257,0,0,1,.1-.192l.156-.174a2.636,2.636,0,0,0,.192-.246,2.233,2.233,0,0,0,.177-.306,1.443,1.443,0,0,0,.117-.354Zm4.872-.966A1.914,1.914,0,0,0-16.7,18.9a1.646,1.646,0,0,0,.555-.357,1.581,1.581,0,0,0,.357-.54,1.794,1.794,0,0,0,.126-.678,1.942,1.942,0,0,0-.123-.711,1.461,1.461,0,0,0-.348-.531,1.546,1.546,0,0,0-.54-.333,1.976,1.976,0,0,0-.693-.117,1.808,1.808,0,0,0-.7.132,1.6,1.6,0,0,0-.537.36,1.587,1.587,0,0,0-.342.534,1.759,1.759,0,0,0-.12.648,2.172,2.172,0,0,0,.108.7,1.483,1.483,0,0,0,.318.543,1.444,1.444,0,0,0,.519.351A1.872,1.872,0,0,0-17.412,19.028Zm-.474-4.488-.183.228q-.087.108-.171.216a2.635,2.635,0,0,1,.606-.246,2.682,2.682,0,0,1,.708-.09,2.85,2.85,0,0,1,.966.165,2.327,2.327,0,0,1,.813.492,2.4,2.4,0,0,1,.561.81,2.769,2.769,0,0,1,.21,1.113,2.87,2.87,0,0,1-.219,1.122,2.738,2.738,0,0,1-.615.909,2.9,2.9,0,0,1-.951.612,3.237,3.237,0,0,1-1.227.225A3.239,3.239,0,0,1-18.6,19.88a2.619,2.619,0,0,1-.921-.609,2.666,2.666,0,0,1-.585-.945,3.526,3.526,0,0,1-.2-1.23,3.363,3.363,0,0,1,.252-1.23,5.9,5.9,0,0,1,.78-1.35l2.124-2.85a.769.769,0,0,1,.279-.216.919.919,0,0,1,.411-.09h1.14ZM-7.4,11.36v.57a1.274,1.274,0,0,1-.054.408,2.227,2.227,0,0,1-.108.264l-3.414,6.948a.87.87,0,0,1-.255.321.686.686,0,0,1-.435.129h-.93l3.48-6.834q.1-.186.192-.336a2.458,2.458,0,0,1,.216-.288H-13.02a.283.283,0,0,1-.21-.093.3.3,0,0,1-.09-.213V11.36Zm6.342,7.422a.44.44,0,0,1,.33.123.432.432,0,0,1,.12.315V20H-6.45v-.438a.785.785,0,0,1,.054-.276.74.74,0,0,1,.174-.264l2.688-2.694q.342-.342.609-.654a4.746,4.746,0,0,0,.456-.624,2.833,2.833,0,0,0,.288-.633,2.278,2.278,0,0,0,.1-.675,1.607,1.607,0,0,0-.105-.6,1.187,1.187,0,0,0-.288-.432,1.2,1.2,0,0,0-.438-.258,1.728,1.728,0,0,0-.561-.087,1.689,1.689,0,0,0-.543.084,1.517,1.517,0,0,0-.444.234,1.344,1.344,0,0,0-.324.357,1.54,1.54,0,0,0-.189.453.61.61,0,0,1-.231.33.6.6,0,0,1-.411.036l-.678-.12a3.242,3.242,0,0,1,.339-1.074,2.535,2.535,0,0,1,.627-.771,2.65,2.65,0,0,1,.867-.468A3.406,3.406,0,0,1-3.4,11.264a3.153,3.153,0,0,1,1.059.171,2.464,2.464,0,0,1,.834.486,2.209,2.209,0,0,1,.549.765,2.493,2.493,0,0,1,.2,1.014,2.7,2.7,0,0,1-.141.888,3.61,3.61,0,0,1-.381.78,5.455,5.455,0,0,1-.561.723q-.321.351-.675.711l-2.088,2.136a4.718,4.718,0,0,1,.519-.114,3.121,3.121,0,0,1,.495-.042Zm-37.566,20a.44.44,0,0,1,.33.123.432.432,0,0,1,.12.315V40h-5.844v-.438a.785.785,0,0,1,.054-.276.74.74,0,0,1,.174-.264l2.688-2.694q.342-.342.609-.654a4.746,4.746,0,0,0,.456-.624,2.833,2.833,0,0,0,.288-.633,2.278,2.278,0,0,0,.1-.675,1.607,1.607,0,0,0-.1-.6,1.187,1.187,0,0,0-.288-.432,1.2,1.2,0,0,0-.438-.258,1.728,1.728,0,0,0-.561-.087,1.689,1.689,0,0,0-.543.084,1.517,1.517,0,0,0-.444.234,1.344,1.344,0,0,0-.324.357,1.541,1.541,0,0,0-.189.453.61.61,0,0,1-.231.33.6.6,0,0,1-.411.036l-.678-.12a3.242,3.242,0,0,1,.339-1.074,2.535,2.535,0,0,1,.627-.771,2.65,2.65,0,0,1,.867-.468,3.406,3.406,0,0,1,1.059-.159,3.153,3.153,0,0,1,1.059.171,2.464,2.464,0,0,1,.834.486,2.209,2.209,0,0,1,.549.765,2.493,2.493,0,0,1,.2,1.014,2.7,2.7,0,0,1-.141.888,3.61,3.61,0,0,1-.381.78,5.455,5.455,0,0,1-.561.723q-.321.351-.675.711l-2.088,2.136a4.718,4.718,0,0,1,.519-.114,3.121,3.121,0,0,1,.5-.042Zm5.382-1.974V33.652a6.989,6.989,0,0,1,.054-.828l-2.9,3.984Zm2.316,0v.744a.271.271,0,0,1-.069.186.262.262,0,0,1-.207.078h-.918V40H-33.24V37.816h-3.738a.362.362,0,0,1-.237-.081.37.37,0,0,1-.129-.2l-.132-.66,4.146-5.52h1.212v5.454Zm1.026-3.072a3.242,3.242,0,0,1,.339-1.074,2.535,2.535,0,0,1,.627-.771,2.65,2.65,0,0,1,.867-.468,3.406,3.406,0,0,1,1.059-.159,3.15,3.15,0,0,1,1.047.165,2.465,2.465,0,0,1,.81.459,2,2,0,0,1,.522.7,2.159,2.159,0,0,1,.183.894,2.435,2.435,0,0,1-.1.729,1.793,1.793,0,0,1-.282.555,1.625,1.625,0,0,1-.447.4,2.791,2.791,0,0,1-.594.27,2.288,2.288,0,0,1,1.206.747,2.023,2.023,0,0,1,.4,1.287,2.528,2.528,0,0,1-.234,1.11,2.449,2.449,0,0,1-.633.822,2.8,2.8,0,0,1-.93.513,3.534,3.534,0,0,1-1.125.177,3.719,3.719,0,0,1-1.152-.159,2.467,2.467,0,0,1-.837-.456,2.563,2.563,0,0,1-.585-.717,4.938,4.938,0,0,1-.4-.942l.558-.234a.693.693,0,0,1,.423-.054.4.4,0,0,1,.291.222q.1.192.216.411a1.686,1.686,0,0,0,.309.4,1.582,1.582,0,0,0,.468.306A1.7,1.7,0,0,0-27.2,39a1.794,1.794,0,0,0,.723-.135,1.6,1.6,0,0,0,.516-.348,1.408,1.408,0,0,0,.309-.477,1.441,1.441,0,0,0,.1-.522,2.167,2.167,0,0,0-.078-.6.941.941,0,0,0-.3-.465,1.626,1.626,0,0,0-.636-.3,4.256,4.256,0,0,0-1.077-.111v-.93A3.612,3.612,0,0,0-26.721,35a1.645,1.645,0,0,0,.6-.288,1.044,1.044,0,0,0,.324-.441,1.562,1.562,0,0,0,.1-.564,1.543,1.543,0,0,0-.1-.582,1.17,1.17,0,0,0-.285-.423,1.17,1.17,0,0,0-.435-.255,1.757,1.757,0,0,0-.558-.084,1.689,1.689,0,0,0-.543.084,1.517,1.517,0,0,0-.444.234,1.39,1.39,0,0,0-.327.357,1.5,1.5,0,0,0-.192.453.585.585,0,0,1-.225.33.6.6,0,0,1-.411.036Zm7.614,6.258a.785.785,0,0,1-.318-.063.756.756,0,0,1-.249-.174.777.777,0,0,1-.162-.261.922.922,0,0,1-.057-.33.762.762,0,0,1,.057-.294.707.707,0,0,1,.162-.24.741.741,0,0,1,.252-.159.881.881,0,0,1,.321-.057.821.821,0,0,1,.36.075.751.751,0,0,1,.261.2.858.858,0,0,1,.156.3,1.264,1.264,0,0,1,.051.363,2.276,2.276,0,0,1-.081.582,2.916,2.916,0,0,1-.24.609,3.675,3.675,0,0,1-.39.591,3.54,3.54,0,0,1-.525.528l-.222-.2a.361.361,0,0,1-.069-.09A.242.242,0,0,1-23,41.266a.257.257,0,0,1,.1-.192l.156-.174a2.637,2.637,0,0,0,.192-.246,2.233,2.233,0,0,0,.177-.306,1.443,1.443,0,0,0,.117-.354Zm4.872-.966A1.914,1.914,0,0,0-16.7,38.9a1.646,1.646,0,0,0,.555-.357,1.581,1.581,0,0,0,.357-.54,1.794,1.794,0,0,0,.126-.678,1.942,1.942,0,0,0-.123-.711,1.461,1.461,0,0,0-.348-.531,1.546,1.546,0,0,0-.54-.333,1.976,1.976,0,0,0-.693-.117,1.808,1.808,0,0,0-.7.132,1.6,1.6,0,0,0-.537.36,1.587,1.587,0,0,0-.342.534,1.759,1.759,0,0,0-.12.648,2.172,2.172,0,0,0,.108.7,1.482,1.482,0,0,0,.318.543,1.444,1.444,0,0,0,.519.351A1.872,1.872,0,0,0-17.412,39.028Zm-.474-4.488-.183.228q-.087.108-.171.216a2.635,2.635,0,0,1,.606-.246,2.682,2.682,0,0,1,.708-.09,2.85,2.85,0,0,1,.966.165,2.327,2.327,0,0,1,.813.492,2.4,2.4,0,0,1,.561.81,2.769,2.769,0,0,1,.21,1.113,2.87,2.87,0,0,1-.219,1.122,2.737,2.737,0,0,1-.615.909,2.9,2.9,0,0,1-.951.612,3.237,3.237,0,0,1-1.227.225A3.239,3.239,0,0,1-18.6,39.88a2.619,2.619,0,0,1-.921-.609,2.666,2.666,0,0,1-.585-.945,3.526,3.526,0,0,1-.2-1.23,3.363,3.363,0,0,1,.252-1.23,5.9,5.9,0,0,1,.78-1.35l2.124-2.85a.769.769,0,0,1,.279-.216.919.919,0,0,1,.411-.09h1.14Zm5.814-.612a1.6,1.6,0,0,0,.411,1.179,1.553,1.553,0,0,0,1.149.411,1.809,1.809,0,0,0,.7-.126,1.541,1.541,0,0,0,.513-.339,1.415,1.415,0,0,0,.318-.5,1.7,1.7,0,0,0,.108-.609,1.83,1.83,0,0,0-.117-.675,1.446,1.446,0,0,0-.33-.507,1.434,1.434,0,0,0-.507-.321,1.8,1.8,0,0,0-.642-.111,1.732,1.732,0,0,0-.66.12,1.488,1.488,0,0,0-.5.333,1.475,1.475,0,0,0-.324.5A1.737,1.737,0,0,0-12.072,33.928Zm2.214,2.682q.12-.15.222-.285t.192-.273a2.4,2.4,0,0,1-.7.339,2.785,2.785,0,0,1-.816.117,2.585,2.585,0,0,1-.9-.159,2.246,2.246,0,0,1-.768-.474,2.308,2.308,0,0,1-.537-.78,2.678,2.678,0,0,1-.2-1.071,2.73,2.73,0,0,1,.213-1.074,2.665,2.665,0,0,1,.6-.879,2.8,2.8,0,0,1,.918-.591,3.125,3.125,0,0,1,1.182-.216,3.133,3.133,0,0,1,1.164.207,2.521,2.521,0,0,1,.888.582,2.579,2.579,0,0,1,.564.894,3.182,3.182,0,0,1,.2,1.143,3.79,3.79,0,0,1-.069.738,3.905,3.905,0,0,1-.2.675,4.74,4.74,0,0,1-.312.642q-.183.315-.411.639L-10.662,39.7a.65.65,0,0,1-.267.216.919.919,0,0,1-.4.084H-12.51Zm6.366,2.418a1.914,1.914,0,0,0,.714-.129,1.646,1.646,0,0,0,.555-.357A1.581,1.581,0,0,0-1.866,38a1.794,1.794,0,0,0,.126-.678,1.942,1.942,0,0,0-.123-.711,1.461,1.461,0,0,0-.348-.531,1.546,1.546,0,0,0-.54-.333,1.976,1.976,0,0,0-.693-.117,1.808,1.808,0,0,0-.705.132,1.6,1.6,0,0,0-.537.36,1.587,1.587,0,0,0-.342.534,1.759,1.759,0,0,0-.12.648,2.172,2.172,0,0,0,.108.7,1.483,1.483,0,0,0,.318.543A1.444,1.444,0,0,0-4.2,38.9,1.872,1.872,0,0,0-3.492,39.028Zm-.474-4.488-.183.228q-.087.108-.171.216a2.635,2.635,0,0,1,.606-.246,2.682,2.682,0,0,1,.708-.09,2.85,2.85,0,0,1,.966.165,2.327,2.327,0,0,1,.813.492,2.4,2.4,0,0,1,.561.81,2.769,2.769,0,0,1,.21,1.113A2.87,2.87,0,0,1-.675,38.35a2.737,2.737,0,0,1-.615.909,2.9,2.9,0,0,1-.951.612,3.237,3.237,0,0,1-1.227.225A3.239,3.239,0,0,1-4.68,39.88a2.619,2.619,0,0,1-.921-.609,2.666,2.666,0,0,1-.585-.945,3.526,3.526,0,0,1-.2-1.23,3.363,3.363,0,0,1,.252-1.23,5.9,5.9,0,0,1,.78-1.35l2.124-2.85a.769.769,0,0,1,.279-.216.919.919,0,0,1,.411-.09H-1.4Zm-34.4,24.482V60h-4.71v-.978h1.8V53.61q0-.288.018-.588l-1.386,1.17a.455.455,0,0,1-.183.093.4.4,0,0,1-.174,0,.461.461,0,0,1-.144-.057.355.355,0,0,1-.1-.087l-.4-.564,2.6-2.238h1.05v7.68Zm2.646-5.094a1.6,1.6,0,0,0,.411,1.179,1.553,1.553,0,0,0,1.149.411,1.809,1.809,0,0,0,.7-.126,1.541,1.541,0,0,0,.513-.339,1.415,1.415,0,0,0,.318-.5,1.7,1.7,0,0,0,.108-.609,1.83,1.83,0,0,0-.117-.675,1.446,1.446,0,0,0-.33-.507,1.434,1.434,0,0,0-.507-.321,1.8,1.8,0,0,0-.642-.111,1.732,1.732,0,0,0-.66.12,1.488,1.488,0,0,0-.5.333,1.475,1.475,0,0,0-.324.5A1.737,1.737,0,0,0-35.718,53.928ZM-33.5,56.61q.12-.15.222-.285t.192-.273a2.4,2.4,0,0,1-.7.339,2.785,2.785,0,0,1-.816.117,2.585,2.585,0,0,1-.9-.159,2.246,2.246,0,0,1-.768-.474,2.308,2.308,0,0,1-.537-.78,2.678,2.678,0,0,1-.2-1.071A2.73,2.73,0,0,1-36.8,52.95a2.665,2.665,0,0,1,.6-.879,2.8,2.8,0,0,1,.918-.591,3.125,3.125,0,0,1,1.182-.216,3.133,3.133,0,0,1,1.164.207,2.521,2.521,0,0,1,.888.582,2.579,2.579,0,0,1,.564.894,3.182,3.182,0,0,1,.2,1.143,3.79,3.79,0,0,1-.069.738,3.905,3.905,0,0,1-.2.675,4.74,4.74,0,0,1-.312.642q-.183.315-.411.639L-34.308,59.7a.65.65,0,0,1-.267.216.919.919,0,0,1-.4.084h-1.182Zm4.746-2.682a1.6,1.6,0,0,0,.411,1.179,1.553,1.553,0,0,0,1.149.411,1.809,1.809,0,0,0,.7-.126,1.541,1.541,0,0,0,.513-.339,1.415,1.415,0,0,0,.318-.5,1.7,1.7,0,0,0,.108-.609,1.83,1.83,0,0,0-.117-.675,1.446,1.446,0,0,0-.33-.507,1.434,1.434,0,0,0-.507-.321,1.8,1.8,0,0,0-.642-.111,1.732,1.732,0,0,0-.66.12,1.488,1.488,0,0,0-.5.333,1.475,1.475,0,0,0-.324.5A1.737,1.737,0,0,0-28.758,53.928Zm2.214,2.682q.12-.15.222-.285t.192-.273a2.4,2.4,0,0,1-.7.339,2.785,2.785,0,0,1-.816.117,2.585,2.585,0,0,1-.9-.159,2.246,2.246,0,0,1-.768-.474,2.308,2.308,0,0,1-.537-.78,2.678,2.678,0,0,1-.2-1.071,2.73,2.73,0,0,1,.213-1.074,2.665,2.665,0,0,1,.6-.879,2.8,2.8,0,0,1,.918-.591,3.125,3.125,0,0,1,1.182-.216,3.133,3.133,0,0,1,1.164.207,2.521,2.521,0,0,1,.888.582,2.579,2.579,0,0,1,.564.894,3.182,3.182,0,0,1,.2,1.143,3.79,3.79,0,0,1-.069.738,3.905,3.905,0,0,1-.2.675,4.74,4.74,0,0,1-.312.642q-.183.315-.411.639L-27.348,59.7a.65.65,0,0,1-.267.216.919.919,0,0,1-.4.084H-29.2Zm4.26,3.384a.785.785,0,0,1-.318-.063.756.756,0,0,1-.249-.174.777.777,0,0,1-.162-.261.922.922,0,0,1-.057-.33.762.762,0,0,1,.057-.294.707.707,0,0,1,.162-.24.741.741,0,0,1,.252-.159.881.881,0,0,1,.321-.057.821.821,0,0,1,.36.075.751.751,0,0,1,.261.2.858.858,0,0,1,.156.3,1.264,1.264,0,0,1,.051.363,2.276,2.276,0,0,1-.081.582,2.916,2.916,0,0,1-.24.609,3.675,3.675,0,0,1-.39.591,3.54,3.54,0,0,1-.525.528l-.222-.2a.361.361,0,0,1-.069-.09A.242.242,0,0,1-23,61.266a.257.257,0,0,1,.1-.192l.156-.174a2.637,2.637,0,0,0,.192-.246,2.233,2.233,0,0,0,.177-.306,1.443,1.443,0,0,0,.117-.354Zm7.926-8.634v.57a1.274,1.274,0,0,1-.054.408,2.227,2.227,0,0,1-.108.264l-3.414,6.948a.87.87,0,0,1-.255.321.686.686,0,0,1-.435.129h-.93l3.48-6.834q.1-.186.192-.336a2.457,2.457,0,0,1,.216-.288H-19.98a.283.283,0,0,1-.21-.093.3.3,0,0,1-.09-.213V51.36Zm3.918,7.716a2.033,2.033,0,0,0,.7-.111,1.419,1.419,0,0,0,.513-.312,1.334,1.334,0,0,0,.315-.477,1.632,1.632,0,0,0,.108-.6,1.734,1.734,0,0,0-.123-.684,1.286,1.286,0,0,0-.342-.477,1.433,1.433,0,0,0-.519-.282,2.178,2.178,0,0,0-.648-.093,2.178,2.178,0,0,0-.648.093,1.433,1.433,0,0,0-.519.282,1.286,1.286,0,0,0-.342.477,1.734,1.734,0,0,0-.123.684,1.632,1.632,0,0,0,.108.6,1.334,1.334,0,0,0,.315.477,1.419,1.419,0,0,0,.513.312A2.033,2.033,0,0,0-10.44,59.076Zm0-6.822a1.648,1.648,0,0,0-.621.108,1.26,1.26,0,0,0-.441.288,1.166,1.166,0,0,0-.261.423,1.51,1.51,0,0,0-.087.513,1.882,1.882,0,0,0,.075.528,1.277,1.277,0,0,0,.24.459,1.161,1.161,0,0,0,.435.321,1.622,1.622,0,0,0,.66.12,1.622,1.622,0,0,0,.66-.12,1.161,1.161,0,0,0,.435-.321,1.277,1.277,0,0,0,.24-.459,1.882,1.882,0,0,0,.075-.528,1.51,1.51,0,0,0-.087-.513,1.147,1.147,0,0,0-.264-.423,1.3,1.3,0,0,0-.441-.288A1.625,1.625,0,0,0-10.44,52.254Zm1.362,3.24a2.272,2.272,0,0,1,1.2.78,2.153,2.153,0,0,1,.4,1.326A2.407,2.407,0,0,1-7.7,58.632a2.246,2.246,0,0,1-.606.786,2.8,2.8,0,0,1-.933.5,3.866,3.866,0,0,1-1.2.177,3.866,3.866,0,0,1-1.2-.177,2.8,2.8,0,0,1-.933-.5,2.246,2.246,0,0,1-.606-.786A2.407,2.407,0,0,1-13.4,57.6a2.153,2.153,0,0,1,.4-1.326,2.272,2.272,0,0,1,1.2-.78,2.028,2.028,0,0,1-.975-.75,2.086,2.086,0,0,1-.327-1.182,2.153,2.153,0,0,1,.192-.906,2.156,2.156,0,0,1,.543-.729,2.583,2.583,0,0,1,.843-.486,3.188,3.188,0,0,1,1.086-.177,3.163,3.163,0,0,1,1.083.177,2.589,2.589,0,0,1,.84.486,2.191,2.191,0,0,1,.546.729,2.125,2.125,0,0,1,.195.906A2.086,2.086,0,0,1-8.1,54.744,2.028,2.028,0,0,1-9.078,55.494Zm8.748.186a7.012,7.012,0,0,1-.243,1.962,4.078,4.078,0,0,1-.669,1.374,2.685,2.685,0,0,1-1,.81,2.945,2.945,0,0,1-1.242.264,2.945,2.945,0,0,1-1.242-.264,2.66,2.66,0,0,1-1-.81,4.072,4.072,0,0,1-.663-1.374,7.094,7.094,0,0,1-.24-1.962,7.127,7.127,0,0,1,.24-1.965,4.036,4.036,0,0,1,.663-1.374,2.7,2.7,0,0,1,1-.81,2.917,2.917,0,0,1,1.242-.267,2.917,2.917,0,0,1,1.242.267,2.724,2.724,0,0,1,1,.81,4.041,4.041,0,0,1,.669,1.374A7.044,7.044,0,0,1-.33,55.68Zm-1.332,0a7.014,7.014,0,0,0-.153-1.6,3.252,3.252,0,0,0-.4-1.023,1.5,1.5,0,0,0-.582-.546,1.534,1.534,0,0,0-.684-.162,1.528,1.528,0,0,0-.687.162,1.508,1.508,0,0,0-.579.546,3.207,3.207,0,0,0-.4,1.023,8.6,8.6,0,0,0,0,3.2,3.207,3.207,0,0,0,.4,1.023,1.508,1.508,0,0,0,.579.546,1.528,1.528,0,0,0,.687.162,1.534,1.534,0,0,0,.684-.162A1.5,1.5,0,0,0-2.22,58.3a3.252,3.252,0,0,0,.4-1.023A7.014,7.014,0,0,0-1.662,55.68Zm-36.7,23.342V80h-4.71v-.978h1.8V73.61q0-.288.018-.588l-1.386,1.17a.455.455,0,0,1-.183.093.4.4,0,0,1-.174,0,.462.462,0,0,1-.144-.057.355.355,0,0,1-.1-.087l-.4-.564,2.6-2.238h1.05v7.68Zm3.108-4.47a5.848,5.848,0,0,1,.6-.1,5.249,5.249,0,0,1,.549-.03,3.3,3.3,0,0,1,1.2.2,2.453,2.453,0,0,1,.87.555,2.3,2.3,0,0,1,.528.831,2.952,2.952,0,0,1,.177,1.035,3.172,3.172,0,0,1-.24,1.254,2.807,2.807,0,0,1-.666.963,2.971,2.971,0,0,1-1,.615A3.551,3.551,0,0,1-34.5,80.1a3.52,3.52,0,0,1-.753-.078,3.633,3.633,0,0,1-.669-.213,3.6,3.6,0,0,1-.576-.312,4.011,4.011,0,0,1-.474-.369l.4-.552a.391.391,0,0,1,.336-.18.558.558,0,0,1,.288.1q.156.1.363.207a3.269,3.269,0,0,0,.489.207,2.093,2.093,0,0,0,.672.1,1.991,1.991,0,0,0,.762-.138,1.58,1.58,0,0,0,.567-.387,1.662,1.662,0,0,0,.351-.6,2.324,2.324,0,0,0,.12-.762,1.944,1.944,0,0,0-.111-.678,1.339,1.339,0,0,0-.33-.51,1.445,1.445,0,0,0-.549-.321,2.389,2.389,0,0,0-.762-.111,4.064,4.064,0,0,0-.651.054,4.322,4.322,0,0,0-.675.168l-.8-.228.708-4.128h4.182v.558a.609.609,0,0,1-.174.45.8.8,0,0,1-.582.174h-2.532Zm6.96,0a5.848,5.848,0,0,1,.6-.1,5.249,5.249,0,0,1,.549-.03,3.3,3.3,0,0,1,1.2.2,2.453,2.453,0,0,1,.87.555,2.3,2.3,0,0,1,.528.831,2.952,2.952,0,0,1,.177,1.035,3.172,3.172,0,0,1-.24,1.254,2.807,2.807,0,0,1-.666.963,2.971,2.971,0,0,1-1.005.615,3.551,3.551,0,0,1-1.251.216,3.52,3.52,0,0,1-.753-.078,3.633,3.633,0,0,1-.669-.213,3.6,3.6,0,0,1-.576-.312,4.011,4.011,0,0,1-.474-.369l.4-.552a.391.391,0,0,1,.336-.18.558.558,0,0,1,.288.1q.156.1.363.207a3.269,3.269,0,0,0,.489.207,2.093,2.093,0,0,0,.672.1,1.99,1.99,0,0,0,.762-.138,1.58,1.58,0,0,0,.567-.387,1.662,1.662,0,0,0,.351-.6,2.324,2.324,0,0,0,.12-.762,1.944,1.944,0,0,0-.111-.678,1.339,1.339,0,0,0-.33-.51,1.445,1.445,0,0,0-.549-.321,2.389,2.389,0,0,0-.762-.111,4.064,4.064,0,0,0-.651.054,4.322,4.322,0,0,0-.675.168l-.8-.228.708-4.128h4.182v.558a.609.609,0,0,1-.174.45.8.8,0,0,1-.582.174h-2.532Zm6.012,5.442a.785.785,0,0,1-.318-.063.756.756,0,0,1-.249-.174.777.777,0,0,1-.162-.261.922.922,0,0,1-.057-.33.762.762,0,0,1,.057-.294.707.707,0,0,1,.162-.24.741.741,0,0,1,.252-.159.88.88,0,0,1,.321-.057.822.822,0,0,1,.36.075.751.751,0,0,1,.261.2.858.858,0,0,1,.156.3,1.264,1.264,0,0,1,.051.363,2.276,2.276,0,0,1-.081.582,2.916,2.916,0,0,1-.24.609,3.675,3.675,0,0,1-.39.591,3.54,3.54,0,0,1-.525.528l-.222-.2a.361.361,0,0,1-.069-.09A.242.242,0,0,1-23,81.266a.257.257,0,0,1,.1-.192l.156-.174a2.636,2.636,0,0,0,.192-.246,2.233,2.233,0,0,0,.177-.306,1.443,1.443,0,0,0,.117-.354Zm7.308-1.212a.44.44,0,0,1,.33.123.432.432,0,0,1,.12.315V80H-20.37v-.438a.785.785,0,0,1,.054-.276.74.74,0,0,1,.174-.264l2.688-2.694q.342-.342.609-.654a4.746,4.746,0,0,0,.456-.624,2.833,2.833,0,0,0,.288-.633,2.277,2.277,0,0,0,.1-.675,1.607,1.607,0,0,0-.1-.6,1.187,1.187,0,0,0-.288-.432,1.2,1.2,0,0,0-.438-.258,1.728,1.728,0,0,0-.561-.087,1.689,1.689,0,0,0-.543.084,1.517,1.517,0,0,0-.444.234,1.344,1.344,0,0,0-.324.357,1.54,1.54,0,0,0-.189.453.61.61,0,0,1-.231.33.6.6,0,0,1-.411.036l-.678-.12a3.242,3.242,0,0,1,.339-1.074,2.535,2.535,0,0,1,.627-.771,2.65,2.65,0,0,1,.867-.468,3.406,3.406,0,0,1,1.059-.159,3.153,3.153,0,0,1,1.059.171,2.464,2.464,0,0,1,.834.486,2.209,2.209,0,0,1,.549.765,2.493,2.493,0,0,1,.2,1.014,2.7,2.7,0,0,1-.141.888,3.61,3.61,0,0,1-.381.78,5.455,5.455,0,0,1-.561.723q-.321.351-.675.711l-2.088,2.136a4.717,4.717,0,0,1,.519-.114,3.121,3.121,0,0,1,.495-.042Zm5.382-1.974V73.652a6.989,6.989,0,0,1,.054-.828l-2.9,3.984Zm2.316,0v.744a.271.271,0,0,1-.069.186.262.262,0,0,1-.207.078h-.918V80H-9.594V77.816h-3.738a.362.362,0,0,1-.237-.081.37.37,0,0,1-.129-.2l-.132-.66,4.146-5.52h1.212v5.454Zm4.644,0V73.652a6.989,6.989,0,0,1,.054-.828l-2.9,3.984Zm2.316,0v.744a.271.271,0,0,1-.069.186.262.262,0,0,1-.207.078h-.918V80H-2.634V77.816H-6.372a.362.362,0,0,1-.237-.081.37.37,0,0,1-.129-.2l-.132-.66,4.146-5.52h1.212v5.454Z" transform="translate(1195 2104)"/><path d="M-3.012-2.162V-5.818H-5.678V-7.055h2.666v-3.193H-1.57v8.086ZM-5.051-9.516q-.48,4.184-5.062,6.322l-1.008-1.055A7.545,7.545,0,0,0-8.517-5.8,5.182,5.182,0,0,0-6.838-8.279h-3.639V-9.516ZM-8.865.662v-3.8h1.471V-.574h6.041V.662Zm5.854,17.176V14.182H-5.678V12.945h2.666V9.752H-1.57v8.086Zm-2.039-7.354q-.48,4.184-5.062,6.322l-1.008-1.055a7.545,7.545,0,0,0,2.6-1.553,5.182,5.182,0,0,0,1.679-2.479h-3.639V10.484ZM-8.865,20.662v-3.8h1.471v2.561h6.041v1.236Zm5.854,17.176V34.182H-5.678V32.945h2.666V29.752H-1.57v8.086Zm-2.039-7.354q-.48,4.184-5.062,6.322l-1.008-1.055a7.545,7.545,0,0,0,2.6-1.553,5.182,5.182,0,0,0,1.679-2.479h-3.639V30.484ZM-8.865,40.662v-3.8h1.471v2.561h6.041v1.236Zm5.854,17.176V54.182H-5.678V52.945h2.666V49.752H-1.57v8.086Zm-2.039-7.354q-.48,4.184-5.062,6.322l-1.008-1.055a7.545,7.545,0,0,0,2.6-1.553,5.182,5.182,0,0,0,1.679-2.479h-3.639V50.484ZM-8.865,60.662v-3.8h1.471v2.561h6.041v1.236Zm5.854,17.176V74.182H-5.678V72.945h2.666V69.752H-1.57v8.086Zm-2.039-7.354q-.48,4.184-5.062,6.322l-1.008-1.055a7.545,7.545,0,0,0,2.6-1.553,5.182,5.182,0,0,0,1.679-2.479h-3.639V70.484ZM-8.865,80.662v-3.8h1.471v2.561h6.041v1.236Z" transform="translate(1214 2104)" fill="#4d4d4d"/><g transform="translate(1010 2092)" fill="#eaeaf2"><path d="M 7 13.80000019073486 C 3.250469923019409 13.80000019073486 0.2000000029802322 10.74952983856201 0.2000000029802322 7 C 0.2000000029802322 3.250469923019409 3.250469923019409 0.2000000029802322 7 0.2000000029802322 C 10.74952983856201 0.2000000029802322 13.80000019073486 3.250469923019409 13.80000019073486 7 C 13.80000019073486 10.74952983856201 10.74952983856201 13.80000019073486 7 13.80000019073486 Z" stroke="none"/><path d="M 7 0.3999996185302734 C 3.360750198364258 0.3999996185302734 0.3999996185302734 3.360750198364258 0.3999996185302734 7 C 0.3999996185302734 10.63924980163574 3.360750198364258 13.60000038146973 7 13.60000038146973 C 10.63924980163574 13.60000038146973 13.60000038146973 10.63924980163574 13.60000038146973 7 C 13.60000038146973 3.360750198364258 10.63924980163574 0.3999996185302734 7 0.3999996185302734 M 7 0 C 10.86598968505859 0 14 3.134010314941406 14 7 C 14 10.86598968505859 10.86598968505859 14 7 14 C 3.134010314941406 14 0 10.86598968505859 0 7 C 0 3.134010314941406 3.134010314941406 0 7 0 Z" stroke="none" fill="#c7c7c7"/></g><g transform="translate(1010 2112)" fill="#b1b1cd"><path d="M 7 13.80000019073486 C 3.250469923019409 13.80000019073486 0.2000000029802322 10.74952983856201 0.2000000029802322 7 C 0.2000000029802322 3.250469923019409 3.250469923019409 0.2000000029802322 7 0.2000000029802322 C 10.74952983856201 0.2000000029802322 13.80000019073486 3.250469923019409 13.80000019073486 7 C 13.80000019073486 10.74952983856201 10.74952983856201 13.80000019073486 7 13.80000019073486 Z" stroke="none"/><path d="M 7 0.3999996185302734 C 3.360750198364258 0.3999996185302734 0.3999996185302734 3.360750198364258 0.3999996185302734 7 C 0.3999996185302734 10.63924980163574 3.360750198364258 13.60000038146973 7 13.60000038146973 C 10.63924980163574 13.60000038146973 13.60000038146973 10.63924980163574 13.60000038146973 7 C 13.60000038146973 3.360750198364258 10.63924980163574 0.3999996185302734 7 0.3999996185302734 M 7 0 C 10.86598968505859 0 14 3.134010314941406 14 7 C 14 10.86598968505859 10.86598968505859 14 7 14 C 3.134010314941406 14 0 10.86598968505859 0 7 C 0 3.134010314941406 3.134010314941406 0 7 0 Z" stroke="none" fill="#edeeef"/></g><g transform="translate(1010 2132)" fill="#1a4679"><path d="M 7 13.80000019073486 C 3.250469923019409 13.80000019073486 0.2000000029802322 10.74952983856201 0.2000000029802322 7 C 0.2000000029802322 3.250469923019409 3.250469923019409 0.2000000029802322 7 0.2000000029802322 C 10.74952983856201 0.2000000029802322 13.80000019073486 3.250469923019409 13.80000019073486 7 C 13.80000019073486 10.74952983856201 10.74952983856201 13.80000019073486 7 13.80000019073486 Z" stroke="none"/><path d="M 7 0.3999996185302734 C 3.360750198364258 0.3999996185302734 0.3999996185302734 3.360750198364258 0.3999996185302734 7 C 0.3999996185302734 10.63924980163574 3.360750198364258 13.60000038146973 7 13.60000038146973 C 10.63924980163574 13.60000038146973 13.60000038146973 10.63924980163574 13.60000038146973 7 C 13.60000038146973 3.360750198364258 10.63924980163574 0.3999996185302734 7 0.3999996185302734 M 7 0 C 10.86598968505859 0 14 3.134010314941406 14 7 C 14 10.86598968505859 10.86598968505859 14 7 14 C 3.134010314941406 14 0 10.86598968505859 0 7 C 0 3.134010314941406 3.134010314941406 0 7 0 Z" stroke="none" fill="#edeeef"/></g><g transform="translate(1010 2152)" fill="#b2558d"><path d="M 7 13.80000019073486 C 3.250469923019409 13.80000019073486 0.2000000029802322 10.74952983856201 0.2000000029802322 7 C 0.2000000029802322 3.250469923019409 3.250469923019409 0.2000000029802322 7 0.2000000029802322 C 10.74952983856201 0.2000000029802322 13.80000019073486 3.250469923019409 13.80000019073486 7 C 13.80000019073486 10.74952983856201 10.74952983856201 13.80000019073486 7 13.80000019073486 Z" stroke="none"/><path d="M 7 0.3999996185302734 C 3.360750198364258 0.3999996185302734 0.3999996185302734 3.360750198364258 0.3999996185302734 7 C 0.3999996185302734 10.63924980163574 3.360750198364258 13.60000038146973 7 13.60000038146973 C 10.63924980163574 13.60000038146973 13.60000038146973 10.63924980163574 13.60000038146973 7 C 13.60000038146973 3.360750198364258 10.63924980163574 0.3999996185302734 7 0.3999996185302734 M 7 0 C 10.86598968505859 0 14 3.134010314941406 14 7 C 14 10.86598968505859 10.86598968505859 14 7 14 C 3.134010314941406 14 0 10.86598968505859 0 7 C 0 3.134010314941406 3.134010314941406 0 7 0 Z" stroke="none" fill="#edeeef"/></g><g transform="translate(1010 2172)" fill="#e1d2c3"><path d="M 7 13.80000019073486 C 3.250469923019409 13.80000019073486 0.2000000029802322 10.74952983856201 0.2000000029802322 7 C 0.2000000029802322 3.250469923019409 3.250469923019409 0.2000000029802322 7 0.2000000029802322 C 10.74952983856201 0.2000000029802322 13.80000019073486 3.250469923019409 13.80000019073486 7 C 13.80000019073486 10.74952983856201 10.74952983856201 13.80000019073486 7 13.80000019073486 Z" stroke="none"/><path d="M 7 0.3999996185302734 C 3.360750198364258 0.3999996185302734 0.3999996185302734 3.360750198364258 0.3999996185302734 7 C 0.3999996185302734 10.63924980163574 3.360750198364258 13.60000038146973 7 13.60000038146973 C 10.63924980163574 13.60000038146973 13.60000038146973 10.63924980163574 13.60000038146973 7 C 13.60000038146973 3.360750198364258 10.63924980163574 0.3999996185302734 7 0.3999996185302734 M 7 0 C 10.86598968505859 0 14 3.134010314941406 14 7 C 14 10.86598968505859 10.86598968505859 14 7 14 C 3.134010314941406 14 0 10.86598968505859 0 7 C 0 3.134010314941406 3.134010314941406 0 7 0 Z" stroke="none" fill="#edeeef"/></g><path d="M10.218-8.64V0H8.982V-5.922q0-.144.009-.315t.027-.345L6.24-1.452a.528.528,0,0,1-.5.318h-.2a.52.52,0,0,1-.5-.318L2.226-6.594q.018.174.027.348t.009.324V0H1.026V-8.64h1.05a.979.979,0,0,1,.288.033.362.362,0,0,1,.186.2L5.322-3.384q.09.174.171.357t.147.375q.072-.192.153-.381T5.964-3.4l2.73-5.01a.362.362,0,0,1,.186-.2.979.979,0,0,1,.288-.033Zm4.56,4.14a2.722,2.722,0,0,0,.84-.117,1.693,1.693,0,0,0,.6-.327,1.333,1.333,0,0,0,.36-.5,1.677,1.677,0,0,0,.12-.645,1.3,1.3,0,0,0-.468-1.08,2.251,2.251,0,0,0-1.416-.372h-1.14V-4.5ZM18.846,0H17.592a.578.578,0,0,1-.54-.288L15.036-3.2a.665.665,0,0,0-.222-.216.769.769,0,0,0-.36-.066h-.78V0h-1.4V-8.64h2.544a5.433,5.433,0,0,1,1.467.174,2.794,2.794,0,0,1,1.011.495,1.958,1.958,0,0,1,.585.771,2.563,2.563,0,0,1,.189,1,2.551,2.551,0,0,1-.135.84,2.353,2.353,0,0,1-.39.708,2.5,2.5,0,0,1-.627.552,3.182,3.182,0,0,1-.846.366,1.4,1.4,0,0,1,.444.438ZM21.3,0H19.89V-8.64H21.3ZM8.61,15.68A4.765,4.765,0,0,1,8.3,17.435a3.873,3.873,0,0,1-2.241,2.25A4.759,4.759,0,0,1,4.29,20H1.026V11.36H4.29a4.759,4.759,0,0,1,1.767.315A3.873,3.873,0,0,1,8.3,13.925,4.765,4.765,0,0,1,8.61,15.68Zm-1.434,0a4.161,4.161,0,0,0-.2-1.338,2.77,2.77,0,0,0-.576-1,2.51,2.51,0,0,0-.909-.627,3.137,3.137,0,0,0-1.2-.219H2.436v6.372H4.29a3.175,3.175,0,0,0,1.2-.216,2.462,2.462,0,0,0,.909-.627,2.8,2.8,0,0,0,.576-1A4.153,4.153,0,0,0,7.176,15.68Zm8.37,3.186L15.54,20H10.152V11.36H15.54v1.134H11.562v2.6h3.18v1.1h-3.18v2.67Zm4.662-1.9a4.459,4.459,0,0,1-.177,1.3,2.673,2.673,0,0,1-.528.984,2.332,2.332,0,0,1-.87.624,3.074,3.074,0,0,1-1.2.219,4.883,4.883,0,0,1-.618-.039,5.3,5.3,0,0,1-.636-.123l.072-.84a.324.324,0,0,1,.093-.192.3.3,0,0,1,.219-.072,1.148,1.148,0,0,1,.279.045,1.81,1.81,0,0,0,.447.045,1.828,1.828,0,0,0,.651-.108,1.152,1.152,0,0,0,.48-.339,1.532,1.532,0,0,0,.294-.594,3.38,3.38,0,0,0,.1-.879V11.36h1.4Zm6.414-.2L25.434,13.6a8.738,8.738,0,0,1-.294-.93q-.066.282-.144.519t-.144.417l-1.188,3.15ZM29.28,20H28.194a.46.46,0,0,1-.3-.093.6.6,0,0,1-.174-.231L27,17.768H23.28l-.72,1.908a.575.575,0,0,1-.168.222.447.447,0,0,1-.3.1H21.006l3.426-8.64h1.422ZM3.714,35.764a2.588,2.588,0,0,0,.825-.12,1.623,1.623,0,0,0,.594-.339,1.393,1.393,0,0,0,.357-.531,1.925,1.925,0,0,0,.12-.7,1.854,1.854,0,0,0-.117-.678,1.319,1.319,0,0,0-.351-.51,1.567,1.567,0,0,0-.591-.321,2.829,2.829,0,0,0-.837-.111H2.43v3.306Zm0-4.4a4.849,4.849,0,0,1,1.467.2,2.828,2.828,0,0,1,1.026.555,2.212,2.212,0,0,1,.6.858A3.172,3.172,0,0,1,6.8,35.209a2.369,2.369,0,0,1-.624.882,2.928,2.928,0,0,1-1.029.576,4.488,4.488,0,0,1-1.431.207H2.43V40h-1.4V31.36Zm10.032,7.506L13.74,40H8.352V31.36H13.74v1.134H9.762v2.6h3.18v1.1H9.762v2.67ZM21.21,32.53H18.516V40h-1.4V32.53h-2.7V31.36H21.21Zm.156,3.312h3.042v1.092H21.366Zm10.782,2.232a.262.262,0,0,1,.2.09l.558.606a3.552,3.552,0,0,1-1.3.981,4.456,4.456,0,0,1-1.836.345,4.317,4.317,0,0,1-1.713-.327,3.766,3.766,0,0,1-1.305-.912,4.046,4.046,0,0,1-.831-1.4,5.237,5.237,0,0,1-.291-1.782,4.986,4.986,0,0,1,.309-1.785,4.094,4.094,0,0,1,.87-1.4,3.907,3.907,0,0,1,1.344-.909,4.469,4.469,0,0,1,1.725-.324,4.217,4.217,0,0,1,1.653.3,4.087,4.087,0,0,1,1.245.807l-.462.654a.514.514,0,0,1-.114.114.3.3,0,0,1-.18.048.485.485,0,0,1-.273-.111,4.3,4.3,0,0,0-.39-.246,2.877,2.877,0,0,0-1.485-.357,2.908,2.908,0,0,0-1.134.216,2.452,2.452,0,0,0-.888.63,2.929,2.929,0,0,0-.579,1.008,4.09,4.09,0,0,0-.207,1.35,3.979,3.979,0,0,0,.216,1.359,2.951,2.951,0,0,0,.594,1.008,2.539,2.539,0,0,0,.888.627,2.786,2.786,0,0,0,1.1.216,4.8,4.8,0,0,0,.645-.039,2.554,2.554,0,0,0,.525-.126,2.428,2.428,0,0,0,.453-.219,2.873,2.873,0,0,0,.423-.324A.362.362,0,0,1,32.148,38.074Zm7.92-5.544H37.374V40h-1.4V32.53h-2.7V31.36h6.792ZM3.714,55.764a2.588,2.588,0,0,0,.825-.12,1.623,1.623,0,0,0,.594-.339,1.393,1.393,0,0,0,.357-.531,1.925,1.925,0,0,0,.12-.7,1.854,1.854,0,0,0-.117-.678,1.319,1.319,0,0,0-.351-.51,1.567,1.567,0,0,0-.591-.321,2.829,2.829,0,0,0-.837-.111H2.43v3.306Zm0-4.4a4.848,4.848,0,0,1,1.467.2,2.828,2.828,0,0,1,1.026.555,2.212,2.212,0,0,1,.6.858A3.172,3.172,0,0,1,6.8,55.209a2.369,2.369,0,0,1-.624.882,2.928,2.928,0,0,1-1.029.576,4.488,4.488,0,0,1-1.431.207H2.43V60h-1.4V51.36Zm10.032,7.506L13.74,60H8.352V51.36H13.74v1.134H9.762v2.6h3.18v1.1H9.762v2.67ZM21.21,52.53H18.516V60h-1.4V52.53h-2.7V51.36H21.21ZM8.771,81.055v-11.3h1.441v11.3ZM7.043,70.748a8.322,8.322,0,0,1-1.368,4.468,10.149,10.149,0,0,1-3.729,3.366L.814,77.516a7.57,7.57,0,0,0,3.053-2.191,6.745,6.745,0,0,0,1.617-3.34H1.5V70.748Zm14.7,4.523v5.783H20.279v-11.3h1.465v4.283h1.887v1.236Zm-6.949-.41v1.852h.58a33.344,33.344,0,0,0,4.055-.17l.129,1.213a36.49,36.49,0,0,1-4.4.182H13.33V70.713h5.508v1.236H14.795v1.729h3.639v1.184Z" transform="translate(1328 2104)" fill="#4d4d4d"/><path d="M-38.364-.978V0h-4.71V-.978h1.8V-6.39q0-.288.018-.588l-1.386,1.17a.455.455,0,0,1-.183.093.4.4,0,0,1-.174,0,.461.461,0,0,1-.144-.057.355.355,0,0,1-.1-.087l-.4-.564,2.6-2.238h1.05v7.68Zm6.96,0V0h-4.71V-.978h1.8V-6.39q0-.288.018-.588l-1.386,1.17a.455.455,0,0,1-.183.093.4.4,0,0,1-.174,0,.461.461,0,0,1-.144-.057.355.355,0,0,1-.1-.087l-.4-.564,2.6-2.238h1.05v7.68Zm6.96,0V0h-4.71V-.978h1.8V-6.39q0-.288.018-.588l-1.386,1.17a.455.455,0,0,1-.183.093.4.4,0,0,1-.174,0,.461.461,0,0,1-.144-.057.355.355,0,0,1-.1-.087l-.4-.564,2.6-2.238h1.05v7.68Zm2.16.972A.785.785,0,0,1-22.6-.069a.756.756,0,0,1-.249-.174A.777.777,0,0,1-23.013-.5a.922.922,0,0,1-.057-.33.762.762,0,0,1,.057-.294.707.707,0,0,1,.162-.24.741.741,0,0,1,.252-.159.881.881,0,0,1,.321-.057.821.821,0,0,1,.36.075.751.751,0,0,1,.261.2A.858.858,0,0,1-21.5-1a1.264,1.264,0,0,1,.051.363,2.276,2.276,0,0,1-.081.582,2.916,2.916,0,0,1-.24.609,3.675,3.675,0,0,1-.39.591,3.54,3.54,0,0,1-.525.528l-.222-.2a.361.361,0,0,1-.069-.09A.242.242,0,0,1-23,1.266a.257.257,0,0,1,.1-.192L-22.74.9a2.636,2.636,0,0,0,.192-.246,2.233,2.233,0,0,0,.177-.306,1.443,1.443,0,0,0,.117-.354Zm7.566-.972V0h-4.71V-.978h1.8V-6.39q0-.288.018-.588L-19-5.808a.455.455,0,0,1-.183.093.4.4,0,0,1-.174,0,.461.461,0,0,1-.144-.057.355.355,0,0,1-.1-.087L-20-6.42l2.6-2.238h1.05v7.68Zm4.278.054a2.033,2.033,0,0,0,.7-.111,1.419,1.419,0,0,0,.513-.312,1.334,1.334,0,0,0,.315-.477,1.632,1.632,0,0,0,.108-.6,1.734,1.734,0,0,0-.123-.684,1.286,1.286,0,0,0-.342-.477,1.433,1.433,0,0,0-.519-.282,2.178,2.178,0,0,0-.648-.093,2.178,2.178,0,0,0-.648.093,1.433,1.433,0,0,0-.519.282,1.286,1.286,0,0,0-.342.477,1.734,1.734,0,0,0-.123.684,1.632,1.632,0,0,0,.108.6,1.334,1.334,0,0,0,.315.477,1.419,1.419,0,0,0,.513.312A2.033,2.033,0,0,0-10.44-.924Zm0-6.822a1.648,1.648,0,0,0-.621.108,1.26,1.26,0,0,0-.441.288,1.166,1.166,0,0,0-.261.423,1.51,1.51,0,0,0-.087.513,1.882,1.882,0,0,0,.075.528,1.277,1.277,0,0,0,.24.459,1.161,1.161,0,0,0,.435.321,1.622,1.622,0,0,0,.66.12,1.622,1.622,0,0,0,.66-.12,1.161,1.161,0,0,0,.435-.321,1.277,1.277,0,0,0,.24-.459,1.882,1.882,0,0,0,.075-.528,1.51,1.51,0,0,0-.087-.513,1.147,1.147,0,0,0-.264-.423,1.3,1.3,0,0,0-.441-.288A1.625,1.625,0,0,0-10.44-7.746Zm1.362,3.24a2.272,2.272,0,0,1,1.2.78,2.153,2.153,0,0,1,.4,1.326A2.407,2.407,0,0,1-7.7-1.368,2.246,2.246,0,0,1-8.3-.582a2.8,2.8,0,0,1-.933.5A3.866,3.866,0,0,1-10.44.1a3.866,3.866,0,0,1-1.2-.177,2.8,2.8,0,0,1-.933-.5,2.246,2.246,0,0,1-.606-.786A2.407,2.407,0,0,1-13.4-2.4,2.153,2.153,0,0,1-13-3.726a2.272,2.272,0,0,1,1.2-.78,2.028,2.028,0,0,1-.975-.75A2.086,2.086,0,0,1-13.1-6.438a2.153,2.153,0,0,1,.192-.906,2.156,2.156,0,0,1,.543-.729,2.583,2.583,0,0,1,.843-.486,3.188,3.188,0,0,1,1.086-.177,3.163,3.163,0,0,1,1.083.177,2.589,2.589,0,0,1,.84.486,2.191,2.191,0,0,1,.546.729,2.125,2.125,0,0,1,.195.906A2.086,2.086,0,0,1-8.1-5.256,2.028,2.028,0,0,1-9.078-4.506Zm5.6,3.582a2.033,2.033,0,0,0,.7-.111,1.419,1.419,0,0,0,.513-.312,1.334,1.334,0,0,0,.315-.477,1.632,1.632,0,0,0,.108-.6,1.734,1.734,0,0,0-.123-.684,1.286,1.286,0,0,0-.342-.477,1.433,1.433,0,0,0-.519-.282A2.178,2.178,0,0,0-3.48-3.96a2.178,2.178,0,0,0-.648.093,1.433,1.433,0,0,0-.519.282,1.286,1.286,0,0,0-.342.477,1.734,1.734,0,0,0-.123.684,1.632,1.632,0,0,0,.108.6,1.334,1.334,0,0,0,.315.477,1.419,1.419,0,0,0,.513.312A2.033,2.033,0,0,0-3.48-.924Zm0-6.822a1.648,1.648,0,0,0-.621.108,1.26,1.26,0,0,0-.441.288,1.166,1.166,0,0,0-.261.423,1.51,1.51,0,0,0-.087.513,1.882,1.882,0,0,0,.075.528,1.277,1.277,0,0,0,.24.459,1.161,1.161,0,0,0,.435.321,1.622,1.622,0,0,0,.66.12,1.622,1.622,0,0,0,.66-.12,1.161,1.161,0,0,0,.435-.321,1.277,1.277,0,0,0,.24-.459,1.882,1.882,0,0,0,.075-.528,1.51,1.51,0,0,0-.087-.513,1.147,1.147,0,0,0-.264-.423,1.3,1.3,0,0,0-.441-.288A1.625,1.625,0,0,0-3.48-7.746Zm1.362,3.24a2.272,2.272,0,0,1,1.2.78A2.153,2.153,0,0,1-.522-2.4,2.407,2.407,0,0,1-.738-1.368a2.246,2.246,0,0,1-.606.786,2.8,2.8,0,0,1-.933.5A3.866,3.866,0,0,1-3.48.1a3.866,3.866,0,0,1-1.2-.177,2.8,2.8,0,0,1-.933-.5,2.246,2.246,0,0,1-.606-.786A2.407,2.407,0,0,1-6.438-2.4a2.153,2.153,0,0,1,.4-1.326,2.272,2.272,0,0,1,1.2-.78,2.028,2.028,0,0,1-.975-.75,2.086,2.086,0,0,1-.327-1.182,2.153,2.153,0,0,1,.192-.906,2.156,2.156,0,0,1,.543-.729,2.583,2.583,0,0,1,.843-.486A3.188,3.188,0,0,1-3.48-8.736,3.163,3.163,0,0,1-2.4-8.559a2.589,2.589,0,0,1,.84.486,2.191,2.191,0,0,1,.546.729,2.125,2.125,0,0,1,.195.906,2.086,2.086,0,0,1-.327,1.182A2.028,2.028,0,0,1-2.118-4.506ZM-31.662,18.782a.44.44,0,0,1,.33.123.432.432,0,0,1,.12.315V20h-5.844v-.438A.785.785,0,0,1-37,19.286a.74.74,0,0,1,.174-.264l2.688-2.694q.342-.342.609-.654a4.747,4.747,0,0,0,.456-.624,2.833,2.833,0,0,0,.288-.633,2.278,2.278,0,0,0,.1-.675,1.607,1.607,0,0,0-.105-.6,1.187,1.187,0,0,0-.288-.432,1.2,1.2,0,0,0-.438-.258,1.728,1.728,0,0,0-.561-.087,1.689,1.689,0,0,0-.543.084,1.517,1.517,0,0,0-.444.234,1.344,1.344,0,0,0-.324.357,1.54,1.54,0,0,0-.189.453.61.61,0,0,1-.231.33.6.6,0,0,1-.411.036l-.678-.12a3.242,3.242,0,0,1,.339-1.074,2.535,2.535,0,0,1,.627-.771,2.65,2.65,0,0,1,.867-.468,3.406,3.406,0,0,1,1.059-.159,3.153,3.153,0,0,1,1.059.171,2.463,2.463,0,0,1,.834.486,2.209,2.209,0,0,1,.549.765,2.493,2.493,0,0,1,.2,1.014,2.7,2.7,0,0,1-.141.888,3.61,3.61,0,0,1-.381.78,5.455,5.455,0,0,1-.561.723q-.321.351-.675.711l-2.088,2.136a4.718,4.718,0,0,1,.519-.114,3.121,3.121,0,0,1,.5-.042Zm4.524.246a1.914,1.914,0,0,0,.714-.129,1.646,1.646,0,0,0,.555-.357,1.581,1.581,0,0,0,.357-.54,1.794,1.794,0,0,0,.126-.678,1.942,1.942,0,0,0-.123-.711,1.461,1.461,0,0,0-.348-.531,1.546,1.546,0,0,0-.54-.333,1.976,1.976,0,0,0-.693-.117,1.808,1.808,0,0,0-.7.132,1.6,1.6,0,0,0-.537.36,1.587,1.587,0,0,0-.342.534,1.759,1.759,0,0,0-.12.648,2.172,2.172,0,0,0,.108.7,1.483,1.483,0,0,0,.318.543,1.444,1.444,0,0,0,.519.351A1.872,1.872,0,0,0-27.138,19.028Zm-.474-4.488-.183.228q-.087.108-.171.216a2.635,2.635,0,0,1,.606-.246,2.682,2.682,0,0,1,.708-.09,2.85,2.85,0,0,1,.966.165,2.327,2.327,0,0,1,.813.492,2.4,2.4,0,0,1,.561.81,2.769,2.769,0,0,1,.21,1.113,2.87,2.87,0,0,1-.219,1.122,2.738,2.738,0,0,1-.615.909,2.9,2.9,0,0,1-.951.612,3.237,3.237,0,0,1-1.227.225,3.239,3.239,0,0,1-1.212-.216,2.619,2.619,0,0,1-.921-.609,2.666,2.666,0,0,1-.585-.945,3.526,3.526,0,0,1-.2-1.23,3.363,3.363,0,0,1,.252-1.23,5.9,5.9,0,0,1,.78-1.35l2.124-2.85a.769.769,0,0,1,.279-.216.919.919,0,0,1,.411-.09h1.14Zm5.328,5.454a.785.785,0,0,1-.318-.063.756.756,0,0,1-.249-.174.777.777,0,0,1-.162-.261.922.922,0,0,1-.057-.33.762.762,0,0,1,.057-.294.707.707,0,0,1,.162-.24.741.741,0,0,1,.252-.159.881.881,0,0,1,.321-.057.821.821,0,0,1,.36.075.751.751,0,0,1,.261.2.858.858,0,0,1,.156.3,1.264,1.264,0,0,1,.051.363,2.276,2.276,0,0,1-.081.582,2.916,2.916,0,0,1-.24.609,3.675,3.675,0,0,1-.39.591,3.54,3.54,0,0,1-.525.528l-.222-.2a.361.361,0,0,1-.069-.09A.242.242,0,0,1-23,21.266a.257.257,0,0,1,.1-.192l.156-.174a2.636,2.636,0,0,0,.192-.246,2.233,2.233,0,0,0,.177-.306,1.443,1.443,0,0,0,.117-.354Zm3.714-5.442a5.849,5.849,0,0,1,.6-.1,5.248,5.248,0,0,1,.549-.03,3.3,3.3,0,0,1,1.2.2,2.453,2.453,0,0,1,.87.555,2.3,2.3,0,0,1,.528.831,2.952,2.952,0,0,1,.177,1.035,3.171,3.171,0,0,1-.24,1.254,2.807,2.807,0,0,1-.666.963,2.971,2.971,0,0,1-1.005.615,3.551,3.551,0,0,1-1.251.216,3.52,3.52,0,0,1-.753-.078,3.634,3.634,0,0,1-.669-.213,3.6,3.6,0,0,1-.576-.312,4.011,4.011,0,0,1-.474-.369l.4-.552a.391.391,0,0,1,.336-.18.558.558,0,0,1,.288.1q.156.1.363.207a3.269,3.269,0,0,0,.489.207,2.093,2.093,0,0,0,.672.1,1.991,1.991,0,0,0,.762-.138,1.58,1.58,0,0,0,.567-.387,1.662,1.662,0,0,0,.351-.6,2.324,2.324,0,0,0,.12-.762,1.944,1.944,0,0,0-.111-.678,1.339,1.339,0,0,0-.33-.51,1.445,1.445,0,0,0-.549-.321,2.389,2.389,0,0,0-.762-.111,4.064,4.064,0,0,0-.651.054,4.322,4.322,0,0,0-.675.168l-.8-.228.708-4.128h4.182v.558a.609.609,0,0,1-.174.45.8.8,0,0,1-.582.174h-2.532Zm6.96,0a5.849,5.849,0,0,1,.6-.1,5.248,5.248,0,0,1,.549-.03,3.3,3.3,0,0,1,1.2.2,2.453,2.453,0,0,1,.87.555,2.3,2.3,0,0,1,.528.831,2.952,2.952,0,0,1,.177,1.035,3.172,3.172,0,0,1-.24,1.254,2.807,2.807,0,0,1-.666.963A2.971,2.971,0,0,1-9.6,19.88a3.551,3.551,0,0,1-1.251.216,3.52,3.52,0,0,1-.753-.078,3.634,3.634,0,0,1-.669-.213,3.6,3.6,0,0,1-.576-.312,4.011,4.011,0,0,1-.474-.369l.4-.552a.391.391,0,0,1,.336-.18.558.558,0,0,1,.288.1q.156.1.363.207a3.269,3.269,0,0,0,.489.207,2.093,2.093,0,0,0,.672.1,1.991,1.991,0,0,0,.762-.138,1.58,1.58,0,0,0,.567-.387,1.662,1.662,0,0,0,.351-.6,2.324,2.324,0,0,0,.12-.762,1.944,1.944,0,0,0-.111-.678,1.339,1.339,0,0,0-.33-.51,1.445,1.445,0,0,0-.549-.321,2.389,2.389,0,0,0-.762-.111,4.064,4.064,0,0,0-.651.054,4.322,4.322,0,0,0-.675.168l-.8-.228.708-4.128h4.182v.558a.609.609,0,0,1-.174.45.8.8,0,0,1-.582.174h-2.532Zm6.96,0a5.849,5.849,0,0,1,.6-.1,5.248,5.248,0,0,1,.549-.03,3.3,3.3,0,0,1,1.2.2,2.453,2.453,0,0,1,.87.555,2.3,2.3,0,0,1,.528.831,2.952,2.952,0,0,1,.177,1.035A3.172,3.172,0,0,1-.972,18.3a2.807,2.807,0,0,1-.666.963,2.971,2.971,0,0,1-1.005.615,3.551,3.551,0,0,1-1.251.216,3.52,3.52,0,0,1-.753-.078,3.634,3.634,0,0,1-.669-.213,3.6,3.6,0,0,1-.576-.312,4.011,4.011,0,0,1-.474-.369l.4-.552a.391.391,0,0,1,.336-.18.558.558,0,0,1,.288.1q.156.1.363.207a3.269,3.269,0,0,0,.489.207,2.093,2.093,0,0,0,.672.1,1.991,1.991,0,0,0,.762-.138,1.58,1.58,0,0,0,.567-.387,1.662,1.662,0,0,0,.351-.6,2.324,2.324,0,0,0,.12-.762,1.944,1.944,0,0,0-.111-.678,1.339,1.339,0,0,0-.33-.51,1.445,1.445,0,0,0-.549-.321,2.389,2.389,0,0,0-.762-.111,4.064,4.064,0,0,0-.651.054,4.322,4.322,0,0,0-.675.168l-.8-.228L-5.2,11.36h4.182v.558a.609.609,0,0,1-.174.45.8.8,0,0,1-.582.174H-4.3ZM-31.4,39.022V40h-4.71v-.978h1.8V33.61q0-.288.018-.588l-1.386,1.17a.455.455,0,0,1-.183.093.4.4,0,0,1-.174,0,.461.461,0,0,1-.144-.057.355.355,0,0,1-.1-.087l-.4-.564,2.6-2.238h1.05v7.68Zm1.506-5.286a3.242,3.242,0,0,1,.339-1.074,2.535,2.535,0,0,1,.627-.771,2.65,2.65,0,0,1,.867-.468,3.406,3.406,0,0,1,1.059-.159,3.15,3.15,0,0,1,1.047.165,2.465,2.465,0,0,1,.81.459,2,2,0,0,1,.522.7,2.159,2.159,0,0,1,.183.894,2.435,2.435,0,0,1-.1.729,1.793,1.793,0,0,1-.282.555,1.625,1.625,0,0,1-.447.4,2.791,2.791,0,0,1-.594.27,2.288,2.288,0,0,1,1.206.747,2.023,2.023,0,0,1,.4,1.287,2.528,2.528,0,0,1-.234,1.11,2.449,2.449,0,0,1-.633.822,2.8,2.8,0,0,1-.93.513,3.534,3.534,0,0,1-1.125.177,3.719,3.719,0,0,1-1.152-.159,2.467,2.467,0,0,1-.837-.456,2.563,2.563,0,0,1-.585-.717,4.938,4.938,0,0,1-.4-.942l.558-.234a.693.693,0,0,1,.423-.054.4.4,0,0,1,.291.222q.1.192.216.411a1.686,1.686,0,0,0,.309.4,1.582,1.582,0,0,0,.468.306A1.7,1.7,0,0,0-27.2,39a1.794,1.794,0,0,0,.723-.135,1.6,1.6,0,0,0,.516-.348,1.408,1.408,0,0,0,.309-.477,1.441,1.441,0,0,0,.1-.522,2.167,2.167,0,0,0-.078-.6.941.941,0,0,0-.3-.465,1.626,1.626,0,0,0-.636-.3,4.256,4.256,0,0,0-1.077-.111v-.93A3.612,3.612,0,0,0-26.721,35a1.645,1.645,0,0,0,.6-.288,1.044,1.044,0,0,0,.324-.441,1.562,1.562,0,0,0,.1-.564,1.543,1.543,0,0,0-.1-.582,1.17,1.17,0,0,0-.285-.423,1.17,1.17,0,0,0-.435-.255,1.757,1.757,0,0,0-.558-.084,1.689,1.689,0,0,0-.543.084,1.517,1.517,0,0,0-.444.234,1.39,1.39,0,0,0-.327.357,1.5,1.5,0,0,0-.192.453.585.585,0,0,1-.225.33.6.6,0,0,1-.411.036Zm7.614,6.258a.785.785,0,0,1-.318-.063.756.756,0,0,1-.249-.174.777.777,0,0,1-.162-.261.922.922,0,0,1-.057-.33.762.762,0,0,1,.057-.294.707.707,0,0,1,.162-.24.741.741,0,0,1,.252-.159.881.881,0,0,1,.321-.057.821.821,0,0,1,.36.075.751.751,0,0,1,.261.2.858.858,0,0,1,.156.3,1.264,1.264,0,0,1,.051.363,2.276,2.276,0,0,1-.081.582,2.916,2.916,0,0,1-.24.609,3.675,3.675,0,0,1-.39.591,3.54,3.54,0,0,1-.525.528l-.222-.2a.361.361,0,0,1-.069-.09A.242.242,0,0,1-23,41.266a.257.257,0,0,1,.1-.192l.156-.174a2.637,2.637,0,0,0,.192-.246,2.233,2.233,0,0,0,.177-.306,1.443,1.443,0,0,0,.117-.354Zm4.872-.966A1.914,1.914,0,0,0-16.7,38.9a1.646,1.646,0,0,0,.555-.357,1.581,1.581,0,0,0,.357-.54,1.794,1.794,0,0,0,.126-.678,1.942,1.942,0,0,0-.123-.711,1.461,1.461,0,0,0-.348-.531,1.546,1.546,0,0,0-.54-.333,1.976,1.976,0,0,0-.693-.117,1.808,1.808,0,0,0-.7.132,1.6,1.6,0,0,0-.537.36,1.587,1.587,0,0,0-.342.534,1.759,1.759,0,0,0-.12.648,2.172,2.172,0,0,0,.108.7,1.482,1.482,0,0,0,.318.543,1.444,1.444,0,0,0,.519.351A1.872,1.872,0,0,0-17.412,39.028Zm-.474-4.488-.183.228q-.087.108-.171.216a2.635,2.635,0,0,1,.606-.246,2.682,2.682,0,0,1,.708-.09,2.85,2.85,0,0,1,.966.165,2.327,2.327,0,0,1,.813.492,2.4,2.4,0,0,1,.561.81,2.769,2.769,0,0,1,.21,1.113,2.87,2.87,0,0,1-.219,1.122,2.737,2.737,0,0,1-.615.909,2.9,2.9,0,0,1-.951.612,3.237,3.237,0,0,1-1.227.225A3.239,3.239,0,0,1-18.6,39.88a2.619,2.619,0,0,1-.921-.609,2.666,2.666,0,0,1-.585-.945,3.526,3.526,0,0,1-.2-1.23,3.363,3.363,0,0,1,.252-1.23,5.9,5.9,0,0,1,.78-1.35l2.124-2.85a.769.769,0,0,1,.279-.216.919.919,0,0,1,.411-.09h1.14Zm9.87,4.242a.44.44,0,0,1,.33.123.432.432,0,0,1,.12.315V40H-13.41v-.438a.785.785,0,0,1,.054-.276.74.74,0,0,1,.174-.264l2.688-2.694q.342-.342.609-.654a4.746,4.746,0,0,0,.456-.624,2.833,2.833,0,0,0,.288-.633,2.277,2.277,0,0,0,.1-.675,1.607,1.607,0,0,0-.1-.6,1.187,1.187,0,0,0-.288-.432,1.2,1.2,0,0,0-.438-.258,1.728,1.728,0,0,0-.561-.087,1.689,1.689,0,0,0-.543.084,1.517,1.517,0,0,0-.444.234,1.344,1.344,0,0,0-.324.357,1.54,1.54,0,0,0-.189.453.61.61,0,0,1-.231.33.6.6,0,0,1-.411.036l-.678-.12a3.242,3.242,0,0,1,.339-1.074,2.535,2.535,0,0,1,.627-.771,2.65,2.65,0,0,1,.867-.468,3.406,3.406,0,0,1,1.059-.159,3.153,3.153,0,0,1,1.059.171,2.463,2.463,0,0,1,.834.486,2.209,2.209,0,0,1,.549.765,2.493,2.493,0,0,1,.2,1.014,2.7,2.7,0,0,1-.141.888,3.61,3.61,0,0,1-.381.78,5.455,5.455,0,0,1-.561.723q-.321.351-.675.711l-2.088,2.136a4.718,4.718,0,0,1,.519-.114,3.121,3.121,0,0,1,.495-.042Zm2.9-4.854A1.6,1.6,0,0,0-4.7,35.107a1.553,1.553,0,0,0,1.149.411,1.809,1.809,0,0,0,.7-.126,1.541,1.541,0,0,0,.513-.339,1.415,1.415,0,0,0,.318-.5,1.7,1.7,0,0,0,.108-.609,1.83,1.83,0,0,0-.117-.675,1.446,1.446,0,0,0-.33-.507,1.434,1.434,0,0,0-.507-.321,1.8,1.8,0,0,0-.642-.111,1.732,1.732,0,0,0-.66.12,1.488,1.488,0,0,0-.5.333,1.475,1.475,0,0,0-.324.5A1.737,1.737,0,0,0-5.112,33.928ZM-2.9,36.61q.12-.15.222-.285t.192-.273a2.4,2.4,0,0,1-.7.339A2.785,2.785,0,0,1-4,36.508a2.585,2.585,0,0,1-.9-.159,2.246,2.246,0,0,1-.768-.474A2.308,2.308,0,0,1-6.2,35.1a2.678,2.678,0,0,1-.2-1.071,2.73,2.73,0,0,1,.213-1.074,2.665,2.665,0,0,1,.6-.879,2.8,2.8,0,0,1,.918-.591,3.125,3.125,0,0,1,1.182-.216,3.133,3.133,0,0,1,1.164.207,2.521,2.521,0,0,1,.888.582,2.579,2.579,0,0,1,.564.894,3.182,3.182,0,0,1,.2,1.143,3.79,3.79,0,0,1-.069.738,3.905,3.905,0,0,1-.2.675,4.74,4.74,0,0,1-.312.642q-.183.315-.411.639L-3.7,39.7a.65.65,0,0,1-.267.216.919.919,0,0,1-.4.084H-5.55ZM-28.3,54.552a5.849,5.849,0,0,1,.6-.1,5.248,5.248,0,0,1,.549-.03,3.3,3.3,0,0,1,1.2.2,2.453,2.453,0,0,1,.87.555,2.3,2.3,0,0,1,.528.831,2.952,2.952,0,0,1,.177,1.035,3.171,3.171,0,0,1-.24,1.254,2.807,2.807,0,0,1-.666.963,2.971,2.971,0,0,1-1.005.615,3.551,3.551,0,0,1-1.251.216,3.52,3.52,0,0,1-.753-.078,3.634,3.634,0,0,1-.669-.213,3.6,3.6,0,0,1-.576-.312,4.011,4.011,0,0,1-.474-.369l.4-.552a.391.391,0,0,1,.336-.18.558.558,0,0,1,.288.1q.156.1.363.207a3.269,3.269,0,0,0,.489.207,2.093,2.093,0,0,0,.672.1,1.991,1.991,0,0,0,.762-.138,1.58,1.58,0,0,0,.567-.387,1.662,1.662,0,0,0,.351-.6,2.324,2.324,0,0,0,.12-.762,1.944,1.944,0,0,0-.111-.678,1.339,1.339,0,0,0-.33-.51,1.445,1.445,0,0,0-.549-.321,2.389,2.389,0,0,0-.762-.111,4.064,4.064,0,0,0-.651.054,4.322,4.322,0,0,0-.675.168l-.8-.228.708-4.128h4.182v.558a.609.609,0,0,1-.174.45.8.8,0,0,1-.582.174h-2.532Zm6.012,5.442a.785.785,0,0,1-.318-.063.756.756,0,0,1-.249-.174.777.777,0,0,1-.162-.261.922.922,0,0,1-.057-.33.762.762,0,0,1,.057-.294.707.707,0,0,1,.162-.24.741.741,0,0,1,.252-.159.881.881,0,0,1,.321-.057.821.821,0,0,1,.36.075.751.751,0,0,1,.261.2.858.858,0,0,1,.156.3,1.264,1.264,0,0,1,.051.363,2.276,2.276,0,0,1-.081.582,2.916,2.916,0,0,1-.24.609,3.675,3.675,0,0,1-.39.591,3.54,3.54,0,0,1-.525.528l-.222-.2a.361.361,0,0,1-.069-.09A.242.242,0,0,1-23,61.266a.257.257,0,0,1,.1-.192l.156-.174a2.637,2.637,0,0,0,.192-.246,2.233,2.233,0,0,0,.177-.306,1.443,1.443,0,0,0,.117-.354Zm5.73-3.186V53.652a6.989,6.989,0,0,1,.054-.828l-2.9,3.984Zm2.316,0v.744a.271.271,0,0,1-.069.186.262.262,0,0,1-.207.078h-.918V60h-1.122V57.816h-3.738a.362.362,0,0,1-.237-.081.37.37,0,0,1-.129-.2l-.132-.66,4.146-5.52h1.212v5.454Zm3.8,2.268a2.033,2.033,0,0,0,.7-.111,1.419,1.419,0,0,0,.513-.312,1.334,1.334,0,0,0,.315-.477,1.632,1.632,0,0,0,.108-.6,1.734,1.734,0,0,0-.123-.684,1.286,1.286,0,0,0-.342-.477,1.433,1.433,0,0,0-.519-.282,2.178,2.178,0,0,0-.648-.093,2.178,2.178,0,0,0-.648.093,1.433,1.433,0,0,0-.519.282,1.286,1.286,0,0,0-.342.477,1.734,1.734,0,0,0-.123.684,1.632,1.632,0,0,0,.108.6,1.334,1.334,0,0,0,.315.477,1.419,1.419,0,0,0,.513.312A2.033,2.033,0,0,0-10.44,59.076Zm0-6.822a1.648,1.648,0,0,0-.621.108,1.26,1.26,0,0,0-.441.288,1.166,1.166,0,0,0-.261.423,1.51,1.51,0,0,0-.087.513,1.882,1.882,0,0,0,.075.528,1.277,1.277,0,0,0,.24.459,1.161,1.161,0,0,0,.435.321,1.622,1.622,0,0,0,.66.12,1.622,1.622,0,0,0,.66-.12,1.161,1.161,0,0,0,.435-.321,1.277,1.277,0,0,0,.24-.459,1.882,1.882,0,0,0,.075-.528,1.51,1.51,0,0,0-.087-.513,1.147,1.147,0,0,0-.264-.423,1.3,1.3,0,0,0-.441-.288A1.625,1.625,0,0,0-10.44,52.254Zm1.362,3.24a2.272,2.272,0,0,1,1.2.78,2.153,2.153,0,0,1,.4,1.326A2.407,2.407,0,0,1-7.7,58.632a2.246,2.246,0,0,1-.606.786,2.8,2.8,0,0,1-.933.5,3.866,3.866,0,0,1-1.2.177,3.866,3.866,0,0,1-1.2-.177,2.8,2.8,0,0,1-.933-.5,2.246,2.246,0,0,1-.606-.786A2.407,2.407,0,0,1-13.4,57.6a2.153,2.153,0,0,1,.4-1.326,2.272,2.272,0,0,1,1.2-.78,2.028,2.028,0,0,1-.975-.75,2.086,2.086,0,0,1-.327-1.182,2.153,2.153,0,0,1,.192-.906,2.156,2.156,0,0,1,.543-.729,2.583,2.583,0,0,1,.843-.486,3.188,3.188,0,0,1,1.086-.177,3.163,3.163,0,0,1,1.083.177,2.589,2.589,0,0,1,.84.486,2.191,2.191,0,0,1,.546.729,2.125,2.125,0,0,1,.195.906A2.086,2.086,0,0,1-8.1,54.744,2.028,2.028,0,0,1-9.078,55.494Zm4.428-.942a5.849,5.849,0,0,1,.6-.1,5.248,5.248,0,0,1,.549-.03,3.3,3.3,0,0,1,1.2.2,2.453,2.453,0,0,1,.87.555,2.3,2.3,0,0,1,.528.831,2.952,2.952,0,0,1,.177,1.035A3.171,3.171,0,0,1-.972,58.3a2.807,2.807,0,0,1-.666.963,2.971,2.971,0,0,1-1.005.615,3.551,3.551,0,0,1-1.251.216,3.52,3.52,0,0,1-.753-.078,3.634,3.634,0,0,1-.669-.213,3.6,3.6,0,0,1-.576-.312,4.011,4.011,0,0,1-.474-.369l.4-.552a.391.391,0,0,1,.336-.18.558.558,0,0,1,.288.1q.156.1.363.207a3.268,3.268,0,0,0,.489.207,2.093,2.093,0,0,0,.672.1,1.991,1.991,0,0,0,.762-.138,1.58,1.58,0,0,0,.567-.387,1.662,1.662,0,0,0,.351-.6,2.324,2.324,0,0,0,.12-.762,1.944,1.944,0,0,0-.111-.678,1.339,1.339,0,0,0-.33-.51,1.445,1.445,0,0,0-.549-.321,2.389,2.389,0,0,0-.762-.111,4.064,4.064,0,0,0-.651.054,4.322,4.322,0,0,0-.675.168l-.8-.228L-5.2,51.36h4.182v.558a.609.609,0,0,1-.174.45.8.8,0,0,1-.582.174H-4.3Zm-33.714,24.47V80h-4.71v-.978h1.8V73.61q0-.288.018-.588l-1.386,1.17a.455.455,0,0,1-.183.093.4.4,0,0,1-.174,0,.462.462,0,0,1-.144-.057.355.355,0,0,1-.1-.087l-.4-.564,2.6-2.238h1.05v7.68Zm3.108-4.47a5.848,5.848,0,0,1,.6-.1,5.249,5.249,0,0,1,.549-.03,3.3,3.3,0,0,1,1.2.2,2.453,2.453,0,0,1,.87.555,2.3,2.3,0,0,1,.528.831,2.952,2.952,0,0,1,.177,1.035,3.172,3.172,0,0,1-.24,1.254,2.807,2.807,0,0,1-.666.963,2.971,2.971,0,0,1-1,.615A3.551,3.551,0,0,1-34.5,80.1a3.52,3.52,0,0,1-.753-.078,3.633,3.633,0,0,1-.669-.213,3.6,3.6,0,0,1-.576-.312,4.011,4.011,0,0,1-.474-.369l.4-.552a.391.391,0,0,1,.336-.18.558.558,0,0,1,.288.1q.156.1.363.207a3.269,3.269,0,0,0,.489.207,2.093,2.093,0,0,0,.672.1,1.991,1.991,0,0,0,.762-.138,1.58,1.58,0,0,0,.567-.387,1.662,1.662,0,0,0,.351-.6,2.324,2.324,0,0,0,.12-.762,1.944,1.944,0,0,0-.111-.678,1.339,1.339,0,0,0-.33-.51,1.445,1.445,0,0,0-.549-.321,2.389,2.389,0,0,0-.762-.111,4.064,4.064,0,0,0-.651.054,4.322,4.322,0,0,0-.675.168l-.8-.228.708-4.128h4.182v.558a.609.609,0,0,1-.174.45.8.8,0,0,1-.582.174h-2.532Zm10.554,4.23a.44.44,0,0,1,.33.123.432.432,0,0,1,.12.315V80H-30.1v-.438a.785.785,0,0,1,.054-.276.74.74,0,0,1,.174-.264l2.688-2.694q.342-.342.609-.654a4.746,4.746,0,0,0,.456-.624,2.833,2.833,0,0,0,.288-.633,2.277,2.277,0,0,0,.1-.675,1.607,1.607,0,0,0-.1-.6,1.187,1.187,0,0,0-.288-.432,1.2,1.2,0,0,0-.438-.258,1.728,1.728,0,0,0-.561-.087,1.689,1.689,0,0,0-.543.084,1.517,1.517,0,0,0-.444.234,1.344,1.344,0,0,0-.324.357,1.54,1.54,0,0,0-.189.453.61.61,0,0,1-.231.33.6.6,0,0,1-.411.036l-.678-.12a3.242,3.242,0,0,1,.339-1.074,2.535,2.535,0,0,1,.627-.771,2.65,2.65,0,0,1,.867-.468,3.406,3.406,0,0,1,1.059-.159,3.153,3.153,0,0,1,1.059.171,2.464,2.464,0,0,1,.834.486,2.209,2.209,0,0,1,.549.765,2.493,2.493,0,0,1,.2,1.014,2.7,2.7,0,0,1-.141.888,3.61,3.61,0,0,1-.381.78,5.455,5.455,0,0,1-.561.723q-.321.351-.675.711l-2.088,2.136a4.717,4.717,0,0,1,.519-.114,3.121,3.121,0,0,1,.495-.042Zm2.418,1.212a.785.785,0,0,1-.318-.063.756.756,0,0,1-.249-.174.777.777,0,0,1-.162-.261.922.922,0,0,1-.057-.33.762.762,0,0,1,.057-.294.707.707,0,0,1,.162-.24.741.741,0,0,1,.252-.159.88.88,0,0,1,.321-.057.822.822,0,0,1,.36.075.751.751,0,0,1,.261.2.858.858,0,0,1,.156.3,1.264,1.264,0,0,1,.051.363,2.276,2.276,0,0,1-.081.582,2.916,2.916,0,0,1-.24.609,3.675,3.675,0,0,1-.39.591,3.54,3.54,0,0,1-.525.528l-.222-.2a.361.361,0,0,1-.069-.09A.242.242,0,0,1-23,81.266a.257.257,0,0,1,.1-.192l.156-.174a2.636,2.636,0,0,0,.192-.246,2.233,2.233,0,0,0,.177-.306,1.443,1.443,0,0,0,.117-.354Zm7.308-1.212a.44.44,0,0,1,.33.123.432.432,0,0,1,.12.315V80H-20.37v-.438a.785.785,0,0,1,.054-.276.74.74,0,0,1,.174-.264l2.688-2.694q.342-.342.609-.654a4.746,4.746,0,0,0,.456-.624,2.833,2.833,0,0,0,.288-.633,2.277,2.277,0,0,0,.1-.675,1.607,1.607,0,0,0-.1-.6,1.187,1.187,0,0,0-.288-.432,1.2,1.2,0,0,0-.438-.258,1.728,1.728,0,0,0-.561-.087,1.689,1.689,0,0,0-.543.084,1.517,1.517,0,0,0-.444.234,1.344,1.344,0,0,0-.324.357,1.54,1.54,0,0,0-.189.453.61.61,0,0,1-.231.33.6.6,0,0,1-.411.036l-.678-.12a3.242,3.242,0,0,1,.339-1.074,2.535,2.535,0,0,1,.627-.771,2.65,2.65,0,0,1,.867-.468,3.406,3.406,0,0,1,1.059-.159,3.153,3.153,0,0,1,1.059.171,2.464,2.464,0,0,1,.834.486,2.209,2.209,0,0,1,.549.765,2.493,2.493,0,0,1,.2,1.014,2.7,2.7,0,0,1-.141.888,3.61,3.61,0,0,1-.381.78,5.455,5.455,0,0,1-.561.723q-.321.351-.675.711l-2.088,2.136a4.717,4.717,0,0,1,.519-.114,3.121,3.121,0,0,1,.495-.042ZM-7.4,71.36v.57a1.274,1.274,0,0,1-.054.408,2.227,2.227,0,0,1-.108.264l-3.414,6.948a.871.871,0,0,1-.255.321.686.686,0,0,1-.435.129h-.93l3.48-6.834q.1-.186.192-.336a2.458,2.458,0,0,1,.216-.288H-13.02a.283.283,0,0,1-.21-.093.3.3,0,0,1-.09-.213V71.36Zm3.906,7.668a1.914,1.914,0,0,0,.714-.129,1.646,1.646,0,0,0,.555-.357A1.581,1.581,0,0,0-1.866,78a1.794,1.794,0,0,0,.126-.678,1.942,1.942,0,0,0-.123-.711,1.461,1.461,0,0,0-.348-.531,1.546,1.546,0,0,0-.54-.333,1.976,1.976,0,0,0-.693-.117,1.808,1.808,0,0,0-.705.132,1.6,1.6,0,0,0-.537.36,1.587,1.587,0,0,0-.342.534,1.759,1.759,0,0,0-.12.648,2.172,2.172,0,0,0,.108.7,1.483,1.483,0,0,0,.318.543A1.444,1.444,0,0,0-4.2,78.9,1.872,1.872,0,0,0-3.492,79.028Zm-.474-4.488-.183.228q-.087.108-.171.216a2.635,2.635,0,0,1,.606-.246,2.682,2.682,0,0,1,.708-.09,2.85,2.85,0,0,1,.966.165,2.327,2.327,0,0,1,.813.492,2.4,2.4,0,0,1,.561.81,2.769,2.769,0,0,1,.21,1.113A2.87,2.87,0,0,1-.675,78.35a2.738,2.738,0,0,1-.615.909,2.9,2.9,0,0,1-.951.612,3.237,3.237,0,0,1-1.227.225A3.239,3.239,0,0,1-4.68,79.88a2.619,2.619,0,0,1-.921-.609,2.666,2.666,0,0,1-.585-.945,3.526,3.526,0,0,1-.2-1.23,3.363,3.363,0,0,1,.252-1.23,5.9,5.9,0,0,1,.78-1.35l2.124-2.85a.769.769,0,0,1,.279-.216.919.919,0,0,1,.411-.09H-1.4Z" transform="translate(1488 2104)"/><path d="M-3.012-2.162V-5.818H-5.678V-7.055h2.666v-3.193H-1.57v8.086ZM-5.051-9.516q-.48,4.184-5.062,6.322l-1.008-1.055A7.545,7.545,0,0,0-8.517-5.8,5.182,5.182,0,0,0-6.838-8.279h-3.639V-9.516ZM-8.865.662v-3.8h1.471V-.574h6.041V.662Zm5.854,17.176V14.182H-5.678V12.945h2.666V9.752H-1.57v8.086Zm-2.039-7.354q-.48,4.184-5.062,6.322l-1.008-1.055a7.545,7.545,0,0,0,2.6-1.553,5.182,5.182,0,0,0,1.679-2.479h-3.639V10.484ZM-8.865,20.662v-3.8h1.471v2.561h6.041v1.236Zm5.854,17.176V34.182H-5.678V32.945h2.666V29.752H-1.57v8.086Zm-2.039-7.354q-.48,4.184-5.062,6.322l-1.008-1.055a7.545,7.545,0,0,0,2.6-1.553,5.182,5.182,0,0,0,1.679-2.479h-3.639V30.484ZM-8.865,40.662v-3.8h1.471v2.561h6.041v1.236Zm5.854,17.176V54.182H-5.678V52.945h2.666V49.752H-1.57v8.086Zm-2.039-7.354q-.48,4.184-5.062,6.322l-1.008-1.055a7.545,7.545,0,0,0,2.6-1.553,5.182,5.182,0,0,0,1.679-2.479h-3.639V50.484ZM-8.865,60.662v-3.8h1.471v2.561h6.041v1.236Zm5.854,17.176V74.182H-5.678V72.945h2.666V69.752H-1.57v8.086Zm-2.039-7.354q-.48,4.184-5.062,6.322l-1.008-1.055a7.545,7.545,0,0,0,2.6-1.553,5.182,5.182,0,0,0,1.679-2.479h-3.639V70.484ZM-8.865,80.662v-3.8h1.471v2.561h6.041v1.236Z" transform="translate(1507 2104)" fill="#4d4d4d"/><g transform="translate(1303 2092)" fill="#e17ee1"><path d="M 7 13.80000019073486 C 3.250469923019409 13.80000019073486 0.2000000029802322 10.74952983856201 0.2000000029802322 7 C 0.2000000029802322 3.250469923019409 3.250469923019409 0.2000000029802322 7 0.2000000029802322 C 10.74952983856201 0.2000000029802322 13.80000019073486 3.250469923019409 13.80000019073486 7 C 13.80000019073486 10.74952983856201 10.74952983856201 13.80000019073486 7 13.80000019073486 Z" stroke="none"/><path d="M 7 0.3999996185302734 C 3.360750198364258 0.3999996185302734 0.3999996185302734 3.360750198364258 0.3999996185302734 7 C 0.3999996185302734 10.63924980163574 3.360750198364258 13.60000038146973 7 13.60000038146973 C 10.63924980163574 13.60000038146973 13.60000038146973 10.63924980163574 13.60000038146973 7 C 13.60000038146973 3.360750198364258 10.63924980163574 0.3999996185302734 7 0.3999996185302734 M 7 0 C 10.86598968505859 0 14 3.134010314941406 14 7 C 14 10.86598968505859 10.86598968505859 14 7 14 C 3.134010314941406 14 0 10.86598968505859 0 7 C 0 3.134010314941406 3.134010314941406 0 7 0 Z" stroke="none" fill="#edeeef"/></g><g transform="translate(1303 2112)" fill="#de5c1b"><path d="M 7 13.80000019073486 C 3.250469923019409 13.80000019073486 0.2000000029802322 10.74952983856201 0.2000000029802322 7 C 0.2000000029802322 3.250469923019409 3.250469923019409 0.2000000029802322 7 0.2000000029802322 C 10.74952983856201 0.2000000029802322 13.80000019073486 3.250469923019409 13.80000019073486 7 C 13.80000019073486 10.74952983856201 10.74952983856201 13.80000019073486 7 13.80000019073486 Z" stroke="none"/><path d="M 7 0.3999996185302734 C 3.360750198364258 0.3999996185302734 0.3999996185302734 3.360750198364258 0.3999996185302734 7 C 0.3999996185302734 10.63924980163574 3.360750198364258 13.60000038146973 7 13.60000038146973 C 10.63924980163574 13.60000038146973 13.60000038146973 10.63924980163574 13.60000038146973 7 C 13.60000038146973 3.360750198364258 10.63924980163574 0.3999996185302734 7 0.3999996185302734 M 7 0 C 10.86598968505859 0 14 3.134010314941406 14 7 C 14 10.86598968505859 10.86598968505859 14 7 14 C 3.134010314941406 14 0 10.86598968505859 0 7 C 0 3.134010314941406 3.134010314941406 0 7 0 Z" stroke="none" fill="#edeeef"/></g><g transform="translate(1303 2132)" fill="#9a360f"><path d="M 7 13.80000019073486 C 3.250469923019409 13.80000019073486 0.2000000029802322 10.74952983856201 0.2000000029802322 7 C 0.2000000029802322 3.250469923019409 3.250469923019409 0.2000000029802322 7 0.2000000029802322 C 10.74952983856201 0.2000000029802322 13.80000019073486 3.250469923019409 13.80000019073486 7 C 13.80000019073486 10.74952983856201 10.74952983856201 13.80000019073486 7 13.80000019073486 Z" stroke="none"/><path d="M 7 0.3999996185302734 C 3.360750198364258 0.3999996185302734 0.3999996185302734 3.360750198364258 0.3999996185302734 7 C 0.3999996185302734 10.63924980163574 3.360750198364258 13.60000038146973 7 13.60000038146973 C 10.63924980163574 13.60000038146973 13.60000038146973 10.63924980163574 13.60000038146973 7 C 13.60000038146973 3.360750198364258 10.63924980163574 0.3999996185302734 7 0.3999996185302734 M 7 0 C 10.86598968505859 0 14 3.134010314941406 14 7 C 14 10.86598968505859 10.86598968505859 14 7 14 C 3.134010314941406 14 0 10.86598968505859 0 7 C 0 3.134010314941406 3.134010314941406 0 7 0 Z" stroke="none" fill="#edeeef"/></g><g transform="translate(1303 2152)" fill="#9d36d7"><path d="M 7 13.80000019073486 C 3.250469923019409 13.80000019073486 0.2000000029802322 10.74952983856201 0.2000000029802322 7 C 0.2000000029802322 3.250469923019409 3.250469923019409 0.2000000029802322 7 0.2000000029802322 C 10.74952983856201 0.2000000029802322 13.80000019073486 3.250469923019409 13.80000019073486 7 C 13.80000019073486 10.74952983856201 10.74952983856201 13.80000019073486 7 13.80000019073486 Z" stroke="none"/><path d="M 7 0.3999996185302734 C 3.360750198364258 0.3999996185302734 0.3999996185302734 3.360750198364258 0.3999996185302734 7 C 0.3999996185302734 10.63924980163574 3.360750198364258 13.60000038146973 7 13.60000038146973 C 10.63924980163574 13.60000038146973 13.60000038146973 10.63924980163574 13.60000038146973 7 C 13.60000038146973 3.360750198364258 10.63924980163574 0.3999996185302734 7 0.3999996185302734 M 7 0 C 10.86598968505859 0 14 3.134010314941406 14 7 C 14 10.86598968505859 10.86598968505859 14 7 14 C 3.134010314941406 14 0 10.86598968505859 0 7 C 0 3.134010314941406 3.134010314941406 0 7 0 Z" stroke="none" fill="#edeeef"/></g><g transform="translate(1303 2172)" fill="#fff"><path d="M 7 13.80000019073486 C 3.250469923019409 13.80000019073486 0.2000000029802322 10.74952983856201 0.2000000029802322 7 C 0.2000000029802322 3.250469923019409 3.250469923019409 0.2000000029802322 7 0.2000000029802322 C 10.74952983856201 0.2000000029802322 13.80000019073486 3.250469923019409 13.80000019073486 7 C 13.80000019073486 10.74952983856201 10.74952983856201 13.80000019073486 7 13.80000019073486 Z" stroke="none"/><path d="M 7 0.3999996185302734 C 3.360750198364258 0.3999996185302734 0.3999996185302734 3.360750198364258 0.3999996185302734 7 C 0.3999996185302734 10.63924980163574 3.360750198364258 13.60000038146973 7 13.60000038146973 C 10.63924980163574 13.60000038146973 13.60000038146973 10.63924980163574 13.60000038146973 7 C 13.60000038146973 3.360750198364258 10.63924980163574 0.3999996185302734 7 0.3999996185302734 M 7 0 C 10.86598968505859 0 14 3.134010314941406 14 7 C 14 10.86598968505859 10.86598968505859 14 7 14 C 3.134010314941406 14 0 10.86598968505859 0 7 C 0 3.134010314941406 3.134010314941406 0 7 0 Z" stroke="none" fill="#c7c7c7"/></g></g></svg>