<svg id="대장암" xmlns="http://www.w3.org/2000/svg" xmlns:xlink="http://www.w3.org/1999/xlink" width="70" height="70" viewBox="0 0 70 70">
  <defs>
    <clipPath id="clip-path">
      <rect id="사각형_149769" data-name="사각형 149769" width="70" height="70" transform="translate(1318 1248)" fill="#fff" stroke="#707070" stroke-width="1"/>
    </clipPath>
    <clipPath id="clip-path-2">
      <rect id="사각형_149770" data-name="사각형 149770" width="57.868" height="57.932" fill="none"/>
    </clipPath>
  </defs>
  <g id="마스크_그룹_131" data-name="마스크 그룹 131" transform="translate(-1318 -1248)" clip-path="url(#clip-path)">
    <g id="그룹_14094" data-name="그룹 14094" transform="translate(1324 1254)">
      <g id="그룹_14093" data-name="그룹 14093" clip-path="url(#clip-path-2)">
        <path id="패스_87468" data-name="패스 87468" d="M57.86,26.547a6.084,6.084,0,0,0-1-2.886.4.4,0,0,1-.056-.09.461.461,0,0,1,.063-.155,6.253,6.253,0,0,0,.451-4.988.834.834,0,0,1,.027-.5,5.19,5.19,0,0,0-.43-5.06c-.112-.171-.121-.2,0-.427a5.921,5.921,0,0,0,.512-4.433,6.841,6.841,0,0,0-4.8-4.921,1.143,1.143,0,0,1-.5-.293A7.608,7.608,0,0,0,43.85.419a.991.991,0,0,1-.574,0A7.178,7.178,0,0,0,38.23.5a12.993,12.993,0,0,0-1.559.777l-.336.186A5.669,5.669,0,0,0,32.541.081h-.046a5.723,5.723,0,0,0-3.862,1.466A8.153,8.153,0,0,0,20.166.917a.544.544,0,0,1-.289-.038,7.664,7.664,0,0,0-8.1.628c-.138.1-.144.1-.319.01A7.5,7.5,0,0,0,5.833.991,7.379,7.379,0,0,0,1.126,5.014a6.761,6.761,0,0,0,.029,5.7.742.742,0,0,1-.092.249,6.71,6.71,0,0,0-.726,5.664.748.748,0,0,1-.011.42A4.047,4.047,0,0,0,.32,20.22a11.074,11.074,0,0,0,.76,1.347l.141.225a4.445,4.445,0,0,0,.058,6.178.54.54,0,0,1,.04.3,7.182,7.182,0,0,0,.925,5.465,7.072,7.072,0,0,0,4.433,3.186,3.071,3.071,0,0,1,1.205.586,12.6,12.6,0,0,0,6.372,2.826,3.061,3.061,0,0,0,2.481-.735,2.261,2.261,0,0,0,.645-1.846,4,4,0,0,0-.706-1.969,22.222,22.222,0,0,0-1.58-1.865c-.141-.155-.286-.313-.43-.473a7.08,7.08,0,0,0-.142-7.3.593.593,0,0,1,0-.287,3.948,3.948,0,0,0-.17-2.521,15.042,15.042,0,0,0-.77-1.371l-.145-.238a4.349,4.349,0,0,0,.806-4.85l-.007-.018a6.968,6.968,0,0,0,.4-2.807,7.81,7.81,0,0,0,5.982-1.08.514.514,0,0,1,.259.012,7.923,7.923,0,0,0,5.7.1,13.811,13.811,0,0,0,1.712-.8l.4-.21a5.622,5.622,0,0,0,3.819,1.43A5.748,5.748,0,0,0,36.377,12.1l.039.028a7.078,7.078,0,0,0,6.426,1.131,2.278,2.278,0,0,1,1.322-.009,5.2,5.2,0,0,0-.26,4.507.41.41,0,0,1-.03.126,6.224,6.224,0,0,0,.415,5.861c.043.073.047.079-.025.257a10.965,10.965,0,0,0-.7,2.255,4.621,4.621,0,0,0,.6,2.931,6.7,6.7,0,0,0-2.215,4.737,1.733,1.733,0,0,1-.141.2l-.047.062c-.168.222-.345.447-.517.664-.314.4-.639.807-.934,1.24a.723.723,0,0,1-.129.163.24.24,0,0,1-.084.007,6.84,6.84,0,0,0-4.269,1.4c-.206.155-.23.149-.433.045a7.239,7.239,0,0,0-8.458,1.468c-.129.138-.158.133-.254.114A6.952,6.952,0,0,0,18.639,47.4c.074.323.164.638.25.942a8.108,8.108,0,0,1,.376,1.836c.072,1.445.265,2.9.451,4.3.08.605.163,1.231.235,1.845a1.847,1.847,0,0,0,1.2,1.571l.1.041h.813l.13-.075a1.97,1.97,0,0,0,.974-2.206c-.219-1.348-.393-2.716-.534-3.876-.023-.189-.051-.379-.079-.57a5.912,5.912,0,0,1-.094-1.7,3.11,3.11,0,0,0-.358-2.063,3.011,3.011,0,0,1,.053-3.023,3.884,3.884,0,0,1,4.348-1.841,2.055,2.055,0,0,0,2.44-.732,3.989,3.989,0,0,1,5.545-.91c1.172.8,1.739.749,2.758-.224a4.019,4.019,0,0,1,3.5-1.141A1.676,1.676,0,0,0,42.88,38.3a3.849,3.849,0,0,1,1.525-2.073,1.872,1.872,0,0,0,.837-1.782,3.924,3.924,0,0,1,.038-.965,3.465,3.465,0,0,1,1.778-2.389,1.662,1.662,0,0,0,.443-2.834c-.1-.115-.2-.224-.277-.334a2.061,2.061,0,0,1,.04-2.625c.975-1.272.978-1.627.026-2.917a2.984,2.984,0,0,1-.307-3.411A2.252,2.252,0,0,0,47,16.614a1.839,1.839,0,0,1,.173-2.044,2.926,2.926,0,0,1,.217-.282c.055-.067.111-.133.164-.2a1.649,1.649,0,0,0,.064-2.16,3.29,3.29,0,0,0-2.648-1.838.577.577,0,0,1-.065-.036,2.623,2.623,0,0,0-2.615-.036,4.062,4.062,0,0,1-4.347-.852C37.291,8.485,36.783,8,36.156,8.038s-1.092.558-1.679,1.3a2.485,2.485,0,0,1-1.686.981A2.448,2.448,0,0,1,30.97,9.7a4.916,4.916,0,0,1-.647-.726c-.062-.079-.124-.158-.186-.235a1.74,1.74,0,0,0-1.26-.721,1.718,1.718,0,0,0-1.317.559c-.088.086-.174.177-.259.267a3.581,3.581,0,0,1-.509.476,4.736,4.736,0,0,1-5.142.422,2.024,2.024,0,0,0-2.37.11,4.471,4.471,0,0,1-5.668.248,2.162,2.162,0,0,0-.9-.331,2.045,2.045,0,0,0-1.91,1.067,1.635,1.635,0,0,0,.034,1.9,3.275,3.275,0,0,1,.141,3.373,1.943,1.943,0,0,0,.149,1.938,1.12,1.12,0,0,1-.21,1.58,5.677,5.677,0,0,1-.737.572l-.2.142A1.631,1.631,0,0,0,10,23.2c.09.062.178.116.263.168s.194.119.273.178c.8.61,1.019,1.26.65,1.931a1.634,1.634,0,0,0,.207,1.915,3.993,3.993,0,0,1-.1,5.216,1.8,1.8,0,0,0-.563,1.352,1.958,1.958,0,0,0,.843,1.335l.282.227c.479.386.975.786,1.416,1.209q.056.054.109.111a11.176,11.176,0,0,1-3.686-2.057A4.7,4.7,0,0,0,7.48,33.746,3.837,3.837,0,0,1,4.919,31.91a3.514,3.514,0,0,1-.384-2.9,2.633,2.633,0,0,0-.842-3.291,1.082,1.082,0,0,1-.454-.793,1.42,1.42,0,0,1,.5-1.044,5.3,5.3,0,0,1,.653-.511c.128-.09.261-.184.392-.284a1.688,1.688,0,0,0,.7-1.335,1.663,1.663,0,0,0-.714-1.327c-.129-.1-.257-.177-.382-.256-.066-.042-.133-.083-.2-.127-1.177-.79-.993-1.618-.632-2.173a1.993,1.993,0,0,0,.087-1.715,3.457,3.457,0,0,1,.565-3.96,1.741,1.741,0,0,0,.174-2.392,3.8,3.8,0,0,1-.328-3.352A3.844,3.844,0,0,1,6.595,4.186a4.411,4.411,0,0,1,3.963.584A1.771,1.771,0,0,0,13.2,4.56l.09-.083a3.4,3.4,0,0,1,.505-.413,4.363,4.363,0,0,1,4.994.006,2.09,2.09,0,0,0,2.529-.02A4.4,4.4,0,0,1,22.9,3.441a4.607,4.607,0,0,1,4.63,1.534,1.661,1.661,0,0,0,1.268.607,1.726,1.726,0,0,0,1.3-.69c.1-.122.19-.246.277-.366.064-.088.129-.177.2-.262a2.5,2.5,0,0,1,1.7-.994,2.416,2.416,0,0,1,1.8.605,4.891,4.891,0,0,1,.611.675c.091.113.181.226.275.335a1.694,1.694,0,0,0,1.245.648,1.654,1.654,0,0,0,1.255-.564c.084-.088.166-.18.248-.271.056-.062.111-.125.169-.187a4.014,4.014,0,0,1,4.363-.96,3.068,3.068,0,0,0,2.709-.005,3.909,3.909,0,0,1,4.5,1.214,3.4,3.4,0,0,0,2.179,1.462,3.511,3.511,0,0,1,2.51,2.155,3.241,3.241,0,0,1-.4,3.069c-.844,1.187-.815,1.709.155,2.8a2.076,2.076,0,0,1,.275,2.686,2.034,2.034,0,0,0-.125,2.148,3.018,3.018,0,0,1-.293,3.224c-.863,1.266-.833,1.723.184,2.878a2.067,2.067,0,0,1,.021,2.923,4.552,4.552,0,0,1-1.169.886A2.137,2.137,0,0,0,51.573,30.3a2.109,2.109,0,0,0,.6,1.659,3.415,3.415,0,0,1,.779,2.6A3.333,3.333,0,0,1,51.532,36.8a2.2,2.2,0,0,0-1,2.07,3.262,3.262,0,0,1-1.849,3.213,3.91,3.91,0,0,1-2.583.472,1.728,1.728,0,0,0-2.208,1.311l-.043.123a4.012,4.012,0,0,1-.19.482,3.865,3.865,0,0,1-2.5,1.983,4.075,4.075,0,0,1-3.314-.572c-1.22-.83-1.833-.776-2.854.252a3.04,3.04,0,0,1-1.905,1.037,8.793,8.793,0,0,1-2.1-.111,2.018,2.018,0,0,0-1.859.531,1.848,1.848,0,0,0-.357,1.763.891.891,0,0,1,.031.266l-.023.366c-.112,1.764-.228,3.588-.358,5.38a1.687,1.687,0,0,0,1.387,2,1.53,1.53,0,0,0,1.176-.31,1.964,1.964,0,0,0,.682-1.368c.036-.345.063-.692.09-1.028.012-.158.025-.316.038-.474l.308-3.649a6.817,6.817,0,0,0,4.377-1.395c.2-.154.241-.157.485-.034a7.224,7.224,0,0,0,9.587-3.133.4.4,0,0,1,.068-.105.442.442,0,0,1,.15-.015h.065a7.216,7.216,0,0,0,4.7-1.807,6.731,6.731,0,0,0,2.323-4.73.594.594,0,0,1,.17-.308,6.5,6.5,0,0,0,1.487-7.9,5.7,5.7,0,0,0,2.081-2.967,8.19,8.19,0,0,0,.2-.908c.022-.126.045-.252.07-.377l.011-.055v-.211Z" transform="translate(0 0)"/>
      </g>
    </g>
  </g>
</svg>
