<svg id="_02" data-name="02" xmlns="http://www.w3.org/2000/svg" xmlns:xlink="http://www.w3.org/1999/xlink" width="100" height="100" viewBox="0 0 100 100">
  <defs>
    <clipPath id="clip-path">
      <rect id="사각형_149739" data-name="사각형 149739" width="100" height="100" transform="translate(1028 1762)" fill="#fff" stroke="#707070" stroke-width="1"/>
    </clipPath>
    <clipPath id="clip-path-2">
      <rect id="사각형_149572" data-name="사각형 149572" width="95.535" height="95.551" fill="none"/>
    </clipPath>
  </defs>
  <g id="마스크_그룹_121" data-name="마스크 그룹 121" transform="translate(-1028 -1762)" clip-path="url(#clip-path)">
    <g id="그룹_14264" data-name="그룹 14264" transform="translate(1031 1764)">
      <g id="그룹_14263" data-name="그룹 14263" clip-path="url(#clip-path-2)">
        <path id="패스_87565" data-name="패스 87565" d="M48.329,0c1.77,1.736,3.556,3.457,5.3,5.217a1.54,1.54,0,0,1,.014,2.254,1.57,1.57,0,0,1-2.259-.04c-.6-.577-1.149-1.217-1.853-1.972a5.536,5.536,0,0,0-.15.789c-.008,1.927,0,3.855-.011,5.782,0,.485.058.774.645.9a2.4,2.4,0,0,1,1.853,1.793,3.784,3.784,0,0,0,2.741,2.889,3.116,3.116,0,0,0,2.859-.036,3.223,3.223,0,0,1,4.487.8c.061.07.136.128.2.193,2.4,2.366,2.583,2.92,1.2,5.836a1.969,1.969,0,0,0-.012,1.564A4.59,4.59,0,0,0,66.794,29.5a2.137,2.137,0,0,1,1.541,2.039,30.543,30.543,0,0,1,.019,3.716,2.324,2.324,0,0,1-1.731,2.213,4.164,4.164,0,0,0-3.108,3.018,2.64,2.64,0,0,0,.03,2.418,3.479,3.479,0,0,1-.861,4.886c-.211.182-.393.4-.6.591-1.865,1.765-2.483,1.9-4.8.836a2.928,2.928,0,0,0-2.418-.054,4.282,4.282,0,0,0-3.067,3.07c-.212.717-.994,1.265-1.632,2.027A22.846,22.846,0,0,0,56,62.348a29.639,29.639,0,0,0,17.557,7.38c4.26.381,8.567.237,12.854.321.932.018,1.867-.024,2.8.016a6.3,6.3,0,0,1,6.166,4.991,1.793,1.793,0,0,0,.16.324v14.74c-.122.38-.236.764-.368,1.141a6.262,6.262,0,0,1-5.791,4.252c-4.384.043-8.769.052-13.153,0a6.123,6.123,0,0,1-6.086-5.788c-.162-3.818-.055-7.647-.088-11.471-.016-1.9-.056-3.8,1.244-5.544-8.936-1.626-16.47-5.378-21.861-13.077V70c.315.017.642.046.969.05,1.43.021,2.866-.044,4.288.066a6.174,6.174,0,0,1,5.777,6.1q.083,6.576,0,13.153a6.233,6.233,0,0,1-6.231,6.153q-6.483.063-12.966,0a6.239,6.239,0,0,1-6.2-6.184q-.079-6.529,0-13.06a6.167,6.167,0,0,1,5.814-6.155c1.7-.118,3.413-.021,5.205-.021V59.673C40.737,67.3,33.222,71.081,24.274,72.7c1.539,2.151,1.188,4.522,1.2,6.83.021,3.047.017,6.095,0,9.142-.02,4.233-2.659,6.855-6.886,6.858q-5.924,0-11.847,0A6.372,6.372,0,0,1,0,88.813Q-.006,82.8,0,76.779a6.356,6.356,0,0,1,6.643-6.72c4.166-.045,8.336.062,12.5-.082a32.1,32.1,0,0,0,19-6.46A23.484,23.484,0,0,0,45.5,53.946c-1.543-.449-1.882-1.813-2.345-3.056A2.13,2.13,0,0,0,42,49.719a4.644,4.644,0,0,0-4.931-.034,2.272,2.272,0,0,1-2.683-.486c-.8-.735-1.567-1.508-2.31-2.3a2.438,2.438,0,0,1-.471-3.012,4.161,4.161,0,0,0,.036-4.329,2.97,2.97,0,0,0-1.747-1.691c-2.4-.88-2.795-1.5-2.822-4.073q0-.373,0-.746c.03-2.536.387-3.179,2.764-4,1.086-.376,1.433-1.114,1.912-2.012a3.6,3.6,0,0,0-.046-3.809,2.722,2.722,0,0,1,.565-3.488c.652-.665,1.306-1.331,1.992-1.962a2.5,2.5,0,0,1,3.092-.495,4.024,4.024,0,0,0,4.248.045,2.824,2.824,0,0,0,1.716-1.718c.395-1.307.96-2.52,2.548-2.785.125-.021.291-.317.293-.488.022-1.959.017-3.918.015-5.877,0-.241-.03-.483-.059-.924-.675.663-1.231,1.22-1.8,1.765a1.629,1.629,0,0,1-2.4.178,1.582,1.582,0,0,1,.128-2.389C43.751,3.379,45.485,1.695,47.209,0ZM38.23,82.748c0,2.082-.012,4.164,0,6.246a3.148,3.148,0,0,0,3.312,3.354q6.245.026,12.491,0a3.134,3.134,0,0,0,3.266-3.3q.026-6.246,0-12.491a3.087,3.087,0,0,0-3.265-3.292q-6.245-.05-12.491,0A3.106,3.106,0,0,0,38.233,76.6c-.015,2.051,0,4.1,0,6.152M12.695,92.353c2.082,0,4.164.014,6.246,0a3.122,3.122,0,0,0,3.331-3.241q.061-6.292,0-12.584a3.076,3.076,0,0,0-3.294-3.266q-6.245-.047-12.491,0a3.134,3.134,0,0,0-3.3,3.364q-.02,6.152,0,12.3a3.2,3.2,0,0,0,3.451,3.424c2.02.012,4.039,0,6.059,0M82.821,73.247c-2.051,0-4.1-.019-6.152.005a3.126,3.126,0,0,0-3.41,3.345q-.041,6.2,0,12.4a3.15,3.15,0,0,0,3.41,3.355q6.106.018,12.212,0a3.213,3.213,0,0,0,3.473-3.5q.013-6.059,0-12.118a3.188,3.188,0,0,0-3.473-3.484c-2.019-.02-4.039,0-6.059,0M35.965,25.269c-.157.41-.27.76-.421,1.093a8.218,8.218,0,0,0-.857,1.85,4.468,4.468,0,0,1-3.76,3.811.988.988,0,0,0-.623.462,1.839,1.839,0,0,0,1.176,2.584c1.632.476,2.762,1.329,3,3.107a1.886,1.886,0,0,0,.253.7c1.833,3.04,1.124,2.781.1,5.512a1.057,1.057,0,0,0,.02.825c.886,1.338,1.324,1.45,2.789.823a3.948,3.948,0,0,1,1.112-.459,5.316,5.316,0,0,1,1.936.116,25.929,25.929,0,0,0,2.468,1.059,3.549,3.549,0,0,1,2.9,2.753c.5,1.54.578,1.543,2.253,1.406a1.136,1.136,0,0,0,.848-.591c.517-2.088,1.826-3.075,3.841-3.9,2.1-.859,3.853-1.262,5.812-.009a.822.822,0,0,0,.73-.059c1.358-.934,1.454-1.313.813-2.805-.122-.285-.223-.582-.368-.855a2.307,2.307,0,0,1,.086-2.382,9.553,9.553,0,0,0,1.1-2.554A2.955,2.955,0,0,1,63.513,35.3c.3-.078.569-.269.868-.33.764-.156.884-.634.937-1.344.076-1.036-.238-1.647-1.274-1.877-.39-.087-.751-.3-1.134-.418a2.2,2.2,0,0,1-1.556-1.684,7.925,7.925,0,0,0-.939-2.418,3.339,3.339,0,0,1-.058-3.906c.109-.186.147-.418.27-.592.574-.806-.061-1.223-.516-1.717s-.9-.89-1.656-.417c-1.622,1.008-3.276,1.242-4.9-.039a1.289,1.289,0,0,0-.426-.185c-3.351-1.009-2.621-.67-3.954-3.82a1.066,1.066,0,0,0-.605-.576c-1.478-.35-2.044-.1-2.488,1.326a3.467,3.467,0,0,1-2.942,2.815,2.337,2.337,0,0,0-1.034.405,4.1,4.1,0,0,1-5.08.037c-.771-.5-1.181.042-1.641.5s-.938.85-.494,1.651a23.978,23.978,0,0,1,1.077,2.557" transform="translate(0)"/>
      </g>
    </g>
  </g>
</svg>
