<svg id="_0-1" data-name="0-1" xmlns="http://www.w3.org/2000/svg" xmlns:xlink="http://www.w3.org/1999/xlink" width="100" height="100" viewBox="0 0 100 100">
  <defs>
    <clipPath id="clip-path">
      <rect id="사각형_149738" data-name="사각형 149738" width="100" height="100" transform="translate(604 1754)" fill="#fff" stroke="#707070" stroke-width="1"/>
    </clipPath>
    <clipPath id="clip-path-2">
      <rect id="사각형_149570" data-name="사각형 149570" width="84.034" height="100" fill="none"/>
    </clipPath>
  </defs>
  <g id="마스크_그룹_120" data-name="마스크 그룹 120" transform="translate(-604 -1754)" clip-path="url(#clip-path)">
    <g id="그룹_14262" data-name="그룹 14262" transform="translate(612 1754)">
      <g id="그룹_14261" data-name="그룹 14261" clip-path="url(#clip-path-2)">
        <path id="패스_87563" data-name="패스 87563" d="M62.335,79.171c.019,2.109.005,4.218.005,6.373.638.051,1.186.063,1.724.143a2.59,2.59,0,0,1,2.348,2.572c.04,3.027.021,6.054.009,9.081C66.416,98.688,65.5,99.4,64.466,100H41.61c-.558-.562-1.1-1.149-.729-2.023.394-.925,1.225-.914,2.065-.912,4.518.012,14.906.006,19.423.006h1.078V88.629H36.541v8.442c1.86,0,3.671,0,5.483,0a1.472,1.472,0,0,1,1.608,1.125c.236.842-.325,1.311-.837,1.8H35.571a3.391,3.391,0,0,1-2.033-3.608c.1-2.437.022-4.881.025-7.323s.852-3.327,3.31-3.461c.128-.007.255-.032.459-.059.02-.284.055-.568.056-.85,0-2.962-.021-5.925.012-8.886A4.937,4.937,0,0,0,35.978,72.2c-2.586-2.75-5.136-5.534-7.692-8.312a5,5,0,0,1-.771-6.111,4.332,4.332,0,0,1,5.659-1.788c1.353.618,2.685,1.284,4.2,2.01,0-1.882.024-3.617-.03-5.35-.007-.219-.394-.474-.654-.63-4.933-2.962-9.852-5.949-14.823-8.846a5.921,5.921,0,0,1-3.329-5.81c.051-.937.008-1.879.008-2.916-.374-.022-.685-.056-1-.057-1.985,0-3.971.03-5.954-.02a1.232,1.232,0,0,0-1.383.85A5.254,5.254,0,0,1,4.72,38.281a5.372,5.372,0,1,1,5.5-7.613,1.186,1.186,0,0,0,1.31.81c2.3-.036,4.6-.014,6.959-.014V21.568c-.3-.023-.582-.062-.862-.064-1.5-.006-3,.067-4.489-.022-1.512-.09-2.6.04-3.477,1.683C8.525,25.3,5.742,25.943,3.477,25.083A5.38,5.38,0,0,1,4.469,14.75a5.242,5.242,0,0,1,5.712,2.96,1.311,1.311,0,0,0,1.465.879c2.243-.043,4.486-.016,6.9-.016,0-.684.015-1.317,0-1.95a5.546,5.546,0,0,1,3.024-5.284c1.914-1.106,3.8-2.26,5.694-3.4.624-.376,1.317-.478,1.776.089a2.2,2.2,0,0,1,.416,1.56c-.06.381-.567.762-.96,1.006q-2.734,1.7-5.52,3.309a2.779,2.779,0,0,0-1.508,2.629q.029,10.644,0,21.288a2.6,2.6,0,0,0,1.294,2.448q7.033,4.2,14.061,8.409c.131.079.276.135.5.242.029-.337.067-.583.068-.829,0-2.832-.012-5.664.015-8.5a1.084,1.084,0,0,0-.737-1.17,12.485,12.485,0,1,1,17.243-7.482c-.362,1.13-1.023,1.605-1.891,1.362-.938-.263-1.25-1.019-.911-2.206a9.555,9.555,0,1,0-14.463,4.973c.261.175.545.317.868.5C38.348,33.4,39.7,31.942,42.133,32c2.289.055,3.57,1.469,4.38,3.6.488-.322.939-.608,1.379-.91.9-.62,1.708-.582,2.25.115a1.514,1.514,0,0,1-.544,2.252c-.767.54-1.613.967-2.4,1.474-.218.14-.523.384-.526.584-.036,2.5-.024,4.993-.024,7.491,1.26.072,2.418.163,3.577.185a1.747,1.747,0,0,0,.784-.361c3.35-2,6.689-4.016,10.046-6a2.809,2.809,0,0,0,1.515-2.629q-.029-10.644,0-21.288a2.745,2.745,0,0,0-1.448-2.566Q52.319,8.7,43.539,3.427a2.736,2.736,0,0,0-3.108.04c-1.991,1.23-11.364,6.876-13.38,8.067-1.041.615-1.894.469-2.357-.375-.435-.793-.135-1.541.886-2.153C27.616,7.785,37.01,2.112,39.046.893A5.394,5.394,0,0,1,44.954.868q8.921,5.319,17.825,10.668a5.294,5.294,0,0,1,2.7,4.777c0,.71,0,1.42,0,2.192.366.027.647.064.928.065,1.627.006,3.257-.057,4.88.022,1.327.064,2.238-.079,2.979-1.52a4.989,4.989,0,0,1,6.121-2.107,5.388,5.388,0,0,1-.663,10.369,5.278,5.278,0,0,1-5.853-2.878,1.428,1.428,0,0,0-1.6-.975c-2.209.059-4.421.02-6.71.02v9.959c2.517,0,5.012.022,7.506-.035.242-.005.545-.457.7-.763a5.385,5.385,0,0,1,10.008.621,5.381,5.381,0,0,1-3.14,6.651,5.283,5.283,0,0,1-6.814-2.7,1.243,1.243,0,0,0-1.375-.863c-2.211.055-4.424.027-6.637.034a1.719,1.719,0,0,0-.324.105c0,.817-.055,1.687.01,2.548a6.09,6.09,0,0,1-3.566,6.269c-1.879,1.013-3.678,2.175-5.587,3.315a2.7,2.7,0,0,0,2.435.333,10.324,10.324,0,0,1,4.212-.038,3.213,3.213,0,0,1,2.484,3.327c.026,2.441.07,4.884-.01,7.323ZM62.579,59.1c-.062-2.765-.046-5.533-.009-8.3.012-.893-.335-1.272-1.2-1.208-.032,0-.065,0-.1,0-2.067-.03-2.067-.03-2.067,2,0,2.8,0,5.6,0,8.4,0,1.157-.527,1.821-1.426,1.842-.93.022-1.495-.674-1.5-1.879-.006-2.995,0-5.989,0-8.984,0-1.263-.113-1.369-1.412-1.378-.2,0-.39,0-.586,0-1.221.012-1.346.132-1.346,1.342,0,3.06.012,6.12-.008,9.179-.008,1.291-.992,2.041-2.034,1.593A1.514,1.514,0,0,1,50,60.126c.011-3.06.006-6.12,0-9.179,0-1.184-.16-1.338-1.355-1.351-.293,0-.586.013-.878,0-.835-.043-1.148.344-1.14,1.176.028,2.995.016,5.989,0,8.984,0,.386.055.9-.158,1.128-.382.407-.97.909-1.43.87s-.945-.637-1.259-1.1c-.186-.274-.072-.759-.072-1.149q0-10.937-.008-21.874a5.337,5.337,0,0,0-.149-1.448,1.574,1.574,0,0,0-3.081-.008,5.853,5.853,0,0,0-.151,1.545q-.013,10.791-.006,21.581c0,.26.005.521,0,.781-.046,1.51-.983,2.115-2.344,1.475-1.823-.858-3.627-1.754-5.44-2.633-1.2-.585-1.808-.546-2.354.148a2.054,2.054,0,0,0,.2,2.761c1.46,1.619,2.952,3.21,4.431,4.812,1.1,1.2,2.188,2.41,3.32,3.579a7.527,7.527,0,0,1,2.2,5.554c-.033,2.9-.008,5.794-.007,8.691v1.094H59.413v-.938c0-1.953.013-3.906,0-5.859ZM5.348,22.485A2.456,2.456,0,0,0,7.833,20.03a2.5,2.5,0,0,0-2.427-2.435A2.453,2.453,0,0,0,2.944,20.07a2.4,2.4,0,0,0,2.4,2.415m73.3,0A2.4,2.4,0,0,0,81.083,20.1,2.453,2.453,0,0,0,78.651,17.6,2.486,2.486,0,0,0,76.2,20.1a2.452,2.452,0,0,0,2.45,2.39M5.383,35.374A2.455,2.455,0,0,0,7.832,32.98a2.486,2.486,0,0,0-2.46-2.5,2.448,2.448,0,0,0-2.427,2.509,2.4,2.4,0,0,0,2.438,2.382m75.7-2.419a2.45,2.45,0,0,0-2.467-2.471,2.487,2.487,0,0,0-2.423,2.436,2.453,2.453,0,0,0,2.486,2.453,2.4,2.4,0,0,0,2.4-2.418" transform="translate(0 0)"/>
        <path id="패스_87564" data-name="패스 87564" d="M94.047,30.955a13.13,13.13,0,0,1-.013,1.654,1.421,1.421,0,0,1-2.812-.018,24,24,0,0,1-.055-2.435,1.7,1.7,0,0,0-.912-1.595Q84.1,24.9,77.963,21.209a1.678,1.678,0,0,0-1.909,0q-6.133,3.7-12.291,7.355a1.684,1.684,0,0,0-.912,1.591c.009.748.025,1.5-.026,2.243a1.443,1.443,0,0,1-1.43,1.435,1.421,1.421,0,0,1-1.439-1.42,23.783,23.783,0,0,1,.061-3.213A3.845,3.845,0,0,1,62,26.227q6.386-3.845,12.793-7.652a4.1,4.1,0,0,1,4.441,0q6.365,3.785,12.712,7.6c1.819,1.091,2.291,2.8,2.1,4.785" transform="translate(-34.995 -10.464)"/>
      </g>
    </g>
  </g>
</svg>
