<svg id="_03" data-name="03" xmlns="http://www.w3.org/2000/svg" xmlns:xlink="http://www.w3.org/1999/xlink" width="100" height="100" viewBox="0 0 100 100">
  <defs>
    <clipPath id="clip-path">
      <rect id="사각형_149740" data-name="사각형 149740" width="100" height="100" transform="translate(1429 1767)" fill="#fff" stroke="#707070" stroke-width="1"/>
    </clipPath>
    <clipPath id="clip-path-2">
      <rect id="사각형_149574" data-name="사각형 149574" width="94.558" height="94.554" fill="none"/>
    </clipPath>
  </defs>
  <g id="마스크_그룹_122" data-name="마스크 그룹 122" transform="translate(-1429 -1767)" clip-path="url(#clip-path)">
    <g id="그룹_14265" data-name="그룹 14265" transform="translate(1431 1770)">
      <g id="그룹_14266" data-name="그룹 14266" clip-path="url(#clip-path-2)">
        <path id="패스_87566" data-name="패스 87566" d="M350.836,150.212c-.255,1.18-.455,2.375-.775,3.537a19.932,19.932,0,0,1-7.084,10.612c-1.694,1.332-3.435,2.6-5.328,4.03,5.537,3.432,9.233,7.918,9.919,14.3A1.574,1.574,0,0,1,346,184.427h0a1.579,1.579,0,0,1-1.552-1.293l-.615-3.345H326.341l-.63,3.34a1.58,1.58,0,0,1-3.125-.445c.68-6.345,4.346-10.833,9.912-14.272-.4-.318-.668-.529-.932-.746-2.374-1.958-5.026-3.664-7.071-5.921a20.321,20.321,0,0,1,2.744-29.662c1.68-1.3,3.391-2.565,5.209-3.937-.961-.721-1.84-1.382-2.722-2.04a17.4,17.4,0,0,1-7.136-12.136c0-.033-.01-.1-.017-.2a1.587,1.587,0,0,1,3.145-.4l.6,3.31H343.83l.618-3.345a1.576,1.576,0,0,1,3.118.435c-.666,6.373-4.36,10.873-9.922,14.323,1.5,1.129,2.814,2.151,4.162,3.123a20.634,20.634,0,0,1,8.885,14.695,1.5,1.5,0,0,0,.146.359Zm-2.963-3.579c-.654-2.04-1.227-3.9-1.869-5.746a1.028,1.028,0,0,0-.793-.5q-10.137-.041-20.274-.007a.913.913,0,0,0-.7.346,14.974,14.974,0,0,0-1.642,5.91Zm-25.59,3.217c.653,2.039,1.226,3.9,1.868,5.744a1.028,1.028,0,0,0,.792.5q10.137.042,20.274.007a.914.914,0,0,0,.7-.343,14.927,14.927,0,0,0,1.636-5.913Zm12.723-19.713c-2.785,2.346-6.012,4.1-8.505,7.008h17.023c-.976-1.512-4.736-4.6-8.518-7.008m8.675,29.188H326.465c2.565,2.921,5.777,4.727,8.624,7.07,2.844-2.366,6.053-4.146,8.592-7.07m-8.6-33.122c2.446-2,5.23-3.477,6.952-6.273H328.116c1.752,2.8,4.515,4.272,6.962,6.273m0,44.081c-2.453,2.008-5.22,3.478-6.943,6.251h13.923c-1.8-2.77-4.531-4.288-6.98-6.251" transform="translate(-256.279 -89.931)"/>
        <path id="패스_87567" data-name="패스 87567" d="M39.4,40.588c0-1.56.026-2.934-.009-4.307a1.648,1.648,0,0,0-1.464-1.6C34.659,34.33,33.1,32.6,33.1,29.324c0-.812,0-1.625,0-2.53-.577,0-1.06-.005-1.543,0a3.184,3.184,0,0,1-2.724-5.112c1.279-1.906,2.567-3.808,3.811-5.737a3.1,3.1,0,0,0,.476-1.4A15.84,15.84,0,0,1,47.8.031,15.657,15.657,0,0,1,64.306,12.8a16.587,16.587,0,0,1-3.563,14.489c-1.126,1.325-2.276,2.636-3.315,4.028a3.415,3.415,0,0,0-.661,1.858c-.053,3.088-.037,6.178-.031,9.309a1.575,1.575,0,1,1-3.149,0v-.079c0-3.118.022-6.237-.01-9.355a5.36,5.36,0,0,1,1.334-3.7c1.133-1.32,2.239-2.663,3.344-4.006.408-.5.783-1.019,1.3-1.7-2.373,0-4.524-.015-6.674.021-.238,0-.508.268-.7.471-.313.331-.621.667-.93,1.009a1.593,1.593,0,0,1-2.335.032l-.022-.023a1.592,1.592,0,0,1,.022-2.218c.76-.766,1.535-1.543,2.334-2.294.19-.179.615-.147.931-.148,2.659-.011,5.318-.023,7.976.007.594.007.87-.142.987-.767a15.889,15.889,0,0,0-.6-8.7,24.335,24.335,0,0,0-2.68,2.727,4.656,4.656,0,0,1-4.221,2.056,1.61,1.61,0,0,1-1.559-1.612V14.2a1.618,1.618,0,0,1,1.408-1.6,3.668,3.668,0,0,0,1.061-.268A6.142,6.142,0,0,0,56.347,10.8c.785-.916,1.721-1.7,2.574-2.532A12.5,12.5,0,0,0,45.337,3.7a19.638,19.638,0,0,0,1.9,1.876,3.959,3.959,0,0,1,1.648,3.993,9.73,9.73,0,0,0-.059,1.42,1.55,1.55,0,1,1-3.1,0c0-.564,0-1.132-.039-1.7a2.53,2.53,0,0,0-.545-1.284c-.905-1.02-1.888-1.974-3.028-3.147L38,8.97c2.322,2.323,4.447,4.461,6.6,6.572a1.29,1.29,0,0,0,.81.214c.609.013,1.219.014,1.838.013a1.551,1.551,0,0,1,1.554,1.55v.05a1.55,1.55,0,0,1-1.544,1.55c-1.167,0-2.324.007-3.48-.03a1.6,1.6,0,0,1-.862-.553c-2-1.989-3.975-4-5.959-6l-.3.1c-.129.99-.232,1.985-.4,2.968a4.24,4.24,0,0,1-.485,1.535c-1.233,1.936-2.532,3.831-3.8,5.743-.176.264-.333.541-.584.951h4.877c0,2,0,3.895,0,5.79,0,1.522.418,1.969,1.941,2.109a4.725,4.725,0,0,1,4.352,4.65q.054,2.707,0,5.416a1.193,1.193,0,0,0,.686,1.242c1.889,1.055,3.734,2.19,5.626,3.239a1.494,1.494,0,0,0,1.139.055,4.743,4.743,0,0,1,4.2,8.5,1.318,1.318,0,0,0-.577.941c-.036,4.956-.016,9.913-.039,14.87a1.021,1.021,0,0,0,.646,1.044,4.662,4.662,0,0,1,2.019,6.246,4.789,4.789,0,0,1-6.217,2.211,1.6,1.6,0,0,0-1.226.069c-5.034,2.9-10.041,5.845-15.068,8.755a1.322,1.322,0,0,0-.648,1.131,4.7,4.7,0,0,1-9.409,0,1.166,1.166,0,0,0-.675-1.146c-5.022-2.91-10.025-5.851-15.055-8.747a1.594,1.594,0,0,0-1.226-.058A4.785,4.785,0,0,1,.5,77.735a4.659,4.659,0,0,1,2.031-6.242,1.019,1.019,0,0,0,.642-1.046c-.022-4.957,0-9.913-.038-14.87a1.32,1.32,0,0,0-.582-.937,4.743,4.743,0,0,1,4.212-8.5,1.481,1.481,0,0,0,1.14-.065q7.585-4.373,15.12-8.831a1.48,1.48,0,0,0,.6-1.044,4.743,4.743,0,0,1,9.486,0,1.9,1.9,0,0,0,.361.905c.116.172.38.244.578.359L39.4,40.588m-9.452,35.85q0,4.034,0,8.068a1.663,1.663,0,0,0,2.484,1.389L46.7,77.582a1.826,1.826,0,0,0-.03-2.91q-7.154-3.916-14.317-7.818a1.767,1.767,0,0,0-2.4,1.416c-.006,2.722,0,5.444,0,8.167M47.3,49.288l.259-.077a5.688,5.688,0,0,0-.779-.663q-7.167-4.2-14.349-8.368a1.664,1.664,0,0,0-2.478,1.4q0,8.068,0,16.136a1.735,1.735,0,0,0,2.491,1.449c4.43-2.412,8.839-4.864,13.3-7.213,1.128-.594,1.877-1.224,1.554-2.662M26.8,76.434c0-2.755,0-5.51,0-8.265,0-.8-1.463-1.8-2.134-1.433q-7.388,4-14.757,8.038a1.95,1.95,0,0,0-.017,2.7q7.255,4.241,14.515,8.475A1.683,1.683,0,0,0,26.8,84.6c.007-2.722,0-5.444,0-8.167m0-26.767q0-4.034,0-8.068a1.666,1.666,0,0,0-2.459-1.429q-7.176,4.181-14.349,8.368a1.839,1.839,0,0,0,.063,2.855q7.2,3.938,14.407,7.858A1.781,1.781,0,0,0,26.8,57.834c.007-2.722,0-5.444,0-8.166M6.312,62.993q0,3.691,0,7.381a1.76,1.76,0,0,0,2.37,1.471q7.164-3.9,14.311-7.836a1.273,1.273,0,0,0,.609-.922,1.419,1.419,0,0,0-.617-1.018c-4.755-2.64-9.533-5.239-14.308-7.842a1.78,1.78,0,0,0-2.364,1.385c-.008,2.46,0,4.921,0,7.381m44.123.1q0-3.691,0-7.381a1.715,1.715,0,0,0-2.44-1.43c-4.749,2.583-9.5,5.163-14.23,7.783a1.422,1.422,0,0,0-.621,1.016,1.268,1.268,0,0,0,.6.925q7.1,3.925,14.23,7.783a1.71,1.71,0,0,0,2.457-1.509q0-3.592,0-7.185M4.78,48.863A1.57,1.57,0,1,0,6.305,50.45,1.584,1.584,0,0,0,4.78,48.863M51.979,52a1.569,1.569,0,1,0-1.539-1.576A1.585,1.585,0,0,0,51.979,52M29.942,36.212a1.57,1.57,0,1,0-1.507,1.607,1.581,1.581,0,0,0,1.507-1.607M28.421,61.469a1.57,1.57,0,1,0,1.521,1.592,1.585,1.585,0,0,0-1.521-1.592M6.305,75.652a1.569,1.569,0,1,0-1.552,1.562,1.587,1.587,0,0,0,1.552-1.562m47.274-.021a1.57,1.57,0,1,0-1.535,1.582,1.584,1.584,0,0,0,1.535-1.582M28.4,91.4a1.571,1.571,0,1,0-1.594-1.52A1.589,1.589,0,0,0,28.4,91.4" transform="translate(0 0)"/>
      </g>
    </g>
  </g>
</svg>
