<?xml version="1.0" encoding="utf-8"?>
<!-- Generator: Adobe Illustrator 26.5.0, SVG Export Plug-In . SVG Version: 6.00 Build 0)  -->
<svg version="1.1" id="psf_icon" xmlns="http://www.w3.org/2000/svg" xmlns:xlink="http://www.w3.org/1999/xlink" x="0px" y="0px"
	 width="18px" height="18px" viewBox="0 0 18 18" style="enable-background:new 0 0 18 18;" xml:space="preserve">
<style type="text/css">
	.st0{clip-path:url(#SVGID_00000127044710042599694200000009964271712487384492_);}
	.st1{clip-path:url(#SVGID_00000159450919979106457200000017980695054798069153_);}
	.st2{fill:#D71100;}
	.st3{fill:#D72D00;}
</style>
<g>
	<defs>
		<rect id="SVGID_1_" y="0" width="18" height="18"/>
	</defs>
	<clipPath id="SVGID_00000085220674318735729490000014531308558791454084_">
		<use xlink:href="#SVGID_1_"  style="overflow:visible;"/>
	</clipPath>
	
		<g id="마스크_그룹_25" transform="translate(-317 1361)" style="clip-path:url(#SVGID_00000085220674318735729490000014531308558791454084_);">
		<g id="그룹_14002" transform="translate(319 -1360)">
			<g>
				<defs>
					<rect id="SVGID_00000106861505778659106860000013485109933185637765_" y="0" width="14" height="16.3"/>
				</defs>
				<clipPath id="SVGID_00000158014745500099147030000017938982507441288350_">
					<use xlink:href="#SVGID_00000106861505778659106860000013485109933185637765_"  style="overflow:visible;"/>
				</clipPath>
				
					<g id="그룹_14001" transform="translate(0 0)" style="clip-path:url(#SVGID_00000158014745500099147030000017938982507441288350_);">
					<path id="패스_87314" d="M12.8,8.5H1.2C1,8.5,0.9,8.4,0.9,8.2c0,0,0-0.1,0-0.1V6.7c0-1.5,0-3.5,0-4.6c0-0.8,0.4-1.5,1.1-1.8
						c0.1-0.1,0.3-0.1,0.4-0.2c0.1,0,0.1,0,0.2-0.1c0,0,0.1,0,0.1,0h6.4c0.2,0,0.4,0.2,0.4,0.4c0,0,0,0,0,0V3c0,0.4,0.2,0.7,0.6,0.8
						c0.1,0,0.1,0,0.2,0h2.6c0.2,0,0.4,0.2,0.4,0.4l0,0v4C13.1,8.3,13,8.5,12.8,8.5L12.8,8.5 M1.6,7.8h10.8V4.5h-2.2
						C9.5,4.5,8.8,4,8.7,3.2c0-0.1,0-0.1,0-0.2V0.7h-6l-0.1,0c-0.1,0-0.2,0.1-0.3,0.1C1.9,1.1,1.6,1.5,1.6,2c0,1.2,0,3.1,0,4.6
						L1.6,7.8z"/>
					<path id="패스_87315" d="M6.7,16.3c-1.2,0-2.5,0-3.7,0c-0.9,0-1.7-0.5-2-1.4c0,0,0,0,0-0.1l0,0c0,0,0-0.1,0-0.1
						c0-1,0-1.6,0-1.6c0-0.2,0.2-0.3,0.3-0.3c0.1,0,7.7-0.4,11.4-0.1c0.2,0,0.3,0.2,0.3,0.4c0,0.4,0,0.6,0,0.8s0,0.5,0,0.9
						c0,0,0,0.1,0,0.1c-0.3,0.9-1.1,1.5-2,1.5L6.7,16.3 M1.7,14.7c0.2,0.5,0.7,0.9,1.3,0.9c2.2,0,4.3,0,6.5,0H11
						c0.6,0,1.1-0.4,1.3-0.9c0-0.4,0-0.7,0-0.9c0-0.1,0-0.3,0-0.4c-3.3-0.2-9.2,0-10.7,0.1C1.7,13.7,1.7,14.2,1.7,14.7"/>
					<path id="패스_87316" class="st2" d="M14,8.7v4.1c-0.1,0.2-0.1,0.4-0.2,0.5c-0.2,0.3-0.6,0.5-1,0.5c-3.5,0-7.1,0-10.6,0
						c-0.3,0-0.6,0-0.9,0c-0.6,0-1.2-0.5-1.2-1.1c0,0,0,0,0-0.1c0-1.3,0-2.5,0-3.8c0-0.3,0.1-0.5,0.2-0.7c0.2-0.3,0.6-0.5,1-0.4
						c2.7,0,5.3,0,8,0c1.2,0,2.3,0,3.5,0c0.3,0,0.6,0.1,0.9,0.3C13.8,8.2,13.9,8.4,14,8.7 M5.9,10.8c0,0.5,0,0.9,0,1.4
						c0,0.1,0,0.4,0,0.4s0.2,0,0.3,0c0.3,0,0.7,0,1,0c0.5,0,0.9-0.4,0.9-0.9c0,0,0,0,0,0c0-0.5,0-1,0-1.5c0-0.5-0.3-0.9-0.8-0.9
						c-0.4-0.1-1.5,0-1.5,0v0.3C5.9,9.4,5.9,10.3,5.9,10.8 M3.9,11.2c0.2,0,0.5,0,0.7,0c0.2,0,0.5-0.1,0.7-0.3
						c0.3-0.4,0.3-0.9,0.2-1.3C5.3,9.3,4.9,9.1,4.6,9.1c-0.4,0-0.7,0-1.1,0H3.2c0,0,0,0.2,0,0.3c0,0.9,0,3,0,3h0.7L3.9,11.2
						 M9.4,9.7h1.4V9.1H9.8c-0.3,0-0.9,0-0.9,0H8.6v3.4h0.7v-1.4h0.9v-0.6H9.4L9.4,9.7z"/>
					<path id="패스_87317" class="st3" d="M6.6,11.8V9.7c0.2,0,0.3,0,0.5,0c0.2,0,0.3,0.1,0.3,0.3c0,0.5,0,1,0,1.5
						c0,0.2-0.1,0.3-0.3,0.3c0,0,0,0,0,0C7,11.9,6.8,11.8,6.6,11.8"/>
					<path id="패스_87318" class="st3" d="M3.9,10.7v-1c0.2,0,0.4,0,0.5,0c0.2,0,0.3,0.1,0.3,0.3c0,0.1,0,0.2,0,0.3
						c0,0.3-0.1,0.4-0.4,0.4C4.2,10.7,4.1,10.7,3.9,10.7"/>
					<path id="패스_87319" d="M12.8,4.4c-0.1,0-0.2,0-0.3-0.1L8.9,0.6C8.7,0.5,8.7,0.3,8.9,0.1s0.4-0.2,0.5-0.1c0,0,0,0,0.1,0.1
						L13,3.7c0.1,0.1,0.1,0.4,0,0.5C13,4.3,12.9,4.4,12.8,4.4"/>
				</g>
			</g>
		</g>
	</g>
</g>
</svg>
