<svg id="file" xmlns="http://www.w3.org/2000/svg" xmlns:xlink="http://www.w3.org/1999/xlink" width="30" height="30" viewBox="0 0 30 30">
  <defs>
    <clipPath id="clip-path">
      <rect id="사각형_149440" data-name="사각형 149440" width="30" height="30" transform="translate(559 1425)" fill="none" stroke="#707070" stroke-width="1"/>
    </clipPath>
    <clipPath id="clip-path-2">
      <rect id="사각형_149485" data-name="사각형 149485" width="22.836" height="28.111" fill="none"/>
    </clipPath>
  </defs>
  <g id="마스크_그룹_22" data-name="마스크 그룹 22" transform="translate(-559 -1425)" clip-path="url(#clip-path)">
    <g id="그룹_14126" data-name="그룹 14126" transform="translate(563 1426)">
      <g id="그룹_14126-2" data-name="그룹 14126" clip-path="url(#clip-path-2)">
        <path id="패스_87528" data-name="패스 87528" d="M22.179,28.111H.659A1.05,1.05,0,0,1,0,27.452V3.286a1.041,1.041,0,0,1,1.129-.66c1.335.022,2.671,0,4.007.012A.322.322,0,0,0,5.5,2.375a3.346,3.346,0,0,1,.385-.813A3.334,3.334,0,0,1,9.347.056a3.3,3.3,0,0,1,2.7,2.325.318.318,0,0,0,.365.258q4.679-.011,9.359,0c.767,0,1.058.293,1.058,1.065q0,11.683,0,23.366a.972.972,0,0,1-.657,1.046M6.974,4.3a1.32,1.32,0,0,0-.019.153c0,1.428-.009,2.856.008,4.283a2.029,2.029,0,0,0,.175.793,1.783,1.783,0,0,0,2.016,1.011,1.831,1.831,0,0,0,1.438-1.749c.014-.32-.007-.641.01-.961a.8.8,0,0,1,.812-.768.775.775,0,0,1,.813.73,8.266,8.266,0,0,1-.111,1.825,3.449,3.449,0,0,1-6.791-.68C5.284,7.5,5.31,6.06,5.306,4.624c0-.107,0-.213,0-.327H1.673V26.445H21.168V4.3Zm3.377-1.677A1.752,1.752,0,0,0,8.7,1.639a1.712,1.712,0,0,0-1.5.979Z" transform="translate(0 0)"/>
        <path id="패스_87529" data-name="패스 87529" d="M102.579,290.033q-2.608,0-5.215,0a.819.819,0,0,1-.2-1.624,1.9,1.9,0,0,1,.355-.021h10.156a2.4,2.4,0,0,1,.274.008.813.813,0,0,1,.754.855.8.8,0,0,1-.823.782c-1.766.005-3.532,0-5.3,0" transform="translate(-91.174 -272.516)"/>
        <path id="패스_87530" data-name="패스 87530" d="M102.653,384.729q2.58,0,5.159,0a.82.82,0,0,1,.929.845.792.792,0,0,1-.653.772,1.945,1.945,0,0,1-.355.028q-5.1,0-10.209,0c-.645,0-1.018-.327-1-.866a.786.786,0,0,1,.719-.767c.264-.022.53-.014.8-.014h4.61" transform="translate(-91.216 -363.556)"/>
      </g>
    </g>
  </g>
</svg>
