<svg xmlns="http://www.w3.org/2000/svg" xmlns:xlink="http://www.w3.org/1999/xlink" width="136.312" height="25.296" viewBox="0 0 136.312 25.296">
  <defs>
    <clipPath id="clip-path">
      <rect id="사각형_1685" data-name="사각형 1685" width="136.312" height="25.296" fill="none"/>
    </clipPath>
  </defs>
  <g id="그룹_3573" data-name="그룹 3573" transform="translate(0 0)">
    <rect id="사각형_1663" data-name="사각형 1663" width="7.986" height="1.051" transform="translate(32.291 3.564)" fill="#004b9e"/>
    <rect id="사각형_1664" data-name="사각형 1664" width="3.675" height="1.052" transform="translate(39.529 6.726)" fill="#004b9e"/>
    <rect id="사각형_1665" data-name="사각형 1665" width="2.084" height="1.049" transform="translate(71.965 7.837)" fill="#004b9e"/>
    <rect id="사각형_1666" data-name="사각형 1666" width="2.302" height="1.05" transform="translate(89.967 6.395)" fill="#004b9e"/>
    <rect id="사각형_1667" data-name="사각형 1667" width="2.3" height="1.048" transform="translate(117.146 5.107)" fill="#004b9e"/>
    <rect id="사각형_1668" data-name="사각형 1668" width="3.725" height="1.051" transform="translate(130.956 11.156)" fill="#004b9e"/>
    <rect id="사각형_1669" data-name="사각형 1669" width="10.255" height="1.052" transform="translate(122.903 9.42)" fill="#004b9e"/>
    <rect id="사각형_1670" data-name="사각형 1670" width="2.3" height="1.05" transform="translate(117.146 7.239)" fill="#004b9e"/>
    <rect id="사각형_1671" data-name="사각형 1671" width="9.6" height="1.05" transform="translate(76.91 4.455)" fill="#004b9e"/>
    <rect id="사각형_1672" data-name="사각형 1672" width="14.509" height="1.05" transform="translate(46.51 9.785)" fill="#004b9e"/>
    <g id="그룹_3572" data-name="그룹 3572" transform="translate(0 0)">
      <g id="그룹_3571" data-name="그룹 3571" clip-path="url(#clip-path)">
        <path id="패스_3581" data-name="패스 3581" d="M53.3,6.294v.939a5.7,5.7,0,0,0,.355,2.079,5.251,5.251,0,0,0,.9,1.545,4.439,4.439,0,0,0,1.221,1.01A3.481,3.481,0,0,0,57,12.292c.056.011.085.027.09.049s-.007.05-.042.084l-.978,1.026a5.113,5.113,0,0,1-2.041-.952,4.53,4.53,0,0,1-1.61-1.92.133.133,0,0,0-.107-.092c-.05,0-.091.025-.124.092a4.453,4.453,0,0,1-1.571,1.9,5.328,5.328,0,0,1-2.08.976L47.6,12.425c-.033-.034-.044-.06-.033-.084a.118.118,0,0,1,.082-.049A3.408,3.408,0,0,0,49,11.8a4.339,4.339,0,0,0,1.282-1.2,5.127,5.127,0,0,0,.775-1.46,5.717,5.717,0,0,0,.3-1.911V6.294Z" transform="translate(-16.043 -2.123)" fill="#004b9e"/>
        <path id="패스_3582" data-name="패스 3582" d="M64.058,8.148V5.694a.844.844,0,0,0-.165-.486.574.574,0,0,0-.5-.231h-.331V4.141H66.04v9.053s.06,1.525-1.07,1.525h-.911V8.148Z" transform="translate(-21.271 -1.397)" fill="#004b9e"/>
        <path id="패스_3583" data-name="패스 3583" d="M105.883,9.235V6.781a.828.828,0,0,0-.165-.484.569.569,0,0,0-.5-.235h-.331V5.229h2.93V16.61s.06,1.523-1.07,1.523h-.869v-8.9Z" transform="translate(-35.379 -1.764)" fill="#004b9e"/>
        <path id="패스_3584" data-name="패스 3584" d="M110.732,8.84V5.609a.828.828,0,0,0-.164-.484.572.572,0,0,0-.5-.234h-.33V4.057h2.887V16.88s.061,1.523-1.069,1.523h-.828V8.84Z" transform="translate(-37.014 -1.369)" fill="#004b9e"/>
        <path id="패스_3585" data-name="패스 3585" d="M132.55,8.922V5.693a.821.821,0,0,0-.164-.485.569.569,0,0,0-.5-.232h-.329V4.14h2.97V11.2s.062,1.524-1.066,1.524h-.915v-3.8Z" transform="translate(-44.374 -1.397)" fill="#004b9e"/>
        <path id="패스_3586" data-name="패스 3586" d="M179.265,8.922V5.693a.83.83,0,0,0-.164-.485.572.572,0,0,0-.494-.232h-.333V4.14h2.973v6.837s.061,1.524-1.068,1.524h-.914V8.922Z" transform="translate(-60.13 -1.397)" fill="#004b9e"/>
        <path id="패스_3587" data-name="패스 3587" d="M202.1,11.4V5.694a.823.823,0,0,0-.164-.486.567.567,0,0,0-.494-.232h-.33V4.14h2.974v9.32s.06,1.524-1.072,1.524H202.1V11.4Z" transform="translate(-67.834 -1.397)" fill="#004b9e"/>
        <path id="패스_3588" data-name="패스 3588" d="M53.97,18.437v3.506a.258.258,0,0,0,.066.185.25.25,0,0,0,.18.065h7.921v1.064H53.277A1.173,1.173,0,0,1,51.938,21.9V19.957a.741.741,0,0,0-.166-.484.6.6,0,0,0-.494-.2h-.332v-.836Z" transform="translate(-17.183 -6.219)" fill="#004b9e"/>
        <path id="패스_3589" data-name="패스 3589" d="M192.481,20.013v2.413a.247.247,0,0,0,.066.182.241.241,0,0,0,.182.069h7.484v1.062h-8.425a1.174,1.174,0,0,1-1.339-1.352v-.856a.731.731,0,0,0-.166-.483.6.6,0,0,0-.5-.2h-.33v-.834Z" transform="translate(-63.902 -6.75)" fill="#004b9e"/>
        <path id="패스_3590" data-name="패스 3590" d="M77.027,18.2H72.383v1.033h9.273a.164.164,0,0,1,.125.044.168.168,0,0,1,.04.124v3.774h.938s1.129.094,1.129-1.54V18.369a.169.169,0,0,0-.042-.125.167.167,0,0,0-.124-.041H77.027Z" transform="translate(-24.414 -6.14)" fill="#004b9e"/>
        <rect id="사각형_1673" data-name="사각형 1673" width="2.195" height="1.86" transform="translate(52.596 10.67)" fill="#004b9e"/>
        <path id="패스_3591" data-name="패스 3591" d="M102.1,14.768a4.167,4.167,0,0,1-1.082.25,15.865,15.865,0,0,1-1.6.067H96.594a2,2,0,0,1-1.486-.5,2.148,2.148,0,0,1-.5-1.568V7.479a.743.743,0,0,0-.166-.484.608.608,0,0,0-.5-.2h-.331V5.96h6.874V7.006H96.609v6.242a.322.322,0,0,0,.091.25.314.314,0,0,0,.223.085h3.156a7.018,7.018,0,0,0,1.2-.085,3.248,3.248,0,0,0,.818-.233,4.816,4.816,0,0,0,.774-.372v1.491a3.137,3.137,0,0,1-.774.384" transform="translate(-31.577 -2.01)" fill="#004b9e"/>
        <path id="패스_3592" data-name="패스 3592" d="M123.439,5.886V3.746h-2.792v.718h.264a.4.4,0,0,1,.272.142.5.5,0,0,1,.142.36v.92Z" transform="translate(-40.693 -1.264)" fill="#004b9e"/>
        <path id="패스_3593" data-name="패스 3593" d="M130.009,21.614V18.423a.328.328,0,0,0-.091-.243.325.325,0,0,0-.239-.093H118.264v1.025h9.514a.175.175,0,0,1,.125.044.178.178,0,0,1,.04.125v3.9h.989c1.118,0,1.077-1.563,1.077-1.563" transform="translate(-39.889 -6.101)" fill="#004b9e"/>
        <path id="패스_3594" data-name="패스 3594" d="M150.873,6.373a.346.346,0,0,0-.066-.249.368.368,0,0,0-.264-.068h-8.9V5.038h11.1a.194.194,0,0,1,.134.034.2.2,0,0,1,.032.133V9.576a14.778,14.778,0,0,1-.2,2.689,5.386,5.386,0,0,1-.677,1.8h-1.949a5.275,5.275,0,0,0,.644-1.886,17.891,17.891,0,0,0,.148-2.787Z" transform="translate(-47.773 -1.7)" fill="#004b9e"/>
        <path id="패스_3595" data-name="패스 3595" d="M148.335,18.684h5.371v1.148H139.184V18.684h3.5V13.977a.652.652,0,0,0-.158-.459.534.534,0,0,0-.42-.177h-.264v-.816h2.775v6.159H146.4V13.977a.655.655,0,0,0-.158-.459.537.537,0,0,0-.421-.177h-.265v-.816h2.776Z" transform="translate(-46.945 -4.225)" fill="#004b9e"/>
        <path id="패스_3596" data-name="패스 3596" d="M80.848,5.376h.182a.579.579,0,0,1,.4.142,1.172,1.172,0,0,1,.158.628V6.5H74.718V4.642H71.959V5.56h.182a.581.581,0,0,1,.4.141.52.52,0,0,1,.158.408V8.8a1.359,1.359,0,0,0,.347,1.011,1.3,1.3,0,0,0,.958.342H82.3a1.3,1.3,0,0,0,.958-.342A1.359,1.359,0,0,0,83.607,8.8V4.475h-2.76Zm.744,3.453a.3.3,0,0,1-.058.209.291.291,0,0,1-.208.059H74.982a.459.459,0,0,1-.207-.032c-.038-.023-.058-.1-.058-.217V7.535h6.874Z" transform="translate(-24.271 -1.51)" fill="#004b9e"/>
        <path id="패스_3597" data-name="패스 3597" d="M118.919,7.548a3.495,3.495,0,1,0,5.1-.031Zm2.568,4.3a1.9,1.9,0,1,1,1.881-1.9,1.892,1.892,0,0,1-1.881,1.9" transform="translate(-39.798 -2.536)" fill="#004b9e"/>
        <path id="패스_3598" data-name="패스 3598" d="M191.267,3.616a3.3,3.3,0,1,0,3.273,3.3,3.288,3.288,0,0,0-3.273-3.3m0,5.084a1.779,1.779,0,1,1,1.762-1.779A1.771,1.771,0,0,1,191.267,8.7" transform="translate(-63.409 -1.22)" fill="#004b9e"/>
        <path id="패스_3599" data-name="패스 3599" d="M174.047,16.374a3.564,3.564,0,1,0,3.676,3.563,3.62,3.62,0,0,0-3.676-3.563m0,5.479a1.918,1.918,0,1,1,1.98-1.916,1.946,1.946,0,0,1-1.98,1.916" transform="translate(-57.465 -5.523)" fill="#004b9e"/>
        <path id="패스_3600" data-name="패스 3600" d="M170.684,11.385a.915.915,0,0,0,.345-.81V4.969h-2.639v.9h.182a.577.577,0,0,1,.4.142.525.525,0,0,1,.158.41v.85h-3.769V5.135h-2.641v.918h.182a.578.578,0,0,1,.406.142.524.524,0,0,1,.158.41v3.77a1.354,1.354,0,0,0,.345,1.01,1.306,1.306,0,0,0,.96.343h4.95a1.308,1.308,0,0,0,.959-.343m-1.549-1.426a.221.221,0,0,1-.264.268h-3.243a.456.456,0,0,1-.206-.035c-.038-.021-.056-.093-.056-.217V8.306h3.769Z" transform="translate(-54.885 -1.676)" fill="#004b9e"/>
        <rect id="사각형_1674" data-name="사각형 1674" width="2.062" height="2.381" transform="translate(126.629 10.244)" fill="#004b9e"/>
        <path id="패스_3601" data-name="패스 3601" d="M59.058,29.592c.732,0,.871.671.871,1.263s-.139,1.263-.871,1.263-.871-.67-.871-1.263.139-1.263.871-1.263m0,3.062a1.591,1.591,0,0,0,1.659-1.8,1.665,1.665,0,1,0-3.32,0,1.592,1.592,0,0,0,1.661,1.8" transform="translate(-19.359 -9.801)" fill="#004b9e"/>
        <path id="패스_3602" data-name="패스 3602" d="M65.256,32.619l-1.364-2.87-.01.009v2.861h-.695V29.166h1.1l1.317,2.716.009-.01V29.166h.694v3.453Z" transform="translate(-21.313 -9.837)" fill="#004b9e"/>
        <path id="패스_3603" data-name="패스 3603" d="M69.562,32.045v-.919h.579c.35,0,.59.06.59.459s-.24.46-.59.46Zm0-1.494v-.812h.579c.312,0,.484.127.484.407s-.172.406-.484.406Zm.564,2.067c.531.038,1.393-.21,1.393-.894a.883.883,0,0,0-.761-.9v-.008a.806.806,0,0,0,.607-.757c0-.673-.63-.932-1.249-.893H68.822v3.453Z" transform="translate(-23.213 -9.836)" fill="#004b9e"/>
        <path id="패스_3604" data-name="패스 3604" d="M76.688,29.166V31.33a1.5,1.5,0,0,1-2.995,0V29.166h.742V31.04c0,.584.028,1.116.756,1.116s.756-.532.756-1.116V29.166Z" transform="translate(-24.856 -9.838)" fill="#004b9e"/>
        <path id="패스_3605" data-name="패스 3605" d="M79.987,30.657H80l1.148-1.492h.867L80.743,30.71l1.378,1.909H81.2L80,30.857h-.01v1.761h-.741V29.166h.741Z" transform="translate(-26.729 -9.837)" fill="#004b9e"/>
        <path id="패스_3606" data-name="패스 3606" d="M88.126,32.619l-1.363-2.87-.009.009v2.861h-.7V29.166h1.1l1.315,2.716.009-.01V29.166h.694v3.453Z" transform="translate(-29.027 -9.837)" fill="#004b9e"/>
        <path id="패스_3607" data-name="패스 3607" d="M92.454,31.313l.506-1.473h.01l.475,1.473ZM92,32.619l.257-.732h1.37l.247.732h.746l-1.2-3.453h-.882L91.3,32.619Z" transform="translate(-30.793 -9.838)" fill="#004b9e"/>
        <path id="패스_3608" data-name="패스 3608" d="M95.973,29.166h2.8v.574H97.743v2.879H97V29.739H95.973Z" transform="translate(-32.37 -9.837)" fill="#004b9e"/>
        <rect id="사각형_1675" data-name="사각형 1675" width="0.743" height="3.454" transform="translate(66.76 19.328)" fill="#004b9e"/>
        <path id="패스_3609" data-name="패스 3609" d="M104.261,29.592c.733,0,.871.671.871,1.263s-.138,1.263-.871,1.263-.871-.67-.871-1.263.139-1.263.871-1.263m0,3.062a1.591,1.591,0,0,0,1.659-1.8,1.666,1.666,0,1,0-3.321,0,1.593,1.593,0,0,0,1.661,1.8" transform="translate(-34.606 -9.801)" fill="#004b9e"/>
        <path id="패스_3610" data-name="패스 3610" d="M110.459,32.619l-1.365-2.87-.01.009v2.861h-.694V29.166h1.1l1.314,2.716.01-.01V29.166h.693v3.453Z" transform="translate(-36.559 -9.837)" fill="#004b9e"/>
        <path id="패스_3611" data-name="패스 3611" d="M114.786,31.313l.506-1.473h.009l.474,1.473Zm-.452,1.307.259-.732h1.368l.249.732h.747l-1.2-3.453h-.881l-1.249,3.453Z" transform="translate(-38.325 -9.838)" fill="#004b9e"/>
        <path id="패스_3612" data-name="패스 3612" d="M119.243,32.619V29.166h.743v2.881h1.5v.573Z" transform="translate(-40.219 -9.837)" fill="#004b9e"/>
        <path id="패스_3613" data-name="패스 3613" d="M128.309,29.166V31.33a1.5,1.5,0,0,1-3,0V29.166h.741V31.04c0,.584.03,1.116.757,1.116s.756-.532.756-1.116V29.166Z" transform="translate(-42.267 -9.838)" fill="#004b9e"/>
        <path id="패스_3614" data-name="패스 3614" d="M132.927,32.619l-1.363-2.87-.01.009v2.861h-.694V29.166h1.1l1.315,2.716.011-.01V29.166h.694v3.453Z" transform="translate(-44.137 -9.837)" fill="#004b9e"/>
        <rect id="사각형_1676" data-name="사각형 1676" width="0.742" height="3.454" transform="translate(90.427 19.328)" fill="#004b9e"/>
        <path id="패스_3615" data-name="패스 3615" d="M138.088,29.166h.808l.9,2.722h.008l.9-2.722h.733l-1.272,3.453h-.811Z" transform="translate(-46.576 -9.837)" fill="#004b9e"/>
        <path id="패스_3616" data-name="패스 3616" d="M143.639,29.166h2.314v.574h-1.573v.809h1.473v.573h-1.473v.925h1.626v.573h-2.367Z" transform="translate(-48.448 -9.837)" fill="#004b9e"/>
        <path id="패스_3617" data-name="패스 3617" d="M52.963,29.166h2.315v.574H53.706v.809H55.18v.573H53.706v.925h1.626v.573H52.963Z" transform="translate(-17.864 -9.837)" fill="#004b9e"/>
        <path id="패스_3618" data-name="패스 3618" d="M148.807,29.739h.621c.325,0,.518.134.518.44s-.193.469-.518.473h-.621Zm0,1.486h.785c.243.01.292.274.31.465.034.312.068.621.129.928h.819a2.171,2.171,0,0,1-.2-.818c-.062-.478-.062-.827-.632-.89V30.9a.832.832,0,0,0,.717-.838c0-.7-.607-.893-1.2-.9h-1.468v3.453h.742Z" transform="translate(-49.94 -9.837)" fill="#004b9e"/>
        <path id="패스_3619" data-name="패스 3619" d="M154.7,30.114a.507.507,0,0,0-.573-.522c-.274,0-.551.144-.551.445,0,.372.335.418.632.487.526.135,1.3.283,1.3.977,0,.856-.746,1.153-1.488,1.153-.79,0-1.348-.306-1.324-1.176h.754a.547.547,0,0,0,.58.64c.3,0,.689-.091.689-.461,0-.4-.493-.434-.789-.51-.483-.12-1.143-.34-1.143-.953,0-.789.728-1.138,1.434-1.138a1.059,1.059,0,0,1,1.194,1.057Z" transform="translate(-51.503 -9.801)" fill="#004b9e"/>
        <rect id="사각형_1677" data-name="사각형 1677" width="0.743" height="3.454" transform="translate(104.515 19.328)" fill="#004b9e"/>
        <path id="패스_3620" data-name="패스 3620" d="M159.362,29.166h2.8v.574h-1.028v2.879h-.742V29.739h-1.029Z" transform="translate(-53.751 -9.837)" fill="#004b9e"/>
        <path id="패스_3621" data-name="패스 3621" d="M164.936,31.49l-1.162-2.325h.865l.714,1.585.728-1.585h.759l-1.162,2.325v1.129h-.742Z" transform="translate(-55.239 -9.837)" fill="#004b9e"/>
        <path id="패스_3622" data-name="패스 3622" d="M171,32.619V29.166h.742v1.363h1.306V29.166h.752v3.453h-.743V31.1h-1.315v1.516Z" transform="translate(-57.676 -9.837)" fill="#004b9e"/>
        <path id="패스_3623" data-name="패스 3623" d="M177.679,29.592c.732,0,.869.671.869,1.263s-.138,1.263-.869,1.263-.872-.67-.872-1.263.141-1.263.872-1.263m0,3.062a1.591,1.591,0,0,0,1.661-1.8,1.666,1.666,0,1,0-3.322,0,1.592,1.592,0,0,0,1.661,1.8" transform="translate(-59.369 -9.801)" fill="#004b9e"/>
        <path id="패스_3624" data-name="패스 3624" d="M183.589,30.114a.507.507,0,0,0-.573-.522c-.274,0-.551.144-.551.445,0,.372.335.418.633.487.524.135,1.3.283,1.3.977,0,.856-.747,1.153-1.488,1.153-.79,0-1.351-.306-1.325-1.176h.755a.546.546,0,0,0,.579.64c.3,0,.689-.091.689-.461,0-.4-.492-.434-.788-.51-.483-.12-1.145-.34-1.145-.953,0-.789.729-1.138,1.435-1.138a1.058,1.058,0,0,1,1.192,1.057Z" transform="translate(-61.246 -9.801)" fill="#004b9e"/>
        <path id="패스_3625" data-name="패스 3625" d="M187.358,29.74c.412.019.949-.125.949.488s-.537.469-.949.488Zm0,2.879V31.291h.541c.771-.026,1.2-.437,1.2-1.063,0-.875-.646-1.057-1.412-1.062h-1.066v3.453Z" transform="translate(-62.944 -9.838)" fill="#004b9e"/>
        <rect id="사각형_1678" data-name="사각형 1678" width="0.74" height="3.454" transform="translate(126.582 19.328)" fill="#004b9e"/>
        <path id="패스_3626" data-name="패스 3626" d="M192.659,29.166h2.8v.574h-1.031v2.879h-.742V29.739h-1.029Z" transform="translate(-64.981 -9.837)" fill="#004b9e"/>
        <path id="패스_3627" data-name="패스 3627" d="M197.832,31.313l.508-1.473h.009l.474,1.473Zm-.449,1.307.258-.732h1.369l.249.732h.747l-1.2-3.453h-.881l-1.249,3.453Z" transform="translate(-66.336 -9.838)" fill="#004b9e"/>
        <path id="패스_3628" data-name="패스 3628" d="M202.292,32.619V29.166h.74v2.881h1.5v.573Z" transform="translate(-68.23 -9.837)" fill="#004b9e"/>
        <path id="패스_3629" data-name="패스 3629" d="M48.7,31.332V31.5a.775.775,0,0,0,.1.437.391.391,0,0,0,.336.134.4.4,0,0,0,.369-.148,1.3,1.3,0,0,0,.089-.6V29.16h.817v2.033a2.245,2.245,0,0,1-.182,1.046c-.156.286-.465.455-1.031.455a1.934,1.934,0,0,1-.636-.1.935.935,0,0,1-.424-.281.834.834,0,0,1-.166-.331,2.093,2.093,0,0,1-.052-.522v-.133Z" transform="translate(-16.166 -9.836)" fill="#004b9e"/>
        <path id="패스_3630" data-name="패스 3630" d="M12.649,0A12.648,12.648,0,1,0,25.3,12.648,12.649,12.649,0,0,0,12.649,0" transform="translate(0 0)" fill="#00519b"/>
        <path id="패스_3631" data-name="패스 3631" d="M12.874.665A12.208,12.208,0,1,0,25.081,12.873,12.207,12.207,0,0,0,12.874.665" transform="translate(-0.225 -0.225)" fill="#56a2db"/>
        <path id="패스_3632" data-name="패스 3632" d="M14.4,23.606a9.206,9.206,0,1,1,9.2-9.206,9.205,9.205,0,0,1-9.2,9.206" transform="translate(-1.753 -1.752)" fill="#fff"/>
        <path id="패스_3633" data-name="패스 3633" d="M2.893,22.1c-.374.067-.722.042-.788-.327s.249-.513.624-.581.724-.043.789.326-.259.515-.626.581m.038.211c.514-.093.879-.377.8-.83s-.522-.592-1.036-.5-.877.377-.8.83.522.592,1.036.5" transform="translate(-0.635 -7.067)" fill="#fff"/>
        <path id="패스_3634" data-name="패스 3634" d="M1.66,18.718l1.787-.052.007.254-1.5.79v0l1.518-.044.005.182L1.694,19.9l-.007-.282,1.457-.762v0L1.665,18.9Z" transform="translate(-0.56 -6.296)" fill="#fff"/>
        <path id="패스_3635" data-name="패스 3635" d="M1.937,17.292l.03-.252c.014-.194.07-.325.3-.3s.261.166.232.359l-.028.252Zm1.6-.148a.582.582,0,0,0-.007-.256.458.458,0,0,0-.4-.313.43.43,0,0,0-.493.241H2.633a.394.394,0,0,0-.357-.29.427.427,0,0,0-.515.423l-.058.524,1.777.2Zm-.854.231.038-.341a.27.27,0,0,1,.335-.253.27.27,0,0,1,.271.321l-.038.34Z" transform="translate(-0.575 -5.572)" fill="#fff"/>
        <path id="패스_3636" data-name="패스 3636" d="M3.336,14.242c.448.108.676.372.577.761s-.425.513-.87.394L2,15.129l.051-.2,1.1.28c.3.071.5-.034.553-.26s-.066-.415-.362-.5l-1.1-.281.05-.2Z" transform="translate(-0.673 -4.714)" fill="#fff"/>
        <path id="패스_3637" data-name="패스 3637" d="M4.349,13.4l-1.656-.674.078-.191.718.294L3,11.966l.105-.259.492.914,1.192-.308-.108.268-1.136.273.879.357Z" transform="translate(-0.908 -3.949)" fill="#fff"/>
        <path id="패스_3638" data-name="패스 3638" d="M4.647,8.892l1.5.971-.138.213-1.681-.2v0l1.274.825-.1.152L4,9.888l.152-.235,1.633.2,0,0-1.242-.8Z" transform="translate(-1.35 -2.999)" fill="#fff"/>
        <path id="패스_3639" data-name="패스 3639" d="M6.157,7.75l.827.367-.362.415Zm.825,1.4-.245-.427.452-.516.454.186.148-.168L6.051,7.5l-.144.166L6.842,9.31Z" transform="translate(-1.992 -2.53)" fill="#fff"/>
        <path id="패스_3640" data-name="패스 3640" d="M7.226,6.253l-.366.333L6.716,6.43l.884-.8.142.157-.365.333,1.06,1.165-.152.138Z" transform="translate(-2.265 -1.898)" fill="#fff"/>
        <rect id="사각형_1679" data-name="사각형 1679" width="0.205" height="1.788" transform="matrix(0.793, -0.61, 0.61, 0.793, 5.546, 3.577)" fill="#fff"/>
        <path id="패스_3641" data-name="패스 3641" d="M9.847,5.248c-.2-.323-.307-.655.011-.853s.569.044.771.367.306.655-.012.853-.574-.051-.77-.367m-.184.114c.276.443.674.678,1.065.435s.359-.7.083-1.147-.673-.678-1.064-.435-.359.7-.084,1.147" transform="translate(-3.189 -1.389)" fill="#fff"/>
        <path id="패스_3642" data-name="패스 3642" d="M12.5,2.751l.706,1.642-.232.1-1.287-1.1h0l.6,1.394-.167.072L11.414,3.22l.257-.111,1.247,1.073,0,0-.585-1.358Z" transform="translate(-3.85 -0.928)" fill="#fff"/>
        <path id="패스_3643" data-name="패스 3643" d="M14.556,2.5l.484.765-.531.143Zm-.093,1.622.034-.491.661-.178.276.408.215-.058L14.607,2.232l-.212.057-.133,1.889Z" transform="translate(-4.81 -0.753)" fill="#fff"/>
        <path id="패스_3644" data-name="패스 3644" d="M16.376,3.687l-.254-1.77.2-.029.223,1.559.681-.1.03.211Z" transform="translate(-5.438 -0.637)" fill="#fff"/>
        <path id="패스_3645" data-name="패스 3645" d="M20.007,2.776c-.01.461-.221.738-.621.724s-.591-.307-.569-.767l.038-1.078.205.006L19.019,2.8c0,.307.14.478.374.487s.39-.152.406-.459l.041-1.139.2.007Z" transform="translate(-6.346 -0.558)" fill="#fff"/>
        <path id="패스_3646" data-name="패스 3646" d="M22.487,2.029l-.331,1.756-.25-.046-.453-1.63,0,0L21.168,3.6l-.178-.034.33-1.758.275.053.435,1.585,0,0L22.307,2Z" transform="translate(-7.08 -0.61)" fill="#fff"/>
        <rect id="사각형_1680" data-name="사각형 1680" width="1.788" height="0.204" transform="translate(15.341 3.264) rotate(-73.6)" fill="#fff"/>
        <path id="패스_3647" data-name="패스 3647" d="M25.733,3,24.573,4.464l-.209-.083.162-1.856.191.074-.148,1.583h0l.97-1.261Z" transform="translate(-8.218 -0.852)" fill="#fff"/>
        <path id="패스_3648" data-name="패스 3648" d="M25.541,5.012l.848-1.575.816.44-.1.186-.636-.342-.263.49.6.327-.1.188L26.1,4.4l-.282.521.651.351-.1.187Z" transform="translate(-8.614 -1.16)" fill="#fff"/>
        <path id="패스_3649" data-name="패스 3649" d="M4.295,23.975l-1.7.566-.293-.879.2-.067.229.685.527-.177-.217-.651.2-.068.217.652.562-.187-.234-.7.2-.067Z" transform="translate(-0.777 -7.785)" fill="#fff"/>
        <path id="패스_3650" data-name="패스 3650" d="M28.146,4.743l.276.195a.278.278,0,1,1-.321.454l-.275-.2Zm-.207.795c.064.054.134.095.135.2a.853.853,0,0,1-.16.371c-.054.093-.1.2-.147.3l.179.126a3.115,3.115,0,0,1,.235-.492c.1-.176.144-.284.03-.429l0,0a.416.416,0,0,0,.475-.192.432.432,0,0,0-.151-.656l-.431-.3L27.072,5.913l.167.119.468-.659Z" transform="translate(-9.131 -1.503)" fill="#fff"/>
        <path id="패스_3651" data-name="패스 3651" d="M29.124,6.892a.3.3,0,0,0,0,.473.318.318,0,0,0,.485.026.273.273,0,0,0,.008-.366c-.134-.212-.388-.536-.117-.831a.517.517,0,0,1,.78-.006.457.457,0,0,1,.039.693l-.158-.145a.265.265,0,0,0-.033-.4.3.3,0,0,0-.441-.029c-.138.15-.059.239,0,.363.129.263.4.513.1.845a.534.534,0,0,1-.814,0,.481.481,0,0,1-.007-.767Z" transform="translate(-9.707 -2.028)" fill="#fff"/>
        <rect id="사각형_1681" data-name="사각형 1681" width="1.788" height="0.204" transform="translate(19.864 6.026) rotate(-42.251)" fill="#fff"/>
        <path id="패스_3652" data-name="패스 3652" d="M32.02,8.314l-.3-.393.169-.13.726.949-.168.129-.3-.393-1.25.958-.125-.162Z" transform="translate(-10.378 -2.628)" fill="#fff"/>
        <path id="패스_3653" data-name="패스 3653" d="M32.632,10.426l.979-.064.117.2-1.288.088-.545.321-.1-.176.547-.321.7-1.083.117.2Z" transform="translate(-10.722 -3.167)" fill="#fff"/>
        <path id="패스_3654" data-name="패스 3654" d="M32.731,12.977l1.68-.614.07.191-.721.264.243.659.72-.263.07.192-1.679.614-.071-.192.757-.277-.241-.659-.759.278Z" transform="translate(-11.04 -4.17)" fill="#fff"/>
        <path id="패스_3655" data-name="패스 3655" d="M34.359,15.035c.374-.078.72-.063.8.3s-.234.521-.608.6-.72.064-.8-.3.244-.522.608-.6m-.045-.21c-.511.107-.866.4-.771.852s.539.576,1.049.469.867-.4.772-.853-.539-.577-1.05-.469" transform="translate(-11.308 -4.988)" fill="#fff"/>
        <path id="패스_3656" data-name="패스 3656" d="M34.362,17.428c-.252.022-.337.148-.323.347.012.167.085.367.334.349a.272.272,0,0,0,.258-.258c.048-.247.087-.657.486-.684a.518.518,0,0,1,.572.531.458.458,0,0,1-.449.531l-.015-.214a.264.264,0,0,0,.249-.313c-.009-.144-.088-.338-.3-.323s-.208.133-.247.264c-.088.28-.064.649-.512.68a.531.531,0,0,1-.588-.561.481.481,0,0,1,.521-.563Z" transform="translate(-11.409 -5.795)" fill="#fff"/>
        <path id="패스_3657" data-name="패스 3657" d="M34.917,19.523l.575.03-.018.32c0,.025,0,.267-.3.251s-.275-.256-.273-.281Zm-.988-.258-.012.2.787.042-.015.278a.471.471,0,0,0,.471.55.443.443,0,0,0,.526-.485l.027-.493Z" transform="translate(-11.44 -6.498)" fill="#fff"/>
        <rect id="사각형_1682" data-name="사각형 1682" width="0.204" height="1.788" transform="translate(22.375 14.119) rotate(-82.14)" fill="#fff"/>
        <path id="패스_3658" data-name="패스 3658" d="M35.114,22.484,35.222,22l.208.047-.262,1.165-.207-.046.109-.483-1.537-.345.044-.2Z" transform="translate(-11.31 -7.421)" fill="#fff"/>
        <path id="패스_3659" data-name="패스 3659" d="M34.45,24.118l-.9-.03.18-.52Zm-1.291-.988.387.3-.224.647H32.83l-.072.21,1.884.02.072-.207-1.486-1.172Z" transform="translate(-11.049 -7.735)" fill="#fff"/>
        <path id="패스_3660" data-name="패스 3660" d="M32.473,25.106l1.608.783-.089.184-1.416-.69-.3.619-.192-.093Z" transform="translate(-10.821 -8.468)" fill="#fff"/>
        <path id="패스_3661" data-name="패스 3661" d="M32.619,28.431a.307.307,0,1,1-.306-.306.305.305,0,0,1,.306.306" transform="translate(-10.795 -9.486)" fill="#fff"/>
        <path id="패스_3662" data-name="패스 3662" d="M6.105,28.431a.307.307,0,1,1-.306-.306.306.306,0,0,1,.306.306" transform="translate(-1.852 -9.486)" fill="#fff"/>
        <path id="패스_3663" data-name="패스 3663" d="M16.906,8.557v3.25h2.7v2.348h2.255v2.691h3.668V14.933H23.759V12.2H21.516V9.9h-2.7V8.557Z" transform="translate(-5.702 -2.886)" fill="#00519b"/>
        <path id="패스_3664" data-name="패스 3664" d="M16.593,25.329v-3.25h-2.7V19.706H11.639V17.034H7.971v1.911H9.74v2.684h2.243V23.99h2.7v1.339Z" transform="translate(-2.689 -5.746)" fill="#24845c"/>
        <rect id="사각형_1683" data-name="사각형 1683" width="2.245" height="2.365" transform="translate(8.953 8.923)" fill="#f1a800"/>
        <rect id="사각형_1684" data-name="사각형 1684" width="2.246" height="2.366" transform="translate(13.904 13.964)" fill="#cf5374"/>
        <path id="패스_3665" data-name="패스 3665" d="M7.959,30.148c.011,0,.017,0,.021,0a.018.018,0,0,1,0,.019.616.616,0,0,0-.031.345.711.711,0,0,0,.106.292l.2,0c.005,0,.009,0,.01,0s0-.007,0-.013a.465.465,0,0,1-.079-.16.584.584,0,0,1-.021-.218.7.7,0,0,1,.063-.239.783.783,0,0,1,.168-.237l.048-.048.3.294.1-.1-.778-.78-.1.1.295.294-.048.049a.789.789,0,0,1-.217.156.688.688,0,0,1-.216.067.586.586,0,0,1-.242-.009.46.46,0,0,1-.18-.084.017.017,0,0,0-.013,0s0,.005,0,.011l-.01.192a.73.73,0,0,0,.3.107.609.609,0,0,0,.337-.031" transform="translate(-2.47 -9.881)" fill="#fff"/>
        <path id="패스_3666" data-name="패스 3666" d="M9.456,30.757a.115.115,0,0,1-.03.064l-.238.237L8.87,30.74l-.1.1.317.317h0l-.539.539.089.089c.111.11.254-.044.254-.044l.882-.883-.29-.29-.082.082.032.032a.079.079,0,0,1,.025.071" transform="translate(-2.882 -10.312)" fill="#fff"/>
        <path id="패스_3667" data-name="패스 3667" d="M7.174,31.471a.038.038,0,0,1-.012-.023.039.039,0,0,1,.012-.025l.343-.341-.3-.295-.08.081.031.032a.082.082,0,0,1,.028.068.1.1,0,0,1-.031.064l-.189.189a.161.161,0,0,0,0,.263l.866.864.1-.1Z" transform="translate(-2.331 -10.384)" fill="#fff"/>
        <path id="패스_3668" data-name="패스 3668" d="M15.5,35.2l.458-1.708-.384-.1-.029.113.043.011a.078.078,0,0,1,.058.048.118.118,0,0,1,.005.07l-.115.431-.013.048-.171-.046.156-.581-.39-.105-.03.111.043.013a.073.073,0,0,1,.057.049.1.1,0,0,1,.006.069l-.089.327-.036.138-.1.367a.434.434,0,0,1-.115,0,1.11,1.11,0,0,1-.163-.03l-.421-.113a.046.046,0,0,1-.026-.019.038.038,0,0,1,0-.036l.221-.831.518.139.037-.14-.916-.245-.029.111.043.012a.081.081,0,0,1,.059.044.1.1,0,0,1,0,.07l-.2.738a.294.294,0,0,0,.01.227.279.279,0,0,0,.18.119l.376.1a1.988,1.988,0,0,0,.215.048.565.565,0,0,0,.151.005l-.129.48.115.031c.152.04.2-.165.2-.165l.212-.793.171.044-.291,1.086.109.029c.15.04.2-.164.2-.164" transform="translate(-4.711 -11.19)" fill="#fff"/>
        <path id="패스_3669" data-name="패스 3669" d="M22.758,33.49a.053.053,0,0,1,.017.031l.107.4a2.624,2.624,0,0,1,.08.377.714.714,0,0,1-.019.274l.26-.07a.713.713,0,0,0,.026-.264,1.912,1.912,0,0,0-.07-.365L23,33.294A.031.031,0,0,0,23,33.277a.024.024,0,0,0-.019,0l-1.479.4.036.137,1.186-.317a.057.057,0,0,1,.039,0" transform="translate(-7.251 -11.223)" fill="#fff"/>
        <path id="패스_3670" data-name="패스 3670" d="M22.989,35.29l-.221-.82-.37.1.03.109.036-.01a.072.072,0,0,1,.062.009.086.086,0,0,1,.036.055l.169.628-.239.063-.22-.82-.369.1.028.109.035-.009a.073.073,0,0,1,.062.008.093.093,0,0,1,.038.056l.168.628-.467.125.042.152,1.934-.519L23.7,35.1Z" transform="translate(-7.342 -11.627)" fill="#fff"/>
        <path id="패스_3671" data-name="패스 3671" d="M11.952,33.823l.072-.126-1.733-1-.072.126.727.419-.085.146-.552-.319-.072.123,1.108.64c.007,0,.011.008.012.014a.02.02,0,0,1,0,.017l-.26.452.111.064s.129.089.242-.107l.225-.389a.022.022,0,0,0,0-.019c0-.006,0-.009-.011-.013l-.536-.309,0,0,.084-.147Z" transform="translate(-3.447 -11.028)" fill="#fff"/>
        <path id="패스_3672" data-name="패스 3672" d="M11.112,31.787a.074.074,0,0,1-.009.06l-.186.322a.189.189,0,0,0-.028.144.177.177,0,0,0,.091.107l.99.573a.178.178,0,0,0,.139.024.186.186,0,0,0,.111-.1l.3-.516-.329-.19-.062.107.022.013a.076.076,0,0,1,.038.045.165.165,0,0,1-.024.086l-.026.041-.82-.473.129-.222-.33-.191-.063.11.023.013a.079.079,0,0,1,.037.045m.133.368.821.474-.089.155c-.007.012-.014.019-.02.021a.034.034,0,0,1-.029-.007l-.759-.436c-.013-.009-.019-.014-.021-.019s0-.015.006-.03Z" transform="translate(-3.671 -10.665)" fill="#fff"/>
        <path id="패스_3673" data-name="패스 3673" d="M20.424,34.494V34.35h-.291v-.5h-.411v.114h.046a.078.078,0,0,1,.068.033.111.111,0,0,1,.023.066v.97h.125c.157,0,.149-.21.149-.21v-.325Z" transform="translate(-6.652 -11.416)" fill="#fff"/>
        <path id="패스_3674" data-name="패스 3674" d="M19.463,35.769H17.89v.141H19.2a.02.02,0,0,1,.016.007c.005,0,.006.009.006.017v.537h.136c.156,0,.148-.215.148-.215v-.441a.052.052,0,0,0-.012-.034.047.047,0,0,0-.034-.012" transform="translate(-6.034 -12.065)" fill="#fff"/>
        <path id="패스_3675" data-name="패스 3675" d="M18.244,34.957a.487.487,0,0,0,.406-.75h.258v-.144h-.518v-.272h-.385v.1h.036a.056.056,0,0,1,.037.021.064.064,0,0,1,.021.049v.1h-.514v.144h.253a.488.488,0,0,0,.4.75m0-.224a.262.262,0,1,1,.26-.262.261.261,0,0,1-.26.262" transform="translate(-5.932 -11.398)" fill="#fff"/>
        <path id="패스_3676" data-name="패스 3676" d="M27.211,32.345l-.471-.816-.355.205.058.1.038-.023a.079.079,0,0,1,.076-.007.116.116,0,0,1,.054.046l.055.1-.239.137.074.126.237-.138.074.13-.237.137.071.125.239-.137.019.032.176.3.109-.064c.135-.078.023-.256.023-.256" transform="translate(-8.899 -10.635)" fill="#fff"/>
        <path id="패스_3677" data-name="패스 3677" d="M26.815,33.427a.492.492,0,1,0,.685.172.5.5,0,0,0-.685-.172m.379.654a.265.265,0,1,1,.1-.365.268.268,0,0,1-.1.365" transform="translate(-8.958 -11.251)" fill="#fff"/>
        <path id="패스_3678" data-name="패스 3678" d="M25.984,32.937a.127.127,0,0,0-.016-.121l-.052-.09-.205-.357-.128-.222-.315.182.062.107.022-.013a.084.084,0,0,1,.058-.011.077.077,0,0,1,.048.038l.058.1-.449.26-.148-.255-.315.182.064.109.023-.013a.076.076,0,0,1,.058-.011.073.073,0,0,1,.046.038l.26.451a.187.187,0,0,0,.111.1.183.183,0,0,0,.138-.025l.592-.341a.188.188,0,0,0,.091-.107m-.284-.064a.036.036,0,0,1,.007.028c0,.008-.008.015-.021.022l-.386.224a.062.062,0,0,1-.027.009c-.007,0-.014-.007-.023-.021l-.115-.2.45-.26Z" transform="translate(-8.298 -10.843)" fill="#fff"/>
        <path id="패스_3679" data-name="패스 3679" d="M29.513,29.5a.111.111,0,0,1,.064.03l.557.557.1.1.013.011-.324.324.1.1.325-.323.134.135.089-.088c.11-.111-.044-.254-.044-.254l-.911-.909-.288.29.081.082.032-.032a.076.076,0,0,1,.071-.025" transform="translate(-9.892 -9.843)" fill="#fff"/>
        <path id="패스_3680" data-name="패스 3680" d="M30.319,31.843a.037.037,0,0,1-.026.011.038.038,0,0,1-.025-.011l-.235-.235-.295.295.082.081.031-.032a.084.084,0,0,1,.069-.029.1.1,0,0,1,.064.031l.083.083a.187.187,0,0,0,.133.068.193.193,0,0,0,.13-.066l.821-.822-.1-.1Z" transform="translate(-10.031 -10.494)" fill="#fff"/>
        <path id="패스_3681" data-name="패스 3681" d="M29.058,30.944a.457.457,0,1,0-.642,0,.454.454,0,0,0,.642,0m-.5-.5a.246.246,0,1,1,0,.345.244.244,0,0,1,0-.345" transform="translate(-9.539 -10.175)" fill="#fff"/>
        <path id="패스_3682" data-name="패스 3682" d="M29.46,31.57l.2-.2-.211-.21.437-.435-.1-.1-1,1,.1.1.364-.363Z" transform="translate(-9.708 -10.328)" fill="#fff"/>
        <path id="패스_3683" data-name="패스 3683" d="M4.21,25.338a1.338,1.338,0,0,1,.221-.072.422.422,0,0,1,.189,0,.34.34,0,0,1,.172.094.588.588,0,0,1,.136.2.471.471,0,0,1,.04.37.4.4,0,0,1-.23.221l-.135.06L4.506,26l.123-.05a.269.269,0,0,0,.143-.127.2.2,0,0,0-.01-.184c-.041-.091-.1-.147-.164-.154a.725.725,0,0,0-.292.072l-1.192.512-.1-.223Z" transform="translate(-1.017 -8.519)" fill="#fff"/>
        <path id="패스_3684" data-name="패스 3684" d="M4.21,25.338a1.338,1.338,0,0,1,.221-.072.422.422,0,0,1,.189,0,.34.34,0,0,1,.172.094.588.588,0,0,1,.136.2.471.471,0,0,1,.04.37.4.4,0,0,1-.23.221l-.135.06L4.506,26l.123-.05a.269.269,0,0,0,.143-.127.2.2,0,0,0-.01-.184c-.041-.091-.1-.147-.164-.154a.725.725,0,0,0-.292.072l-1.192.512-.1-.223Z" transform="translate(-1.017 -8.519)" fill="none" stroke="#fff" stroke-width="0.087"/>
      </g>
    </g>
  </g>
</svg>
