<svg xmlns="http://www.w3.org/2000/svg" xmlns:xlink="http://www.w3.org/1999/xlink" width="130" height="130" viewBox="0 0 130 130">
  <defs>
    <clipPath id="clip-path">
      <rect id="사각형_1813" data-name="사각형 1813" width="72.289" height="73.278" fill="#0f249a"/>
    </clipPath>
  </defs>
  <g id="그룹_13965" data-name="그룹 13965" transform="translate(-895 -731)">
    <g id="그룹_13981" data-name="그룹 13981">
      <g id="그룹_13964" data-name="그룹 13964" transform="translate(-22 118)">
        <circle id="타원_54" data-name="타원 54" cx="65" cy="65" r="65" transform="translate(917 613)" fill="#f4f4f4"/>
      </g>
      <g id="그룹_3631" data-name="그룹 3631" transform="translate(924 759)">
        <g id="그룹_3630" data-name="그룹 3630" clip-path="url(#clip-path)">
          <path id="패스_3793" data-name="패스 3793" d="M0,225.2a8.113,8.113,0,0,0,.423-.709q9.206-19.6,18.4-39.2c.983-2.093,2.9-2.432,4.526-.794q8.733,8.79,17.46,17.585c.1.1.207.2.3.308a1.066,1.066,0,0,1-.022,1.536,1.1,1.1,0,0,1-1.542-.018c-.491-.449-.948-.936-1.417-1.409q-8.1-8.16-16.2-16.319c-.7-.709-.774-.694-1.208.225-.574,1.216-.574,1.216.376,2.165q10.581,10.578,21.15,21.168c.528.53.966.778,1.62.293a2.288,2.288,0,0,1,.512-.249c.532-.215.572-.488.157-.887-.617-.594-1.218-1.206-1.811-1.825a1.117,1.117,0,0,1-.093-1.695,1.087,1.087,0,0,1,1.636.149c.63.615,1.25,1.241,1.866,1.871a2.551,2.551,0,0,1-.8,4.365q-7.806,3.65-15.622,7.28Q17.73,224.621,5.753,230.2a4.4,4.4,0,0,0-.467.29H4.429L0,226.06V225.2m9.845.655c1.246-.576,2.369-1.128,3.52-1.614a.919.919,0,0,0,.651-1.005c-.024-4-.013-8-.013-11.993a3.412,3.412,0,0,1,.016-.641,1.01,1.01,0,0,1,1.051-.883.987.987,0,0,1,1.063.86,4.445,4.445,0,0,1,.03.783q0,5.354,0,10.708c0,.248.022.5.037.833,1.484-.691,2.885-1.329,4.266-2.007a.774.774,0,0,0,.266-.578c.033-.665.013-1.332.013-2q0-13.136-.011-26.271a1.764,1.764,0,0,0-.266-.971,15.7,15.7,0,0,0-1.262-1.4c-.163.332-.269.539-.368.749-.8,1.7-1.615,3.386-2.385,5.1a3.3,3.3,0,0,0-.279,1.295c-.024,2.951-.009,5.9-.015,8.852,0,.834-.408,1.313-1.074,1.317s-1.08-.491-1.083-1.306c0-1.38,0-2.76,0-4.141,0-.164-.033-.328-.07-.667-1.33,2.837-2.588,5.5-3.818,8.171a2.869,2.869,0,0,0-.257,1.155c-.017,4.95-.011,9.9-.011,14.849Zm19.5-25.794v16.727l11.411-5.315L29.342,200.064m-6.305-6.431v26.1c1.324-.62,2.575-1.186,3.8-1.8a.822.822,0,0,0,.282-.634q.022-9.564.006-19.128a.918.918,0,0,0-.151-.59c-1.274-1.3-2.57-2.58-3.938-3.943M7.58,214.728l-.13-.03L2.384,225.483c.406.375.81.742,1.205,1.117.5.474.942,1.263,1.5,1.349.59.092,1.273-.507,1.936-.751a.855.855,0,0,0,.61-.963c-.02-3.636-.01-7.273-.013-10.909,0-.2-.026-.4-.04-.6" transform="translate(0 -157.21)" fill="#0f249a"/>
          <path id="패스_3794" data-name="패스 3794" d="M334.775,145.69a7.145,7.145,0,0,1-1.856,5.035c-.569.637-1.241.743-1.738.3-.531-.473-.5-1.065.092-1.75a4.992,4.992,0,0,0-1.9-8.057,4.8,4.8,0,0,0-5.383,1.17c-3.754,3.716-7.478,7.463-11.214,11.2-.855.855-1.459.976-2,.4-.508-.537-.375-1.138.435-1.947,3.719-3.718,7.422-7.453,11.162-11.149a7.209,7.209,0,0,1,11.468,1.419,6.489,6.489,0,0,1,.935,3.378" transform="translate(-266.039 -118.832)" fill="#0f249a"/>
          <path id="패스_3795" data-name="패스 3795" d="M247.716,102.8a6.451,6.451,0,0,1,5.783,4.041,6.243,6.243,0,0,1-1.189,7.211c-2.924,3.092-5.991,6.049-9.007,9.054a1.065,1.065,0,0,1-1.634.054,1.141,1.141,0,0,1,.185-1.7c2.872-2.879,5.76-5.743,8.622-8.633a4.547,4.547,0,0,0-6.035-6.8c-.918.733-1.485.787-1.958.185-.455-.58-.259-1.218.61-1.912a7.014,7.014,0,0,1,4.623-1.508" transform="translate(-206.823 -88.089)" fill="#0f249a"/>
          <path id="패스_3796" data-name="패스 3796" d="M337.421,0a6.853,6.853,0,0,1,.905.472c1.115.851,2.213,1.725,3.324,2.581a1.272,1.272,0,0,1,.494,1.5c-.477,1.762-.9,3.538-1.352,5.306-.267,1.042-.936,1.347-1.869.837q-2.406-1.317-4.794-2.668a1.128,1.128,0,0,1-.523-1.772c.943-1.784,1.88-3.571,2.868-5.33A4.677,4.677,0,0,1,337.421,0m1.521,8.192c.307-1.2.6-2.29.855-3.394a.66.66,0,0,0-.192-.538c-.537-.458-1.11-.875-1.724-1.349l-1.936,3.619,3,1.662" transform="translate(-285.658)" fill="#0f249a"/>
          <path id="패스_3797" data-name="패스 3797" d="M381.524,266.577c-.412,1.637-.782,3.108-1.154,4.579-.128.506-.239,1.017-.395,1.514a1.067,1.067,0,0,1-1.633.689q-2.572-1.385-5.108-2.838a1.046,1.046,0,0,1-.436-1.577q1.456-2.775,2.953-5.528a1.078,1.078,0,0,1,1.781-.4c1.157.875,2.306,1.762,3.421,2.689a3.271,3.271,0,0,1,.57.871m-4.4-1.092-1.933,3.628,2.995,1.66c.312-1.222.608-2.338.871-3.461a.569.569,0,0,0-.186-.455c-.544-.455-1.113-.879-1.746-1.371" transform="translate(-319.281 -225.104)" fill="#0f249a"/>
          <path id="패스_3798" data-name="패스 3798" d="M184.47,19.464a5.88,5.88,0,0,1-.275.66q-1.305,2.372-2.63,4.733c-.495.879-.975,1.016-1.879.536q-2.643-1.4-5.275-2.827a1.107,1.107,0,0,1-.428-1.866c.864-1.135,1.762-2.244,2.625-3.38a1.222,1.222,0,0,1,1.4-.44c1.84.46,3.675.937,5.512,1.406a1.2,1.2,0,0,1,.952,1.177m-8.057,1.694,3.627,1.927,1.66-3c-1.2-.3-2.3-.588-3.4-.839a.629.629,0,0,0-.519.162c-.457.538-.875,1.11-1.367,1.749" transform="translate(-148.786 -14.414)" fill="#0f249a"/>
          <path id="패스_3799" data-name="패스 3799" d="M459.969,70.72a3.774,3.774,0,0,1-3.722,3.81,3.771,3.771,0,1,1-.07-7.542,3.766,3.766,0,0,1,3.791,3.733M456.225,72.3a1.544,1.544,0,1,0-.022-3.088,1.544,1.544,0,1,0,.022,3.088" transform="translate(-387.68 -57.4)" fill="#0f249a"/>
          <path id="패스_3800" data-name="패스 3800" d="M177.494,140.45a3.749,3.749,0,0,1,7.5-.025,3.749,3.749,0,1,1-7.5.025M181.178,142a1.577,1.577,0,0,0,1.633-1.534,1.573,1.573,0,1,0-3.146-.054A1.588,1.588,0,0,0,181.178,142" transform="translate(-152.091 -117.131)" fill="#0f249a"/>
          <path id="패스_3801" data-name="패스 3801" d="M355.6,105.618c0-.521-.022-1.044.005-1.564a1.11,1.11,0,1,1,2.216.006q.034,1.635,0,3.27a1.111,1.111,0,1,1-2.215-.006c-.027-.567-.005-1.137-.006-1.706" transform="translate(-304.7 -88.153)" fill="#0f249a"/>
          <path id="패스_3802" data-name="패스 3802" d="M380.894,220.631c.57,0,1.141-.018,1.711,0a1.06,1.06,0,0,1,1.11,1.054,1.006,1.006,0,0,1-1.037,1.111c-1.186.04-2.376.04-3.562-.006a1,1,0,0,1-1.007-1.139,1.063,1.063,0,0,1,1.075-1.019c.569-.026,1.141-.005,1.711-.006" transform="translate(-323.992 -189.048)" fill="#0f249a"/>
          <path id="패스_3803" data-name="패스 3803" d="M256.325,153.148c.884,0,1.5.981.984,1.616a19.781,19.781,0,0,1-2.3,2.3.808.808,0,0,1-1.207-.166c-.219-.321-.414-.979-.246-1.186a28.911,28.911,0,0,1,2.36-2.44c.1-.1.311-.1.413-.125" transform="translate(-217.209 -131.229)" fill="#0f249a"/>
          <path id="패스_3804" data-name="패스 3804" d="M278.212,52.143a1.582,1.582,0,1,1,1.623-1.541,1.579,1.579,0,0,1-1.623,1.541" transform="translate(-237.036 -41.97)" fill="#0f249a"/>
          <path id="패스_3805" data-name="패스 3805" d="M410.215,93.338a1.611,1.611,0,1,1,1.642-1.557,1.674,1.674,0,0,1-1.642,1.557" transform="translate(-350.156 -77.219)" fill="#0f249a"/>
          <path id="패스_3806" data-name="패스 3806" d="M328.729,302.318a1.6,1.6,0,1,1-1.6-1.6,1.658,1.658,0,0,1,1.6,1.6" transform="translate(-278.935 -257.682)" fill="#0f249a"/>
        </g>
      </g>
    </g>
  </g>
</svg>
