<svg xmlns="http://www.w3.org/2000/svg" xmlns:xlink="http://www.w3.org/1999/xlink" width="162.713" height="37.162" viewBox="0 0 162.713 37.162">
  <defs>
    <clipPath id="clip-path">
      <rect id="사각형_1652" data-name="사각형 1652" width="162.713" height="37.162" fill="none"/>
    </clipPath>
  </defs>
  <g id="그룹_3551" data-name="그룹 3551" transform="translate(0 0)">
    <g id="그룹_3550" data-name="그룹 3550" transform="translate(0 0)" clip-path="url(#clip-path)">
      <path id="패스_3349" data-name="패스 3349" d="M13.937,37.162c10.558-4.73,13.709-10.1,13.709-18.513V0H0V18.648c0,8.409,3.155,13.783,13.712,18.513Z" transform="translate(0 0)" fill="#c69a58"/>
      <path id="패스_3350" data-name="패스 3350" d="M14.445,36.759C24.382,32.309,27.4,27.25,27.4,19.337V1.221H1.352V19.337c0,7.913,2.945,12.972,12.882,17.422Z" transform="translate(-0.517 -0.467)" fill="#970022"/>
      <path id="패스_3351" data-name="패스 3351" d="M10.71,36.774a2.274,2.274,0,0,0,1.125.925,1.322,1.322,0,0,0,1.074-.137,1.769,1.769,0,0,1,.34.35.456.456,0,0,0-.293.309,1.327,1.327,0,0,0,.564,1.448c.007.035.011.069.011.069a1.234,1.234,0,0,0,.163.555.92.92,0,0,0,.183.223.992.992,0,0,0,.723.679,2.99,2.99,0,0,0,.466.224l.229.1-.073-.062a.8.8,0,0,0,.216.141,2.239,2.239,0,0,0,.749.075l.051-.006a2.154,2.154,0,0,0,1.3-.807,1.271,1.271,0,0,0,.322-.5,2.624,2.624,0,0,0,.02-.615,6.249,6.249,0,0,1,.025-.738c.022-.188.054-.358.243-.45a.758.758,0,0,1,.676.094c.1.046.21.094.317.133s.227.041.313.149a.255.255,0,0,0,.2.1.293.293,0,0,1,.256.123,1.526,1.526,0,0,0,.316.237,1.343,1.343,0,0,0,.408.192.467.467,0,0,0,.307-.05c.083-.048.1-.137.167-.2a1.368,1.368,0,0,1,.3-.183,1.3,1.3,0,0,0,.2-.105c.068-.062.073-.146.111-.224.085-.172.311-.134.413-.3a.475.475,0,0,0-.061-.52c-.074-.086-.174-.143-.245-.231-.04-.049-.095-.081-.122-.138s-.017-.13-.054-.187c-.064-.1-.211-.174-.257-.3-.116-.319.007-.715-.129-1.022-.061-.137-.167-.165-.134-.339a2.451,2.451,0,0,1,.151-.7c.13-.242.392.337.442.4a3.367,3.367,0,0,0,.342.366.69.69,0,0,0,.49.208.385.385,0,0,0,.37-.174c.128-.212-.054-.4-.122-.592a4.606,4.606,0,0,1-.234-.776.761.761,0,0,1,.041-.583c.049-.074.152-.059.21-.128s.06-.194.178-.206c.1-.011.172.1.255.137a.269.269,0,0,0,.366-.155c.022-.046.017-.114.05-.152s.116-.052.16-.075a.365.365,0,0,0,.146-.43c-.061-.167-.236-.259-.326-.4-.066-.106-.025-.2-.015-.328a1.461,1.461,0,0,0-.023-.47.609.609,0,0,0-.122-.224c-.075-.1-.052-.117-.033-.242.011-.069-.014-.253.033-.307s.217.071.293.1a1.252,1.252,0,0,0,.633.038.435.435,0,0,0,.306-.2.512.512,0,0,0-.245-.632c-.125-.087-.078-.141.06-.175a1.92,1.92,0,0,0,.533-.132.4.4,0,0,0,.232-.317c.017-.093.015-.151.092-.213.2-.165.549-.15.433-.511-.058-.18-.308-.37-.24-.575.056-.169.3-.263.254-.468-.062-.305-.408-.368-.65-.418s-.493-.112-.731-.175l-.256-.071-.2-.106-.368-.177s-.564-.169-.586-.173l-.013-.008s-.015,0,0,0l-.036-.02-.17-.1-.393-.127-.306-.1-.033-.018-.111-.051-.169-.066-.079-.028a4,4,0,0,0-1.633-.256l-.175,0a2.719,2.719,0,0,0-.828.091s-.321.131-.321.131l-.126.056-.051.016-.235.078-.12.054-.156.062a3,3,0,0,1-.641.026,4.054,4.054,0,0,0-.76.032,1.969,1.969,0,0,0-.718.29l-.262.134-.036.007-.2.05L15.43,27l-.258.1c.021-.013-.145.057-.145.057l-.16.062c-.014.006-.187.1-.187.1l-.061.037c-.011,0-.233.143-.233.143l-.044.033-.068.049a.146.146,0,0,0-.034.03s-.205.191-.222.209l-.133.162-.046.062a3.584,3.584,0,0,1-.5.469c-.067.037-.224.127-.224.127l-.1.079-.085.069c.009-.007-.311.182-.311.182l-.138.074c-.013.006-.021.012-.034.019l-.115.078-.208.166-.086.067c-.015.01-.256.246-.256.246l-.04.05c.014-.013-.24.32-.24.32l-.028.048a2.982,2.982,0,0,0-.337.8l-.118.351a3.376,3.376,0,0,1-.311.422l.036-.019a.538.538,0,0,0-.077.051l-.059.056s-.09.091-.094.1l-.065.049-.276.271s-.129.216-.129.216L10,32.424l-.105.151-.23.368s-.036.08-.059.136a1.35,1.35,0,0,0-.139.316c-.008.007-.085.093-.085.093a1.262,1.262,0,0,0-.319.442A5.1,5.1,0,0,1,7.555,33.5c-.652-.334-.306.2-.116.366a2.255,2.255,0,0,0,.979.491,4.531,4.531,0,0,1-1.064-.308c-.644-.261-.117.281.057.4a1.841,1.841,0,0,0,.678.267,7.493,7.493,0,0,1-1.545-.251c-.586-.2-.284.158-.117.274a3,3,0,0,0,.99.3,2.655,2.655,0,0,1-.741-.1c-.537-.12.054.309.52.369,0,0-.333.091-.59.13s.034.167.371.167a5.081,5.081,0,0,0,.856-.1,6.423,6.423,0,0,0,.71.091l-.217.132s-1.19.138-1.422.141-.264.233.167.263a3.77,3.77,0,0,0,.655,0s-.389.23-.578.329c-.224.116-.151.264.286.157a7.723,7.723,0,0,0,1.2-.419,3.92,3.92,0,0,0,.71-.09,3.16,3.16,0,0,1-.587.688c-.223.174.009.222.279.15a1.533,1.533,0,0,0,.907-.675.942.942,0,0,0,.222.033.831.831,0,0,0,.547.473" transform="translate(-2.37 -9.921)" fill="#d1ae79"/>
      <path id="패스_3352" data-name="패스 3352" d="M31.568,46.035h0" transform="translate(-12.068 -17.597)" fill="#71151a"/>
      <path id="패스_3353" data-name="패스 3353" d="M31.568,46.041v0Z" transform="translate(-12.068 -17.6)" fill="#71151a"/>
      <path id="패스_3354" data-name="패스 3354" d="M30.842,30.084a.045.045,0,0,1,.006-.014c-.006.017-.01.017-.006.014" transform="translate(-11.79 -11.495)" fill="#71151a"/>
      <path id="패스_3355" data-name="패스 3355" d="M27.679,38.969l-.007,0c.007.006.007.006.007,0" transform="translate(-10.579 -14.897)" fill="#71151a"/>
      <path id="패스_3356" data-name="패스 3356" d="M28.733,30.607a.566.566,0,0,0,.306.035c.1-.027.288-.112.383-.128.057-.015.138.014.193,0,.156-.049.444-.353.1-.387a2.859,2.859,0,0,0-.614.162,1.1,1.1,0,0,0-.285.1c-.027.013-.159.124-.141.105,0,0-.09.075.057.114" transform="translate(-10.952 -11.517)" fill="#71151a"/>
      <path id="패스_3357" data-name="패스 3357" d="M21.826,36.405c.035-.046.085-.014.127,0s.042.087.062.126.088.107.1.131a1.342,1.342,0,0,1-.125.865.19.19,0,0,1-.138.1c-.053,0-.07-.072-.088-.1-.082-.113-.02-.385,0-.509.022-.165-.108-.427-.025-.545Z" transform="translate(-8.298 -13.908)" fill="#71151a"/>
      <path id="패스_3358" data-name="패스 3358" d="M15.634,36.651c.068-.021.166.016.207,0l.092-.035a.461.461,0,0,1,.322-.04c.053.008.216.074.268.079.085.009.49.053.92.114,0,0,.227-.031.171-.1.035.042-.006-.035-.093-.064l-.033-.034s-.074-.064.065-.112a.324.324,0,0,0,.117-.053c.056-.058-.023-.122-.023-.122-.2-.069-.432.062-.739.03a2.114,2.114,0,0,0-.574-.066,1.987,1.987,0,0,0-.732.3s-.078.133.032.1" transform="translate(-5.954 -13.857)" fill="#71151a"/>
      <path id="패스_3359" data-name="패스 3359" d="M19.131,34.2c.21-.011.217.2.224.182-.024.153-.4.167-.49.287-.267.346-.155.675-.78.707,0,0-.124-.028-.077-.078a1.564,1.564,0,0,1,.246-.116c.083-.048.074-.178.127-.258.012-.02.083-.043.1-.062.174-.236.2-.475.5-.617.013-.007.125-.04.149-.044" transform="translate(-6.88 -13.076)" fill="#71151a"/>
      <path id="패스_3360" data-name="패스 3360" d="M22.791,32.7a.162.162,0,0,1,.188.04,5.2,5.2,0,0,1,.268.623,2.763,2.763,0,0,1,0,.8c-.078.206-.266.363-.227.726a1.832,1.832,0,0,0,.2.569,2.076,2.076,0,0,1,.111.25,2.24,2.24,0,0,1-.085.61c-.048.393.106.752.045,1.129a.6.6,0,0,1-.167.343l-.072.062c-.02.037-.055.052-.09.08l-.046.044c-.063.017-.072.054-.1.059-.168.037-.2-.062-.19-.039-.172-.484.114-1.047-.034-1.513-.032-.106-.162-.213-.177-.327-.059-.418.331-.64.325-.92,0-.2-.261-.461-.32-.66a1.75,1.75,0,0,1-.023-.963c.023-.069.115-.188.138-.28.049-.182.123-.33.149-.448a.45.45,0,0,1,.053-.125.181.181,0,0,1,.051-.061" transform="translate(-8.541 -12.494)" fill="#71151a"/>
      <path id="패스_3361" data-name="패스 3361" d="M30.12,31.089c.282-.035.408.078.278.319l-.056.053c-.025.008-.1.106-.114.119a1.9,1.9,0,0,0-.37.292c-.037.042-.063.15-.106.188a1.87,1.87,0,0,1-.416.182.949.949,0,0,1-.853-.483c-.044-.167,0-.334.074-.371a1.924,1.924,0,0,1,.524-.039,2.392,2.392,0,0,0,.628-.075c.121-.04.264-.167.41-.183" transform="translate(-10.882 -11.883)" fill="#71151a"/>
      <path id="패스_3362" data-name="패스 3362" d="M23.945,31.089c-.1-.015-.1-.186-.35-.13-.18.038-.225.3-.485.288l-.125-.062c-.112-.028-.194.013-.292-.035-.454-.212.351-1.3.61-1.284a.686.686,0,0,1,.161.065c.085.07.085.371.159.482.057.075.149.07.225.128a.924.924,0,0,1,.259.387s.043.185-.163.159" transform="translate(-8.624 -11.418)" fill="#71151a"/>
      <path id="패스_3363" data-name="패스 3363" d="M19.489,31.967c-.175.1-.555.25-.638.419a2.092,2.092,0,0,0-.081.272c0,.014-.053.031-.067.065a1.931,1.931,0,0,0-.51.031c-.128.035-.311.172-.448.195-.286.049-.507-.078-.773-.034-.119.02-.2.145-.292.194a.576.576,0,0,0-.186.1l-.059.07a.831.831,0,0,1-.056.121.637.637,0,0,0-.094.269,1.8,1.8,0,0,1-.116.4c-.025.045-.143.143-.162.183s-.036.056,0,.1c-.039-.044-.033.044.2.057a3.955,3.955,0,0,0,.808-.165l.266-.143a3.607,3.607,0,0,0,.3-.25c.194-.24.712-1.116,1.115-.888l.072.053a1.058,1.058,0,0,1-.1.727l-.092.109c-.072.025-.12.212-.132.3a1.138,1.138,0,0,0,.035.343.973.973,0,0,1-.066.581.307.307,0,0,0-.064.22c.018.129.2.219.224.322.015.054.061.06,0,.162a2.152,2.152,0,0,1-.224.192c-.059.062-.008.151.03.189.112.1.2.114.29.231.122.158.115.293.387.32.212.019.514.03.385-.259l-.065-.107a2.152,2.152,0,0,1-.225-.565c-.023-.262.188-.4.1-.608-.07-.166-.393-.146-.419-.358a2.219,2.219,0,0,1,.131-.481A1.747,1.747,0,0,1,19,33.941c.031-.092.172-.2.189-.316.029-.213-.135-.347-.062-.58.036-.118.221-.105.289-.194.091-.118.041-.282.093-.451.009-.017.052-.117.061-.135s.038-.216.038-.216c-.024-.13-.107-.076-.117-.082m-2.035,1.7c-.179.042-.2-.343-.626-.192a.8.8,0,0,0-.158.138c-.048.112-.021.4-.078.434,0,0-.168.041-.137-.172a.668.668,0,0,1,.287-.544.422.422,0,0,1,.122-.072.85.85,0,0,1,.647.133c.058.088-.065.278-.057.274" transform="translate(-6.112 -12.218)" fill="#71151a"/>
      <path id="패스_3364" data-name="패스 3364" d="M25.64,28.977c-.032-.157-.459-.146-.629-.354-.064-.085-.018-.13,0-.194.046-.181.437-.074.529-.236a.543.543,0,0,0,.025-.3c-.243-.3-.762-.156-1.124-.3-.177-.072-.395-.219-.578-.287-.23-.09-.409-.1-.643-.193-.053-.023-.156-.1-.21-.12-.258-.1-.46-.125-.719-.233-.028-.013-.11-.059-.14-.071-.1-.046-.139-.053-.245-.091a3.7,3.7,0,0,0-1.48-.234,3.313,3.313,0,0,0-.932.076c-.132.034-.32.151-.447.19a1.859,1.859,0,0,0-.247.078,2.237,2.237,0,0,1-.364.147c-.437.1-1.029-.01-1.476.064a4.954,4.954,0,0,0-.933.418c-.1.032-.137.021-.232.056-.057.02-.187.056-.235.079-.133.07-.221.091-.368.153-.077.035-.163.1-.237.138a1.1,1.1,0,0,0-.2.132l-.071.053s-.159.138-.177.163c-.061.064-.123.154-.178.224a4.138,4.138,0,0,1-.61.576c-.075.052-.125.04-.191.1s-.145.121-.216.179a5.683,5.683,0,0,1-.523.3l-.12.08c-.156.1-.153.143-.315.246-.1.073-.15.183-.25.266a1.251,1.251,0,0,0-.182.273,5.941,5.941,0,0,0-.421,1.094,2.574,2.574,0,0,1-.48.644l-.064.061c-.051.043-.051.056-.1.1a1.539,1.539,0,0,0-.288.258,3.091,3.091,0,0,0-.162.287,5.044,5.044,0,0,0-.319.484,1.457,1.457,0,0,0-.078.178l-.015.02a1.477,1.477,0,0,0-.107.256c-.072.167-.24.259-.465.578a5.483,5.483,0,0,1-1.78-.5,3.072,3.072,0,0,0,1.634.708c-.054.079-.057.16-.154.185a3.735,3.735,0,0,1-1.639-.361,2.811,2.811,0,0,0,1.689.553,5.094,5.094,0,0,1-2.546-.158,5.131,5.131,0,0,0,2.061.4c-.124.066-.462.141-.677.219a8.534,8.534,0,0,1-.906-.13c.022.069.358.161.636.223a7.128,7.128,0,0,1-.817.186,3.82,3.82,0,0,0,.992-.151,7.2,7.2,0,0,0,1.336.139c-.085.041-.4.244-.644.39-.633.061-1.323.112-1.471.13.083.014.64.022,1.232.009-.36.211-.747.43-.935.515A6.288,6.288,0,0,0,8.7,36.141a5.141,5.141,0,0,0,1.154-.128,2.538,2.538,0,0,1-.843,1,1.372,1.372,0,0,0,1-.959,1.126,1.126,0,0,0,.386.087.876.876,0,0,0,.652.463c.077.214.76,1.335,1.728.9a1.1,1.1,0,0,1-.587-.757,2.468,2.468,0,0,1,1.9,1.941c-.267-.091-.6-.247-.641-.381-.072.311-.122.713.569,1.407a3.911,3.911,0,0,0,.043.493,4.021,4.021,0,0,0,.366.309c.009.195-.017.463.494.615.173.141.733.3.815.393a1.841,1.841,0,0,0,.6.053s.242-.04.306-.133c.12-.006.286-.01,1.03-.8.156-.186,0-1.212.038-1.461.074-.18.106-.349.2-.569A.71.71,0,0,1,18.2,38.3a.146.146,0,0,1,.043-.012c.426-.1.984.3,1.247.416.1.04.149.019.227.064.037.022.091.107.127.13.1.055.186.037.291.094.155.085.468.537.738.486.086-.02.153-.214.225-.261.129-.079.3-.07.418-.158s.073-.217.095-.356c0-.006.061-.07.067-.1a1.393,1.393,0,0,0,.288-.029.458.458,0,0,0,.065-.065c.052-.056.015-.117,0-.164s-.15-.116-.193-.159a1.849,1.849,0,0,1-.321-.351c-.03-.06.007-.073-.036-.133s-.152-.135-.185-.221a7.805,7.805,0,0,1-.132-.975c-.048-.084-.114-.074-.164-.149-.107-.169.024-.715.035-.93.007-.174-.161-.067-.161-.067a2.748,2.748,0,0,0-.161,1c0,.041-.064.308-.064.355a2.189,2.189,0,0,1,.032.674.389.389,0,0,1-.353.192,3.126,3.126,0,0,1-.514-.126c-.016-.011-.091-.1-.1-.1-.18-.141-.219-.008-.227.061s.025.09.04.132.08.194.071.207-.064.183-.4-.013a1.605,1.605,0,0,1-.515-.644.485.485,0,0,1,.046-.337c.126-.111.275.043.4.111a.864.864,0,0,0,.148.077.764.764,0,0,0,.206-.013c.489-.027.994.149,1.08-.178.054-.206-.148-.317-.183-.4-.047-.107-.022-.114-.049-.227,0-.009-.037-.083-.043-.094-.053-.085-.017-.159-.064-.254s-.2-.168-.258-.259c-.083-.12-.083-.267-.195-.354-.161-.135-.822-.33-.9-.483-.127-.244.025-.689-.034-.994a.638.638,0,0,0-.2-.385.184.184,0,0,1-.047-.166c.028-.107.088-.077.119-.315.017-.133-.014-.282,0-.418,0-.022.064-.232.065-.259a2.833,2.833,0,0,0-.1-.991c-.038-.128-.154-.237-.195-.355-.033-.1.01-.159-.033-.26-.035-.086-.143-.149-.188-.219-.087-.129-.062-.348-.194-.421-.1-.052-.134.022-.129,0a.582.582,0,0,0,.032.385c.025.067.145.162.163.225.025.121-.018.265,0,.385l.063.131a1.5,1.5,0,0,1-.258.929c-.092.119-.371.272-.384.45-.013.111.03.115.058.161s.175.137.2.193c.014.04.03.033.048.073l.018.089c.02.226-.272.274-.132.542.043.079.18.079.259.132a1.042,1.042,0,0,1,.448.574,3.387,3.387,0,0,1-.03.674c-.065.144-.426.2-.385.483.045.307.857.222,1.088.384.109.078.133.244.163.39.02.08-.06.106-.095.125-.088.051-.146.011-.258.035-.267.053-.689.172-.8.387-.138.245.025.579-.033.863a2.62,2.62,0,0,1-.389.773,1.238,1.238,0,0,0-.233.427,8.143,8.143,0,0,0-.059,1.27l0,.006a.576.576,0,0,1-.137.4c-.177.193-.788.767-1.223.767-.159,0-.225-.057-.4-.186a.879.879,0,0,1-.51-.225c-.045-.082-.526-.568-.222-.7.282-.132.738.153.951.29a1.68,1.68,0,0,0,1.364-.833,7.846,7.846,0,0,0-.116-1.133c-.07-.221-.442-.613-.521-.848a2.015,2.015,0,0,1-.083-.822c-.023-.29-.208-.35-.284-.584a.576.576,0,0,0-.059-.124.681.681,0,0,0-.09-.237c-.116-.174-.225-.212-.329-.383s-.088-.4-.258-.515c-.094-.06-.218-.067-.32-.127-.077-.045-.171-.153-.256-.191-.1-.044-.132-.057-.233-.1-.05-.025-.141-.066-.186-.088s-.091,0-.128-.035c-.125-.105-.034-.2-.1-.382-.007-.022-.053-.023-.063-.065-.053-.013-.142-.1-.214-.049-.094.074-.121.053-.18.2a2.089,2.089,0,0,1-.166.453,1.256,1.256,0,0,1-.222.228.3.3,0,0,1-.157.037l-.241.035-.122.185a1.977,1.977,0,0,0-.2-.019,1.381,1.381,0,0,1-.229.209c-.205.122-.328.036-.342-.006s-.077-.119.063-.2a2.429,2.429,0,0,0,1.1-.9,8.545,8.545,0,0,1-1.217.7c.193-.462,1.387-1.133,1.461-1.213a4.093,4.093,0,0,0-1.5.931c-.168.274-.366.2-.557.191s-.164.188-.172.308-.093.355-.018.4c.125.107.452-.327.56-.093.054.26-.621.249-.615.458-.031.113.626.15.746.269a2.154,2.154,0,0,1-.881.212,1.076,1.076,0,0,1-.232,0,.492.492,0,0,1-.3-.253c-.188-.34.132-.573.137-.659s-.039-.042-.043-.187.156-.166.2-.2-.013-.071,0-.208c.083-.314.592-.672.463-.774-.117-.061-.367.211-.461.335a.871.871,0,0,1-.9.315c-.311.016-.254-.322-.041-.3.251-.05.231-.4.408-.358.056.25-.222.287-.091.343.178.069.2-.166.253-.262s.3-.313.276-.367c-.075-.025-.259.107-.342.17-.2-.508.306-.894.334-1.043.169-.265,1.108-.606,1.125-1.007l.027-.024s.015-.011.044.038h0c0,.024.011.051.017.076a.254.254,0,0,1,0,.064l.006-.04c0,.063,0,.117,0,.1v.061c.01.036.058.053.065.058A.225.225,0,0,0,12.2,32a.311.311,0,0,0,.061-.071.539.539,0,0,0,.172-.166c.162-.235-.149-.578-.064-.9a1.7,1.7,0,0,1,.256-.46c.055-.12-.029-.12-.029-.12a.2.2,0,0,0-.193.1,1.407,1.407,0,0,0-.322.421s-.1.088-.124-.033a.948.948,0,0,1,.24-.641,2.157,2.157,0,0,1,.429-.194c.086-.037.208-.17.293-.191a.141.141,0,0,1,.127,0s.062.043.033.191a.566.566,0,0,0-.042.236c.015.044.009.083.1.083a2.779,2.779,0,0,0,.9-.13c.035-.014.069-.062.1-.091.047-.05.036-.121,0-.13l-.1-.032c.077-.009-.433-.015-.353-.03-.088.015.124-.238.1-.358-.011-.058-.112-.08-.128-.127-.011-.028-.064-.07,0-.1l.074-.03a.967.967,0,0,1,.085-.066,1.031,1.031,0,0,1,.579,0,.471.471,0,0,1,.291.259.565.565,0,0,0,.063.162.392.392,0,0,0,.544.023.93.93,0,0,0,.1-.149A.532.532,0,0,0,15,28.72c-.124-.043-.325-.057-.481-.1-.109-.03-.043-.124-.013-.151l.047-.043a.774.774,0,0,1,.322-.193.71.71,0,0,1,.577-.029c.035.012.131.086.159.095a.472.472,0,0,0,.418-.028c.067-.033.058-.042.064-.064a.235.235,0,0,0-.056-.269c-.032-.232.625.054.727-.09s.036-.384.165-.482c.01-.009.088-.061.093-.063a.573.573,0,0,1,.33.063l.1.05c.208.086.387.132.5.3.072.113.061.274.129.389.029.046.1.078.132.126a.468.468,0,0,0,.124.082.563.563,0,0,0,.159.077c.059.023.141.109.195.13a1.616,1.616,0,0,0,.644.065c.125-.007.2.068.319.032.062-.022.044-.13,0-.176-.076-.1-.136-.074-.261-.145-.049-.033-.113-.13-.162-.159-.147-.1-.359-.11-.449-.259a.337.337,0,0,1-.03-.093l-.035-.068c-.176-.36-.236-.573-.064-.641.1-.041.34-.018.452-.065.027-.014.076-.086.1-.1a1.361,1.361,0,0,1,1-.127c.079.038,0,.242.032.321a.266.266,0,0,0,.141.114,11.075,11.075,0,0,1,1.508.314,2.948,2.948,0,0,1,.641.481c.187.166-.032.352.159.408-.134.017-.243.032-.266-.035a.352.352,0,0,0-.065-.094,1.642,1.642,0,0,0-.512-.419c-.1-.038-.148,0-.259-.032l-.127-.044c-.142-.039-.151-.027-.289-.056-.062-.011-.2-.085-.258-.092-.275-.04-.427.069-.674,0-.116-.035-.265-.217-.356-.266a1.768,1.768,0,0,0-.353-.128.124.124,0,0,0-.116.007c-.072.039-.047.1-.012.155.022.029.04.078.064.093.091.067.274.067.321.16.143.28-.065.38-.095.463-.017.051-.054.09,0,.159a.384.384,0,0,0,.129.094c.132.056.233.033.353.1.086.045.177.2.29.227.255.054.319-.137.448-.164.184-.041.3.057.514,0,.069-.019.11-.1.159-.127a.371.371,0,0,1,.324-.033s.082.039-.034.1c-.067.036-.123.036-.191.072a.319.319,0,0,0-.1.1.633.633,0,0,0-.038.117.179.179,0,0,0,.067.066c.224.076.45-.069.645-.1a1.315,1.315,0,0,1,.654.088s.107.023.036.214c-.044.114-.225.2-.3.3-.04.056-.088.16-.126.215-.069.088-.082.085-.148.166l-.047.068c-.027.082-.355.36-.416.453-.035.056-.054.114-.092.174-.059.085-.1.1-.132.149a1.644,1.644,0,0,1-.431.48A.506.506,0,0,1,21,31.032c-.065-.019-.132-.135-.189-.161-.226-.1-.476-.074-.675-.193-.1-.059-.187-.232-.26-.322-.045-.061-.087-.166-.158-.195-.116-.04-.395,0-.448.1-.109.2.17.721.193.936.016.182-.067.263,0,.414.029.077.153.1.191.161.174.274.023.661.064,1.027a1.382,1.382,0,0,1,.062.42c-.026.254-.358.477-.225.865a.456.456,0,0,0,.077.067.29.29,0,0,0,.183,0c.109-.038.21-.251.321-.322a.137.137,0,0,1,.071-.031c.011-.02.041-.023.057-.033.048-.034.067-.034.095-.094a2.136,2.136,0,0,0,.064-.355,3.824,3.824,0,0,0,.162-.481c.041-.4-.245-1.165-.041-1.29a.72.72,0,0,1,.29-.161c.061-.015.254.046.339.043v0c-.107.247.279.888.246,1.242a2.769,2.769,0,0,1-1.124,1.8c-.057.055-.01.118.032.159.095.093.331.052.451.033a2.12,2.12,0,0,0,.384-.162c.047-.017.107.012.16,0,.133-.032.247-.215.322-.322,0,0,.156-.172.19.054l0,.015a3.723,3.723,0,0,0,0,.637c.039.242.479.967.709,1,.532.08-.013-.594-.037-.642a2.233,2.233,0,0,1-.159-.835c0-.1.086-.3.094-.387a1.422,1.422,0,0,1,0-.192c.046-.085.33-.114.389-.222.015-.035-.007-.093,0-.132a.7.7,0,0,1,.13-.284c.038-.051.094-.077.16,0,.055.059.067.206.162.308l.078.086c.1.061.248-.02.209-.012.1-.028.085-.127.13-.164.006,0,.059-.028.059-.028.235-.242-.284-.456-.287-.678a2.588,2.588,0,0,0-.031-.8c-.02-.071-.145-.165-.158-.227a.886.886,0,0,1,.064-.416c.035-.2-.035-.522.031-.613a.207.207,0,0,1,.224-.062c.082.014.136.148.194.192a1.007,1.007,0,0,0,.8.224c.044,0,.079-.068.086-.084a.229.229,0,0,0-.024-.2c-.127-.169-.615-.3-.642-.381-.019-.064-.093-.147-.011-.192-.046.029.3-.01.428-.037.164-.033.174-.2.288-.254.159-.085.394-.012.486-.161.053-.1.01-.233.059-.323.066-.113.255-.136.353-.225.032-.024.017-.125.013-.158M12.728,36.488c-.064-.069-.01-.205.105-.263a.248.248,0,0,1,.349.069,4.922,4.922,0,0,0,.68.91,1.47,1.47,0,0,1-1.134-.717m1.765,3.248c-.108,0-.827-.6-.717-.977a4.463,4.463,0,0,0,.748.484c.061.037.111.451-.031.494m.832,0c-.093-.084-.786-.817-.613-1.155a4.017,4.017,0,0,0,.909.724c.052.138.046.523-.3.431m.074-2.8a.933.933,0,0,1,.281.682c-.013.093.016.115.1.1s.033-.471.253-.442c.183.027.06.287.153.578a2.165,2.165,0,0,1,.186,1.112c0,.164-.315.381-.5.255-.145-.09-.145-.2-.23-.872-.034-.4-.521-.534-.726-.717-.208-.151-.088-.228-.127-.505-.119-.4-.587-.587-.43-.852a.172.172,0,0,1,.243-.072c.01.2.482.351.8.729m-3.31-1.261c-.012.007-.013.007.006,0l-.006,0c.049-.022.256-.119.31-.139.219-.078.338.04.539-.073.049-.029.1-.107.145-.143s.106-.027.153-.061c.112-.077.321-.316.463-.341.084-.014.083.006.125.011,0,.007.062-.013.046.111-.038.237.522,0,.886.085.251.057.495.145.43.3.01-.019-.074.048-.093.061-.17.125-.305-.013-.39-.024-.152-.017-.259.028-.413.011,0,0-.183-.064-.183-.064a2.261,2.261,0,0,0-.376.064c-.167.01-.25-.047-.4-.033a1.429,1.429,0,0,0-.246.125c-.05.018-.106.035-.159.052-.031.009-.112.053-.151.07a2.072,2.072,0,0,1-.434.127l-.109.029c-.235.031-.214-.13-.14-.171m-.573.917c.256-.061.33,0,.448.292a5.8,5.8,0,0,0,.351.5c-.294.036-.753-.363-.884-.579-.083-.107.042-.19.084-.215M8.3,35.391a4.216,4.216,0,0,0,.752-.258c.043,0,.088,0,.132-.006a.885.885,0,0,0,.106.268l.033.05c-.2,0-.61-.02-1.023-.054m.694.582c.171-.1.336-.214.49-.326a2.258,2.258,0,0,0,.233.234,6.6,6.6,0,0,1-.724.092" transform="translate(-2.533 -10.077)" fill="#71151a"/>
      <path id="패스_3365" data-name="패스 3365" d="M15.467,41.451h.006c-.019.008-.017.008-.006,0" transform="translate(-5.909 -15.846)" fill="#71151a"/>
      <path id="패스_3366" data-name="패스 3366" d="M7.983,9.926c-.064-.055-.133-.117-.211-.187s-.153-.141-.229-.217c-.241-.259-.468-.508-.675-.74l-.262-.287c-.088-.095-.166-.183-.238-.268l-.2-.217c-.024-.027-.044-.051-.063-.07l.025-.03L6.31,7.69c.072-.087.153-.187.243-.3s.18-.225.271-.34l.731-.9.259-.26H6.786L5.3,7.742V5.888H4.356v4.491H5.3V8.358l1.526,1.7a.965.965,0,0,0,.831.324h.93l-.4-.284q-.1-.075-.2-.169" transform="translate(-1.665 -2.251)" fill="#fff"/>
      <path id="패스_3367" data-name="패스 3367" d="M13.563,5.878V8.626a2.877,2.877,0,0,1-.04.5.7.7,0,0,1-.146.33.682.682,0,0,1-.308.2,1.691,1.691,0,0,1-.55.075c-.583,0-.867-.365-.867-1.11V7.3c0-.39,0-.83.007-1.319v-.1h-.951V8.626a4.3,4.3,0,0,0,.038.688,1.4,1.4,0,0,0,.324.671,1.646,1.646,0,0,0,1.269.492H12.7a1.65,1.65,0,0,0,1.271-.494,1.406,1.406,0,0,0,.322-.67,4.212,4.212,0,0,0,.038-.687V5.878Z" transform="translate(-4.094 -2.247)" fill="#fff"/>
      <path id="패스_3368" data-name="패스 3368" d="M7.592,15.946,6.41,18.991h-.3l-1.3-3.029-.392,3.029H3.888l.55-3.767H5.17L6.3,17.871l1.046-2.647h.744l.523,3.767H7.953Z" transform="translate(-1.486 -5.82)" fill="#fff"/>
      <path id="패스_3369" data-name="패스 3369" d="M12.537,18.474H14.3V19H11.882V15.241h2.182v.5H12.537v.973h1.2v.5h-1.2Z" transform="translate(-4.543 -5.826)" fill="#fff"/>
      <path id="패스_3370" data-name="패스 3370" d="M19,15.73a1.7,1.7,0,0,1,.57,1.349,1.765,1.765,0,0,1-.6,1.381,2.227,2.227,0,0,1-1.543.534H16.3V15.233H17.46a2.253,2.253,0,0,1,1.538.5m-.612,2.447a1.089,1.089,0,0,0,.35-.478,1.737,1.737,0,0,0,.115-.631,1.5,1.5,0,0,0-.1-.549,1.22,1.22,0,0,0-.28-.434,1.468,1.468,0,0,0-1.067-.361h-.465v2.788h.365a1.657,1.657,0,0,0,1.079-.335" transform="translate(-6.233 -5.823)" fill="#fff"/>
      <rect id="사각형_1650" data-name="사각형 1650" width="0.649" height="3.756" transform="translate(13.676 9.415)" fill="#fff"/>
      <path id="패스_3371" data-name="패스 3371" d="M26.88,18.756c-.035.017-.085.04-.149.068a2.255,2.255,0,0,1-.233.084c-.094.024-.2.046-.321.065a2.6,2.6,0,0,1-.4.028,2.194,2.194,0,0,1-1.558-.523,1.789,1.789,0,0,1-.576-1.4,1.842,1.842,0,0,1,.549-1.382,1.947,1.947,0,0,1,.642-.424,2.533,2.533,0,0,1,.823-.178,2.369,2.369,0,0,1,.49.019,3.218,3.218,0,0,1,.358.076,1.854,1.854,0,0,1,.3.125v.634c-.08-.053-.158-.1-.235-.141a1.819,1.819,0,0,0-.241-.111,1.577,1.577,0,0,0-.279-.07,1.763,1.763,0,0,0-.332-.018,1.416,1.416,0,0,0-.586.136,1.53,1.53,0,0,0-.434.309,1.306,1.306,0,0,0-.345.941,1.519,1.519,0,0,0,.366,1.03,1.282,1.282,0,0,0,.44.332,1.43,1.43,0,0,0,.545.117,2.054,2.054,0,0,0,.427-.021,2.344,2.344,0,0,0,.346-.078,1.446,1.446,0,0,0,.246-.1c.066-.037.118-.067.156-.091Z" transform="translate(-9.04 -5.768)" fill="#fff"/>
      <rect id="사각형_1651" data-name="사각형 1651" width="0.649" height="3.756" transform="translate(18.18 9.415)" fill="#fff"/>
      <path id="패스_3372" data-name="패스 3372" d="M34.351,15.233h.041V19l-.539-.006-2.2-2.809v2.809H31.16V15.233h.565L33.895,18V15.233Z" transform="translate(-11.912 -5.823)" fill="#fff"/>
      <path id="패스_3373" data-name="패스 3373" d="M37.725,18.474h1.762V19H37.07V15.241h2.182v.5H37.725v.973h1.2v.5h-1.2Z" transform="translate(-14.172 -5.826)" fill="#fff"/>
      <path id="패스_3374" data-name="패스 3374" d="M163.028,20.236c.148-.447.632-2.262.632-6.795V11.954l.018-1.555v-.094H153.71v1.747h7.966v3.119c0,.876-.108,4.245-.623,5.065h-.99V15.77h-1.9v4.467h-1.442V15.77h-1.907v4.467h-2.443v1.744H164.92V20.236Z" transform="translate(-58.25 -3.939)" fill="#8e1d25"/>
      <path id="패스_3375" data-name="패스 3375" d="M115.46,10.1V14.65h-1.265V10.1h-1.833v8.712a4.858,4.858,0,0,1-2.287.5h-2.337V11.872h3.016V10.2h-5.008v9.234a1.57,1.57,0,0,0,1.37,1.6c.02,0,1.358.03,2.735-.034a7.145,7.145,0,0,0,2.512-.461v2.24h1.833V16.424h1.265v6.355h1.831V10.1H115.46Z" transform="translate(-40.426 -3.862)" fill="#8e1d25"/>
      <path id="패스_3376" data-name="패스 3376" d="M58.514,22.014H71.1V20.265H69.21a24.277,24.277,0,0,0,.628-6.729V11.454L69.832,10.4v-.094H59.889v1.752h7.963v3.2c0,.04-.026,4-.606,5H64.4V15.734H62.49v4.531H58.514Z" transform="translate(-22.37 -3.939)" fill="#8e1d25"/>
      <path id="패스_3377" data-name="패스 3377" d="M138.948,22.746h-8.821v1.7h8.728v3.17h1.974V22.746h-1.881Z" transform="translate(-49.747 -8.696)" fill="#8e1d25"/>
      <path id="패스_3378" data-name="패스 3378" d="M133.244,14.877a1.667,1.667,0,1,1,1.66-1.667,1.665,1.665,0,0,1-1.66,1.667m0,1.615a3.438,3.438,0,0,0,3.517-3.344,2.994,2.994,0,0,0-.557-1.726h1.2V9.8h-3.231V8.549h-1.926V9.8h-3.3v1.624h1.3a2.948,2.948,0,0,0-.568,1.726,3.508,3.508,0,0,0,3.57,3.344" transform="translate(-49.295 -3.268)" fill="#8e1d25"/>
      <path id="패스_3379" data-name="패스 3379" d="M146.211,10.17h-1.975v7.023h1.975V14.635h1.312V12.878h-1.312Z" transform="translate(-55.141 -3.888)" fill="#8e1d25"/>
      <path id="패스_3380" data-name="패스 3380" d="M91.682,10.05v2.274H89.546v1.654h2.136v1.915H89.546v1.652h2.136v1.389c-.673.684-2.5.67-2.523.67H84.714V16.3H88.75V10.2H82.575v1.68H86.84v2.681H82.71v.033h-.032v5.188a1.577,1.577,0,0,0,1.374,1.549l4.877-.034a7.109,7.109,0,0,0,2.752-.421v1.886h2V10.05Z" transform="translate(-31.568 -3.842)" fill="#8e1d25"/>
      <path id="패스_3381" data-name="패스 3381" d="M248.023,23.6h-1.969V26.62a1.476,1.476,0,0,0,.288,1,1.035,1.035,0,0,0,.833.313h9.594V26.274h-8.747Z" transform="translate(-94.066 -9.02)" fill="#8e1d25"/>
      <path id="패스_3382" data-name="패스 3382" d="M248.057,11.315a1.6,1.6,0,0,1,1.166-.481,1.563,1.563,0,0,1,1.14.481,1.726,1.726,0,0,1,0,2.495,1.541,1.541,0,0,1-1.14.509,1.566,1.566,0,0,1-1.165-.509,1.759,1.759,0,0,1,0-2.495m4.241,3.136a3.359,3.359,0,0,0-.563-4.4,3.865,3.865,0,0,0-5.042,0,3.213,3.213,0,0,0-1.125,2.525,3.211,3.211,0,0,0,.57,1.878h-1.329v1.68h3.6v2.61h1.963v-2.61h3.266v-1.68Z" transform="translate(-93.59 -3.484)" fill="#8e1d25"/>
      <path id="패스_3383" data-name="패스 3383" d="M259.121,20.06h1.968V10.141h-1.968v7.193h-1.794v1.672h1.794Z" transform="translate(-98.376 -3.877)" fill="#8e1d25"/>
      <path id="패스_3384" data-name="패스 3384" d="M227.982,14.057h-2.993V12.712h2.993ZM229.994,9.6h-1.975v1.466h-3.03V9.6h-2v4.733a1.639,1.639,0,0,0,.273,1.062,1.022,1.022,0,0,0,.841.327h5.891Z" transform="translate(-85.248 -3.669)" fill="#8e1d25"/>
      <path id="패스_3385" data-name="패스 3385" d="M230.236,22.78a1.939,1.939,0,0,1,1.373-.532,1.9,1.9,0,0,1,1.34.532,1.847,1.847,0,0,1,0,2.767,1.88,1.88,0,0,1-1.34.563,1.916,1.916,0,0,1-1.371-.562,1.881,1.881,0,0,1,0-2.768m1.373,4.957a4.066,4.066,0,0,0,2.7-.967,3.38,3.38,0,0,0,0-5.219,4.071,4.071,0,0,0-2.7-.969,4.116,4.116,0,0,0-2.736.97,3.41,3.41,0,0,0,0,5.218,4.117,4.117,0,0,0,2.736.967" transform="translate(-87.033 -7.868)" fill="#8e1d25"/>
      <path id="패스_3386" data-name="패스 3386" d="M236.695,16.182h1.983V9.471h-1.983v1.17H235.1v1.644h1.591V13.2H235.1V14.83h1.591Z" transform="translate(-89.88 -3.621)" fill="#8e1d25"/>
      <path id="패스_3387" data-name="패스 3387" d="M178.259,11.722a1.593,1.593,0,0,1,1.18-.5,1.56,1.56,0,0,1,1.154.5,1.774,1.774,0,0,1,.534,1.308,1.756,1.756,0,0,1-.534,1.29,1.538,1.538,0,0,1-1.154.529,1.562,1.562,0,0,1-1.179-.528,1.778,1.778,0,0,1-.523-1.292,1.8,1.8,0,0,1,.521-1.308m1.194,4.767a3.762,3.762,0,0,0,2.54-.939,3.2,3.2,0,0,0,1.157-2.519,3.235,3.235,0,0,0-1.157-2.547,3.758,3.758,0,0,0-2.54-.94,3.8,3.8,0,0,0-2.57.94,3.254,3.254,0,0,0-1.141,2.547,3.221,3.221,0,0,0,1.141,2.518,3.8,3.8,0,0,0,2.57.94" transform="translate(-67.186 -3.649)" fill="#8e1d25"/>
      <path id="패스_3388" data-name="패스 3388" d="M179.638,23.154h-1.992v3.288a1.462,1.462,0,0,0,.293,1.009,1.026,1.026,0,0,0,.838.317h9.064V26.106h-8.2Z" transform="translate(-67.914 -8.851)" fill="#8e1d25"/>
      <path id="패스_3389" data-name="패스 3389" d="M192.942,9.914h-2v8.9h2V13.947h1.513V12.2h-1.513Z" transform="translate(-72.999 -3.79)" fill="#8e1d25"/>
      <path id="패스_3390" data-name="패스 3390" d="M201.766,11.811a1.493,1.493,0,0,1,1.1-.467,1.478,1.478,0,0,1,1.082.467,1.726,1.726,0,0,1,0,2.431,1.45,1.45,0,0,1-2.184,0,1.752,1.752,0,0,1,0-2.431m1.117,4.517a3.569,3.569,0,0,0,2.42-.893,3.193,3.193,0,0,0,0-4.823,3.572,3.572,0,0,0-2.42-.894,3.608,3.608,0,0,0-2.447.894,3.09,3.09,0,0,0-1.088,2.424,3.059,3.059,0,0,0,1.088,2.4,3.6,3.6,0,0,0,2.447.894" transform="translate(-76.211 -3.715)" fill="#8e1d25"/>
      <path id="패스_3391" data-name="패스 3391" d="M216.088,9.942h-2v6.6h2V13.791H217.6V12.042h-1.513Z" transform="translate(-81.848 -3.801)" fill="#8e1d25"/>
      <path id="패스_3392" data-name="패스 3392" d="M209.137,25.55H203.01V23.439h6.128Zm1.979,1.683V21.758H201.033v4.128a1.521,1.521,0,0,0,.288,1.03,1.092,1.092,0,0,0,.854.318Z" transform="translate(-76.855 -8.318)" fill="#8e1d25"/>
      <path id="패스_3393" data-name="패스 3393" d="M84.7,40.984H86.22v-.621l-1.518,0V39.135c.333-.008,1.857,0,1.874,0h.054V38.5l-2.751,0v4.741h3.043v-.664l-2.221,0Z" transform="translate(-32.067 -14.717)" fill="#8e1d25"/>
      <path id="패스_3394" data-name="패스 3394" d="M130.054,40.984h1.517v-.621l-1.517,0V39.135c.333-.008,1.857,0,1.873,0h.053V38.5l-2.749,0v4.741h3.044l0-.664-2.219,0Z" transform="translate(-49.405 -14.717)" fill="#8e1d25"/>
      <path id="패스_3395" data-name="패스 3395" d="M118.387,38.5v4.75h.816V38.5h-.815Z" transform="translate(-45.259 -14.717)" fill="#8e1d25"/>
      <path id="패스_3396" data-name="패스 3396" d="M149.084,38.5l0,4.75h.817V38.5h-.814Z" transform="translate(-56.994 -14.717)" fill="#8e1d25"/>
      <path id="패스_3397" data-name="패스 3397" d="M79.742,42.164s-.784-.983-.983-1.229a1.771,1.771,0,0,0,.662-.413,1.19,1.19,0,0,0,.359-.836,1.056,1.056,0,0,0-.392-.851,1.7,1.7,0,0,0-1.114-.337H76.7v4.733h.842v-.07a9.473,9.473,0,0,1-.022-.965V39.089a2.279,2.279,0,0,1,1.2.175.579.579,0,0,1,.239.507c0,.524-.387.835-1.172.954l-.09.013,1.662,2.142a1.031,1.031,0,0,0,.854.369h.676l-.139-.095a4.949,4.949,0,0,1-1.009-.99" transform="translate(-29.323 -14.717)" fill="#8e1d25"/>
      <path id="패스_3398" data-name="패스 3398" d="M138.578,42.164l-.982-1.229a1.775,1.775,0,0,0,.663-.413,1.194,1.194,0,0,0,.358-.836,1.059,1.059,0,0,0-.392-.851,1.7,1.7,0,0,0-1.115-.337h-1.572v4.733h.843v-.07a9.011,9.011,0,0,1-.023-.965V39.089a2.27,2.27,0,0,1,1.2.175.575.575,0,0,1,.24.507c0,.524-.386.835-1.172.954l-.091.013,1.661,2.142a1.034,1.034,0,0,0,.856.369h.675l-.138-.095a4.935,4.935,0,0,1-1.01-.99" transform="translate(-51.816 -14.717)" fill="#8e1d25"/>
      <path id="패스_3399" data-name="패스 3399" d="M113.447,38.5v3.481L110.708,38.5H110v4.743h.621V39.7l2.778,3.543.681,0V38.5h-.628Z" transform="translate(-42.051 -14.717)" fill="#8e1d25"/>
      <path id="패스_3400" data-name="패스 3400" d="M151.567,38.5v.052l0,.573s1.227,0,1.325,0v4.121h.817s0-4.019,0-4.121h1.351V38.5Z" transform="translate(-57.943 -14.717)" fill="#8e1d25"/>
      <path id="패스_3401" data-name="패스 3401" d="M92.214,40.845H91c.048-.122.533-1.347.613-1.554.081.208.553,1.432.6,1.554m-.135-2.368h-.757l-1.931,4.754h.73l.65-1.758h1.7c.024.066.662,1.758.662,1.758h.909l-1.932-4.754H92.08" transform="translate(-34.174 -14.709)" fill="#8e1d25"/>
      <path id="패스_3402" data-name="패스 3402" d="M64.744,43.081a4.58,4.58,0,0,1-.662-.6s-1.431-1.584-1.649-1.824C62.489,40.586,64.1,38.6,64.1,38.6l.1-.1h-.811l-1.807,2.256V38.5h-.818v4.74h.818V40.825l1.886,2.1a.977.977,0,0,0,.83.316h.677l-.162-.113-.061-.046" transform="translate(-23.227 -14.719)" fill="#8e1d25"/>
      <path id="패스_3403" data-name="패스 3403" d="M69.6,42.723a1.527,1.527,0,0,1-1.233-.612,2.076,2.076,0,0,1-.458-1.332,1.869,1.869,0,0,1,.46-1.295,1.569,1.569,0,0,1,1.215-.5,1.491,1.491,0,0,1,1.219.6,2.166,2.166,0,0,1,.436,1.358,1.849,1.849,0,0,1-.442,1.272,1.549,1.549,0,0,1-1.2.5m.032-4.355a2.548,2.548,0,0,0-1.839.72,2.348,2.348,0,0,0-.755,1.756,2.388,2.388,0,0,0,.748,1.8,2.609,2.609,0,0,0,3.578-.024,2.424,2.424,0,0,0,.749-1.809,2.348,2.348,0,0,0-.693-1.7,2.448,2.448,0,0,0-1.788-.741" transform="translate(-25.627 -14.668)" fill="#8e1d25"/>
      <path id="패스_3404" data-name="패스 3404" d="M105.975,38.553h-.568l0,2.919c0,.872-.2,1.342-1.273,1.342h.007c-.709,0-1.07-.45-1.07-1.342l0-2.919h-.822l0,2.92a4.461,4.461,0,0,0,.042.743,1.365,1.365,0,0,0,.331.684,1.707,1.707,0,0,0,1.314.509h.4a1.706,1.706,0,0,0,1.318-.513,1.329,1.329,0,0,0,.327-.68,4.282,4.282,0,0,0,.043-.743v-2.92Z" transform="translate(-39.092 -14.739)" fill="#8e1d25"/>
      <path id="패스_3405" data-name="패스 3405" d="M145.265,40.837l-.634-.312-.544-.267q-.6-.317-.6-.676a.487.487,0,0,1,.275-.455,1.128,1.128,0,0,1,.6-.112,1.963,1.963,0,0,1,1.059.305l.083.066v-.841l-.035-.01a3.556,3.556,0,0,0-1.068-.157,2.418,2.418,0,0,0-1.234.287,1.082,1.082,0,0,0-.589.988,1.261,1.261,0,0,0,.655,1.086s.235.117.235.117l.946.465c.4.207.6.451.6.726a.576.576,0,0,1-.326.5,1.189,1.189,0,0,1-.628.175,2.852,2.852,0,0,1-1.424-.384l-.093-.051-.012.775.167.062a3.7,3.7,0,0,0,1.281.216,2.278,2.278,0,0,0,1.432-.434,1.322,1.322,0,0,0,.507-1.075,1.188,1.188,0,0,0-.656-1" transform="translate(-54.49 -14.671)" fill="#8e1d25"/>
      <path id="패스_3406" data-name="패스 3406" d="M161.233,38.507s-1.212,1.869-1.3,2l-1.268-2h-.943s1.689,2.655,1.7,2.681,0,2.065,0,2.065h.825V41.183l1.778-2.676Z" transform="translate(-60.298 -14.719)" fill="#8e1d25"/>
      <path id="패스_3407" data-name="패스 3407" d="M124.622,38.483s-1.269,3.473-1.361,3.728c-.093-.256-1.337-3.728-1.337-3.728h-.936l1.775,4.759.742,0,1.838-4.757h-.721Z" transform="translate(-46.254 -14.712)" fill="#8e1d25"/>
      <path id="패스_3408" data-name="패스 3408" d="M180.845,38.5l0,3.481L178.106,38.5h-.712v4.743h.62l0-3.546,2.774,3.543.683,0V38.5h-.628Z" transform="translate(-67.817 -14.717)" fill="#8e1d25"/>
      <path id="패스_3409" data-name="패스 3409" d="M198.9,43.253h.836l-.662-4.755h-.939l-1.319,3.34-1.429-3.34h-.927l-.691,4.755h.673l.5-3.82,1.636,3.815h.379l1.486-3.84Z" transform="translate(-74.078 -14.717)" fill="#8e1d25"/>
      <path id="패스_3410" data-name="패스 3410" d="M171.274,40.845h-1.215c.048-.122.532-1.347.614-1.554.079.208.554,1.432.6,1.554m-.135-2.368h-.757l-1.93,4.754h.731l.65-1.758h1.7l.663,1.758h.907l-1.931-4.754h-.036" transform="translate(-64.399 -14.709)" fill="#8e1d25"/>
      <path id="패스_3411" data-name="패스 3411" d="M188.055,40.845H186.84c.048-.122.533-1.347.613-1.554.08.208.555,1.432.6,1.554m-.135-2.368h-.756l-1.931,4.754h.731l.649-1.758h1.7c.024.066.662,1.758.662,1.758h.908l-1.932-4.754h-.036" transform="translate(-70.814 -14.709)" fill="#8e1d25"/>
      <path id="패스_3412" data-name="패스 3412" d="M241.083,38.5l0,4.75h.818V38.5h-.815Z" transform="translate(-92.165 -14.717)" fill="#8e1d25"/>
      <path id="패스_3413" data-name="패스 3413" d="M252.436,40.871h-1.214c.048-.122.533-1.351.612-1.554.082.206.558,1.432.6,1.554M252.3,38.5h-.758l-1.929,4.758h.728l.65-1.76h1.7l.66,1.76h.909L252.338,38.5H252.3" transform="translate(-95.428 -14.717)" fill="#8e1d25"/>
      <path id="패스_3414" data-name="패스 3414" d="M258.467,38.5l0,4.752h3.049l-.007-.665-2.219,0V38.5Z" transform="translate(-98.812 -14.718)" fill="#8e1d25"/>
      <path id="패스_3415" data-name="패스 3415" d="M244.113,38.5v.052l0,.573s1.226,0,1.324,0v4.121h.817s0-4.019,0-4.121h1.349V38.5Z" transform="translate(-93.323 -14.717)" fill="#8e1d25"/>
      <path id="패스_3416" data-name="패스 3416" d="M220.109,42.723a1.528,1.528,0,0,1-1.232-.612,2.072,2.072,0,0,1-.458-1.331,1.867,1.867,0,0,1,.461-1.3,1.569,1.569,0,0,1,1.216-.5,1.485,1.485,0,0,1,1.217.6,2.156,2.156,0,0,1,.438,1.358,1.846,1.846,0,0,1-.442,1.272,1.552,1.552,0,0,1-1.2.5m.033-4.355a2.551,2.551,0,0,0-1.84.72,2.347,2.347,0,0,0-.755,1.756,2.389,2.389,0,0,0,.749,1.8,2.609,2.609,0,0,0,3.578-.024,2.424,2.424,0,0,0,.749-1.809,2.348,2.348,0,0,0-.693-1.7,2.449,2.449,0,0,0-1.788-.741" transform="translate(-83.168 -14.668)" fill="#8e1d25"/>
      <path id="패스_3417" data-name="패스 3417" d="M229.665,40.837l-.634-.312-.543-.267q-.6-.317-.6-.676a.486.486,0,0,1,.276-.455,1.123,1.123,0,0,1,.6-.112,1.954,1.954,0,0,1,1.059.305l.085.066v-.841l-.035-.01a3.568,3.568,0,0,0-1.069-.157,2.41,2.41,0,0,0-1.232.287,1.081,1.081,0,0,0-.589.988,1.258,1.258,0,0,0,.655,1.086s.233.117.233.117l.947.465c.4.207.6.451.6.726a.579.579,0,0,1-.326.5,1.193,1.193,0,0,1-.63.175,2.847,2.847,0,0,1-1.423-.384l-.093-.051-.013.775.167.062a3.694,3.694,0,0,0,1.281.216,2.278,2.278,0,0,0,1.433-.434,1.321,1.321,0,0,0,.507-1.075,1.189,1.189,0,0,0-.655-1" transform="translate(-86.756 -14.671)" fill="#8e1d25"/>
      <path id="패스_3418" data-name="패스 3418" d="M212.677,38.507l0,1.863h-2.439l0-1.863h-.809v4.744h.809l0-2.276h2.439l0,2.276h.819V38.507Z" transform="translate(-80.064 -14.721)" fill="#8e1d25"/>
      <path id="패스_3419" data-name="패스 3419" d="M236.926,38.834h0a1.85,1.85,0,0,0-1.138-.327h-1.62v4.744h.817l-.006-4.129.61,0a.862.862,0,0,1,.376,1.68,4.112,4.112,0,0,1-1.174.082s-.145.615.161.618a3.045,3.045,0,0,0,1.908-.387,1.5,1.5,0,0,0,.552-1.158,1.458,1.458,0,0,0-.487-1.127" transform="translate(-89.522 -14.721)" fill="#8e1d25"/>
    </g>
  </g>
</svg>
