<svg id="간암" xmlns="http://www.w3.org/2000/svg" xmlns:xlink="http://www.w3.org/1999/xlink" width="70" height="70" viewBox="0 0 70 70">
  <defs>
    <clipPath id="clip-path">
      <rect id="사각형_149777" data-name="사각형 149777" width="70" height="70" transform="translate(1316 1246)" fill="#fff" stroke="#707070" stroke-width="1"/>
    </clipPath>
    <clipPath id="clip-path-2">
      <rect id="사각형_149776" data-name="사각형 149776" width="63.211" height="43.901" fill="none"/>
    </clipPath>
  </defs>
  <g id="마스크_그룹_134" data-name="마스크 그룹 134" transform="translate(-1316 -1246)" clip-path="url(#clip-path)">
    <g id="그룹_14101" data-name="그룹 14101" transform="translate(1319.173 1259.342)">
      <g id="그룹_14100" data-name="그룹 14100" transform="translate(0 0.001)" clip-path="url(#clip-path-2)">
        <path id="패스_87474" data-name="패스 87474" d="M0,20.8q.03.32.061.639c0,.03.007.06.01.09H.118c0-.256-.02-.514,0-.768.062-.658.115-1.32.225-1.971a20.5,20.5,0,0,1,.461-2.15,21.344,21.344,0,0,1,1.556-4.092,24.211,24.211,0,0,1,2.43-3.832A22.74,22.74,0,0,1,16.817.767,18.5,18.5,0,0,1,19.868.177C20.809.088,21.754.007,22.7,0c.918-.007,1.838.082,2.757.134.718.04,1.437.086,2.155.131q1.555.1,3.109.2Q32.75.6,34.782.731c1.175.078,2.349.16,3.524.237s2.381.148,3.571.226c.81.053,1.62.122,2.431.169,1.226.07,2.454.176,3.681.181,4.942.021,9.886.009,14.829.008.391,0,.391,0,.391.386,0,.534-.005,1.069,0,1.6a15.284,15.284,0,0,1-.719,4.729,15.361,15.361,0,0,1-1.9,3.9,15,15,0,0,1-2.073,2.437,14.69,14.69,0,0,1-3.777,2.66,14.492,14.492,0,0,1-4.684,1.407c-.483.06-.971.088-1.458.121a.206.206,0,0,0-.217.163c-.223.644-.418,1.3-.7,1.921a12.6,12.6,0,0,1-2.1,3.177,13.053,13.053,0,0,1-3.534,2.75c-1.247.685-2.488,1.379-3.733,2.065q-1.639.9-3.279,1.8-2.23,1.219-4.464,2.431a.248.248,0,0,0-.149.253c0,1.362.033,2.724-.008,4.085a5.3,5.3,0,0,1-2.678,4.531,5.39,5.39,0,0,1-2.937.786q-4.907-.006-9.813,0c-.6,0-1.194,0-1.79.006a.813.813,0,0,0-.352.083,9.073,9.073,0,0,1-2.654.913c-.241.04-.487.05-.751.076l.276.066H7.593L8,43.864A8.666,8.666,0,0,1,2.561,41.3a8.032,8.032,0,0,1-2.474-5.48c-.032.205-.059.379-.086.553V20.8M45.16,5.14c-.058-.01-.1-.021-.138-.023-.549-.034-1.1-.066-1.647-.1q-2.025-.128-4.049-.258L35.2,4.489l-3.633-.235-3.633-.229c-1.052-.066-2.1-.133-3.156-.194a29.2,29.2,0,0,0-3.08-.116,19.384,19.384,0,0,0-2.859.345,18.546,18.546,0,0,0-8.492,4.167,19.068,19.068,0,0,0-5.378,7.536,18.3,18.3,0,0,0-1.262,6.726q-.017,6.337,0,12.673a4.829,4.829,0,0,0,1.169,3.229,5,5,0,0,0,6.041,1.286c.943-.465,1.86-.986,2.784-1.49,1.447-.79,2.889-1.588,4.333-2.381s2.919-1.6,4.376-2.4c1.012-.557,2.019-1.124,3.032-1.68,1.477-.81,2.96-1.607,4.435-2.419,2.128-1.171,4.25-2.352,6.378-3.523q1.991-1.1,3.992-2.172a9.4,9.4,0,0,0,2.971-2.436,8.959,8.959,0,0,0,1.321-2.319,7.455,7.455,0,0,0,.547-2.233c.053-.829.066-1.663.069-2.495.009-2.549,0-5.1,0-7.647V5.14m3.692.119v.309q0,4.533,0,9.066c0,.113.005.226,0,.339s.043.133.14.12c.356-.051.714-.09,1.068-.15A11.442,11.442,0,0,0,53.95,13.5,11.209,11.209,0,0,0,56.781,11.1,10.957,10.957,0,0,0,59.2,6.306c.078-.343.14-.689.212-1.047ZM19.818,39.04l.012.037c.09,0,.179-.012.268-.012,1.589,0,3.178,0,4.766.007A1.756,1.756,0,0,0,26.728,37.3c.017-.616.008-1.233.01-1.849v-.228l-6.92,3.818" transform="translate(0 0)"/>
      </g>
    </g>
  </g>
</svg>
