<svg width="178" height="72" viewBox="0 0 178 72" fill="none" xmlns="http://www.w3.org/2000/svg">
<g clip-path="url(#clip0_404_3)">
<path d="M57.1 55.9L54 59.4V64.5H49V41.9H54V52.6L63 41.9H69.2L60.4 52.2L69.7 64.5H63.4L57.1 55.9Z" fill="#CDCDCD"/>
<path d="M80.6 51.6H70V55.8H80.6V51.6Z" fill="#CDCDCD"/>
<path d="M90.1 63.5C88.3 62.5 86.8 61.1 85.8 59.3C84.8 57.5 84.2 55.5 84.2 53.2C84.2 50.9 84.7 48.9 85.8 47.1C86.8 45.3 88.3 43.9 90.1 42.9C91.9 41.9 94 41.4 96.3 41.4C98.3 41.4 100.1 41.8 101.7 42.5C103.3 43.2 104.6 44.3 105.6 45.5C106.6 46.8 107.3 48.2 107.6 49.8H102.5C102.2 48.7 101.5 47.8 100.4 47C99.3 46.3 98 45.9 96.4 45.9C95.1 45.9 93.8 46.2 92.7 46.8C91.6 47.4 90.8 48.3 90.1 49.4C89.5 50.5 89.2 51.7 89.2 53.1C89.2 54.5 89.5 55.7 90.1 56.8C90.7 57.9 91.6 58.8 92.7 59.4C93.8 60 95 60.3 96.4 60.3C97.4 60.3 98.4 60.1 99.3 59.7C100.2 59.3 101 58.8 101.6 58.1C102.2 57.4 102.6 56.8 102.7 56.1H107.8C107.6 57.6 106.9 59.1 105.9 60.4C104.9 61.7 103.5 62.8 101.8 63.7C100.1 64.5 98.3 64.9 96.3 64.9C94 65.1 92 64.5 90.1 63.5Z" fill="#CDCDCD"/>
<path d="M111.8 41.9H116.8V54.5C116.8 56.3 117.3 57.8 118.2 58.9C119.2 60 120.4 60.5 122.1 60.5C123.7 60.5 125 60 126 58.9C127 57.8 127.4 56.3 127.4 54.5V41.9H132.4V54.5C132.4 56.6 132 58.5 131.1 60.1C130.2 61.7 129 62.9 127.5 63.8C125.9 64.7 124.1 65.1 122.1 65.1C120.1 65.1 118.2 64.7 116.7 63.8C115.1 62.9 113.9 61.7 113.1 60.1C112.2 58.5 111.8 56.7 111.8 54.5V41.9Z" fill="#CDCDCD"/>
<path d="M142.6 52.9H146.4C147.7 52.9 148.8 52.6 149.5 52.1C150.2 51.5 150.6 50.7 150.6 49.7C150.6 48.6 150.2 47.8 149.5 47.3C148.8 46.7 147.7 46.5 146.4 46.5H142.6V52.9ZM151 64.5L146.6 57.4H142.6V64.5H137.6V41.9H146.7C148.6 41.9 150.2 42.2 151.6 42.9C153 43.5 154 44.4 154.7 45.6C155.4 46.8 155.8 48.1 155.8 49.7C155.8 51.3 155.4 52.6 154.7 53.8C154 55 153 55.8 151.6 56.5L156.8 64.6H151V64.5Z" fill="#CDCDCD"/>
<path d="M160.6 41.9V64.5H177.6V60.1H165.6V55.3H176.4V50.9H165.6V46.3H177.3V41.9H160.6Z" fill="#CDCDCD"/>
<path d="M51.7 68.5L50 70.2V68.5H49.5V71.9H50V70.8L50.6 70.2L51.8 71.9H52.4L50.9 69.9L52.3 68.5H51.7Z" fill="#CDCDCD"/>
<path d="M52.9 70.7C52.9 71 53 71.3 53.1 71.4C53.2 71.6 53.4 71.6 53.6 71.6C53.8 71.6 54 71.5 54.1 71.4C54.2 71.2 54.3 71 54.3 70.7C54.3 70.4 54.2 70.2 54.1 70C54 69.8 53.8 69.8 53.6 69.8C53.4 69.8 53.2 69.9 53.1 70C53 70.1 52.9 70.4 52.9 70.7ZM52.5 70.7C52.5 70.2 52.6 69.9 52.9 69.7C53.1 69.5 53.4 69.4 53.7 69.4C54 69.4 54.3 69.5 54.5 69.7C54.7 69.9 54.8 70.2 54.8 70.6C54.8 70.9 54.8 71.2 54.7 71.4C54.6 71.6 54.5 71.7 54.3 71.8C54.1 71.9 53.8 72 53.6 72C53.3 72 53 71.9 52.8 71.7C52.6 71.4 52.5 71.1 52.5 70.7Z" fill="#CDCDCD"/>
<path d="M55.2 71.9V69.4H55.6V69.8C55.7 69.6 55.8 69.5 55.9 69.5C56 69.4 56.1 69.4 56.2 69.4C56.3 69.4 56.5 69.4 56.6 69.5L56.5 69.9C56.4 69.8 56.3 69.8 56.2 69.8C56.1 69.8 56 69.8 56 69.9C55.9 70 55.9 70 55.8 70.1C55.8 70.3 55.7 70.4 55.7 70.6V71.9H55.2Z" fill="#CDCDCD"/>
<path d="M57 70.5H58.4C58.4 70.3 58.3 70.1 58.2 70C58.1 69.8 57.9 69.8 57.7 69.8C57.5 69.8 57.3 69.9 57.2 70C57.1 70.1 57 70.2 57 70.5ZM58.4 71.1L58.8 71.2C58.7 71.5 58.6 71.7 58.4 71.8C58.3 71.9 58 72 57.7 72C57.3 72 57 71.9 56.8 71.7C56.6 71.5 56.5 71.2 56.5 70.8C56.5 70.4 56.6 70.1 56.8 69.8C57 69.6 57.3 69.5 57.6 69.5C57.9 69.5 58.2 69.6 58.4 69.8C58.6 70 58.7 70.3 58.7 70.8V70.9H57C57 71.2 57.1 71.4 57.2 71.5C57.3 71.6 57.5 71.7 57.7 71.7C57.9 71.7 58 71.7 58.1 71.6C58.2 71.4 58.3 71.3 58.4 71.1Z" fill="#CDCDCD"/>
<path d="M60.8 70.7C60.6 70.8 60.4 70.8 60.1 70.9C59.9 70.9 59.8 71 59.7 71C59.6 71 59.6 71.1 59.5 71.1C59.5 71.2 59.4 71.2 59.4 71.3C59.4 71.4 59.4 71.5 59.5 71.6C59.6 71.7 59.7 71.7 59.9 71.7C60.1 71.7 60.2 71.7 60.3 71.6C60.4 71.5 60.5 71.4 60.6 71.3C60.6 71.2 60.7 71.1 60.7 70.9V70.7H60.8ZM60.9 71.6C60.7 71.7 60.6 71.8 60.4 71.9C60.3 72 60.1 72 60 72C59.7 72 59.5 71.9 59.4 71.8C59.3 71.7 59.2 71.5 59.2 71.3C59.2 71.2 59.2 71.1 59.3 71C59.4 70.9 59.4 70.8 59.5 70.8C59.6 70.7 59.7 70.7 59.8 70.7C59.9 70.7 60 70.7 60.2 70.6C60.5 70.6 60.8 70.5 61 70.5C61 70.4 61 70.4 61 70.4C61 70.2 61 70.1 60.9 70C60.8 69.9 60.6 69.9 60.4 69.9C60.2 69.9 60.1 69.9 60 70C59.9 70.1 59.8 70.2 59.8 70.4L59.4 70.3C59.4 70.1 59.5 70 59.6 69.9C59.7 69.8 59.8 69.7 60 69.7C60.2 69.6 60.4 69.6 60.6 69.6C60.8 69.6 61 69.6 61.1 69.7C61.2 69.7 61.3 69.8 61.4 69.9C61.5 70 61.5 70.1 61.5 70.2C61.5 70.3 61.5 70.4 61.5 70.6V71.2C61.5 71.6 61.5 71.8 61.5 71.9C61.5 72 61.6 72.1 61.6 72.2H61C60.9 71.9 60.9 71.8 60.9 71.6Z" fill="#CDCDCD"/>
<path d="M63 70.5H61.7V70.9H63V70.5Z" fill="#CDCDCD"/>
<path d="M65.8 70.7L66.3 70.8C66.2 71.2 66 71.5 65.8 71.7C65.6 71.9 65.3 72 64.9 72C64.5 72 64.2 71.9 64 71.8C63.8 71.6 63.6 71.4 63.5 71.1C63.4 70.8 63.3 70.5 63.3 70.2C63.3 69.8 63.4 69.5 63.5 69.3C63.6 69 63.8 68.8 64.1 68.7C64.4 68.6 64.6 68.5 64.9 68.5C65.2 68.5 65.5 68.6 65.8 68.8C66 69 66.2 69.2 66.3 69.5L65.9 69.6C65.8 69.4 65.7 69.2 65.6 69.1C65.5 69 65.3 68.9 65 68.9C64.7 68.9 64.5 69 64.3 69.1C64.1 69.2 64 69.4 63.9 69.6C63.8 69.8 63.8 70 63.8 70.3C63.8 70.6 63.8 70.8 63.9 71.1C64 71.3 64.1 71.5 64.3 71.6C64.5 71.7 64.7 71.8 64.9 71.8C65.2 71.8 65.4 71.7 65.5 71.6C65.7 71.2 65.8 71 65.8 70.7Z" fill="#CDCDCD"/>
<path d="M67.1 68.5H66.7V71.9H67.1V68.5Z" fill="#CDCDCD"/>
<path d="M67.7 71.9H68.1V69.4H67.7V71.9ZM67.7 69H68.1V68.5H67.7V69Z" fill="#CDCDCD"/>
<path d="M68.6 71.9V69.4H69V69.8C69.2 69.5 69.4 69.4 69.8 69.4C70 69.4 70.1 69.4 70.2 69.5C70.3 69.6 70.4 69.6 70.5 69.7C70.6 69.8 70.6 69.9 70.6 70C70.6 70.1 70.6 70.2 70.6 70.4V71.9H70.2V70.4C70.2 70.2 70.2 70.1 70.1 70C70.1 69.9 70 69.8 69.9 69.8C69.8 69.7 69.7 69.7 69.6 69.7C69.4 69.7 69.3 69.8 69.1 69.9C69 70 68.9 70.2 68.9 70.5V71.9H68.6Z" fill="#CDCDCD"/>
<path d="M71.2 71.9H71.6V69.4H71.2V71.9ZM71.2 69H71.6V68.5H71.2V69Z" fill="#CDCDCD"/>
<path d="M73.8 71L74.2 71.1C74.2 71.4 74 71.6 73.9 71.8C73.7 72 73.5 72 73.2 72C72.9 72 72.6 71.9 72.4 71.7C72.2 71.5 72.1 71.2 72.1 70.7C72.1 70.4 72.1 70.2 72.2 70C72.3 69.8 72.4 69.6 72.6 69.5C72.8 69.4 73 69.3 73.2 69.3C73.5 69.3 73.7 69.4 73.9 69.5C74.1 69.6 74.2 69.8 74.2 70.1L73.8 70.2C73.8 70 73.7 69.9 73.6 69.8C73.5 69.7 73.4 69.7 73.2 69.7C73 69.7 72.8 69.8 72.7 69.9C72.6 70.1 72.5 70.3 72.5 70.6C72.5 70.9 72.6 71.2 72.7 71.3C72.8 71.5 73 71.5 73.2 71.5C73.4 71.5 73.5 71.4 73.6 71.3C73.7 71.4 73.8 71.2 73.8 71Z" fill="#CDCDCD"/>
<path d="M76.1 70.7001C75.9 70.8001 75.7 70.8001 75.4 70.9001C75.2 70.9001 75.1 71.0001 75 71.0001C74.9 71.0001 74.9 71.1001 74.8 71.1001C74.8 71.2001 74.7 71.2001 74.7 71.3001C74.7 71.4001 74.7 71.5001 74.8 71.6001C74.9 71.7001 75 71.7001 75.2 71.7001C75.4 71.7001 75.5 71.7001 75.6 71.6001C75.7 71.5001 75.8 71.4001 75.9 71.3001C75.9 71.2001 76 71.1001 76 70.9001V70.7001H76.1ZM76.1 71.6001C75.9 71.7001 75.8 71.8001 75.6 71.9001C75.5 72.0001 75.4 72.0001 75.2 72.0001C74.9 72.0001 74.7 71.9001 74.6 71.8001C74.5 71.7001 74.4 71.5001 74.4 71.3001C74.4 71.2001 74.4 71.1001 74.5 71.0001C74.6 70.9001 74.6 70.8001 74.7 70.8001C74.8 70.7001 74.9 70.7001 75 70.7001C75.1 70.7001 75.2 70.7001 75.4 70.6001C75.7 70.6001 76 70.5001 76.2 70.5001C76.2 70.4001 76.2 70.4001 76.2 70.4001C76.2 70.2001 76.2 70.1001 76.1 70.0001C76 69.9001 75.8 69.9001 75.6 69.9001C75.4 69.9001 75.3 69.9001 75.2 70.0001C75.1 70.1001 75 70.2001 75 70.4001L74.6 70.3001C74.6 70.1001 74.7 70.0001 74.8 69.9001C74.9 69.8001 75 69.7001 75.2 69.7001C75.4 69.6001 75.6 69.6001 75.8 69.6001C76 69.6001 76.2 69.6001 76.3 69.7001C76.4 69.7001 76.5 69.8001 76.6 69.9001C76.7 70.0001 76.7 70.1001 76.7 70.2001C76.7 70.3001 76.7 70.4001 76.7 70.6001V71.2001C76.7 71.6001 76.7 71.8001 76.7 71.9001C76.7 72.0001 76.8 72.1001 76.8 72.2001H76.4C76.1 71.9001 76.1 71.8001 76.1 71.6001Z" fill="#CDCDCD"/>
<path d="M77.4 68.5H77V71.9H77.4V68.5Z" fill="#CDCDCD"/>
<path d="M79.5 70.7C79.5 71 79.6 71.3 79.7 71.4C79.8 71.6 80 71.6 80.2 71.6C80.4 71.6 80.5 71.5 80.7 71.4C80.8 71.2 80.9 71 80.9 70.7C80.9 70.4 80.8 70.1 80.7 70C80.6 69.8 80.4 69.8 80.2 69.8C80 69.8 79.9 69.9 79.7 70C79.6 70.1 79.5 70.4 79.5 70.7ZM80.9 71.9V71.6C80.7 71.8 80.5 72 80.2 72C80 72 79.8 71.9 79.7 71.8C79.5 71.7 79.4 71.5 79.3 71.3C79.2 71.1 79.2 70.9 79.2 70.6C79.2 70.4 79.2 70.1 79.3 69.9C79.4 69.7 79.5 69.5 79.7 69.4C79.9 69.3 80 69.2 80.3 69.2C80.5 69.2 80.6 69.2 80.7 69.3C80.8 69.4 80.9 69.4 81 69.5V68.3H81.4V71.7H80.9V71.9Z" fill="#CDCDCD"/>
<path d="M83.4 70.7001C83.2 70.8001 83 70.8001 82.7 70.9001C82.5 70.9001 82.4 71.0001 82.3 71.0001C82.2 71.0001 82.2 71.1001 82.1 71.1001C82.1 71.2001 82 71.2001 82 71.3001C82 71.4001 82 71.5001 82.1 71.6001C82.2 71.7001 82.3 71.7001 82.5 71.7001C82.7 71.7001 82.8 71.7001 82.9 71.6001C83 71.5001 83.1 71.4001 83.2 71.3001C83.2 71.2001 83.3 71.1001 83.3 70.9001V70.7001H83.4ZM83.5 71.6001C83.3 71.7001 83.2 71.8001 83 71.9001C82.9 72.0001 82.7 72.0001 82.5 72.0001C82.2 72.0001 82 71.9001 81.9 71.8001C81.8 71.7001 81.7 71.5001 81.7 71.3001C81.7 71.2001 81.7 71.1001 81.8 71.0001C81.9 70.9001 81.9 70.8001 82 70.8001C82.1 70.7001 82.2 70.7001 82.3 70.7001C82.4 70.7001 82.5 70.7001 82.7 70.6001C83 70.6001 83.3 70.5001 83.5 70.5001C83.5 70.4001 83.5 70.4001 83.5 70.4001C83.5 70.2001 83.5 70.1001 83.4 70.0001C83.3 69.9001 83.1 69.9001 82.9 69.9001C82.7 69.9001 82.6 69.9001 82.5 70.0001C82.4 70.1001 82.3 70.2001 82.3 70.4001L81.9 70.3001C81.9 70.1001 82 70.0001 82.1 69.9001C82.2 69.8001 82.3 69.7001 82.5 69.7001C82.7 69.6001 82.8 69.6001 83.1 69.6001C83.3 69.6001 83.5 69.6001 83.6 69.7001C83.7 69.7001 83.8 69.8001 83.9 69.9001C84 70.0001 84 70.1001 84 70.2001C84 70.3001 84 70.4001 84 70.6001V71.2001C84 71.6001 84 71.8001 84 71.9001C84 72.0001 84.1 72.1001 84.1 72.2001H83.7C83.5 71.9001 83.5 71.8001 83.5 71.6001Z" fill="#CDCDCD"/>
<path d="M85.3 71.6001L85.4 72.0001C85.3 72.0001 85.2 72.0001 85.1 72.0001C84.9 72.0001 84.8 72.0001 84.7 71.9001C84.6 71.9001 84.6 71.8001 84.5 71.7001C84.5 71.6001 84.4 71.5001 84.4 71.2001V69.8001H84.1V69.5001H84.4V68.9001L84.8 68.6001V69.5001H85.2V69.8001H84.8V71.3001C84.8 71.4001 84.8 71.5001 84.8 71.5001C84.8 71.5001 84.8 71.6001 84.9 71.6001H85C85.2 71.6001 85.2 71.6001 85.3 71.6001Z" fill="#CDCDCD"/>
<path d="M87.2 70.7C87 70.8 86.8 70.8 86.5 70.9C86.3 70.9 86.2 71 86.1 71C86 71 86 71 86 71.1C86 71.2 85.9 71.2 85.9 71.3C85.9 71.4 85.9 71.5 86 71.6C86.1 71.7 86.2 71.7 86.4 71.7C86.6 71.7 86.7 71.7 86.8 71.6C86.9 71.5 87 71.4 87.1 71.3C87.1 71.2 87.2 71.1 87.2 70.9V70.7ZM87.3 71.6C87.1 71.7 87 71.8 86.8 71.9C86.7 72 86.5 72 86.3 72C86 72 85.8 71.9 85.7 71.8C85.6 71.7 85.5 71.5 85.5 71.3C85.5 71.2 85.5 71.1 85.6 71C85.7 70.9 85.7 70.8 85.8 70.8C85.9 70.7 86 70.7 86.1 70.7C86.2 70.7 86.3 70.7 86.5 70.6C86.8 70.6 87.1 70.5 87.3 70.5C87.3 70.4 87.3 70.4 87.3 70.4C87.3 70.2 87.3 70.1 87.2 70C87.1 69.9 86.9 69.9 86.7 69.9C86.5 69.9 86.4 69.9 86.3 70C86.1 69.9 86 70 86 70.2L85.6 70.1C85.6 69.9 85.7 69.8 85.8 69.7C85.9 69.6 86 69.5 86.2 69.5C86.4 69.4 86.5 69.4 86.8 69.4C87 69.4 87.2 69.4 87.3 69.5C87.4 69.5 87.5 69.6 87.6 69.7C87.7 69.8 87.7 69.9 87.7 70C87.7 70.1 87.7 70.2 87.7 70.4V71C87.7 71.4 87.7 71.6 87.7 71.7C87.7 71.8 87.8 71.9 87.8 72H87.4C87.3 71.9 87.3 71.8 87.3 71.6Z" fill="#CDCDCD"/>
<path d="M91.8 68.5H92.3V70.5C92.3 70.8 92.3 71.1 92.2 71.3C92.1 71.5 92 71.7 91.8 71.8C91.6 71.9 91.3 72 91 72C90.7 72 90.4 71.9 90.2 71.8C90 71.7 89.8 71.5 89.8 71.3C89.7 71.1 89.7 70.8 89.7 70.4V68.4H90V70.4C90 70.7 90 70.9 90.1 71.1C90.2 71.2 90.3 71.3 90.4 71.4C90.5 71.5 90.7 71.5 90.9 71.5C91.2 71.5 91.5 71.4 91.6 71.3C91.7 71.1 91.8 70.9 91.8 70.4V68.5Z" fill="#CDCDCD"/>
<path d="M93.7 71.6001L93.8 72.0001C93.7 72.0001 93.6 72.0001 93.5 72.0001C93.3 72.0001 93.2 72.0001 93.1 71.9001C93 71.9001 93 71.8001 92.9 71.7001C92.9 71.6001 92.8 71.5001 92.8 71.2001V69.8001H92.5V69.5001H92.8V68.9001L93.2 68.6001V69.5001H93.6V69.8001H93.2V71.3001C93.2 71.4001 93.2 71.5001 93.2 71.5001C93.2 71.5001 93.2 71.6001 93.3 71.6001H93.4C93.6 71.6001 93.7 71.6001 93.7 71.6001Z" fill="#CDCDCD"/>
<path d="M94.1 71.9H94.5V69.4H94.1V71.9ZM94.1 69H94.5V68.5H94.1V69Z" fill="#CDCDCD"/>
<path d="M95.4 68.5H95V71.9H95.4V68.5Z" fill="#CDCDCD"/>
<path d="M96 71.9H96.4V69.4H96V71.9ZM96 69H96.4V68.5H96V69Z" fill="#CDCDCD"/>
<path d="M96.7 71.9V71.6L98.3 69.8C98.1 69.8 98 69.8 97.8 69.8H96.8V69.5H98.8V69.8L97.5 71.4L97.2 71.7C97.4 71.7 97.6 71.7 97.7 71.7H98.9V72.1H96.7V71.9Z" fill="#CDCDCD"/>
<path d="M100.9 70.7C100.7 70.8 100.5 70.8 100.2 70.9C100 70.9 99.9 71 99.8 71C99.7 71 99.7 71.1 99.6 71.1C99.6 71.2 99.5 71.2 99.5 71.3C99.5 71.4 99.5 71.5 99.6 71.6C99.7 71.7 99.8 71.7 100 71.7C100.2 71.7 100.3 71.7 100.4 71.6C100.5 71.5 100.6 71.4 100.7 71.3C100.7 71.2 100.8 71.1 100.8 70.9V70.7H100.9ZM100.9 71.6C100.7 71.7 100.6 71.8 100.4 71.9C100.3 72 100.1 72 99.9 72C99.6 72 99.4 71.9 99.3 71.8C99.2 71.7 99.1 71.5 99.1 71.3C99.1 71.2 99.1 71.1 99.2 71C99.3 70.9 99.3 70.8 99.4 70.8C99.5 70.7 99.6 70.7 99.7 70.7C99.8 70.7 99.9 70.7 100.1 70.6C100.4 70.6 100.7 70.5 100.9 70.5C100.9 70.4 100.9 70.4 100.9 70.4C100.9 70.2 100.9 70.1 100.8 70C100.7 69.9 100.5 69.9 100.3 69.9C100.1 69.9 100 69.9 99.9 70C99.8 70.1 99.7 70.2 99.7 70.4L99.3 70.3C99.3 70.1 99.4 70 99.5 69.9C99.6 69.8 99.7 69.7 99.9 69.7C100.1 69.6 100.2 69.6 100.5 69.6C100.7 69.6 100.9 69.6 101 69.7C101.1 69.7 101.2 69.8 101.3 69.9C101.4 70 101.4 70.1 101.4 70.2C101.4 70.3 101.4 70.4 101.4 70.6V71.2C101.4 71.6 101.4 71.8 101.4 71.9C101.4 72 101.5 72.1 101.5 72.2H101C100.9 71.9 100.9 71.8 100.9 71.6Z" fill="#CDCDCD"/>
<path d="M102.8 71.6L102.9 72C102.8 72 102.7 72 102.6 72C102.4 72 102.3 72 102.2 71.9C102.1 71.9 102.1 71.8 102 71.7C102 71.6 101.9 71.5 101.9 71.2V69.8H101.6V69.5H101.9V68.9L102.3 68.6V69.5H102.7V69.8H102.3V71.3C102.3 71.4 102.3 71.5 102.3 71.5C102.3 71.5 102.3 71.6 102.4 71.6H102.5C102.6 71.6 102.7 71.6 102.8 71.6Z" fill="#CDCDCD"/>
<path d="M103.1 71.9H103.5V69.4H103.1V71.9ZM103.1 69H103.5V68.5H103.1V69Z" fill="#CDCDCD"/>
<path d="M104.3 70.7C104.3 71 104.4 71.3 104.5 71.4C104.6 71.6 104.8 71.6 105 71.6C105.2 71.6 105.4 71.5 105.5 71.4C105.6 71.2 105.7 71 105.7 70.7C105.7 70.4 105.6 70.2 105.5 70C105.4 69.8 105.2 69.8 105 69.8C104.8 69.8 104.6 69.9 104.5 70C104.4 70.1 104.3 70.4 104.3 70.7ZM103.9 70.7C103.9 70.2 104 69.9 104.3 69.7C104.5 69.5 104.8 69.4 105.1 69.4C105.4 69.4 105.7 69.5 105.9 69.7C106.1 69.9 106.2 70.2 106.2 70.6C106.2 70.9 106.2 71.2 106.1 71.4C106 71.6 105.9 71.7 105.7 71.8C105.5 71.9 105.3 72 105.1 72C104.8 72 104.5 71.9 104.3 71.7C104 71.4 103.9 71.1 103.9 70.7Z" fill="#CDCDCD"/>
<path d="M106.6 71.9V69.4H107V69.8C107.2 69.5 107.4 69.4 107.8 69.4C107.9 69.4 108.1 69.4 108.2 69.5C108.3 69.6 108.4 69.6 108.5 69.7C108.6 69.8 108.6 69.9 108.6 70C108.6 70.1 108.6 70.2 108.6 70.4V71.9H108.2V70.4C108.2 70.2 108.2 70.1 108.2 70C108.2 69.9 108.1 69.8 108 69.8C107.9 69.7 107.8 69.7 107.7 69.7C107.5 69.7 107.4 69.8 107.2 69.9C107.1 70 107 70.2 107 70.5V71.9H106.6Z" fill="#CDCDCD"/>
<path d="M110.4 71.9V69.4H110.8V69.8C111 69.5 111.2 69.4 111.6 69.4C111.8 69.4 111.9 69.4 112 69.5C112.1 69.6 112.2 69.6 112.3 69.7C112.4 69.8 112.4 69.9 112.4 70C112.4 70.1 112.4 70.2 112.4 70.4V71.9H112V70.4C112 70.2 112 70.1 112 70C112 69.9 111.9 69.8 111.8 69.8C111.7 69.7 111.6 69.7 111.5 69.7C111.3 69.7 111.2 69.8 111 69.9C110.9 70 110.8 70.2 110.8 70.5V71.9H110.4Z" fill="#CDCDCD"/>
<path d="M113.3 70.5H114.7C114.7 70.3 114.6 70.1 114.5 70C114.4 69.8 114.2 69.8 114 69.8C113.8 69.8 113.6 69.9 113.5 70C113.4 70.1 113.3 70.2 113.3 70.5ZM114.7 71.1L115.1 71.2C115 71.5 114.9 71.7 114.7 71.8C114.5 71.9 114.3 72 114 72C113.6 72 113.3 71.9 113.1 71.7C112.9 71.5 112.8 71.2 112.8 70.8C112.8 70.4 112.9 70.1 113.1 69.8C113.3 69.6 113.6 69.5 113.9 69.5C114.2 69.5 114.5 69.6 114.7 69.8C114.9 70 115 70.3 115 70.8V70.9H113.1C113.1 71.2 113.2 71.4 113.3 71.5C113.4 71.6 113.6 71.7 113.8 71.7C114 71.7 114.1 71.7 114.2 71.6C114.5 71.4 114.6 71.3 114.7 71.1Z" fill="#CDCDCD"/>
<path d="M116.5 71.6L116.6 72C116.5 72 116.4 72 116.3 72C116.1 72 116 72 115.9 71.9C115.8 71.9 115.8 71.8 115.7 71.7C115.7 71.6 115.6 71.5 115.6 71.2V69.8H115.3V69.5H115.6V68.9L116 68.6V69.5H116.4V69.8H116V71.3C116 71.4 116 71.5 116 71.5C116 71.5 116 71.6 116.1 71.6H116.2C116.3 71.6 116.4 71.6 116.5 71.6Z" fill="#CDCDCD"/>
<path d="M117.3 71.8999L116.5 69.3999H116.9L117.3 70.7999L117.4 71.2999C117.4 71.2999 117.4 71.0999 117.5 70.7999L117.9 69.2999H118.3L118.7 70.6999L118.8 71.1999L118.9 70.6999L119.3 69.2999H119.7L118.9 71.7999H118.5L118.1 70.2999L118 69.8999L117.5 71.7999H117.3V71.8999Z" fill="#CDCDCD"/>
<path d="M120.4 70.7C120.4 71 120.5 71.3 120.6 71.4C120.7 71.6 120.9 71.6 121.1 71.6C121.3 71.6 121.5 71.5 121.6 71.4C121.7 71.2 121.8 71 121.8 70.7C121.8 70.4 121.7 70.2 121.6 70C121.5 69.8 121.3 69.8 121.1 69.8C120.9 69.8 120.7 69.9 120.6 70C120.5 70.1 120.4 70.4 120.4 70.7ZM120 70.7C120 70.2 120.1 69.9 120.4 69.7C120.6 69.5 120.9 69.4 121.2 69.4C121.5 69.4 121.8 69.5 122 69.7C122.2 69.9 122.3 70.2 122.3 70.6C122.3 70.9 122.3 71.2 122.2 71.4C122.1 71.6 122 71.7 121.8 71.8C121.6 71.9 121.4 72 121.2 72C120.9 72 120.6 71.9 120.4 71.7C120.1 71.4 120 71.1 120 70.7Z" fill="#CDCDCD"/>
<path d="M122.7 71.9V69.4H123.1V69.8C123.2 69.6 123.3 69.5 123.4 69.5C123.5 69.4 123.6 69.4 123.7 69.4C123.8 69.4 124 69.4 124.1 69.5L124 69.9C123.9 69.8 123.8 69.8 123.7 69.8C123.6 69.8 123.5 69.8 123.5 69.9C123.4 70 123.4 70 123.3 70.1C123.3 70.3 123.2 70.4 123.2 70.6V71.9H122.7Z" fill="#CDCDCD"/>
<path d="M124.2 68.5V71.9H124.7V71L125 70.7L125.8 71.9H126.3L125.3 70.4L126.2 69.5H125.7L124.7 70.5V68.5H124.2Z" fill="#CDCDCD"/>
<path d="M127.9 71.9V69.7H127.5V69.4H127.9V69.1C127.9 68.9 127.9 68.8 127.9 68.7C127.9 68.6 128 68.5 128.1 68.4C128.2 68.3 128.3 68.3 128.5 68.3C128.6 68.3 128.7 68.3 128.9 68.3L128.8 68.7C128.7 68.7 128.6 68.7 128.6 68.7C128.5 68.7 128.4 68.7 128.3 68.8C128.2 68.9 128.2 69 128.2 69.1V69.3H128.7V69.6H128.2V71.8H127.9V71.9Z" fill="#CDCDCD"/>
<path d="M129.3 70.7C129.3 71 129.4 71.3 129.5 71.4C129.6 71.6 129.8 71.6 130 71.6C130.2 71.6 130.4 71.5 130.5 71.4C130.6 71.2 130.7 71 130.7 70.7C130.7 70.4 130.6 70.2 130.5 70C130.4 69.8 130.2 69.8 130 69.8C129.8 69.8 129.6 69.9 129.5 70C129.4 70.1 129.3 70.4 129.3 70.7ZM128.9 70.7C128.9 70.2 129 69.9 129.3 69.7C129.5 69.5 129.8 69.4 130.1 69.4C130.4 69.4 130.7 69.5 130.9 69.7C131.1 69.9 131.2 70.2 131.2 70.6C131.2 70.9 131.2 71.2 131.1 71.4C131 71.6 130.9 71.7 130.7 71.8C130.5 71.9 130.3 72 130.1 72C129.8 72 129.5 71.9 129.3 71.7C129 71.4 128.9 71.1 128.9 70.7Z" fill="#CDCDCD"/>
<path d="M131.6 71.9V69.4H132V69.8C132.1 69.6 132.2 69.5 132.3 69.5C132.4 69.4 132.5 69.4 132.6 69.4C132.7 69.4 132.9 69.4 133 69.5L132.9 69.9C132.8 69.8 132.7 69.8 132.6 69.8C132.5 69.8 132.4 69.8 132.4 69.9C132.3 70 132.3 70 132.2 70.1C132.2 70.3 132.1 70.4 132.1 70.6V71.9H131.6Z" fill="#CDCDCD"/>
<path d="M134.8 70H135.8C136 70 136.2 70 136.3 69.9C136.4 69.9 136.5 69.8 136.6 69.7C136.7 69.6 136.7 69.5 136.7 69.4C136.7 69.2 136.6 69.1 136.5 69C136.4 68.9 136.2 68.8 135.9 68.8H134.8V70ZM134.4 71.9V68.5H135.9C136.2 68.5 136.4 68.5 136.6 68.6C136.8 68.7 136.9 68.8 137 68.9C137.1 69.1 137.1 69.2 137.1 69.4C137.1 69.6 137 69.8 136.9 70C136.7 70.2 136.5 70.3 136.2 70.3C136.3 70.4 136.4 70.4 136.5 70.5C136.6 70.6 136.8 70.8 136.9 71L137.5 71.9H136.9L136.4 71.2C136.3 71 136.2 70.8 136.1 70.7C136 70.6 135.9 70.5 135.9 70.5C135.8 70.5 135.8 70.4 135.7 70.4C135.6 70.4 135.6 70.4 135.4 70.4H134.9V71.9H134.4Z" fill="#CDCDCD"/>
<path d="M138 70.5H139.4C139.4 70.3 139.3 70.1 139.2 70C139.1 69.8 138.9 69.8 138.7 69.8C138.5 69.8 138.3 69.9 138.2 70C138.1 70.1 138 70.2 138 70.5ZM139.4 71.1L139.8 71.2C139.7 71.5 139.6 71.7 139.4 71.8C139.2 71.9 139 72 138.7 72C138.3 72 138 71.9 137.8 71.7C137.6 71.5 137.5 71.2 137.5 70.8C137.5 70.4 137.6 70.1 137.8 69.8C138 69.6 138.3 69.5 138.6 69.5C138.9 69.5 139.2 69.6 139.4 69.8C139.6 70 139.7 70.3 139.7 70.8V70.9H138C138 71.2 138.1 71.4 138.2 71.5C138.3 71.6 138.5 71.7 138.7 71.7C138.9 71.7 139 71.7 139.1 71.6C139.2 71.4 139.3 71.3 139.4 71.1Z" fill="#CDCDCD"/>
<path d="M140.1 71.2L140.5 71.1C140.5 71.3 140.6 71.4 140.7 71.5C140.8 71.6 141 71.6 141.1 71.6C141.3 71.6 141.4 71.6 141.5 71.5C141.6 71.4 141.6 71.3 141.6 71.2C141.6 71.1 141.6 71 141.5 71C141.4 71 141.3 70.9 141.1 70.9C140.8 70.8 140.6 70.8 140.5 70.7C140.4 70.6 140.3 70.6 140.2 70.5C140.1 70.4 140.1 70.3 140.1 70.2C140.1 70.1 140.1 70 140.2 69.9C140.3 69.8 140.3 69.7 140.4 69.7C140.5 69.7 140.6 69.6 140.7 69.6C140.8 69.6 140.9 69.5 141.1 69.5C141.3 69.5 141.5 69.5 141.6 69.6C141.7 69.7 141.9 69.7 141.9 69.8C142 69.9 142 70 142 70.2L141.6 70.3C141.6 70.2 141.5 70.1 141.4 70C141.3 69.9 141.2 69.9 141 69.9C140.8 69.9 140.7 69.9 140.6 70C140.5 70.1 140.5 70.1 140.5 70.2C140.5 70.3 140.5 70.3 140.6 70.3C140.6 70.3 140.7 70.4 140.8 70.4C140.8 70.4 141 70.5 141.2 70.5C141.5 70.6 141.7 70.6 141.8 70.7C141.9 70.8 142 70.8 142.1 70.9C142.2 71 142.2 71.1 142.2 71.3C142.2 71.4 142.2 71.6 142.1 71.7C142 71.8 141.9 71.9 141.7 72C141.5 72.1 141.4 72.1 141.2 72.1C140.9 72.1 140.6 72 140.5 71.9C140.3 71.7 140.1 71.5 140.1 71.2Z" fill="#CDCDCD"/>
<path d="M142.9 70.5H144.3C144.3 70.3 144.2 70.1 144.1 70C144 69.8 143.8 69.8 143.6 69.8C143.4 69.8 143.2 69.9 143.1 70C143 70.1 142.9 70.2 142.9 70.5ZM144.3 71.1L144.7 71.2C144.6 71.5 144.5 71.7 144.3 71.8C144.1 71.9 143.9 72 143.6 72C143.2 72 142.9 71.9 142.7 71.7C142.5 71.5 142.4 71.2 142.4 70.8C142.4 70.4 142.5 70.1 142.7 69.8C142.9 69.6 143.2 69.5 143.5 69.5C143.8 69.5 144.1 69.6 144.3 69.8C144.5 70 144.6 70.3 144.6 70.8V70.9H142.7C142.7 71.2 142.8 71.4 142.9 71.5C143 71.6 143.2 71.7 143.4 71.7C143.6 71.7 143.7 71.7 143.8 71.6C144.1 71.4 144.2 71.3 144.3 71.1Z" fill="#CDCDCD"/>
<path d="M146.7 70.7001C146.5 70.8001 146.3 70.8001 146 70.9001C145.8 70.9001 145.7 71.0001 145.6 71.0001C145.5 71.0001 145.5 71.1001 145.4 71.1001C145.4 71.2001 145.3 71.2001 145.3 71.3001C145.3 71.4001 145.3 71.5001 145.4 71.6001C145.5 71.7001 145.6 71.7001 145.8 71.7001C146 71.7001 146.1 71.7001 146.2 71.6001C146.3 71.5001 146.4 71.4001 146.5 71.3001C146.5 71.2001 146.6 71.1001 146.6 70.9001V70.7001H146.7ZM146.8 71.6001C146.6 71.7001 146.5 71.8001 146.3 71.9001C146.2 72.0001 146 72.0001 145.8 72.0001C145.5 72.0001 145.3 71.9001 145.2 71.8001C145.1 71.7001 145 71.5001 145 71.3001C145 71.2001 145 71.1001 145.1 71.0001C145.2 70.9001 145.2 70.8001 145.3 70.8001C145.4 70.7001 145.5 70.7001 145.6 70.7001C145.7 70.7001 145.8 70.7001 146 70.6001C146.3 70.6001 146.6 70.5001 146.8 70.5001C146.8 70.4001 146.8 70.4001 146.8 70.4001C146.8 70.2001 146.8 70.1001 146.7 70.0001C146.6 69.9001 146.4 69.9001 146.2 69.9001C146 69.9001 145.9 69.9001 145.8 70.0001C145.7 70.1001 145.6 70.2001 145.6 70.4001L145.2 70.3001C145.2 70.1001 145.3 70.0001 145.4 69.9001C145.5 69.8001 145.6 69.7001 145.8 69.7001C146 69.6001 146.2 69.6001 146.4 69.6001C146.6 69.6001 146.8 69.6001 146.9 69.7001C147 69.7001 147.1 69.8001 147.2 69.9001C147.3 70.0001 147.3 70.1001 147.3 70.2001C147.3 70.3001 147.3 70.4001 147.3 70.6001V71.2001C147.3 71.6001 147.3 71.8001 147.3 71.9001C147.3 72.0001 147.4 72.1001 147.4 72.2001H147C146.8 71.9001 146.8 71.8001 146.8 71.6001Z" fill="#CDCDCD"/>
<path d="M147.7 71.9V69.4H148.1V69.8C148.2 69.6 148.3 69.5 148.4 69.5C148.5 69.4 148.6 69.4 148.7 69.4C148.8 69.4 149 69.4 149.1 69.5L149 69.9C148.9 69.8 148.8 69.8 148.7 69.8C148.6 69.8 148.5 69.8 148.5 69.9C148.4 70 148.4 70 148.3 70.1C148.3 70.3 148.2 70.4 148.2 70.6V71.9H147.7Z" fill="#CDCDCD"/>
<path d="M150.8 71L151.2 71.1C151.2 71.4 151 71.6 150.9 71.8C150.7 72 150.5 72 150.2 72C149.9 72 149.6 71.9 149.4 71.7C149.2 71.5 149.1 71.2 149.1 70.7C149.1 70.4 149.1 70.2 149.2 70C149.3 69.8 149.4 69.6 149.6 69.5C149.8 69.4 150 69.3 150.2 69.3C150.5 69.3 150.7 69.4 150.9 69.5C151.1 69.6 151.2 69.8 151.2 70.1L150.8 70.2C150.8 70 150.7 69.9 150.6 69.8C150.5 69.7 150.4 69.7 150.2 69.7C150 69.7 149.8 69.8 149.7 69.9C149.6 70.1 149.5 70.3 149.5 70.6C149.5 70.9 149.6 71.2 149.7 71.3C149.8 71.5 150 71.5 150.2 71.5C150.4 71.5 150.5 71.4 150.6 71.3C150.7 71.4 150.8 71.2 150.8 71Z" fill="#CDCDCD"/>
<path d="M151.5 71.9V68.5H151.9V69.7C152.1 69.5 152.3 69.4 152.6 69.4C152.8 69.4 152.9 69.4 153.1 69.5C153.2 69.6 153.3 69.7 153.4 69.8C153.5 69.9 153.5 70.1 153.5 70.4V72H153.1V70.4C153.1 70.2 153.1 70 153 69.9C152.9 69.8 152.8 69.8 152.6 69.8C152.5 69.8 152.4 69.8 152.2 69.9C152.1 70 152 70.1 152 70.2C152 70.3 151.9 70.5 151.9 70.7V72.1H151.5V71.9Z" fill="#CDCDCD"/>
<path d="M155.4 68.5V71.9H158V71.5H155.8V70.4H157.7V70H155.8V68.9H157.9V68.5H155.4Z" fill="#CDCDCD"/>
<path d="M158.1 71.9L159 70.6L158.2 69.4H158.7L159.1 70C159.2 70.1 159.2 70.2 159.3 70.3C159.4 70.2 159.4 70.1 159.5 70L159.9 69.4H160.4L159.5 70.6L160.4 71.9H160L159.5 71.1L159.4 70.9L158.7 71.9H158.1Z" fill="#CDCDCD"/>
<path d="M162.4 71L162.8 71.1C162.8 71.4 162.6 71.6 162.5 71.8C162.3 72 162.1 72 161.8 72C161.5 72 161.2 71.9 161 71.7C160.8 71.5 160.7 71.2 160.7 70.7C160.7 70.4 160.7 70.2 160.8 70C160.9 69.8 161 69.6 161.2 69.5C161.4 69.4 161.6 69.3 161.8 69.3C162.1 69.3 162.3 69.4 162.5 69.5C162.7 69.6 162.8 69.8 162.8 70.1L162.4 70.2C162.4 70 162.3 69.9 162.2 69.8C162.1 69.7 162 69.7 161.8 69.7C161.6 69.7 161.4 69.8 161.3 69.9C161.2 70.1 161.1 70.3 161.1 70.6C161.1 70.9 161.2 71.2 161.3 71.3C161.4 71.5 161.6 71.5 161.8 71.5C162 71.5 162.1 71.4 162.2 71.3C162.3 71.4 162.3 71.2 162.4 71Z" fill="#CDCDCD"/>
<path d="M163.4 70.5H164.8C164.8 70.3 164.7 70.1 164.6 70C164.5 69.8 164.3 69.8 164.1 69.8C163.9 69.8 163.7 69.9 163.6 70C163.4 70.1 163.4 70.2 163.4 70.5ZM164.7 71.1L165.1 71.2C165 71.5 164.9 71.7 164.7 71.8C164.5 71.9 164.3 72 164 72C163.6 72 163.3 71.9 163.1 71.7C162.9 71.5 162.8 71.2 162.8 70.8C162.8 70.4 162.9 70.1 163.1 69.8C163.3 69.6 163.6 69.5 163.9 69.5C164.2 69.5 164.5 69.6 164.7 69.8C164.9 70 165 70.3 165 70.8V70.9H163.1C163.1 71.2 163.2 71.4 163.3 71.5C163.4 71.6 163.6 71.7 163.8 71.7C164 71.7 164.1 71.7 164.2 71.6C164.6 71.4 164.7 71.3 164.7 71.1Z" fill="#CDCDCD"/>
<path d="M166 68.5H165.6V71.9H166V68.5Z" fill="#CDCDCD"/>
<path d="M167 68.5H166.6V71.9H167V68.5Z" fill="#CDCDCD"/>
<path d="M167.9 70.5H169.3C169.3 70.3 169.2 70.1 169.1 70C169 69.8 168.8 69.8 168.6 69.8C168.4 69.8 168.2 69.9 168.1 70C168 70.1 167.9 70.2 167.9 70.5ZM169.2 71.1L169.6 71.2C169.5 71.5 169.4 71.7 169.2 71.8C169 71.9 168.8 72 168.5 72C168.1 72 167.8 71.9 167.6 71.7C167.4 71.5 167.3 71.2 167.3 70.8C167.3 70.4 167.4 70.1 167.6 69.8C167.8 69.6 168.1 69.5 168.4 69.5C168.7 69.5 169 69.6 169.2 69.8C169.4 70 169.5 70.3 169.5 70.8V70.9H167.6C167.6 71.2 167.7 71.4 167.8 71.5C167.9 71.6 168.1 71.7 168.3 71.7C168.5 71.7 168.6 71.7 168.7 71.6C169.1 71.4 169.2 71.3 169.2 71.1Z" fill="#CDCDCD"/>
<path d="M170.1 71.9V69.4H170.5V69.8C170.7 69.5 170.9 69.4 171.3 69.4C171.5 69.4 171.6 69.4 171.7 69.5C171.8 69.6 171.9 69.6 172 69.7C172.1 69.8 172.1 69.9 172.1 70C172.1 70.1 172.1 70.2 172.1 70.4V71.9H171.7V70.4C171.7 70.2 171.7 70.1 171.6 70C171.6 69.9 171.5 69.8 171.4 69.8C171.3 69.7 171.2 69.7 171.1 69.7C170.9 69.7 170.8 69.8 170.6 69.9C170.5 70 170.4 70.2 170.4 70.5V71.9H170.1Z" fill="#CDCDCD"/>
<path d="M174.3 71L174.7 71.1C174.7 71.4 174.5 71.6 174.4 71.8C174.2 72 174 72 173.7 72C173.4 72 173.1 71.9 172.9 71.7C172.7 71.5 172.6 71.2 172.6 70.7C172.6 70.4 172.6 70.2 172.7 70C172.8 69.8 172.9 69.6 173.1 69.5C173.3 69.4 173.5 69.3 173.7 69.3C174 69.3 174.2 69.4 174.4 69.5C174.6 69.6 174.7 69.8 174.7 70.1L174.3 70.2C174.3 70 174.2 69.9 174.1 69.8C174 69.7 173.9 69.7 173.7 69.7C173.5 69.7 173.3 69.8 173.2 69.9C173.1 70.1 173 70.3 173 70.6C173 70.9 173.1 71.2 173.2 71.3C173.3 71.5 173.5 71.5 173.7 71.5C173.9 71.5 174 71.4 174.1 71.3C174.2 71.4 174.3 71.2 174.3 71Z" fill="#CDCDCD"/>
<path d="M175.3 70.5H176.7C176.7 70.3 176.6 70.1 176.5 70C176.4 69.8 176.2 69.8 176 69.8C175.8 69.8 175.6 69.9 175.5 70C175.4 70.1 175.3 70.2 175.3 70.5ZM176.7 71.1L177.1 71.2C177 71.5 176.9 71.7 176.7 71.8C176.5 71.9 176.3 72 176 72C175.6 72 175.3 71.9 175.1 71.7C174.9 71.5 174.8 71.2 174.8 70.8C174.8 70.4 174.9 70.1 175.1 69.8C175.3 69.6 175.6 69.5 175.9 69.5C176.2 69.5 176.5 69.6 176.7 69.8C176.9 70 177 70.3 177 70.8V70.9H175.1C175.1 71.2 175.2 71.4 175.3 71.5C175.4 71.6 175.6 71.7 175.8 71.7C176 71.7 176.1 71.7 176.2 71.6C176.5 71.4 176.6 71.3 176.7 71.1Z" fill="#CDCDCD"/>
<path d="M26.1 30.7C26.1 30.8 26.1 31 26.1 31.2C26.1 31.3 26.1 31.4 26.1 31.6L6.99996 29C6.99996 28.9 6.99996 28.8999 6.99996 28.7999C6.99996 28.5999 6.99996 28.4 6.89996 28.2L26.1 30.7Z" fill="#CDCDCD"/>
<path d="M6.79996 30.1L12.6 34.3C12.3 34.4 12 34.5 11.8 34.7L6.39996 30.8C6.49996 30.6 6.69996 30.3 6.79996 30.1Z" fill="#CDCDCD"/>
<path d="M22.4 47.7L12 55.5C11.9 55.3 11.7 55 11.5 54.8L22 47.1C22.1 47.3 22.3 47.5 22.4 47.7Z" fill="#CDCDCD"/>
<path d="M4.69999 32.1L9.79999 54.1H9.69999C9.39999 54.1 9.09999 54.2 8.89999 54.2L3.79999 32.2C4.09999 32.2 4.49999 32.2 4.69999 32.1Z" fill="#CDCDCD"/>
<path d="M39.3 26.8L28.3 15.8C28.5 15.6 28.6 15.4 28.8 15.1L39.9 26.2C39.7 26.4 39.5 26.5 39.3 26.8Z" fill="#CDCDCD"/>
<path d="M12.7 39.6C12.9 39.7 13.1 39.7 13.3 39.7C13.4 39.7 13.4 39.7 13.5 39.7L10.8 54.3C10.6 54.2 10.3 54.1 10 54.1L12.7 39.6Z" fill="#CDCDCD"/>
<path d="M46.1 15.3L35.8 5.7C36 5.5 36.1 5.3 36.3 5L46.9 14.8C46.5 14.9 46.3 15.1 46.1 15.3Z" fill="#CDCDCD"/>
<path d="M43.7 26L46.7 18.8C46.9 18.9 47.2 18.9 47.5 18.9C47.5 18.9 47.5 18.9 47.6 18.9L44.5 26.4C44.1 26.3 43.9 26.1 43.7 26Z" fill="#CDCDCD"/>
<path d="M30.9 6.2L27.3 11C27 10.9 26.7 10.8 26.3 10.7L30.2 5.5C30.5 5.8 30.7 6 30.9 6.2Z" fill="#CDCDCD"/>
<path d="M29.6 27.6C29.3 27.6 29 27.6 28.8 27.7L26.2 16.7999C26.5 16.7999 26.8 16.8 27 16.7L29.6 27.6Z" fill="#CDCDCD"/>
<path d="M23.1 13.8C23.1 14.1 23.1 14.3 23.2 14.5L6.09996 26.4C5.89996 26.2 5.59996 26 5.39996 25.8L23.2 13.4C23.1 13.6 23.1 13.7 23.1 13.8Z" fill="#CDCDCD"/>
<path d="M12.3 56.9L33.3 68.7C33.1 68.9 33 69.2 32.9 69.5L12.1 57.8C12.2 57.5 12.3 57.2 12.3 56.9Z" fill="#CDCDCD"/>
<path d="M25.6393 45.2441L24.6888 45.5549L32.1791 68.462L33.1296 68.1512L25.6393 45.2441Z" fill="#CDCDCD"/>
<path d="M36.6 3.5C36.6 1.6 35 0 33.1 0C31.2 0 29.6 1.6 29.6 3.5C29.6 5.4 31.2 7 33.1 7C35 7 36.6 5.4 36.6 3.5Z" fill="#CDCDCD"/>
<path d="M49.5 16.8C49.5 15.6 48.6 14.7 47.4 14.7C46.2 14.7 45.3 15.6 45.3 16.8C45.3 18 46.2 18.9 47.4 18.9C48.6 18.9 49.5 18 49.5 16.8Z" fill="#CDCDCD"/>
<path d="M45.5 29C45.5 27.1 43.9 25.5 42 25.5C40.1 25.5 38.5 27.1 38.5 29C38.5 30.9 40.1 32.5 42 32.5C43.9 32.5 45.5 31 45.5 29Z" fill="#CDCDCD"/>
<path d="M29.1 13.8C29.1 12.1 27.8 10.8 26.1 10.8C24.4 10.8 23.1 12.1 23.1 13.8C23.1 15.5 24.4 16.8 26.1 16.8C27.8 16.8 29.1 15.4 29.1 13.8Z" fill="#CDCDCD"/>
<path d="M33.1 31.1C33.1 29.2 31.5 27.6 29.6 27.6C27.7 27.6 26.1 29.2 26.1 31.1C26.1 33 27.7 34.6 29.6 34.6C31.5 34.6 33.1 33.1 33.1 31.1Z" fill="#CDCDCD"/>
<path d="M7 28.8C7 26.9 5.4 25.3 3.5 25.3C1.6 25.3 0 26.8 0 28.8C0 30.7 1.6 32.3 3.5 32.3C5.4 32.3 7 30.7 7 28.8Z" fill="#CDCDCD"/>
<path d="M16.1 36.9C16.1 35.4 14.9 34.1 13.3 34.1C11.8 34.1 10.5 35.3 10.5 36.9C10.5 38.4 11.7 39.7 13.3 39.7C14.9 39.7 16.1 38.5 16.1 36.9Z" fill="#CDCDCD"/>
<path d="M12.3 56.6C12.3 55.2 11.2 54 9.69998 54C8.29998 54 7.09998 55.1 7.09998 56.6C7.09998 58 8.19998 59.2 9.69998 59.2C11.2 59.2 12.3 58.1 12.3 56.6Z" fill="#CDCDCD"/>
<path d="M28.8 45.4001C28.8 43.4001 27.2 41.8 25.2 41.8C23.2 41.8 21.6 43.4001 21.6 45.4001C21.6 47.4001 23.2 49 25.2 49C27.2 49 28.8 47.4001 28.8 45.4001Z" fill="#CDCDCD"/>
<path d="M34.8 69.1C34.8 67.9 33.8 67 32.7 67C31.6 67 30.6 68 30.6 69.1C30.6 70.3 31.6 71.2 32.7 71.2C33.8 71.2 34.8 70.3 34.8 69.1Z" fill="#CDCDCD"/>
</g>
<defs>
<clipPath id="clip0_404_3">
<rect width="177.6" height="72" fill="white"/>
</clipPath>
</defs>
</svg>
