<svg id="폐암" xmlns="http://www.w3.org/2000/svg" xmlns:xlink="http://www.w3.org/1999/xlink" width="70" height="70" viewBox="0 0 70 70">
  <defs>
    <clipPath id="clip-path">
      <rect id="사각형_149756" data-name="사각형 149756" width="70" height="70" transform="translate(1320 1248)" fill="#fff" stroke="#707070" stroke-width="1"/>
    </clipPath>
    <clipPath id="clip-path-2">
      <rect id="사각형_149757" data-name="사각형 149757" width="67.752" height="58.922" fill="#111"/>
    </clipPath>
  </defs>
  <g id="마스크_그룹_127" data-name="마스크 그룹 127" transform="translate(-1320 -1248)" clip-path="url(#clip-path)">
    <g id="그룹_14084" data-name="그룹 14084" transform="translate(1322 1254)">
      <g id="그룹_14083" data-name="그룹 14083" clip-path="url(#clip-path-2)">
        <path id="패스_87459" data-name="패스 87459" d="M112.851,53.977c-.016-.056-.034-.113-.052-.169a1.5,1.5,0,0,1-.056-.2q-.231-1.6-.452-3.194c-.3-2.136-.609-4.345-.956-6.514a71.491,71.491,0,0,0-3.616-14.575A25.083,25.083,0,0,0,101,19.116a9.494,9.494,0,0,0-7.337-2.787,14.022,14.022,0,0,0-6.943,2.719,7.123,7.123,0,0,0-3.152,4.909,4.717,4.717,0,0,1-.063-.807c.018-5.7.014-11.5.01-17.112l0-3.788a4.187,4.187,0,0,0-.089-1.023A1.621,1.621,0,0,0,82.6.177,1.635,1.635,0,0,0,81.251.115a1.812,1.812,0,0,0-1.08,1.9q0,2.736,0,5.472c0,5.2-.007,10.586.032,15.879a6.857,6.857,0,0,0,.751,3.178,18.562,18.562,0,0,0,7.332,7.57,11.206,11.206,0,0,0,5.049,1.432A1.709,1.709,0,0,0,95.3,33.986a1.687,1.687,0,0,0-1.587-1.747c.042-.067.085-.134.128-.2a19.235,19.235,0,0,0,1.215-2.093,1.681,1.681,0,0,0,.065-1.388,1.691,1.691,0,0,0-3.166.227c-.033.088-.063.177-.092.267s-.066.2-.1.281a2.661,2.661,0,0,1-1.783,1.617.862.862,0,0,1-.489-.019c-.882-.635-1.783-1.357-2.832-2.27a.658.658,0,0,1-.065-.294c.028-.542.078-1.1.127-1.638.06-.659.122-1.341.145-2.022a3.2,3.2,0,0,1,1.07-2.327,10.522,10.522,0,0,1,5.464-2.65,5.267,5.267,0,0,1,4.284,1.006,17.355,17.355,0,0,1,4.333,4.628,37.541,37.541,0,0,1,4.659,12c1.276,5.426,2.018,11.054,2.735,16.5l.032.244a1.712,1.712,0,0,1-.109,1.194,1.735,1.735,0,0,1-1.182.267h-2.465c-1.775,0-3.61,0-5.415,0A1.713,1.713,0,0,0,98.374,57.2a1.585,1.585,0,0,0,.439,1.159,1.918,1.918,0,0,0,1.412.536c1.275,0,2.593.005,3.933.005,1.508,0,3.043,0,4.573-.012a3.945,3.945,0,0,0,3.464-1.935,5.664,5.664,0,0,0,.469-1.015c.051-.133.1-.265.157-.4l.056-.131V54.07Z" transform="translate(-45.125 0)" fill="#111"/>
        <path id="패스_87460" data-name="패스 87460" d="M3.848,51.047c.445-3.062.906-6.229,1.437-9.325A52.351,52.351,0,0,1,8.923,28.916a19.059,19.059,0,0,1,6.523-8.357,4.856,4.856,0,0,1,3.32-.908A10.609,10.609,0,0,1,24.7,22.177a3.144,3.144,0,0,1,1.249,2.106c.124,1.339.231,2.7.32,4.044a.412.412,0,0,1-.009.1c-1.115.952-2.163,1.812-3.2,2.624a.64.64,0,0,1-.172-.017,2.939,2.939,0,0,1-2.182-2.171,1.635,1.635,0,0,0-2.1-1.224,1.663,1.663,0,0,0-1.054,2.25,6.227,6.227,0,0,0,1.294,2.381,1.626,1.626,0,0,0-1.414,1.586A1.556,1.556,0,0,0,18.768,35.5a2.176,2.176,0,0,0,.8.033,12.827,12.827,0,0,0,6.716-2.57,22.8,22.8,0,0,0,4.914-5.4,7.642,7.642,0,0,0,1.343-4.48c-.02-5.073-.017-10.231-.014-15.219q0-2.823,0-5.646V2.1c0-.18,0-.366-.016-.564a1.648,1.648,0,0,0-3.252-.228A3.038,3.038,0,0,0,29.2,2.1c0,.045,0,.09,0,.135q0,4.686,0,9.373v6.73c0,1.668,0,3.391-.007,5.09a6.6,6.6,0,0,0-1.973-3.437,13.706,13.706,0,0,0-5.92-3.255,9.17,9.17,0,0,0-8.716,1.786,23.6,23.6,0,0,0-6.407,8.413,52.79,52.79,0,0,0-4.2,14.162C1.362,44.7.844,48.383.343,51.944Q.2,52.979.05,54.014a4.27,4.27,0,0,0,.923,3.437A4.332,4.332,0,0,0,4.279,58.9c.864.011,1.736.014,2.6.014.671,0,1.338,0,1.995,0l1.841,0h.265c.332,0,.675,0,1.024-.02a1.582,1.582,0,0,0,1.539-1.518,1.6,1.6,0,0,0-1.369-1.753,3.008,3.008,0,0,0-.7-.047l-.137,0H8.866c-1.476,0-3,0-4.5,0a1.136,1.136,0,0,1-.849-.289,1.136,1.136,0,0,1-.157-.884q.249-1.675.491-3.351" transform="translate(0 -0.009)" fill="#111"/>
        <path id="패스_87461" data-name="패스 87461" d="M70.815,95.684c-.445,0-.889,0-1.333,0-.761,0-1.548.006-2.315-.014a6.976,6.976,0,0,1-6.69-6.283,26.017,26.017,0,0,1,.071-3.464c.023-.356.046-.712.065-1.068.078-1.474.178-2.978.274-4.433q.031-.462.061-.926l.1.045c.844.375,1.641.73,2.481,1.047.168.063.181.068.272.4a14.729,14.729,0,0,0,1.046,2.97A4.374,4.374,0,0,0,68,86.224a1.929,1.929,0,0,0,1.665-.551,1.8,1.8,0,0,0,.219-1.735,1.916,1.916,0,0,0-1.2-.935,2.444,2.444,0,0,1-1.442-1.581c.414.038.839.075,1.264.1a1.7,1.7,0,0,0,1.977-1.527c.06-.754-.355-1.621-1.7-1.792-.257-.033-.516-.062-.775-.091a17.632,17.632,0,0,1-2.278-.357,17.14,17.14,0,0,1-7.888-4.7,6.864,6.864,0,0,0-1.837-1.359,4.581,4.581,0,0,0-5.369,1.185c-3.356,3.4-6.954,5.14-11,5.328a1.7,1.7,0,0,0-1.817,1.71,1.582,1.582,0,0,0,.507,1.137,2.012,2.012,0,0,0,1.5.471c.392-.019.785-.051,1.168-.084a2.251,2.251,0,0,1-1.423,1.548,2.058,2.058,0,0,0-1.266,1,1.6,1.6,0,0,0-.017,1.265,1.678,1.678,0,0,0,2.312.9,5.318,5.318,0,0,0,3.55-3.714,6.268,6.268,0,0,0,.191-.861,2.243,2.243,0,0,1,.272-.916,2.355,2.355,0,0,1,.929-.4,6.569,6.569,0,0,0,.846-.288c.387-.172.761-.362,1.148-.564.047.766.1,1.527.147,2.271.168,2.527.327,4.913.333,7.338a6.794,6.794,0,0,1-5.715,6.5,18.04,18.04,0,0,1-2.863.144c-.478,0-.971,0-1.461.017a1.668,1.668,0,1,0,0,3.327c1.2.017,2.173.016,3.065,0A10.4,10.4,0,0,0,51.373,87.844c-.1-1.7-.205-3.427-.311-5.1-.11-1.741-.223-3.542-.323-5.313a.455.455,0,0,1,.083-.224c.473-.466.98-.923,1.471-1.366.284-.257.568-.513.849-.773a1.34,1.34,0,0,1,2.023,0q.368.332.739.661c.564.5,1.147,1.022,1.691,1.552a.541.541,0,0,1,.108.285l-.069,1.252c-.158,2.886-.32,5.87-.554,8.8a10.48,10.48,0,0,0,7.366,10.935,12.687,12.687,0,0,0,3.8.482c.543,0,1.083-.017,1.617-.034.433-.014.88-.028,1.317-.032a1.435,1.435,0,0,0,1.082-.48,1.725,1.725,0,0,0-1.444-2.809" transform="translate(-20.37 -40.117)" fill="#111"/>
      </g>
    </g>
  </g>
</svg>
