<svg id="_03_02" data-name="03_02" xmlns="http://www.w3.org/2000/svg" xmlns:xlink="http://www.w3.org/1999/xlink" width="150" height="150" viewBox="0 0 150 150">
  <defs>
    <clipPath id="clip-path">
      <rect id="사각형_149253" data-name="사각형 149253" width="75" height="75" transform="translate(634 1618)" fill="#fff" stroke="#707070" stroke-width="1"/>
    </clipPath>
    <clipPath id="clip-path-2">
      <rect id="사각형_832" data-name="사각형 832" width="72.688" height="72.22" fill="#111"/>
    </clipPath>
  </defs>
  <circle id="타원_77" data-name="타원 77" cx="75" cy="75" r="75" fill="#f4f4f4"/>
  <g id="마스크_그룹_36" data-name="마스크 그룹 36" transform="translate(-596 -1581)" clip-path="url(#clip-path)">
    <g id="그룹_13889" data-name="그룹 13889" transform="translate(635 1620)">
      <g id="그룹_1977" data-name="그룹 1977" clip-path="url(#clip-path-2)">
        <path id="패스_929" data-name="패스 929" d="M46.275,72.22H5.711c-.16-.049-.318-.108-.48-.147A6.569,6.569,0,0,1,.339,67.7C.2,67.312.111,66.906,0,66.51v-1.9c.147-.757.316-1.51.439-2.271q1.659-10.3,3.3-20.607c.244-1.527.481-3.054.726-4.612a13.762,13.762,0,0,1-1.536-.091A3.768,3.768,0,0,1,0,34.3V28.15c.768-2.211,2.4-3.039,4.713-2.757A15.243,15.243,0,0,1,26.13,4.585a14.858,14.858,0,0,1,5.89,7.8,15.167,15.167,0,0,1-1.609,12.99c.889,0,1.667-.046,2.436.016a1.017,1.017,0,0,0,1.094-.588Q38.93,16.577,43.962,8.38a2.361,2.361,0,0,1,3.5-.879c.71.415,1.413.841,2.169,1.291l.869-1.2c-.208-.129-.352-.22-.5-.308a2.374,2.374,0,0,1-.774-3.816c.378-.509.784-1,1.138-1.524,1.351-2,2.32-2.646,4.98-1.019C58.884,3.085,62.5,5.111,66.076,7.209a2.331,2.331,0,0,1,.769,3.613q-.943,1.3-1.933,2.575a2.366,2.366,0,0,1-3.3.654c-.184-.1-.374-.192-.594-.3L60.3,15.182c.824.5,1.6.959,2.363,1.431a2.344,2.344,0,0,1,.828,3.562c-.419.679-.849,1.352-1.224,1.949a11.976,11.976,0,0,1,1.894,2.212,15.515,15.515,0,0,0,3.105,3.909,8.455,8.455,0,0,1,.575.663A20.834,20.834,0,0,1,72,47.7c-2.528,10.352-9.148,16.779-19.53,19.256-1.431.342-2.922.435-4.435.651,0,.523-.04,1.061.008,1.59a2.731,2.731,0,0,1-1.765,3.023M32.4,55.822a2.236,2.236,0,0,0,0-.281q-1.19-7.509-2.39-15.017a.682.682,0,0,0-.233-.425,2.565,2.565,0,0,1-1.157-2.985H6.855l-.364,2.315h5.178v2.344H6.106l-.742,4.7H16.345v2.333H4.984l-.753,4.7h8.6v2.355H3.848c-.47,2.968-.928,5.879-1.394,8.79a4.258,4.258,0,0,0,4.453,5.231q4.941.007,9.883,0h.784c0-.72,0-1.372,0-2.025a2.392,2.392,0,0,1,2.667-2.66c1.534,0,3.068,0,4.621,0l.569-2.344c-1.883,0-3.662.013-5.441,0a2.328,2.328,0,0,1-2.414-2.4c-.013-.658,0-1.317,0-1.976a2.39,2.39,0,0,1,2.676-2.65q5.673,0,11.347,0h.8M17.558,4.286a12.884,12.884,0,1,0,12.9,12.887,12.9,12.9,0,0,0-12.9-12.887M48.1,58.178c.9-.132,1.774-.2,2.623-.395A15.8,15.8,0,0,0,63.216,43.524a10.976,10.976,0,0,0-1.653-7.264c-1.44.289-2.752.655-4.088.793a7.436,7.436,0,0,1-4.03-.971c-.567.9-1.1,1.769-1.665,2.616a.644.644,0,0,0,.015.889,2.189,2.189,0,0,1,.051,2.662c-.327.514-.663,1.024-1.018,1.519a2.315,2.315,0,0,1-3.28.657c-.5-.3-.98-.618-1.511-.955-.718,1.193-1.4,2.344-2.1,3.484a2.342,2.342,0,0,1-3.625.733c-.791-.571-1.564-1.166-2.343-1.754a2.437,2.437,0,0,1-.739-3.673c.632-1.064,1.272-2.124,1.942-3.244L37.6,38c-.683,1.135-1.3,2.186-1.943,3.217a2.282,2.282,0,0,1-2.573,1.092c-.126-.026-.255-.038-.43-.064l2.176,13.575h10.39c1.7,0,2.424.565,2.877,2.355M61.628,18.724,46.083,9.4,34.58,28.222l14.943,9.667,2.028-3.2c-2.63-3.126-3.271-6.545-1.094-10.063,2.224-3.595,5.621-4.572,9.678-3.526l1.494-2.372m3.924,11.137a8.09,8.09,0,0,1-1.86,4.235.732.732,0,0,0-.062,1.063,12.609,12.609,0,0,1,1.947,6.058A18.181,18.181,0,0,1,51.937,59.9c-1.266.318-2.577.458-3.872.682a2.438,2.438,0,0,1-2.779,2.269c-1.68,0-3.36,0-5.118,0l.581,2.339c2.335,0,4.627.043,6.916-.008A22.084,22.084,0,0,0,64.2,57.768c5.2-5.756,7.2-12.5,5.482-20.17a17.4,17.4,0,0,0-4.125-7.737m-35.43-2.086a2.583,2.583,0,0,0-2.517.781,14.871,14.871,0,0,1-19.271.606A5.666,5.666,0,0,0,3.8,27.71c-.024,0-.049,0-.073,0-.953.021-1.374.437-1.381,1.4-.01,1.317,0,2.634,0,3.952,0,1.339.342,1.678,1.689,1.679H28.917c1.243,0,1.243,0,1.728-1.166-2.382-1.565-2.949-2.524-.524-5.8M63.259,28.91a5.856,5.856,0,1,0-5.9,5.827,5.869,5.869,0,0,0,5.9-5.827M19.95,60.458H45.631V58.2H19.95Zm0,9.371H45.632V67.571H19.951ZM50.931,5.108l12.02,7.008,2.1-2.8L53.031,2.311l-2.1,2.8M30.924,30.888,48.869,42.5l1.04-1.567L31.963,29.322l-1.039,1.566M38.311,65.16l-.556-2.27H27.847l-.554,2.27Zm2.837-24.869-2.111,3.514,2.8,2.1,2.227-3.719-2.919-1.895m-5.516-3.568-2.925-1.888-1.869,3.114,2.8,2.1,1.994-3.326M51.655,10.006l6.621,3.972L59,12.523,52.57,8.777l-.916,1.228" transform="translate(0 0)" fill="#111"/>
        <path id="패스_930" data-name="패스 930" d="M65.674,79.231l1.821-1.468,3.829,4.774,9.612-10.668,1.751,1.549L71.22,86.159l-5.546-6.928" transform="translate(-56.04 -61.325)" fill="#111"/>
        <path id="패스_931" data-name="패스 931" d="M370.85,172.946a3.511,3.511,0,1,1-3.479,3.506,3.525,3.525,0,0,1,3.479-3.506m1.2,3.519a1.166,1.166,0,1,0-1.174,1.158,1.178,1.178,0,0,0,1.174-1.158" transform="translate(-313.479 -147.576)" fill="#111"/>
      </g>
    </g>
  </g>
</svg>
