<svg id="_02_03" data-name="02_03" xmlns="http://www.w3.org/2000/svg" xmlns:xlink="http://www.w3.org/1999/xlink" width="50" height="50" viewBox="0 0 50 50">
  <defs>
    <clipPath id="clip-path">
      <rect id="사각형_149567" data-name="사각형 149567" width="50" height="50" transform="translate(1509 1132)" fill="#fff" stroke="#707070" stroke-width="1"/>
    </clipPath>
    <clipPath id="clip-path-2">
      <rect id="사각형_165" data-name="사각형 165" width="46.908" height="43.885" fill="#fff"/>
    </clipPath>
  </defs>
  <g id="마스크_그룹_45" data-name="마스크 그룹 45" transform="translate(-1509 -1132)" clip-path="url(#clip-path)">
    <g id="그룹_14185" data-name="그룹 14185" transform="translate(1511 1135)">
      <g id="그룹_390" data-name="그룹 390" transform="translate(0 0)" clip-path="url(#clip-path-2)">
        <path id="패스_317" data-name="패스 317" d="M18.049,64.39,9.116,61.044c-.254,1.808-.576,2.086-2.388,2.086-1.633,0-3.266,0-4.9,0A1.642,1.642,0,0,1,0,61.283q0-8.632,0-17.265a1.668,1.668,0,0,1,1.869-1.86q2.679-.005,5.358,0A1.665,1.665,0,0,1,9.07,44c0,.516,0,1.032,0,1.438,1.2.309,2.364.552,3.484.913a13.4,13.4,0,0,1,1.927.94c.447.229.893.464,1.327.718a9.269,9.269,0,0,0,4.179,1.174c2.588.169,5.17.421,7.753.655a4.141,4.141,0,0,1,3.768,3.794c.03.346.136.487.488.482.411-.006.825.062,1.234.043a1.3,1.3,0,0,0,.618-.224c2.857-1.9,5.7-3.825,8.562-5.72a2.845,2.845,0,0,1,4.4,1.6,1.455,1.455,0,0,0,.1.2v1.008a3.734,3.734,0,0,1-1.067,1.772c-2.96,2.645-5.9,5.309-8.86,7.957a6.09,6.09,0,0,1-3.171,1.536c-3.77.571-7.545,1.1-11.318,1.657-.964.141-1.923.3-2.885.454ZM9.128,46.977a.583.583,0,0,0-.049.13c0,.244-.007.488-.008.733,0,.229.006.458,0,.687A.688.688,0,1,1,7.7,48.514c-.007-1.466-.017-2.932.006-4.4.007-.436-.122-.6-.569-.594q-2.61.026-5.221,0c-.422,0-.55.15-.549.566q.016,8.564,0,17.129c0,.436.154.547.561.543,1.725-.016,3.45-.006,5.176-.007.584,0,.593-.01.593-.586q0-4.076,0-8.152c0-.443-.013-.886.007-1.328a.674.674,0,0,1,.671-.673.687.687,0,0,1,.692.654,3.624,3.624,0,0,1,0,.366c0,2.366.007,4.733-.008,7.1a.5.5,0,0,0,.382.559c2.754,1.031,5.494,2.1,8.259,3.1a3.815,3.815,0,0,0,1.745.175c4.412-.6,8.815-1.271,13.227-1.878a6.682,6.682,0,0,0,3.869-1.783c1.136-1.086,2.33-2.111,3.5-3.162q2.434-2.19,4.87-4.379a1.526,1.526,0,0,0,.58-1.543A1.483,1.483,0,0,0,43.1,49.4q-4.378,2.921-8.745,5.86a1.668,1.668,0,0,1-1.157.3,17.21,17.21,0,0,0-2.376-.12c-2.057.1-4.112.262-6.169.386-2.452.148-4.905.292-7.359.418a2.675,2.675,0,0,1-2.147-.949.7.7,0,0,1-.017-1.02.681.681,0,0,1,.983.062,1.76,1.76,0,0,0,1.487.539c3.2-.206,6.4-.395,9.6-.592.972-.06,1.943-.125,2.908-.188a2.721,2.721,0,0,0-2.5-2.882c-2.554-.226-5.1-.5-7.663-.645a11.085,11.085,0,0,1-5.034-1.468c-.647-.374-1.3-.73-1.966-1.076a9.162,9.162,0,0,0-3.822-1.041" transform="translate(0 -20.505)" fill="#fff"/>
        <path id="패스_318" data-name="패스 318" d="M33.236,0h6.776a1.41,1.41,0,0,1,1.644,1.428,5.972,5.972,0,0,0,3.538,4.783,1.622,1.622,0,0,1,1.114,1.922C45.382,15.506,42.3,21.6,35.853,25.695c-.565.358-1.178.64-1.758.977a1.357,1.357,0,0,1-1.384.014A21.489,21.489,0,0,1,21.325,13.11,42.7,42.7,0,0,1,20.271,8.2a1.527,1.527,0,0,1,.961-1.784,6.046,6.046,0,0,0,3.64-5.107A1.327,1.327,0,0,1,26.323.087c2.3-.006,4.608,0,6.913,0V0M26.312,1.435a.707.707,0,0,0-.063.1,1.649,1.649,0,0,0-.04.178,7.3,7.3,0,0,1-4.309,5.9.433.433,0,0,0-.263.553c.26,1.283.427,2.593.785,3.848A20.476,20.476,0,0,0,32.25,24.9c1.15.643,1.155.65,2.284-.015C40.954,21.1,44,15.232,44.946,8.063c.048-.36-.1-.509-.405-.651a7.21,7.21,0,0,1-3.958-4.5c-.157-.489-.237-1-.345-1.476Z" transform="translate(-9.843 0)" fill="#fff"/>
        <path id="패스_319" data-name="패스 319" d="M3.872,70.877a2.427,2.427,0,0,1,4.855.048,2.457,2.457,0,0,1-2.435,2.41,2.431,2.431,0,0,1-2.419-2.458m1.376.04A1.051,1.051,0,0,0,6.3,71.959,1.081,1.081,0,0,0,7.349,70.91a1.052,1.052,0,0,0-1.083-1.054,1.028,1.028,0,0,0-1.019,1.06" transform="translate(-1.883 -33.309)" fill="#fff"/>
        <path id="패스_320" data-name="패스 320" d="M35.836,6.481c-1.526,0-3.053.006-4.58-.006a.432.432,0,0,0-.494.334,9.362,9.362,0,0,1-3.522,4.618.467.467,0,0,0-.216.574c.126.5.24,1.008.347,1.515a.683.683,0,1,1-1.317.328c-.183-.739-.35-1.484-.488-2.233a.962.962,0,0,1,.475-1.018,8.46,8.46,0,0,0,3.611-4.739,1.011,1.011,0,0,1,1.037-.745q5.129-.038,10.259-.066a1.059,1.059,0,0,1,1.129.82,8.292,8.292,0,0,0,3.555,4.559,1.085,1.085,0,0,1,.536,1.247c-.141.655-.256,1.317-.4,1.971-.118.526-.452.775-.857.676-.421-.1-.6-.454-.489-.978.1-.492.21-.984.33-1.472a.437.437,0,0,0-.219-.531,9.443,9.443,0,0,1-3.6-4.613.411.411,0,0,0-.466-.313c-1.542.011-3.084.005-4.625.005v.066" transform="translate(-12.427 -2.454)" fill="#fff"/>
        <path id="패스_321" data-name="패스 321" d="M37.424,36.826a5.726,5.726,0,0,1-.664-.263,18.572,18.572,0,0,1-8.143-9.169c-.2-.472-.093-.833.292-1.012s.759-.009.973.483a17.185,17.185,0,0,0,4.4,6.231c.869.759,1.861,1.375,2.789,2.066a.542.542,0,0,0,.7-.016,17.29,17.29,0,0,0,6.887-7.983c.074-.167.138-.339.222-.5a.682.682,0,1,1,1.244.559A19.858,19.858,0,0,1,43.8,31.415a17.874,17.874,0,0,1-5.677,5.1,7.016,7.016,0,0,1-.7.308" transform="translate(-13.871 -12.76)" fill="#fff"/>
        <path id="패스_322" data-name="패스 322" d="M41.555,22.562c1.341-2.024,2.637-3.98,3.934-5.936a2.287,2.287,0,0,1,.269-.368.676.676,0,0,1,1.1.754,2.744,2.744,0,0,1-.21.352q-2.121,3.2-4.244,6.4c-.448.676-.818.722-1.4.174q-1.28-1.21-2.555-2.425c-.389-.372-.446-.773-.17-1.08.3-.33.7-.3,1.117.09.709.666,1.415,1.336,2.156,2.036" transform="translate(-18.537 -7.799)" fill="#fff"/>
      </g>
    </g>
  </g>
</svg>
