<svg id="메인" xmlns="http://www.w3.org/2000/svg" xmlns:xlink="http://www.w3.org/1999/xlink" width="495.184" height="517.967" viewBox="0 0 495.184 517.967">
  <defs>
    <clipPath id="clip-path">
      <rect id="사각형_149550" data-name="사각형 149550" width="495.184" height="517.967" fill="none"/>
    </clipPath>
    <clipPath id="clip-path-3">
      <path id="패스_87314" data-name="패스 87314" d="M255.469,245.09a3.8,3.8,0,0,0,2.243,3.133l46.694,26.96a11.838,11.838,0,0,0,10.742,0l46.392-26.96a3.769,3.769,0,0,0,2.209-3.088L364.2,84.991A3.779,3.779,0,0,1,362,88.08L315.6,115.039a11.83,11.83,0,0,1-10.742,0L258.168,88.08a3.8,3.8,0,0,1-2.245-3.134Z" transform="translate(-255.469 -84.946)" fill="none"/>
    </clipPath>
    <linearGradient id="linear-gradient" x1="-2.997" y1="2.134" x2="-2.985" y2="2.134" gradientUnits="objectBoundingBox">
      <stop offset="0" stop-color="#66d2fe"/>
      <stop offset="0.336" stop-color="#51a7dd"/>
      <stop offset="0.781" stop-color="#3973b7"/>
      <stop offset="1" stop-color="#3060a8"/>
    </linearGradient>
    <clipPath id="clip-path-5">
      <rect id="사각형_149492" data-name="사각형 149492" width="98.925" height="53.657" fill="none"/>
    </clipPath>
    <clipPath id="clip-path-6">
      <path id="패스_87318" data-name="패스 87318" d="M304.425,49.386,258.034,76.345c-2.959,1.718-2.944,4.5.036,6.222l46.694,26.959a11.826,11.826,0,0,0,10.742,0L361.9,82.567c2.958-1.719,2.941-4.5-.036-6.223l-46.7-26.958a11.82,11.82,0,0,0-10.742,0" transform="translate(-255.825 -48.095)" fill="none"/>
    </clipPath>
    <linearGradient id="linear-gradient-2" x1="-2.965" y1="7.231" x2="-2.954" y2="7.231" gradientUnits="objectBoundingBox">
      <stop offset="0" stop-color="#fff"/>
      <stop offset="1" stop-color="#a4d4ed"/>
    </linearGradient>
    <clipPath id="clip-path-7">
      <path id="패스_87319" data-name="패스 87319" d="M300.291,65.036l-15.225,8.848a1.079,1.079,0,0,0,.011,2.042L300.4,84.774a3.886,3.886,0,0,0,3.525,0l15.226-8.848a1.079,1.079,0,0,0-.011-2.042l-15.325-8.848a3.883,3.883,0,0,0-3.527,0" transform="translate(-284.342 -64.613)" fill="none"/>
    </clipPath>
    <linearGradient id="linear-gradient-3" x1="-10.268" y1="10.734" x2="-10.232" y2="10.734" gradientUnits="objectBoundingBox">
      <stop offset="0" stop-color="#ff5a72"/>
      <stop offset="0.17" stop-color="#ff6a71"/>
      <stop offset="0.726" stop-color="#ff9c6e"/>
      <stop offset="1" stop-color="#ffb06d"/>
    </linearGradient>
    <clipPath id="clip-path-9">
      <rect id="사각형_149496" data-name="사각형 149496" width="79.937" height="46.152" fill="none"/>
    </clipPath>
    <clipPath id="clip-path-10">
      <rect id="사각형_149498" data-name="사각형 149498" width="117.703" height="146.645" fill="none"/>
    </clipPath>
    <clipPath id="clip-path-11">
      <path id="패스_87321" data-name="패스 87321" d="M141.689,196.927l-117.7,67.956V186.194l117.7-67.956Z" transform="translate(-23.987 -118.238)" fill="none"/>
    </clipPath>
    <linearGradient id="linear-gradient-4" x1="-0.26" y1="2.504" x2="-0.249" y2="2.504" gradientUnits="objectBoundingBox">
      <stop offset="0" stop-color="#ff5a72"/>
      <stop offset="0.242" stop-color="#c65b80"/>
      <stop offset="0.61" stop-color="#765d95"/>
      <stop offset="0.872" stop-color="#435fa2"/>
      <stop offset="1" stop-color="#3060a8"/>
    </linearGradient>
    <clipPath id="clip-path-12">
      <path id="패스_87323" data-name="패스 87323" d="M32.957,355.216c-.005,1.806,1.186,3.615,3.571,4.992l74.411,42.961c4.743,2.738,12.413,2.735,17.127,0l73.92-42.958c2.344-1.362,3.518-3.144,3.523-4.928l.06-21.156c-.005,1.784-1.179,3.567-3.521,4.928l-73.921,42.958c-4.714,2.738-12.383,2.742-17.127,0l-74.41-42.961c-2.386-1.377-3.578-3.186-3.573-4.992Z" transform="translate(-32.957 -334.06)" fill="none"/>
    </clipPath>
    <linearGradient id="linear-gradient-5" x1="-0.243" y1="1.279" x2="-0.236" y2="1.279" xlink:href="#linear-gradient"/>
    <clipPath id="clip-path-14">
      <path id="패스_87325" data-name="패스 87325" d="M113.838,298.9,39.917,341.861c-2.019,1.173-2.008,3.08.018,4.251l74.411,42.96a8.1,8.1,0,0,0,7.339,0l73.92-42.958c2.019-1.173,2.009-3.08-.018-4.251l-74.41-42.96a8.1,8.1,0,0,0-7.339,0" transform="translate(-38.409 -298.023)" fill="none"/>
    </clipPath>
    <linearGradient id="linear-gradient-6" x1="-0.261" y1="1" x2="-0.254" y2="1" xlink:href="#linear-gradient-2"/>
    <clipPath id="clip-path-15">
      <path id="패스_87326" data-name="패스 87326" d="M70.513,322.492,46.189,336.627a.739.739,0,0,0,.005,1.4L70.68,352.162a2.667,2.667,0,0,0,2.414,0l24.324-14.137a.739.739,0,0,0-.006-1.4L72.928,322.49a2.667,2.667,0,0,0-2.414,0" transform="translate(-45.693 -322.202)" fill="none"/>
    </clipPath>
    <linearGradient id="linear-gradient-7" x1="-1.127" y1="2.014" x2="-1.102" y2="2.014" xlink:href="#linear-gradient-4"/>
    <clipPath id="clip-path-17">
      <path id="패스_87335" data-name="패스 87335" d="M38.606,347.766l7.373,4.256.011-3.965L38.617,343.8Z" transform="translate(-38.606 -343.801)" fill="none"/>
    </clipPath>
    <linearGradient id="linear-gradient-8" x1="-4.459" y1="7.812" x2="-4.34" y2="7.812" xlink:href="#linear-gradient"/>
    <clipPath id="clip-path-18">
      <path id="패스_87336" data-name="패스 87336" d="M45.693,351.859l7.373,4.256.01-3.967L45.7,347.892Z" transform="translate(-45.693 -347.892)" fill="none"/>
    </clipPath>
    <linearGradient id="linear-gradient-9" x1="-5.306" y1="7.306" x2="-5.186" y2="7.306" xlink:href="#linear-gradient"/>
    <clipPath id="clip-path-19">
      <path id="패스_87337" data-name="패스 87337" d="M158.08,24.621,15.555,106.907c-3.323,1.918-6.016,7.065-6.016,11.5V233.124c0,4.43,2.694,6.465,6.016,4.548L158.08,155.385c3.321-1.918,6.016-7.065,6.016-11.5V29.168c0-3.3-1.494-5.27-3.627-5.27a4.814,4.814,0,0,0-2.389.723" transform="translate(-9.539 -23.898)" fill="none"/>
    </clipPath>
    <linearGradient id="linear-gradient-10" x1="-0.079" y1="2.26" x2="-0.07" y2="2.26" gradientUnits="objectBoundingBox">
      <stop offset="0" stop-color="#fff"/>
      <stop offset="0.21" stop-color="#e9f4fa"/>
      <stop offset="0.739" stop-color="#b7ddf0"/>
      <stop offset="1" stop-color="#a4d4ed"/>
    </linearGradient>
    <clipPath id="clip-path-20">
      <path id="패스_87338" data-name="패스 87338" d="M135.616,74.966c-4.584,1.557-8.779,1.13-12.928.7-5.648-.58-11.207-1.162-17.541,3.26C93.267,87.224,85.931,108.41,74,115.908c-7.483,4.7-13.126,2-18.923-.7-3.783-1.763-7.634-3.524-12.1-3.229-7.257.48-15.953,7.524-22.234,16.633v67.742l125.985-72.739V68.164a36.592,36.592,0,0,1-11.109,6.8" transform="translate(-20.74 -68.164)" fill="none"/>
    </clipPath>
    <linearGradient id="linear-gradient-11" x1="-0.21" y1="3.362" x2="-0.2" y2="3.362" xlink:href="#linear-gradient-3"/>
    <clipPath id="clip-path-21">
      <path id="패스_87339" data-name="패스 87339" d="M124.925,107.677c-8.886,9.576-17.958,19.482-27.627,25.725-10.738,6.935-21.212,8.706-31.3,10.21S45.551,146.6,34.8,153.078A61.482,61.482,0,0,0,20.74,165.053v26.162l125.985-72.739V86.827c-7.516,5.632-14.77,13.276-21.8,20.85" transform="translate(-20.74 -86.827)" fill="none"/>
    </clipPath>
    <linearGradient id="linear-gradient-12" x1="-0.103" y1="2.739" x2="-0.094" y2="2.739" xlink:href="#linear-gradient-4"/>
    <clipPath id="clip-path-23">
      <rect id="사각형_149510" data-name="사각형 149510" width="75.505" height="43.594" fill="none"/>
    </clipPath>
    <clipPath id="clip-path-24">
      <rect id="사각형_149511" data-name="사각형 149511" width="49.543" height="28.604" fill="none"/>
    </clipPath>
    <clipPath id="clip-path-25">
      <path id="패스_87349" data-name="패스 87349" d="M46.952,243.757c-.011,4,2.634,8.017,7.927,11.073l164.954,95.236c10.515,6.069,27.518,6.074,37.971,0l163.881-95.238c5.191-3.016,7.789-6.965,7.8-10.919l.014-5.213c-.011,3.953-2.608,7.9-7.8,10.919L257.818,344.853c-10.452,6.075-27.457,6.07-37.971,0L54.893,249.616c-5.294-3.055-7.937-7.067-7.926-11.073Z" transform="translate(-46.952 -238.543)" fill="none"/>
    </clipPath>
    <linearGradient id="linear-gradient-13" x1="-0.157" y1="1.817" x2="-0.153" y2="1.817" xlink:href="#linear-gradient-10"/>
    <clipPath id="clip-path-26">
      <path id="패스_87350" data-name="패스 87350" d="M218.647,156.3,54.767,251.532c-10.452,6.075-10.4,15.92.122,21.994l164.954,95.236c10.514,6.07,27.519,6.075,37.971,0L421.7,273.525c10.452-6.074,10.391-15.924-.122-21.994L256.62,156.295c-5.261-3.037-12.14-4.555-19.011-4.555s-13.735,1.519-18.962,4.556" transform="translate(-46.964 -151.74)" fill="none"/>
    </clipPath>
    <linearGradient id="linear-gradient-14" x1="-0.157" y1="0.976" x2="-0.154" y2="0.976" xlink:href="#linear-gradient-4"/>
    <clipPath id="clip-path-28">
      <path id="패스_87354" data-name="패스 87354" d="M8.149,302.245l33.163,19.272L41.256,301.6,8.093,282.326Z" transform="translate(-8.093 -282.326)" fill="none"/>
    </clipPath>
    <linearGradient id="linear-gradient-15" x1="-0.311" y1="4.028" x2="-0.272" y2="4.028" xlink:href="#linear-gradient-2"/>
    <clipPath id="clip-path-29">
      <path id="패스_87355" data-name="패스 87355" d="M8.093,284.487l33.163,19.272,17.333-10.007L25.428,274.48Z" transform="translate(-8.093 -274.48)" fill="none"/>
    </clipPath>
    <linearGradient id="linear-gradient-16" x1="-0.204" y1="5.734" x2="-0.179" y2="5.734" xlink:href="#linear-gradient-2"/>
    <clipPath id="clip-path-30">
      <path id="패스_87356" data-name="패스 87356" d="M21.7,278.782l33.162,19.272L54.8,278.135,21.639,258.863Z" transform="translate(-21.639 -258.863)" fill="none"/>
    </clipPath>
    <linearGradient id="linear-gradient-17" x1="-0.831" y1="4.792" x2="-0.792" y2="4.792" xlink:href="#linear-gradient-2"/>
    <clipPath id="clip-path-31">
      <path id="패스_87357" data-name="패스 87357" d="M21.639,261.024,54.8,280.3l17.335-10.007L38.974,251.017Z" transform="translate(-21.639 -251.017)" fill="none"/>
    </clipPath>
    <linearGradient id="linear-gradient-18" x1="-0.547" y1="6.756" x2="-0.521" y2="6.756" xlink:href="#linear-gradient-2"/>
    <clipPath id="clip-path-32">
      <path id="패스_87358" data-name="패스 87358" d="M35.242,255.319l33.163,19.272-.056-19.919L35.186,235.4Z" transform="translate(-35.186 -235.4)" fill="none"/>
    </clipPath>
    <linearGradient id="linear-gradient-19" x1="-1.351" y1="5.556" x2="-1.313" y2="5.556" xlink:href="#linear-gradient-2"/>
    <clipPath id="clip-path-33">
      <path id="패스_87359" data-name="패스 87359" d="M35.186,237.561l33.163,19.272,17.333-10.008L52.518,227.553Z" transform="translate(-35.186 -227.553)" fill="none"/>
    </clipPath>
    <linearGradient id="linear-gradient-20" x1="-0.889" y1="7.778" x2="-0.863" y2="7.778" xlink:href="#linear-gradient-2"/>
    <clipPath id="clip-path-34">
      <path id="패스_87360" data-name="패스 87360" d="M68.65,252.671l.056,19.919L51.371,282.6l.056,19.919L34.094,312.523l.056,19.919,17.335-10.007,17.333-10.008,17.335-10.007L86.1,282.5l-.056-19.919-.057-19.919Z" transform="translate(-34.094 -242.663)" fill="none"/>
    </clipPath>
    <linearGradient id="linear-gradient-21" x1="-0.17" y1="2.29" x2="-0.158" y2="2.29" xlink:href="#linear-gradient-2"/>
    <clipPath id="clip-path-36">
      <rect id="사각형_149523" data-name="사각형 149523" width="37.933" height="21.9" fill="none"/>
    </clipPath>
    <clipPath id="clip-path-37">
      <path id="패스_87461" data-name="패스 87461" d="M317.72,359.585c-3.265,1.886-3.265,4.942,0,6.827a13.064,13.064,0,0,0,11.826,0c3.266-1.885,3.266-4.941,0-6.827a13.077,13.077,0,0,0-11.826,0" transform="translate(-315.271 -358.172)" fill="none"/>
    </clipPath>
    <linearGradient id="linear-gradient-22" x1="-21.86" y1="6.035" x2="-21.791" y2="6.035" xlink:href="#linear-gradient-3"/>
    <clipPath id="clip-path-40">
      <path id="패스_87463" data-name="패스 87463" d="M349.022,342.189c-3.266,1.886-3.266,4.942,0,6.827a13.061,13.061,0,0,0,11.825,0c3.266-1.885,3.266-4.941,0-6.827a13.064,13.064,0,0,0-11.825,0" transform="translate(-346.572 -340.775)" fill="none"/>
    </clipPath>
    <linearGradient id="linear-gradient-23" x1="-24.035" y1="8.225" x2="-23.965" y2="8.225" xlink:href="#linear-gradient-3"/>
    <clipPath id="clip-path-42">
      <rect id="사각형_149529" data-name="사각형 149529" width="37.933" height="21.901" fill="none"/>
    </clipPath>
    <clipPath id="clip-path-43">
      <path id="패스_87465" data-name="패스 87465" d="M328.874,284.479c-3.264,1.886-3.264,4.942,0,6.827a13.067,13.067,0,0,0,11.826,0c3.265-1.885,3.265-4.941,0-6.827a13.079,13.079,0,0,0-11.827,0" transform="translate(-326.426 -283.066)" fill="none"/>
    </clipPath>
    <linearGradient id="linear-gradient-24" x1="-22.637" y1="15.494" x2="-22.567" y2="15.494" xlink:href="#linear-gradient-3"/>
    <clipPath id="clip-path-45">
      <rect id="사각형_149532" data-name="사각형 149532" width="37.932" height="21.9" fill="none"/>
    </clipPath>
    <clipPath id="clip-path-46">
      <path id="패스_87467" data-name="패스 87467" d="M197.813,350.774c-3.266,1.886-3.266,4.942,0,6.827a13.061,13.061,0,0,0,11.825,0c3.266-1.885,3.266-4.941,0-6.827a13.074,13.074,0,0,0-11.825,0" transform="translate(-195.363 -349.361)" fill="none"/>
    </clipPath>
    <linearGradient id="linear-gradient-25" x1="-13.529" y1="7.145" x2="-13.46" y2="7.145" xlink:href="#linear-gradient-3"/>
    <clipPath id="clip-path-48">
      <path id="패스_87480" data-name="패스 87480" d="M43.1,188.719a15.16,15.16,0,1,0,15.16-15.16,15.158,15.158,0,0,0-15.16,15.16" transform="translate(-43.095 -173.559)" fill="none"/>
    </clipPath>
    <radialGradient id="radial-gradient" cx="0.388" cy="0.358" r="0.5" gradientUnits="objectBoundingBox">
      <stop offset="0" stop-color="#ffb06d"/>
      <stop offset="0.059" stop-color="#ffb06d"/>
      <stop offset="0.188" stop-color="#ffaa6d"/>
      <stop offset="0.344" stop-color="#ff9b6e"/>
      <stop offset="0.514" stop-color="#ff836f"/>
      <stop offset="0.694" stop-color="#ff6171"/>
      <stop offset="0.728" stop-color="#ff5a72"/>
      <stop offset="1" stop-color="#ff5a72"/>
    </radialGradient>
    <clipPath id="clip-path-50">
      <path id="패스_87484" data-name="패스 87484" d="M170.566,196.277c-.7.366-1.393.749-2.07,1.142-11.22,6.521-16.828,15.055-16.852,23.6l-.048,16.893c.024-8.547,5.632-17.082,16.854-23.6.676-.394,1.372-.775,2.07-1.143,22.708-11.97,57.936-11.589,79.994,1.147,6.556,3.784,11.223,8.246,14.012,12.994a21.332,21.332,0,0,1,3.112,10.945l.047-16.893a21.341,21.341,0,0,0-3.111-10.946c-2.789-4.747-7.456-9.207-14.013-12.993-11.371-6.565-26.237-9.846-41.087-9.846-13.959,0-27.9,2.9-38.906,8.7" transform="translate(-151.595 -187.576)" fill="none"/>
    </clipPath>
    <linearGradient id="linear-gradient-26" x1="-1.665" y1="5.5" x2="-1.654" y2="5.5" xlink:href="#linear-gradient"/>
    <clipPath id="clip-path-51">
      <path id="패스_87485" data-name="패스 87485" d="M114.956,215.963c0-.085-.013-.171-.017-.255,0-.23-.009-.455-.01-.685-.005-.05,0-.1-.006-.154l0-1.37c0-.083,0-.166,0-.249l0,1.541c-.005-.107-.01-.214-.011-.32v-.486c0-.051,0-.1,0-.151v.5l-.048,16.892c0,.231.008.463.026.691,0,.23.009.454.01.684.04,1.028.136,2.066.269,3.1.034.263.074.523.116.775.055.4.122.779.21,1.241.1.543.218,1.085.36,1.722,3.025,12.729,13.02,25.023,29.968,34.808,41.091,23.723,107.5,23.719,148.323-.005q2.868-1.666,5.473-3.433c.834-.569,1.649-1.149,2.436-1.73.5-.36.98-.73,1.458-1.093.244-.186.48-.37.723-.557,13.525-10.6,20.313-23.185,20.347-35.808l.047-16.892c-.036,12.622-6.821,25.2-20.347,35.808l-.722.557c-.478.362-.959.732-1.458,1.092-.788.58-1.6,1.162-2.437,1.73q-2.6,1.768-5.473,3.435c-40.823,23.723-107.232,23.727-148.322.005-16.948-9.787-26.943-22.082-29.968-34.808-.143-.638-.264-1.18-.36-1.723-.088-.462-.156-.843-.21-1.241-.042-.251-.083-.511-.117-.775-.12-.949-.207-1.9-.251-2.844l.01-3.691v-.042Z" transform="translate(-114.855 -212.231)" fill="none"/>
    </clipPath>
    <linearGradient id="linear-gradient-27" x1="-0.903" y1="1.41" x2="-0.895" y2="1.41" xlink:href="#linear-gradient"/>
    <clipPath id="clip-path-52">
      <path id="패스_87486" data-name="패스 87486" d="M178.88,250.813c-9.373-5.413-14.906-12.215-16.581-19.258-2.384-10.034,3.037-20.564,16.307-28.277.677-.393,1.374-.775,2.07-1.142,22.709-11.971,57.937-11.589,79.994,1.145,6.557,3.786,11.224,8.246,14.013,12.993,6.9,11.728,2.332,25.2-13.745,34.538-11.3,6.563-26.124,9.844-40.973,9.844s-29.719-3.282-41.085-9.844m-18.951-73.767c-.824.332-1.652.668-2.876,1.187-1.38.588-2.723,1.2-4.044,1.829-.573.279-1.158.559-1.731.846-.511.259-1.011.511-1.511.77-.223.115-.453.226-.677.348-1.263.665-2.5,1.352-3.72,2.062-.552.32-1.1.649-1.644.977-.518.31-1.011.628-1.516.944-.277.168-.552.344-.809.523-.421.26-.821.524-1.215.8-.329.213-.657.443-.978.668-.65.446-1.288.9-1.912,1.355-10.849,7.961-17.761,17.136-20.707,26.65-.168.519-.318,1.034-.531,1.825-.129.534-.264,1.073-.374,1.612s-.218,1.092-.307,1.642c-.128.733-.222,1.464-.291,2.2-.043.4-.088.809-.1,1.209a3.209,3.209,0,0,0-.024.429c-.031.4-.048.81-.04,1.226a2.925,2.925,0,0,0-.017.486,8.815,8.815,0,0,0,.019,1.038c0,.23.009.455.01.685.04,1.027.136,2.066.268,3.1.034.264.075.523.117.775.055.4.122.779.21,1.241.1.543.217,1.085.36,1.723,3.025,12.726,13.02,25.022,29.968,34.808,41.09,23.722,107.5,23.718,148.322-.005q2.868-1.666,5.473-3.435c.834-.568,1.649-1.149,2.437-1.73.5-.36.98-.73,1.458-1.092l.722-.557c23.916-18.752,26.764-43.689,8.469-64.089-.565-.63-1.148-1.258-2-2.124-.578-.578-1.156-1.154-1.765-1.719-.159-.153-.324-.295-.49-.444-.545-.5-1.094-1.011-1.67-1.5-.756-.648-1.531-1.295-2.319-1.925q-.429-.36-.9-.7c-.31-.232-.608-.467-1.073-.81-.259-.186-.517-.381-.774-.569-.152-.11-.311-.217-.463-.328-.385-.277-.776-.547-1.33-.936-.246-.18-.5-.351-.835-.58-.416-.279-.839-.561-1.965-1.273-.436-.29-.894-.569-1.343-.843-.179-.1-.343-.207-.515-.306-.524-.324-1.054-.638-1.6-.951-1.237-.713-2.493-1.4-3.928-2.154-.589-.309-1.185-.607-2.024-1.023-.562-.287-1.138-.566-2-.967-.577-.27-1.165-.542-1.74-.8-.224-.1-.45-.2-.668-.293-18.818-8.366-41.374-12.549-63.909-12.549-20.845,0-41.671,3.581-59.5,10.743" transform="translate(-114.893 -166.303)" fill="none"/>
    </clipPath>
    <linearGradient id="linear-gradient-28" x1="-0.746" y1="1.471" x2="-0.74" y2="1.471" xlink:href="#linear-gradient-2"/>
    <clipPath id="clip-path-53">
      <path id="패스_87487" data-name="패스 87487" d="M170.189,183.19c-.7.367-1.394.749-2.07,1.143-11.223,6.521-16.836,15.054-16.86,23.6l-.047,16.892c.024-8.545,5.637-17.081,16.859-23.6.677-.393,1.374-.774,2.071-1.14,22.708-11.973,57.936-11.59,79.986,1.14,6.563,3.789,11.23,8.25,14.02,13a21.336,21.336,0,0,1,3.111,10.945l.048-16.892a21.354,21.354,0,0,0-3.111-10.946c-2.791-4.747-7.458-9.207-14.021-13-11.365-6.562-26.231-9.843-41.08-9.843-13.959,0-27.9,2.9-38.906,8.7" transform="translate(-151.212 -174.49)" fill="none"/>
    </clipPath>
    <linearGradient id="linear-gradient-29" x1="-1.661" y1="5.829" x2="-1.65" y2="5.829" xlink:href="#linear-gradient-3"/>
    <clipPath id="clip-path-55">
      <path id="패스_87489" data-name="패스 87489" d="M260.561,240.3q-2.6,1.766-5.473,3.434l-.048,16.893q2.87-1.666,5.473-3.434c16.5-11.209,24.76-25.2,24.8-39.211l.048-16.892c-.041,14.011-8.3,28-24.8,39.21" transform="translate(-255.04 -201.086)" fill="none"/>
    </clipPath>
    <linearGradient id="linear-gradient-30" x1="-5.138" y1="7.736" x2="-5.117" y2="7.736" xlink:href="#linear-gradient-3"/>
    <clipPath id="clip-path-56">
      <path id="패스_87490" data-name="패스 87490" d="M163.517,162.435c-.731.263-1.462.534-2.185.809-1.448.55-2.856,1.122-4.3,1.735-.624.272-1.25.536-2.125.927-.67.307-1.348.616-2.011.932s-1.335.639-1.993.959c-.513.26-1.011.511-1.513.772-.23.111-.453.226-.677.347-1.261.665-2.5,1.352-3.72,2.062-.552.321-1.1.65-1.643.978-.518.31-1.011.628-1.516.944-.277.167-.552.343-.809.523-.421.26-.821.524-1.215.8-.328.214-.658.443-.98.668q-.976.672-1.911,1.357c-10.605,7.81-17.676,16.977-20.707,26.648-.176.517-.319,1.036-.531,1.826-.13.534-.264,1.073-.375,1.612s-.218,1.092-.306,1.642c-.129.733-.23,1.459-.291,2.2-.045.4-.094.807-.1,1.21a2.813,2.813,0,0,0-.024.429,12.141,12.141,0,0,0-.04,1.226,2.786,2.786,0,0,0-.017.486c-.011.343,0,.691.018,1.038,0,.23.009.455.01.684.04,1.027.138,2.066.269,3.1.034.264.069.519.116.775.055.4.122.778.21,1.241.1.543.218,1.085.36,1.723l46.408-3.648c-2.384-10.034,3.043-20.561,16.314-28.273.676-.394,1.374-.775,2.07-1.143,22.708-11.97,57.936-11.587,79.986,1.143,6.563,3.789,11.23,8.25,14.021,13,6.9,11.726,2.33,25.2-13.747,34.538L293.8,256.891q2.868-1.666,5.473-3.434c24.365-16.55,30.759-39.165,19.259-58.955a59.1,59.1,0,0,0-14.8-16.523c-.483-.37-.953-.733-1.589-1.214-1.079-.8-2.172-1.582-3.4-2.413-.416-.279-.839-.561-1.964-1.273-.437-.29-.894-.569-1.343-.844-.18-.1-.344-.205-.517-.3-.523-.325-1.052-.638-1.6-.955-1.231-.71-2.487-1.4-3.922-2.15-.589-.31-1.184-.607-2.314-1.162-.564-.277-1.131-.561-1.713-.829s-1.165-.541-1.74-.8c-.647-.291-1.295-.58-2.015-.89-.589-.249-1.19-.5-2.154-.894-.5-.207-1.005-.4-1.528-.6-.218-.1-.435-.176-.661-.261-.35-.14-.7-.274-1.057-.4-.443-.171-.891-.341-1.818-.668-.607-.213-1.215-.429-2.134-.737-.634-.213-1.268-.427-2.3-.76-.569-.184-1.157-.362-1.724-.538-.205-.065-.4-.119-.594-.175-.588-.181-1.189-.353-2.273-.665-.614-.172-1.235-.342-2.226-.607-.719-.189-1.432-.371-2.152-.552q-3.528-.88-7.139-1.606c-.8-.162-1.617-.319-2.416-.467a178.656,178.656,0,0,0-32.373-2.917c-19.343,0-38.668,3.046-55.537,9.132" transform="translate(-114.516 -153.303)" fill="none"/>
    </clipPath>
    <linearGradient id="linear-gradient-31" x1="-0.81" y1="1.633" x2="-0.803" y2="1.633" gradientUnits="objectBoundingBox">
      <stop offset="0" stop-color="#fff"/>
      <stop offset="0.461" stop-color="#ffd6b4"/>
      <stop offset="0.823" stop-color="#ffba81"/>
      <stop offset="1" stop-color="#ffb06d"/>
    </linearGradient>
    <clipPath id="clip-path-58">
      <path id="패스_87493" data-name="패스 87493" d="M165.951,170.029l-.048,16.895c22.709-11.971,57.937-11.59,79.987,1.14,6.556,3.787,11.23,8.251,14.02,13l.048-16.892c-2.789-4.748-7.464-9.214-14.021-13-11.364-6.562-26.23-9.843-41.078-9.843-13.96,0-27.9,2.9-38.908,8.7" transform="translate(-165.903 -161.329)" fill="none"/>
    </clipPath>
    <linearGradient id="linear-gradient-32" x1="-3.474" y1="3.38" x2="-3.454" y2="3.38" xlink:href="#linear-gradient-4"/>
    <clipPath id="clip-path-60">
      <path id="패스_87495" data-name="패스 87495" d="M155.983,149.279c-.737.259-1.468.531-2.185.81-1.441.538-2.862,1.111-4.31,1.729-.119.046-.237.1-.348.149-.506.218-1.014.443-1.775.779-.672.3-1.349.615-2.27,1.05-.578.275-1.163.554-1.729.844-.519.256-1.013.511-1.519.768-.223.115-.446.23-.67.351l31.586,20.11c22.709-11.97,57.937-11.587,79.986,1.143,6.557,3.784,11.232,8.25,14.021,13l44.329-8.687a59.983,59.983,0,0,0-14.532-16.21c-.126-.1-.251-.191-.371-.289-.186-.138-.351-.272-.523-.409-.3-.23-.6-.462-1.066-.8-.265-.193-.517-.383-.782-.574-.152-.111-.3-.214-.457-.324-.384-.275-.781-.551-1.337-.94-.238-.176-.5-.348-.834-.582-.417-.278-.835-.556-1.423-.927l-.537-.339c-.436-.291-.893-.57-1.343-.846-.179-.1-.349-.209-.515-.3-.529-.328-1.059-.642-1.6-.955-1.237-.714-2.488-1.4-3.93-2.153-.582-.307-1.185-.607-1.983-1-.107-.054-.219-.111-.325-.157-.469-.24-.952-.473-1.713-.829-.574-.272-1.162-.542-1.745-.8-.648-.291-1.288-.578-2.015-.892-.582-.245-1.184-.492-1.778-.737-.126-.057-.251-.106-.378-.156-.495-.2-1.005-.406-1.52-.6-.218-.1-.443-.18-.659-.26-.352-.142-.7-.274-1.065-.4-.436-.168-.885-.337-1.342-.494-.152-.065-.311-.117-.469-.172-.613-.218-1.216-.427-2.134-.736-.64-.218-1.268-.429-1.916-.634-.125-.051-.27-.089-.389-.126-.569-.184-1.156-.364-1.724-.54-.2-.065-.4-.119-.594-.175-.588-.18-1.19-.352-1.784-.528-.158-.052-.323-.1-.488-.137-.615-.172-1.235-.341-1.843-.509-.125-.034-.256-.071-.381-.1-.721-.187-1.44-.374-2.159-.554q-3.518-.888-7.137-1.608c-.806-.161-1.611-.312-2.411-.462a178.265,178.265,0,0,0-32.445-2.939c-19.294,0-38.589,3.041-55.465,9.154" transform="translate(-141.176 -140.125)" fill="none"/>
    </clipPath>
    <linearGradient id="linear-gradient-33" x1="-1.664" y1="2.308" x2="-1.654" y2="2.308" gradientUnits="objectBoundingBox">
      <stop offset="0" stop-color="#fff"/>
      <stop offset="0.07" stop-color="#fff1f3"/>
      <stop offset="0.522" stop-color="#ffa0ae"/>
      <stop offset="0.843" stop-color="#ff6d82"/>
      <stop offset="1" stop-color="#ff5a72"/>
    </linearGradient>
  </defs>
  <g id="그룹_14322" data-name="그룹 14322" clip-path="url(#clip-path)">
    <g id="그룹_14194" data-name="그룹 14194">
      <g id="그룹_14193" data-name="그룹 14193" clip-path="url(#clip-path)">
        <path id="패스_87313" data-name="패스 87313" d="M372.062,217c3.41,1.969,3.428,5.157.041,7.126L318.975,255a13.546,13.546,0,0,1-12.3,0L253.2,224.126c-3.411-1.968-3.428-5.157-.041-7.125l53.127-30.875a13.546,13.546,0,0,1,12.3,0Z" transform="translate(69.035 50.861)" fill="#3060a8"/>
      </g>
    </g>
    <g id="그룹_14196" data-name="그룹 14196" transform="translate(325.837 108.344)">
      <g id="그룹_14195" data-name="그룹 14195" clip-path="url(#clip-path-3)">
        <rect id="사각형_149491" data-name="사각형 149491" width="108.737" height="191.955" transform="translate(-0.003 0)" fill="url(#linear-gradient)"/>
      </g>
    </g>
    <g id="그룹_14201" data-name="그룹 14201">
      <g id="그룹_14200" data-name="그룹 14200" clip-path="url(#clip-path)">
        <path id="패스_87315" data-name="패스 87315" d="M361.862,88.625c2.978,1.719,2.993,4.5.036,6.223l-46.392,26.959a11.83,11.83,0,0,1-10.742,0l-46.7-26.959c-2.977-1.719-2.993-4.5-.034-6.223l46.391-26.959a11.833,11.833,0,0,1,10.743,0Z" transform="translate(70.466 16.63)" fill="#a4d4ed"/>
        <path id="패스_87316" data-name="패스 87316" d="M361.9,94.841,315.5,121.8a11.77,11.77,0,0,1-10.735,0L258.074,94.841c-2.986-1.715-3-4.492-.037-6.219l2.468-1.431,43.916-25.531a11.875,11.875,0,0,1,10.748,0L359.43,87.216l2.431,1.407c2.974,1.727,3,4.5.037,6.219" transform="translate(70.466 16.63)" fill="#a4d4ed"/>
        <g id="그룹_14199" data-name="그룹 14199" transform="translate(330.971 77.005)" opacity="0.4">
          <g id="그룹_14198" data-name="그룹 14198">
            <g id="그룹_14197" data-name="그룹 14197" clip-path="url(#clip-path-5)">
              <path id="패스_87317" data-name="패스 87317" d="M358.419,87.216l-43.928,25.531a11.84,11.84,0,0,1-10.735,0L259.494,87.191,303.41,61.661a11.872,11.872,0,0,1,10.747,0Z" transform="translate(-259.494 -60.375)" fill="#3060a8"/>
            </g>
          </g>
        </g>
      </g>
    </g>
    <g id="그룹_14203" data-name="그룹 14203" transform="translate(326.291 61.343)">
      <g id="그룹_14202" data-name="그룹 14202" clip-path="url(#clip-path-6)">
        <rect id="사각형_149494" data-name="사각형 149494" width="109.78" height="63.151" transform="translate(-0.75)" fill="url(#linear-gradient-2)"/>
      </g>
    </g>
    <g id="그룹_14205" data-name="그룹 14205" transform="translate(362.663 82.411)">
      <g id="그룹_14204" data-name="그룹 14204" clip-path="url(#clip-path-7)">
        <rect id="사각형_149495" data-name="사각형 149495" width="35.329" height="41.548" transform="translate(-8.897 16.067) rotate(-61.699)" fill="url(#linear-gradient-3)"/>
      </g>
    </g>
    <g id="그룹_14215" data-name="그룹 14215">
      <g id="그룹_14214" data-name="그룹 14214" clip-path="url(#clip-path)">
        <g id="그룹_14208" data-name="그룹 14208" transform="translate(210.866 40.039)" opacity="0.2">
          <g id="그룹_14207" data-name="그룹 14207">
            <g id="그룹_14206" data-name="그룹 14206" clip-path="url(#clip-path-9)">
              <path id="패스_87320" data-name="패스 87320" d="M177.033,38.15c15.609-9.011,40.915-9.01,56.524,0s15.609,23.624,0,32.636-40.915,9.011-56.524,0-15.609-23.623,0-32.635" transform="translate(-165.327 -31.392)" fill="#b5e9fe"/>
            </g>
          </g>
        </g>
        <g id="그룹_14213" data-name="그룹 14213" transform="translate(30.594 150.806)" opacity="0.37">
          <g id="그룹_14212" data-name="그룹 14212">
            <g id="그룹_14211" data-name="그룹 14211" clip-path="url(#clip-path-10)">
              <g id="그룹_14210" data-name="그룹 14210" transform="translate(0)">
                <g id="그룹_14209" data-name="그룹 14209" clip-path="url(#clip-path-11)">
                  <rect id="사각형_149497" data-name="사각형 149497" width="117.702" height="146.645" transform="translate(0)" fill="url(#linear-gradient-4)"/>
                </g>
              </g>
            </g>
          </g>
        </g>
        <path id="패스_87322" data-name="패스 87322" d="M214.032,359.9c5.308,3.065,5.33,8.035.056,11.1l-82.709,48.065c-5.274,3.065-13.855,3.069-19.164,0L28.959,371c-5.31-3.065-5.331-8.035-.056-11.1l82.709-48.065c5.274-3.066,13.855-3.069,19.164,0Z" transform="translate(6.876 85.26)" fill="#3060a8"/>
      </g>
    </g>
    <g id="그룹_14217" data-name="그룹 14217" transform="translate(42.035 426.076)">
      <g id="그룹_14216" data-name="그룹 14216" clip-path="url(#clip-path-12)">
        <rect id="사각형_149500" data-name="사각형 149500" width="172.617" height="71.847" transform="translate(-0.005)" fill="url(#linear-gradient-5)"/>
      </g>
    </g>
    <g id="그룹_14219" data-name="그룹 14219">
      <g id="그룹_14218" data-name="그룹 14218" clip-path="url(#clip-path)">
        <path id="패스_87324" data-name="패스 87324" d="M201.983,339.916c4.745,2.74,4.764,7.181.05,9.92l-73.92,42.958c-4.714,2.74-12.383,2.742-17.128,0l-74.41-42.961c-4.745-2.74-4.764-7.182-.05-9.92l73.92-42.958c4.714-2.74,12.383-2.742,17.128,0Z" transform="translate(9.091 81.23)" fill="#a4d4ed"/>
      </g>
    </g>
    <g id="그룹_14221" data-name="그룹 14221" transform="translate(48.988 380.113)">
      <g id="그룹_14220" data-name="그룹 14220" clip-path="url(#clip-path-14)">
        <rect id="사각형_149502" data-name="사각형 149502" width="168.62" height="183.393" transform="matrix(0.589, -0.808, 0.808, 0.589, -44.413, 60.208)" fill="url(#linear-gradient-6)"/>
      </g>
    </g>
    <g id="그룹_14223" data-name="그룹 14223" transform="translate(58.278 410.952)">
      <g id="그룹_14222" data-name="그룹 14222" clip-path="url(#clip-path-15)">
        <rect id="사각형_149503" data-name="사각형 149503" width="51.882" height="60.675" transform="translate(-12.963 23.327) rotate(-61.254)" fill="url(#linear-gradient-7)"/>
      </g>
    </g>
    <g id="그룹_14225" data-name="그룹 14225">
      <g id="그룹_14224" data-name="그룹 14224" clip-path="url(#clip-path)">
        <path id="패스_87327" data-name="패스 87327" d="M77.406,344.538a.838.838,0,0,1,.013,1.587,3.016,3.016,0,0,1-2.743,0,.839.839,0,0,1-.009-1.589,3.016,3.016,0,0,1,2.74,0" transform="translate(20.411 94.811)" fill="#ff5a72"/>
        <path id="패스_87328" data-name="패스 87328" d="M73.676,346.705a.84.84,0,0,1,.009,1.589,3.016,3.016,0,0,1-2.743,0,.839.839,0,0,1-.009-1.589,3.024,3.024,0,0,1,2.743,0" transform="translate(19.383 95.409)" fill="#ff5a72"/>
        <path id="패스_87329" data-name="패스 87329" d="M81.138,342.369a.839.839,0,0,1,.009,1.589,3.024,3.024,0,0,1-2.743,0,.84.84,0,0,1-.009-1.589,3.016,3.016,0,0,1,2.743,0" transform="translate(21.438 94.214)" fill="#ff5a72"/>
        <path id="패스_87330" data-name="패스 87330" d="M84.871,340.2a.839.839,0,0,1,.009,1.589,3.016,3.016,0,0,1-2.743,0,.839.839,0,0,1-.009-1.589,3.02,3.02,0,0,1,2.743,0" transform="translate(22.466 93.617)" fill="#ff5a72"/>
        <path id="패스_87331" data-name="패스 87331" d="M88.6,338.03a.839.839,0,0,1,.009,1.589,3.016,3.016,0,0,1-2.743,0,.839.839,0,0,1-.009-1.589,3.019,3.019,0,0,1,2.743,0" transform="translate(23.494 93.019)" fill="#ff5a72"/>
        <path id="패스_87332" data-name="패스 87332" d="M90.357,378.184a4.144,4.144,0,0,1,1.883,3.261c0,1.2-.851,1.689-1.9,1.087a4.164,4.164,0,0,1-1.883-3.268c0-1.2.852-1.682,1.9-1.08" transform="translate(24.367 104.099)" fill="#ffb06d"/>
        <path id="패스_87333" data-name="패스 87333" d="M85.061,375.126a4.144,4.144,0,0,1,1.883,3.261c0,1.2-.851,1.689-1.9,1.087a4.161,4.161,0,0,1-1.883-3.268c0-1.2.851-1.684,1.9-1.08" transform="translate(22.908 103.256)" fill="#ffb06d"/>
        <path id="패스_87334" data-name="패스 87334" d="M79.765,372.068a4.16,4.16,0,0,1,1.888,3.264c0,1.2-.856,1.686-1.9,1.084a4.164,4.164,0,0,1-1.883-3.268c0-1.2.852-1.684,1.9-1.08" transform="translate(21.449 102.414)" fill="#ffb06d"/>
      </g>
    </g>
    <g id="그룹_14227" data-name="그룹 14227" transform="translate(49.24 438.5)">
      <g id="그룹_14226" data-name="그룹 14226" clip-path="url(#clip-path-17)">
        <rect id="사각형_149505" data-name="사각형 149505" width="10.673" height="10.306" transform="matrix(0.453, -0.892, 0.892, 0.453, -3.318, 6.538)" fill="url(#linear-gradient-8)"/>
      </g>
    </g>
    <g id="그룹_14229" data-name="그룹 14229" transform="translate(58.279 443.718)">
      <g id="그룹_14228" data-name="그룹 14228" clip-path="url(#clip-path-18)">
        <rect id="사각형_149506" data-name="사각형 149506" width="10.674" height="10.305" transform="translate(-3.318 6.539) rotate(-63.094)" fill="url(#linear-gradient-9)"/>
      </g>
    </g>
    <g id="그룹_14231" data-name="그룹 14231" transform="translate(12.166 30.481)">
      <g id="그룹_14230" data-name="그룹 14230" clip-path="url(#clip-path-19)">
        <rect id="사각형_149507" data-name="사각형 149507" width="154.558" height="215.691" transform="translate(0 0)" fill="url(#linear-gradient-10)"/>
      </g>
    </g>
    <g id="그룹_14233" data-name="그룹 14233" transform="translate(26.453 86.94)">
      <g id="그룹_14232" data-name="그룹 14232" clip-path="url(#clip-path-20)">
        <rect id="사각형_149508" data-name="사각형 149508" width="125.985" height="128.191" transform="translate(0 0)" fill="url(#linear-gradient-11)"/>
      </g>
    </g>
    <g id="그룹_14235" data-name="그룹 14235" transform="translate(26.453 110.743)">
      <g id="그룹_14234" data-name="그룹 14234" clip-path="url(#clip-path-21)">
        <rect id="사각형_149509" data-name="사각형 149509" width="148.318" height="158.571" transform="matrix(0.429, -0.903, 0.903, 0.429, -40.43, 85.203)" fill="url(#linear-gradient-12)"/>
      </g>
    </g>
    <g id="그룹_14243" data-name="그룹 14243">
      <g id="그룹_14242" data-name="그룹 14242" clip-path="url(#clip-path)">
        <path id="패스_87340" data-name="패스 87340" d="M146.726,119.33,20.74,192.069v-2.935l125.986-72.739Z" transform="translate(5.713 32.061)" fill="#3060a8"/>
        <line id="선_257" data-name="선 257" y1="95.656" transform="translate(37.633 119.083)" fill="none" stroke="#3060a8" stroke-width="0.856"/>
        <line id="선_258" data-name="선 258" y1="95.656" transform="translate(57.962 107.346)" fill="none" stroke="#3060a8" stroke-width="0.856"/>
        <line id="선_259" data-name="선 259" y1="95.656" transform="translate(78.291 95.609)" fill="none" stroke="#3060a8" stroke-width="0.856"/>
        <line id="선_260" data-name="선 260" y1="95.656" transform="translate(98.621 83.872)" fill="none" stroke="#3060a8" stroke-width="0.856"/>
        <line id="선_261" data-name="선 261" y1="95.656" transform="translate(118.95 72.135)" fill="none" stroke="#3060a8" stroke-width="0.856"/>
        <line id="선_262" data-name="선 262" y1="95.656" transform="translate(139.279 60.398)" fill="none" stroke="#3060a8" stroke-width="0.856"/>
        <path id="패스_87341" data-name="패스 87341" d="M74.932,90.055a6.737,6.737,0,0,1,3.05-5.282c1.684-.972,3.05-.184,3.05,1.76a6.74,6.74,0,0,1-3.05,5.282c-1.685.973-3.05.185-3.05-1.76" transform="translate(20.64 23.236)" fill="#3060a8"/>
        <path id="패스_87342" data-name="패스 87342" d="M90.87,115.413a6.737,6.737,0,0,1,3.05-5.282c1.684-.972,3.05-.184,3.05,1.76a6.74,6.74,0,0,1-3.05,5.282c-1.685.973-3.05.185-3.05-1.76" transform="translate(25.03 30.221)" fill="#3060a8"/>
        <path id="패스_87343" data-name="패스 87343" d="M27.115,109.494a6.737,6.737,0,0,1,3.05-5.282c1.684-.972,3.05-.184,3.05,1.76a6.74,6.74,0,0,1-3.05,5.282c-1.685.973-3.05.185-3.05-1.76" transform="translate(7.469 28.59)" fill="#3060a8"/>
        <path id="패스_87344" data-name="패스 87344" d="M106.809,77.172a6.737,6.737,0,0,1,3.05-5.282c1.684-.972,3.05-.184,3.05,1.76a6.74,6.74,0,0,1-3.05,5.282c-1.685.973-3.05.185-3.05-1.76" transform="translate(29.42 19.687)" fill="#3060a8"/>
        <path id="패스_87345" data-name="패스 87345" d="M43.054,136.177a6.737,6.737,0,0,1,3.05-5.282c1.684-.972,3.05-.184,3.05,1.76a6.741,6.741,0,0,1-3.05,5.282c-1.685.973-3.05.185-3.05-1.76" transform="translate(11.859 35.94)" fill="#3060a8"/>
        <g id="그룹_14238" data-name="그룹 14238" transform="translate(213.083 129.379)" opacity="0.2">
          <g id="그룹_14237" data-name="그룹 14237">
            <g id="그룹_14236" data-name="그룹 14236" clip-path="url(#clip-path-23)">
              <path id="패스_87346" data-name="패스 87346" d="M178.122,107.822c14.743-8.511,38.647-8.511,53.39,0s14.743,22.314,0,30.825-38.647,8.512-53.39,0-14.743-22.313,0-30.825" transform="translate(-167.065 -101.438)" fill="#ff5a72"/>
            </g>
          </g>
        </g>
        <g id="그룹_14241" data-name="그룹 14241" transform="translate(226.308 119.383)" opacity="0.2">
          <g id="그룹_14240" data-name="그룹 14240">
            <g id="그룹_14239" data-name="그룹 14239" clip-path="url(#clip-path-24)">
              <path id="패스_87347" data-name="패스 87347" d="M184.689,97.791c9.674-5.585,25.358-5.585,35.033,0s9.673,14.641,0,20.226-25.358,5.585-35.033,0-9.674-14.641,0-20.226" transform="translate(-177.434 -93.601)" fill="#b5e9fe"/>
            </g>
          </g>
        </g>
        <path id="패스_87348" data-name="패스 87348" d="M428.235,262.778c10.826,6.25,10.89,16.392.128,22.647L259.621,383.487c-10.762,6.255-28.272,6.25-39.1,0L50.679,285.426c-10.832-6.255-10.89-16.392-.128-22.647l168.742-98.062c10.762-6.254,28.264-6.255,39.1,0Z" transform="translate(11.711 44.079)" fill="#3060a8"/>
      </g>
    </g>
    <g id="그룹_14245" data-name="그룹 14245" transform="translate(59.885 304.249)">
      <g id="그룹_14244" data-name="그룹 14244" clip-path="url(#clip-path-25)">
        <rect id="사각형_149513" data-name="사각형 149513" width="382.559" height="117.598" transform="translate(-0.011)" fill="url(#linear-gradient-13)"/>
      </g>
    </g>
    <g id="그룹_14247" data-name="그룹 14247" transform="translate(59.9 193.536)">
      <g id="그룹_14246" data-name="그룹 14246" clip-path="url(#clip-path-26)">
        <rect id="사각형_149514" data-name="사각형 149514" width="382.098" height="447.329" transform="translate(-96.707 171.517) rotate(-61.26)" fill="url(#linear-gradient-14)"/>
      </g>
    </g>
    <g id="그룹_14249" data-name="그룹 14249">
      <g id="그룹_14248" data-name="그룹 14248" clip-path="url(#clip-path)">
        <path id="패스_87351" data-name="패스 87351" d="M208.3,299.326l-24.279,14.018-5.285-3.052,24.279-14.018Z" transform="translate(49.233 81.608)" fill="#b5e9fe"/>
        <path id="패스_87352" data-name="패스 87352" d="M230.712,295.723l-40.337,23.288-5.285-3.051,40.337-23.29Z" transform="translate(50.982 80.616)" fill="#b5e9fe"/>
        <path id="패스_87353" data-name="패스 87353" d="M254.653,291.426l-57.928,33.445-5.285-3.051,57.928-33.446Z" transform="translate(52.731 79.432)" fill="#b5e9fe"/>
      </g>
    </g>
    <g id="그룹_14251" data-name="그룹 14251" transform="translate(10.322 360.092)">
      <g id="그룹_14250" data-name="그룹 14250" clip-path="url(#clip-path-28)">
        <rect id="사각형_149516" data-name="사각형 149516" width="33.219" height="39.191" fill="url(#linear-gradient-15)"/>
      </g>
    </g>
    <g id="그룹_14253" data-name="그룹 14253" transform="translate(10.322 350.085)">
      <g id="그룹_14252" data-name="그룹 14252" clip-path="url(#clip-path-29)">
        <rect id="사각형_149517" data-name="사각형 149517" width="50.496" height="29.279" transform="translate(0)" fill="url(#linear-gradient-16)"/>
      </g>
    </g>
    <g id="그룹_14255" data-name="그룹 14255" transform="translate(27.599 330.166)">
      <g id="그룹_14254" data-name="그룹 14254" clip-path="url(#clip-path-30)">
        <rect id="사각형_149518" data-name="사각형 149518" width="33.219" height="39.191" transform="translate(0)" fill="url(#linear-gradient-17)"/>
      </g>
    </g>
    <g id="그룹_14257" data-name="그룹 14257" transform="translate(27.599 320.159)">
      <g id="그룹_14256" data-name="그룹 14256" clip-path="url(#clip-path-31)">
        <rect id="사각형_149519" data-name="사각형 149519" width="50.498" height="29.279" transform="translate(0 0)" fill="url(#linear-gradient-18)"/>
      </g>
    </g>
    <g id="그룹_14259" data-name="그룹 14259" transform="translate(44.878 300.24)">
      <g id="그룹_14258" data-name="그룹 14258" clip-path="url(#clip-path-32)">
        <rect id="사각형_149520" data-name="사각형 149520" width="33.219" height="39.191" transform="translate(0 0)" fill="url(#linear-gradient-19)"/>
      </g>
    </g>
    <g id="그룹_14261" data-name="그룹 14261" transform="translate(44.878 290.232)">
      <g id="그룹_14260" data-name="그룹 14260" clip-path="url(#clip-path-33)">
        <rect id="사각형_149521" data-name="사각형 149521" width="50.496" height="29.28" transform="translate(0 0)" fill="url(#linear-gradient-20)"/>
      </g>
    </g>
    <g id="그룹_14263" data-name="그룹 14263" transform="translate(43.485 309.504)">
      <g id="그룹_14262" data-name="그룹 14262" clip-path="url(#clip-path-34)">
        <rect id="사각형_149522" data-name="사각형 149522" width="103.745" height="91.389" transform="matrix(0.524, -0.852, 0.852, 0.524, -40.073, 65.119)" fill="url(#linear-gradient-21)"/>
      </g>
    </g>
    <g id="그룹_14268" data-name="그룹 14268">
      <g id="그룹_14267" data-name="그룹 14267" clip-path="url(#clip-path)">
        <path id="패스_87361" data-name="패스 87361" d="M140.474,105.927c.791-.457,1.434-.092,1.436.816a3.143,3.143,0,0,1-1.427,2.468c-.788.455-1.431.089-1.434-.818a3.139,3.139,0,0,1,1.425-2.467" transform="translate(38.301 29.123)" fill="#3060a8"/>
        <path id="패스_87362" data-name="패스 87362" d="M140.474,100.054c.791-.457,1.434-.092,1.436.816a3.143,3.143,0,0,1-1.427,2.468c-.788.455-1.431.089-1.434-.818a3.139,3.139,0,0,1,1.425-2.467" transform="translate(38.301 27.505)" fill="#3060a8"/>
        <path id="패스_87363" data-name="패스 87363" d="M140.474,94.18c.791-.457,1.434-.092,1.436.816a3.143,3.143,0,0,1-1.427,2.468c-.788.455-1.431.089-1.434-.818a3.139,3.139,0,0,1,1.425-2.467" transform="translate(38.301 25.887)" fill="#3060a8"/>
        <path id="패스_87364" data-name="패스 87364" d="M140.474,88.306c.791-.457,1.434-.093,1.436.816a3.143,3.143,0,0,1-1.427,2.468c-.788.455-1.431.089-1.434-.818a3.139,3.139,0,0,1,1.425-2.467" transform="translate(38.301 24.269)" fill="#3060a8"/>
        <path id="패스_87365" data-name="패스 87365" d="M140.474,82.432c.791-.457,1.434-.093,1.436.816a3.143,3.143,0,0,1-1.427,2.468c-.788.455-1.431.089-1.434-.818a3.139,3.139,0,0,1,1.425-2.467" transform="translate(38.301 22.651)" fill="#3060a8"/>
        <path id="패스_87366" data-name="패스 87366" d="M140.474,76.557c.791-.455,1.434-.093,1.436.816a3.143,3.143,0,0,1-1.427,2.468c-.788.455-1.431.089-1.434-.818a3.139,3.139,0,0,1,1.425-2.467" transform="translate(38.301 21.033)" fill="#3060a8"/>
        <path id="패스_87367" data-name="패스 87367" d="M140.474,70.685c.791-.457,1.434-.093,1.436.816a3.143,3.143,0,0,1-1.427,2.468c-.788.455-1.431.089-1.434-.818a3.139,3.139,0,0,1,1.425-2.467" transform="translate(38.301 19.416)" fill="#3060a8"/>
        <path id="패스_87368" data-name="패스 87368" d="M140.474,64.811c.791-.457,1.434-.093,1.436.816a3.143,3.143,0,0,1-1.427,2.468c-.788.455-1.431.089-1.434-.818a3.139,3.139,0,0,1,1.425-2.467" transform="translate(38.301 17.798)" fill="#3060a8"/>
        <path id="패스_87369" data-name="패스 87369" d="M140.474,58.937c.791-.457,1.434-.093,1.436.816a3.143,3.143,0,0,1-1.427,2.468c-.788.455-1.431.089-1.434-.818a3.139,3.139,0,0,1,1.425-2.467" transform="translate(38.301 16.18)" fill="#3060a8"/>
        <path id="패스_87370" data-name="패스 87370" d="M140.474,53.063c.791-.457,1.434-.093,1.436.816a3.143,3.143,0,0,1-1.427,2.468c-.788.455-1.431.089-1.434-.818a3.139,3.139,0,0,1,1.425-2.467" transform="translate(38.301 14.562)" fill="#3060a8"/>
        <path id="패스_87371" data-name="패스 87371" d="M140.474,47.189c.791-.457,1.434-.093,1.436.816a3.143,3.143,0,0,1-1.427,2.468c-.788.455-1.431.089-1.434-.818a3.139,3.139,0,0,1,1.425-2.467" transform="translate(38.301 12.944)" fill="#3060a8"/>
        <path id="패스_87372" data-name="패스 87372" d="M140.474,41.315c.791-.457,1.434-.093,1.436.816a3.143,3.143,0,0,1-1.427,2.468c-.788.455-1.431.089-1.434-.818a3.139,3.139,0,0,1,1.425-2.467" transform="translate(38.301 11.326)" fill="#3060a8"/>
        <path id="패스_87373" data-name="패스 87373" d="M140.474,35.441c.791-.457,1.434-.093,1.436.816a3.143,3.143,0,0,1-1.427,2.468c-.788.455-1.431.089-1.434-.818a3.139,3.139,0,0,1,1.425-2.467" transform="translate(38.301 9.708)" fill="#3060a8"/>
        <path id="패스_87374" data-name="패스 87374" d="M140.474,29.567c.791-.457,1.434-.093,1.436.816a3.143,3.143,0,0,1-1.427,2.468c-.788.455-1.431.089-1.434-.818a3.139,3.139,0,0,1,1.425-2.467" transform="translate(38.301 8.09)" fill="#3060a8"/>
        <path id="패스_87375" data-name="패스 87375" d="M140.474,23.693c.791-.457,1.434-.093,1.436.816a3.143,3.143,0,0,1-1.427,2.468c-.788.455-1.431.089-1.434-.818a3.139,3.139,0,0,1,1.425-2.467" transform="translate(38.301 6.472)" fill="#3060a8"/>
        <path id="패스_87376" data-name="패스 87376" d="M140.474,17.818c.791-.455,1.434-.093,1.436.818a3.147,3.147,0,0,1-1.427,2.468c-.788.454-1.431.089-1.434-.818a3.144,3.144,0,0,1,1.425-2.468" transform="translate(38.301 4.854)" fill="#3060a8"/>
        <path id="패스_87377" data-name="패스 87377" d="M151.014,125.045c.791-.457,1.432-.093,1.436.816a3.143,3.143,0,0,1-1.427,2.468c-.788.455-1.431.089-1.434-.818a3.139,3.139,0,0,1,1.425-2.467" transform="translate(41.204 34.389)" fill="#b5e9fe"/>
        <path id="패스_87378" data-name="패스 87378" d="M151.014,119.171c.791-.457,1.432-.093,1.436.816a3.143,3.143,0,0,1-1.427,2.468c-.788.455-1.431.089-1.434-.818a3.139,3.139,0,0,1,1.425-2.467" transform="translate(41.204 32.771)" fill="#b5e9fe"/>
        <path id="패스_87379" data-name="패스 87379" d="M151.014,113.3c.791-.455,1.432-.093,1.436.818a3.143,3.143,0,0,1-1.427,2.467c-.788.455-1.431.091-1.434-.816a3.144,3.144,0,0,1,1.425-2.468" transform="translate(41.204 31.153)" fill="#b5e9fe"/>
        <path id="패스_87380" data-name="패스 87380" d="M151.014,107.424c.791-.457,1.432-.092,1.436.816a3.143,3.143,0,0,1-1.427,2.468c-.788.455-1.431.089-1.434-.818a3.139,3.139,0,0,1,1.425-2.467" transform="translate(41.204 29.535)" fill="#b5e9fe"/>
        <path id="패스_87381" data-name="패스 87381" d="M151.014,101.55c.791-.457,1.432-.092,1.436.816a3.143,3.143,0,0,1-1.427,2.468c-.788.455-1.431.089-1.434-.818a3.139,3.139,0,0,1,1.425-2.467" transform="translate(41.204 27.917)" fill="#b5e9fe"/>
        <path id="패스_87382" data-name="패스 87382" d="M151.014,95.676c.791-.457,1.432-.092,1.436.816a3.143,3.143,0,0,1-1.427,2.468c-.788.455-1.431.089-1.434-.818a3.139,3.139,0,0,1,1.425-2.467" transform="translate(41.204 26.299)" fill="#b5e9fe"/>
        <path id="패스_87383" data-name="패스 87383" d="M151.014,89.8c.791-.457,1.432-.092,1.436.816a3.143,3.143,0,0,1-1.427,2.468c-.788.455-1.431.089-1.434-.818a3.139,3.139,0,0,1,1.425-2.467" transform="translate(41.204 24.681)" fill="#b5e9fe"/>
        <path id="패스_87384" data-name="패스 87384" d="M151.014,83.928c.791-.457,1.432-.092,1.436.816a3.143,3.143,0,0,1-1.427,2.468c-.788.455-1.431.089-1.434-.818a3.139,3.139,0,0,1,1.425-2.467" transform="translate(41.204 23.063)" fill="#b5e9fe"/>
        <path id="패스_87385" data-name="패스 87385" d="M151.014,78.054c.791-.457,1.432-.092,1.436.816a3.143,3.143,0,0,1-1.427,2.468c-.788.455-1.431.089-1.434-.818a3.139,3.139,0,0,1,1.425-2.467" transform="translate(41.204 21.445)" fill="#b5e9fe"/>
        <path id="패스_87386" data-name="패스 87386" d="M151.014,72.18c.791-.457,1.432-.092,1.436.816a3.143,3.143,0,0,1-1.427,2.468c-.788.455-1.431.089-1.434-.818a3.139,3.139,0,0,1,1.425-2.467" transform="translate(41.204 19.827)" fill="#b5e9fe"/>
        <path id="패스_87387" data-name="패스 87387" d="M151.014,66.306c.791-.457,1.432-.093,1.436.816a3.143,3.143,0,0,1-1.427,2.468c-.788.455-1.431.089-1.434-.818a3.139,3.139,0,0,1,1.425-2.467" transform="translate(41.204 18.209)" fill="#b5e9fe"/>
        <path id="패스_87388" data-name="패스 87388" d="M151.014,60.432c.791-.457,1.432-.093,1.436.816a3.143,3.143,0,0,1-1.427,2.468c-.788.455-1.431.089-1.434-.818a3.139,3.139,0,0,1,1.425-2.467" transform="translate(41.204 16.591)" fill="#b5e9fe"/>
        <path id="패스_87389" data-name="패스 87389" d="M151.014,54.557c.791-.455,1.432-.093,1.436.816a3.143,3.143,0,0,1-1.427,2.468c-.788.455-1.431.089-1.434-.818a3.139,3.139,0,0,1,1.425-2.467" transform="translate(41.204 14.974)" fill="#b5e9fe"/>
        <path id="패스_87390" data-name="패스 87390" d="M151.014,48.685c.791-.457,1.432-.093,1.436.816a3.143,3.143,0,0,1-1.427,2.468c-.788.455-1.431.089-1.434-.818a3.139,3.139,0,0,1,1.425-2.467" transform="translate(41.204 13.356)" fill="#b5e9fe"/>
        <path id="패스_87391" data-name="패스 87391" d="M151.014,42.811c.791-.457,1.432-.093,1.436.816a3.143,3.143,0,0,1-1.427,2.468c-.788.455-1.431.089-1.434-.818a3.139,3.139,0,0,1,1.425-2.467" transform="translate(41.204 11.738)" fill="#b5e9fe"/>
        <path id="패스_87392" data-name="패스 87392" d="M151.014,36.937c.791-.457,1.432-.093,1.436.816a3.143,3.143,0,0,1-1.427,2.468c-.788.455-1.431.089-1.434-.818a3.139,3.139,0,0,1,1.425-2.467" transform="translate(41.204 10.12)" fill="#b5e9fe"/>
        <path id="패스_87393" data-name="패스 87393" d="M238.944,88.306c.791-.457,1.432-.093,1.435.816a3.142,3.142,0,0,1-1.426,2.468c-.788.455-1.431.089-1.434-.818a3.139,3.139,0,0,1,1.425-2.467" transform="translate(65.424 24.269)" fill="#3060a8"/>
        <path id="패스_87394" data-name="패스 87394" d="M238.944,82.432c.791-.457,1.432-.093,1.435.816a3.142,3.142,0,0,1-1.426,2.468c-.788.455-1.431.089-1.434-.818a3.139,3.139,0,0,1,1.425-2.467" transform="translate(65.424 22.651)" fill="#3060a8"/>
        <path id="패스_87395" data-name="패스 87395" d="M238.944,76.557c.791-.455,1.432-.093,1.435.816a3.142,3.142,0,0,1-1.426,2.468c-.788.455-1.431.089-1.434-.818a3.139,3.139,0,0,1,1.425-2.467" transform="translate(65.424 21.033)" fill="#3060a8"/>
        <path id="패스_87396" data-name="패스 87396" d="M238.944,70.685c.791-.457,1.432-.093,1.435.816a3.142,3.142,0,0,1-1.426,2.468c-.788.455-1.431.089-1.434-.818a3.139,3.139,0,0,1,1.425-2.467" transform="translate(65.424 19.416)" fill="#3060a8"/>
        <path id="패스_87397" data-name="패스 87397" d="M238.944,64.811c.791-.457,1.432-.093,1.435.816a3.142,3.142,0,0,1-1.426,2.468c-.788.455-1.431.089-1.434-.818a3.139,3.139,0,0,1,1.425-2.467" transform="translate(65.424 17.798)" fill="#3060a8"/>
        <path id="패스_87398" data-name="패스 87398" d="M238.944,58.937c.791-.457,1.432-.093,1.435.816a3.142,3.142,0,0,1-1.426,2.468c-.788.455-1.431.089-1.434-.818a3.139,3.139,0,0,1,1.425-2.467" transform="translate(65.424 16.18)" fill="#3060a8"/>
        <path id="패스_87399" data-name="패스 87399" d="M238.944,53.063c.791-.457,1.432-.093,1.435.816a3.142,3.142,0,0,1-1.426,2.468c-.788.455-1.431.089-1.434-.818a3.139,3.139,0,0,1,1.425-2.467" transform="translate(65.424 14.562)" fill="#3060a8"/>
        <path id="패스_87400" data-name="패스 87400" d="M238.944,47.189c.791-.457,1.432-.093,1.435.816a3.142,3.142,0,0,1-1.426,2.468c-.788.455-1.431.089-1.434-.818a3.139,3.139,0,0,1,1.425-2.467" transform="translate(65.424 12.944)" fill="#3060a8"/>
        <path id="패스_87401" data-name="패스 87401" d="M238.944,41.315c.791-.457,1.432-.093,1.435.816a3.142,3.142,0,0,1-1.426,2.468c-.788.455-1.431.089-1.434-.818a3.139,3.139,0,0,1,1.425-2.467" transform="translate(65.424 11.326)" fill="#3060a8"/>
        <path id="패스_87402" data-name="패스 87402" d="M238.944,35.441c.791-.457,1.432-.093,1.435.816a3.142,3.142,0,0,1-1.426,2.468c-.788.455-1.431.089-1.434-.818a3.139,3.139,0,0,1,1.425-2.467" transform="translate(65.424 9.708)" fill="#3060a8"/>
        <path id="패스_87403" data-name="패스 87403" d="M238.944,29.567c.791-.457,1.432-.093,1.435.816a3.142,3.142,0,0,1-1.426,2.468c-.788.455-1.431.089-1.434-.818a3.139,3.139,0,0,1,1.425-2.467" transform="translate(65.424 8.09)" fill="#3060a8"/>
        <path id="패스_87404" data-name="패스 87404" d="M238.944,23.693c.791-.457,1.432-.093,1.435.816a3.142,3.142,0,0,1-1.426,2.468c-.788.455-1.431.089-1.434-.818a3.139,3.139,0,0,1,1.425-2.467" transform="translate(65.424 6.472)" fill="#3060a8"/>
        <path id="패스_87405" data-name="패스 87405" d="M238.944,17.818c.791-.455,1.432-.093,1.435.818a3.146,3.146,0,0,1-1.426,2.468c-.788.454-1.431.089-1.434-.818a3.143,3.143,0,0,1,1.425-2.468" transform="translate(65.424 4.854)" fill="#3060a8"/>
        <path id="패스_87406" data-name="패스 87406" d="M238.944,11.946c.791-.457,1.432-.093,1.435.816a3.142,3.142,0,0,1-1.426,2.468c-.788.455-1.431.089-1.434-.818a3.139,3.139,0,0,1,1.425-2.467" transform="translate(65.424 3.236)" fill="#3060a8"/>
        <path id="패스_87407" data-name="패스 87407" d="M238.944,6.072c.791-.457,1.432-.093,1.435.816a3.142,3.142,0,0,1-1.426,2.468c-.788.455-1.431.089-1.434-.818a3.139,3.139,0,0,1,1.425-2.467" transform="translate(65.424 1.618)" fill="#3060a8"/>
        <path id="패스_87408" data-name="패스 87408" d="M238.944.2c.791-.457,1.432-.093,1.435.816a3.142,3.142,0,0,1-1.426,2.468c-.788.455-1.431.089-1.434-.818A3.139,3.139,0,0,1,238.944.2" transform="translate(65.424 0)" fill="#3060a8"/>
        <path id="패스_87409" data-name="패스 87409" d="M378.85,292.922c.791-.457,1.432-.093,1.436.816a3.143,3.143,0,0,1-1.427,2.468c-.788.455-1.431.089-1.434-.818a3.139,3.139,0,0,1,1.425-2.467" transform="translate(103.961 80.63)" fill="#b5e9fe"/>
        <path id="패스_87410" data-name="패스 87410" d="M378.85,287.048c.791-.457,1.432-.093,1.436.816a3.143,3.143,0,0,1-1.427,2.468c-.788.455-1.431.089-1.434-.818a3.139,3.139,0,0,1,1.425-2.467" transform="translate(103.961 79.012)" fill="#b5e9fe"/>
        <path id="패스_87411" data-name="패스 87411" d="M378.85,281.174c.791-.457,1.432-.092,1.436.816a3.143,3.143,0,0,1-1.427,2.468c-.788.455-1.431.089-1.434-.818a3.139,3.139,0,0,1,1.425-2.467" transform="translate(103.961 77.394)" fill="#b5e9fe"/>
        <path id="패스_87412" data-name="패스 87412" d="M378.85,275.3c.791-.457,1.432-.092,1.436.816a3.143,3.143,0,0,1-1.427,2.468c-.788.455-1.431.089-1.434-.818a3.139,3.139,0,0,1,1.425-2.467" transform="translate(103.961 75.776)" fill="#b5e9fe"/>
        <path id="패스_87413" data-name="패스 87413" d="M378.85,269.426c.791-.457,1.432-.092,1.436.816a3.143,3.143,0,0,1-1.427,2.468c-.788.455-1.431.089-1.434-.818a3.139,3.139,0,0,1,1.425-2.467" transform="translate(103.961 74.158)" fill="#b5e9fe"/>
        <path id="패스_87414" data-name="패스 87414" d="M378.85,263.552c.791-.457,1.432-.092,1.436.816a3.143,3.143,0,0,1-1.427,2.468c-.788.455-1.431.089-1.434-.818a3.139,3.139,0,0,1,1.425-2.467" transform="translate(103.961 72.54)" fill="#b5e9fe"/>
        <path id="패스_87415" data-name="패스 87415" d="M378.85,257.678c.791-.457,1.432-.093,1.436.816a3.143,3.143,0,0,1-1.427,2.468c-.788.455-1.431.089-1.434-.818a3.139,3.139,0,0,1,1.425-2.467" transform="translate(103.961 70.922)" fill="#b5e9fe"/>
        <path id="패스_87416" data-name="패스 87416" d="M378.85,251.8c.791-.457,1.432-.093,1.436.816a3.143,3.143,0,0,1-1.427,2.468c-.788.455-1.431.089-1.434-.818a3.139,3.139,0,0,1,1.425-2.467" transform="translate(103.961 69.305)" fill="#b5e9fe"/>
        <path id="패스_87417" data-name="패스 87417" d="M378.85,245.931c.791-.457,1.432-.093,1.436.816a3.143,3.143,0,0,1-1.427,2.468c-.788.455-1.431.089-1.434-.818a3.139,3.139,0,0,1,1.425-2.467" transform="translate(103.961 67.687)" fill="#b5e9fe"/>
        <path id="패스_87418" data-name="패스 87418" d="M378.85,240.057c.791-.457,1.432-.093,1.436.816a3.143,3.143,0,0,1-1.427,2.468c-.788.455-1.431.089-1.434-.818a3.139,3.139,0,0,1,1.425-2.467" transform="translate(103.961 66.069)" fill="#b5e9fe"/>
        <path id="패스_87419" data-name="패스 87419" d="M378.85,234.183c.791-.457,1.432-.092,1.436.816a3.143,3.143,0,0,1-1.427,2.468c-.788.455-1.431.089-1.434-.818a3.139,3.139,0,0,1,1.425-2.467" transform="translate(103.961 64.451)" fill="#b5e9fe"/>
        <path id="패스_87420" data-name="패스 87420" d="M378.85,228.309c.791-.457,1.432-.092,1.436.816a3.143,3.143,0,0,1-1.427,2.468c-.788.455-1.431.089-1.434-.818a3.139,3.139,0,0,1,1.425-2.467" transform="translate(103.961 62.833)" fill="#b5e9fe"/>
        <path id="패스_87421" data-name="패스 87421" d="M378.85,222.435c.791-.457,1.432-.092,1.436.816a3.143,3.143,0,0,1-1.427,2.468c-.788.455-1.431.089-1.434-.818a3.139,3.139,0,0,1,1.425-2.467" transform="translate(103.961 61.215)" fill="#b5e9fe"/>
        <path id="패스_87422" data-name="패스 87422" d="M378.85,216.561c.791-.457,1.432-.092,1.436.816a3.143,3.143,0,0,1-1.427,2.468c-.788.455-1.431.089-1.434-.818a3.139,3.139,0,0,1,1.425-2.467" transform="translate(103.961 59.597)" fill="#b5e9fe"/>
        <path id="패스_87423" data-name="패스 87423" d="M378.85,210.687c.791-.457,1.432-.092,1.436.816a3.143,3.143,0,0,1-1.427,2.468c-.788.455-1.431.089-1.434-.818a3.139,3.139,0,0,1,1.425-2.467" transform="translate(103.961 57.979)" fill="#b5e9fe"/>
        <path id="패스_87424" data-name="패스 87424" d="M378.85,204.813c.791-.457,1.432-.092,1.436.816a3.143,3.143,0,0,1-1.427,2.468c-.788.455-1.431.089-1.434-.818a3.139,3.139,0,0,1,1.425-2.467" transform="translate(103.961 56.361)" fill="#b5e9fe"/>
        <path id="패스_87425" data-name="패스 87425" d="M371.495,273.8c.791-.457,1.432-.093,1.435.816a3.142,3.142,0,0,1-1.426,2.468c-.788.455-1.431.089-1.434-.818a3.139,3.139,0,0,1,1.425-2.467" transform="translate(101.935 75.365)" fill="#b5e9fe"/>
        <path id="패스_87426" data-name="패스 87426" d="M371.495,267.931c.791-.457,1.432-.093,1.435.816a3.142,3.142,0,0,1-1.426,2.468c-.788.455-1.431.089-1.434-.818a3.139,3.139,0,0,1,1.425-2.467" transform="translate(101.935 73.747)" fill="#b5e9fe"/>
        <path id="패스_87427" data-name="패스 87427" d="M371.495,262.057c.791-.457,1.432-.093,1.435.816a3.142,3.142,0,0,1-1.426,2.468c-.788.455-1.431.089-1.434-.818a3.139,3.139,0,0,1,1.425-2.467" transform="translate(101.935 72.129)" fill="#b5e9fe"/>
        <path id="패스_87428" data-name="패스 87428" d="M371.495,256.183c.791-.457,1.432-.092,1.435.816a3.142,3.142,0,0,1-1.426,2.468c-.788.455-1.431.089-1.434-.818a3.139,3.139,0,0,1,1.425-2.467" transform="translate(101.935 70.511)" fill="#b5e9fe"/>
        <path id="패스_87429" data-name="패스 87429" d="M371.495,250.309c.791-.457,1.432-.092,1.435.816a3.142,3.142,0,0,1-1.426,2.468c-.788.455-1.431.089-1.434-.818a3.139,3.139,0,0,1,1.425-2.467" transform="translate(101.935 68.893)" fill="#b5e9fe"/>
        <path id="패스_87430" data-name="패스 87430" d="M371.495,244.435c.791-.457,1.432-.092,1.435.816a3.142,3.142,0,0,1-1.426,2.468c-.788.455-1.431.089-1.434-.818a3.139,3.139,0,0,1,1.425-2.467" transform="translate(101.935 67.275)" fill="#b5e9fe"/>
        <path id="패스_87431" data-name="패스 87431" d="M371.495,238.561c.791-.457,1.432-.092,1.435.816a3.142,3.142,0,0,1-1.426,2.468c-.788.455-1.431.089-1.434-.818a3.139,3.139,0,0,1,1.425-2.467" transform="translate(101.935 65.657)" fill="#b5e9fe"/>
        <path id="패스_87432" data-name="패스 87432" d="M371.495,232.687c.791-.457,1.432-.092,1.435.816a3.142,3.142,0,0,1-1.426,2.468c-.788.455-1.431.089-1.434-.818a3.139,3.139,0,0,1,1.425-2.467" transform="translate(101.935 64.039)" fill="#b5e9fe"/>
        <path id="패스_87433" data-name="패스 87433" d="M371.495,226.813c.791-.457,1.432-.092,1.435.816A3.142,3.142,0,0,1,371.5,230.1c-.788.455-1.431.089-1.434-.818a3.139,3.139,0,0,1,1.425-2.467" transform="translate(101.935 62.421)" fill="#b5e9fe"/>
        <path id="패스_87434" data-name="패스 87434" d="M371.495,220.939c.791-.457,1.432-.092,1.435.816a3.142,3.142,0,0,1-1.426,2.468c-.788.455-1.431.089-1.434-.818a3.139,3.139,0,0,1,1.425-2.467" transform="translate(101.935 60.803)" fill="#b5e9fe"/>
        <path id="패스_87435" data-name="패스 87435" d="M371.495,215.066c.791-.457,1.432-.092,1.435.816a3.142,3.142,0,0,1-1.426,2.468c-.788.455-1.431.089-1.434-.818a3.139,3.139,0,0,1,1.425-2.467" transform="translate(101.935 59.185)" fill="#b5e9fe"/>
        <path id="패스_87436" data-name="패스 87436" d="M371.495,209.192c.791-.457,1.432-.093,1.435.816a3.142,3.142,0,0,1-1.426,2.468c-.788.455-1.431.089-1.434-.818a3.139,3.139,0,0,1,1.425-2.467" transform="translate(101.935 57.567)" fill="#b5e9fe"/>
        <path id="패스_87437" data-name="패스 87437" d="M371.495,203.318c.791-.457,1.432-.093,1.435.816A3.142,3.142,0,0,1,371.5,206.6c-.788.455-1.431.089-1.434-.818a3.139,3.139,0,0,1,1.425-2.467" transform="translate(101.935 55.949)" fill="#b5e9fe"/>
        <path id="패스_87438" data-name="패스 87438" d="M371.495,197.444c.791-.457,1.432-.093,1.435.816a3.142,3.142,0,0,1-1.426,2.468c-.788.455-1.431.089-1.434-.818a3.139,3.139,0,0,1,1.425-2.467" transform="translate(101.935 54.331)" fill="#b5e9fe"/>
        <path id="패스_87439" data-name="패스 87439" d="M371.495,191.57c.791-.457,1.432-.093,1.435.816a3.142,3.142,0,0,1-1.426,2.468c-.788.455-1.431.089-1.434-.818a3.139,3.139,0,0,1,1.425-2.467" transform="translate(101.935 52.713)" fill="#b5e9fe"/>
        <path id="패스_87440" data-name="패스 87440" d="M371.495,185.7c.791-.457,1.432-.092,1.435.816a3.142,3.142,0,0,1-1.426,2.468c-.788.455-1.431.089-1.434-.818a3.139,3.139,0,0,1,1.425-2.467" transform="translate(101.935 51.095)" fill="#b5e9fe"/>
        <path id="패스_87441" data-name="패스 87441" d="M1.425,260.561c.791-.457,1.432-.092,1.436.816a3.143,3.143,0,0,1-1.427,2.468C.645,264.3,0,263.934,0,263.027a3.139,3.139,0,0,1,1.425-2.467" transform="translate(0 71.717)" fill="#b5e9fe"/>
        <path id="패스_87442" data-name="패스 87442" d="M1.425,254.687c.791-.457,1.432-.092,1.436.816a3.143,3.143,0,0,1-1.427,2.468c-.788.455-1.431.089-1.434-.818a3.139,3.139,0,0,1,1.425-2.467" transform="translate(0 70.099)" fill="#b5e9fe"/>
        <path id="패스_87443" data-name="패스 87443" d="M1.425,248.813c.791-.457,1.432-.092,1.436.816A3.143,3.143,0,0,1,1.434,252.1c-.788.455-1.431.089-1.434-.818a3.139,3.139,0,0,1,1.425-2.467" transform="translate(0 68.481)" fill="#b5e9fe"/>
        <path id="패스_87444" data-name="패스 87444" d="M1.425,242.938c.791-.457,1.432-.092,1.436.816a3.143,3.143,0,0,1-1.427,2.468c-.788.455-1.431.089-1.434-.818a3.139,3.139,0,0,1,1.425-2.467" transform="translate(0 66.863)" fill="#b5e9fe"/>
        <path id="패스_87445" data-name="패스 87445" d="M1.425,237.066c.791-.457,1.432-.092,1.436.816a3.143,3.143,0,0,1-1.427,2.468c-.788.455-1.431.089-1.434-.818a3.139,3.139,0,0,1,1.425-2.467" transform="translate(0 65.245)" fill="#b5e9fe"/>
        <path id="패스_87446" data-name="패스 87446" d="M1.425,231.192c.791-.457,1.432-.093,1.436.816a3.143,3.143,0,0,1-1.427,2.468c-.788.455-1.431.089-1.434-.818a3.139,3.139,0,0,1,1.425-2.467" transform="translate(0 63.627)" fill="#b5e9fe"/>
        <path id="패스_87447" data-name="패스 87447" d="M1.425,225.318c.791-.457,1.432-.093,1.436.816A3.143,3.143,0,0,1,1.434,228.6c-.788.455-1.431.089-1.434-.818a3.139,3.139,0,0,1,1.425-2.467" transform="translate(0 62.009)" fill="#b5e9fe"/>
        <path id="패스_87448" data-name="패스 87448" d="M1.425,219.444c.791-.457,1.432-.093,1.436.816a3.143,3.143,0,0,1-1.427,2.468c-.788.455-1.431.089-1.434-.818a3.139,3.139,0,0,1,1.425-2.467" transform="translate(0 60.391)" fill="#b5e9fe"/>
        <path id="패스_87449" data-name="패스 87449" d="M1.425,213.57c.791-.457,1.432-.093,1.436.816a3.143,3.143,0,0,1-1.427,2.468c-.788.455-1.431.089-1.434-.818a3.139,3.139,0,0,1,1.425-2.467" transform="translate(0 58.773)" fill="#b5e9fe"/>
        <path id="패스_87450" data-name="패스 87450" d="M1.425,207.7c.791-.457,1.432-.092,1.436.816a3.143,3.143,0,0,1-1.427,2.468c-.788.455-1.431.089-1.434-.818A3.139,3.139,0,0,1,1.425,207.7" transform="translate(0 57.155)" fill="#b5e9fe"/>
        <path id="패스_87451" data-name="패스 87451" d="M1.425,201.822c.791-.457,1.432-.092,1.436.816a3.143,3.143,0,0,1-1.427,2.468C.645,205.561,0,205.2,0,204.288a3.139,3.139,0,0,1,1.425-2.467" transform="translate(0 55.537)" fill="#b5e9fe"/>
        <path id="패스_87452" data-name="패스 87452" d="M1.425,195.948c.791-.457,1.432-.092,1.436.816a3.143,3.143,0,0,1-1.427,2.468c-.788.455-1.431.089-1.434-.818a3.139,3.139,0,0,1,1.425-2.467" transform="translate(0 53.919)" fill="#b5e9fe"/>
        <path id="패스_87453" data-name="패스 87453" d="M1.425,190.074c.791-.457,1.432-.092,1.436.816a3.143,3.143,0,0,1-1.427,2.468c-.788.455-1.431.089-1.434-.818a3.139,3.139,0,0,1,1.425-2.467" transform="translate(0 52.301)" fill="#b5e9fe"/>
        <path id="패스_87454" data-name="패스 87454" d="M1.425,184.2c.791-.457,1.432-.092,1.436.818a3.143,3.143,0,0,1-1.427,2.467c-.788.455-1.431.089-1.434-.818A3.139,3.139,0,0,1,1.425,184.2" transform="translate(0 50.683)" fill="#b5e9fe"/>
        <path id="패스_87455" data-name="패스 87455" d="M1.425,178.327c.791-.457,1.432-.092,1.436.816a3.143,3.143,0,0,1-1.427,2.468C.645,182.066,0,181.7,0,180.793a3.139,3.139,0,0,1,1.425-2.467" transform="translate(0 49.065)" fill="#b5e9fe"/>
        <path id="패스_87456" data-name="패스 87456" d="M1.425,172.453c.791-.457,1.432-.092,1.436.816a3.143,3.143,0,0,1-1.427,2.468c-.788.455-1.431.089-1.434-.818a3.139,3.139,0,0,1,1.425-2.467" transform="translate(0 47.447)" fill="#b5e9fe"/>
        <path id="패스_87457" data-name="패스 87457" d="M118.966,398.919,176.78,432.3c6.2,3.582,16.258,3.582,22.459,0l155.436-89.74c6.2-3.58,6.2-9.386,0-12.966l-55.838-32.238" transform="translate(32.769 81.905)" fill="none" stroke="#b5e9fe" stroke-linecap="round" stroke-linejoin="round" stroke-width="1.689"/>
        <path id="패스_87458" data-name="패스 87458" d="M141.543,379.135l15.095,8.715c6.2,3.581,16.258,3.581,22.459,0l100.7-58.136c6.2-3.58,6.2-9.386,0-12.966l-13.728-7.926" transform="translate(38.988 85.064)" fill="none" stroke="#b5e9fe" stroke-linecap="round" stroke-linejoin="round" stroke-width="1.689"/>
        <path id="패스_87459" data-name="패스 87459" d="M256.257,384.92l33.612,19.406c6.2,3.58,16.257,3.58,22.459,0l106.541-61.511c6.2-3.581,6.2-9.387,0-12.967L316.213,270.579" transform="translate(70.585 74.53)" fill="none" stroke="#b5e9fe" stroke-linecap="round" stroke-linejoin="round" stroke-width="1.689"/>
        <g id="그룹_14266" data-name="그룹 14266" transform="translate(391.508 450.707)" opacity="0.2">
          <g id="그룹_14265" data-name="그룹 14265">
            <g id="그룹_14264" data-name="그룹 14264" clip-path="url(#clip-path-36)">
              <path id="패스_87460" data-name="패스 87460" d="M312.513,356.579c7.407-4.277,19.415-4.277,26.823,0s7.407,11.21,0,15.485-19.416,4.277-26.823,0-7.406-11.209,0-15.485" transform="translate(-306.957 -353.371)" fill="#b5e9fe"/>
            </g>
          </g>
        </g>
      </g>
    </g>
    <g id="그룹_14270" data-name="그룹 14270" transform="translate(402.112 456.83)">
      <g id="그룹_14269" data-name="그룹 14269" clip-path="url(#clip-path-37)">
        <rect id="사각형_149525" data-name="사각형 149525" width="18.357" height="10.127" transform="translate(-0.816)" fill="url(#linear-gradient-22)"/>
      </g>
    </g>
    <g id="그룹_14275" data-name="그룹 14275">
      <g id="그룹_14274" data-name="그룹 14274" clip-path="url(#clip-path)">
        <g id="그룹_14273" data-name="그룹 14273" transform="translate(431.43 428.519)" opacity="0.2">
          <g id="그룹_14272" data-name="그룹 14272">
            <g id="그룹_14271" data-name="그룹 14271" clip-path="url(#clip-path-36)">
              <path id="패스_87462" data-name="패스 87462" d="M343.814,339.183c7.406-4.277,19.415-4.277,26.823,0s7.406,11.21,0,15.486-19.416,4.275-26.823,0-7.407-11.21,0-15.486" transform="translate(-338.258 -335.975)" fill="#b5e9fe"/>
            </g>
          </g>
        </g>
      </g>
    </g>
    <g id="그룹_14277" data-name="그룹 14277" transform="translate(442.035 434.641)">
      <g id="그룹_14276" data-name="그룹 14276" clip-path="url(#clip-path-40)">
        <rect id="사각형_149528" data-name="사각형 149528" width="18.358" height="10.128" transform="translate(-0.817)" fill="url(#linear-gradient-23)"/>
      </g>
    </g>
    <g id="그룹_14282" data-name="그룹 14282">
      <g id="그룹_14281" data-name="그룹 14281" clip-path="url(#clip-path)">
        <g id="그룹_14280" data-name="그룹 14280" transform="translate(405.734 354.913)" opacity="0.2">
          <g id="그룹_14279" data-name="그룹 14279">
            <g id="그룹_14278" data-name="그룹 14278" clip-path="url(#clip-path-42)">
              <path id="패스_87464" data-name="패스 87464" d="M323.667,281.473c7.406-4.277,19.415-4.277,26.823,0s7.407,11.21,0,15.485-19.416,4.277-26.823,0-7.407-11.209,0-15.485" transform="translate(-318.111 -278.265)" fill="#b5e9fe"/>
            </g>
          </g>
        </g>
      </g>
    </g>
    <g id="그룹_14284" data-name="그룹 14284" transform="translate(416.339 361.036)">
      <g id="그룹_14283" data-name="그룹 14283" clip-path="url(#clip-path-43)">
        <rect id="사각형_149531" data-name="사각형 149531" width="18.356" height="10.127" transform="translate(-0.816 0)" fill="url(#linear-gradient-24)"/>
      </g>
    </g>
    <g id="그룹_14289" data-name="그룹 14289">
      <g id="그룹_14288" data-name="그룹 14288" clip-path="url(#clip-path)">
        <g id="그룹_14287" data-name="그룹 14287" transform="translate(238.571 439.469)" opacity="0.2">
          <g id="그룹_14286" data-name="그룹 14286">
            <g id="그룹_14285" data-name="그룹 14285" clip-path="url(#clip-path-45)">
              <path id="패스_87466" data-name="패스 87466" d="M192.6,347.768c7.407-4.277,19.415-4.277,26.823,0s7.407,11.21,0,15.486-19.416,4.275-26.823,0-7.407-11.21,0-15.486" transform="translate(-187.049 -344.561)" fill="#b5e9fe"/>
            </g>
          </g>
        </g>
      </g>
    </g>
    <g id="그룹_14291" data-name="그룹 14291" transform="translate(249.176 445.592)">
      <g id="그룹_14290" data-name="그룹 14290" clip-path="url(#clip-path-46)">
        <rect id="사각형_149534" data-name="사각형 149534" width="18.358" height="10.127" transform="translate(-0.817)" fill="url(#linear-gradient-25)"/>
      </g>
    </g>
    <g id="그룹_14293" data-name="그룹 14293">
      <g id="그룹_14292" data-name="그룹 14292" clip-path="url(#clip-path)">
        <path id="패스_87468" data-name="패스 87468" d="M41.9,193.169a13.1,13.1,0,0,1,3.057-3.922" transform="translate(11.54 52.128)" fill="none" stroke="#fab08b" stroke-linecap="round" stroke-linejoin="round" stroke-width="3.033"/>
        <path id="패스_87469" data-name="패스 87469" d="M37.96,217.135c-.684-6.973-2.508-13.166,4.49-24.264" transform="translate(10.255 53.126)" fill="none" stroke="#01a3f8" stroke-linecap="round" stroke-linejoin="round" stroke-width="3.87"/>
        <path id="패스_87470" data-name="패스 87470" d="M37.075,262.471a2.873,2.873,0,0,0-1.727,2.408,3.651,3.651,0,0,0,.258,2.153c.656.842,1.38,1.884,2.955,1.143s7.885-3.671,8.186-5.421-2.718-2.811-8.3-.871Z" transform="translate(9.727 71.849)" fill="#3060a8"/>
        <path id="패스_87471" data-name="패스 87471" d="M43.968,265.071a2.873,2.873,0,0,0-1.727,2.408,3.65,3.65,0,0,0,.258,2.153c.654.843,1.379,1.884,2.955,1.144s7.885-3.672,8.185-5.422-2.717-2.811-8.3-.87Z" transform="translate(11.626 72.565)" fill="#3060a8"/>
        <path id="패스_87472" data-name="패스 87472" d="M40.676,237.694s2.62,16.152,3.7,18.474c0,0-1.94,18.421-1.047,19.471s4.131,1.264,4.749,0,4.444-23.6,3.569-25.846c-.837-2.149-3.723-15.914-3.723-15.914s-7.949-.358-7.247,3.815" transform="translate(11.192 64.419)" fill="#ff5a72"/>
        <path id="패스_87473" data-name="패스 87473" d="M34.261,234.431s2.62,16.152,3.7,18.474c0,0-1.94,18.421-1.047,19.471s4.131,1.264,4.748,0,4.444-23.6,3.569-25.846c-.837-2.149-3.723-15.914-3.723-15.914s-7.949-.36-7.247,3.815" transform="translate(9.425 63.52)" fill="#ff5a72"/>
        <path id="패스_87474" data-name="패스 87474" d="M50.763,220.133,50.707,239.8c.056,4.342-.333,4.038-1.792,4.886a6.107,6.107,0,0,1-5.336-.783l-7.047-4.07a4.749,4.749,0,0,1-2.375-4.129l.043-15.679c0-.277.055-.547.074-.823.182-2.652,1.307-6.762,4.263-8.4,4.622-2.557,9.068,1.517,9.187,1.627a9.475,9.475,0,0,1,3.039,7.705" transform="translate(9.408 57.833)" fill="#01a3f8"/>
        <path id="패스_87475" data-name="패스 87475" d="M42.08,207.665a2.879,2.879,0,0,0-2.515-.047.8.8,0,0,0,0,1.5,2.78,2.78,0,0,0,2.514,0,.767.767,0,0,0,0-1.451" transform="translate(10.755 57.114)" fill="#faa379"/>
        <path id="패스_87476" data-name="패스 87476" d="M42.081,208.9a2.788,2.788,0,0,1-2.514,0,.907.907,0,0,1-.519-.775h0v3.4h0a.923.923,0,0,0,.518.732,2.788,2.788,0,0,0,2.514,0,.88.88,0,0,0,.518-.733v-3.346a.882.882,0,0,1-.518.726" transform="translate(10.755 57.328)" fill="#fab08b"/>
        <path id="패스_87477" data-name="패스 87477" d="M41.829,208.127c0,.017,0,.032,0,.048v-.05Z" transform="translate(11.522 57.328)" fill="#fab08b"/>
        <path id="패스_87478" data-name="패스 87478" d="M47.993,203.218V207.5a6.191,6.191,0,1,1-12.382,0v-4.282a6.18,6.18,0,0,1,.17-1.444c.028-.122.061-.242.1-.362a6.192,6.192,0,0,1,12.113,1.806" transform="translate(9.809 54.271)" fill="#fab08b"/>
        <path id="패스_87479" data-name="패스 87479" d="M42.083,196.81a5.382,5.382,0,0,0-2.377.679c-.608-1.624-1.926-3.685-4.542-2.414-4.053,1.968-6.416,7.317-3.07,9.431a13.628,13.628,0,0,0,4.316,1.781c-.084,2.793.508,5.983,3.58,7.153,1.546.589,3.358.67,4.176-.185a6.2,6.2,0,0,0,1.191-2.412s-1.154.663-1.376-.825.222-1.712.968-1.376,1.366-.652,1.366-.652a5.6,5.6,0,0,1,1.458-3.009A6.428,6.428,0,0,0,49.4,202.02c.865-2.045-3.819-5.4-7.316-5.21" transform="translate(8.402 53.624)" fill="#02007d"/>
      </g>
    </g>
    <g id="그룹_14295" data-name="그룹 14295" transform="translate(54.965 221.365)">
      <g id="그룹_14294" data-name="그룹 14294" clip-path="url(#clip-path-48)">
        <rect id="사각형_149536" data-name="사각형 149536" width="30.32" height="30.319" transform="translate(0 0)" fill="url(#radial-gradient)"/>
      </g>
    </g>
    <g id="그룹_14297" data-name="그룹 14297">
      <g id="그룹_14296" data-name="그룹 14296" clip-path="url(#clip-path)">
        <path id="패스_87481" data-name="패스 87481" d="M57.521,201.658a13.132,13.132,0,0,0,.187-4.97" transform="translate(15.844 54.177)" fill="none" stroke="#fab08b" stroke-linecap="round" stroke-linejoin="round" stroke-width="3.033"/>
        <path id="패스_87482" data-name="패스 87482" d="M45.234,220.448c5.812-3.911,11.751-6.449,15.854-18.91" transform="translate(12.46 55.513)" fill="none" stroke="#01a3f8" stroke-linecap="round" stroke-linejoin="round" stroke-width="3.87"/>
        <path id="패스_87483" data-name="패스 87483" d="M304.938,290.211q-2.745,2.1-5.779,4.09c-43.106,28.264-113.228,28.268-156.616.005-17.9-11.658-28.449-26.306-31.644-41.467-.149-.76-.278-1.407-.38-2.052-.093-.551-.165-1.006-.222-1.48-.045-.3-.087-.61-.124-.923-.138-1.233-.242-2.471-.283-3.695,0-.273-.009-.542-.01-.815a12.128,12.128,0,0,1-.02-1.237,3.936,3.936,0,0,1,.018-.578c-.009-.5.009-.983.042-1.462a4.209,4.209,0,0,1,.024-.509c.019-.478.065-.964.112-1.443.071-.879.172-1.747.306-2.621.094-.656.2-1.311.325-1.957s.258-1.283.394-1.921c.224-.941.383-1.556.56-2.175,3.111-11.335,10.41-22.265,21.865-31.748.658-.542,1.332-1.083,2.018-1.616.341-.268.687-.541,1.034-.8.416-.328.839-.642,1.283-.951.27-.213.561-.423.853-.624.534-.378,1.055-.755,1.6-1.124.57-.392,1.153-.782,1.736-1.164,1.291-.847,2.6-1.666,3.928-2.458.236-.145.48-.278.716-.415.527-.309,1.055-.61,1.6-.918.6-.342,1.222-.673,1.825-1.006,1.4-.75,2.814-1.478,4.273-2.18,1.291-.619,2.167-1.019,3.036-1.414,39.168-17.757,92.054-17.034,130.306,2.152l.705.349c.607.306,1.228.629,1.835.951.914.478,1.522.81,2.116,1.152.886.5,1.515.851,2.136,1.219,1.515.9,2.843,1.715,4.149,2.566.573.374,1.131.746,1.684,1.133.182.119.357.241.545.365.476.328.958.659,1.418,1.005,1.189.847,1.636,1.184,2.076,1.515.349.274.621.478.88.693.588.464,1,.787,1.406,1.115.161.131.328.259.49.392.272.222.545.454.818.677.49.409.8.687,1.133.966s.643.546.944.832c.833.751,1.652,1.52,2.449,2.293.608.588,1.19,1.193,1.764,1.793.175.177.349.347.518.528.644.673,1.252,1.361,1.862,2.048.9,1.032,1.519,1.779,2.115,2.529,19.319,24.3,16.313,54.014-8.942,76.352-.256.223-.505.441-.763.665-.505.432-1.011.874-1.538,1.3-.833.691-1.693,1.383-2.574,2.061M177.417,273.027c24,15.072,62.793,15.077,86.646,0,16.975-10.73,21.8-26.2,14.513-39.664-2.945-5.453-7.873-10.576-14.8-14.924-23.29-14.624-60.488-15.063-84.467-1.315-.736.421-1.472.86-2.186,1.311-14.012,8.857-19.736,20.951-17.219,32.474,1.769,8.089,7.609,15.9,17.508,22.118" transform="translate(30.259 47.035)" fill="#3060a8"/>
      </g>
    </g>
    <g id="그룹_14299" data-name="그룹 14299" transform="translate(193.352 239.243)">
      <g id="그룹_14298" data-name="그룹 14298" clip-path="url(#clip-path-50)">
        <rect id="사각형_149538" data-name="사각형 149538" width="116.1" height="50.679" transform="translate(0)" fill="url(#linear-gradient-26)"/>
      </g>
    </g>
    <g id="그룹_14301" data-name="그룹 14301" transform="translate(146.491 270.69)">
      <g id="그룹_14300" data-name="그룹 14300" clip-path="url(#clip-path-51)">
        <rect id="사각형_149539" data-name="사각형 149539" width="179.226" height="224.515" transform="matrix(0.501, -0.866, 0.866, 0.501, -37.155, 64.258)" fill="url(#linear-gradient-27)"/>
      </g>
    </g>
    <g id="그룹_14303" data-name="그룹 14303" transform="translate(146.54 212.111)">
      <g id="그룹_14302" data-name="그룹 14302" clip-path="url(#clip-path-52)">
        <rect id="사각형_149540" data-name="사각형 149540" width="204.36" height="249.29" transform="translate(-47.375 106.32) rotate(-65.985)" fill="url(#linear-gradient-28)"/>
      </g>
    </g>
    <g id="그룹_14305" data-name="그룹 14305" transform="translate(192.863 222.553)">
      <g id="그룹_14304" data-name="그룹 14304" clip-path="url(#clip-path-53)">
        <rect id="사각형_149541" data-name="사각형 149541" width="116.105" height="50.677" transform="translate(0 0)" fill="url(#linear-gradient-29)"/>
      </g>
    </g>
    <g id="그룹_14307" data-name="그룹 14307">
      <g id="그룹_14306" data-name="그룹 14306" clip-path="url(#clip-path)">
        <path id="패스_87488" data-name="패스 87488" d="M161.71,204.374l-.047,16.893-46.41,3.648.048-16.893Z" transform="translate(31.746 56.294)" fill="#ffc28f"/>
      </g>
    </g>
    <g id="그룹_14309" data-name="그룹 14309" transform="translate(325.29 256.475)">
      <g id="그룹_14308" data-name="그룹 14308" clip-path="url(#clip-path-55)">
        <rect id="사각형_149543" data-name="사각형 149543" width="60.386" height="32.024" transform="translate(-1.715 59.487) rotate(-88.349)" fill="url(#linear-gradient-30)"/>
      </g>
    </g>
    <g id="그룹_14311" data-name="그룹 14311" transform="translate(146.059 195.53)">
      <g id="그룹_14310" data-name="그룹 14310" clip-path="url(#clip-path-56)">
        <rect id="사각형_149544" data-name="사각형 149544" width="193.743" height="238.839" transform="translate(-43.393 80.082) rotate(-61.552)" fill="url(#linear-gradient-31)"/>
      </g>
    </g>
    <g id="그룹_14313" data-name="그룹 14313">
      <g id="그룹_14312" data-name="그룹 14312" clip-path="url(#clip-path)">
        <path id="패스_87491" data-name="패스 87491" d="M262.266,238.665l-.047,16.893-33.237-19.189.047-16.893Z" transform="translate(63.072 60.454)" fill="#ff9d4a"/>
        <path id="패스_87492" data-name="패스 87492" d="M172.773,172.494l-.048,16.893-31.586-20.11.047-16.893Z" transform="translate(38.876 41.974)" fill="#ff8799"/>
      </g>
    </g>
    <g id="그룹_14315" data-name="그룹 14315" transform="translate(211.601 205.767)">
      <g id="그룹_14314" data-name="그룹 14314" clip-path="url(#clip-path-58)">
        <rect id="사각형_149546" data-name="사각형 149546" width="65.084" height="101.506" transform="translate(-10.936 36.452) rotate(-73.301)" fill="url(#linear-gradient-32)"/>
      </g>
    </g>
    <g id="그룹_14317" data-name="그룹 14317">
      <g id="그룹_14316" data-name="그룹 14316" clip-path="url(#clip-path)">
        <path id="패스_87494" data-name="패스 87494" d="M283.986,172.427l-.049,16.893-44.329,8.686.048-16.893Z" transform="translate(65.999 47.495)" fill="#f73450"/>
      </g>
    </g>
    <g id="그룹_14319" data-name="그룹 14319" transform="translate(180.063 178.722)">
      <g id="그룹_14318" data-name="그룹 14318" clip-path="url(#clip-path-60)">
        <rect id="사각형_149548" data-name="사각형 149548" width="122.454" height="173.826" transform="matrix(0.46, -0.888, 0.888, 0.46, -20.374, 39.331)" fill="url(#linear-gradient-33)"/>
      </g>
    </g>
    <g id="그룹_14321" data-name="그룹 14321">
      <g id="그룹_14320" data-name="그룹 14320" clip-path="url(#clip-path)">
        <line id="선_263" data-name="선 263" y1="212.343" transform="translate(250.835 63.116)" fill="none" stroke="#b5e9fe" stroke-width="0.967"/>
        <path id="패스_87496" data-name="패스 87496" d="M190.928,216.322a7.316,7.316,0,1,1,7.316,7.317,7.315,7.315,0,0,1-7.316-7.317" transform="translate(52.591 57.571)" fill="#b5e9fe"/>
        <path id="패스_87497" data-name="패스 87497" d="M190.928,197a7.316,7.316,0,1,1,7.316,7.316A7.316,7.316,0,0,1,190.928,197" transform="translate(52.591 52.247)" fill="#b5e9fe"/>
        <path id="패스_87498" data-name="패스 87498" d="M190.928,51.065a7.316,7.316,0,1,1,7.316,7.316,7.316,7.316,0,0,1-7.316-7.316" transform="translate(52.591 12.051)" fill="#b5e9fe"/>
        <path id="패스_87499" data-name="패스 87499" d="M193.8,76.349a3.658,3.658,0,1,1,3.658,3.658,3.658,3.658,0,0,1-3.658-3.658" transform="translate(53.381 20.023)" fill="#b5e9fe"/>
        <path id="패스_87500" data-name="패스 87500" d="M193.8,84.953a3.658,3.658,0,1,1,3.658,3.658,3.658,3.658,0,0,1-3.658-3.658" transform="translate(53.381 22.393)" fill="#b5e9fe"/>
        <path id="패스_87501" data-name="패스 87501" d="M193.8,145.71a3.658,3.658,0,1,1,3.658,3.658,3.658,3.658,0,0,1-3.658-3.658" transform="translate(53.381 39.128)" fill="#b5e9fe"/>
        <path id="패스_87502" data-name="패스 87502" d="M193.8,154.314a3.658,3.658,0,1,1,3.658,3.658,3.658,3.658,0,0,1-3.658-3.658" transform="translate(53.381 41.498)" fill="#b5e9fe"/>
        <path id="패스_87503" data-name="패스 87503" d="M268.871,261.873a13.118,13.118,0,0,0-3.057-3.922" transform="translate(73.218 71.052)" fill="none" stroke="#fab08b" stroke-linecap="round" stroke-linejoin="round" stroke-width="3.033"/>
        <path id="패스_87504" data-name="패스 87504" d="M273.276,285.839c.684-6.973,2.507-13.166-4.49-24.264" transform="translate(74.037 72.05)" fill="none" stroke="#01a3f8" stroke-linecap="round" stroke-linejoin="round" stroke-width="3.87"/>
        <path id="패스_87505" data-name="패스 87505" d="M275.506,331.175a2.872,2.872,0,0,1,1.726,2.408,3.65,3.65,0,0,1-.258,2.153c-.656.842-1.38,1.884-2.955,1.144s-7.885-3.672-8.186-5.422,2.718-2.811,8.3-.87Z" transform="translate(73.218 90.774)" fill="#b5e9fe"/>
        <path id="패스_87506" data-name="패스 87506" d="M268.612,333.775a2.873,2.873,0,0,1,1.727,2.408,3.65,3.65,0,0,1-.258,2.153c-.656.842-1.38,1.884-2.955,1.143s-7.885-3.671-8.186-5.421,2.718-2.811,8.3-.87Z" transform="translate(71.319 91.49)" fill="#b5e9fe"/>
        <path id="패스_87507" data-name="패스 87507" d="M271.837,306.4s-2.62,16.152-3.7,18.474c0,0,1.94,18.421,1.047,19.471s-4.131,1.264-4.749,0-4.444-23.6-3.569-25.846c.837-2.149,3.723-15.914,3.723-15.914s7.95-.358,7.247,3.815" transform="translate(71.82 83.344)" fill="#ff5a72"/>
        <path id="패스_87508" data-name="패스 87508" d="M278.252,303.135s-2.62,16.152-3.7,18.474c0,0,1.94,18.421,1.047,19.471s-4.131,1.264-4.749,0-4.444-23.6-3.569-25.846c.837-2.149,3.723-15.914,3.723-15.914s7.95-.358,7.247,3.815" transform="translate(73.587 82.445)" fill="#ff5a72"/>
        <path id="패스_87509" data-name="패스 87509" d="M262.93,288.837l.056,19.662c-.056,4.342.333,4.038,1.792,4.886a6.107,6.107,0,0,0,5.336-.783l7.047-4.069a4.753,4.753,0,0,0,2.375-4.13l-.043-15.679c0-.277-.055-.547-.074-.823-.182-2.652-1.307-6.762-4.263-8.4-4.622-2.557-9.068,1.516-9.187,1.627a9.475,9.475,0,0,0-3.039,7.705" transform="translate(72.423 76.757)" fill="#01a3f8"/>
        <path id="패스_87510" data-name="패스 87510" d="M268.794,276.369a2.879,2.879,0,0,1,2.515-.047.8.8,0,0,1,0,1.5,2.781,2.781,0,0,1-2.514,0,.767.767,0,0,1,0-1.452" transform="translate(73.896 76.039)" fill="#faa379"/>
        <path id="패스_87511" data-name="패스 87511" d="M268.793,277.606a2.788,2.788,0,0,0,2.514,0,.907.907,0,0,0,.519-.775h0v3.4h0a.923.923,0,0,1-.518.732,2.788,2.788,0,0,1-2.514,0,.88.88,0,0,1-.518-.733v-3.346a.882.882,0,0,0,.518.726" transform="translate(73.896 76.252)" fill="#fab08b"/>
        <path id="패스_87512" data-name="패스 87512" d="M268.279,276.831c0,.017,0,.032,0,.048v-.05Z" transform="translate(73.896 76.252)" fill="#fab08b"/>
        <path id="패스_87513" data-name="패스 87513" d="M264.789,271.922V276.2a6.191,6.191,0,0,0,12.382,0v-4.282a6.178,6.178,0,0,0-.171-1.444c-.028-.122-.06-.242-.1-.362a6.191,6.191,0,0,0-12.112,1.806" transform="translate(72.936 73.196)" fill="#fab08b"/>
        <path id="패스_87514" data-name="패스 87514" d="M272.128,265.514a5.382,5.382,0,0,1,2.377.679c.608-1.624,1.926-3.685,4.542-2.414,4.053,1.968,6.416,7.317,3.07,9.431a13.662,13.662,0,0,1-4.316,1.782c.084,2.792-.508,5.982-3.58,7.153-1.546.588-3.358.668-4.176-.186a6.188,6.188,0,0,1-1.19-2.412s1.153.663,1.375-.825-.222-1.712-.968-1.376-1.366-.652-1.366-.652a5.6,5.6,0,0,0-1.458-3.009,6.428,6.428,0,0,1-1.626-2.959c-.865-2.045,3.819-5.4,7.316-5.21" transform="translate(72.913 72.548)" fill="#02007d"/>
        <path id="패스_87515" data-name="패스 87515" d="M256.966,301.611a13.135,13.135,0,0,1-4.453,2.217" transform="translate(69.554 83.078)" fill="none" stroke="#fab08b" stroke-linecap="round" stroke-linejoin="round" stroke-width="3.033"/>
        <path id="패스_87516" data-name="패스 87516" d="M267.641,283.919c-1.173,6.908-1.041,13.363-10.709,22.231" transform="translate(70.771 78.205)" fill="none" stroke="#01a3f8" stroke-linecap="round" stroke-linejoin="round" stroke-width="3.87"/>
        <path id="패스_87517" data-name="패스 87517" d="M285.5,208.99a13.133,13.133,0,0,1-4.708-1.6" transform="translate(77.343 57.124)" fill="none" stroke="#fab08b" stroke-linecap="round" stroke-linejoin="round" stroke-width="3.033"/>
        <path id="패스_87518" data-name="패스 87518" d="M309.584,206.1c-6.363,2.931-11.618,6.685-24.4,3.71" transform="translate(78.554 56.769)" fill="none" stroke="#b5e9fe" stroke-linecap="round" stroke-linejoin="round" stroke-width="3.87"/>
        <path id="패스_87519" data-name="패스 87519" d="M308.9,258.152a2.873,2.873,0,0,1,1.727,2.408,3.661,3.661,0,0,1-.258,2.153c-.656.842-1.38,1.884-2.955,1.144s-7.885-3.672-8.186-5.422,2.717-2.811,8.3-.87Z" transform="translate(82.415 70.66)" fill="#b5e9fe"/>
        <path id="패스_87520" data-name="패스 87520" d="M302,260.752a2.873,2.873,0,0,1,1.727,2.408,3.64,3.64,0,0,1-.258,2.153c-.656.843-1.379,1.884-2.955,1.144s-7.885-3.672-8.186-5.422,2.718-2.811,8.3-.87Z" transform="translate(80.516 71.376)" fill="#b5e9fe"/>
        <path id="패스_87521" data-name="패스 87521" d="M305.227,233.375s-2.62,16.152-3.7,18.474c0,0,1.94,18.421,1.047,19.471s-4.131,1.264-4.748,0-4.444-23.6-3.569-25.846c.837-2.149,3.723-15.914,3.723-15.914s7.95-.358,7.247,3.815" transform="translate(81.017 63.23)" fill="#ff5a72"/>
        <path id="패스_87522" data-name="패스 87522" d="M311.642,230.112s-2.621,16.152-3.7,18.474c0,0,1.94,18.421,1.046,19.471s-4.13,1.264-4.749,0-4.444-23.6-3.569-25.846c.837-2.149,3.724-15.914,3.724-15.914s7.947-.358,7.247,3.815" transform="translate(82.784 62.331)" fill="#ff5a72"/>
        <path id="패스_87523" data-name="패스 87523" d="M296.573,216.566l.055,19.662c-.055,4.342.334,4.038,1.792,4.886a6.1,6.1,0,0,0,5.335-.783l7.048-4.069a4.756,4.756,0,0,0,2.375-4.13l-.042-15.679c0-.277-.055-.547-.075-.823-.182-2.652-1.307-6.762-4.261-8.4-4.624-2.557-9.07,1.517-9.187,1.627a9.472,9.472,0,0,0-3.039,7.705" transform="translate(81.69 56.85)" fill="#b5e9fe"/>
        <path id="패스_87524" data-name="패스 87524" d="M302.436,204.1a2.879,2.879,0,0,1,2.515-.047.8.8,0,0,1,0,1.5,2.78,2.78,0,0,1-2.514,0,.767.767,0,0,1,0-1.451" transform="translate(83.162 56.132)" fill="#faa379"/>
        <path id="패스_87525" data-name="패스 87525" d="M302.436,205.335a2.788,2.788,0,0,0,2.514,0,.907.907,0,0,0,.519-.775h0v3.4h0a.923.923,0,0,1-.518.732,2.788,2.788,0,0,1-2.514,0,.88.88,0,0,1-.518-.733V204.61a.882.882,0,0,0,.518.726" transform="translate(83.163 56.346)" fill="#fab08b"/>
        <path id="패스_87526" data-name="패스 87526" d="M301.922,204.56a.311.311,0,0,0-.005.048v-.05Z" transform="translate(83.162 56.345)" fill="#fab08b"/>
        <path id="패스_87527" data-name="패스 87527" d="M281.347,220.055a13.155,13.155,0,0,1-4.812-1.256" transform="translate(76.171 60.268)" fill="none" stroke="#fab08b" stroke-linecap="round" stroke-linejoin="round" stroke-width="3.033"/>
        <path id="패스_87528" data-name="패스 87528" d="M303.863,212.579c-5.424,4.433-9.568,9.386-22.684,9.714" transform="translate(77.45 58.554)" fill="none" stroke="#b5e9fe" stroke-linecap="round" stroke-linejoin="round" stroke-width="3.87"/>
        <path id="패스_87529" data-name="패스 87529" d="M298.431,199.651v4.283a6.191,6.191,0,0,0,12.382,0v-4.283a6.19,6.19,0,0,0-.171-1.444c-.028-.122-.06-.242-.1-.362a6.191,6.191,0,0,0-12.112,1.806" transform="translate(82.202 53.289)" fill="#fab08b"/>
        <path id="패스_87530" data-name="패스 87530" d="M298.865,196.858s1.052,3.483,2.243,4.481.495,3.34.495,3.34.64,1.018,1.411.673,1.232-.116,1,1.421-1.422.853-1.422.853a6.407,6.407,0,0,0,1.23,2.492c.846.883,2.634.5,4.315.19s2.654-.064,2.834-1.661,1.075-5.256.615-8.37-1.691-4.19-2.306-4.766c0,0,.307-2.189-3.306-2.381s-8,1.616-7.109,3.727" transform="translate(82.29 53.194)" fill="#02007d"/>
      </g>
    </g>
  </g>
</svg>
