<svg xmlns="http://www.w3.org/2000/svg" width="18.297" height="20.751" viewBox="0 0 18.297 20.751"><g transform="translate(-785.249 -915.063)"><path d="M7215.1,896.57h-9.231a1.475,1.475,0,0,1-1.123-1.394c.019-1.113,0-17.194,0-17.194a1.337,1.337,0,0,1,1.542-1.161c1.46.039,14.431,0,14.431,0a1.687,1.687,0,0,1,1.324,1.63c-.025,1.334,0,12.275,0,12.275Z" transform="translate(-6419 38.744)" fill="none" stroke="#444" stroke-width="1"/><path d="M1256.185,748.92h-7.493v6.475Z" transform="translate(-452.949 179.941)" fill="#444"/><line x2="10" transform="translate(788.25 918.95)" fill="none" stroke="#444" stroke-width="1"/><line x2="10" transform="translate(788.25 920.95)" fill="none" stroke="#444" stroke-width="1"/><line x2="10" transform="translate(788.25 922.95)" fill="none" stroke="#444" stroke-width="1"/><line x2="10" transform="translate(788.25 924.95)" fill="none" stroke="#444" stroke-width="1"/></g></svg>