<svg id="_07" data-name="07" xmlns="http://www.w3.org/2000/svg" xmlns:xlink="http://www.w3.org/1999/xlink" width="50" height="50" viewBox="0 0 50 50">
  <defs>
    <clipPath id="clip-path">
      <rect id="사각형_149594" data-name="사각형 149594" width="50" height="50" transform="translate(-0.453 -0.027)" fill="#fff" stroke="#707070" stroke-width="1"/>
    </clipPath>
    <clipPath id="clip-path-2">
      <rect id="사각형_149593" data-name="사각형 149593" width="45.5" height="40.799" fill="none"/>
    </clipPath>
  </defs>
  <g id="마스크_그룹_55" data-name="마스크 그룹 55" transform="translate(0.453 0.027)" clip-path="url(#clip-path)">
    <g id="그룹_14289" data-name="그룹 14289" transform="translate(1.901 4.679)">
      <g id="그룹_14288" data-name="그룹 14288" clip-path="url(#clip-path-2)">
        <path id="패스_87621" data-name="패스 87621" d="M45.5,30.719a7.422,7.422,0,0,1-.358.849,2.758,2.758,0,0,1-2.575,1.439H29.074c.211,1.231.408,2.409.628,3.583.016.087.2.191.314.2.383.033.771,0,1.153.041a1.985,1.985,0,0,1-.04,3.953c-.118.011-.237.014-.355.014q-8.02,0-16.039,0a1.994,1.994,0,0,1-2.15-1.7,1.968,1.968,0,0,1,1.652-2.251c.409-.052.829-.015,1.24-.057a.52.52,0,0,0,.33-.24,1.276,1.276,0,0,0,.089-.431c.174-1.018.346-2.036.529-3.112h-1.8c-.711,0-1.422,0-2.133,0-.593,0-.918-.237-.923-.664s.318-.667.91-.668q7.353,0,14.706,0H42.247c1.53,0,2.064-.612,1.883-2.192H1.263a6.836,6.836,0,0,0,.269,1.428,1.36,1.36,0,0,0,1.39.766c1.955,0,7.471,0,9.425,0a2.961,2.961,0,0,1,.487.02.591.591,0,0,1,.527.571.6.6,0,0,1-.438.685,1.621,1.621,0,0,1-.481.054c-1.97,0-7.5,0-9.47,0A2.788,2.788,0,0,1,0,30.031Q0,16.5,0,2.973A2.762,2.762,0,0,1,2.944.023Q16.85.018,30.757.022a2.551,2.551,0,0,1,.4.02A.6.6,0,0,1,31.7.649a.6.6,0,0,1-.523.668,3.362,3.362,0,0,1-.619.035q-13.706,0-27.413,0c-1.328,0-1.812.488-1.812,1.826q0,12.2,0,24.391v.516H44.168V27.6q0-12.262,0-24.525c0-1.2-.527-1.721-1.74-1.721H30.068c-.725,0-1.033-.21-1.022-.689.011-.461.3-.643,1.014-.643,2.5,0,9.458.052,11.959-.018C43.763-.046,44.968.56,45.5,2.281ZM17.126,36.8h.54q2.71,0,5.421,0a2.3,2.3,0,0,1,.529.041.65.65,0,0,1-.046,1.266,2.833,2.833,0,0,1-.487.023q-4.132,0-8.265,0c-.6,0-.92.235-.928.659s.315.667.907.673H30.615c.673,0,1-.225.994-.673s-.337-.659-1.017-.659c-1.3,0-2.607,0-3.91,0-.49,0-.783-.26-.784-.656s.29-.656.778-.67c.444-.013.889,0,1.333-.006a3.365,3.365,0,0,0,.359-.044l-.65-3.725H17.781L17.126,36.8" transform="translate(0 0)"/>
        <path id="패스_87622" data-name="패스 87622" d="M282.46,191.808l-2.956,5.8c-.047.092-.071.212-.144.272-.2.168-.431.432-.647.43a.9.9,0,0,1-.63-.444c-.745-1.4-1.448-2.812-2.166-4.221-.133-.262-.268-.522-.445-.866-.311.606-.616,1.139-.863,1.7a1.014,1.014,0,0,1-1.1.685c-.738-.038-1.48-.006-2.22-.011-.518,0-.812-.257-.8-.678.008-.4.3-.647.787-.652.607-.006,1.214-.014,1.82,0a.474.474,0,0,0,.511-.309c.379-.785.787-1.557,1.177-2.336.147-.292.327-.543.688-.544s.544.245.693.537c.834,1.648,1.672,3.293,2.548,5.015.1-.184.179-.312.246-.445q1.39-2.725,2.776-5.453c.16-.315.325-.62.729-.62s.572.305.729.62c.537,1.07,1.089,2.133,1.619,3.206a.5.5,0,0,0,.543.329c.591-.023,1.184-.011,1.776-.006.517,0,.813.257.807.676s-.291.65-.782.654c-.814.006-1.628-.007-2.442.005a.811.811,0,0,1-.8-.506c-.462-.923-.934-1.841-1.446-2.847" transform="translate(-246.404 -172.79)"/>
        <path id="패스_87623" data-name="패스 87623" d="M412.858,58.854c0-1.375,0-2.751,0-4.126,0-.719.205-.919.928-.92q1.486,0,2.973,0c.661,0,.882.216.883.877q.006,4.193,0,8.385c0,.631-.227.845-.862.847q-1.553,0-3.106,0c-.577,0-.81-.226-.813-.8-.008-1.42,0-2.839,0-4.259m3.453,3.714V60.4c0-1.613,0-3.226-.009-4.839,0-.139-.118-.394-.191-.4-.627-.032-1.257-.018-1.886-.018v7.425Z" transform="translate(-376.102 -49.016)"/>
        <path id="패스_87624" data-name="패스 87624" d="M270.436,77.759c0-1.109,0-2.218,0-3.327,0-.607.227-.838.822-.841q1.575-.007,3.15,0c.567,0,.816.244.818.811q.008,3.371,0,6.742c0,.545-.25.789-.787.792q-1.619.01-3.238,0a.668.668,0,0,1-.762-.762c-.007-1.139,0-2.277,0-3.416m3.439-2.809H271.8v5.629h2.074Z" transform="translate(-246.36 -67.036)"/>
        <path id="패스_87625" data-name="패스 87625" d="M346.613,98.246c0,.8.005,1.6,0,2.4-.005.583-.232.812-.8.814q-1.6.007-3.2,0c-.525,0-.774-.232-.777-.754q-.016-2.466,0-4.932a.652.652,0,0,1,.74-.746q1.644-.021,3.288,0c.528.006.745.238.751.776.009.814,0,1.629,0,2.444m-1.358-1.865h-2.063v3.732h2.063Z" transform="translate(-311.393 -86.558)"/>
        <path id="패스_87626" data-name="패스 87626" d="M53.017,139.823H45.78c-.148,0-.337.05-.435-.021-.208-.151-.49-.352-.516-.561a.994.994,0,0,1,.368-.663c.112-.105.363-.084.552-.084q7.259-.006,14.518,0a2.325,2.325,0,0,1,.354.011.645.645,0,0,1,.582.711.613.613,0,0,1-.64.605c-.3.015-.592,0-.888,0h-6.66" transform="translate(-40.836 -126.161)"/>
        <path id="패스_87627" data-name="패스 87627" d="M52.982,218.865H45.791c-.163,0-.368.051-.478-.028-.208-.148-.484-.361-.5-.568s.2-.487.385-.654c.116-.1.366-.079.555-.079q7.236-.005,14.472,0a1.739,1.739,0,0,1,.566.072.587.587,0,0,1,.4.667.594.594,0,0,1-.524.573,2.544,2.544,0,0,1-.443.018H52.982" transform="translate(-40.819 -198.167)"/>
        <path id="패스_87628" data-name="패스 87628" d="M52.637,55.156H45.49A3.72,3.72,0,0,1,45,55.14a.65.65,0,0,1-.1-1.266,1.541,1.541,0,0,1,.437-.048q7.3,0,14.606,0a1.558,1.558,0,0,1,.48.057.651.651,0,0,1-.107,1.254,3.049,3.049,0,0,1-.487.019H52.637" transform="translate(-40.485 -49.032)"/>
        <path id="패스_87629" data-name="패스 87629" d="M49.7,94.9q-2.24,0-4.481,0c-.556,0-.862-.246-.852-.673.009-.4.318-.657.836-.657q4.5,0,9.006,0c.54,0,.865.268.855.685s-.315.645-.839.646q-2.263,0-4.525,0" transform="translate(-40.419 -85.241)"/>
        <path id="패스_87630" data-name="패스 87630" d="M114.211,178.313q2.241,0,4.482,0c.558,0,.856.241.85.673s-.3.657-.824.657q-4.5,0-9.009,0c-.659,0-1.062-.524-.73-.98a1,1,0,0,1,.7-.336c1.508-.03,3.017-.015,4.526-.015" transform="translate(-99.171 -162.435)"/>
        <path id="패스_87631" data-name="패스 87631" d="M48.592,257.2q1.664,0,3.328,0c.571,0,.864.223.87.652s-.292.678-.847.679q-3.372,0-6.744,0c-.52,0-.826-.248-.833-.656-.008-.424.3-.674.854-.675q1.686,0,3.372,0" transform="translate(-40.416 -234.307)"/>
        <path id="패스_87632" data-name="패스 87632" d="M46.413,178.321c.428,0,.856-.009,1.284,0a.664.664,0,1,1,0,1.325q-1.306.017-2.613,0a.664.664,0,1,1,0-1.325c.443-.012.886,0,1.328,0" transform="translate(-40.424 -162.443)"/>
        <path id="패스_87633" data-name="패스 87633" d="M185.854,94.864c-.428,0-.857.008-1.284,0a.661.661,0,1,1-.041-1.32c.9-.018,1.8-.02,2.7,0a.659.659,0,0,1-.047,1.317c-.443.012-.886,0-1.329,0" transform="translate(-167.491 -85.201)"/>
      </g>
    </g>
  </g>
</svg>
