<svg id="_05" data-name="05" xmlns="http://www.w3.org/2000/svg" xmlns:xlink="http://www.w3.org/1999/xlink" width="50" height="50" viewBox="0 0 50 50">
  <defs>
    <clipPath id="clip-path">
      <rect id="사각형_149596" data-name="사각형 149596" width="50" height="50" transform="translate(-0.453)" fill="#fff" stroke="#707070" stroke-width="1"/>
    </clipPath>
    <clipPath id="clip-path-2">
      <rect id="사각형_149595" data-name="사각형 149595" width="44.523" height="46.521" fill="none"/>
    </clipPath>
  </defs>
  <g id="마스크_그룹_56" data-name="마스크 그룹 56" transform="translate(0.453)" clip-path="url(#clip-path)">
    <g id="그룹_14291" data-name="그룹 14291" transform="translate(2.161 1.261)">
      <g id="그룹_14290" data-name="그룹 14290" clip-path="url(#clip-path-2)">
        <path id="패스_87634" data-name="패스 87634" d="M115.572,0c.21.245.439.476.627.737q.917,1.274,1.808,2.567a.764.764,0,0,1-.506,1.3q-1.524.37-3.053.716a.773.773,0,0,1-1.033-.534c-.1-.457.162-.8.694-.932.273-.066.547-.129.819-.2a1.663,1.663,0,0,0,.213-.143c-1.272-.316-2.417-.692-3.591-.877A19.012,19.012,0,0,0,94.792,7.818c-.438.411-.862.457-1.191.129-.349-.348-.3-.785.167-1.217,6.061-5.6,13.051-7.194,20.953-4.861.143.042.289.076.522.138-.408-.689-1.2-1.277-.234-2.006Z" transform="translate(-84.597)"/>
        <path id="패스_87635" data-name="패스 87635" d="M152.284,114.114c-.186.44-.333.851-.53,1.236a.836.836,0,0,0,.006.87c.234.438.37.926.586,1.375a1.024,1.024,0,0,0,.412.436,7.161,7.161,0,0,0,.956.379.827.827,0,0,1,.587.86c0,.859,0,1.719,0,2.578a.791.791,0,0,1-.613.883,2.3,2.3,0,0,0-1.718,1.647,2.119,2.119,0,0,0,.055,2.036c.341.621.269.813-.236,1.319-.552.553-1.114,1.1-1.654,1.66a.836.836,0,0,1-1.132.216,2.248,2.248,0,0,0-2.289-.051,2.211,2.211,0,0,0-1.47,1.53c-.184.641-.368.726-1.026.73-.812,0-1.625-.007-2.437,0a.813.813,0,0,1-.912-.635,2.267,2.267,0,0,0-1.574-1.665,2.162,2.162,0,0,0-2.162.069.886.886,0,0,1-1.212-.223c-.556-.592-1.137-1.16-1.722-1.725a.81.81,0,0,1-.2-1.093,2.246,2.246,0,0,0,.053-2.329,2.212,2.212,0,0,0-1.5-1.439c-.679-.2-.748-.361-.75-1.054,0-.812.011-1.625,0-2.437a.775.775,0,0,1,.6-.881,2.3,2.3,0,0,0,1.715-1.646,2.155,2.155,0,0,0-.05-2.029c-.338-.64-.275-.82.223-1.319.563-.564,1.134-1.119,1.687-1.693a.814.814,0,0,1,1.1-.193,2.223,2.223,0,0,0,2.292.058,2.195,2.195,0,0,0,1.473-1.524c.177-.656.371-.738,1.066-.741.8,0,1.594.008,2.39,0a.831.831,0,0,1,.936.669,2.191,2.191,0,0,0,1.553,1.626,2.14,2.14,0,0,0,2.159-.054.877.877,0,0,1,1.213.206c.567.6,1.173,1.169,1.747,1.766a3.762,3.762,0,0,1,.383.584m-1.713.211c-.126-.131-.269-.285-.417-.434-.838-.84-.841-.847-1.921-.381a1.066,1.066,0,0,1-.937,0c-.75-.34-1.529-.616-2.275-.965a1.838,1.838,0,0,1-.619-.573,1.631,1.631,0,0,1-.237-.606.617.617,0,0,0-.8-.544,1.331,1.331,0,0,1-.234,0c-1,0-1.019-.008-1.353.949a1.284,1.284,0,0,1-.939.869,8.383,8.383,0,0,0-1.727.7,1.447,1.447,0,0,1-1.531.06c-.771-.394-.785-.366-1.391.239-.68.68-.705.692-.286,1.543a1.358,1.358,0,0,1-.064,1.4,7.093,7.093,0,0,0-.7,1.676,1.4,1.4,0,0,1-1.011,1.093c-.835.281-.826.309-.826,1.2,0,.931-.009.956.875,1.258a1.344,1.344,0,0,1,.951,1.033,7.071,7.071,0,0,0,.695,1.679,1.412,1.412,0,0,1,.061,1.488c-.4.8-.373.815.247,1.434.666.666.679.692,1.545.265a1.343,1.343,0,0,1,1.361.053,10.869,10.869,0,0,0,1.811.742,1.2,1.2,0,0,1,.93.876c.045.18.15.346.195.526a.481.481,0,0,0,.606.418,2.568,2.568,0,0,1,.375,0c1,0,1.014.006,1.351-.944a1.286,1.286,0,0,1,.939-.869,7.806,7.806,0,0,0,1.726-.7,1.477,1.477,0,0,1,1.575-.049c.743.377.756.351,1.35-.244.686-.686.708-.7.282-1.578a1.334,1.334,0,0,1,.066-1.363,7.1,7.1,0,0,0,.687-1.632,1.479,1.479,0,0,1,1.058-1.166c.825-.268.814-.3.814-1.158,0-.949.009-.975-.9-1.287a1.35,1.35,0,0,1-.932-.994,10.515,10.515,0,0,0-.75-1.808,1.235,1.235,0,0,1-.054-1.279c.15-.272.256-.569.411-.921" transform="translate(-119.409 -99.042)"/>
        <path id="패스_87636" data-name="패스 87636" d="M16.352,233.568c-.14.3-.255.569-.393.828a.746.746,0,1,1-1.352-.631c.512-1.138,1.032-2.274,1.577-3.4a.725.725,0,0,1,1.241-.186c.783.808,1.548,1.633,2.3,2.466a.729.729,0,0,1-.013,1.053.751.751,0,0,1-1.088-.045c-.125-.118-.233-.253-.354-.375s-.223-.212-.433-.41c.1.513.153.93.261,1.333a19.067,19.067,0,0,0,13.447,14.088,1.767,1.767,0,0,1,.55.243.665.665,0,0,1,.2.881.736.736,0,0,1-.947.383,19.444,19.444,0,0,1-4.586-1.861,20.57,20.57,0,0,1-10.3-14.166c-.01-.046-.019-.091-.033-.136,0-.01-.02-.017-.087-.069" transform="translate(-13.162 -208.303)"/>
        <path id="패스_87637" data-name="패스 87637" d="M360.732,187.952c.4-.027.7-.054.988-.063a.753.753,0,0,1,.828.656.72.72,0,0,1-.671.81c-1.258.136-2.518.254-3.78.345a.7.7,0,0,1-.777-.9c.312-1.143.668-2.276,1.037-3.4a.733.733,0,0,1,1.395.419c-.065.365-.191.719-.329,1.219.252-.206.414-.327.563-.463a19.092,19.092,0,0,0,6.481-15.952,28.174,28.174,0,0,0-.546-3.323c-.1-.561.052-.935.489-1.05.467-.123.823.118.962.7a20.43,20.43,0,0,1-4.418,18.753c-.647.775-1.417,1.446-2.222,2.258" transform="translate(-323.709 -150.591)"/>
        <path id="패스_87638" data-name="패스 87638" d="M235.134,361.506c-.138-.832-.271-1.63-.4-2.428a3.683,3.683,0,0,1-.055-.37.728.728,0,0,1,.613-.851.738.738,0,0,1,.866.659q.22,1.2.4,2.4c.054.361.143.573.582.677a4.613,4.613,0,0,1,3.506,4.889,4.648,4.648,0,1,1-6.013-4.834c.148-.046.3-.085.5-.144m-2.26,4.581a3.146,3.146,0,1,0,3.162-3.141,3.142,3.142,0,0,0-3.162,3.141" transform="translate(-209.614 -324.213)"/>
        <path id="패스_87639" data-name="패스 87639" d="M353.848,53.5c-.738.609-1.407,1.2-2.12,1.727a1.166,1.166,0,0,1-.842.219.723.723,0,0,1-.172-1.3q.98-.838,1.99-1.639a.486.486,0,0,0,.2-.622,4.635,4.635,0,1,1,1.255,2,3.836,3.836,0,0,1-.312-.383m6.617-3a3.147,3.147,0,1,0-3.175,3.132,3.137,3.137,0,0,0,3.175-3.132" transform="translate(-317.455 -41.532)"/>
        <path id="패스_87640" data-name="패스 87640" d="M9.04,102.941c.84.315,1.642.615,2.443.918.587.223.813.6.639,1.05s-.59.565-1.183.345c-.76-.282-1.524-.553-2.275-.857a.48.48,0,0,0-.632.158,4.589,4.589,0,0,1-5.27,1.109,4.645,4.645,0,1,1,6.383-3.172c-.033.135-.064.27-.106.45m-7.547-1.535a3.147,3.147,0,0,0,6.294.009,3.147,3.147,0,1,0-6.294-.009" transform="translate(0 -87.662)"/>
        <path id="패스_87641" data-name="패스 87641" d="M196.523,179.819a5.7,5.7,0,1,1,5.689-5.705,5.7,5.7,0,0,1-5.689,5.705m-.012-9.892a4.2,4.2,0,1,0,4.2,4.2,4.187,4.187,0,0,0-4.2-4.2" transform="translate(-172.87 -152.595)"/>
      </g>
    </g>
  </g>
</svg>
