<svg width="18" height="21" viewBox="0 0 18 21" fill="none" xmlns="http://www.w3.org/2000/svg">
<path d="M15.724 20.1121H1.948C1.69657 20.1121 1.45543 20.0123 1.27765 19.8345C1.09986 19.6567 1 19.4155 1 19.1641V1.94897C1 1.69755 1.09986 1.45659 1.27765 1.27881C1.45543 1.10102 1.69657 1.00098 1.948 1.00098H13.337C13.4709 1.00089 13.6033 1.02917 13.7255 1.08398C13.8477 1.1388 13.957 1.21901 14.046 1.31909L16.434 4.00415C16.588 4.17785 16.6731 4.40187 16.673 4.63403V19.1589C16.6736 19.2839 16.6496 19.408 16.6022 19.5237C16.5548 19.6393 16.4849 19.7444 16.3967 19.833C16.3085 19.9216 16.2037 19.9919 16.0882 20.0398C15.9727 20.0877 15.849 20.1122 15.724 20.1121Z" fill="#00237A" stroke="white" stroke-width="1.192" stroke-miterlimit="10"/>
<path d="M13.3359 1V4.3291H16.429" fill="#00237A"/>
<path d="M13.3359 1V4.3291H16.429" stroke="white" stroke-width="1.192" stroke-miterlimit="10"/>
<path d="M4.70996 13.1831V11.1631L10.1479 5.72607L12.3229 7.82593L7.00195 13.186L4.70996 13.1831Z" stroke="white" stroke-width="1.192" stroke-miterlimit="10"/>
<path d="M4.01001 15.824H12.399" stroke="white" stroke-width="1.192" stroke-miterlimit="10"/>
<path d="M4.70996 13.183V11.163L6.62195 9.27209L8.72192 11.3309L6.91595 13.118L4.70996 13.183Z" fill="#2A6FDB" stroke="white" stroke-width="1.192" stroke-miterlimit="10"/>
</svg>
