<?xml version="1.0" encoding="utf-8"?>
<!-- Generator: Adobe Illustrator 26.5.0, SVG Export Plug-In . SVG Version: 6.00 Build 0)  -->
<svg version="1.1" id="p_icon" xmlns="http://www.w3.org/2000/svg" xmlns:xlink="http://www.w3.org/1999/xlink" x="0px" y="0px"
	 width="18px" height="18px" viewBox="0 0 18 18" style="enable-background:new 0 0 18 18;" xml:space="preserve">
<style type="text/css">
	.st0{clip-path:url(#SVGID_00000071552591275168199990000002710827777327627686_);}
	.st1{clip-path:url(#SVGID_00000004511168640859648870000016366459589527632316_);}
	.st2{fill:#D72D00;}
</style>
<g>
	<defs>
		<rect id="SVGID_1_" y="0" width="18" height="18"/>
	</defs>
	<clipPath id="SVGID_00000061437071525925325290000006166946513883919508_">
		<use xlink:href="#SVGID_1_"  style="overflow:visible;"/>
	</clipPath>
	
		<g id="마스크_그룹_24" transform="translate(-317 1361)" style="clip-path:url(#SVGID_00000061437071525925325290000006166946513883919508_);">
		<g id="그룹_14000" transform="translate(317.766 -1359.632)">
			<g>
				<defs>
					<rect id="SVGID_00000009589208400343919450000003355797138931722426_" x="0" y="-0.3" width="16.2" height="16.1"/>
				</defs>
				<clipPath id="SVGID_00000112599366085020726150000015497222271715474574_">
					<use xlink:href="#SVGID_00000009589208400343919450000003355797138931722426_"  style="overflow:visible;"/>
				</clipPath>
				
					<g id="그룹_13999" transform="translate(0 -0.319)" style="clip-path:url(#SVGID_00000112599366085020726150000015497222271715474574_);">
					<path id="패스_87311" class="st2" d="M9.2,13.9v2.2L0,14.3c0,0,0-0.1,0-0.1C0,10.1,0,6,0,1.9c0-0.1,0-0.1,0.1-0.1
						c0.5-0.1,1-0.2,1.6-0.3l3.1-0.6l2.7-0.5L9.1,0c0,0,0,0,0.1,0v1.7h0.5c1.9,0,3.8,0,5.7,0c0.3,0,0.6,0.2,0.7,0.5
						c0,0.1,0.1,0.2,0.1,0.3c0,0,0,0.1,0,0.1c0,3.5,0,7,0,10.5c0,0.4-0.3,0.8-0.7,0.8c0,0,0,0-0.1,0H15H9.3
						C9.3,13.9,9.2,13.9,9.2,13.9 M9.2,12c0,0.4,0,0.9,0,1.3c0,0.1,0,0.1,0.1,0.1c2.1,0,4.1,0,6.2,0h0.1V2.3H9.2V5
						c0.4-0.6,1.1-1,1.8-1v2.3h2.2c0,0.8-0.4,1.6-1.1,2c-1,0.6-2.3,0.3-2.9-0.7v1.9h5.1v0.7H9.2v1h5.1V12L9.2,12z M3.8,8.8H4
						c0.2,0,0.5,0,0.7,0c0.5-0.1,1-0.4,1.2-0.9c0.2-0.4,0.3-0.9,0.2-1.4c0-0.3-0.2-0.6-0.4-0.8C5.5,5.3,5.1,5.2,4.7,5.2
						c-0.5,0-1,0.1-1.5,0.1c-0.1,0-0.2,0-0.2,0v5.2l0.9,0.1L3.8,8.8z"/>
					<path id="패스_87312" class="st2" d="M11.6,3.3c1.2,0,2.2,1,2.2,2.2c0,0,0,0,0,0.1h-2.2C11.7,4.8,11.7,4.1,11.6,3.3"/>
					<path id="패스_87313" class="st2" d="M3.9,6.2c0.2,0,0.3,0,0.5,0C4.7,6.1,5,6.4,5,6.7c0,0,0,0,0,0c0,0.2,0,0.4,0,0.6
						c0,0.3-0.2,0.4-0.5,0.5c-0.2,0-0.4,0-0.6,0L3.9,6.2z"/>
				</g>
			</g>
		</g>
	</g>
</g>
</svg>
