<svg xmlns="http://www.w3.org/2000/svg" xmlns:xlink="http://www.w3.org/1999/xlink" width="1230" height="719.087" viewBox="0 0 1230 719.087"><defs><filter id="a" x="0" y="43.5" width="357" height="675.587" filterUnits="userSpaceOnUse"><feOffset dx="10" dy="10" input="SourceAlpha"/><feGaussianBlur stdDeviation="5" result="b"/><feFlood flood-opacity="0.051"/><feComposite operator="in" in2="b"/><feComposite in="SourceGraphic"/></filter><filter id="c" x="393" y="43.5" width="357" height="583.988" filterUnits="userSpaceOnUse"><feOffset dx="10" dy="10" input="SourceAlpha"/><feGaussianBlur stdDeviation="5" result="d"/><feFlood flood-opacity="0.051"/><feComposite operator="in" in2="d"/><feComposite in="SourceGraphic"/></filter><filter id="e" x="873" y="43.5" width="357" height="583.988" filterUnits="userSpaceOnUse"><feOffset dx="10" dy="10" input="SourceAlpha"/><feGaussianBlur stdDeviation="5" result="f"/><feFlood flood-opacity="0.051"/><feComposite operator="in" in2="f"/><feComposite in="SourceGraphic"/></filter><filter id="g" x="749" y="220.487" width="106" height="73" filterUnits="userSpaceOnUse"><feOffset dy="3" input="SourceAlpha"/><feGaussianBlur stdDeviation="3" result="h"/><feFlood flood-opacity="0.051"/><feComposite operator="in" in2="h"/><feComposite in="SourceGraphic"/></filter><filter id="i" x="739" y="382.863" width="126" height="73" filterUnits="userSpaceOnUse"><feOffset dy="3" input="SourceAlpha"/><feGaussianBlur stdDeviation="3" result="j"/><feFlood flood-opacity="0.051"/><feComposite operator="in" in2="j"/><feComposite in="SourceGraphic"/></filter></defs><g transform="translate(-355 -686.317)"><g transform="matrix(1, 0, 0, 1, 355, 686.32)" filter="url(#a)"><g transform="translate(5 48.5)" fill="#fff"><path d="M 317 645.0869750976562 L 10 645.0869750976562 C 4.761666774749756 645.0869750976562 0.5 640.7359008789062 0.5 635.3876342773438 L 0.5 10.19929027557373 C 0.5 4.851123809814453 4.761666774749756 0.5000403523445129 10 0.5000403523445129 L 317 0.5000403523445129 C 322.2383422851562 0.5000403523445129 326.5 4.851123809814453 326.5 10.19929027557373 L 326.5 635.3876342773438 C 326.5 640.7359008789062 322.2383422851562 645.0869750976562 317 645.0869750976562 Z" stroke="none"/><path d="M 10 0.99993896484375 C 5.03741455078125 0.99993896484375 1 5.12677001953125 1 10.19927978515625 L 1 635.3876342773438 C 1 640.4601440429688 5.03741455078125 644.5868530273438 10 644.5868530273438 L 317 644.5868530273438 C 321.9625854492188 644.5868530273438 326 640.4601440429688 326 635.3876342773438 L 326 10.19927978515625 C 326 5.12677001953125 321.9625854492188 0.99993896484375 317 0.99993896484375 L 10 0.99993896484375 M 10 -6.103515625e-05 L 317 -6.103515625e-05 C 322.5228271484375 -6.103515625e-05 327 4.56634521484375 327 10.19927978515625 L 327 635.3876342773438 C 327 641.0204467773438 322.5228271484375 645.5868530273438 317 645.5868530273438 L 10 645.5868530273438 C 4.4771728515625 645.5868530273438 0 641.0204467773438 0 635.3876342773438 L 0 10.19927978515625 C 0 4.56634521484375 4.4771728515625 -6.103515625e-05 10 -6.103515625e-05 Z" stroke="none" fill="#d6d3d3"/></g></g><g transform="matrix(1, 0, 0, 1, 355, 686.32)" filter="url(#c)"><g transform="translate(398 48.5)" fill="#fff"><path d="M 317 553.48828125 L 10 553.48828125 C 4.761714458465576 553.48828125 0.5 549.2265625 0.5 543.98828125 L 0.5 9.999998092651367 C 0.5 4.761712074279785 4.761714458465576 0.4999977648258209 10 0.4999977648258209 L 317 0.4999977648258209 C 322.23828125 0.4999977648258209 326.5 4.761712074279785 326.5 9.999998092651367 L 326.5 543.98828125 C 326.5 549.2265625 322.23828125 553.48828125 317 553.48828125 Z" stroke="none"/><path d="M 10 1 C 5.037353515625 1 1 5.037353515625 1 10 L 1 543.98828125 C 1 548.950927734375 5.037353515625 552.98828125 10 552.98828125 L 317 552.98828125 C 321.962646484375 552.98828125 326 548.950927734375 326 543.98828125 L 326 10 C 326 5.037353515625 321.962646484375 1 317 1 L 10 1 M 10 0 L 317 0 C 322.5228576660156 0 327 4.47711181640625 327 10 L 327 543.98828125 C 327 549.5110473632812 322.5228576660156 553.98828125 317 553.98828125 L 10 553.98828125 C 4.477142333984375 553.98828125 0 549.5110473632812 0 543.98828125 L 0 10 C 0 4.47711181640625 4.477142333984375 0 10 0 Z" stroke="none" fill="#d6d3d3"/></g></g><path d="M8,0H319a8,8,0,0,1,8,8V70H0V8A8,8,0,0,1,8,0Z" transform="translate(360 686.317)" fill="#2e4dc6"/><path d="M8,0H319a8,8,0,0,1,8,8V70H0V8A8,8,0,0,1,8,0Z" transform="translate(753 686.317)" fill="#2e4dc6"/><g transform="matrix(1, 0, 0, 1, 355, 686.32)" filter="url(#e)"><g transform="translate(878 48.5)" fill="#fff"><path d="M 317 553.48828125 L 10 553.48828125 C 4.761714458465576 553.48828125 0.5 549.2265625 0.5 543.98828125 L 0.5 9.999998092651367 C 0.5 4.761712074279785 4.761714458465576 0.4999977648258209 10 0.4999977648258209 L 317 0.4999977648258209 C 322.23828125 0.4999977648258209 326.5 4.761712074279785 326.5 9.999998092651367 L 326.5 543.98828125 C 326.5 549.2265625 322.23828125 553.48828125 317 553.48828125 Z" stroke="none"/><path d="M 10 1 C 5.037353515625 1 1 5.037353515625 1 10 L 1 543.98828125 C 1 548.950927734375 5.037353515625 552.98828125 10 552.98828125 L 317 552.98828125 C 321.962646484375 552.98828125 326 548.950927734375 326 543.98828125 L 326 10 C 326 5.037353515625 321.962646484375 1 317 1 L 10 1 M 10 0 L 317 0 C 322.5228576660156 0 327 4.47711181640625 327 10 L 327 543.98828125 C 327 549.5110473632812 322.5228576660156 553.98828125 317 553.98828125 L 10 553.98828125 C 4.477142333984375 553.98828125 0 549.5110473632812 0 543.98828125 L 0 10 C 0 4.47711181640625 4.477142333984375 0 10 0 Z" stroke="none" fill="#d6d3d3"/></g></g><g transform="translate(381.337 -1053.054)"><path d="M1030.547,6715.72h204.607" transform="translate(-365.046 -4824)" fill="none" stroke="#2473d8" stroke-width="1.4"/><path d="M1102.212,6709.875l5.983,5.983-5.983,5.983" transform="translate(-238 -4824)" fill="none" stroke="#2473d8" stroke-width="1.4"/></g><g transform="translate(381.337 -697.694)"><path d="M1030.547,6715.72h204.535" transform="translate(-364.974 -4824)" fill="none" stroke="#2473d8" stroke-width="1.4"/><path d="M1102.212,6709.875l5.983,5.983-5.983,5.983" transform="translate(-238 -4824)" fill="none" stroke="#2473d8" stroke-width="1.4"/></g><g transform="translate(0 -2285.365)"><g transform="translate(671.219 3527.381)"><path d="M1911.155,6715.72H1030.547" transform="translate(-1184.699 -6709.875)" fill="none" stroke="#f68c1f" stroke-width="1.4"/></g><g transform="translate(511.534 3556.387) rotate(-90)"><path d="M23.585,0H0" transform="translate(0.087 6.121)" fill="none" stroke="#f68c1f" stroke-width="1.4"/><path d="M5.983,11.966,0,5.983,5.983,0" fill="none" stroke="#f68c1f" stroke-width="1.4"/></g><g transform="translate(3288.841 2672.805) rotate(90)"><path d="M1025,6715.72h18.817" transform="translate(-183.261 -4824)" fill="none" stroke="#f68c1f" stroke-width="1.4"/></g></g><g transform="translate(394 911.805)" fill="#fff"><path d="M 256 59.5 L 4 59.5 C 2.070100069046021 59.5 0.5 57.92990112304688 0.5 56 L 0.5 4 C 0.5 2.070100069046021 2.070100069046021 0.5 4 0.5 L 256 0.5 C 257.9299011230469 0.5 259.5 2.070100069046021 259.5 4 L 259.5 56 C 259.5 57.92990112304688 257.9299011230469 59.5 256 59.5 Z" stroke="none"/><path d="M 4 1 C 2.345794677734375 1 1 2.345798492431641 1 4 L 1 56 C 1 57.65420150756836 2.345794677734375 59 4 59 L 256 59 C 257.6542053222656 59 259 57.65420150756836 259 56 L 259 4 C 259 2.345798492431641 257.6542053222656 1 256 1 L 4 1 M 4 0 L 256 0 C 258.2091369628906 0 260 1.790866851806641 260 4 L 260 56 C 260 58.20913314819336 258.2091369628906 60 256 60 L 4 60 C 1.790863037109375 60 0 58.20913314819336 0 56 L 0 4 C 0 1.790866851806641 1.790863037109375 0 4 0 Z" stroke="none" fill="#848484"/></g><path d="M-12.688-7.312c2.544-.272,4.528-1.3,5.312-2.784.768,1.488,2.752,2.512,5.3,2.784l.592-1.28c-2.688-.272-4.544-1.392-4.768-2.672h4.224v-1.328H-12.7v1.328h4.192c-.24,1.28-2.08,2.4-4.752,2.672Zm5.28,7.28c-2.128,0-3.3-.416-3.3-1.264,0-.832,1.168-1.264,3.3-1.264S-4.1-2.128-4.1-1.3C-4.1-.448-5.28-.032-7.408-.032Zm0-3.792c-3.1,0-4.976.912-4.976,2.528s1.872,2.528,4.976,2.528c3.12,0,4.976-.912,4.976-2.528S-4.288-3.824-7.408-3.824Zm.832-2.32V-8.08H-8.224v1.936h-5.7v1.328H-.848V-6.144ZM5.952-4.32h2.96v2.5H5.952Zm4.592,2.5v-2.5h2.128V-5.648H4.016v-2h8.336v-4.56H2.368v1.328H10.72v1.92H2.4v4.64H4.32v2.5H.816v1.36H13.9v-1.36Z" transform="translate(524.5 947.805)" fill="#0d0d0d" opacity="0.8"/><g transform="translate(394 1073.18)" fill="#fff" stroke="#2473d8" stroke-width="1"><rect width="260" height="60" rx="4" stroke="none"/><rect x="0.5" y="0.5" width="259" height="59" rx="3.5" fill="none"/></g><path d="M-72.944-8.656a2.126,2.126,0,0,1,2.208-2.208A2.118,2.118,0,0,1-68.56-8.656a2.127,2.127,0,0,1-2.176,2.24A2.134,2.134,0,0,1-72.944-8.656Zm8.56-1.072v2.144h-2.768a3.343,3.343,0,0,0,.16-1.072,3.343,3.343,0,0,0-.16-1.072Zm0,3.488v3.664h1.648V-13.2h-1.648v2.128h-3.472a3.781,3.781,0,0,0-2.88-1.248,3.621,3.621,0,0,0-3.776,3.664,3.621,3.621,0,0,0,3.776,3.664,3.674,3.674,0,0,0,2.88-1.248ZM-70.448-.384V-3.648H-72.1V.96h9.728V-.384ZM-46.912-6.16h-2.016a25.387,25.387,0,0,0,.368-4.912v-1.264h-9.856v1.328h8.24a21.984,21.984,0,0,1-.416,4.848h-9.392V-4.8h5.648V1.232h1.664V-4.8h5.76Zm14.144-1.728c-2.912-.416-5.088-2.224-5.088-4.1v-.768H-39.6v.768c0,1.9-2.144,3.68-5.088,4.1l.64,1.328A7.265,7.265,0,0,0-38.72-9.824,7.311,7.311,0,0,0-33.408-6.56Zm.56,2.688H-45.264v1.344H-39.6v5.1h1.648v-5.1h5.744Zm10.816-2.9h1.5v3.984h1.568v-9.12h-1.568v3.776h-1.5v-3.488h-1.536v8.336h1.536Zm-2.032-3.5h-2.784v-1.488h-1.616V-11.6h-2.8v1.3h7.2Zm-5.2,4.416c0-.784.64-1.3,1.616-1.3s1.632.512,1.632,1.3-.656,1.3-1.632,1.3S-28.624-6.4-28.624-7.184Zm4.72,0c0-1.488-1.28-2.5-3.1-2.5-1.808,0-3.088,1.008-3.088,2.5,0,1.5,1.28,2.5,3.088,2.5C-25.184-4.688-23.9-5.68-23.9-7.184Zm.784,7.168c-2.064,0-3.248-.464-3.248-1.328s1.184-1.312,3.248-1.312c2.08,0,3.232.448,3.232,1.312S-21.04-.016-23.12-.016Zm0-3.888c-3.056,0-4.9.928-4.9,2.56s1.84,2.576,4.9,2.576c3.04,0,4.88-.944,4.88-2.576S-20.08-3.9-23.12-3.9ZM-9.248,3.184-8.1,2.672a14.939,14.939,0,0,1-2.016-7.68A15.022,15.022,0,0,1-8.1-12.688l-1.152-.5a15.077,15.077,0,0,0-2.368,8.176A15.092,15.092,0,0,0-9.248,3.184ZM-5.84-11.7v1.344H-.784C-1.12-7.024-3.024-4.48-6.56-2.672l.912,1.264C-.928-3.792.864-7.5.864-11.7ZM6.832-7.52H4.64v-5.712H2.992V1.216H4.64v-7.36H6.832Zm9.744.912a4.616,4.616,0,0,1-3.376-4.32V-12.48H11.536v1.424a5.05,5.05,0,0,1-3.5,4.832l.88,1.312A5.941,5.941,0,0,0,12.4-8.336a5.69,5.69,0,0,0,3.312,3.024ZM14.8-.064c-2.016,0-3.184-.5-3.184-1.424,0-.9,1.168-1.408,3.184-1.408s3.184.512,3.184,1.408C17.984-.56,16.816-.064,14.8-.064Zm0-4.128c-2.976,0-4.816,1.008-4.816,2.7,0,1.712,1.84,2.72,4.816,2.72,2.992,0,4.816-1.008,4.816-2.72C19.616-3.184,17.792-4.192,14.8-4.192Zm4.656-5.456v-3.584H17.808v8.688h1.648V-8.288H21.5v-1.36Zm12.112-1.9H28.112v-1.616H26.464v1.616H22.976v1.328h8.592ZM25.376-6.8c0-.9.784-1.44,1.92-1.44s1.9.544,1.9,1.44c0,.88-.768,1.424-1.9,1.424S25.376-5.92,25.376-6.8Zm2.736,2.624A2.754,2.754,0,0,0,30.752-6.8c0-1.632-1.408-2.7-3.456-2.7-2.064,0-3.472,1.072-3.472,2.7,0,1.376,1.04,2.352,2.64,2.624v1.408c-1.344.048-2.64.048-3.744.048l.224,1.36a52.726,52.726,0,0,0,8.912-.576l-.128-1.216c-1.152.176-2.384.256-3.616.32ZM36.24-7.184H34.192v-6.048H32.544V1.232h1.648V-5.824H36.24Zm15.2-6.048v14.5H53.1v-14.5ZM45.408-12.16c-2.144,0-3.712,1.984-3.712,5.088,0,3.136,1.568,5.1,3.712,5.1,2.16,0,3.728-1.968,3.728-5.1C49.136-10.176,47.568-12.16,45.408-12.16Zm0,1.488c1.264,0,2.144,1.36,2.144,3.6,0,2.272-.88,3.632-2.144,3.632-1.248,0-2.128-1.36-2.128-3.632C43.28-9.312,44.16-10.672,45.408-10.672ZM62.432-.032c-2.112,0-3.3-.448-3.3-1.328,0-.864,1.184-1.328,3.3-1.328s3.312.464,3.312,1.328C65.744-.48,64.544-.032,62.432-.032Zm0-3.92c-3.1,0-4.976.944-4.976,2.592,0,1.664,1.872,2.592,4.976,2.592,3.12,0,4.976-.928,4.976-2.592C67.408-3.008,65.552-3.952,62.432-3.952Zm-1.76-3.712a12.25,12.25,0,0,0,1.792.128,11.8,11.8,0,0,0,1.76-.128v1.472H60.672ZM62.464-11.7c2.144,0,3.44.512,3.44,1.44S64.608-8.8,62.464-8.8c-2.16,0-3.456-.528-3.456-1.456S60.3-11.7,62.464-11.7Zm3.408,5.5V-8.1a2.434,2.434,0,0,0,1.744-2.16c0-1.7-2-2.72-5.152-2.72-3.168,0-5.152,1.024-5.152,2.72a2.386,2.386,0,0,0,1.712,2.144v1.92h-3.1V-4.88H68.992V-6.192Zm5.856,9.376a14.968,14.968,0,0,0,2.384-8.192,14.954,14.954,0,0,0-2.384-8.176l-1.152.5a15.022,15.022,0,0,1,2.016,7.68,14.939,14.939,0,0,1-2.016,7.68Z" transform="translate(524.505 1110.18)" fill="#2e4dc6"/><g transform="translate(787 1159.181)" fill="#fff" stroke="#2473d8" stroke-width="1"><rect width="260" height="70" rx="4" stroke="none"/><rect x="0.5" y="0.5" width="259" height="69" rx="3.5" fill="none"/></g><path d="M-41.584-8.656a2.126,2.126,0,0,1,2.208-2.208A2.118,2.118,0,0,1-37.2-8.656a2.127,2.127,0,0,1-2.176,2.24A2.134,2.134,0,0,1-41.584-8.656Zm8.56-1.072v2.144h-2.768a3.343,3.343,0,0,0,.16-1.072,3.343,3.343,0,0,0-.16-1.072Zm0,3.488v3.664h1.648V-13.2h-1.648v2.128H-36.5a3.781,3.781,0,0,0-2.88-1.248,3.621,3.621,0,0,0-3.776,3.664,3.621,3.621,0,0,0,3.776,3.664A3.674,3.674,0,0,0-36.5-6.24ZM-39.088-.384V-3.648h-1.648V.96h9.728V-.384ZM-15.552-6.16h-2.016a25.387,25.387,0,0,0,.368-4.912v-1.264h-9.856v1.328h8.24a21.984,21.984,0,0,1-.416,4.848h-9.392V-4.8h5.648V1.232h1.664V-4.8h5.76ZM-1.408-7.888C-4.32-8.3-6.5-10.112-6.5-11.984v-.768H-8.24v.768c0,1.9-2.144,3.68-5.088,4.1l.64,1.328A7.265,7.265,0,0,0-7.36-9.824,7.311,7.311,0,0,0-2.048-6.56ZM-.848-5.2H-13.9v1.344H-8.24v5.1h1.648v-5.1H-.848ZM9.968-8.1h1.5v3.984H13.04v-9.12H11.472v3.776h-1.5v-3.488H8.432v8.336H9.968ZM7.936-11.6H5.152v-1.488H3.536V-11.6H.736v1.3h7.2Zm-5.2,4.416c0-.784.64-1.3,1.616-1.3s1.632.512,1.632,1.3-.656,1.3-1.632,1.3S2.736-6.4,2.736-7.184Zm4.72,0c0-1.488-1.28-2.5-3.1-2.5-1.808,0-3.088,1.008-3.088,2.5,0,1.5,1.28,2.5,3.088,2.5C6.176-4.688,7.456-5.68,7.456-7.184ZM8.24-.016c-2.064,0-3.248-.464-3.248-1.328S6.176-2.656,8.24-2.656c2.08,0,3.232.448,3.232,1.312S10.32-.016,8.24-.016Zm0-3.888c-3.056,0-4.9.928-4.9,2.56s1.84,2.576,4.9,2.576c3.04,0,4.88-.944,4.88-2.576S11.28-3.9,8.24-3.9Zm14.928-3.12A21.572,21.572,0,0,0,23.52-11.3v-.832H16.256v1.344H21.9A20.548,20.548,0,0,1,21.552-7.2Zm1.2.72a40.564,40.564,0,0,1-4.48.384V-8.832H18.256v2.96c-1.024.032-2.016.032-2.88.032L15.552-4.5A54.121,54.121,0,0,0,24.48-5.1ZM19.216-3.328H17.552V.96h9.824V-.384h-8.16Zm7.7-5.312v-4.576H25.248V-2.368h1.664V-7.28h1.92V-8.64Zm5.824,2.064h5.04v-5.36H31.04v1.344h5.072V-7.9h-5.04v5.728H32.3a39.788,39.788,0,0,0,7.184-.512l-.176-1.344a41.366,41.366,0,0,1-6.576.5Zm7.776-6.672V1.264h1.664V-13.248ZM-84.528,23.184l1.152-.512a14.939,14.939,0,0,1-2.016-7.68,15.022,15.022,0,0,1,2.016-7.68l-1.152-.5A15.077,15.077,0,0,0-86.9,14.992,15.092,15.092,0,0,0-84.528,23.184Zm11.984-9.44H-76.08V11.36h3.536Zm1.632-5.92h-1.632V10.08H-76.08V7.824h-1.648v7.248h6.816Zm-3.52,8.56H-76.1V20.96h9.728V19.616h-8.064Zm7.488-5.344V6.8h-1.648V17.408h1.648V12.4H-64.9V11.04Zm13.7-4.256v7.76H-51.6V6.784Zm-7.792,8.432v5.84h9.44v-5.84h-1.632v1.6h-6.176v-1.6Zm1.632,2.88h6.176v1.632h-6.176Zm.016-10.656c-2.208,0-3.84,1.376-3.84,3.36s1.632,3.36,3.84,3.36,3.824-1.376,3.824-3.36S-57.184,7.44-59.392,7.44Zm0,1.36a2.023,2.023,0,0,1,2.224,2,2.014,2.014,0,0,1-2.224,2,2.006,2.006,0,0,1-2.224-2A2.015,2.015,0,0,1-59.392,8.8Zm13.584,14.08h1.28L-40.08,7.216h-1.28Zm16.144-9.136H-33.2V11.36h3.536Zm1.632-5.92h-1.632V10.08H-33.2V7.824h-1.648v7.248h6.816Zm-3.52,8.56h-1.664V20.96h9.728V19.616h-8.064Zm7.488-5.344V6.8h-1.648V17.408h1.648V12.4h2.048V11.04Zm4.528,1.5c2.56-.176,4.512-.88,5.424-2.1.912,1.216,2.9,1.92,5.456,2.1l.448-1.232c-2.816-.16-4.608-.96-4.928-2.1h4.272V7.984H-13.28V6.72h-1.648V7.984h-4.4V9.216h4.256c-.32,1.136-2.1,1.936-4.944,2.1ZM-7.568,14.3V13.072h-13.04V14.3h5.68v1.12h-4.16V16.64h8.272v1.008h-8.24V21.1H-8.784V19.872h-8.64V18.784H-9.2v-3.36h-4.08V14.3Zm4.64,8.576h1.28L2.8,7.216H1.52ZM9.3,11.344A2.126,2.126,0,0,1,11.5,9.136a2.118,2.118,0,0,1,2.176,2.208,2.127,2.127,0,0,1-2.176,2.24A2.134,2.134,0,0,1,9.3,11.344Zm8.56-1.072v2.144H15.088a3.671,3.671,0,0,0,0-2.144Zm0,3.488v3.664H19.5V6.8H17.856V8.928H14.384A3.781,3.781,0,0,0,11.5,7.68a3.666,3.666,0,1,0,0,7.328,3.674,3.674,0,0,0,2.88-1.248Zm-6.064,5.856V16.352H10.144V20.96h9.728V19.616Zm18.944-6.032a4.468,4.468,0,0,1-3.408-4.176V9.136h3.024V7.808h-7.76V9.136h3.072v.288a4.918,4.918,0,0,1-3.536,4.608l.832,1.3a5.881,5.881,0,0,0,3.584-3.36,5.426,5.426,0,0,0,3.392,2.9ZM28.88,19.936c-2.016,0-3.184-.512-3.184-1.44,0-.944,1.168-1.44,3.184-1.44s3.184.5,3.184,1.44C32.064,19.424,30.9,19.936,28.88,19.936Zm0-4.176c-2.976,0-4.816,1.008-4.816,2.736,0,1.712,1.84,2.736,4.816,2.736S33.7,20.208,33.7,18.5C33.7,16.768,31.856,15.76,28.88,15.76ZM33.536,10.3V6.784H31.888v8.64h1.648v-3.76h2.048V10.3ZM39.952,22.88h1.28L45.68,7.216H44.4ZM53.52,11.5h6.848v2.368H53.52Zm4.24,6.608V15.2H62V7.744H60.368v2.432H53.52V7.744H51.888V15.2h4.224v2.912h-5.7v1.36H63.5v-1.36Zm15.008-5.136A21.572,21.572,0,0,0,73.12,8.7V7.872H65.856V9.216H71.5a20.548,20.548,0,0,1-.352,3.584Zm1.2.72a40.564,40.564,0,0,1-4.48.384V11.168H67.856v2.96c-1.024.032-2.016.032-2.88.032l.176,1.344A54.121,54.121,0,0,0,74.08,14.9Zm-5.152,2.976H67.152V20.96h9.824V19.616h-8.16Zm7.7-5.312V6.784H74.848V17.632h1.664V12.72h1.92V11.36Zm8.016,11.824a14.968,14.968,0,0,0,2.384-8.192,14.954,14.954,0,0,0-2.384-8.176l-1.152.5a15.022,15.022,0,0,1,2.016,7.68,14.939,14.939,0,0,1-2.016,7.68Z" transform="translate(917 1191.181)" fill="#2e4dc6"/><g transform="translate(787 911.805)" fill="#fff"><path d="M 256 59.5 L 4 59.5 C 2.070100069046021 59.5 0.5 57.92990112304688 0.5 56 L 0.5 4 C 0.5 2.070100069046021 2.070100069046021 0.5 4 0.5 L 256 0.5 C 257.9299011230469 0.5 259.5 2.070100069046021 259.5 4 L 259.5 56 C 259.5 57.92990112304688 257.9299011230469 59.5 256 59.5 Z" stroke="none"/><path d="M 4 1 C 2.345794677734375 1 1 2.345798492431641 1 4 L 1 56 C 1 57.65420150756836 2.345794677734375 59 4 59 L 256 59 C 257.6542053222656 59 259 57.65420150756836 259 56 L 259 4 C 259 2.345798492431641 257.6542053222656 1 256 1 L 4 1 M 4 0 L 256 0 C 258.2091369628906 0 260 1.790866851806641 260 4 L 260 56 C 260 58.20913314819336 258.2091369628906 60 256 60 L 4 60 C 1.790863037109375 60 0 58.20913314819336 0 56 L 0 4 C 0 1.790866851806641 1.790863037109375 0 4 0 Z" stroke="none" fill="#848484"/></g><path d="M-34.824-9.968V-8.48H-38.36V-7.2h3.536v1.312h1.648v-7.328h-1.648v1.968h-2.992a7.081,7.081,0,0,0,.112-1.328h-6.464v1.328h4.64c-.224,2.016-2,3.6-5.424,4.336l.576,1.344c3.184-.72,5.312-2.192,6.208-4.4ZM-40.9-.224V-1.552h7.728V-5.3h-9.408v1.312h7.76v1.2h-7.728V1.1h9.776V-.224Zm18.048-4.864a33.757,33.757,0,0,0,.4-5.648v-.96H-29.8v1.328h5.728a30.12,30.12,0,0,1-.4,5.136Zm-3.232-2.464H-27.7V-3.2c-1.008.016-1.984.032-2.864.032l.176,1.36a55.743,55.743,0,0,0,8.816-.56l-.08-1.2c-1.408.176-2.928.272-4.432.336Zm8.992.272h-2.128v-5.936h-1.664V1.232h1.664v-7.12H-17.1Zm6.048-4.928c-2.256,0-3.92,1.424-3.92,3.472s1.664,3.472,3.92,3.472,3.936-1.424,3.936-3.472S-8.792-12.208-11.048-12.208Zm0,1.408a2.092,2.092,0,0,1,2.32,2.064,2.1,2.1,0,0,1-2.32,2.064,2.1,2.1,0,0,1-2.3-2.064A2.086,2.086,0,0,1-11.048-10.8Zm5.568-2.432V1.248h1.664v-14.48ZM-15.432-1.808a50.294,50.294,0,0,0,9.2-.64l-.112-1.2a66.054,66.054,0,0,1-9.3.48ZM9.336-8.992v1.9H5.784v1.344H9.336V-2.5h1.648v-10.72H9.336v2.88H6.44a7.808,7.808,0,0,0,.192-1.76H-.024v1.328h4.88c-.3,2.384-2.432,4.3-5.632,5.312l.7,1.328A9.524,9.524,0,0,0,5.992-8.992ZM3.368-.384V-3.552H1.72V.96h9.632V-.384ZM19.128-8.64a2.113,2.113,0,0,1,2.224-2.176,2.126,2.126,0,0,1,2.24,2.176,2.13,2.13,0,0,1-2.24,2.192A2.117,2.117,0,0,1,19.128-8.64Zm6.08,0a3.621,3.621,0,0,0-3.856-3.6,3.616,3.616,0,0,0-3.84,3.6,3.628,3.628,0,0,0,3.84,3.616A3.633,3.633,0,0,0,25.208-8.64Zm-4.08,4.928H19.464V.96h9.728V-.384H21.128Zm7.488-5.216v-4.288H26.968V-2.624h1.648V-7.568h2.048v-1.36Zm5.728-2.624H32.7v9.136h.96a27.758,27.758,0,0,0,5.1-.432l-.176-1.408a26.813,26.813,0,0,1-4.24.432Zm8.432-1.664v5.744H41.064v-5.456H39.512V.512h1.552V-6.112h1.712V1.232h1.568V-13.216Z" transform="translate(916.5 947.805)" fill="#0d0d0d" opacity="0.8"/><g transform="matrix(1, 0, 0, 1, 355, 686.32)" filter="url(#g)"><g transform="translate(758 226.49)" fill="#fff" stroke="#848484" stroke-width="1"><rect width="88" height="55" rx="4" stroke="none"/><rect x="0.5" y="0.5" width="87" height="54" rx="3.5" fill="none"/></g></g><path d="M-23.8-6.02a4.106,4.106,0,0,1-3.08-3.836v-1.218h-1.47v1.218A4.351,4.351,0,0,1-31.472-5.8l.7,1.134a5.238,5.238,0,0,0,3.178-2.954A4.965,4.965,0,0,0-24.5-4.9Zm-4.13,3.444h5.446V-.224H-27.93Zm-1.414,3.5h8.274V-3.724h-8.274Zm6.832-12.474v7.168h1.442V-11.55Zm7.98.868a3.133,3.133,0,0,0-3.43,3.038,3.133,3.133,0,0,0,3.43,3.038,3.146,3.146,0,0,0,3.444-3.038A3.146,3.146,0,0,0-14.532-10.682Zm0,1.232A1.83,1.83,0,0,1-12.5-7.644a1.838,1.838,0,0,1-2.03,1.806,1.833,1.833,0,0,1-2.016-1.806A1.826,1.826,0,0,1-14.532-9.45Zm4.872-2.128V1.092H-8.2v-12.67Zm-8.708,10a44.007,44.007,0,0,0,8.05-.56l-.1-1.05a57.8,57.8,0,0,1-8.134.42ZM3.3-8.722v1.3H.21V-6.3H3.3v1.148H4.746v-6.412H3.3v1.722H.686A6.2,6.2,0,0,0,.784-11H-4.872v1.162h4.06c-.2,1.764-1.75,3.15-4.746,3.794l.5,1.176C-2.268-5.5-.406-6.79.378-8.722ZM-2.016-.2V-1.358H4.746V-4.634H-3.486v1.148H3.3v1.05H-3.458v3.4H5.1V-.2ZM13.776-4.452a29.537,29.537,0,0,0,.35-4.942v-.84H7.7v1.162h5.012a26.355,26.355,0,0,1-.35,4.494ZM10.948-6.608H9.534V-2.8c-.882.014-1.736.028-2.506.028l.154,1.19a48.775,48.775,0,0,0,7.714-.49l-.07-1.05c-1.232.154-2.562.238-3.878.294Zm7.868.238H16.954v-5.194H15.5V1.078h1.456v-6.23h1.862Zm11.34-1.5H22.89v-2.1h7.182V-11.13h-8.61v4.424h8.694ZM25.718-.042c-1.848,0-2.884-.406-2.884-1.19s1.036-1.19,2.884-1.19,2.9.42,2.9,1.19S27.566-.042,25.718-.042Zm0-3.486c-2.7,0-4.354.84-4.354,2.3s1.652,2.31,4.354,2.31,4.354-.84,4.354-2.31S28.434-3.528,25.718-3.528Zm-5.67-2.128v1.19H31.472v-1.19Zm-47.46,24.442,1.008-.448a13.072,13.072,0,0,1-1.764-6.72A13.144,13.144,0,0,1-26.4,4.9l-1.008-.434a13.193,13.193,0,0,0-2.072,7.154A13.205,13.205,0,0,0-27.412,18.786Zm13.3-9.688c-2.548-.364-4.452-1.946-4.452-3.584V4.842H-20.09v.672c0,1.666-1.876,3.22-4.452,3.584l.56,1.162A6.357,6.357,0,0,0-19.32,7.4a6.4,6.4,0,0,0,4.648,2.856Zm.49,2.352H-25.046v1.176h4.956v4.466h1.442V12.626h5.026Zm8.246-3.836V8.79h2.24v3.178h1.442V4.436H-3.136V7.614Zm.728,2.814A4.146,4.146,0,0,1-7.616,6.62V6.452h2.632V5.29h-6.762V6.452h2.674v.182a4.439,4.439,0,0,1-3.094,4.116l.742,1.148A5.232,5.232,0,0,0-8.3,8.86a4.938,4.938,0,0,0,2.94,2.7Zm-1.246,5.544c-1.806,0-2.828-.448-2.828-1.274s1.022-1.274,2.828-1.274c1.778,0,2.814.448,2.814,1.274S-4.116,15.972-5.894,15.972Zm0-3.668c-2.646,0-4.27.9-4.27,2.394s1.624,2.394,4.27,2.394,4.256-.882,4.256-2.394S-3.262,12.3-5.894,12.3ZM4.83,11.6a7.249,7.249,0,0,0,1.6.168,6.482,6.482,0,0,0,1.6-.182v2.758H4.83ZM6.426,6.3c1.9,0,3.234.84,3.234,2.17s-1.33,2.184-3.234,2.184-3.248-.84-3.248-2.184S4.508,6.3,6.426,6.3Zm3.038,8.05v-3.29a2.923,2.923,0,0,0,1.61-2.59c0-2.016-1.96-3.3-4.648-3.3s-4.648,1.288-4.648,3.3a2.907,2.907,0,0,0,1.61,2.59v3.29H.714v1.176H12.166V14.348ZM20.342,7.922v1.19h2.282V12.08h1.442V4.422H22.624v3.5Zm.784,2.562c-1.932-.546-3.08-1.918-3.08-3.36V7.012h2.66V5.864H18.06V4.38H16.6V5.864h-2.66V7.012H16.6v.112a3.957,3.957,0,0,1-3.038,3.682l.7,1.12A4.92,4.92,0,0,0,17.374,9.21a4.867,4.867,0,0,0,3.08,2.394Zm-1.274,5.474c-1.792,0-2.814-.448-2.814-1.246s1.022-1.232,2.814-1.232,2.828.434,2.828,1.232S21.658,15.958,19.852,15.958Zm0-3.6c-2.646,0-4.256.868-4.256,2.352s1.61,2.366,4.256,2.366,4.27-.882,4.27-2.366S22.5,12.36,19.852,12.36Zm7.56,6.426A13.1,13.1,0,0,0,29.5,11.618a13.085,13.085,0,0,0-2.086-7.154L26.4,4.9a13.144,13.144,0,0,1,1.764,6.72,13.072,13.072,0,0,1-1.764,6.72Z" transform="translate(1158 937.805)" fill="#0d0d0d" opacity="0.8"/><g transform="matrix(1, 0, 0, 1, 355, 686.32)" filter="url(#i)"><g transform="translate(748 388.86)" fill="#fff"><path d="M 104 54.5 L 4 54.5 C 2.070100069046021 54.5 0.5 52.92990112304688 0.5 51 L 0.5 4 C 0.5 2.070100069046021 2.070100069046021 0.5 4 0.5 L 104 0.5 C 105.9299011230469 0.5 107.5 2.070100069046021 107.5 4 L 107.5 51 C 107.5 52.92990112304688 105.9299011230469 54.5 104 54.5 Z" stroke="none"/><path d="M 4 1 C 2.345802307128906 1 1 2.345798492431641 1 4 L 1 51 C 1 52.65420150756836 2.345802307128906 54 4 54 L 104 54 C 105.6541976928711 54 107 52.65420150756836 107 51 L 107 4 C 107 2.345798492431641 105.6541976928711 1 104 1 L 4 1 M 4 0 L 104 0 C 106.2091293334961 0 108 1.790855407714844 108 4 L 108 51 C 108 53.20914459228516 106.2091293334961 55 104 55 L 4 55 C 1.790855407714844 55 0 53.20914459228516 0 51 L 0 4 C 0 1.790855407714844 1.790855407714844 0 4 0 Z" stroke="none" fill="#848484"/></g></g><path d="M-31.815-6.02A4.106,4.106,0,0,1-34.9-9.856v-1.218h-1.47v1.218A4.351,4.351,0,0,1-39.487-5.8l.7,1.134a5.238,5.238,0,0,0,3.178-2.954A4.965,4.965,0,0,0-32.515-4.9Zm-4.13,3.444H-30.5V-.224h-5.446Zm-1.414,3.5h8.274V-3.724h-8.274Zm6.832-12.474v7.168h1.442V-11.55Zm7.98.868a3.133,3.133,0,0,0-3.43,3.038,3.133,3.133,0,0,0,3.43,3.038A3.146,3.146,0,0,0-19.1-7.644,3.146,3.146,0,0,0-22.547-10.682Zm0,1.232a1.83,1.83,0,0,1,2.03,1.806,1.838,1.838,0,0,1-2.03,1.806,1.833,1.833,0,0,1-2.016-1.806A1.826,1.826,0,0,1-22.547-9.45Zm4.872-2.128V1.092h1.456v-12.67Zm-8.708,10a44.007,44.007,0,0,0,8.05-.56l-.1-1.05a57.8,57.8,0,0,1-8.134.42Zm21.672-7.14v1.3H-7.8V-6.3h3.094v1.148h1.442v-6.412H-4.711v1.722H-7.329A6.2,6.2,0,0,0-7.231-11h-5.656v1.162h4.06c-.2,1.764-1.75,3.15-4.746,3.794l.5,1.176c2.786-.63,4.648-1.918,5.432-3.85ZM-10.031-.2V-1.358h6.762V-4.634H-11.5v1.148h6.79v1.05h-6.762v3.4h8.554V-.2ZM5.761-4.452a29.537,29.537,0,0,0,.35-4.942v-.84H-.315v1.162H4.7a26.355,26.355,0,0,1-.35,4.494ZM2.933-6.608H1.519V-2.8c-.882.014-1.736.028-2.506.028l.154,1.19a48.775,48.775,0,0,0,7.714-.49l-.07-1.05c-1.232.154-2.562.238-3.878.294ZM10.8-6.37H8.939v-5.194H7.483V1.078H8.939v-6.23H10.8Zm14.49-1.5H18.025v-2.1h7.182V-11.13H16.6v4.424h8.694ZM20.853-.042c-1.848,0-2.884-.406-2.884-1.19s1.036-1.19,2.884-1.19,2.9.42,2.9,1.19S22.7-.042,20.853-.042Zm0-3.486c-2.7,0-4.354.84-4.354,2.3s1.652,2.31,4.354,2.31,4.354-.84,4.354-2.31S23.569-3.528,20.853-3.528Zm-5.67-2.128v1.19H26.607v-1.19Zm14.14,4.144h7.364v2.52h1.442V-2.674H29.323ZM34.489-4.69V-5.838h3.822V-6.944H30.919v-1.12h7.14V-11.27H29.477v1.106h7.154V-9.1H29.505v3.262h3.542V-4.69H28.035v1.162H39.5V-4.69ZM-29.085,4.422h-1.456v7.224h1.456Zm-5.18,4.9h-3.178V6.368h3.178Zm1.4-4.1h-5.992v5.25h5.992Zm4.018,8.316V12.43h-3.626V11.3h-1.47V12.43h-3.626v1.106h3.626c-.112,1.078-1.75,2.184-4.116,2.422l.476,1.092A6.154,6.154,0,0,0-33.2,14.908a6.132,6.132,0,0,0,4.34,2.142l.476-1.092c-2.338-.252-3.962-1.386-4.074-2.422Zm7.224-6.44h3.36V5.92h-4.788v8.218h.854a22.191,22.191,0,0,0,4.592-.35l-.126-1.19a18.183,18.183,0,0,1-3.892.35Zm4.984,2.072h-2.492v1.176h2.492v6.132h1.358V4.7h-1.358Zm2.576-4.746V17.064h1.386V4.422Zm12.418,0V17.106H-.189V4.422Zm-5.278.938c-1.876,0-3.248,1.736-3.248,4.452,0,2.744,1.372,4.466,3.248,4.466s3.262-1.722,3.262-4.466C-3.661,7.1-5.033,5.36-6.923,5.36Zm0,1.3c1.106,0,1.876,1.19,1.876,3.15,0,1.988-.77,3.178-1.876,3.178S-8.785,11.8-8.785,9.812C-8.785,7.852-8.015,6.662-6.923,6.662Zm11.214,3.57H8.2V9.084H4.291V6.718H8.715V5.528H2.849v8.61h.994a30.524,30.524,0,0,0,5.684-.378L9.4,12.6a30.021,30.021,0,0,1-5.11.364Zm7.042-5.824V9.056H8.911v1.19h2.422v6.846h1.456V4.408Zm11.354,6.02A4.16,4.16,0,0,1,19.719,6.62V6.382h2.632V5.22H15.589V6.382h2.674v.252a4.37,4.37,0,0,1-3.108,4.046l.742,1.134a5.162,5.162,0,0,0,3.122-2.968,5,5,0,0,0,2.954,2.7Zm-5.572,3.346H24.2v3.3h1.442V12.612H17.115ZM24.2,4.422V7.6H21.987V8.79H24.2v3.192h1.442V4.422Zm7.7,2.59h2.114V5.822h-5.8v1.19H30.5v.7c0,2.506-.8,4.7-2.632,5.768l.882,1.078a5.8,5.8,0,0,0,2.492-3.64,5.41,5.41,0,0,0,2.45,3.206l.84-1.106C32.7,12.066,31.9,9.994,31.9,7.712Zm5.628-2.59v5H36.141V4.66H34.783V16.49h1.358V10.61h1.386v6.468H38.9V4.422Z" transform="translate(1157 1100.181)" fill="#0d0d0d" opacity="0.8"/><g transform="translate(1267 1159.18)" fill="#f68c1f" stroke="#d4781a" stroke-width="1"><rect width="260" height="70" rx="4" stroke="none"/><rect x="0.5" y="0.5" width="259" height="69" rx="3.5" fill="none"/></g><path d="M-30.222-9.738a2.392,2.392,0,0,1,2.484-2.484A2.383,2.383,0,0,1-25.29-9.738a2.392,2.392,0,0,1-2.448,2.52A2.4,2.4,0,0,1-30.222-9.738Zm9.63-1.206v2.412h-3.114a3.761,3.761,0,0,0,.18-1.206,3.761,3.761,0,0,0-.18-1.206Zm0,3.924V-2.9h1.854V-14.85h-1.854v2.394H-24.5a4.254,4.254,0,0,0-3.24-1.4,4.074,4.074,0,0,0-4.248,4.122,4.074,4.074,0,0,0,4.248,4.122,4.133,4.133,0,0,0,3.24-1.4ZM-27.414-.432V-4.1h-1.854V1.08h10.944V-.432ZM-.936-6.93H-3.2a28.56,28.56,0,0,0,.414-5.526v-1.422H-13.878v1.494h9.27A24.732,24.732,0,0,1-5.076-6.93H-15.642V-5.4h6.354V1.386h1.872V-5.4h6.48Zm3.222-1.3c2.862-.306,5.094-1.458,5.976-3.132.864,1.674,3.1,2.826,5.958,3.132l.666-1.44c-3.024-.306-5.112-1.566-5.364-3.006h4.752v-1.494H2.268v1.494H6.984c-.27,1.44-2.34,2.7-5.346,3.006Zm5.94,8.19C5.832-.036,4.518-.5,4.518-1.458c0-.936,1.314-1.422,3.708-1.422s3.726.486,3.726,1.422C11.952-.5,10.62-.036,8.226-.036Zm0-4.266c-3.492,0-5.6,1.026-5.6,2.844s2.106,2.844,5.6,2.844c3.51,0,5.6-1.026,5.6-2.844S11.736-4.3,8.226-4.3Zm.936-2.61V-9.09H7.308v2.178H.9v1.494H15.606V-6.912ZM23.256-4.86h3.33v2.808h-3.33Zm5.166,2.808V-4.86h2.394V-6.354H21.078V-8.6h9.378v-5.13H19.224v1.494h9.4v2.16H19.26v5.22h2.16v2.808H17.478v1.53H32.2v-1.53Z" transform="translate(1397.503 1201.18)" fill="#fff"/><rect width="260" height="70" rx="6" transform="translate(394.5 1276.805)" fill="#00237a"/><path d="M-62.4-10.279A2.524,2.524,0,0,1-59.774-12.9a2.515,2.515,0,0,1,2.584,2.622,2.525,2.525,0,0,1-2.584,2.66A2.534,2.534,0,0,1-62.4-10.279Zm10.165-1.273v2.546h-3.287a3.97,3.97,0,0,0,.19-1.273,3.97,3.97,0,0,0-.19-1.273Zm0,4.142v4.351h1.957V-15.675h-1.957v2.527h-4.123a4.49,4.49,0,0,0-3.42-1.482,4.3,4.3,0,0,0-4.484,4.351,4.3,4.3,0,0,0,4.484,4.351,4.363,4.363,0,0,0,3.42-1.482Zm-7.2,6.954V-4.332h-1.957V1.14h11.552v-1.6Zm27.949-6.859h-2.394a30.147,30.147,0,0,0,.437-5.833v-1.5h-11.7v1.577h9.785a26.106,26.106,0,0,1-.494,5.757H-47.006V-5.7H-40.3V1.463h1.976V-5.7h6.84ZM-13-11.837v1.767h-4.2v1.52H-13v1.558h1.957v-8.7H-13v2.337h-3.553a8.409,8.409,0,0,0,.133-1.577h-7.676v1.577h5.51c-.266,2.394-2.375,4.275-6.441,5.149l.684,1.6c3.781-.855,6.308-2.6,7.372-5.225ZM-20.216-.266V-1.843h9.177V-6.289H-22.211v1.558H-13v1.425h-9.177V1.311h11.609V-.266ZM1.216-6.042a40.086,40.086,0,0,0,.475-6.707v-1.14H-7.03v1.577h6.8A35.768,35.768,0,0,1-.7-6.213ZM-2.622-8.968H-4.541V-3.8c-1.2.019-2.356.038-3.4.038l.209,1.615A66.195,66.195,0,0,0,2.736-2.812l-.1-1.425c-1.672.209-3.477.323-5.263.4Zm10.678.323H5.529v-7.049H3.553V1.463H5.529V-6.992H8.056ZM21.3-11.4H13.6v-2.242H21.3Zm1.919-3.762H11.666v5.3H23.218Zm2.014,8.056V-8.664H9.69v1.558h6.764v1.425H11.533V-4.2h9.823v1.216H11.571V1.311h12.2V-.19H13.509V-1.6h9.766V-5.681H18.43V-7.106ZM45.2-10.678H35.34v-2.85h9.747v-1.577H33.4v6H45.2ZM39.178-.057c-2.508,0-3.914-.551-3.914-1.615,0-1.045,1.406-1.615,3.914-1.615s3.933.57,3.933,1.615C43.111-.608,41.686-.057,39.178-.057Zm0-4.731c-3.667,0-5.909,1.14-5.909,3.116,0,2,2.242,3.135,5.909,3.135,3.686,0,5.909-1.14,5.909-3.135C45.087-3.648,42.864-4.788,39.178-4.788ZM31.483-7.676v1.615h15.5V-7.676Zm19.19,5.624h9.994v3.42h1.957v-5H50.673Zm7.011-4.313V-7.923h5.187v-1.5H52.839v-1.52h9.69V-15.3H50.882v1.5h9.709v1.444H50.92v4.427h4.807v1.558h-6.8v1.577H64.486V-6.365Z" transform="translate(522.5 1319.187)" fill="#fff"/><g transform="translate(1267 967.805)" fill="#e6fde5"><path d="M 256 59.5 L 4 59.5 C 2.070100069046021 59.5 0.5 57.92990112304688 0.5 56 L 0.5 4 C 0.5 2.070100069046021 2.070100069046021 0.5 4 0.5 L 256 0.5 C 257.9299011230469 0.5 259.5 2.070100069046021 259.5 4 L 259.5 56 C 259.5 57.92990112304688 257.9299011230469 59.5 256 59.5 Z" stroke="none"/><path d="M 4 1 C 2.345794677734375 1 1 2.345798492431641 1 4 L 1 56 C 1 57.65420150756836 2.345794677734375 59 4 59 L 256 59 C 257.6542053222656 59 259 57.65420150756836 259 56 L 259 4 C 259 2.345798492431641 257.6542053222656 1 256 1 L 4 1 M 4 0 L 256 0 C 258.2091369628906 0 260 1.790866851806641 260 4 L 260 56 C 260 58.20913314819336 258.2091369628906 60 256 60 L 4 60 C 1.790863037109375 60 0 58.20913314819336 0 56 L 0 4 C 0 1.790866851806641 1.790863037109375 0 4 0 Z" stroke="none" fill="#438541"/></g><path d="M-56.691-11.448h4.32V-12.96h-6.156V-2.394h1.1a28.531,28.531,0,0,0,5.9-.45l-.162-1.53a23.378,23.378,0,0,1-5,.45Zm6.408,2.664h-3.2v1.512h3.2V.612h1.746V-14.526h-1.746Zm3.312-6.1V1.368h1.782V-14.886Zm15.966,0V1.422h1.872V-14.886Zm-6.786,1.206c-2.412,0-4.176,2.232-4.176,5.724,0,3.528,1.764,5.742,4.176,5.742,2.43,0,4.194-2.214,4.194-5.742C-33.6-11.448-35.361-13.68-37.791-13.68Zm0,1.674c1.422,0,2.412,1.53,2.412,4.05,0,2.556-.99,4.086-2.412,4.086-1.4,0-2.394-1.53-2.394-4.086C-40.185-10.476-39.195-12.006-37.791-12.006Zm14.418,4.59h5.022V-8.892h-5.022v-3.042h5.688v-1.53h-7.542v11.07h1.278a39.245,39.245,0,0,0,7.308-.486L-16.8-4.374a38.6,38.6,0,0,1-6.57.468Zm9.054-7.488v5.976h-3.114V-7.4h3.114V1.4h1.872V-14.9ZM-.4-11.574H2.277V-13.1H-5.067v1.53H-2.2v1.17c0,2.9-1.08,5.832-3.384,7.272l1.116,1.368A8.056,8.056,0,0,0-1.287-6.552,7.4,7.4,0,0,0,1.827-2.16l1.08-1.35C.639-4.824-.4-7.632-.4-10.4ZM3.483-9.162H1.089V-7.65H3.483V.594H5.229V-14.562H3.483Zm3.276-5.724V1.368H8.523V-14.886Zm16.884,6.48a15.392,15.392,0,0,0,.45-4.32v-1.368H12.933V-12.6h9.324a14.5,14.5,0,0,1-.432,4Zm-5.13,8.37c-2.412,0-3.888-.594-3.888-1.62,0-1.008,1.476-1.6,3.888-1.6,2.394,0,3.834.594,3.834,1.6C22.347-.63,20.907-.036,18.513-.036Zm0-4.644c-3.51,0-5.724,1.152-5.724,3.024,0,1.89,2.214,3.042,5.724,3.042,3.456,0,5.688-1.152,5.688-3.042C24.2-3.528,21.969-4.68,18.513-4.68Zm.36-2.754v-2.988H17v2.988h-5.76V-5.94H25.893V-7.434ZM37.665-7.74a5.279,5.279,0,0,1-3.96-4.932v-1.566h-1.89v1.566A5.594,5.594,0,0,1,27.8-7.452l.9,1.458a6.735,6.735,0,0,0,4.086-3.8A6.383,6.383,0,0,0,36.765-6.3Zm-5.31,4.428h7V-.288h-7Zm-1.818,4.5H41.175V-4.788H30.537ZM39.321-14.85v9.216h1.854V-14.85Zm10.26,1.116c-2.538,0-4.41,1.6-4.41,3.906s1.872,3.906,4.41,3.906,4.428-1.6,4.428-3.906S52.119-13.734,49.581-13.734Zm0,1.584a2.353,2.353,0,0,1,2.61,2.322,2.363,2.363,0,0,1-2.61,2.322,2.357,2.357,0,0,1-2.592-2.322A2.347,2.347,0,0,1,49.581-12.15Zm6.264-2.736V1.4h1.872v-16.29ZM44.649-2.034A56.58,56.58,0,0,0,55-2.754L54.873-4.1a74.311,74.311,0,0,1-10.458.54Z" transform="translate(1397.504 1005.305)" fill="#438541"/><g transform="translate(394 793.805)"><g fill="#eaedf7" stroke="#2473d8" stroke-width="1"><rect width="260" height="90" rx="4" stroke="none"/><rect x="0.5" y="0.5" width="259" height="89" rx="3.5" fill="none"/></g></g><g transform="translate(787 793.805)"><g fill="#eaedf7" stroke="#2473d8" stroke-width="1"><rect width="260" height="90" rx="4" stroke="none"/><rect x="0.5" y="0.5" width="259" height="89" rx="3.5" fill="none"/></g></g><g transform="translate(1345 1073.18)" fill="#2e4dc6" stroke="#2c4ac0" stroke-width="1"><rect width="103" height="60" rx="30" stroke="none"/><rect x="0.5" y="0.5" width="102" height="59" rx="29.5" fill="none"/></g><path d="M-1.764-9.792c-3.2-.432-5.58-2.286-5.58-4.194V-14.6H-9.252v.612c0,1.944-2.358,3.762-5.6,4.194l.684,1.44A8.133,8.133,0,0,0-8.3-11.718a8.129,8.129,0,0,0,5.85,3.366ZM-8.334-.018c-2.376,0-3.708-.522-3.708-1.494,0-.99,1.332-1.494,3.708-1.494s3.726.5,3.726,1.494C-4.608-.54-5.958-.018-8.334-.018Zm0-4.41c-3.492,0-5.6,1.044-5.6,2.916,0,1.854,2.106,2.916,5.6,2.916,3.51,0,5.6-1.062,5.6-2.916C-2.736-3.384-4.824-4.428-8.334-4.428ZM-15.66-7.236v1.494H-.954V-7.236Zm29.97-7.632H12.456V-3.06H14.31ZM3.042-9.72a2.372,2.372,0,0,1,2.5-2.466,2.381,2.381,0,0,1,2.5,2.466,2.391,2.391,0,0,1-2.5,2.466A2.382,2.382,0,0,1,3.042-9.72Zm6.8,0a4.067,4.067,0,0,0-4.3-4.068A4.082,4.082,0,0,0,1.224-9.72a4.093,4.093,0,0,0,4.32,4.068A4.077,4.077,0,0,0,9.846-9.72ZM5.562-.432V-4.248H3.69V1.08H14.778V-.432Z" transform="translate(1397 1109.323)" fill="#fff"/><path d="M14.31-14.85H12.456V-2.97H14.31ZM10.764-7A5.642,5.642,0,0,1,6.84-12.348v-1.62H4.95v1.62A5.975,5.975,0,0,1,.972-6.714L1.926-5.22a6.968,6.968,0,0,0,4-4.014A6.6,6.6,0,0,0,9.81-5.526Zm-5.2,6.57V-4.086H3.69V1.08H14.778V-.432Zm20.592-9.954v1.53h2.934V-5.04h1.854v-9.846H29.088v4.5Zm1.008,3.294c-2.484-.7-3.96-2.466-3.96-4.32v-.144h3.42v-1.476h-3.4V-14.94H21.348v1.908h-3.42v1.476h3.42v.144a5.087,5.087,0,0,1-3.906,4.734l.9,1.44a6.326,6.326,0,0,0,4-3.492A6.257,6.257,0,0,0,26.3-5.652ZM25.524-.054c-2.3,0-3.618-.576-3.618-1.6S23.22-3.24,25.524-3.24c2.322,0,3.636.558,3.636,1.584S27.846-.054,25.524-.054Zm0-4.626c-3.4,0-5.472,1.116-5.472,3.024s2.07,3.042,5.472,3.042,5.49-1.134,5.49-3.042S28.926-4.68,25.524-4.68Zm18.45-8.874H42.1v2.682c0,3.042-1.584,6.174-4.122,7.416L39.15-1.98a8.4,8.4,0,0,0,3.906-5.148A8.012,8.012,0,0,0,46.908-2.25l1.1-1.494c-2.484-1.152-4.032-4.1-4.032-7.128Zm5.742-1.35v5.346H46.242v1.512h3.474V1.4h1.872V-14.9Zm16.02,3.636H56.412V-6.7H67.986V-8.19h-9.7V-9.882h9.342V-14.31H56.376v1.494h9.36Zm3.636,6.012H54.63v1.494h3.636V1.4H60.12V-3.762h3.762V1.4h1.854V-3.762H69.39ZM76.23-13.9v1.512h5.382c-.324,2.5-2.52,4.464-6.246,5.472l.756,1.476c4.7-1.332,7.488-4.248,7.488-8.46ZM79.956-3.528H86.9V-.306H79.956ZM78.138,1.188H88.722V-5H78.138Zm8.73-16.074v4.05H83.646v1.53h3.222V-5.67h1.854v-9.216ZM100.1-2.052v-3.06H104.9V-6.588H95.526V-8.712H104.4V-10.17H95.526v-1.962h9.234v-1.512H93.636v8.532h4.59v3.06H91.818v1.53h14.724v-1.53Z" transform="translate(862.5 845.805)" fill="#2e4dc6"/><g transform="translate(1267 793.805)" fill="#eaedf7" stroke="#2473d8" stroke-width="1"><rect width="260" height="90" rx="4" stroke="none"/><rect x="0.5" y="0.5" width="259" height="89" rx="3.5" fill="none"/></g><path d="M-33.165-14.85h-1.854V-2.97h1.854ZM-36.711-7a5.642,5.642,0,0,1-3.924-5.346v-1.62h-1.89v1.62A5.975,5.975,0,0,1-46.5-6.714l.954,1.494a6.968,6.968,0,0,0,4-4.014,6.6,6.6,0,0,0,3.888,3.708Zm-5.2,6.57V-4.086h-1.872V1.08H-32.7V-.432Zm20.592-9.954v1.53h2.934V-5.04h1.854v-9.846h-1.854v4.5Zm1.008,3.294c-2.484-.7-3.96-2.466-3.96-4.32v-.144h3.42v-1.476h-3.4V-14.94h-1.872v1.908h-3.42v1.476h3.42v.144a5.087,5.087,0,0,1-3.906,4.734l.9,1.44a6.326,6.326,0,0,0,4-3.492,6.257,6.257,0,0,0,3.96,3.078ZM-21.951-.054c-2.3,0-3.618-.576-3.618-1.6s1.314-1.584,3.618-1.584c2.322,0,3.636.558,3.636,1.584S-19.629-.054-21.951-.054Zm0-4.626c-3.4,0-5.472,1.116-5.472,3.024s2.07,3.042,5.472,3.042,5.49-1.134,5.49-3.042S-18.549-4.68-21.951-4.68ZM-3.5-13.554H-5.373v2.682c0,3.042-1.584,6.174-4.122,7.416l1.17,1.476A8.4,8.4,0,0,0-4.419-7.128,8.012,8.012,0,0,0-.567-2.25l1.1-1.494C-1.953-4.9-3.5-7.848-3.5-10.872ZM2.241-14.9v5.346H-1.233v1.512H2.241V1.4H4.113V-14.9Zm16.02,3.636H8.937V-6.7H20.511V-8.19h-9.7V-9.882h9.342V-14.31H8.9v1.494h9.36ZM21.9-5.256H7.155v1.494h3.636V1.4h1.854V-3.762h3.762V1.4h1.854V-3.762h3.654Zm19.278-9.63H39.3V-5.6h1.872Zm-6.66,6.3H30.429v-3.8h4.086Zm1.8-5.274h-7.7v6.75h7.7ZM41.481-3.168V-4.59H36.819V-6.048h-1.89V-4.59H30.267v1.422h4.662c-.144,1.386-2.25,2.808-5.292,3.114l.612,1.4C32.841,1.044,34.893.018,35.883-1.4a7.884,7.884,0,0,0,5.58,2.754l.612-1.4c-3.006-.324-5.094-1.782-5.238-3.114Zm-89.892,15.72h4.32V11.04h-6.156V21.606h1.1a28.531,28.531,0,0,0,5.9-.45l-.162-1.53a23.378,23.378,0,0,1-5,.45ZM-42,15.216h-3.2v1.512H-42v7.884h1.746V9.474H-42Zm3.312-6.1V25.368h1.782V9.114Zm15.966,0V25.422h1.872V9.114Zm-6.786,1.206c-2.412,0-4.176,2.232-4.176,5.724,0,3.528,1.764,5.742,4.176,5.742,2.43,0,4.194-2.214,4.194-5.742C-25.317,12.552-27.081,10.32-29.511,10.32Zm0,1.674c1.422,0,2.412,1.53,2.412,4.05,0,2.556-.99,4.086-2.412,4.086-1.4,0-2.394-1.53-2.394-4.086C-31.9,13.524-30.915,11.994-29.511,11.994Zm14.418,4.59h5.022V15.108h-5.022V12.066H-9.4v-1.53h-7.542v11.07h1.278a39.245,39.245,0,0,0,7.308-.486l-.162-1.494a38.6,38.6,0,0,1-6.57.468ZM-6.039,9.1v5.976H-9.153V16.6h3.114v8.8h1.872V9.1Zm18.684.018H10.881v11.07h1.764ZM7.7,18.69H9.441V9.456H7.7v3.2H5.409v1.512H7.7Zm-.828-1.962A4.992,4.992,0,0,1,3.843,12.12v-2h-1.8v2a5.494,5.494,0,0,1-3.258,4.9l1.008,1.4a6.075,6.075,0,0,0,3.15-3.366,5.765,5.765,0,0,0,2.916,3.1ZM8.2,19.392H6.345v.432c0,1.908-2.232,3.636-5.382,4.068l.684,1.422a7.794,7.794,0,0,0,5.616-3.168,7.754,7.754,0,0,0,5.6,3.168l.684-1.422C10.4,23.46,8.2,21.732,8.2,19.824ZM29.061,10.5h-3.69V8.988H23.5V10.5H19.773v1.35h9.288Zm-6.768,4.284c0-.738.828-1.188,2.124-1.188s2.124.45,2.124,1.188c0,.72-.828,1.152-2.124,1.152S22.293,15.5,22.293,14.784Zm7.218,2.988c-1.314.2-2.736.288-4.14.36V17.124c1.8-.216,2.916-1.062,2.916-2.34,0-1.512-1.53-2.43-3.87-2.43s-3.87.918-3.87,2.43c0,1.278,1.116,2.142,2.952,2.34V18.2c-1.494.036-2.916.036-4.14.036l.216,1.476a61.284,61.284,0,0,0,10.08-.648Zm-8.136,4.554h9V25.4h1.854V20.85H21.375Zm13.086-8.388H32.229V9.15H30.375V20.13h1.854V15.468h2.232ZM49.455,9.132H47.6V20.94h1.854ZM38.187,14.28a2.5,2.5,0,0,1,5,0,2.5,2.5,0,0,1-5,0Zm6.8,0a4.067,4.067,0,0,0-4.3-4.068,4.075,4.075,0,1,0,0,8.136A4.077,4.077,0,0,0,44.991,14.28Zm-4.284,9.288V19.752H38.835V25.08H49.923V23.568Z" transform="translate(1397 834.305)" fill="#2e4dc6"/><path d="M14.31-14.85H12.456V-2.97H14.31ZM10.764-7A5.642,5.642,0,0,1,6.84-12.348v-1.62H4.95v1.62A5.975,5.975,0,0,1,.972-6.714L1.926-5.22a6.968,6.968,0,0,0,4-4.014A6.6,6.6,0,0,0,9.81-5.526Zm-5.2,6.57V-4.086H3.69V1.08H14.778V-.432Zm20.592-9.954v1.53h2.934V-5.04h1.854v-9.846H29.088v4.5Zm1.008,3.294c-2.484-.7-3.96-2.466-3.96-4.32v-.144h3.42v-1.476h-3.4V-14.94H21.348v1.908h-3.42v1.476h3.42v.144a5.087,5.087,0,0,1-3.906,4.734l.9,1.44a6.326,6.326,0,0,0,4-3.492A6.257,6.257,0,0,0,26.3-5.652ZM25.524-.054c-2.3,0-3.618-.576-3.618-1.6S23.22-3.24,25.524-3.24c2.322,0,3.636.558,3.636,1.584S27.846-.054,25.524-.054Zm0-4.626c-3.4,0-5.472,1.116-5.472,3.024s2.07,3.042,5.472,3.042,5.49-1.134,5.49-3.042S28.926-4.68,25.524-4.68Zm18.45-8.874H42.1v2.682c0,3.042-1.584,6.174-4.122,7.416L39.15-1.98a8.4,8.4,0,0,0,3.906-5.148A8.012,8.012,0,0,0,46.908-2.25l1.1-1.494c-2.484-1.152-4.032-4.1-4.032-7.128Zm5.742-1.35v5.346H46.242v1.512h3.474V1.4h1.872V-14.9Zm16.02,3.636H56.412V-6.7H67.986V-8.19h-9.7V-9.882h9.342V-14.31H56.376v1.494h9.36Zm3.636,6.012H54.63v1.494h3.636V1.4H60.12V-3.762h3.762V1.4h1.854V-3.762H69.39Zm15.444-1.89a5.244,5.244,0,0,1-3.852-4.878v-.288h3.4v-1.512h-8.73v1.512h3.456v.288a5.475,5.475,0,0,1-4,5.166L76.068-5.4a6.556,6.556,0,0,0,3.978-3.708,6.231,6.231,0,0,0,3.816,3.384ZM77.256-2.79h8.838V1.386h1.854v-5.67H77.256Zm13-7.938h-2.3v-4.158H86.094v9.81h1.854V-9.2h2.3Zm13.176,5.436h1.854v-9.594h-1.854v3.258h-3.294v1.512h3.294ZM101.466-7.4a5.286,5.286,0,0,1-3.816-5.094V-14H95.778v1.6a5.688,5.688,0,0,1-4.032,5.454l.972,1.494a6.722,6.722,0,0,0,4.05-3.924,6.31,6.31,0,0,0,3.708,3.438Zm-1.6,7.326c-2.3,0-3.618-.594-3.618-1.656s1.314-1.656,3.618-1.656,3.636.594,3.636,1.656S102.168-.072,99.864-.072Zm0-4.77c-3.384,0-5.472,1.152-5.472,3.114s2.088,3.114,5.472,3.114c3.4,0,5.49-1.152,5.49-3.114S103.266-4.842,99.864-4.842ZM125.82-14.886h-1.872V-5.6h1.872Zm-6.66,6.3h-4.086v-3.8h4.086Zm1.8-5.274h-7.7v6.75h7.7Zm5.166,10.692V-4.59h-4.662V-6.048h-1.89V-4.59h-4.662v1.422h4.662c-.144,1.386-2.25,2.808-5.292,3.114l.612,1.4c2.592-.306,4.644-1.332,5.634-2.754a7.884,7.884,0,0,0,5.58,2.754l.612-1.4c-3.006-.324-5.094-1.782-5.238-3.114Zm11.844-8.406h2.682V-13.1h-7.344v1.53h2.862v1.17c0,2.9-1.08,5.832-3.384,7.272L133.9-1.764a8.056,8.056,0,0,0,3.186-4.788A7.4,7.4,0,0,0,140.2-2.16l1.08-1.35c-2.268-1.314-3.312-4.122-3.312-6.894Zm3.888,2.412h-2.394V-7.65h2.394V.594H143.6V-14.562h-1.746Zm3.276-5.724V1.368H146.9V-14.886Zm5.688,6.5c2.88-.2,5.076-.99,6.1-2.358,1.026,1.368,3.258,2.16,6.138,2.358l.5-1.386c-3.168-.18-5.184-1.08-5.544-2.358h4.806v-1.386H157.86V-14.94h-1.854v1.422h-4.95v1.386h4.788c-.36,1.278-2.358,2.178-5.562,2.358Zm13.464,1.98V-7.794h-14.67v1.386h6.39v1.26h-4.68V-3.78h9.306v1.134h-9.27V1.242h11.556V-.144H153.2V-1.368h9.252v-3.78h-4.59v-1.26Z" transform="translate(441.5 836.805)" fill="#2e4dc6"/><path d="M1.274,0H3.346V-10.374H1.274Zm4.62,0H7.966V-3.92H9.408L11.536,0h2.31L11.424-4.242A2.966,2.966,0,0,0,13.4-7.224c0-2.38-1.722-3.15-3.892-3.15H5.894ZM7.966-5.558V-8.722H9.31c1.33,0,2.072.378,2.072,1.5S10.64-5.558,9.31-5.558ZM15.442,0h3.7c2.282,0,4.018-.966,4.018-3.052A2.356,2.356,0,0,0,21.21-5.5v-.07a2.35,2.35,0,0,0,1.414-2.24c0-1.932-1.624-2.562-3.752-2.562h-3.43Zm2.072-6.146V-8.778h1.232c1.246,0,1.862.364,1.862,1.274,0,.826-.574,1.358-1.89,1.358Zm0,4.55V-4.62h1.442c1.428,0,2.184.434,2.184,1.442,0,1.078-.77,1.582-2.184,1.582ZM38.556-7.9c-2.884-.364-4.3-1.848-4.3-3.192v-.378h-1.9v.378c0,1.358-1.414,2.828-4.3,3.192l.672,1.442a6.331,6.331,0,0,0,4.578-2.492A6.363,6.363,0,0,0,37.9-6.454ZM33.278-.168c-1.722,0-2.6-.294-2.6-.952s.882-.952,2.6-.952,2.6.294,2.6.952S35-.168,33.278-.168Zm0-3.29c-2.786,0-4.466.84-4.466,2.338s1.68,2.338,4.466,2.338,4.48-.84,4.48-2.338S36.064-3.458,33.278-3.458Zm-5.8-2.31v1.456H39.13V-5.768Zm23.59-5.908H49.21v9.254h1.862ZM42.35-7.588a1.609,1.609,0,0,1,1.708-1.68,1.59,1.59,0,0,1,1.694,1.68,1.594,1.594,0,0,1-1.694,1.666A1.613,1.613,0,0,1,42.35-7.588Zm5.208,0a3.31,3.31,0,0,0-3.5-3.276,3.322,3.322,0,0,0-3.514,3.276,3.328,3.328,0,0,0,3.514,3.262A3.315,3.315,0,0,0,47.558-7.588Zm-3.22,7.1V-3.332H42.49V.98h8.9V-.49ZM61.264-10.7H59.4v1.862c0,2.45-.98,4.956-3.164,5.964l1.148,1.484A6.206,6.206,0,0,0,60.354-5.11a5.791,5.791,0,0,0,2.884,3.5L64.33-3.08C62.2-4.032,61.264-6.4,61.264-8.834Zm4.13-1.008v4.046H62.916v1.484h2.478V1.232h1.848V-11.7ZM77.756-8.89h-7.1v3.85H79.94V-6.51H72.548V-7.532h7.084V-11.3H70.644v1.47h7.112Zm3.22,4.76H69.3v1.47h2.688V1.218H73.85V-2.66h2.59V1.218H78.3V-2.66h2.674Zm1.778,7.112A3.516,3.516,0,0,0,85.4-.462c0-1.274-.532-2.03-1.484-2.03a1.238,1.238,0,0,0-1.33,1.218A1.209,1.209,0,0,0,83.874-.056H84c.014.784-.588,1.512-1.68,1.918Zm9.072-10.57A1.6,1.6,0,0,1,93.464-9.31a1.6,1.6,0,0,1,1.652,1.722,1.6,1.6,0,0,1-1.652,1.736A1.6,1.6,0,0,1,91.826-7.588Zm7.014-.84v1.666H96.768a3.18,3.18,0,0,0,.1-.826,4.059,4.059,0,0,0-.1-.84Zm0,3.136v3.038h1.848V-11.69H98.84V-9.9H95.97a3.439,3.439,0,0,0-2.506-1.022,3.292,3.292,0,0,0-3.388,3.332,3.3,3.3,0,0,0,3.388,3.346A3.471,3.471,0,0,0,96-5.292Zm-4.8,4.8V-3.178H92.19V.98h8.792V-.49ZM114.45-5.46h-1.694a22.481,22.481,0,0,0,.322-4.326v-1.162h-8.946v1.484h7.14a19.46,19.46,0,0,1-.35,4H102.8v1.484h4.816V1.2h1.876v-5.18h4.956Zm8.218-3.122v1.5H124.6v3.066h1.848V-11.69H124.6v3.108Zm.77,2.772a3.954,3.954,0,0,1-2.912-3.626h2.506V-10.92H116.1v1.484h2.534A4.294,4.294,0,0,1,115.6-5.474l.938,1.456a5.035,5.035,0,0,0,3.08-2.856,4.873,4.873,0,0,0,2.926,2.506ZM122.094-.182c-1.694,0-2.576-.35-2.576-1.078s.882-1.078,2.576-1.078,2.562.35,2.562,1.078S123.774-.182,122.094-.182Zm0-3.556c-2.744,0-4.424.91-4.424,2.478s1.68,2.478,4.424,2.478,4.41-.91,4.41-2.478S124.824-3.738,122.094-3.738Zm9.52-3.7h5.516v1.806h-5.516ZM135.3-1.792V-4.158h3.654v-6.734h-1.82v2h-5.516v-2H129.78v6.734h3.668v2.366h-4.9v1.5h11.676v-1.5Zm19.656-6.356h-7.084V-9.87h7.014v-1.47h-8.848v4.648h8.918ZM150.4-.2c-1.722,0-2.6-.294-2.6-.966s.882-.98,2.6-.98,2.6.308,2.6.98S152.124-.2,150.4-.2Zm0-3.346c-2.786,0-4.466.854-4.466,2.38S147.616,1.2,150.4,1.2s4.48-.854,4.48-2.366S153.188-3.542,150.4-3.542ZM144.62-5.8v1.512h11.662V-5.8Z" transform="translate(442.5 856.805)" fill="#2e4dc6"/><g transform="translate(-93.386 -697.694)"><path d="M1030.547,6715.72H1289.1" transform="translate(-418.993 -4824)" fill="none" stroke="#2473d8" stroke-width="1.4"/><path d="M1102.212,6709.875l5.983,5.983-5.983,5.983" transform="translate(-238 -4824)" fill="none" stroke="#2473d8" stroke-width="1.4"/></g><g transform="translate(-93.337 -1053.07)"><path d="M1030.547,6715.72h122.936" transform="translate(-283.375 -4824)" fill="none" stroke="#2473d8" stroke-width="1.4"/><path d="M1102.212,6709.875l5.983,5.983-5.983,5.983" transform="translate(-238 -4824)" fill="none" stroke="#2473d8" stroke-width="1.4"/></g><g transform="translate(671 934.821)"><path d="M1146.337,6715.72h-115.79" transform="translate(-1030.46 -6709.875)" fill="none" stroke="#4d4d4d" stroke-width="1" stroke-dasharray="4 4"/><path d="M1108.2,6709.875l-5.983,5.983,5.983,5.983" transform="translate(-1102.212 -6709.875)" fill="none" stroke="#4d4d4d" stroke-width="1"/></g><g transform="translate(1057.5 934.821)"><path d="M1085.995,6715.72h-55.448" transform="translate(-1030.46 -6709.875)" fill="none" stroke="#4d4d4d" stroke-width="1" stroke-dasharray="4 4"/><path d="M1108.2,6709.875l-5.983,5.983,5.983,5.983" transform="translate(-1102.212 -6709.875)" fill="none" stroke="#4d4d4d" stroke-width="1"/></g><g transform="translate(-1373.341 2020.193) rotate(-90)"><path d="M1030.547,6715.72h44.6" transform="translate(-205.043 -4824)" fill="none" stroke="#2473d8" stroke-width="1.4"/><path d="M1102.212,6709.875l5.983,5.983-5.983,5.983" transform="translate(-238 -4824)" fill="none" stroke="#2473d8" stroke-width="1.4"/></g><g transform="translate(671 1097.197)"><path d="M1462.582,6715.72H1030.547" transform="translate(-1030.459 -6709.875)" fill="none" stroke="#979797" stroke-width="1.4"/><path d="M1108.2,6709.875l-5.983,5.983,5.983,5.983" transform="translate(-1102.212 -6709.875)" fill="none" stroke="#979797" stroke-width="1.4"/></g><g transform="translate(903.26 1097.197)"><path d="M1132.7,6715.72h-102.15" transform="translate(-709.329 -6709.875)" fill="none" stroke="#2473d8" stroke-width="1.4"/></g><g transform="translate(3288.72 235.258) rotate(90)"><path d="M1030.547,6715.72h36.979" transform="translate(-238 -4824)" fill="none" stroke="#438541" stroke-width="1.4"/></g><g transform="translate(3288.841 76.589) rotate(90)"><path d="M1030.547,6715.72h62.892" transform="translate(-223.331 -4824)" fill="none" stroke="#2752c3" stroke-width="1.4"/><path d="M1102.212,6709.875l5.983,5.983-5.983,5.983" transform="translate(-238 -4824)" fill="none" stroke="#2752c3" stroke-width="1.4"/></g><g transform="translate(34.969 -355.679)"><g transform="translate(1135.942 1336.632) rotate(90)"><path d="M1108.2,6709.875l-5.983,5.983,5.983,5.983" transform="translate(-1103.212 -6709.875)" fill="none" stroke="#4d4d4d" stroke-width="1"/></g><path d="M1487.159,6882h-102.2v-19.528" transform="translate(-255 -5525.839)" fill="none" stroke="#4d4d4d" stroke-width="1" stroke-dasharray="4 4"/></g><path d="M14.31-14.85H12.456V-2.97H14.31ZM10.764-7A5.642,5.642,0,0,1,6.84-12.348v-1.62H4.95v1.62A5.975,5.975,0,0,1,.972-6.714L1.926-5.22a6.968,6.968,0,0,0,4-4.014A6.6,6.6,0,0,0,9.81-5.526Zm-5.2,6.57V-4.086H3.69V1.08H14.778V-.432Zm20.592-9.954v1.53h2.934V-5.04h1.854v-9.846H29.088v4.5Zm1.008,3.294c-2.484-.7-3.96-2.466-3.96-4.32v-.144h3.42v-1.476h-3.4V-14.94H21.348v1.908h-3.42v1.476h3.42v.144a5.087,5.087,0,0,1-3.906,4.734l.9,1.44a6.326,6.326,0,0,0,4-3.492A6.257,6.257,0,0,0,26.3-5.652ZM25.524-.054c-2.3,0-3.618-.576-3.618-1.6S23.22-3.24,25.524-3.24c2.322,0,3.636.558,3.636,1.584S27.846-.054,25.524-.054Zm0-4.626c-3.4,0-5.472,1.116-5.472,3.024s2.07,3.042,5.472,3.042,5.49-1.134,5.49-3.042S28.926-4.68,25.524-4.68ZM47.43-14.868H45.576V-3.06H47.43ZM36.162-9.72a2.372,2.372,0,0,1,2.5-2.466,2.381,2.381,0,0,1,2.5,2.466,2.391,2.391,0,0,1-2.5,2.466A2.382,2.382,0,0,1,36.162-9.72Zm6.8,0a4.067,4.067,0,0,0-4.3-4.068,4.082,4.082,0,0,0-4.32,4.068,4.093,4.093,0,0,0,4.32,4.068A4.077,4.077,0,0,0,42.966-9.72ZM38.682-.432V-4.248H36.81V1.08H47.9V-.432Z" transform="translate(499 728.817)" fill="#fff"/><path d="M-131.643-13.014h-3.87v-1.854h-1.854v1.854h-3.87v1.476h9.594Zm-6.966,5.31c0-1.026.882-1.638,2.16-1.638,1.3,0,2.178.612,2.178,1.638s-.882,1.638-2.178,1.638C-137.727-6.066-138.609-6.678-138.609-7.7Zm6.1,0c0-1.836-1.6-3.078-3.942-3.078-2.322,0-3.942,1.242-3.942,3.078,0,1.854,1.62,3.078,3.942,3.078C-134.109-4.626-132.507-5.85-132.507-7.7Zm-4.482,4.086h-1.872v4.7h10.944V-.432h-9.072Zm8.424-6.066v-5.184h-1.854V-2.682h1.854V-8.154h2.3v-1.53Zm18.594,2.772V-8.406h-2.2a21.649,21.649,0,0,0,.36-4.482V-14.13h-11.052v1.494h9.234a19.575,19.575,0,0,1-.4,4.23H-124.7v1.494h6.408v2.664H-123.2v1.494h9.612v4.14h1.854V-4.248h-4.68V-6.912Zm5.328-2.646h7.7v2.664h-7.7Zm4.77,7.434V-5.4h4.77v-8.388h-1.836v2.736h-7.7v-2.736h-1.836V-5.4h4.752v3.276h-6.408v1.53h14.724v-1.53Zm16.7-7.866v1.53h3.2V-2.9h1.854v-11.97h-1.854V-9.99Zm-7.362-3.636v1.512h5.454c-.342,2.664-2.718,4.824-6.3,5.994l.81,1.476c4.626-1.512,7.488-4.7,7.488-8.982ZM-86.679-.432V-4.1h-1.854V1.08H-77.7V-.432Zm16.9-13.3c-2.538,0-4.41,1.6-4.41,3.906s1.872,3.906,4.41,3.906,4.428-1.6,4.428-3.906S-67.239-13.734-69.777-13.734Zm0,1.584a2.353,2.353,0,0,1,2.61,2.322,2.363,2.363,0,0,1-2.61,2.322,2.357,2.357,0,0,1-2.592-2.322A2.347,2.347,0,0,1-69.777-12.15Zm6.264-2.736V1.4h1.872v-16.29Zm-11.2,12.852a56.58,56.58,0,0,0,10.35-.72l-.126-1.35a74.311,74.311,0,0,1-10.458.54ZM-52.677-4.86h3.33v2.808h-3.33Zm5.166,2.808V-4.86h2.394V-6.354h-9.738V-8.6h9.378v-5.13H-56.709v1.494h9.4v2.16h-9.36v5.22h2.16v2.808h-3.942v1.53h14.724v-1.53Zm14.346-8.73V-9.27h2.88v4.086h1.854v-9.684h-1.854v4.086Zm.936,3.618a5.331,5.331,0,0,1-3.816-4.9v-.216h3.384V-13.77h-8.694v1.494h3.438v.234A5.707,5.707,0,0,1-41.9-6.75l.954,1.476A6.727,6.727,0,0,0-36.927-9.18a6.349,6.349,0,0,0,3.78,3.474Zm-1.6,7.128c-2.322,0-3.636-.576-3.636-1.638s1.314-1.638,3.636-1.638c2.286,0,3.618.576,3.618,1.638S-31.545-.036-33.831-.036Zm0-4.716c-3.4,0-5.49,1.152-5.49,3.078,0,1.944,2.088,3.078,5.49,3.078,3.384,0,5.472-1.134,5.472-3.078C-28.359-3.6-30.447-4.752-33.831-4.752Zm11.988-4.806h7.7v2.664h-7.7Zm4.77,7.434V-5.4h4.77v-8.388h-1.836v2.736h-7.7v-2.736h-1.836V-5.4h4.752v3.276h-6.408v1.53h14.724v-1.53Zm16.722-3.2v1.3H2.835V-2.52H4.689V-14.886H2.835v9.558Zm-3.24-7.56c1.332,0,2.25.576,2.25,1.494S-2.259-9.9-3.591-9.9c-1.35,0-2.268-.576-2.268-1.494S-4.941-12.888-3.591-12.888Zm0,4.356c2.376,0,4.014-1.134,4.014-2.862s-1.638-2.862-4.014-2.862c-2.394,0-4.032,1.134-4.032,2.862S-5.985-8.532-3.591-8.532Zm-.738,5.49h1.854V-6.174A40.59,40.59,0,0,0,1.7-6.642L1.557-7.974a92.393,92.393,0,0,1-10.422.486l.234,1.512c1.3,0,2.754-.018,4.3-.09Zm-.486,2.61V-3.726H-6.669V1.08H5.067V-.432Zm20,4.014,1.3-.576a16.807,16.807,0,0,1-2.268-8.64,16.9,16.9,0,0,1,2.268-8.64l-1.3-.558a16.962,16.962,0,0,0-2.664,9.2A16.978,16.978,0,0,0,15.183,3.582ZM19.053,0h2.088V-4l2.034-2.5L26.919,0h2.322L24.453-8.136l4.1-5.13H26.235l-5.04,6.282h-.054v-6.282H19.053Zm10.3-4.32H34.1V-5.85H29.349ZM41.841.234a5.231,5.231,0,0,0,4.122-1.908L44.847-2.988a3.832,3.832,0,0,1-2.934,1.4c-2.34,0-3.816-1.926-3.816-5.076,0-3.114,1.584-5.022,3.87-5.022a3.524,3.524,0,0,1,2.592,1.188l1.134-1.332A5.105,5.105,0,0,0,41.931-13.5c-3.348,0-5.976,2.592-5.976,6.912C35.955-2.25,38.511.234,41.841.234Zm11.016,0c2.934,0,4.914-1.6,4.914-5.922v-7.578H55.755v7.722c0,2.988-1.224,3.96-2.9,3.96-1.656,0-2.844-.972-2.844-3.96v-7.722H47.925v7.578C47.925-1.368,49.923.234,52.857.234ZM61.191,0h2.088V-5.346h2.142L68.427,0h2.358l-3.24-5.616a3.688,3.688,0,0,0,2.772-3.8c0-2.862-2.052-3.852-4.788-3.852H61.191Zm2.088-7.02v-4.554h2c1.926,0,2.97.558,2.97,2.16S67.2-7.02,65.277-7.02ZM73,0h8.028V-1.764h-5.94V-6.048h4.86V-7.812h-4.86V-11.5h5.742v-1.764H73Zm19.71-13.518H90.855v2.664c0,3.006-1.584,6.084-4.122,7.326l1.134,1.494a8.4,8.4,0,0,0,3.924-5.094A8.1,8.1,0,0,0,95.535-2.34l1.134-1.476a7.888,7.888,0,0,1-3.96-7.038Zm9.432,5.094H99.6v-6.444H97.749V1.386H99.6v-8.28h2.538Zm12.492-.648H107.2v-3.456h7.434ZM116.469-14H105.363v6.426h11.106ZM118.3-5.58H103.563v1.494h6.39V1.386h1.854V-4.086h6.5Zm16.56-1.332V-8.406h-2.2a21.649,21.649,0,0,0,.36-4.482V-14.13H121.977v1.494h9.234a19.575,19.575,0,0,1-.4,4.23H120.141v1.494h6.408v2.664h-4.914v1.494h9.612v4.14H133.1V-4.248h-4.68V-6.912Zm3.042,10.494a16.839,16.839,0,0,0,2.682-9.216,16.823,16.823,0,0,0-2.682-9.2l-1.3.558a16.9,16.9,0,0,1,2.268,8.64,16.807,16.807,0,0,1-2.268,8.64Z" transform="translate(917 728.817)" fill="#fff"/><path d="M8,0H319a8,8,0,0,1,8,8V70H0V8A8,8,0,0,1,8,0Z" transform="translate(1233 686.317)" fill="#2e4dc6"/><path d="M-92.133-6.912V-8.406h-2.2a21.649,21.649,0,0,0,.36-4.482V-14.13h-11.052v1.494h9.234a19.575,19.575,0,0,1-.4,4.23h-10.674v1.494h6.408v2.664h-4.914v1.494h9.612v4.14H-93.9V-4.248h-4.68V-6.912ZM-80.451-8.19a40.719,40.719,0,0,1-7.182.486V-9.5h5.562v-4.608H-89.5V-12.6h5.616v1.692h-5.58v4.716H-88.1a46.218,46.218,0,0,0,7.866-.486Zm1.71,7.884h-6.966V-2h6.966Zm0-3.15h-6.966V-5.13h-1.854V1.188H-76.9V-5.13h-1.836Zm-.018-11.412v8.982H-76.9v-8.982Zm7.038,4.788a2.3,2.3,0,0,1,2.5-2.3,2.312,2.312,0,0,1,2.52,2.3,2.309,2.309,0,0,1-2.52,2.34A2.294,2.294,0,0,1-71.721-10.08Zm6.84,0c0-2.268-1.854-3.852-4.338-3.852-2.466,0-4.32,1.584-4.32,3.852,0,2.3,1.854,3.906,4.32,3.906C-66.735-6.174-64.881-7.776-64.881-10.08ZM-69.6-3.312h6.732V-.288H-69.6Zm-1.836,4.5h10.386V-4.788H-71.433Zm12.69-12.258h-2.3v-3.8H-62.9v9.324h1.854v-4h2.3Zm15.318-3.8h-1.764V-2.682h1.764ZM-48.375-3.15h1.746V-14.562h-1.746v3.618h-2.286v1.53h2.286Zm-.846-3.582a5.152,5.152,0,0,1-3.006-4.752v-2.268h-1.8v2.268a5.793,5.793,0,0,1-3.24,5.166l1.026,1.4a6.289,6.289,0,0,0,3.132-3.528,5.616,5.616,0,0,0,2.88,3.114ZM-52.3-.432v-3.69h-1.872v5.2h11.2V-.432Zm14.256-6.984h5.022V-8.892h-5.022v-3.042h5.688v-1.53H-39.9v11.07h1.278a39.245,39.245,0,0,0,7.308-.486l-.162-1.494a38.6,38.6,0,0,1-6.57.468Zm9.054-7.488v5.976H-32.1V-7.4h3.114V1.4h1.872V-14.9Zm12.33,18.486,1.3-.576a16.807,16.807,0,0,1-2.268-8.64,16.9,16.9,0,0,1,2.268-8.64l-1.3-.558a16.962,16.962,0,0,0-2.664,9.2A16.978,16.978,0,0,0-16.659,3.582ZM-12.231-8.19c2.844-.306,5.076-1.476,5.958-3.15.864,1.674,3.1,2.844,5.958,3.15L.333-9.648c-3.006-.306-5.094-1.566-5.346-3.024H-.261v-1.494H-12.267v1.494h4.716C-7.8-11.214-9.891-9.954-12.9-9.648Zm9.648,6.7c0,.936-1.35,1.458-3.726,1.458s-3.708-.522-3.708-1.458c0-.972,1.332-1.476,3.708-1.476S-2.583-2.466-2.583-1.494ZM1.071-5.886V-7.362H-13.635v1.476h6.426v1.494c-2.952.18-4.7,1.206-4.7,2.9,0,1.836,2.106,2.88,5.6,2.88,3.51,0,5.6-1.044,5.6-2.88,0-1.692-1.71-2.7-4.644-2.88V-5.886Zm3.888-4.176a2.31,2.31,0,0,1,2.5-2.322,2.315,2.315,0,0,1,2.52,2.322A2.305,2.305,0,0,1,7.461-7.74,2.3,2.3,0,0,1,4.959-10.062Zm6.84,0c0-2.286-1.854-3.87-4.338-3.87-2.466,0-4.32,1.584-4.32,3.87S5-6.174,7.461-6.174C9.945-6.174,11.8-7.776,11.8-10.062ZM10.4-.09c-2.268,0-3.582-.576-3.582-1.638,0-1.08,1.314-1.656,3.582-1.656s3.582.576,3.582,1.656C13.977-.666,12.663-.09,10.4-.09Zm0-4.77c-3.33,0-5.418,1.17-5.418,3.132,0,1.944,2.088,3.114,5.418,3.114,3.348,0,5.418-1.17,5.418-3.114C15.813-3.69,13.743-4.86,10.4-4.86Zm5.238-6.12v-3.888H13.779V-5.31h1.854V-9.45h2.3v-1.53Zm5.886.9a2.3,2.3,0,0,1,2.5-2.3,2.312,2.312,0,0,1,2.52,2.3,2.309,2.309,0,0,1-2.52,2.34A2.294,2.294,0,0,1,21.519-10.08Zm6.84,0c0-2.268-1.854-3.852-4.338-3.852-2.466,0-4.32,1.584-4.32,3.852,0,2.3,1.854,3.906,4.32,3.906C26.5-6.174,28.359-7.776,28.359-10.08ZM23.643-3.312h6.732V-.288H23.643Zm-1.836,4.5H32.193V-4.788H21.807ZM34.5-11.07h-2.3v-3.8H30.339v9.324h1.854v-4h2.3Zm14.58.954H39.735v-2.7h9.234V-14.31H37.9v5.688H49.077ZM43.371-.054c-2.376,0-3.708-.522-3.708-1.53,0-.99,1.332-1.53,3.708-1.53s3.726.54,3.726,1.53C47.1-.576,45.747-.054,43.371-.054Zm0-4.482c-3.474,0-5.6,1.08-5.6,2.952,0,1.89,2.124,2.97,5.6,2.97,3.492,0,5.6-1.08,5.6-2.97C48.969-3.456,46.863-4.536,43.371-4.536Zm-7.29-2.736v1.53H50.769v-1.53Zm18.18,5.328h9.468V1.3h1.854V-3.438H54.261ZM60.9-6.03V-7.506h4.914V-8.928h-9.5v-1.44h9.18V-14.49H54.459v1.422h9.2V-11.7H54.5v4.194h4.554V-6.03H52.605v1.494H67.347V-6.03ZM72.891-3.474H71.019V1.08H82.233V-.432H72.891Zm.018-7.488h7.236v1.8H72.909ZM77.445-6.12V-7.686h4.536v-6.552H80.145V-12.4H72.909v-1.836H71.073v6.552h4.5V-6.12H69.147v1.494H83.889V-6.12Zm19.35-2.5H89.361v-2.07h7.434Zm1.854-5.616H96.795v2.052H89.361v-2.052H87.507v7.11H98.649Zm1.818,8.874H85.725V-3.87h6.39V1.4h1.854V-3.87h6.5Zm3.042,8.946a16.839,16.839,0,0,0,2.682-9.216,16.823,16.823,0,0,0-2.682-9.2l-1.3.558a16.9,16.9,0,0,1,2.268,8.64,16.807,16.807,0,0,1-2.268,8.64Z" transform="translate(1397 728.817)" fill="#fff"/><path d="M1102.212,6709.875l5.983,5.983-5.983,5.983" transform="translate(8112.841 -43.411) rotate(90)" fill="none" stroke="#438541" stroke-width="1.4"/></g></svg>