<svg xmlns="http://www.w3.org/2000/svg" width="46" height="40" viewBox="0 0 46 40"><g transform="translate(-780 -1942.156)"><g transform="translate(786 1942.156)" fill="#fff" stroke="#303030" stroke-width="2"><rect width="40" height="40" rx="5" stroke="none"/><rect x="1" y="1" width="38" height="38" rx="4" fill="none"/></g><g transform="translate(783 1969.22)" fill="#fff" stroke="#303030" stroke-width="2"><rect width="18" height="6.937" stroke="none"/><rect x="1" y="1" width="16" height="4.937" fill="none"/></g><g transform="translate(792 1948.156)" fill="#fff" stroke="#303030" stroke-width="2"><rect width="4" height="4" stroke="none"/><rect x="1" y="1" width="2" height="2" fill="none"/></g><g transform="translate(792 1954.156)" fill="#fff" stroke="#303030" stroke-width="2"><rect width="4" height="4" stroke="none"/><rect x="1" y="1" width="2" height="2" fill="none"/></g><g transform="translate(799 1948.156)" fill="#fff" stroke="#303030" stroke-width="2"><rect width="4" height="4" stroke="none"/><rect x="1" y="1" width="2" height="2" fill="none"/></g><g transform="translate(799 1954.156)" fill="#fff" stroke="#303030" stroke-width="2"><rect width="4" height="4" stroke="none"/><rect x="1" y="1" width="2" height="2" fill="none"/></g><g transform="translate(780 1963.156)" fill="#70d2fd" stroke="#303030" stroke-width="2"><rect width="24" height="8" rx="3" stroke="none"/><rect x="1" y="1" width="22" height="6" rx="2" fill="none"/></g><g transform="translate(780 1974.156)" fill="#70d2fd" stroke="#303030" stroke-width="2"><rect width="24" height="8" rx="3" stroke="none"/><rect x="1" y="1" width="22" height="6" rx="2" fill="none"/></g><g transform="translate(-6071.462 2350.4) rotate(-90)"><path d="M2587.26,11705.361v7h7" transform="translate(6829.231 -3226.498) rotate(45)" fill="none" stroke="#303030" stroke-width="2"/><path d="M2585.34,11708.861h10.677" transform="translate(-2208.34 -4824)" fill="none" stroke="#303030" stroke-width="2"/></g></g></svg>