<?xml version="1.0" encoding="utf-8"?>
<!-- Generator: Adobe Illustrator 26.5.0, SVG Export Plug-In . SVG Version: 6.00 Build 0)  -->
<svg version="1.1" id="Layer_1" xmlns="http://www.w3.org/2000/svg" xmlns:xlink="http://www.w3.org/1999/xlink" x="0px" y="0px"
	 width="51.8px" height="48.1px" viewBox="0 0 51.8 48.1" style="enable-background:new 0 0 51.8 48.1;" xml:space="preserve">
<style type="text/css">
	.st0{clip-path:url(#SVGID_00000089558707702422549150000001210162616119116220_);}
	.st1{fill:#0F249A;}
</style>
<g>
	<defs>
		<rect id="SVGID_1_" width="51.8" height="48.1"/>
	</defs>
	<clipPath id="SVGID_00000181793292170194964070000011349022019527420853_">
		<use xlink:href="#SVGID_1_"  style="overflow:visible;"/>
	</clipPath>
	
		<g id="그룹_387" transform="translate(0 0)" style="clip-path:url(#SVGID_00000181793292170194964070000011349022019527420853_);">
		<path id="패스_310" class="st1" d="M51.8,18.4c-0.2-0.6-0.4-1.1-0.7-1.6c-0.1-0.1-0.2-0.3-0.3-0.4c-0.9-0.9-2.3-1-3.3-0.2
			c-1.5,1.4-1.5,3.8-0.1,5.3c0.1,0.1,0.1,0.1,0.2,0.2c0.5,0.3,0.8,1,0.7,1.6c0,1,0,2.1,0,3.1c0,0.6-0.1,1.2-0.2,1.9
			c-0.8,3.8-4.1,6.4-7.9,6.4c-3.9,0.1-7.2-2.7-7.9-6.5c-0.2-1.9-0.3-3.9-0.2-5.8c0-0.1,0.1-0.3,0.2-0.3c1.9-0.9,2.2-4,0.8-5.6
			c-0.8-0.9-2.1-1.1-3.1-0.5c-1.6,1.3-1.9,3.6-0.6,5.2c0.2,0.3,0.5,0.5,0.8,0.7c0.2,0.1,0.4,0.3,0.3,0.6c0,1.3,0,2.5,0,3.8
			c-0.1,5,3.6,9.2,8.5,9.8c0.3,0,0.4,0.1,0.4,0.4c0,1.8,0,3.5,0,5.3c-0.1,2.7-2.3,4.7-4.9,4.7c-2.2-0.1-4.1-1.6-4.6-3.8
			c-0.1-0.9-0.2-1.8-0.1-2.8c0-0.3,0.1-0.5,0.4-0.6c0.6-0.3,1.1-0.9,1.2-1.6c0.1-0.6,0.1-1.2,0-1.8c-0.2-1.2-1.2-2-2.4-1.9
			c-1.2,0-2.2,1-2.2,2.3c0,0.4,0,0.8,0,1.2c0,0.8,0.5,1.6,1.2,2c0.2,0.1,0.3,0.3,0.3,0.5c0,0.7,0,1.3,0,2c0,2.2,1.1,4.2,3.1,5.3
			c0.9,0.4,1.8,0.8,2.7,1h1.2c0.1,0,0.1-0.1,0.2-0.1c3.3-0.4,5.8-3.3,5.6-6.6c0-1.5,0-3.1,0-4.6c0-0.4,0.1-0.5,0.5-0.6
			c4.3-0.5,7.7-3.9,8.3-8.2c0.1-1.6,0.2-3.3,0.1-4.9c0-0.5,0-1,0.6-1.2c0.2-0.1,0.4-0.3,0.5-0.5c0.3-0.6,0.5-1.1,0.8-1.7L51.8,18.4z
			 M30.7,20.5c-0.3-0.5-0.5-1-0.7-1.5c0.2-0.5,0.4-1,0.7-1.4c0.2-0.3,0.7-0.4,1-0.2c0.1,0,0.1,0.1,0.2,0.2c0.7,0.9,0.7,2.1,0,2.9
			c-0.2,0.3-0.7,0.4-1,0.2C30.8,20.6,30.8,20.5,30.7,20.5 M29.8,36.7c0,0.2,0,0.4,0,0.6l0,0c0,0.4-0.3,0.7-0.7,0.7c0,0,0,0,0,0h0
			c-0.4,0-0.8-0.3-0.8-0.7c0,0,0,0,0,0c0-0.4,0-0.7,0-1.1c0-0.4,0.3-0.8,0.8-0.8s0.8,0.3,0.8,0.8C29.8,36.4,29.8,36.6,29.8,36.7
			L29.8,36.7z M49.8,20.4c-0.2,0.4-0.7,0.5-1,0.3c-0.1-0.1-0.2-0.2-0.3-0.3c-0.6-0.8-0.6-1.9,0-2.8c0.2-0.4,0.7-0.5,1-0.3
			c0.1,0.1,0.2,0.2,0.3,0.3c0.2,0.4,0.4,0.9,0.6,1.4l0,0C50.2,19.5,50,19.9,49.8,20.4"/>
		<path id="패스_311" class="st1" d="M25.8,44.9c-0.6,0-1.2,0-1.8,0v-9.5c1.2-0.1,1.5-0.3,1.5-0.8s-0.3-0.7-1.5-0.8V24h0.5
			c0.7,0,1.4,0,2.2,0c0.6,0,1-0.3,1-0.8s-0.4-0.7-0.9-0.8c-0.2,0-0.4,0-0.6,0h-2.1V13c2.8-0.3,5.6-0.6,8.4-1
			c0.1,0.4,0.3,0.8,0.5,1.2c0,0.1,0,0.1,0.1,0.2c0.2,0.4,0.7,0.5,1.1,0.3c0.4-0.2,0.5-0.7,0.3-1.1c-0.1-0.4-0.3-0.8-0.4-1.2l0,0
			c1-0.3,1.9-0.6,2.8-0.9s1.8-0.7,2.6-1.1c0.3-0.2,0.5-0.1,0.7,0.2c0.5,0.7,1,1.4,1.5,2.1l0,0c0.2,0.4,0.7,0.5,1.1,0.2l0,0
			c0.4-0.2,0.4-0.7,0.2-1.1c0,0,0,0,0,0c0-0.1-0.1-0.2-0.2-0.3c-6.9-10.8-21.2-14-32-7.1C2.2,9.1-1.8,19.5,0.9,29.3
			c2.3,8.3,7.8,13.6,16,16.2c2.9,0.8,5.9,1.1,9,0.9c0.6,0,0.9-0.3,0.9-0.8C26.8,45.2,26.4,44.9,25.8,44.9 M38.8,8.2l-5.4,2
			c-1.3-2.9-2.5-5.7-4.8-7.9C32.5,3.2,36,5.3,38.8,8.2 M24.1,1.6c1.6,0.4,3.1,1.3,4.1,2.5c1.5,1.9,2.8,4,3.6,6.3
			c-2.5,0.5-5.1,0.8-7.7,0.9L24.1,1.6z M19.3,3.2c0.9-0.8,1.9-1.3,3.1-1.5v9.6c-2.6,0-5.2-0.2-7.7-0.8l0,0
			C15.6,7.7,17.2,5.2,19.3,3.2 M22.4,13v9.4h-9.7c0-3.5,0.5-6.9,1.5-10.3L22.4,13z M18,2.2c-2.2,2.3-3.9,5-4.8,8l0,0
			c-1.8-0.7-3.6-1.3-5.5-2C10.5,5.3,14.1,3.2,18,2.2 M1.6,22.4c0.2-4.8,1.9-9.3,5-13c2.1,0.8,4.1,1.5,6.1,2.3
			c-1,3.5-1.5,7.1-1.6,10.7H1.6z M6.5,37c-2.5-3-4.1-6.6-4.7-10.5c-0.1-0.7-0.1-1.4-0.2-2.1c0-0.1,0-0.3,0-0.5h9.5
			c0.1,3.7,0.6,7.4,1.7,11c-0.6,0.2-1.2,0.3-1.8,0.6c-1.3,0.5-2.6,1-3.8,1.5C6.9,37.2,6.7,37.2,6.5,37 M7.8,38.4l5.3-1.9
			c0.7,1.5,1.3,2.8,2,4.1s1.7,2.4,2.5,3.6C14,43.2,10.5,41.2,7.8,38.4 M22.4,44.9c-0.6-0.2-1.3-0.5-1.9-0.8
			c-1.3-0.8-2.5-1.9-3.3-3.2c-1-1.5-1.8-3.1-2.4-4.8c2.5-0.5,5-0.8,7.6-0.8L22.4,44.9z M22.4,33.6l-8.1,0.9c-1-3.4-1.5-6.9-1.6-10.5
			h9.7L22.4,33.6z"/>
	</g>
</g>
</svg>
