<?xml version="1.0" encoding="utf-8"?>
<!-- Generator: Adobe Illustrator 26.5.0, SVG Export Plug-In . SVG Version: 6.00 Build 0)  -->
<svg version="1.1" id="Layer_1" xmlns="http://www.w3.org/2000/svg" xmlns:xlink="http://www.w3.org/1999/xlink" x="0px" y="0px"
	 width="46.5px" height="46.4px" viewBox="0 0 46.5 46.4" style="enable-background:new 0 0 46.5 46.4;" xml:space="preserve">
<style type="text/css">
	.st0{clip-path:url(#SVGID_00000078033981074978821460000016522682604911116730_);}
	.st1{fill:#0F249A;}
</style>
<g>
	<defs>
		<rect id="SVGID_1_" width="46.5" height="46.4"/>
	</defs>
	<clipPath id="SVGID_00000041268683914230467840000011593578289894084270_">
		<use xlink:href="#SVGID_1_"  style="overflow:visible;"/>
	</clipPath>
	<g id="그룹_2053" style="clip-path:url(#SVGID_00000041268683914230467840000011593578289894084270_);">
		<path id="패스_1317" class="st1" d="M28.1,41l1.1,3.9h4v1.5H13.2v-1.5h4l1.1-3.9H3.9c-2,0-3.7-1.5-3.9-3.5c0-0.1,0-0.2,0-0.4
			C0,26.1,0,14.9,0,3.8C0,1.9,1.4,0.3,3.3,0c0.2,0,0.3,0,0.5,0c12.9,0,25.9,0,38.8,0c1.8,0,3.3,1.2,3.7,2.9c0.1,0.3,0.1,0.6,0.1,0.9
			c0,11.1,0,22.2,0,33.3c0,2.1-1.7,3.9-3.8,3.9c0,0,0,0,0,0H28.1 M44.9,34.8v-0.3c0-10.2,0-20.4,0-30.6C45,2.7,44,1.6,42.7,1.5
			c-0.1,0-0.2,0-0.3,0H4C2.7,1.5,1.6,2.5,1.5,3.8c0,0.1,0,0.1,0,0.2c0,10.2,0,20.4,0,30.6v0.3L44.9,34.8z M1.6,36.4
			c0,0.3,0,0.6,0,0.9c0,1,0.7,1.8,1.6,2.1c0.3,0.1,0.7,0.1,1,0.1c10.8,0,21.6,0,32.4,0c2,0,4,0,6,0c1.3,0,2.4-1.1,2.4-2.4
			c0-0.2,0-0.5-0.1-0.7H1.6z M19.9,41l-1.1,3.9h8.7c0,0,0-0.1,0-0.1c-0.3-1.2-0.7-2.4-1-3.6c0-0.1-0.1-0.1-0.2-0.1
			C24.2,41,22.1,41,19.9,41"/>
		<path id="패스_1318" class="st1" d="M17,11.6c0,2,0,4,0,6.1c0,0.3-0.1,0.6-0.4,0.8c-2.7,2.1-5.4,4.3-8.1,6.4
			c-0.5,0.4-0.9,0.7-1.4,1.1c-0.3,0.3-0.8,0.4-1.1,0.1C6,26.1,5.9,26,5.9,25.9c-1.4-1.7-2.3-3.8-2.6-6C2.4,14.8,4.6,9.7,9,6.9
			c1.6-1.1,3.6-1.9,5.5-2.1c0.6-0.1,1.1-0.1,1.7-0.1c0.4,0,0.8,0.3,0.8,0.7c0,0,0,0.1,0,0.1C17,7.5,17,9.6,17,11.6 M6.7,24.4
			c0.1,0,0.1-0.1,0.1-0.1c2.8-2.3,5.7-4.5,8.5-6.8c0.1-0.1,0.2-0.2,0.2-0.3c0-3.6,0-7.2,0-10.8c0-0.1,0-0.1,0-0.2
			c-6.4,0.4-11.2,6-10.8,12.4C4.8,20.7,5.5,22.7,6.7,24.4"/>
		<path id="패스_1319" class="st1" d="M17.8,33.3c-4,0.1-7.9-1.7-10.4-4.9C7,28.2,7,27.7,7.3,27.3c0.1-0.1,0.1-0.1,0.2-0.2
			c2.1-1.7,4.2-3.4,6.4-5.1c1-0.8,2-1.6,3.1-2.4c0.3-0.4,0.8-0.4,1.2-0.1c0.1,0.1,0.1,0.1,0.2,0.2l8.5,8.5c0.4,0.3,0.5,0.7,0.2,1.1
			c-0.1,0.1-0.1,0.2-0.2,0.2c-1.9,1.8-4.2,3.1-6.8,3.5C19.2,33.2,18.4,33.3,17.8,33.3 M25.2,28.9l-7.7-7.7L9,28
			C13.3,32.6,20.4,33,25.2,28.9"/>
		<path id="패스_1320" class="st1" d="M35.6,21c0,3.4-1.3,6.7-3.8,9.2c-0.3,0.4-0.7,0.4-1.1,0.2c-0.1-0.1-0.1-0.1-0.2-0.2L22,21.6
			c-0.4-0.3-0.4-0.7-0.2-1.1c0.1-0.2,0.3-0.3,0.5-0.3l11.5-3.8c0.4-0.2,0.9-0.1,1.1,0.3c0,0.1,0.1,0.2,0.1,0.3
			C35.4,18.2,35.6,19.6,35.6,21 M23.9,21.3l7.3,7.3c1.6-1.8,2.6-4.1,2.8-6.5c0.1-1.4,0-2.8-0.3-4.1L23.9,21.3"/>
		<path id="패스_1321" class="st1" d="M18.6,10c0-2,0-4.1,0-6.1c-0.1-0.4,0.2-0.8,0.7-0.9c0.1,0,0.1,0,0.2,0
			c2.8,0,5.5,0.9,7.7,2.6c0.4,0.2,0.5,0.7,0.3,1.1c0,0.1-0.1,0.1-0.1,0.1c-2.4,3.3-4.9,6.5-7.3,9.8c-0.2,0.4-0.7,0.5-1.1,0.3
			c-0.3-0.2-0.4-0.5-0.4-0.8C18.6,14.1,18.6,12.1,18.6,10 M20.1,13.9l5.5-7.4c-1.7-1.1-3.6-1.7-5.5-1.9L20.1,13.9z"/>
		<path id="패스_1322" class="st1" d="M34.1,13.8c0,0.4-0.2,0.7-0.6,0.8c-1,0.3-2,0.7-3,1l-8.6,2.9c-0.4,0.2-0.9,0-1.1-0.4
			c-0.1-0.3-0.1-0.6,0.1-0.9c1.3-1.7,2.6-3.5,3.9-5.2l3.4-4.5C28.5,7.2,29,7,29.4,7.2c0.1,0,0.1,0.1,0.2,0.1
			c2.1,1.6,3.6,3.7,4.5,6.2C34,13.6,34,13.7,34.1,13.8 M23.7,16.2L23.7,16.2l8.6-2.8c-0.7-1.7-1.8-3.2-3.2-4.4L23.7,16.2"/>
		<rect id="사각형_1024" x="38.7" y="3.9" class="st1" width="4.6" height="1.5"/>
		<rect id="사각형_1025" x="38.7" y="7" class="st1" width="4.6" height="1.5"/>
		<rect id="사각형_1026" x="38.7" y="10.1" class="st1" width="4.6" height="1.5"/>
		<rect id="사각형_1027" x="38.7" y="13.2" class="st1" width="4.6" height="1.5"/>
		<rect id="사각형_1028" x="35.6" y="3.9" class="st1" width="1.5" height="1.5"/>
		<rect id="사각형_1029" x="35.6" y="7" class="st1" width="1.5" height="1.5"/>
		<rect id="사각형_1030" x="35.6" y="10.1" class="st1" width="1.5" height="1.5"/>
		<rect id="사각형_1031" x="35.6" y="13.2" class="st1" width="1.5" height="1.5"/>
		<rect id="사각형_1032" x="35.6" y="31.8" class="st1" width="1.5" height="1.5"/>
		<rect id="사각형_1033" x="38.7" y="31.8" class="st1" width="1.5" height="1.5"/>
		<rect id="사각형_1034" x="41.8" y="31.8" class="st1" width="1.5" height="1.5"/>
	</g>
</g>
</svg>
