<?xml version="1.0" encoding="utf-8"?>
<!-- Generator: Adobe Illustrator 26.5.0, SVG Export Plug-In . SVG Version: 6.00 Build 0)  -->
<svg version="1.1" id="Layer_1" xmlns="http://www.w3.org/2000/svg" xmlns:xlink="http://www.w3.org/1999/xlink" x="0px" y="0px"
	 width="77.2px" height="77.3px" viewBox="0 0 77.2 77.3" style="enable-background:new 0 0 77.2 77.3;" xml:space="preserve">
<style type="text/css">
	.st0{clip-path:url(#SVGID_00000160183988712275655100000003493008673371288962_);}
	.st1{fill:#0F249A;}
</style>
<g>
	<defs>
		<rect id="SVGID_1_" width="77.2" height="77.3"/>
	</defs>
	<clipPath id="SVGID_00000154392443229549695330000005787680639533473927_">
		<use xlink:href="#SVGID_1_"  style="overflow:visible;"/>
	</clipPath>
	<g id="그룹_1975" style="clip-path:url(#SVGID_00000154392443229549695330000005787680639533473927_);">
		<path id="패스_923" class="st1" d="M46,59.8v2.5c-2.1,0-4.2,0-6.3,0c-0.4-0.1-0.8-0.4-1.1-0.8c-2.1-2.7-4.3-5.4-6.4-8.1
			c-0.2-0.2-0.4-0.4-0.7-0.8c0.2,2.2,0.4,4.2,0.5,6.3c0.4,4.6,0.8,9.2,1.2,13.8c0.1,2.4-1.8,4.4-4.2,4.5c-1.4,0-2.8-0.6-3.7-1.8
			c-0.5-0.8-0.8-1.6-0.9-2.5c-1-7.4-2-14.9-3-22.3c0-0.3-0.1-0.5-0.2-0.8l-0.2,0c-0.1,0.2-0.1,0.4-0.2,0.7
			c-0.7,5.1-1.4,10.2-2.1,15.3c-0.4,2.6-0.7,5.2-1.1,7.8c-0.4,2.3-2.4,3.9-4.7,3.7c-2.3-0.2-4.1-2.2-4-4.5c0.1-2.8,0.4-5.5,0.7-8.3
			c0.4-5.2,1-10.4,1.3-15.6c0.2-4.9,0.1-9.8,0.2-14.7c0,0,0-0.1-0.1-0.2c-0.5,1.3-1.1,2.5-1.6,3.8C8.9,38.8,8.5,40,8,41.1
			c-0.9,2.1-3.3,3.1-5.4,2.2c-2.1-0.8-3.1-3.2-2.3-5.3c0,0,0,0,0,0C2.5,32.5,4.6,26.9,7,21.4c1.3-3.2,4.4-5.2,7.8-5.2
			c0.5,0,1,0,1.8,0c-2.4-1.5-3.9-4-4.2-6.8c-0.3-2.7,0.8-5.4,2.9-7.2c3.6-3.1,9-2.8,12.2,0.7c2.9,3.2,3.6,9.4-1.9,13.4
			c0.9-0.1,1.8,0,2.7,0c3.3,0.3,6,2.5,7.1,5.6c2,5.1,4.1,10.2,6.1,15.2c0.3,0.6,0.5,1.3,0.6,1.9c0.2,2.3-1.4,4.3-3.7,4.5
			c-1.8,0.2-3.5-0.8-4.2-2.5c-0.9-2.1-1.8-4.3-2.7-6.4c-0.1-0.3-0.3-0.5-0.5-0.7v8.3h-2.5c0-0.2,0-0.4,0-0.6c0-4.6,0-9.3,0-13.9
			c0-0.3,0-0.7,0.2-0.9c0.3-0.3,0.8-0.7,1.1-0.6c0.5,0.1,0.9,0.4,1.1,0.9c1.1,2.4,2,4.8,3,7.2c0.8,1.8,1.5,3.7,2.3,5.5
			c0.5,1.2,1.4,1.6,2.3,1.2s1.2-1.3,0.8-2.5c-2.1-5.2-4.2-10.4-6.3-15.7c-0.9-2.6-3.4-4.2-6.1-4.1c-4,0-8.1,0-12.1,0
			c-2.5-0.1-4.8,1.4-5.7,3.8C7,27.9,4.8,33.3,2.7,38.8c-0.4,0.7-0.1,1.6,0.5,2.1c0.6,0.5,1.5,0.4,2-0.1c0.3-0.3,0.5-0.6,0.6-1
			c1.7-4.1,3.4-8.1,5.1-12.2c0.1-0.2,0.1-0.6,0.3-0.7c0.4-0.3,0.8-0.5,1.3-0.6c0.6,0,0.9,0.5,1,1.1c0,0.2,0,0.5,0,0.7
			c0,5.7,0.1,11.3,0,17c-0.1,3.4-0.4,6.9-0.7,10.3c-0.4,5.1-0.9,10.2-1.3,15.4c-0.1,0.6-0.1,1.3-0.2,1.9c-0.1,1.1,0.6,2,1.7,2.1
			s2-0.6,2.1-1.7c0,0,0-0.1,0-0.1c0.3-2.1,0.6-4.1,0.9-6.2c0.8-6.1,1.7-12.2,2.5-18.3c0-0.7,0.6-1.2,1.3-1.2c0,0,0.1,0,0.1,0
			c0.8,0,1.5,0,2.3,0c0.7-0.1,1.3,0.4,1.4,1.1c0,0,0,0.1,0,0.1c0.7,5.3,1.5,10.6,2.2,16c0.4,2.8,0.7,5.6,1.1,8.3c0,1.1,0.9,2,2,1.9
			c0,0,0.1,0,0.1,0c1.1-0.1,1.9-1,1.8-2.1c0-0.1,0-0.1,0-0.2c-0.4-4.4-0.8-8.9-1.2-13.3c-0.3-3.2-0.6-6.4-0.9-9.5
			c0-0.3-0.2-0.6-0.4-0.9c-1.7-2.2-3.5-4.4-5.2-6.7c-0.2-0.4-0.6-0.5-1-0.4c-2,0.5-4.1-0.4-5-2.3c-1.1-2.2-0.1-4.8,2.1-5.9
			c1.5-0.7,3.4-0.5,4.7,0.6c1.6,1.3,2.1,3.6,1.1,5.4c-0.2,0.3-0.2,0.7,0.1,1c5,6.3,10,12.6,15,18.9c0.3,0.3,0.6,0.5,1,0.5
			C42.6,59.9,44.3,59.8,46,59.8 M27.3,8.8c0-3.4-2.7-6.3-6.2-6.3s-6.3,2.7-6.3,6.2s2.7,6.3,6.2,6.3c0,0,0,0,0.1,0
			C24.5,15,27.3,12.2,27.3,8.8 M21.1,39.3c1,0,1.9-0.8,1.9-1.9s-0.8-1.9-1.9-1.9c-1,0-1.9,0.8-1.9,1.9C19.2,38.4,20,39.3,21.1,39.3"
			/>
		<path id="패스_924" class="st1" d="M63,58.2c5-2.3,10.9,0,13.2,5c2.3,5,0,10.9-5,13.2c-5,2.3-10.9,0-13.2-5
			c0-0.1-0.1-0.2-0.1-0.2c-0.6,1-1.2,2-1.8,2.9c-1.7,3-5.5,4-8.5,2.3c-3-1.7-4-5.5-2.3-8.5c0-0.1,0.1-0.1,0.1-0.2
			c1.7-2.9,3.5-5.8,5.3-8.6c0.4-0.6,0.8-1.3,1.2-1.9c1.2-2,3.5-3.2,5.8-2.9c2.3,0.1,4.3,1.5,5.1,3.6C62.9,58,63,58.1,63,58.2
			 M66.1,74.6c3.3,0.9,7.1-1.6,8.2-5c1.1-3.4-0.7-7.7-3.6-8.8L66.1,74.6 M68.3,60c-1.6-0.3-3.3,0-4.7,0.8c-0.2,0.1-0.2,0.4-0.3,0.6
			c-0.3,0.9-0.6,1.8-1,2.6c-0.7,1.3-1.5,2.4-2.2,3.7c-0.2,0.2-0.2,0.5-0.2,0.8c0.3,2.3,1.7,4.3,3.8,5.4L68.3,60 M50.1,64.8
			c-1,1.6-2,3.1-2.8,4.7c-0.9,1.9-0.1,4.1,1.8,4.9c1.6,0.7,3.4,0.3,4.5-1c1.1-1.5,2-3.1,3-4.7L50.1,64.8 M57.8,66.6
			c1-1.7,2-3.2,2.9-4.9c0.7-1.7,0-3.6-1.6-4.5c-1.5-0.9-3.5-0.6-4.7,0.7c-1.1,1.5-2,3.2-3.1,4.8L57.8,66.6"/>
		<path id="패스_925" class="st1" d="M69.7,12.9c0-3.3,0-6.7,0-10c0-1.2,0.4-1.6,1.6-1.6c1.5,0,2.9,0,4.4,0c1,0,1.5,0.5,1.5,1.5
			c0,6.8,0,13.6,0,20.5c0,1-0.4,1.5-1.5,1.5c-1.5,0-3,0-4.5,0c-1.1,0-1.5-0.5-1.5-1.5C69.7,19.7,69.7,16.3,69.7,12.9 M72.2,22.1h2.4
			V3.8h-2.4L72.2,22.1z"/>
		<path id="패스_926" class="st1" d="M67.2,16.3c0,2.3,0,4.6,0,6.8c0,1.1-0.4,1.5-1.5,1.5c-1.5,0-3,0-4.5,0c-1,0-1.5-0.4-1.5-1.5
			c0-4.6,0-9.3,0-13.9c0-1,0.5-1.5,1.5-1.5c1.5,0,3,0,4.5,0c1,0,1.5,0.5,1.5,1.5C67.2,11.6,67.2,14,67.2,16.3 M62.2,22.1h2.4V10.3
			h-2.4V22.1z"/>
		<path id="패스_927" class="st1" d="M35.8,14.4l-2-1.4c0.1-0.2,0.2-0.4,0.3-0.6c1.9-2.6,3.7-5.2,5.6-7.9c0.4-0.6,1-0.9,1.7-0.9
			c2,0,4,0,6,0c0.4,0.1,0.8-0.2,0.9-0.5c0.8-1.9,2.8-2.9,4.8-2.5c2.4,0.5,3.9,2.8,3.4,5.1c-0.4,1.7-1.7,3-3.4,3.4
			c-2,0.4-4-0.6-4.8-2.5c-0.1-0.4-0.5-0.6-0.9-0.5c-1.7,0-3.4,0-5.1,0c-0.4,0-0.8,0.2-1,0.5c-1.6,2.3-3.3,4.6-5,7
			C36.2,13.9,36,14.1,35.8,14.4 M54.1,5c0-1-0.8-1.9-1.9-1.9c-1,0-1.9,0.8-1.9,1.9c0,1,0.8,1.9,1.9,1.9C53.3,6.9,54.1,6,54.1,5"/>
		<rect id="사각형_828" x="49.8" y="27.5" class="st1" width="27.4" height="2.4"/>
		<path id="패스_928" class="st1" d="M49.7,19.5c0-1.2,0-2.4,0-3.7c0-1,0.5-1.5,1.5-1.5c1.5,0,3,0,4.5,0c1,0,1.5,0.5,1.5,1.5
			c0,2.5,0,4.9,0,7.4c0,1-0.4,1.5-1.5,1.5c-1.5,0-3,0-4.5,0c-1.1,0-1.5-0.4-1.5-1.5C49.7,21.9,49.7,20.7,49.7,19.5 M54.7,16.9h-2.4
			v5.2h2.4L54.7,16.9z"/>
	</g>
</g>
</svg>
