<?xml version="1.0" encoding="utf-8"?>
<!-- Generator: Adobe Illustrator 26.5.0, SVG Export Plug-In . SVG Version: 6.00 Build 0)  -->
<svg version="1.1" id="Layer_1" xmlns="http://www.w3.org/2000/svg" xmlns:xlink="http://www.w3.org/1999/xlink" x="0px" y="0px"
	 width="77.8px" height="77.3px" viewBox="0 0 77.8 77.3" style="enable-background:new 0 0 77.8 77.3;" xml:space="preserve">
<style type="text/css">
	.st0{clip-path:url(#SVGID_00000092427863221680135440000015460440541670683785_);}
	.st1{fill:#0F249A;}
</style>
<g>
	<defs>
		<rect id="SVGID_1_" width="77.8" height="77.3"/>
	</defs>
	<clipPath id="SVGID_00000047743851548500804840000005729660476215860392_">
		<use xlink:href="#SVGID_1_"  style="overflow:visible;"/>
	</clipPath>
	<g id="그룹_1977" style="clip-path:url(#SVGID_00000047743851548500804840000005729660476215860392_);">
		<path id="패스_929" class="st1" d="M49.5,77.3H6.1c-0.2-0.1-0.3-0.1-0.5-0.2c-2.5-0.5-4.5-2.3-5.2-4.7C0.2,72,0.1,71.6,0,71.2
			v-2c0.2-0.8,0.3-1.6,0.5-2.4C1.7,59.4,2.8,52,4,44.7c0.3-1.6,0.5-3.3,0.8-4.9c-0.5,0-1.1,0-1.6-0.1c-1.5-0.3-2.7-1.4-3.1-2.9v-6.6
			c0.8-2.4,2.6-3.3,5-3C0.2,19.6,2.4,9.5,10,4.6C15.5,1.1,22.6,1.2,28,4.9c3,2,5.2,4.9,6.3,8.3c1.6,4.7,0.9,9.8-1.7,13.9
			c1,0,1.8,0,2.6,0c0.5,0.1,1-0.2,1.2-0.6C39.9,20.7,43.5,14.8,47,9c0.6-1.3,2.1-1.8,3.4-1.2c0.1,0.1,0.3,0.1,0.4,0.2
			c0.8,0.4,1.5,0.9,2.3,1.4L54,8.1c-0.2-0.1-0.4-0.2-0.5-0.3c-1.3-0.6-1.9-2.1-1.3-3.3c0.1-0.3,0.3-0.5,0.5-0.7
			c0.4-0.5,0.8-1.1,1.2-1.6c1.4-2.1,2.5-2.8,5.3-1.1c3.8,2.3,7.7,4.5,11.5,6.7c1.2,0.6,1.8,2.1,1.2,3.3c-0.1,0.2-0.2,0.4-0.3,0.5
			c-0.7,0.9-1.4,1.9-2.1,2.8c-0.8,1.2-2.3,1.5-3.5,0.7c0,0,0,0,0,0c-0.2-0.1-0.4-0.2-0.6-0.3l-0.8,1.5c0.9,0.5,1.7,1,2.5,1.5
			c1.2,0.6,1.8,2.1,1.2,3.3c-0.1,0.2-0.2,0.3-0.3,0.5c-0.4,0.7-0.9,1.4-1.3,2.1c0.8,0.7,1.5,1.5,2,2.4c0.9,1.6,2,3,3.3,4.2
			c0.2,0.2,0.4,0.5,0.6,0.7c4.7,5.6,6.3,13.1,4.5,20.1c-2.7,11.1-9.8,18-20.9,20.6c-1.5,0.4-3.1,0.5-4.7,0.7c0,0.6,0,1.1,0,1.7
			C51.6,75.4,50.9,76.8,49.5,77.3 M34.7,59.7c0-0.1,0-0.2,0-0.3c-0.8-5.4-1.7-10.7-2.6-16.1c0-0.2-0.1-0.3-0.2-0.5
			c-1.1-0.6-1.6-2-1.2-3.2H7.3l-0.4,2.5h5.5v2.5h-6l-0.8,5h11.8v2.5H5.3l-0.8,5h9.2v2.5H4.1c-0.5,3.2-1,6.3-1.5,9.4
			C2,71.6,3.6,74.1,6,74.7c0.5,0.1,0.9,0.1,1.4,0.1c3.5,0,7.1,0,10.6,0h0.8c0-0.8,0-1.5,0-2.2c-0.2-1.4,0.8-2.7,2.2-2.8
			c0.2,0,0.4,0,0.6,0c1.6,0,3.3,0,4.9,0l0.6-2.5c-2,0-3.9,0-5.8,0c-1.4,0.1-2.5-1-2.6-2.4c0-0.1,0-0.1,0-0.2c0-0.7,0-1.4,0-2.1
			c-0.2-1.4,0.8-2.7,2.2-2.8c0.2,0,0.4,0,0.6,0c4,0,8.1,0,12.1,0L34.7,59.7 M18.8,4.6C11.2,4.6,5,10.8,5,18.4s6.2,13.8,13.8,13.8
			c7.6,0,13.8-6.2,13.8-13.8C32.6,10.8,26.4,4.6,18.8,4.6 M51.5,62.3c1-0.1,1.9-0.2,2.8-0.4c7.4-1.6,12.8-7.8,13.4-15.3
			c0.3-2.7-0.3-5.5-1.8-7.8c-1.5,0.3-2.9,0.7-4.4,0.8c-1.5,0.1-3-0.3-4.3-1c-0.6,1-1.2,1.9-1.8,2.8c-0.3,0.3-0.2,0.7,0,1
			c0.7,0.8,0.7,2,0.1,2.8c-0.3,0.5-0.7,1.1-1.1,1.6c-0.7,1.2-2.3,1.5-3.4,0.8c0,0-0.1,0-0.1-0.1c-0.5-0.3-1-0.7-1.6-1
			c-0.8,1.3-1.5,2.5-2.2,3.7c-0.6,1.2-2.1,1.7-3.4,1.1c-0.2-0.1-0.4-0.2-0.5-0.3c-0.8-0.6-1.7-1.2-2.5-1.9c-1.5-1.1-1.7-2.3-0.8-3.9
			c0.7-1.1,1.4-2.3,2.1-3.5l-1.7-1.1c-0.7,1.2-1.4,2.3-2.1,3.4c-0.5,1-1.7,1.5-2.8,1.2c-0.1,0-0.3,0-0.5-0.1l2.3,14.5h11.1
			C50.2,59.7,51,60.3,51.5,62.3 M66,20l-16.6-10L37,30.2l16,10.3l2.2-3.4c-2.8-3.3-3.5-7-1.2-10.8c2.4-3.8,6-4.9,10.4-3.8L66,20
			 M70.2,32c-0.2,1.7-0.9,3.2-2,4.5c-0.3,0.3-0.4,0.8-0.1,1.1c0,0,0,0,0,0c1.2,1.9,2,4.2,2.1,6.5c0.5,9.3-5.6,17.7-14.6,20
			c-1.4,0.3-2.8,0.5-4.1,0.7c-0.1,1.4-1.3,2.5-2.8,2.4c-0.1,0-0.1,0-0.2,0c-1.8,0-3.6,0-5.5,0l0.6,2.5c2.5,0,5,0,7.4,0
			c6.8,0,13.2-2.9,17.7-7.9c5.6-6.2,7.7-13.4,5.9-21.6C73.8,37.1,72.3,34.3,70.2,32 M32.2,29.7c-1-0.2-2,0.1-2.7,0.8
			c-5.8,5.2-14.5,5.5-20.6,0.6c-1.3-1.2-3.1-1.8-4.9-1.6c0,0-0.1,0-0.1,0c-1,0-1.5,0.5-1.5,1.5c0,1.4,0,2.8,0,4.2
			c0,1.4,0.4,1.8,1.8,1.8h26.6c1.3,0,1.3,0,1.9-1.2C30.2,34.3,29.6,33.2,32.2,29.7 M67.7,30.9c0-3.5-2.8-6.3-6.2-6.3
			c-3.5,0-6.3,2.8-6.3,6.2c0,3.5,2.8,6.3,6.2,6.3C64.8,37.2,67.7,34.4,67.7,30.9 M21.4,64.7h27.5v-2.4H21.4V64.7z M21.4,74.7h27.5
			v-2.4H21.4V74.7z M54.5,5.5L67.4,13l2.2-3L56.8,2.5L54.5,5.5 M33.1,33.1l19.2,12.4l1.1-1.7L34.2,31.4L33.1,33.1 M41,69.7l-0.6-2.4
			H29.8l-0.6,2.4H41z M44,43.1l-2.3,3.8l3,2.2l2.4-4L44,43.1 M38.1,39.3l-3.1-2l-2,3.3l3,2.2L38.1,39.3 M55.3,10.7l7.1,4.2l0.8-1.6
			l-6.9-4L55.3,10.7"/>
		<path id="패스_930" class="st1" d="M10.3,19.2l1.9-1.6l4.1,5.1l10.3-11.4l1.9,1.7L16.2,26.6L10.3,19.2"/>
		<path id="패스_931" class="st1" d="M61.4,27.2c2.1,0,3.8,1.6,3.8,3.7c0,2.1-1.6,3.8-3.7,3.8c-2.1,0-3.8-1.6-3.8-3.7c0,0,0,0,0,0
			C57.7,28.8,59.3,27.2,61.4,27.2 M62.7,30.9c0-0.7-0.6-1.3-1.2-1.3c-0.7,0-1.3,0.6-1.3,1.2c0,0.7,0.5,1.2,1.2,1.3
			C62.1,32.2,62.7,31.6,62.7,30.9"/>
	</g>
</g>
</svg>
