<?xml version="1.0" encoding="utf-8"?>
<!-- Generator: Adobe Illustrator 26.5.0, SVG Export Plug-In . SVG Version: 6.00 Build 0)  -->
<svg version="1.1" id="Layer_1" xmlns="http://www.w3.org/2000/svg" xmlns:xlink="http://www.w3.org/1999/xlink" x="0px" y="0px"
	 width="77.3px" height="77.3px" viewBox="0 0 77.3 77.3" style="enable-background:new 0 0 77.3 77.3;" xml:space="preserve">
<style type="text/css">
	.st0{clip-path:url(#SVGID_00000006671004912230097290000012806535374713404820_);}
	.st1{fill:#0F249A;}
</style>
<g>
	<defs>
		<rect id="SVGID_1_" width="77.3" height="77.3"/>
	</defs>
	<clipPath id="SVGID_00000150074376238154779780000014636351839805151144_">
		<use xlink:href="#SVGID_1_"  style="overflow:visible;"/>
	</clipPath>
	<g id="그룹_1979" style="clip-path:url(#SVGID_00000150074376238154779780000014636351839805151144_);">
		<path id="패스_932" class="st1" d="M39.8,53.8v3.5h25.8c1.4,0,1.7,0.3,1.7,1.7c0,1,0,2.1,0,3.1c0,0.1,0,0.2,0.1,0.3h3.2
			c0.6,0,1.2,0,1.8,0c1,0,1.4,0.4,1.4,1.4c0,3.4,0,6.8,0,10.3c0,0.6,0,1.2,0,1.9c0.1,0.6-0.4,1.2-1,1.3c-0.1,0-0.2,0-0.2,0
			c-4.1,0-8.2,0-12.4,0c-0.6,0.1-1.2-0.4-1.3-1c0-0.1,0-0.2,0-0.3c0-4.1,0-8.2,0-12.3c0-0.9,0.5-1.3,1.4-1.3c1.5,0,3,0,4.6,0v-2.7
			H39.8v2.7h0.7c1.4,0,2.8,0,4.2,0c0.6-0.1,1.2,0.4,1.3,1c0,0.1,0,0.2,0,0.3c0,4.1,0,8.2,0,12.4c0.1,0.6-0.4,1.1-1,1.2
			c-0.1,0-0.2,0-0.2,0c-4.1,0-8.3,0-12.4,0c-0.6,0.1-1.1-0.4-1.2-1c0-0.1,0-0.2,0-0.3c0-4.1,0-8.2,0-12.4c0-0.8,0.5-1.2,1.4-1.2
			c1.6,0,3.2,0,4.8,0v-2.7H12.2v2.7c1.6,0,3.1,0,4.6,0c1.2,0,1.6,0.4,1.6,1.6c0,3.9,0,7.8,0,11.7c0,1.1-0.4,1.5-1.5,1.5
			c-3.9,0-7.9,0-11.8,0c-1.1,0-1.5-0.4-1.5-1.6c0-3.9,0-7.8,0-11.7c0-1.2,0.4-1.5,1.5-1.6c1.5,0,3.1,0,4.7,0c0-1.2,0-2.3,0-3.4
			c0-1.4,0.3-1.7,1.7-1.7h25.8v-3.5h-0.8c-2.1,0-4.1,0-6.2,0c-1.9,0.2-3.6-1.3-3.8-3.2c0-0.2,0-0.4,0-0.6c0-8.2,0-16.3,0-24.5
			c-0.2-1.9,1.2-3.6,3.1-3.8c0.2,0,0.4,0,0.6,0c5.5,0,11.1,0,16.6,0c1.9-0.2,3.6,1.3,3.8,3.2c0,0.2,0,0.4,0,0.6c0,8.1,0,16.3,0,24.4
			c0.2,1.9-1.3,3.7-3.2,3.8c-0.2,0-0.4,0-0.6,0C44.5,53.9,42.2,53.8,39.8,53.8 M48.3,37.8c0-4,0-8,0-12c0-1.2-0.4-1.6-1.5-1.6
			c-5.5,0-10.9,0-16.4,0c-1.2,0-1.5,0.4-1.5,1.5c0,8.1,0,16.2,0,24.2c0,1.2,0.4,1.6,1.6,1.6c5.4,0,10.9,0,16.3,0
			c1.2,0,1.6-0.4,1.6-1.6C48.3,45.9,48.3,41.8,48.3,37.8 M5.9,74.9H16V64.8H5.9V74.9z M71.4,64.8H61.3v10.1h10.1L71.4,64.8z
			 M43.6,64.8H33.5v10h10.1L43.6,64.8z"/>
		<path id="패스_933" class="st1" d="M11,77.3c-2,0-4,0-5.9,0c-1.2,0-1.6-0.4-1.6-1.6c0-4,0-7.9,0-11.7c0-1.2,0.4-1.6,1.6-1.6
			c1.1,0,2.1,0,3.3,0h1.4v-1.1c0-0.8,0-1.5,0-2.3c0-1.4,0.4-1.7,1.7-1.7h25.8v-3.4h-0.8h-1.9c-1.4,0-2.9,0-4.3,0
			c-2,0.2-3.7-1.3-3.8-3.3c0-0.2,0-0.4,0-0.5c0-7.8,0-15.8,0-24.5c-0.2-1.9,1.2-3.6,3.2-3.8c0.2,0,0.4,0,0.6,0c5.7,0,11.3,0,16.6,0
			c1.9-0.2,3.6,1.3,3.8,3.2c0,0.2,0,0.4,0,0.6c0,7.9,0,16.1,0,24.4c0.2,2-1.3,3.7-3.2,3.9c-0.2,0-0.4,0-0.6,0c-1.6,0-3.2,0-4.9,0
			h-2.2v3.4h25.7c1.4,0,1.8,0.3,1.8,1.8c0,1,0,2.1,0,3.1c0,0,0,0.1,0,0.1c0,0,0,0.1,0,0.1h3.7c0.4,0,0.8,0,1.2,0
			c1,0,1.4,0.5,1.4,1.5c0,2.5,0,5,0,7.5c0,0.9,0,1.8,0,2.8c0,0.2,0,0.4,0,0.6c0,0.4,0,0.9,0,1.3c0.1,0.7-0.4,1.2-1.1,1.3
			c-0.1,0-0.2,0-0.2,0c-4,0-8.2,0-12.4,0c-0.6,0.1-1.2-0.4-1.3-1c0-0.1,0-0.2,0-0.3c0-4.1,0-8.2,0-12.3c0-0.9,0.5-1.3,1.4-1.3
			c1.1,0,2.1,0,3.2,0h1.4v-2.6h-25v2.6h0.7h1.2c1,0,2,0,3,0c0.6-0.1,1.2,0.4,1.3,1c0,0.1,0,0.2,0,0.3c0,4.2,0,8.3,0,12.4
			c0.1,0.6-0.4,1.2-1,1.3c-0.1,0-0.2,0-0.2,0c-4.2,0-8.4,0-12.4,0c-0.6,0.1-1.2-0.4-1.2-1c0-0.1,0-0.2,0-0.3c0-4.4,0-8.4,0-12.4
			c0-0.8,0.5-1.3,1.4-1.3c1.1,0,2.2,0,3.4,0h1.4v-2.6H12.2v2.6h1.4c1.1,0,2.1,0,3.2,0c1.2,0,1.6,0.4,1.6,1.6c0,4.1,0,8,0,11.7
			c0,1.2-0.4,1.6-1.6,1.6C14.9,77.3,12.9,77.3,11,77.3 M6.9,62.4c-0.6,0-1.2,0-1.9,0c-1.1,0-1.5,0.4-1.5,1.5c0,3.8,0,7.8,0,11.7
			c0,1.1,0.4,1.5,1.5,1.5c3.9,0,7.8,0,11.8,0c1.1,0,1.5-0.4,1.5-1.5c0-3.8,0-7.6,0-11.7c0-1.2-0.4-1.5-1.6-1.5c-1.1,0-2.1,0-3.2,0
			h-1.5v-2.8h25.2v2.8h0h-1.5c-1.2,0-2.3,0-3.4,0c-0.9,0-1.3,0.4-1.3,1.2c0,4,0,8,0,12.4c0,0.8,0.4,1.2,1.1,1.2c4,0,8.2,0,12.4,0
			c0.6,0.1,1.1-0.4,1.2-0.9c0-0.1,0-0.2,0-0.3c0-4,0-8.2,0-12.4c0.1-0.6-0.4-1.1-0.9-1.2c-0.1,0-0.2,0-0.3,0c-1,0-2,0-3,0h-1.2h-0.8
			v-2.8h25.2v2.8h-1.4c-1.1,0-2.1,0-3.2,0c-0.9,0-1.4,0.4-1.4,1.3c0,4.1,0,8.2,0,12.3c-0.1,0.6,0.4,1.2,1,1.2c0.1,0,0.2,0,0.3,0
			c4.2,0,8.3,0,12.4,0c0.6,0.1,1.2-0.4,1.2-1c0-0.1,0-0.1,0-0.2c0-0.4,0-0.9,0-1.3c0-0.2,0-0.4,0-0.6c0-0.9,0-1.8,0-2.8
			c0-2.5,0-5,0-7.5c0-1-0.4-1.4-1.4-1.4c-0.4,0-0.8,0-1.2,0h-3.8l0,0c0-0.1,0-0.1-0.1-0.1c0,0,0-0.1,0-0.1c0-1,0-2.1,0-3.1
			c0-1.4-0.3-1.7-1.7-1.7H39.7v-3.5h0h2.2c1.7,0,3.2,0,4.9,0c1.9,0.2,3.6-1.3,3.8-3.2c0-0.2,0-0.4,0-0.6c0-8.3,0-16.5,0-24.4
			c0.2-1.9-1.2-3.6-3.1-3.8c-0.2,0-0.4,0-0.6,0c-5.3,0-10.9,0-16.6,0c-1.9-0.2-3.6,1.2-3.7,3.1c0,0.2,0,0.4,0,0.6
			c0,8.7,0,16.7,0,24.5c-0.1,1.9,1.3,3.6,3.2,3.7c0.2,0,0.4,0,0.5,0c1.4,0,2.9,0,4.3,0c0.6,0,1.3,0,1.9,0h0.9v3.5H11.5
			c-1.3,0-1.7,0.3-1.7,1.7c0,0.8,0,1.5,0,2.3v1.1L6.9,62.4 M71.4,74.9H61.2V64.8h10.2V74.9z M61.3,74.8h10v-10h-10V74.8z M16.1,74.9
			H5.9V64.8h10.2L16.1,74.9z M6,74.8h10v-10H6L6,74.8z M43.6,74.9H33.5V64.8h10.1V74.9z M33.6,74.8h10v-10h-10L33.6,74.8z
			 M38.5,51.5c-2.7,0-5.4,0-8.1,0c-1.2,0-1.6-0.4-1.6-1.6c0-8.6,0-16.5,0-24.2c0-1.2,0.4-1.6,1.6-1.6c5.4,0,10.9,0,16.4,0
			c1.2,0,1.6,0.4,1.6,1.6c0,2.9,0,5.8,0,8.7v6.8c0,2.9,0,5.7,0,8.6c0,1.2-0.4,1.6-1.6,1.6C44,51.5,41.3,51.5,38.5,51.5 M38.6,24.2
			c-2.8,0-5.5,0-8.3,0c-1.1,0-1.5,0.3-1.5,1.5c0,7.7,0,15.7,0,24.2c0,1.2,0.4,1.5,1.5,1.5c5.5,0,11,0,16.3,0c1.2,0,1.5-0.4,1.5-1.6
			c0-2.9,0-5.7,0-8.6v-3.5l0,0v-3.3c0-2.9,0-5.8,0-8.7c0-1.2-0.3-1.6-1.5-1.6C44,24.2,41.3,24.2,38.6,24.2"/>
		<path id="패스_934" class="st1" d="M64.5,24.9c1.6,0.3,3.1,0.7,4.6,1.3c5.5,2.3,8.8,8,8.1,13.9C76.4,46,71.8,50.7,66,51.6
			c-0.6,0.1-1.1,0.1-1.7,0.1c-2.9,0-5.7,0-8.6,0c-0.9,0-1.4-0.5-1.4-1.2s0.6-1.2,1.5-1.2c2.8,0,5.6,0,8.5,0
			c6-0.1,10.8-5.1,10.7-11.2c-0.1-6-5-10.7-11-10.7c-1.8,0-2.1-0.3-1.8-2c1.6-11.1-6.1-21.3-17.2-22.9C34.8,1.2,25.2,7.4,22.5,17.2
			c-0.4,1.6-0.6,1.7-2.3,1.4c-8.4-1.3-16.3,4.5-17.6,12.9s4.5,16.3,12.9,17.6c0.8,0.1,1.5,0.2,2.3,0.2c1.3,0,2.6,0,3.9,0
			c0.9,0,1.4,0.5,1.4,1.2c0,0.7-0.5,1.1-1.4,1.1c-3,0-6,0.2-9-0.7C3.3,48.2-2.1,38.3,0.8,28.9c2-6.5,7.4-11.3,14.2-12.4
			c1.6-0.2,3.1-0.2,4.7-0.2c0.5,0,0.7-0.1,0.9-0.6c3-8.5,8.9-13.8,17.8-15.3c12.3-2,23.9,6.2,25.9,18.5c0.3,1.7,0.4,3.5,0.3,5.3
			C64.4,24.4,64.5,24.8,64.5,24.9"/>
		<path id="패스_935" class="st1" d="M58.4,51.8h-2.7c-0.4,0-0.8-0.1-1.2-0.4c-0.2-0.2-0.3-0.5-0.3-0.8c0-0.7,0.6-1.2,1.5-1.2
			c1,0,2.1,0,3.1,0c1.8,0,3.6,0,5.4,0c2.5,0,5-0.9,6.9-2.6c4.6-3.9,5.2-10.8,1.3-15.4c-2.1-2.5-5.2-3.9-8.5-3.8
			c-0.8,0-1.4,0-1.7-0.4s-0.3-0.9-0.2-1.7c1.6-11-6.1-21.3-17.1-22.8C34.8,1.2,25.2,7.4,22.5,17.2c-0.4,1.6-0.6,1.7-2.3,1.5
			c-8.4-1.3-16.3,4.4-17.6,12.9S7,47.8,15.4,49.2c0.8,0.1,1.5,0.2,2.3,0.2c0.7,0,1.4,0,2.1,0c0.6,0,1.2,0,1.8,0
			c0.4,0,0.8,0.1,1.2,0.4c0.2,0.2,0.3,0.5,0.3,0.8c0,0.7-0.6,1.2-1.4,1.2h0c-0.5,0-0.9,0-1.4,0c-2.6,0.1-5.2-0.1-7.6-0.7
			C4.6,48.5-0.7,40.7,0.1,32.3c0.3-3.9,2-7.5,4.7-10.4C7.4,19,11,17,14.9,16.4c1.2-0.2,2.4-0.2,3.6-0.2c0.4,0,0.7,0,1.1,0
			c0.5,0,0.7-0.1,0.8-0.5c3-8.7,9-13.9,17.8-15.4c5.7-1,11.7,0.3,16.5,3.6c4.7,3.2,8,8.1,9.2,13.7c0.5,2.2,0.7,4.4,0.5,6.6
			c0,0.2,0,0.4,0,0.6c0,0.1,0,0.1,0,0.2c0.5,0.1,1,0.2,1.5,0.4c1.1,0.2,2.1,0.5,3.1,0.9c5.5,2.3,8.8,8,8.1,13.9
			C76.4,46,71.9,50.7,66,51.6c-0.6,0.1-1.1,0.1-1.7,0.1C62.2,51.8,60.2,51.8,58.4,51.8 M56.8,49.4h-1.1c-0.9,0-1.4,0.4-1.4,1.1
			c0,0.3,0.1,0.6,0.3,0.8c0.3,0.3,0.7,0.4,1.1,0.4c2.4,0,5.5,0,8.6,0c0.6,0,1.1-0.1,1.7-0.1c7.2-1.1,12.2-7.8,11.1-15.1
			c-0.7-4.6-3.7-8.4-8-10.2c-1-0.4-2-0.7-3.1-0.9c-0.5-0.1-1-0.2-1.5-0.4l0,0v0c0-0.1,0-0.1,0-0.2c0-0.2,0-0.4,0-0.6
			c0.2-2.2,0-4.4-0.5-6.5C62.7,12.1,59.4,7.2,54.7,4c-4.8-3.3-10.7-4.6-16.4-3.6C29.6,1.9,23.6,7,20.6,15.7
			c-0.2,0.5-0.4,0.6-0.9,0.6c-0.4,0-0.7,0-1.1,0c-1.2,0-2.4,0-3.6,0.2C11,17.1,7.5,19,4.8,22c-2.7,2.8-4.3,6.5-4.6,10.3
			c-0.7,8.4,4.5,16.2,12.6,18.7c2.5,0.6,5.1,0.9,7.6,0.7c0.5,0,0.9,0,1.4,0h0c0.8,0,1.3-0.4,1.3-1.1c0-0.3-0.1-0.6-0.3-0.8
			c-0.3-0.3-0.7-0.4-1.1-0.4c-0.6,0-1.2,0-1.8,0c-0.7,0-1.4,0-2.1,0c-8.6,0-15.5-7-15.4-15.6s7-15.5,15.6-15.4
			c0.8,0,1.5,0.1,2.3,0.2c1.7,0.3,1.8,0.1,2.3-1.4C25.4,6.4,36.5,0.1,47.3,3C57.2,5.7,63.5,15.4,62,25.5c-0.1,0.9-0.1,1.4,0.2,1.6
			s0.7,0.4,1.6,0.3c6-0.1,11,4.7,11.1,10.7c0,0.8,0,1.5-0.2,2.2c-0.5,2.5-1.8,4.8-3.7,6.4c-1.9,1.6-4.4,2.6-6.9,2.6
			c-1.8,0-3.6,0-5.4,0L56.8,49.4"/>
		<path id="패스_936" class="st1" d="M40.9,39.6c0.8,0,1.7,0,2.5,0c0.9,0,1.3,0.5,1.3,1.2c0,0.7-0.5,1.1-1.4,1.2c-1.7,0-3.4,0-5,0
			c-0.9,0-1.4-0.5-1.4-1.2s0.5-1.1,1.4-1.2S40.1,39.6,40.9,39.6"/>
		<path id="패스_937" class="st1" d="M40.9,42c-0.8,0-1.7,0-2.5,0S37,41.5,37,40.8s0.5-1.2,1.4-1.2c0.6,0,1.2,0,1.8,0
			c0.5,0,1,0,1.5,0c0.6,0,1.2,0,1.7,0c0.9,0,1.4,0.5,1.4,1.2c0,0.8-0.5,1.2-1.4,1.2C42.6,42,41.7,42,40.9,42 M39.4,39.7
			c-0.3,0-0.7,0-1,0c-0.8,0-1.3,0.4-1.3,1.1c0,0.7,0.5,1.1,1.3,1.1c1.7,0,3.4,0,5,0c0.8,0,1.3-0.4,1.3-1.1s-0.5-1.1-1.3-1.1
			c-0.6,0-1.2,0-1.7,0h-0.8h-0.8L39.4,39.7"/>
		<path id="패스_938" class="st1" d="M36,48c-0.8,0-1.6,0-2.4,0c-0.6,0.1-1.2-0.4-1.3-1c-0.1-0.6,0.4-1.2,1-1.3c0.1,0,0.1,0,0.2,0
			c1.6,0,3.2,0,4.9,0c0.6,0,1.2,0.4,1.2,1.1c0,0,0,0.1,0,0.1c0,0.7-0.6,1.2-1.2,1.1c0,0,0,0-0.1,0C37.6,48,36.8,48,36,48"/>
		<path id="패스_939" class="st1" d="M34.6,48c-0.3,0-0.6,0-0.9,0c-0.7,0.1-1.3-0.4-1.3-1.1c0,0,0,0,0-0.1c0-0.3,0.1-0.6,0.3-0.8
			c0.3-0.3,0.6-0.4,1-0.4c1.7,0,3.3,0,4.9,0c0.4,0,0.7,0.1,1,0.4c0.2,0.2,0.3,0.5,0.3,0.8c0,0.7-0.6,1.2-1.3,1.2c0,0,0,0-0.1,0
			c-0.6,0-1.1,0-1.7,0c-0.5,0-1,0-1.4,0L34.6,48 M36.1,45.7c-0.8,0-1.6,0-2.5,0c-0.3,0-0.7,0.1-0.9,0.4c-0.2,0.2-0.3,0.5-0.3,0.8
			c0,0.6,0.5,1.1,1.2,1.1c0,0,0.1,0,0.1,0c0.6,0,1.1,0,1.7,0H36h0.7c0.6,0,1.1,0,1.7,0c0.6,0.1,1.2-0.4,1.3-1c0,0,0-0.1,0-0.1
			c0-0.3-0.1-0.6-0.3-0.8c-0.2-0.2-0.6-0.4-0.9-0.4C37.7,45.7,36.9,45.7,36.1,45.7"/>
		<path id="패스_940" class="st1" d="M36,33.7c0.8,0,1.6,0,2.4,0c0.6-0.1,1.2,0.4,1.3,1c0.1,0.6-0.4,1.2-1,1.3c-0.1,0-0.2,0-0.2,0
			c-1.6,0-3.2,0-4.8,0c-0.7,0.1-1.2-0.4-1.3-1.1c0,0,0-0.1,0-0.1c0-0.6,0.6-1.2,1.2-1.1c0,0,0.1,0,0.1,0
			C34.4,33.7,35.2,33.7,36,33.7"/>
		<path id="패스_941" class="st1" d="M36.1,36c-0.8,0-1.6,0-2.4,0c-0.4,0-0.8-0.1-1-0.4c-0.2-0.2-0.3-0.5-0.3-0.8
			c0-0.7,0.6-1.2,1.2-1.2c0,0,0.1,0,0.1,0c0.6,0,1.1,0,1.7,0c0.5,0,1,0,1.5,0c0.5,0,1.1,0,1.7,0c0.7,0,1.2,0.5,1.2,1.2
			S39.1,36,38.4,36l0,0C37.7,36,36.9,36,36.1,36 M34.6,33.7c-0.3,0-0.6,0-0.9,0c-0.6-0.1-1.2,0.4-1.3,1c0,0,0,0.1,0,0.1
			c0,0.3,0.1,0.6,0.3,0.8c0.3,0.3,0.6,0.4,1,0.4c1.8,0,3.3,0,4.8,0c0.6,0.1,1.2-0.4,1.2-1c0.1-0.6-0.4-1.2-1-1.2c-0.1,0-0.1,0-0.2,0
			c-0.6,0-1.1,0-1.7,0H36h-0.7L34.6,33.7"/>
		<path id="패스_942" class="st1" d="M41.1,30c-0.8,0-1.6,0-2.3,0c-0.6,0.1-1.2-0.4-1.2-1.1c-0.1-0.6,0.4-1.2,1.1-1.2
			c0,0,0.1,0,0.1,0c1.6,0,3.3,0,4.9,0c0.6,0,1.2,0.5,1.2,1.1c0,0,0,0.1,0,0.1c0,0.6-0.5,1.1-1.1,1.1c0,0-0.1,0-0.1,0
			C42.7,30,41.9,30,41.1,30"/>
		<path id="패스_943" class="st1" d="M39.7,30c-0.3,0-0.6,0-0.9,0c-0.7,0-1.2-0.5-1.2-1.2s0.5-1.2,1.2-1.2l0,0c1.7,0,3.3,0,4.9,0
			c0.6,0,1.2,0.5,1.2,1.1c0,0,0,0.1,0,0.1c0,0.6-0.5,1.2-1.1,1.2c0,0-0.1,0-0.1,0c-0.6,0-1.1,0-1.7,0c-0.3,0-0.5,0-0.8,0h-0.7
			L39.7,30 M41.1,27.7c-0.8,0-1.6,0-2.4,0c-0.6,0-1.1,0.5-1.2,1.1c0,0.6,0.5,1.1,1.1,1.2c0.1,0,0.1,0,0.2,0c0.5,0,1.1,0,1.6,0h0.7
			c0.3,0,0.5,0,0.8,0c0.5,0,1.1,0,1.7,0c0.6,0,1.1-0.4,1.2-1c0,0,0-0.1,0-0.1c0-0.6-0.5-1.1-1.1-1.1c0,0-0.1,0-0.1,0
			C42.8,27.7,42,27.7,41.1,27.7"/>
		<path id="패스_944" class="st1" d="M34.4,30c-0.3,0-0.6,0-0.9,0c-0.6,0-1.1-0.5-1.1-1c0,0,0,0,0,0c-0.1-0.6,0.3-1.1,0.9-1.2
			c0,0,0,0,0.1,0c0.7-0.1,1.3-0.1,2,0c0.6,0,1,0.5,1,1.1c0,0,0,0.1,0,0.1c0,0.6-0.5,1.1-1.1,1.1c0,0,0,0,0,0
			C34.9,30,34.7,30,34.4,30"/>
		<path id="패스_945" class="st1" d="M34.9,30c-0.1,0-0.2,0-0.3,0s-0.2,0-0.3,0s-0.2,0-0.3,0c-0.2,0-0.4,0-0.6,0
			c-0.7,0-1.2-0.6-1.1-1.2c0-0.6,0.5-1,1-1.1c0.7-0.1,1.3-0.1,2,0c0.6,0,1.1,0.6,1,1.2c0,0,0,0,0,0.1c0,0.6-0.5,1.1-1.1,1.1
			c0,0,0,0,0,0C35.1,30,35,30,34.9,30 M34.4,29.9L34.4,29.9c0.1,0,0.2,0,0.3,0c0.2,0,0.4,0,0.6,0c0.6,0,1-0.4,1.1-1c0,0,0,0,0,0
			c0.1-0.6-0.3-1.1-0.8-1.1c0,0-0.1,0-0.1,0c-0.7-0.1-1.3-0.1-2,0c-0.6,0-1,0.5-1,1.1c0,0,0,0,0,0.1c0,0.6,0.4,1,1,1.1c0,0,0,0,0,0
			c0.2,0,0.4,0,0.6,0C34.2,29.9,34.3,29.9,34.4,29.9"/>
		<path id="패스_946" class="st1" d="M42.8,33.7c0.3,0,0.5,0,0.8,0c0.6,0,1.1,0.5,1.1,1.2c0,0.6-0.5,1.1-1.1,1.1
			c-0.6,0-1.1,0-1.7,0c-0.6,0-1.1-0.5-1.1-1.2c0-0.6,0.5-1.1,1.2-1.1C42.3,33.6,42.6,33.7,42.8,33.7"/>
		<path id="패스_947" class="st1" d="M42.8,36c-0.3,0-0.6,0-0.9,0c-0.7,0-1.2-0.6-1.1-1.2c0-0.6,0.5-1.1,1.2-1.1
			c0.2,0,0.4,0,0.6,0c0.1,0,0.2,0,0.3,0l0,0h0.2c0.2,0,0.4,0,0.5,0c0.7,0,1.2,0.6,1.2,1.2c0,0.6-0.5,1.1-1.1,1.2
			C43.4,36,43.1,36,42.8,36 M42.3,33.7c-0.1,0-0.2,0-0.3,0c-0.6,0-1.1,0.5-1.1,1.1c0,0.6,0.5,1.1,1.1,1.1c0.6,0,1.1,0,1.7,0
			c0.6,0,1.1-0.6,1-1.2c0-0.6-0.5-1-1.1-1.1c-0.2,0-0.4,0-0.5,0h-0.2h-0.3L42.3,33.7"/>
		<path id="패스_948" class="st1" d="M42.8,48c-0.3,0-0.6,0-0.9,0c-0.6,0-1.1-0.5-1-1.1c0,0,0,0,0,0c0-0.6,0.4-1.1,1-1.1
			c0,0,0,0,0,0c0.6-0.1,1.2-0.1,1.8,0c0.6,0,1.1,0.5,1.1,1.2c0,0,0,0,0,0c0,0.6-0.5,1.1-1.1,1.1C43.4,48,43.1,48,42.8,48L42.8,48"/>
		<path id="패스_949" class="st1" d="M42.3,48c-0.1,0-0.2,0-0.4,0c-0.7-0.1-1.1-0.6-1.1-1.3c0.1-0.6,0.5-1,1.1-1.1
			c0.6-0.1,1.2-0.1,1.8,0c0.7,0.1,1.1,0.7,1,1.3c-0.1,0.6-0.5,1-1.1,1.1c-0.2,0-0.4,0-0.5,0c-0.1,0-0.2,0-0.2,0h0v0
			c-0.1,0-0.2,0-0.2,0S42.4,48,42.3,48 M42.8,45.7c-0.3,0-0.6,0-0.9,0c-0.6,0-1,0.5-1,1.1c0,0,0,0,0,0c0,0.6,0.4,1.1,1,1.1l0,0
			c0.2,0,0.4,0,0.6,0c0.1,0,0.2,0,0.3,0h0v0h0.2c0.2,0,0.4,0,0.5,0c0.6,0,1.1-0.5,1.1-1.1c0-0.6-0.4-1.1-1-1.1c0,0,0,0,0,0
			C43.3,45.7,43,45.7,42.8,45.7"/>
		<path id="패스_950" class="st1" d="M34.1,42c-0.3,0-0.5,0-0.7,0c-0.6,0-1-0.5-1-1.1c-0.1-0.6,0.3-1.1,0.9-1.2c0,0,0,0,0.1,0
			c0.5-0.1,1-0.1,1.5,0c0.6,0,1,0.5,1,1.1c0,0,0,0,0,0.1c0,0.6-0.4,1-1,1.1C34.6,42,34.3,42,34.1,42"/>
		<path id="패스_951" class="st1" d="M34.1,42L34.1,42l-0.2,0c-0.2,0-0.3,0-0.5,0c-0.6,0-1.1-0.5-1-1.1c-0.1-0.6,0.3-1.1,0.9-1.2
			c0,0,0,0,0.1,0c0.5-0.1,1-0.1,1.6,0c0.6,0,1.1,0.6,1,1.2c0,0,0,0,0,0.1c0,0.6-0.5,1.1-1,1.1c-0.2,0-0.4,0-0.5,0
			C34.2,42,34.2,42,34.1,42L34.1,42z M34.1,39.7c-0.3,0-0.5,0-0.8,0c-0.6,0.1-1,0.6-1,1.2c0.1,0.5,0.5,0.9,1,1c0.2,0,0.3,0,0.5,0
			l0.2,0l0.2,0c0.2,0,0.3,0,0.5,0c0.6,0,1-0.5,1-1c0.1-0.6-0.3-1.1-0.9-1.1c0,0-0.1,0-0.1,0C34.6,39.7,34.3,39.7,34.1,39.7"/>
	</g>
</g>
</svg>
