<svg xmlns="http://www.w3.org/2000/svg" xmlns:xlink="http://www.w3.org/1999/xlink" width="225.573" height="23.93" viewBox="0 0 225.573 23.93">
  <defs>
    <clipPath id="clip-path">
      <rect id="사각형_1656" data-name="사각형 1656" width="225.573" height="23.93" transform="translate(0 0)" fill="none"/>
    </clipPath>
    <clipPath id="clip-path-2">
      <path id="패스_3461" data-name="패스 3461" d="M76.047,0V10.476c0,1,.283,6.61,6.928,8.871,6.645-2.261,6.931-7.873,6.931-8.871V0Z" fill="none"/>
    </clipPath>
    <radialGradient id="radial-gradient" cx="-0.124" cy="-0.067" r="0.96" gradientTransform="matrix(1.396, 0, 0, -1, 2.173, 2.474)" gradientUnits="objectBoundingBox">
      <stop offset="0" stop-color="#69b5e6"/>
      <stop offset="0.074" stop-color="#49a3dc"/>
      <stop offset="0.209" stop-color="#1487cc"/>
      <stop offset="0.275" stop-color="#007cc6"/>
      <stop offset="1" stop-color="#00287a"/>
    </radialGradient>
  </defs>
  <g id="그룹_3565" data-name="그룹 3565" transform="translate(0 0)">
    <g id="그룹_3560" data-name="그룹 3560">
      <g id="그룹_3559" data-name="그룹 3559" clip-path="url(#clip-path)">
        <path id="패스_3446" data-name="패스 3446" d="M203.941,4.374v2.4H201.57V5.026h-3v2.5H194.8v-2.5h-3v7.913a.859.859,0,0,0,.883.835l8.881,0V11.8h2.371v2.913h3V4.374h-3Zm-5.37,7.468H194.8v-2.4h3.768Zm5.37-1.972h-2.37V8.695h2.37Z" fill="#00287a"/>
        <path id="패스_3447" data-name="패스 3447" d="M201.292,14.714a4.782,4.782,0,0,0-4.992,4.525,5.015,5.015,0,0,0,9.982,0,4.782,4.782,0,0,0-4.99-4.525m-.005,7.05a2.381,2.381,0,0,1-2.191-2.525,2.209,2.209,0,1,1,4.373,0,2.377,2.377,0,0,1-2.182,2.525" fill="#00287a"/>
        <path id="패스_3448" data-name="패스 3448" d="M112.374,4.37v5.819h-2.889v1.934h2.889V23.586h3.006V4.37Z" fill="#00287a"/>
        <path id="패스_3449" data-name="패스 3449" d="M172.76,9.339h-2.906V4.371h-3.006V15.142h3.006V11.27h2.906Z" fill="#00287a"/>
        <path id="패스_3450" data-name="패스 3450" d="M185.5,16.049h3V5.453H175.2V7.384h10.3Z" fill="#00287a"/>
        <path id="패스_3451" data-name="패스 3451" d="M184.287,12.429h-3v6.842H180.15V12.429h-3.007v6.842h-4.624v1.934h17.9V19.271h-6.135Z" fill="#00287a"/>
        <path id="패스_3452" data-name="패스 3452" d="M158.211,16.458v1.931h8.637v5.2h3.006V16.458Z" fill="#00287a"/>
        <path id="패스_3453" data-name="패스 3453" d="M164.868,10.668a4.154,4.154,0,0,0-.969-2.647h2.21V6.092h-4.552V3.677h-3.008V6.092H154V8.021h2.116a4.156,4.156,0,0,0-.971,2.647,4.883,4.883,0,0,0,9.725,0m-6.876,0a2.073,2.073,0,1,1,4.021,0,2.074,2.074,0,1,1-4.021,0" fill="#00287a"/>
        <path id="패스_3454" data-name="패스 3454" d="M106.934,10.185v0a14.849,14.849,0,0,1-.422-3.409V5.105h-3.19V6.773a14.956,14.956,0,0,1-.424,3.409,12.818,12.818,0,0,1-4.357,6.3l-.1.089,1.477,1.341.076-.055a16.467,16.467,0,0,0,4.924-5.218,16.482,16.482,0,0,0,4.922,5.218l.079.055,1.473-1.341-.1-.089a12.839,12.839,0,0,1-4.356-6.3" fill="#00287a"/>
        <path id="패스_3455" data-name="패스 3455" d="M148.868,4.37v5.819h-.91V4.37h-3v8.893a14.05,14.05,0,0,1-5.075.9h-.3v-7.2h3.931V5.021h-6.939V15.246a.861.861,0,0,0,.88.836l2.446,0a14.463,14.463,0,0,0,5.059-.87v8.371h3V12.123h.91V23.586h3V4.37Z" fill="#00287a"/>
        <path id="패스_3456" data-name="패스 3456" d="M117.053,12.787V14.72H124.6v1.217h-5.1v1.935h9.88V18.8H119.5V22.75a.86.86,0,0,0,.876.837h12.334V21.656H122.82V20.73h9.892V15.937h-5.105V14.72h7.55V12.787Z" fill="#00287a"/>
        <path id="패스_3457" data-name="패스 3457" d="M126.107,12.334c3.191,0,5.785-2.047,5.785-4.552s-2.594-4.546-5.785-4.546-5.789,2.041-5.789,4.546,2.6,4.552,5.789,4.552m0-7.232a2.6,2.6,0,0,1,2.5,2.68,2.51,2.51,0,1,1-5.008,0,2.607,2.607,0,0,1,2.507-2.68" fill="#00287a"/>
        <path id="패스_3458" data-name="패스 3458" d="M222.567,4.374v8.743H209.308V15.05h3.978v1.823h3.006V15.05h6.275v.785h-2.811v1.933h2.811v1.785h3.006V4.374Z" fill="#00287a"/>
        <path id="패스_3459" data-name="패스 3459" d="M216.292,17.737h-3.007v5.03a.863.863,0,0,0,.883.837h11.4V21.668h-9.281Z" fill="#00287a"/>
        <path id="패스_3460" data-name="패스 3460" d="M215.472,12.741a4.772,4.772,0,0,0,4.988-4.517,5.007,5.007,0,0,0-9.966,0,4.771,4.771,0,0,0,4.978,4.517m.005-7.1a2.376,2.376,0,0,1,2.083,2.583,2.129,2.129,0,1,1-4.161,0,2.379,2.379,0,0,1,2.078-2.583" fill="#00287a"/>
      </g>
    </g>
    <g id="그룹_3562" data-name="그룹 3562">
      <g id="그룹_3561" data-name="그룹 3561" clip-path="url(#clip-path-2)">
        <rect id="사각형_1657" data-name="사각형 1657" width="13.859" height="19.347" transform="translate(76.047 0)" fill="url(#radial-gradient)"/>
      </g>
    </g>
    <g id="그룹_3564" data-name="그룹 3564">
      <g id="그룹_3563" data-name="그룹 3563" clip-path="url(#clip-path)">
        <path id="패스_3462" data-name="패스 3462" d="M79.673,15.372l2.074-2.1L83.8,15.332H86.52V9.377H88.3V7.207H86.52V6.565H88.3v-2H86.458V2.017H80.731V3.99h3.494v8.583l-2.486-2.461-3.661,3.66Z" fill="#fff"/>
        <path id="패스_3463" data-name="패스 3463" d="M53,4H48.79V16.685c0,3.255-.552,4.908-3.566,4.908-2.9,0-3.473-1.8-3.473-4.908V4H37.385V16.9c0,3.654.95,7.035,7.839,7.035,6.972,0,7.932-3.381,7.932-7.035V4Z" fill="#00287a"/>
        <path id="패스_3464" data-name="패스 3464" d="M67.645,23.621h4.368V4H67.645v8.124H60.514V4H56.146V23.621h4.367V14.828h7.131Z" fill="#007cc6"/>
        <path id="패스_3465" data-name="패스 3465" d="M30.289,4V17.171C29.751,16.246,22.641,4,22.641,4h-4.68V23.621h4.065s0-12.832,0-13.872c.539.93,8.053,13.872,8.053,13.872h4.275V4H30.289Z" fill="#00287a"/>
        <path id="패스_3466" data-name="패스 3466" d="M9.131,11.654c-2.5-1.087-4.668-2.028-4.668-3.62,0-1.106,1.219-1.862,3.033-1.85a19.608,19.608,0,0,1,6.641,1.4l.244.1v-3.4L14.3,4.27a41.694,41.694,0,0,0-6.19-.58C3.034,3.69,0,5.608,0,8.82c0,3.394,3.377,4.934,6.356,6.293,2.464,1.126,4.789,2.186,4.789,4.108,0,2.066-3.152,2.153-3.511,2.153a15.516,15.516,0,0,1-7-1.991l-.258-.131v3.776l.3.068a28.189,28.189,0,0,0,6.241.833c5.908,0,9.03-2.036,9.03-5.885,0-3.428-3.621-5-6.817-6.39" fill="#00287a"/>
      </g>
    </g>
  </g>
</svg>
