<svg id="_03" data-name="03" xmlns="http://www.w3.org/2000/svg" xmlns:xlink="http://www.w3.org/1999/xlink" width="60" height="60" viewBox="0 0 60 60">
  <defs>
    <clipPath id="clip-path">
      <rect id="사각형_149496" data-name="사각형 149496" width="60" height="60" transform="translate(582 2046)" fill="#fff" stroke="#707070" stroke-width="1"/>
    </clipPath>
    <clipPath id="clip-path-2">
      <rect id="사각형_149497" data-name="사각형 149497" width="58.201" height="56.404" fill="none"/>
    </clipPath>
  </defs>
  <g id="마스크_그룹_24" data-name="마스크 그룹 24" transform="translate(-582 -2046)" clip-path="url(#clip-path)">
    <g id="그룹_14105" data-name="그룹 14105" transform="translate(582.984 2047)">
      <g id="그룹_14107" data-name="그룹 14107" transform="translate(0 0)">
        <g id="그룹_14106" data-name="그룹 14106" transform="translate(0 0)" clip-path="url(#clip-path-2)">
          <path id="패스_87494" data-name="패스 87494" d="M.578,56.405A1.427,1.427,0,0,1,0,55.088C.017,49.6.01,44.1.01,38.61c0-1.041.263-1.3,1.312-1.3q3.1,0,6.192,0h.626c.051-.621.051-1.208.156-1.776a4.476,4.476,0,0,1,4.312-3.671c1.723-.031,3.446-.009,5.169-.009,2.238,0,3.4-1.354,3.083-3.638h-.6c-2.48,0-4.961.006-7.442,0a8.182,8.182,0,0,1-1.723-16.2c.22-.048.443-.08.652-.118.5-6.069,3.5-10.129,9.488-11.6a11.74,11.74,0,0,1,12.894,6,6.268,6.268,0,0,1,6.422.108,6.333,6.333,0,0,1,3.121,5.634,8.413,8.413,0,0,1,4.053.13A8.179,8.179,0,0,1,45.558,28.21c-2.725.021-5.452,0-8.172,0a2.8,2.8,0,0,0,2.653,3.634c1.7.018,3.409,0,5.114.005a4.564,4.564,0,0,1,4.866,4.869v.587c.813,0,1.6.019,2.387-.008a1.5,1.5,0,0,1,1.211.489c1.518,1.553,3.055,3.09,4.585,4.634V56.405H40.585a1.383,1.383,0,0,1-.578-1.2c.017-5.567.01-11.135.012-16.7,0-.892.3-1.189,1.194-1.19q3.18,0,6.362,0h.586a2.948,2.948,0,0,0-3.253-3.658c-1.622.1-3.256.032-4.883.016a4.543,4.543,0,0,1-4.552-4.552c0-.294,0-.587,0-.869h-5.42V37.31c.81,0,1.584.019,2.357-.008a1.506,1.506,0,0,1,1.208.491q2.03,2.067,4.1,4.1a1.562,1.562,0,0,1,.491,1.21q-.019,5.994,0,11.988a1.429,1.429,0,0,1-.578,1.317H20.582A1.387,1.387,0,0,1,20,55.2c.017-5.567.01-11.135.012-16.7,0-.892.3-1.189,1.194-1.19q3.182,0,6.362,0h.578V28.215H22.742v.622A4.565,4.565,0,0,1,17.9,33.671c-1.648,0-3.295,0-4.942,0a2.825,2.825,0,0,0-2.862,3.638c.765,0,1.539.019,2.312-.008a1.506,1.506,0,0,1,1.208.491q2.03,2.067,4.1,4.1A1.562,1.562,0,0,1,18.2,43.1q-.019,5.994,0,11.988a1.429,1.429,0,0,1-.578,1.317ZM38.2,26.4c2.362,0,4.651,0,6.939,0,.3,0,.608.005.909-.025a6.362,6.362,0,1,0-2.911-12.252,1.067,1.067,0,0,1-1.22-.069c-.359-.325-.3-.716-.214-1.151A4.4,4.4,0,0,0,40,8.219a4.461,4.461,0,0,0-5.531.07c-.722.53-1.256.4-1.639-.394-.065-.136-.124-.276-.193-.41a9.684,9.684,0,0,0-8.359-5.606A9.966,9.966,0,0,0,13.657,12.255c.04,1.163-.145,1.368-1.284,1.422a6.362,6.362,0,0,0,.336,12.714c2.1.026,4.206.005,6.308.005h1c0-.965-.069-1.876.018-2.772a2.522,2.522,0,0,0-1-2.4c-.384-.311-.643-.543-1.21-.37a2.591,2.591,0,0,1-2.925-1.33,2.723,2.723,0,0,1,3.671-3.709,2.6,2.6,0,0,1,1.364,2.912,1,1,0,0,0,.394,1.247c.134.1.229.257.366.355a2.811,2.811,0,0,1,1.159,2.759c-.095,1.083-.021,2.181-.021,3.27H25.47c0-2.22.005-4.4-.012-6.574a.864.864,0,0,0-.248-.528c-.615-.643-1.237-1.284-1.888-1.888a1.723,1.723,0,0,1-.593-1.4c.031-1.875.008-3.75.016-5.626a.615.615,0,0,0-.363-.665A2.632,2.632,0,0,1,21.02,6.612a2.717,2.717,0,0,1,5.259-.01,2.643,2.643,0,0,1-1.35,3.073.621.621,0,0,0-.375.656c.012,1.762-.005,3.524.018,5.286a1.121,1.121,0,0,0,.288.679c.605.651,1.233,1.286,1.885,1.892a1.66,1.66,0,0,1,.551,1.356c-.027,1.5-.009,2.994-.009,4.49V26.36h3.638c0-1.758-.022-3.48.018-5.2a1.739,1.739,0,0,1,.406-1,14.121,14.121,0,0,1,1.6-1.609,1.884,1.884,0,0,0,.72-1.721.9.9,0,0,0-.511-.871,2.606,2.606,0,0,1-1.247-2.915,2.716,2.716,0,0,1,5.185-.362,2.507,2.507,0,0,1-.879,3.079,1.442,1.442,0,0,0-.751,1.6c.016.149-.012.3,0,.454a1.467,1.467,0,0,1-.525,1.308c-.637.594-1.258,1.208-1.842,1.854a1.392,1.392,0,0,0-.346.823c-.035,1.363-.017,2.728-.014,4.092,0,.161.021.323.034.5h3.6a11.865,11.865,0,0,0-.013-1.7,3.8,3.8,0,0,1,1.66-3.966.754.754,0,0,0,.28-.965,2.619,2.619,0,0,1,1.168-2.948A2.722,2.722,0,0,1,43.424,20.2,2.469,2.469,0,0,1,40.7,21.791c-.969-.284-1.381.194-1.892.739-.143.152-.31.284-.436.447a.741.741,0,0,0-.165.4c-.013.981-.006,1.964-.006,3.024M1.849,54.547H16.337a.812.812,0,0,0,.034-.148c0-3.652.009-7.3-.005-10.959a.93.93,0,0,0-.275-.572c-1.125-1.15-2.259-2.292-3.416-3.409a1.242,1.242,0,0,0-.778-.319c-3.179-.022-6.358-.014-9.539-.013-.163,0-.327.019-.508.031Zm20.027-15.42V54.541h14.5c0-3.735,0-7.425-.013-11.115a.928.928,0,0,0-.285-.568c-1.127-1.149-2.259-2.292-3.416-3.407a1.243,1.243,0,0,0-.783-.309c-2.4-.025-4.806-.014-7.21-.014h-2.8m20,0V54.545H56.383c0-3.751,0-7.459-.013-11.167a.862.862,0,0,0-.277-.515c-1.129-1.147-2.26-2.291-3.419-3.406a1.25,1.25,0,0,0-.779-.315c-1.684-.029-3.368-.014-5.053-.014ZM23.623,8.206a.905.905,0,1,0-.878-.934.917.917,0,0,0,.878.934m11.843,5.438a.9.9,0,1,0-.883.927.915.915,0,0,0,.883-.927M16.381,18.2a.905.905,0,1,0,.918-.892.915.915,0,0,0-.918.892m25.45.9a.905.905,0,1,0-.883.927.915.915,0,0,0,.883-.927" transform="translate(0 0)"/>
          <path id="패스_87495" data-name="패스 87495" d="M5.542,40.466c-.634,0-1.181.01-1.728,0a.9.9,0,0,1-.994-.985q-.021-1.733,0-3.464c.008-.663.355-.988,1.037-1,.543-.009,1.088,0,1.687,0,0-.6-.008-1.141,0-1.686A.926.926,0,0,1,6.6,32.286q1.675-.014,3.35,0a.927.927,0,0,1,1.045,1.052c.009.529,0,1.058,0,1.674.56,0,1.1-.005,1.64,0,.748.009,1.08.331,1.085,1.07q.012,1.647,0,3.295c-.005.748-.331,1.076-1.067,1.088-.528.008-1.055,0-1.658,0,0,.574.006,1.116,0,1.657-.012.738-.34,1.064-1.087,1.07q-1.647.012-3.293,0c-.74-.006-1.063-.337-1.072-1.083-.006-.526,0-1.053,0-1.644m3.637.886c0-.594-.006-1.123,0-1.651a.928.928,0,0,1,1.045-1.05c.543-.009,1.087,0,1.647,0V36.891c-.051-.03-.065-.047-.08-.047-.511-.006-1.022-.008-1.531-.017-.743-.012-1.07-.335-1.08-1.074-.008-.541,0-1.081,0-1.609H7.36c0,.573.006,1.1,0,1.631a.93.93,0,0,1-1.045,1.05c-.543.01-1.087,0-1.645,0v1.819c.56,0,1.087-.005,1.613,0,.742.01,1.068.335,1.079,1.075.006.541,0,1.08,0,1.627Z" transform="translate(0.833 9.572)"/>
          <path id="패스_87496" data-name="패스 87496" d="M26.423,40.466c0,.6.006,1.131,0,1.658-.01.714-.336,1.061-1.031,1.067q-1.7.017-3.406,0a.917.917,0,0,1-1.014-1.026c-.01-.546,0-1.09,0-1.7-.589,0-1.131.008-1.674,0a.927.927,0,0,1-1.052-1.045q-.016-1.674,0-3.35a.926.926,0,0,1,1.04-1.055c.545-.01,1.088,0,1.687,0,0-.6-.008-1.142,0-1.686a.926.926,0,0,1,1.057-1.04q1.674-.014,3.35,0a.927.927,0,0,1,1.044,1.053c.009.529,0,1.058,0,1.673.563,0,1.1-.005,1.643,0,.746.009,1.077.332,1.084,1.071q.012,1.647,0,3.295c-.005.747-.332,1.076-1.068,1.087-.528.008-1.055,0-1.658,0m.887-3.637c-.593,0-1.12.006-1.648,0a.931.931,0,0,1-1.054-1.042c-.009-.543,0-1.087,0-1.651h-1.82c0,.559.006,1.085,0,1.61-.01.744-.335,1.072-1.072,1.083-.539.008-1.08,0-1.609,0v1.819h.835c.265,0,.529,0,.793,0a.933.933,0,0,1,1.053,1.045c.009.542,0,1.087,0,1.648h1.82c0-.559-.006-1.085,0-1.612.009-.744.331-1.071,1.071-1.08.539-.008,1.08,0,1.631,0Z" transform="translate(5.408 9.572)"/>
          <path id="패스_87497" data-name="패스 87497" d="M41.852,40.467c0,.634.01,1.182,0,1.73a.905.905,0,0,1-.988.993q-1.731.021-3.463,0a.905.905,0,0,1-1-.985c-.014-.548,0-1.1,0-1.739-.534,0-1.055,0-1.575,0-.827-.005-1.147-.312-1.151-1.119q-.008-1.618,0-3.236c.005-.775.329-1.09,1.114-1.1.51-.005,1.019,0,1.613,0,0-.564-.005-1.1,0-1.645.009-.746.332-1.075,1.072-1.08,1.118-.008,2.234-.01,3.35,0A.918.918,0,0,1,41.85,33.3c.012.546,0,1.092,0,1.713.556,0,1.079,0,1.6,0,.788.006,1.119.322,1.124,1.088q.012,1.647,0,3.293c-.005.739-.338,1.062-1.084,1.072-.526.006-1.053,0-1.641,0m-1.818-6.336H38.215c0,.534,0,1.04,0,1.545-.005.843-.318,1.147-1.173,1.153-.5,0-1.009,0-1.513,0v1.78a.83.83,0,0,0,.147.034c.454,0,.908,0,1.361.006.88.005,1.176.306,1.18,1.2,0,.5,0,1,0,1.495h1.819c0-.535,0-1.041,0-1.547.006-.844.315-1.146,1.173-1.151.5,0,1.009,0,1.514,0V36.829c-.567,0-1.093.006-1.621,0-.735-.012-1.057-.34-1.066-1.088-.006-.525,0-1.05,0-1.609" transform="translate(9.984 9.572)"/>
        </g>
      </g>
    </g>
  </g>
</svg>
