<svg id="_02" data-name="02" xmlns="http://www.w3.org/2000/svg" xmlns:xlink="http://www.w3.org/1999/xlink" width="60" height="60" viewBox="0 0 60 60">
  <defs>
    <clipPath id="clip-path">
      <rect id="사각형_149493" data-name="사각형 149493" width="60" height="60" transform="translate(582 2046)" fill="#fff" stroke="#707070" stroke-width="1"/>
    </clipPath>
    <clipPath id="clip-path-2">
      <rect id="사각형_149494" data-name="사각형 149494" width="58.201" height="58.262" fill="none"/>
    </clipPath>
  </defs>
  <g id="마스크_그룹_23" data-name="마스크 그룹 23" transform="translate(-582 -2046)" clip-path="url(#clip-path)">
    <g id="그룹_14103" data-name="그룹 14103" transform="translate(582.984 2047)">
      <g id="그룹_14102" data-name="그룹 14102" clip-path="url(#clip-path-2)">
        <path id="패스_87490" data-name="패스 87490" d="M58.2,27.4v3.521c-.194,1.329-.333,2.669-.59,3.986a29.055,29.055,0,0,1-23.4,22.9c-1.072.185-2.154.311-3.231.465H27.341a4.373,4.373,0,0,0-.512-.1,28.672,28.672,0,0,1-12.517-3.945A29.039,29.039,0,0,1,.345,24.782,28.227,28.227,0,0,1,10.665,6.665a28.624,28.624,0,0,1,31.988-3.21c8.306,4.406,13.3,11.395,15.088,20.644.21,1.088.31,2.2.461,3.3M29.124,16.011A13.145,13.145,0,1,0,42.243,29.1,13.152,13.152,0,0,0,29.124,16.011m16.011-3.755a39.18,39.18,0,0,1,3.672,15.922h7.466a1.3,1.3,0,0,0,.021-.21c-.066-.759-.109-1.521-.206-2.276A26.8,26.8,0,0,0,50.64,12.548a.767.767,0,0,0-.518-.279c-1.621-.021-3.242-.013-4.986-.013M48.8,30.126a39.192,39.192,0,0,1-3.666,15.931c1.652,0,3.213-.012,4.774.009a.9.9,0,0,0,.824-.406,27.218,27.218,0,0,0,4.765-9.9,26.337,26.337,0,0,0,.789-5.631ZM13.065,12.256c-1.656,0-3.218.012-4.779-.009a.9.9,0,0,0-.822.41A26.567,26.567,0,0,0,2.5,23.472c-.318,1.537-.461,3.109-.691,4.709H9.395a39.18,39.18,0,0,1,3.67-15.924M1.957,30.112a.725.725,0,0,0-.047.161A26.92,26.92,0,0,0,7.592,45.8a.637.637,0,0,0,.417.247c1.655.017,3.31.011,5.054.011a39.677,39.677,0,0,1-2.684-7.785,42.283,42.283,0,0,1-1-8.159ZM36.091,12.256c.206,1.278.384,2.494.613,3.7a1.025,1.025,0,0,0,.454.541,14.878,14.878,0,0,1,6.62,9.633c.146.68.227,1.373.335,2.048h2.9c-.183-1.772-.3-3.5-.549-5.217a34.75,34.75,0,0,0-3.207-10.3.726.726,0,0,0-.477-.392c-2.206-.026-4.412-.017-6.693-.017M14.119,28.187c.04-.365.063-.714.117-1.057A14.949,14.949,0,0,1,21.13,16.452a.791.791,0,0,0,.359-.415c.223-1.241.414-2.488.622-3.781-2.18,0-4.307.011-6.435-.01a.739.739,0,0,0-.791.5A36.961,36.961,0,0,0,11.408,25.5c-.079.887-.1,1.779-.146,2.72.844,0,1.6,0,2.361,0,.152,0,.3-.017.5-.029M11.3,30.112c-.009.145-.021.239-.019.333A36.855,36.855,0,0,0,14.951,45.7a.583.583,0,0,0,.637.364c1.211-.015,2.423-.006,3.634-.006h2.884c-.182-1.158-.372-2.253-.519-3.354a1.248,1.248,0,0,0-.624-.968,14.67,14.67,0,0,1-6.433-9.091c-.2-.827-.307-1.678-.459-2.531Zm32.782.01c-.041.368-.065.716-.119,1.06a14.962,14.962,0,0,1-6.889,10.679.788.788,0,0,0-.357.415c-.224,1.24-.414,2.487-.623,3.781,2.182,0,4.309-.012,6.436.01a.737.737,0,0,0,.788-.5,36.99,36.99,0,0,0,3.474-12.753c.079-.886.1-1.778.146-2.69Zm-19.6-19.774h9.242c-.141-.529-.259-1.02-.4-1.5a17.708,17.708,0,0,0-2.532-5.76c-1.158-1.542-2.221-1.551-3.367,0-1.587,2.151-2.253,4.687-2.94,7.262m9.25,37.616h-9.25c.18.662.332,1.286.521,1.9a16.579,16.579,0,0,0,2.458,5.41c1.145,1.482,2.17,1.494,3.292,0,1.618-2.158,2.28-4.716,2.98-7.306M32.681,55.85c4.2-1.478,7.009-4.315,9.3-7.88H35.655a26.309,26.309,0,0,1-2.974,7.88m9.3-45.5c-2.311-3.573-5.1-6.428-9.172-7.833C33.4,3.84,34.019,5.081,34.5,6.373s.828,2.634,1.241,3.979ZM22.463,47.965H16.3c1.332,3.051,6.64,7.546,9.044,7.73-.547-1.235-1.167-2.476-1.65-3.768s-.827-2.631-1.236-3.963m.075-37.6A26.613,26.613,0,0,1,25.513,2.47c-4.206,1.477-7,4.318-9.3,7.892ZM34.156,46.038,34.68,43.1a15.123,15.123,0,0,1-11.162,0l.533,2.935Zm0-33.753H24.041l-.517,2.923a15.111,15.111,0,0,1,11.154,0l-.518-2.923M48.782,47.934c-1.483,0-2.79.016-4.1-.01a.8.8,0,0,0-.822.471,23.274,23.274,0,0,1-4.371,5.463l-.632.586a25.613,25.613,0,0,0,9.922-6.51M38.9,3.833A27.892,27.892,0,0,1,42.98,8.5c.425.62.713,1.5,1.3,1.8a5.618,5.618,0,0,0,2.306.079c.689,0,1.377,0,2.2,0A26.277,26.277,0,0,0,38.9,3.833M9.59,47.934c.723,1.651,7.82,6.4,9.778,6.519a24.723,24.723,0,0,1-5.192-6.287.633.633,0,0,0-.474-.221c-1.368-.017-2.737-.01-4.113-.01M19.34,3.878a25.444,25.444,0,0,0-9.917,6.5c1.431,0,2.712-.018,3.992.01a.93.93,0,0,0,.965-.533A22.927,22.927,0,0,1,18.762,4.4c.191-.177.386-.351.578-.526" transform="translate(-0.001 0)"/>
        <path id="패스_87491" data-name="패스 87491" d="M159.493,170.47a3.665,3.665,0,0,1,2.045-3.318,3.553,3.553,0,0,1,3.877.277.637.637,0,0,0,.865.032c1.1-.738,2.229-1.447,3.363-2.139a.565.565,0,0,0,.294-.71,3.7,3.7,0,0,1,2.243-4.183,3.754,3.754,0,0,1,4.013,6.187,3.669,3.669,0,0,1-4.732.344.669.669,0,0,0-.916-.007q-1.639,1.08-3.313,2.108a.594.594,0,0,0-.31.707,5.685,5.685,0,0,1,0,1.446.559.559,0,0,0,.282.665q1.722,1.059,3.412,2.171a.6.6,0,0,0,.815-.032,3.766,3.766,0,0,1,5.91,3.733,3.613,3.613,0,0,1-2.794,2.994,3.754,3.754,0,0,1-4.617-4.347.627.627,0,0,0-.343-.8c-1.1-.668-2.188-1.365-3.264-2.077a.678.678,0,0,0-.917.007,3.531,3.531,0,0,1-3.875.27,3.667,3.667,0,0,1-2.036-3.331m3.765,1.885a1.875,1.875,0,1,0-1.863-1.873,1.889,1.889,0,0,0,1.863,1.873m12.212,4.67a1.875,1.875,0,1,0-1.835,1.9,1.884,1.884,0,0,0,1.835-1.9m-1.856-14.994a1.875,1.875,0,1,0,1.856,1.88,1.879,1.879,0,0,0-1.856-1.88" transform="translate(-140.741 -141.322)"/>
      </g>
    </g>
  </g>
</svg>
