<svg id="자궁암" xmlns="http://www.w3.org/2000/svg" xmlns:xlink="http://www.w3.org/1999/xlink" width="70" height="70" viewBox="0 0 70 70">
  <defs>
    <clipPath id="clip-path">
      <rect id="사각형_149751" data-name="사각형 149751" width="70" height="70" transform="translate(1321 1248)" fill="#fff" stroke="#707070" stroke-width="1"/>
    </clipPath>
    <clipPath id="clip-path-2">
      <rect id="사각형_149764" data-name="사각형 149764" width="71.13" height="56.176" fill="none"/>
    </clipPath>
  </defs>
  <g id="마스크_그룹_125" data-name="마스크 그룹 125" transform="translate(-1321 -1248)" clip-path="url(#clip-path)">
    <g id="그룹_14090" data-name="그룹 14090" transform="translate(1321 1254)">
      <g id="그룹_14089" data-name="그룹 14089" clip-path="url(#clip-path-2)">
        <path id="패스_87464" data-name="패스 87464" d="M71.126,15.838l0-1.892L71.1,13.9c-.013-.023-.029-.046-.045-.069s-.029-.042-.031-.048a7.25,7.25,0,0,0-8.765-5.825,9.948,9.948,0,0,0-6.224,3.794,4.242,4.242,0,0,1-4.452,1.771,4.459,4.459,0,0,1-2.3-1.339,19.22,19.22,0,0,0-6.907-4.355,1.584,1.584,0,1,0-1.15,2.944c.045.02.091.036.137.053a1.054,1.054,0,0,1,.161.067l1.05.6c1.083.618,2.2,1.257,3.3,1.9a3.936,3.936,0,0,1,1.916,3.87A15.25,15.25,0,0,1,41.8,29.689a2.055,2.055,0,0,0-.922,1.358,1.932,1.932,0,0,0,.623,1.423,5.285,5.285,0,0,1-.092,7.35,10.727,10.727,0,0,0-3.086,7.886c.033,2.616.025,5.277.018,7.85q0,1.7-.006,3.4v.627H32.928V58.93q0-1.708,0-3.417c0-2.612-.009-5.313.011-7.969a10.58,10.58,0,0,0-3-7.645,5.994,5.994,0,0,1-1.211-1.883,5.157,5.157,0,0,1,1.054-5.561,1.947,1.947,0,0,0,.6-1.418,1.927,1.927,0,0,0-.828-1.282c-.061-.049-.123-.1-.185-.144-.086-.066-.167-.127-.244-.194a15.026,15.026,0,0,1-5.387-14.273,1.443,1.443,0,0,1,.4-.744A16.221,16.221,0,0,1,29.6,10.887a3.131,3.131,0,0,0,1.005-.59,1.515,1.515,0,0,0,.141-1.92,1.574,1.574,0,0,0-1.956-.563A19.552,19.552,0,0,0,21.926,12.1a4.771,4.771,0,0,1-3.553,1.533,4.867,4.867,0,0,1-3.388-2.019,9.7,9.7,0,0,0-7.55-3.791A7.18,7.18,0,0,0,.58,12.12a7.076,7.076,0,0,0,1.565,7.86c.223.228.463.442.694.649l.2.178-.023.04-.139.25A5.194,5.194,0,0,0,2.84,26.16a5.1,5.1,0,0,0,4.241,2.6A4.826,4.826,0,0,0,11.745,26.2a4.829,4.829,0,0,0-.207-5.43,4.535,4.535,0,0,0-4.783-2.152A2.1,2.1,0,0,1,4.4,17.749a1.7,1.7,0,0,0-.116-.127c-.026-.026-.052-.053-.076-.081a3.682,3.682,0,0,1-.747-4.022,3.761,3.761,0,0,1,3.4-2.5,6.4,6.4,0,0,1,5.7,2.658,7.066,7.066,0,0,0,4.267,2.862,16.276,16.276,0,0,0,2.519.208c.319.01.647.02.976.038,0,.088,0,.2.006.3.015.294.024.588.033.882a19.634,19.634,0,0,0,.141,2.093,18.227,18.227,0,0,0,5.778,11.086c.234.217.283.279.134.543A8.387,8.387,0,0,0,27.59,42.046a7.888,7.888,0,0,1,2.174,5.678c-.022,2.479-.019,5-.016,7.437,0,1.838,0,3.739,0,5.608a1.927,1.927,0,0,0,1.182,2.014l.039.017H40.3l.039-.017a1.929,1.929,0,0,0,1.181-2.015c-.007-1.544,0-3.115,0-4.635.009-2.6.019-5.284-.036-7.926a8.673,8.673,0,0,1,2.448-6.477,7.868,7.868,0,0,0,1.931-7.425,13.887,13.887,0,0,0-.728-2.115c-.111-.276-.226-.559-.334-.846a18.481,18.481,0,0,0,6.147-14.569c.2,0,.4.007.593.011a13.486,13.486,0,0,0,1.635-.026,7.556,7.556,0,0,0,5.372-3.067,6.434,6.434,0,0,1,5.825-2.669,3.8,3.8,0,0,1,2.763,1.554,3.959,3.959,0,0,1,.7,3.226,5.472,5.472,0,0,1-1.982,2.769l-.188.175a.939.939,0,0,1-.276,0c-.052,0-.1-.009-.149-.011-.247-.011-.5-.037-.75-.062a6.539,6.539,0,0,0-1.6-.029,5.112,5.112,0,1,0,6.053,5.341,5.523,5.523,0,0,0-.824-3.184,8.411,8.411,0,0,0,3-4.962M5.375,23.674a1.969,1.969,0,0,1,1.9-1.982h.045a1.905,1.905,0,0,1,1.338.558,1.981,1.981,0,0,1,.6,1.411A1.954,1.954,0,0,1,7.324,25.6h-.01a1.945,1.945,0,0,1-1.939-1.929m60.4-.017h0a1.949,1.949,0,0,1-1.93,1.946h-.009a1.94,1.94,0,0,1-1.369-3.33,1.953,1.953,0,0,1,1.367-.582h.022a1.961,1.961,0,0,1,1.92,1.966" transform="translate(0 -6.624)"/>
        <path id="패스_87465" data-name="패스 87465" d="M208.444,62.507a11.372,11.372,0,0,0,4.48-8.907,2.169,2.169,0,0,0-1.066-2.085,12.823,12.823,0,0,0-13.67-.624c-2.064,1.082-2.36,1.694-1.986,4.1a11.649,11.649,0,0,0,4.571,7.7,5.129,5.129,0,0,1,2.146,4.417c-.01.6-.008,1.216,0,1.808,0,.272,0,.545,0,.817v.993c0,.727,0,1.454,0,2.181a2.013,2.013,0,0,0,.539,1.475,1.463,1.463,0,0,0,1.045.409h.041c.939-.021,1.547-.756,1.549-1.871,0-.5,0-1,.008-1.5.009-1.318.018-2.68-.017-4.021a5.67,5.67,0,0,1,2.362-4.881m-8.669-8.884a9.759,9.759,0,0,1,9.465,0,.7.7,0,0,1,.444.876,8.424,8.424,0,0,1-2.566,4.993c-.631.595-1.284,1.173-1.916,1.733q-.35.31-.691.614-.348-.311-.707-.627c-.644-.569-1.311-1.158-1.951-1.766a8.487,8.487,0,0,1-2.525-4.945.7.7,0,0,1,.446-.872" transform="translate(-168.932 -42.403)"/>
        <path id="패스_87466" data-name="패스 87466" d="M247.069,3.164l.074,0A1.6,1.6,0,0,0,248.727,1.6a1.583,1.583,0,0,0-3.165-.072,1.608,1.608,0,0,0,1.507,1.636" transform="translate(-211.579 -0.001)"/>
      </g>
    </g>
  </g>
</svg>
