<svg id="zip" xmlns="http://www.w3.org/2000/svg" xmlns:xlink="http://www.w3.org/1999/xlink" width="30" height="30" viewBox="0 0 30 30">
  <defs>
    <clipPath id="clip-path">
      <rect id="사각형_149440" data-name="사각형 149440" width="30" height="30" transform="translate(559 1425)" fill="none" stroke="#707070" stroke-width="1"/>
    </clipPath>
    <clipPath id="clip-path-2">
      <rect id="사각형_149439" data-name="사각형 149439" width="22.837" height="29.706" fill="#111"/>
    </clipPath>
  </defs>
  <g id="마스크_그룹_22" data-name="마스크 그룹 22" transform="translate(-559 -1425)" clip-path="url(#clip-path)">
    <g id="그룹_14100" data-name="그룹 14100" transform="translate(563 1425.147)">
      <g id="그룹_14099" data-name="그룹 14099" transform="translate(0 0)" clip-path="url(#clip-path-2)">
        <path id="패스_87515" data-name="패스 87515" d="M22.322,6.991a.4.4,0,0,0-.1-.364L16.266.338a.4.4,0,0,0-.4-.338H3.391A2.686,2.686,0,0,0,.708,2.683v24.34a2.686,2.686,0,0,0,2.683,2.683H19.65a2.686,2.686,0,0,0,2.683-2.683V7.08a.416.416,0,0,0-.01-.089M16.175,1.418,20.989,6.5H16.175ZM19.65,28.9H3.391a1.877,1.877,0,0,1-1.875-1.875V2.683A1.877,1.877,0,0,1,3.391.808H15.367V6.9a.4.4,0,0,0,.4.4h5.753V27.023A1.877,1.877,0,0,1,19.65,28.9" transform="translate(-0.216 0)" fill="#111"/>
        <path id="패스_87516" data-name="패스 87516" d="M23.389,18.6h-.816v2.225h.771a1.039,1.039,0,0,0,.8-.263,1.249,1.249,0,0,0,.235-.844,1.261,1.261,0,0,0-.235-.866,1,1,0,0,0-.76-.252" transform="translate(-6.871 -5.662)" fill="#111"/>
        <path id="패스_87517" data-name="패스 87517" d="M20.974,12.4H1.484A1.5,1.5,0,0,0,0,13.9V24.15a1.5,1.5,0,0,0,1.484,1.509h19.49a1.5,1.5,0,0,0,1.484-1.509V13.9A1.5,1.5,0,0,0,20.974,12.4M8.656,16.7l-3.211,4.54v.033h3.2v1.509H3.092V21.342l3.2-4.529v-.033H3.279V15.27H8.656Zm3.287,6.083H9.865V15.269h2.078Zm6.686-3.148a3.115,3.115,0,0,1-2.133.654H15.44v2.494H13.373V15.27h3.068a3.3,3.3,0,0,1,2.194.626,2.267,2.267,0,0,1,.731,1.822,2.43,2.43,0,0,1-.737,1.918" transform="translate(0 -3.773)" fill="#111"/>
      </g>
    </g>
  </g>
</svg>
